<?xml version="1.0" encoding="UTF-8"?>
<svg id="ICONS" xmlns="http://www.w3.org/2000/svg" width="64" height="64" viewBox="0 0 64 64">
  <defs>
    <style>
      .cls-1 {
        opacity: .9;
      }

      .cls-1, .cls-2, .cls-3 {
        stroke-width: 0px;
      }

      .cls-1, .cls-3 {
        fill: #fff;
        isolation: isolate;
      }

      .cls-2 {
        fill: #000;
      }

      .cls-3 {
        opacity: .65;
      }
    </style>
  </defs>
  <path class="cls-3" d="M26.49352,23.66432L3.4149.58578c-.37506-.37508-.88378-.58578-1.41422-.58578h-.5C.67226,0,.00068.67158.00068,1.5v33.1411c-.0297,1.29986.90266,2.42298,2.18576,2.63304.76724.0992,1.5369-.16458,2.082-.71354l8.56066-8.5606h11.96448c1.24842.0008,2.3063-.91902,2.479-2.15544.09854-.80892-.19018-1.61696-.77906-2.18024ZM24.79358,26h-12.7929l-9.14644,9.14642c-.09208.09424-.21824.1474-.35.14746-.27592.0022-.50136-.2197-.50356-.4956V2l23.14648,23.14642c.19528.19524.1953.51182.00006.7071-.09378.0938-.221.14648-.35364.14648Z"/>
  <path class="cls-2" d="M2.00068,2v32.79288c0,.27614.22384.5.49998.50002.1326,0,.25978-.05268.35356-.14644l9.14646-9.14646h12.7929c.27614,0,.5-.22386.5-.5,0-.1326-.05268-.25976-.14644-.35354L2.00068,2Z"/>
  <path class="cls-3" d="M23,48c-.55228,0-1-.44772-1-1v-12c0-.55228.44772-1,1-1h20c.55228,0,1,.44772,1,1v12c0,.55228-.44772,1-1,1h-20ZM43,50c1.65608-.00186,2.99814-1.34392,3-3v-12c-.00186-1.65608-1.34392-2.99814-3-3h-20c-1.65608.00186-2.99814,1.34392-3,3v12c.00186,1.65608,1.34392,2.99814,3,3h20Z"/>
  <path class="cls-2" d="M44,34h-22v14h22v-14Z"/>
  <polygon class="cls-1" points="40.146 36 24 36 24 44.972 40.146 36"/>
  <polygon class="cls-1" points="25.854 46 42 46 42 37.028 25.854 46"/>
</svg>