<svg id="S_32BitColor_Sm_N_D_2x" data-name="S_32BitColor_Sm_N_D@2x" xmlns="http://www.w3.org/2000/svg" width="32" height="32" viewBox="0 0 32 32">
  <defs>
    <style>
      .fill {
        fill: #fff;
        fill-rule: evenodd;
        opacity: 0.65;
      }

      .cls-1 {
        fill: #ff13dc;
        opacity: 0;
      }
    </style>
  </defs>
  <title>S_32BitColor_Sm_N_D@2x</title>
  <path class="fill" d="M27,10H26V7a1,1,0,0,0-1-1H19a1,1,0,0,0-1,1v3H14V7a1,1,0,0,0-1-1H7A1,1,0,0,0,6,7v3H5a1,1,0,0,0-1,1V27a1,1,0,0,0,1,1H27a1,1,0,0,0,1-1V11A1,1,0,0,0,27,10ZM11.128,26.18a6.337,6.337,0,0,1-2.988-.594c-.09-.036-.108-.145-.108-.234V23.569c0-.072.09-.108.162-.072a5.825,5.825,0,0,0,2.863.757c1.674,0,2.341-.721,2.341-1.639,0-1.062-.793-1.6-2.341-1.6H10.012c-.09,0-.126-.036-.126-.126V19.248c0-.108.019-.162.108-.162h.9c1.314,0,2.07-.433,2.07-1.332,0-.847-.666-1.405-2.034-1.405a5.13,5.13,0,0,0-2.593.685c-.108.036-.126,0-.126-.072V15.3c0-.09-.019-.126.09-.18a6.432,6.432,0,0,1,3.043-.7c2.322,0,3.745,1.224,3.745,3.043a2.614,2.614,0,0,1-1.639,2.395,2.837,2.837,0,0,1,2.179,2.809C15.63,24.938,13.595,26.18,11.128,26.18Zm13.7-1.926-.378,1.62A.162.162,0,0,1,24.27,26H16.96c-.127,0-.127-.054-.127-.144V24.649c0-.107,0-.162.072-.216a38.018,38.018,0,0,0,2.989-2.449c1.818-1.656,2.124-2.7,2.124-3.618,0-1.171-.611-1.981-2.124-1.981a5.2,5.2,0,0,0-2.646.738c-.091.055-.145.019-.145-.071V15.395a.214.214,0,0,1,.09-.2,6.665,6.665,0,0,1,3.169-.773,3.525,3.525,0,0,1,3.871,3.654,5.524,5.524,0,0,1-2.034,4.16,20.917,20.917,0,0,1-2.232,1.944c.684-.054,1.368-.054,2.646-.054h2.07C24.81,24.128,24.846,24.163,24.828,24.254Z"/>
  <rect id="ToDelete" class="cls-1" width="32" height="32"/>
</svg>
