<svg id="S_32BitColor_Md_N_D_2x" data-name="S_32BitColor_Md_N_D@2x" xmlns="http://www.w3.org/2000/svg" width="36" height="36" viewBox="0 0 36 36">
  <defs>
    <style>
      .fill {
        fill: #fff;
        fill-rule: evenodd;
        opacity: 0.65;
      }

      .cls-1 {
        fill: #ff13dc;
        opacity: 0;
      }
    </style>
  </defs>
  <title>S_32BitColor_Md_N_D@2x</title>
  <path class="fill" d="M33,10H30V7a1,1,0,0,0-1-1H21a1,1,0,0,0-1,1v3H16V7a1,1,0,0,0-1-1H7A1,1,0,0,0,6,7v3H3a1,1,0,0,0-1,1V31a1,1,0,0,0,1,1H33a1,1,0,0,0,1-1V11A1,1,0,0,0,33,10ZM12.015,28a7.383,7.383,0,0,1-3.485-.693c-.1-.042-.126-.168-.126-.273V24.956c0-.084.1-.126.189-.084a6.8,6.8,0,0,0,3.338.882c1.953,0,2.729-.84,2.729-1.911,0-1.239-.924-1.869-2.729-1.869H10.713c-.1,0-.147-.042-.147-.147V19.917c0-.126.021-.189.126-.189h1.05c1.533,0,2.415-.5,2.415-1.554,0-.987-.777-1.638-2.373-1.638a5.98,5.98,0,0,0-3.023.8c-.126.042-.147,0-.147-.084V15.318c0-.1-.021-.147.1-.21a7.508,7.508,0,0,1,3.548-.819c2.708,0,4.367,1.428,4.367,3.548a3.048,3.048,0,0,1-1.911,2.792,3.309,3.309,0,0,1,2.541,3.275C17.264,26.551,14.891,28,12.015,28Zm15.98-2.247-.441,1.89a.188.188,0,0,1-.21.147H18.82c-.147,0-.147-.063-.147-.168V26.215c0-.126,0-.189.084-.252a44.313,44.313,0,0,0,3.485-2.855c2.121-1.932,2.478-3.149,2.478-4.22,0-1.365-.714-2.31-2.478-2.31a6.067,6.067,0,0,0-3.086.861c-.1.063-.168.021-.168-.084V15.423a.246.246,0,0,1,.1-.231,7.759,7.759,0,0,1,3.7-.9c3.086,0,4.514,2.016,4.514,4.262A6.438,6.438,0,0,1,24.93,23.4a24.213,24.213,0,0,1-2.6,2.268c.8-.063,1.6-.063,3.086-.063h2.415C27.974,25.606,28.016,25.648,27.995,25.753Z"/>
  <rect id="ToDelete" class="cls-1" width="36" height="36"/>
</svg>
