<svg xmlns="http://www.w3.org/2000/svg" data-name="S_AAComparison_18_N_D@2x" height="36" id="S_AAComparison_18_N_D_2x" viewBox="0 0 36 36" width="36">
  <defs>
    <style>
      .fill {
        fill: #fff;
        opacity: 0.65;
      }

      
    </style>
  </defs>
  <title>S_AAComparison_18_N_D@2x</title>
  <path class="fill" d="M16,28H3a1,1,0,0,1-1-1V7A1,1,0,0,1,3,6H16ZM4,24H4v2H6V24Zm0-4H4v2H6V20Zm0-4H4v2H6V16Zm0-4H4v2H6V12ZM4,8H4v2H6V8Z" />
  <path class="fill" d="M18,6H31a1,1,0,0,1,1,1V27a1,1,0,0,1-1,1H18Zm12,4h0V8H28v2Zm0,4h0V12H28v2Zm0,4h0V16H28v2Zm0,4h0V20H28v2Zm0,4h0V24H28v2Z" />
  <path class="fill" d="M16.5,0h1a.5.5,0,0,1,.5.5V6a0,0,0,0,1,0,0H16a0,0,0,0,1,0,0V.5A.5.5,0,0,1,16.5,0Z" />
  <path class="fill" d="M16,28h2a0,0,0,0,1,0,0v5.5a.5.5,0,0,1-.5.5h-1a.5.5,0,0,1-.5-.5V28A0,0,0,0,1,16,28Z" />
  </svg>