<svg id="S_Accelerated_Md_N_D_2x" data-name="S_Accelerated_Md_N_D@2x" xmlns="http://www.w3.org/2000/svg" width="36" height="36" viewBox="0 0 36 36">
  <defs>
    <style>
      .fill {
        fill: #fff;
        fill-rule: evenodd;
        opacity: 0.65;
      }

      
    </style>
  </defs>
  <title>S_Accelerated_Md_N_D@2x</title>
  <path class="fill" d="M33,10H30V7a1,1,0,0,0-1-1H21a1,1,0,0,0-1,1v3H16V7a1,1,0,0,0-1-1H7A1,1,0,0,0,6,7v3H3a1,1,0,0,0-1,1V31a1,1,0,0,0,1,1H33a1,1,0,0,0,1-1V11A1,1,0,0,0,33,10ZM12,25.5a.5.5,0,0,1-.5.5h-5a.5.5,0,0,1-.5-.5v-1a.5.5,0,0,1,.5-.5h5a.5.5,0,0,1,.5.5Zm2-4a.5.5,0,0,1-.5.5h-5a.5.5,0,0,1-.5-.5v-1a.5.5,0,0,1,.5-.5h5a.5.5,0,0,1,.5.5Zm2-4a.5.5,0,0,1-.5.5h-5a.5.5,0,0,1-.5-.5v-1a.5.5,0,0,1,.5-.5h5a.5.5,0,0,1,.5.5Zm4.787,10.409A.5.5,0,0,1,20,27.5V14.522a.5.5,0,0,1,.787-.41L30,21Z"/>
  </svg>