<svg xmlns="http://www.w3.org/2000/svg" data-name="S_AddToTimline_18_N_D@2x" height="36" id="S_AddToTimline_18_N_D_2x" viewBox="0 0 36 36" width="36">
  <defs>
    <style>
      .fill {
        fill: #fff;
        opacity: 0.65;
      }

      
    </style>
  </defs>
  <title>S_AddToTimline_18_N_D@2x</title>
  <path class="fill" d="M33.5,16H31V5a1,1,0,0,0-1-1H28a1,1,0,0,0-1,1V16H24.5a.5.5,0,0,0-.384.82l4.5,5a.5.5,0,0,0,.768,0l4.5-5A.5.5,0,0,0,33.5,16Z" />
  <rect class="fill" height="8" rx="1" ry="1" width="10" x="24" y="24" />
  <rect class="fill" height="8" rx="1" ry="1" width="20" x="2" y="24" />
  </svg>