<svg xmlns="http://www.w3.org/2000/svg" data-name="S_AddCircleBlue_24_N_D@2x" height="48" id="S_AddCircleBlue_24_N_D_2x" viewBox="0 0 48 48" width="48">
  <defs>
    <style>
	.cls-1 {
        fill: #2680eb;
      }
	.cls-2 {
        fill: #fff;
      }</style>
  </defs>
  <title>S_AddCircleBlue_24_N_D@2x</title>
  <path class="cls-1" d="M24,.2A23.8,23.8,0,1,0,47.8,24,23.8,23.8,0,0,0,24,.2ZM36,25a1,1,0,0,1-1,1H26v9a1,1,0,0,1-1,1H23a1,1,0,0,1-1-1V26H13a1,1,0,0,1-1-1V23a1,1,0,0,1,1-1h9V13a1,1,0,0,1,1-1h2a1,1,0,0,1,1,1v9h9a1,1,0,0,1,1,1Z" />
  <path class="cls-2" d="M35,22H26V13a1,1,0,0,0-1-1H23a1,1,0,0,0-1,1v9H13a1,1,0,0,0-1,1v2a1,1,0,0,0,1,1h9v9a1,1,0,0,0,1,1h2a1,1,0,0,0,1-1V26h9a1,1,0,0,0,1-1V23A1,1,0,0,0,35,22Z" />
  </svg>