<svg id="S_AddedByMe_17x15_N_D_2x" data-name="S_AddedByMe_17x15_N_D@2x" xmlns="http://www.w3.org/2000/svg" width="34" height="30" viewBox="0 0 34 30">
  <defs>
    <style>
      .background, .fill {
        opacity: 0.65;
      }

      .fill {
        fill: #fff;
        fill-rule: evenodd;
      }

      .cls-1 {
        fill: #ff13dc;
        opacity: 0;
      }
    </style>
  </defs>
  <title>S_AddedByMe_17x15_N_D@2x</title>
  <path class="background" d="M1,0H33a1,1,0,0,1,1,1V29a1,1,0,0,1-1,1H1a1,1,0,0,1-1-1V1A1,1,0,0,1,1,0Z"/>
  <path class="fill" d="M4,4H30V26H4ZM2,3V27a1,1,0,0,0,1,1H31a1,1,0,0,0,1-1V3a1,1,0,0,0-1-1H3A1,1,0,0,0,2,3Z"/>
  <path class="fill" d="M24.779,14.375,17,6,9.221,14.375A1,1,0,0,0,10,16h3v7a1,1,0,0,0,1,1h6a1,1,0,0,0,1-1V16h3A1,1,0,0,0,24.779,14.375Z"/>
  <rect id="ToDelete" class="cls-1" width="34" height="30"/>
</svg>
