<svg id="S_AddedByOthers_17x15_N_D_2x" data-name="S_AddedByOthers_17x15_N_D@2x" xmlns="http://www.w3.org/2000/svg" width="34" height="30" viewBox="0 0 34 30">
  <defs>
    <style>
      .background {
        opacity: 0.65;
      }

      .cls-1 {
        fill: #f4c500;
      }

      
    </style>
  </defs>
  <title>S_AddedByOthers_17x15_N_D@2x</title>
  <path class="background" d="M1,0H33a1,1,0,0,1,1,1V29a1,1,0,0,1-1,1H1a1,1,0,0,1-1-1V1A1,1,0,0,1,1,0Z"/>
  <path class="cls-1" d="M4,4H30V26H4ZM2,3V27a1,1,0,0,0,1,1H31a1,1,0,0,0,1-1V3a1,1,0,0,0-1-1H3A1,1,0,0,0,2,3Z"/>
  <path class="cls-1" d="M25,12H20V7a1,1,0,0,0-1-1H15a1,1,0,0,0-1,1v5H9a1,1,0,0,0-1,1v4a1,1,0,0,0,1,1h5v5a1,1,0,0,0,1,1h4a1,1,0,0,0,1-1V18h5a1,1,0,0,0,1-1V13A1,1,0,0,0,25,12Z"/>
  </svg>