<svg id="S_AddCircle_18_N_D_2x" data-name="S_AddCircle_18_N_D@2x" xmlns="http://www.w3.org/2000/svg" width="36" height="36" viewBox="0 0 36 36">
  <defs>
    <style>
      .fill {
        fill: #fff;
        fill-rule: evenodd;
        opacity: 0.65;
      }

      
    </style>
  </defs>
  <title>S_AddCircle_18_N_D@2x</title>
  <path class="fill" d="M18,2A16,16,0,1,0,34,18,16,16,0,0,0,18,2ZM28,19a1,1,0,0,1-1,1H20v7a1,1,0,0,1-1,1H17a1,1,0,0,1-1-1V20H9a1,1,0,0,1-1-1V17a1,1,0,0,1,1-1h7V9a1,1,0,0,1,1-1h2a1,1,0,0,1,1,1v7h7a1,1,0,0,1,1,1Z"/>
  </svg>