<svg xmlns="http://www.w3.org/2000/svg" data-name="S_AeMoGrTe_Xl_N_D@2x" height="64" id="S_AeMoGrTe_Xl_N_D_2x" viewBox="0 0 64 64" width="64">
  <defs>
    <style>
	.green {
        fill: #149b14;
      }
	.blue {
        fill: #2d8ceb;
      }
	.red {
        fill: #f53c3c;
      }
	.fill {
        fill: #fff;
        fill-rule: evenodd;
        opacity: 0.65;
      }</style>
  </defs>
  <title>S_AeMoGrTe_Xl_N_D@2x</title>
  <path class="green" d="M39.809,38.455l-6.485-9.976a1,1,0,0,0-1.677,0l-6.485,9.976A1,1,0,0,0,26,40H38.971A1,1,0,0,0,39.809,38.455Z" />
  <path class="blue" d="M27.172,31.695l2.8-4.306a2.992,2.992,0,0,1,1.11-1.013c.008-.125.019-.249.019-.375a6.118,6.118,0,1,0-3.928,5.695Z" />
  <path class="red" d="M43,24l-10.163-.008A8.061,8.061,0,0,1,33.1,26c0,.034-.007.066-.007.1A2.976,2.976,0,0,1,35,27.389L40.6,36H43a1,1,0,0,0,1-1V25A1,1,0,0,0,43,24Z" />
  <path class="fill" d="M57,4H7A1,1,0,0,0,6,5V59a1,1,0,0,0,1,1H57a1,1,0,0,0,1-1V5A1,1,0,0,0,57,4ZM14,57.5a.5.5,0,0,1-.5.5h-3a.5.5,0,0,1-.5-.5v-3a.5.5,0,0,1,.5-.5h3a.5.5,0,0,1,.5.5Zm0-8a.5.5,0,0,1-.5.5h-3a.5.5,0,0,1-.5-.5v-3a.5.5,0,0,1,.5-.5h3a.5.5,0,0,1,.5.5Zm0-8a.5.5,0,0,1-.5.5h-3a.5.5,0,0,1-.5-.5v-3a.5.5,0,0,1,.5-.5h3a.5.5,0,0,1,.5.5Zm0-8a.5.5,0,0,1-.5.5h-3a.5.5,0,0,1-.5-.5v-3a.5.5,0,0,1,.5-.5h3a.5.5,0,0,1,.5.5Zm0-8a.5.5,0,0,1-.5.5h-3a.5.5,0,0,1-.5-.5v-3a.5.5,0,0,1,.5-.5h3a.5.5,0,0,1,.5.5Zm0-8a.5.5,0,0,1-.5.5h-3a.5.5,0,0,1-.5-.5v-3a.5.5,0,0,1,.5-.5h3a.5.5,0,0,1,.5.5Zm0-8a.5.5,0,0,1-.5.5h-3a.5.5,0,0,1-.5-.5v-3a.5.5,0,0,1,.5-.5h3a.5.5,0,0,1,.5.5ZM46,35a3,3,0,0,1-3,3H41.786a2.984,2.984,0,0,1-2.815,4H26a3,3,0,0,1-2.515-4.635l2.143-3.3c-.208.016-.417.032-.629.032A8.1,8.1,0,1,1,32.034,22H43a3,3,0,0,1,3,3Zm8,22.5a.5.5,0,0,1-.5.5h-3a.5.5,0,0,1-.5-.5v-3a.5.5,0,0,1,.5-.5h3a.5.5,0,0,1,.5.5Zm0-8a.5.5,0,0,1-.5.5h-3a.5.5,0,0,1-.5-.5v-3a.5.5,0,0,1,.5-.5h3a.5.5,0,0,1,.5.5Zm0-8a.5.5,0,0,1-.5.5h-3a.5.5,0,0,1-.5-.5v-3a.5.5,0,0,1,.5-.5h3a.5.5,0,0,1,.5.5Zm0-8a.5.5,0,0,1-.5.5h-3a.5.5,0,0,1-.5-.5v-3a.5.5,0,0,1,.5-.5h3a.5.5,0,0,1,.5.5Zm0-8a.5.5,0,0,1-.5.5h-3a.5.5,0,0,1-.5-.5v-3a.5.5,0,0,1,.5-.5h3a.5.5,0,0,1,.5.5Zm0-8a.5.5,0,0,1-.5.5h-3a.5.5,0,0,1-.5-.5v-3a.5.5,0,0,1,.5-.5h3a.5.5,0,0,1,.5.5Zm0-8a.5.5,0,0,1-.5.5h-3a.5.5,0,0,1-.5-.5v-3a.5.5,0,0,1,.5-.5h3a.5.5,0,0,1,.5.5Z" />
  </svg>