<svg xmlns="http://www.w3.org/2000/svg" data-name="S_AeMoGrTe_48x48_N_D@2x" height="96" id="S_AeMoGrTe_48x48_N_D_2x" viewBox="0 0 96 96" width="96">
  <defs>
    <style>
	.blue {
        fill: #2d8ceb;
      }
	.green {
        fill: #149b14;
      }
	.red {
        fill: #f53c3c;
      }
	.fill {
        fill: #fff;
        fill-rule: evenodd;
        opacity: 0.65;
      }</style>
  </defs>
  <title>S_AeMoGrTe_48x48_N_D@2x</title>
  <path class="blue" d="M40.672,48.7l5.892-9.064c.009-.176.026-.349.026-.526a10.77,10.77,0,1,0-5.918,9.59Z" />
  <path class="green" d="M49.792,42.673,62.651,62.455A1,1,0,0,1,61.812,64H36.1a1,1,0,0,1-.838-1.545L48.115,42.673A1,1,0,0,1,49.792,42.673Z" />
  <path class="red" d="M51.169,36.034c0,.465-.024,2.012-.069,2.966L63.535,58.043H69A1.038,1.038,0,0,0,70,57V37a1,1,0,0,0-1-1Z" />
  <path class="fill" d="M86.5,6H9.5A1.5,1.5,0,0,0,8,7.5v81A1.5,1.5,0,0,0,9.5,90h77A1.5,1.5,0,0,0,88,88.5V7.5A1.5,1.5,0,0,0,86.5,6ZM20,86.25a.75.75,0,0,1-.75.75h-4.5a.75.75,0,0,1-.75-.75v-4.5a.75.75,0,0,1,.75-.75h4.5a.75.75,0,0,1,.75.75Zm0-12a.75.75,0,0,1-.75.75h-4.5a.75.75,0,0,1-.75-.75v-4.5a.75.75,0,0,1,.75-.75h4.5a.75.75,0,0,1,.75.75Zm0-12a.75.75,0,0,1-.75.75h-4.5a.75.75,0,0,1-.75-.75v-4.5a.75.75,0,0,1,.75-.75h4.5a.75.75,0,0,1,.75.75Zm0-12a.75.75,0,0,1-.75.75h-4.5a.75.75,0,0,1-.75-.75v-4.5a.75.75,0,0,1,.75-.75h4.5a.75.75,0,0,1,.75.75Zm0-12a.75.75,0,0,1-.75.75h-4.5a.75.75,0,0,1-.75-.75v-4.5a.75.75,0,0,1,.75-.75h4.5a.75.75,0,0,1,.75.75Zm0-12a.75.75,0,0,1-.75.75h-4.5a.75.75,0,0,1-.75-.75v-4.5a.75.75,0,0,1,.75-.75h4.5a.75.75,0,0,1,.75.75Zm0-12a.75.75,0,0,1-.75.75h-4.5a.75.75,0,0,1-.75-.75V9.75A.75.75,0,0,1,14.75,9h4.5a.75.75,0,0,1,.75.75ZM73,57a4.027,4.027,0,0,1-4,4.043H65.311l.167.257A3.689,3.689,0,0,1,62.385,67H35.522a3.689,3.689,0,0,1-3.093-5.7l5.618-8.643A13.732,13.732,0,1,1,48.169,33v.04L69,33h0a4,4,0,0,1,4,4Zm9,29.25a.75.75,0,0,1-.75.75h-4.5a.75.75,0,0,1-.75-.75v-4.5a.75.75,0,0,1,.75-.75h4.5a.75.75,0,0,1,.75.75Zm0-12a.75.75,0,0,1-.75.75h-4.5a.75.75,0,0,1-.75-.75v-4.5a.75.75,0,0,1,.75-.75h4.5a.75.75,0,0,1,.75.75Zm0-12a.75.75,0,0,1-.75.75h-4.5a.75.75,0,0,1-.75-.75v-4.5a.75.75,0,0,1,.75-.75h4.5a.75.75,0,0,1,.75.75Zm0-12a.75.75,0,0,1-.75.75h-4.5a.75.75,0,0,1-.75-.75v-4.5a.75.75,0,0,1,.75-.75h4.5a.75.75,0,0,1,.75.75Zm0-12a.75.75,0,0,1-.75.75h-4.5a.75.75,0,0,1-.75-.75v-4.5a.75.75,0,0,1,.75-.75h4.5a.75.75,0,0,1,.75.75Zm0-12a.75.75,0,0,1-.75.75h-4.5a.75.75,0,0,1-.75-.75v-4.5a.75.75,0,0,1,.75-.75h4.5a.75.75,0,0,1,.75.75Zm0-12a.75.75,0,0,1-.75.75h-4.5a.75.75,0,0,1-.75-.75V9.75A.75.75,0,0,1,76.75,9h4.5a.75.75,0,0,1,.75.75Z" />
  </svg>