<svg id="S_AeCompositions_48x48_N_D_2x" data-name="S_AeCompositions_48x48_N_D@2x" xmlns="http://www.w3.org/2000/svg" width="96" height="96" viewBox="0 0 96 96">
  <defs>
    <style>
      .fill {
        fill: #fff;
        fill-rule: evenodd;
        opacity: 0.65;
      }

      
    </style>
  </defs>
  <title>S_AeCompositions_48x48_N_D@2x</title>
  <path class="fill" d="M88,12H8a2,2,0,0,0-2,2V82a2,2,0,0,0,2,2H88a2,2,0,0,0,2-2V14A2,2,0,0,0,88,12ZM17,77.25a0.75,0.75,0,0,1-.75.75h-4.5A0.75,0.75,0,0,1,11,77.25v-4.5A0.75,0.75,0,0,1,11.75,72h4.5a0.75,0.75,0,0,1,.75.75v4.5Zm0-14a0.75,0.75,0,0,1-.75.75h-4.5A0.75,0.75,0,0,1,11,63.25v-4.5A0.75,0.75,0,0,1,11.75,58h4.5a0.75,0.75,0,0,1,.75.75v4.5Zm0-13a0.75,0.75,0,0,1-.75.75h-4.5A0.75,0.75,0,0,1,11,50.25v-4.5A0.75,0.75,0,0,1,11.75,45h4.5a0.75,0.75,0,0,1,.75.75v4.5Zm0-14a0.75,0.75,0,0,1-.75.75h-4.5A0.75,0.75,0,0,1,11,36.25v-4.5A0.75,0.75,0,0,1,11.75,31h4.5a0.75,0.75,0,0,1,.75.75v4.5Zm0-13a0.75,0.75,0,0,1-.75.75h-4.5A0.75,0.75,0,0,1,11,23.25v-4.5A0.75,0.75,0,0,1,11.75,18h4.5a0.75,0.75,0,0,1,.75.75v4.5Zm54.856,36.7a1.909,1.909,0,0,1-1.909,1.909H53.857l3.4,5.727A1.909,1.909,0,0,1,55.6,70.448H29.884a1.909,1.909,0,0,1-1.653-2.864l7.4-12.707A13.365,13.365,0,1,1,50.933,37.039H69.947a1.909,1.909,0,0,1,1.909,1.909v21ZM85,77.25a0.75,0.75,0,0,1-.75.75h-4.5A0.75,0.75,0,0,1,79,77.25v-4.5A0.75,0.75,0,0,1,79.75,72h4.5a0.75,0.75,0,0,1,.75.75v4.5Zm0-14a0.75,0.75,0,0,1-.75.75h-4.5A0.75,0.75,0,0,1,79,63.25v-4.5A0.75,0.75,0,0,1,79.75,58h4.5a0.75,0.75,0,0,1,.75.75v4.5Zm0-13a0.75,0.75,0,0,1-.75.75h-4.5A0.75,0.75,0,0,1,79,50.25v-4.5A0.75,0.75,0,0,1,79.75,45h4.5a0.75,0.75,0,0,1,.75.75v4.5Zm0-14a0.75,0.75,0,0,1-.75.75h-4.5A0.75,0.75,0,0,1,79,36.25v-4.5A0.75,0.75,0,0,1,79.75,31h4.5a0.75,0.75,0,0,1,.75.75v4.5Zm0-13a0.75,0.75,0,0,1-.75.75h-4.5A0.75,0.75,0,0,1,79,23.25v-4.5A0.75,0.75,0,0,1,79.75,18h4.5a0.75,0.75,0,0,1,.75.75v4.5Z"/>
  <polygon class="fill" points="34.146 66.63 51.339 66.63 42.604 51.44 34.146 66.63"/>
  <path class="fill" d="M38.231,50.4L42.6,42.886l2.546,4.293A8.588,8.588,0,1,0,38.231,50.4Z"/>
  </svg>