<svg id="S_Still_Sm_N_D_2x" data-name="S_Still_Sm_N_D@2x" xmlns="http://www.w3.org/2000/svg" width="32" height="32" viewBox="0 0 32 32">
  <defs>
    <style>
      .fill {
        fill: #fff;
        fill-rule: evenodd;
        opacity: 0.65;
      }

      
    </style>
  </defs>
  <title>S_Still_Sm_N_D@2x</title>
  <polygon class="fill" points="20 3 20 10 27 10 20 3"/>
  <circle class="fill" cx="15" cy="23" r="3"/>
  <path class="fill" d="M14,18V14.828L8.828,20h2.194A4.984,4.984,0,0,1,14,18.1V18Z"/>
  <path class="fill" d="M19,12a1,1,0,0,1-1-1V2H5A1,1,0,0,0,4,3V29a1,1,0,0,0,1,1H27a1,1,0,0,0,1-1V12H19Zm5,11a1,1,0,0,1-1,1H19.9a5,5,0,0,1-9.8-2H5.207a0.5,0.5,0,0,1-.354-0.854L15.146,10.854a0.489,0.489,0,0,1,.35-0.147,0.5,0.5,0,0,1,.5.5V14h7a1,1,0,0,1,1,1v8Z"/>
  </svg>