<svg id="S_AeCompositions_Xl_N_D_2x" data-name="S_AeCompositions_Xl_N_D@2x" xmlns="http://www.w3.org/2000/svg" width="64" height="64" viewBox="0 0 64 64">
  <defs>
    <style>
      .fill {
        fill: #fff;
        fill-rule: evenodd;
        opacity: 0.65;
      }

      
    </style>
  </defs>
  <title>S_AeCompositions_Xl_N_D@2x</title>
  <path class="fill" d="M57,10H7a1,1,0,0,0-1,1V53a1,1,0,0,0,1,1H57a1,1,0,0,0,1-1V11A1,1,0,0,0,57,10ZM14,49.333a0.667,0.667,0,0,1-.667.667H10.667A0.667,0.667,0,0,1,10,49.333V46.667A0.667,0.667,0,0,1,10.667,46h2.667a0.667,0.667,0,0,1,.667.667v2.667Zm0-8a0.667,0.667,0,0,1-.667.667H10.667A0.667,0.667,0,0,1,10,41.333V38.667A0.667,0.667,0,0,1,10.667,38h2.667a0.667,0.667,0,0,1,.667.667v2.667Zm0-8a0.667,0.667,0,0,1-.667.667H10.667A0.667,0.667,0,0,1,10,33.333V30.667A0.667,0.667,0,0,1,10.667,30h2.667a0.667,0.667,0,0,1,.667.667v2.667Zm0-8a0.667,0.667,0,0,1-.667.667H10.667A0.667,0.667,0,0,1,10,25.333V22.667A0.667,0.667,0,0,1,10.667,22h2.667a0.667,0.667,0,0,1,.667.667v2.667Zm0-8a0.667,0.667,0,0,1-.667.667H10.667A0.667,0.667,0,0,1,10,17.333V14.667A0.667,0.667,0,0,1,10.667,14h2.667a0.667,0.667,0,0,1,.667.667v2.667ZM46,40.557a1.463,1.463,0,0,1-1.459,1.459h-6.15l1.336,2.341a0.429,0.429,0,0,1-.371.643H21.787a0.429,0.429,0,0,1-.371-0.643l3.724-6.45A8.569,8.569,0,1,1,35.542,28h9.012A1.446,1.446,0,0,1,46,29.446V40.557Zm8,8.777a0.667,0.667,0,0,1-.667.667H50.667A0.667,0.667,0,0,1,50,49.333V46.667A0.667,0.667,0,0,1,50.667,46h2.667a0.667,0.667,0,0,1,.667.667v2.667Zm0-8a0.667,0.667,0,0,1-.667.667H50.667A0.667,0.667,0,0,1,50,41.333V38.667A0.667,0.667,0,0,1,50.667,38h2.667a0.667,0.667,0,0,1,.667.667v2.667Zm0-8a0.667,0.667,0,0,1-.667.667H50.667A0.667,0.667,0,0,1,50,33.333V30.667A0.667,0.667,0,0,1,50.667,30h2.667a0.667,0.667,0,0,1,.667.667v2.667Zm0-8a0.667,0.667,0,0,1-.667.667H50.667A0.667,0.667,0,0,1,50,25.333V22.667A0.667,0.667,0,0,1,50.667,22h2.667a0.667,0.667,0,0,1,.667.667v2.667Zm0-8a0.667,0.667,0,0,1-.667.667H50.667A0.667,0.667,0,0,1,50,17.333V14.667A0.667,0.667,0,0,1,50.667,14h2.667a0.667,0.667,0,0,1,.667.667v2.667Z"/>
  <polygon class="fill" points="25.499 42.429 35.644 42.429 30.571 33.643 25.499 42.429"/>
  <path class="fill" d="M27.034,23.572a6.074,6.074,0,0,0-5.885,5.722,6.008,6.008,0,0,0,5.359,6.244l3.692-6.4a0.429,0.429,0,0,1,.742,0l1.67,2.893A6,6,0,0,0,27.034,23.572Z"/>
  </svg>