<svg xmlns="http://www.w3.org/2000/svg" data-name="S_AeMoGrTe_Sm_N_D@2x" height="32" id="S_AeMoGrTe_Sm_N_D_2x" viewBox="0 0 32 32" width="32">
  <defs>
    <style>
	.red {
        fill: #f53c3c;
      }
	.green {
        fill: #149b14;
      }
	.blue {
        fill: #2d8ceb;
      }
	.fill {
        fill: #fff;
        fill-rule: evenodd;
        opacity: 0.65;
      }</style>
  </defs>
  <title>S_AeMoGrTe_Sm_N_D@2x</title>
  <path class="red" d="M17,12a5.019,5.019,0,0,1-.008,2.044l.081.124L19.562,18H21.5a.5.5,0,0,0,.5-.5v-5a.5.5,0,0,0-.5-.5Z" />
  <path class="green" d="M11.982,22h6.993a.5.5,0,0,0,.419-.772l-3.5-5.379a.5.5,0,0,0-.838,0l-3.5,5.379A.5.5,0,0,0,11.982,22Z" />
  <path class="blue" d="M12,16.3a3.284,3.284,0,0,0,.535-.054l1.351-2.078,1.3-2A3.295,3.295,0,1,0,12,16.3Z" />
  <path class="fill" d="M28.933,2H3.067A1.035,1.035,0,0,0,2,3V27a1.035,1.035,0,0,0,1.067,1H28.933A1.035,1.035,0,0,0,30,27V3A1.035,1.035,0,0,0,28.933,2ZM6,25.5a.5.5,0,0,1-.5.5h-1a.5.5,0,0,1-.5-.5v-1a.5.5,0,0,1,.5-.5h1a.5.5,0,0,1,.5.5Zm0-4a.5.5,0,0,1-.5.5h-1a.5.5,0,0,1-.5-.5v-1a.5.5,0,0,1,.5-.5h1a.5.5,0,0,1,.5.5Zm0-4a.5.5,0,0,1-.5.5h-1a.5.5,0,0,1-.5-.5v-1a.5.5,0,0,1,.5-.5h1a.5.5,0,0,1,.5.5Zm0-4a.5.5,0,0,1-.5.5h-1a.5.5,0,0,1-.5-.5v-1a.5.5,0,0,1,.5-.5h1a.5.5,0,0,1,.5.5Zm0-4a.5.5,0,0,1-.5.5h-1A.5.5,0,0,1,4,9.5v-1A.5.5,0,0,1,4.5,8h1a.5.5,0,0,1,.5.5Zm0-4a.5.5,0,0,1-.5.5h-1A.5.5,0,0,1,4,5.5v-1A.5.5,0,0,1,4.5,4h1a.5.5,0,0,1,.5.5ZM24,19a1,1,0,0,1-1,1H20.862l1.1,1.685A1.5,1.5,0,0,1,20.7,24H10.257A1.5,1.5,0,0,1,9,21.684l2.371-3.648A5.089,5.089,0,0,1,6.9,12.848,5.177,5.177,0,0,1,12.2,7.9,5.088,5.088,0,0,1,16.1,10H23a1,1,0,0,1,1,1Zm4,6.5a.5.5,0,0,1-.5.5h-1a.5.5,0,0,1-.5-.5v-1a.5.5,0,0,1,.5-.5h1a.5.5,0,0,1,.5.5Zm0-4a.5.5,0,0,1-.5.5h-1a.5.5,0,0,1-.5-.5v-1a.5.5,0,0,1,.5-.5h1a.5.5,0,0,1,.5.5Zm0-4a.5.5,0,0,1-.5.5h-1a.5.5,0,0,1-.5-.5v-1a.5.5,0,0,1,.5-.5h1a.5.5,0,0,1,.5.5Zm0-4a.5.5,0,0,1-.5.5h-1a.5.5,0,0,1-.5-.5v-1a.5.5,0,0,1,.5-.5h1a.5.5,0,0,1,.5.5Zm0-4a.5.5,0,0,1-.5.5h-1a.5.5,0,0,1-.5-.5v-1a.5.5,0,0,1,.5-.5h1a.5.5,0,0,1,.5.5Zm0-4a.5.5,0,0,1-.5.5h-1a.5.5,0,0,1-.5-.5v-1a.5.5,0,0,1,.5-.5h1a.5.5,0,0,1,.5.5Z" />
  </svg>