<svg id="S_AeCompositions_64x64_N_D_2x" data-name="S_AeCompositions_64x64_N_D@2x" xmlns="http://www.w3.org/2000/svg" width="128" height="128" viewBox="0 0 128 128">
  <defs>
    <style>
      .fill {
        fill: #fff;
        fill-rule: evenodd;
        opacity: 0.65;
      }

      
    </style>
  </defs>
  <title>S_AeCompositions_64x64_N_D@2x</title>
  <path class="fill" d="M114,18H16a2,2,0,0,0-2,2v88a2,2,0,0,0,2,2h98a2,2,0,0,0,2-2V20A2,2,0,0,0,114,18ZM26,101.25a0.721,0.721,0,0,1-.689.75H20.689A0.721,0.721,0,0,1,20,101.25v-4.5A0.721,0.721,0,0,1,20.689,96h4.623a0.721,0.721,0,0,1,.689.75v4.5Zm0-12a0.721,0.721,0,0,1-.689.75H20.689A0.721,0.721,0,0,1,20,89.25v-4.5A0.721,0.721,0,0,1,20.689,84h4.623a0.721,0.721,0,0,1,.689.75v4.5Zm0-12a0.721,0.721,0,0,1-.689.75H20.689A0.721,0.721,0,0,1,20,77.25v-4.5A0.721,0.721,0,0,1,20.689,72h4.623a0.721,0.721,0,0,1,.689.75v4.5Zm0-12a0.721,0.721,0,0,1-.689.75H20.689A0.721,0.721,0,0,1,20,65.25v-4.5A0.721,0.721,0,0,1,20.689,60h4.623a0.721,0.721,0,0,1,.689.75v4.5Zm0-12a0.721,0.721,0,0,1-.689.75H20.689A0.721,0.721,0,0,1,20,53.25v-4.5A0.721,0.721,0,0,1,20.689,48h4.623a0.721,0.721,0,0,1,.689.75v4.5Zm0-12a0.721,0.721,0,0,1-.689.75H20.689A0.721,0.721,0,0,1,20,41.25v-4.5A0.721,0.721,0,0,1,20.689,36h4.623a0.721,0.721,0,0,1,.689.75v4.5Zm0-12a0.721,0.721,0,0,1-.689.75H20.689A0.721,0.721,0,0,1,20,29.25v-4.5A0.721,0.721,0,0,1,20.689,24h4.623a0.721,0.721,0,0,1,.689.75v4.5ZM96,77.339A2.666,2.666,0,0,1,93.308,80h-22.3l4.25,7.308A1.8,1.8,0,0,1,73.7,90H41.951A1.8,1.8,0,0,1,40.4,87.308L49.6,71.362A17.047,17.047,0,1,1,68.154,48l25.154,0.013A2.692,2.692,0,0,1,96,50.705V77.339Zm14,23.911a0.721,0.721,0,0,1-.689.75h-4.623a0.721,0.721,0,0,1-.689-0.75v-4.5a0.721,0.721,0,0,1,.689-0.75h4.623a0.721,0.721,0,0,1,.689.75v4.5Zm0-12a0.721,0.721,0,0,1-.689.75h-4.623A0.721,0.721,0,0,1,104,89.25v-4.5a0.721,0.721,0,0,1,.689-0.75h4.623a0.721,0.721,0,0,1,.689.75v4.5Zm0-12a0.721,0.721,0,0,1-.689.75h-4.623A0.721,0.721,0,0,1,104,77.25v-4.5a0.721,0.721,0,0,1,.689-0.75h4.623a0.721,0.721,0,0,1,.689.75v4.5Zm0-12a0.721,0.721,0,0,1-.689.75h-4.623A0.721,0.721,0,0,1,104,65.25v-4.5a0.721,0.721,0,0,1,.689-0.75h4.623a0.721,0.721,0,0,1,.689.75v4.5Zm0-12a0.721,0.721,0,0,1-.689.75h-4.623A0.721,0.721,0,0,1,104,53.25v-4.5a0.721,0.721,0,0,1,.689-0.75h4.623a0.721,0.721,0,0,1,.689.75v4.5Zm0-12a0.721,0.721,0,0,1-.689.75h-4.623A0.721,0.721,0,0,1,104,41.25v-4.5a0.721,0.721,0,0,1,.689-0.75h4.623a0.721,0.721,0,0,1,.689.75v4.5Zm0-12a0.721,0.721,0,0,1-.689.75h-4.623A0.721,0.721,0,0,1,104,29.25v-4.5a0.721,0.721,0,0,1,.689-0.75h4.623a0.721,0.721,0,0,1,.689.75v4.5Z"/>
  <polygon class="fill" points="47.583 85 67.417 85 57.827 67.886 47.583 85"/>
  <path class="fill" d="M52.474,66.218h0.1l5.254-9.1,3.135,5.43A11.661,11.661,0,1,0,52.474,66.218Z"/>
  </svg>