<svg xmlns="http://www.w3.org/2000/svg" data-name="S_AeMoGrTe_64x64_N_D@2x" height="128" id="S_AeMoGrTe_64x64_N_D_2x" viewBox="0 0 128 128" width="128">
  <defs>
    <style>
	.blue {
        fill: #2d8ceb;
      }
	.green {
        fill: #149b14;
      }
	.red {
        fill: #f53c3c;
      }
	.fill {
        fill: #fff;
        fill-rule: evenodd;
        opacity: 0.65;
      }</style>
  </defs>
  <title>S_AeMoGrTe_64x64_N_D@2x</title>
  <path class="blue" d="M55.286,64.036,62.2,53.393c.01-.206.031-.41.031-.618a12.647,12.647,0,1,0-6.95,11.262Z" />
  <path class="green" d="M65.85,56.731,81.27,80.455A1,1,0,0,1,80.432,82H49.591a1,1,0,0,1-.838-1.545L64.173,56.731A1,1,0,0,1,65.85,56.731Z" />
  <path class="red" d="M67.529,49c0,.546.055,2.523,0,3.643L82.134,75H90a1,1,0,0,0,1-1V50a1,1,0,0,0-1-1Z" />
  <path class="fill" d="M114,8H14a2,2,0,0,0-2,2V118a2,2,0,0,0,2,2H114a2,2,0,0,0,2-2V10A2,2,0,0,0,114,8ZM28,115a1,1,0,0,1-1,1H21a1,1,0,0,1-1-1v-6a1,1,0,0,1,1-1h6a1,1,0,0,1,1,1Zm0-16a1,1,0,0,1-1,1H21a1,1,0,0,1-1-1V93a1,1,0,0,1,1-1h6a1,1,0,0,1,1,1Zm0-16a1,1,0,0,1-1,1H21a1,1,0,0,1-1-1V77a1,1,0,0,1,1-1h6a1,1,0,0,1,1,1Zm0-16a1,1,0,0,1-1,1H21a1,1,0,0,1-1-1V61a1,1,0,0,1,1-1h6a1,1,0,0,1,1,1Zm0-16a1,1,0,0,1-1,1H21a1,1,0,0,1-1-1V45a1,1,0,0,1,1-1h6a1,1,0,0,1,1,1Zm0-16a1,1,0,0,1-1,1H21a1,1,0,0,1-1-1V29a1,1,0,0,1,1-1h6a1,1,0,0,1,1,1Zm0-16a1,1,0,0,1-1,1H21a1,1,0,0,1-1-1V13a1,1,0,0,1,1-1h6a1,1,0,0,1,1,1ZM94,74a4,4,0,0,1-4,4H83.253l.533.82A4,4,0,0,1,80.432,85H49.591a4,4,0,0,1-3.354-6.18l7.069-10.876a15.448,15.448,0,0,1-3.689.448A15.618,15.618,0,1,1,63.669,46H90a4,4,0,0,1,4,4Zm14,41a1,1,0,0,1-1,1h-6a1,1,0,0,1-1-1v-6a1,1,0,0,1,1-1h6a1,1,0,0,1,1,1Zm0-16a1,1,0,0,1-1,1h-6a1,1,0,0,1-1-1V93a1,1,0,0,1,1-1h6a1,1,0,0,1,1,1Zm0-16a1,1,0,0,1-1,1h-6a1,1,0,0,1-1-1V77a1,1,0,0,1,1-1h6a1,1,0,0,1,1,1Zm0-16a1,1,0,0,1-1,1h-6a1,1,0,0,1-1-1V61a1,1,0,0,1,1-1h6a1,1,0,0,1,1,1Zm0-16a1,1,0,0,1-1,1h-6a1,1,0,0,1-1-1V45a1,1,0,0,1,1-1h6a1,1,0,0,1,1,1Zm0-16a1,1,0,0,1-1,1h-6a1,1,0,0,1-1-1V29a1,1,0,0,1,1-1h6a1,1,0,0,1,1,1Zm0-16a1,1,0,0,1-1,1h-6a1,1,0,0,1-1-1V13a1,1,0,0,1,1-1h6a1,1,0,0,1,1,1Z" />
  </svg>