<svg id="S_AeCompositions_Sm_N_D_2x" data-name="S_AeCompositions_Sm_N_D@2x" xmlns="http://www.w3.org/2000/svg" width="32" height="32" viewBox="0 0 32 32">
  <defs>
    <style>
      .fill {
        fill: #fff;
        fill-rule: evenodd;
        opacity: 0.65;
      }

      
    </style>
  </defs>
  <title>S_AeCompositions_Sm_N_D@2x</title>
  <path class="fill" d="M31,3H1A1,1,0,0,0,0,4V29H2V25.5A0.5,0.5,0,0,1,2.5,25h1a0.5,0.5,0,0,1,.5.5V29H28V25.5a0.5,0.5,0,0,1,.5-0.5h1a0.5,0.5,0,0,1,.5.5V29h2V4A1,1,0,0,0,31,3ZM6.074,12.042A6,6,0,0,1,17.91,12H24a1,1,0,0,1,1,1v8a1,1,0,0,1-1,1H19.648l0.722,1.25a0.5,0.5,0,0,1-.433.75H8.866a0.5,0.5,0,0,1-.433-0.75L10.944,18.9A6,6,0,0,1,6.074,12.042ZM4,21.794a0.5,0.5,0,0,1-.5.5h-1a0.5,0.5,0,0,1-.5-0.5v-3a0.5,0.5,0,0,1,.5-0.5h1a0.5,0.5,0,0,1,.5.5v3Zm0-6.588a0.5,0.5,0,0,1-.5.5h-1a0.5,0.5,0,0,1-.5-0.5v-3a0.5,0.5,0,0,1,.5-0.5h1a0.5,0.5,0,0,1,.5.5v3ZM4,8.5a0.5,0.5,0,0,1-.5.5h-1A0.5,0.5,0,0,1,2,8.5v-3A0.5,0.5,0,0,1,2.5,5h1a0.5,0.5,0,0,1,.5.5v3Zm22,19a0.5,0.5,0,0,1-.5.5H6.5A0.5,0.5,0,0,1,6,27.5v-1A0.5,0.5,0,0,1,6.5,26h19a0.5,0.5,0,0,1,.5.5v1Zm4-5.706a0.5,0.5,0,0,1-.5.5h-1a0.5,0.5,0,0,1-.5-0.5v-3a0.5,0.5,0,0,1,.5-0.5h1a0.5,0.5,0,0,1,.5.5v3Zm0-6.588a0.5,0.5,0,0,1-.5.5h-1a0.5,0.5,0,0,1-.5-0.5v-3a0.5,0.5,0,0,1,.5-0.5h1a0.5,0.5,0,0,1,.5.5v3ZM30,8.5a0.5,0.5,0,0,1-.5.5h-1A0.5,0.5,0,0,1,28,8.5v-3A0.5,0.5,0,0,1,28.5,5h1a0.5,0.5,0,0,1,.5.5v3Z"/>
  <polygon class="fill" points="11.351 22.098 17.351 22.098 14.409 16.302 11.351 22.098"/>
  <path class="fill" d="M12,17c0.015,0,.029,0,0.044,0l2.307-4h0.1l1.071,1.855A3.949,3.949,0,0,0,16,13,4,4,0,1,0,12,17Z"/>
  </svg>