<svg id="S_Still_48x48_N_D_2x" data-name="S_Still_48x48_N_D@2x" xmlns="http://www.w3.org/2000/svg" width="96" height="96" viewBox="0 0 96 96">
  <defs>
    <style>
      .fill {
        fill: #fff;
        fill-rule: evenodd;
        opacity: 0.65;
      }

      
    </style>
  </defs>
  <title>S_Still_48x48_N_D@2x</title>
  <polygon class="fill" points="60 9 60 30 81 30 60 9"/>
  <path class="fill" d="M47,57a9,9,0,1,0,9,9A9.01,9.01,0,0,0,47,57Z"/>
  <path class="fill" d="M45,43.814,30.814,58h5.311A13.409,13.409,0,0,1,45,52.658Z"/>
  <path class="fill" d="M57,36a3,3,0,0,1-3-3V6H15a3,3,0,0,0-3,3V87a3,3,0,0,0,3,3H81a3,3,0,0,0,3-3V36ZM71,67a2,2,0,0,1-2,2H60.662A13.905,13.905,0,0,1,46.985,80,14.118,14.118,0,0,1,33.507,69.731,13.945,13.945,0,0,1,33.328,63H23.414A2,2,0,0,1,22,59.586L46.586,35A2,2,0,0,1,50,36.414V45H69a2,2,0,0,1,2,2Z"/>
  </svg>