<?xml version="1.0" encoding="UTF-8"?>
<svg id="ImportedIcons" xmlns="http://www.w3.org/2000/svg" width="36" height="36" viewBox="0 0 36 36">
  <defs>
    <style>
      .fill {
        fill: #6e6e6e;
      }
    </style>
  </defs>
  <path class="fill" d="M31.7675.4572l-.70486,5.33816c-.0604.4576.08996.9179.40888,1.25154l3.3943,3.5511-4.90278-.31668c-.4605-.02974-.90966.15094-1.22126.49128l-3.6363,3.9714.69864-5.34324c.0597-.45666-.09046-.91578-.40846-1.24892l-3.38908-3.55018,4.8974.31508c.4597.02956.90808-.15052,1.21958-.48988l3.64396-3.96964-.00002-.00002Z"/>
  <path class="fill" d="M17.81926,17.00786c-.48832-.03164-.96468.16004-1.2952.52096l-2.39672,2.61758.4606-3.52256c.06326-.48424-.09602-.97124-.43328-1.3245l-2.21838-2.32394,3.2056.20632c.48756.0313.96312-.1597,1.29342-.51964l2.40228-2.61692-.46458,3.51846c-.06404.48524.09544.97346.43362,1.32728l2.2216,2.32414-3.20892-.2072h0l-.00004.00002Z"/>
  <path class="fill" d="M24.91162,23.31848c2.08106-2.15906,3.36866-5.0879,3.36866-8.31652,0-.24426-.0221-.48304-.03662-.72376l-1.66358,1.81652c-.12658.1383-.28846.2207-.44226.3158-.69214,4.84326-4.82618,8.59144-9.85754,8.59144-5.51368,0-10-4.48632-10-10s4.48632-10,10-10c1.5531,0,3.00622.38648,4.31896,1.02112l-.0387-.04064c-.56934-.5957-.71484-1.4795-.36622-2.22656.01184-.0254.03234-.04406.04516-.06884-1.2417-.43592-2.57044-.68506-3.95922-.68506-6.61718,0-12,5.38282-12,12s5.38282,12,12,12c1.84168,0,3.58068-.42908,5.1416-1.17358l6.24414,8.34362c.76966.90784,2.12952,1.01978,3.03736.25012.8191-.69446,1.00196-1.8861.42858-2.79418l-6.22034-8.30944.00002-.00004Z"/>
</svg>