<?xml version="1.0" encoding="UTF-8"?>
<svg id="ImportedIcons" xmlns="http://www.w3.org/2000/svg" width="36" height="36" viewBox="0 0 36 36">
  <defs>
    <style>
      .fill {
        fill: #fff;
        opacity: .65;
      }
    </style>
  </defs>
  <path class="fill" d="m31.028.457l-.74,5.604c-.063.48.094.964.429,1.314l3.563,3.728-5.147-.332c-.483-.031-.955.158-1.282.516l-3.817,4.169.733-5.609c.063-.479-.095-.961-.429-1.311l-3.558-3.727,5.141.331c.483.031.953-.158,1.28-.514L31.028.457Z"/>
  <path class="fill" d="m29.364,13.189l-3.559,3.887c-.465.508-1.112.779-1.771.779-.342,0-.688-.073-1.012-.224-.949-.442-1.503-1.448-1.367-2.487l.684-5.229-3.293-3.45c-.632-.662-.806-1.616-.5-2.465H4C1.791,4,0,5.791,0,8v14c0,2.209,1.791,4,4,4h2v8.793c0,.276.224.5.5.5.133,0,.26-.053.354-.147l9.146-9.146h12c2.209,0,4-1.791,4-4v-8.64l-2.636-.171h0Zm-13.539,7.422c-.537-.035-1.061.176-1.425.573l-2.636,2.879.507-3.874c.07-.533-.106-1.068-.477-1.457l-2.44-2.556,3.526.227c.536.034,1.059-.176,1.423-.572l2.642-2.878-.511,3.87c-.07.534.105,1.071.477,1.46l2.443,2.556-3.529-.228h0Z"/>
</svg>