<?xml version="1.0" encoding="UTF-8"?>
<svg id="icons" xmlns="http://www.w3.org/2000/svg" width="36" height="36" viewBox="0 0 36 36">
  <defs>
    <style>
      .fill {
        fill: #6e6e6e;
      }
    </style>
  </defs>
  <path class="fill" d="m29.90415,17.38451l-1.90415,2.07965v8.53584c0,1.10457-.89543,2-2,2H10c-1.10457,0-2-.89543-2-2V12c0-1.10457.89543-2,2-2h8.97464l-3.81714-4h-5.1575c-3.31371,0-6,2.68629-6,6v16c0,3.31371,2.68629,6,6,6h16c3.31371,0,6-2.68629,6-6v-10.85469l-1.29397-.08342c-.30237-.01949-.59727.09915-.80188.32263Z"/>
  <path class="fill" d="m32.06409.23652l-.89253,6.7594c-.07651.57942.11391,1.16227.51775,1.58476l4.29802,4.49656-6.20812-.401c-.5831-.03766-1.15183.19111-1.54643.62207l-4.60445,5.02874.88465-6.76584c.07561-.57824-.11454-1.15963-.51721-1.58144l-4.2914-4.49539,6.20129.39895c.58209.03745,1.14984-.1906,1.54428-.6203L32.06409.23652Z"/>
  <path class="fill" d="m19.86934,15.18057l-.51097,3.86979c-.07048.53377.10494,1.07069.47695,1.4599l2.44344,2.55631-3.52944-.22798c-.53716-.0347-1.06108.17606-1.42458.57306l-2.63612,2.87904.50658-3.87438c.06965-.53268-.10551-1.06826-.47646-1.45684l-2.43998-2.55597,3.52579.22683c.53622.0345,1.05924-.17559,1.42261-.57143l2.64218-2.87832Z"/>
</svg>