<?xml version="1.0" encoding="UTF-8"?>
<svg id="ICONS" xmlns="http://www.w3.org/2000/svg" width="44" height="36" viewBox="0 0 44 36">
  <defs>
    <style>
      .fill {
        fill: #fff;
        opacity: .65;
      }
    </style>
  </defs>
  <path class="fill" d="M35.80029,26.6001l-5-4.49915c-.08691-.06494-.19189-.09998-.30029-.09998-.27612,0-.5.22388-.5.5v3.49902h-8v-6.10333l-2.06909-1.159c-.78223-.43817-1.17725-1.34338-.96655-2.2149s.97571-1.49628,1.8717-1.52869l1.16394-.04205V5c0-.55225-.44775-1-1-1h-2c-.55225,0-1,.44775-1,1v3h-8v-3.49902c0-.27612-.22388-.5-.5-.5-.10815,0-.21338.03503-.30005.09998l-5,4.49915c-.22095.16577-.26538.47913-.09985.70007.02832.03784.06201.07141.09985.09985l5,4.49915c.22095.16565.53442.12085.69995-.10022.06494-.08655.1001-.19177.1001-.29993v-3.49902h8v21c0,.55237.44775,1,1,1h2c.55225,0,1-.44763,1-1v-3h8v3.49902c0,.10815.03516.21338.1001.29993.16553.22107.479.26587.7002.10022l5-4.49915c.0376-.02844.07129-.06201.09961-.09985.16553-.22095.12109-.5343-.09961-.70007Z"/>
  <path class="fill" d="M27.08002,13.22442l.1028,2.84292c.02924.80844.47784,1.54316,1.18364,1.9385l2.48194,1.39024-2.84292.1028c-.80844.02924-1.54316.47784-1.9385,1.18364l-1.39024,2.48194-.1028-2.84292c-.02924-.80844-.47784-1.54316-1.18364-1.9385l-2.48194-1.39024,2.84292-.1028c.80844-.02924,1.54316-.47784,1.9385-1.18364l1.39024-2.48194Z"/>
  <path class="fill" d="M33.88978,2.09554l.14152,3.98918c.04024,1.1344.65782,2.16536,1.62946,2.7201l3.41678,1.95078-3.91372.14424c-1.11294.04102-2.1244.6705-2.66864,1.66086l-1.91388,3.48264-.14152-3.98918c-.04024-1.1344-.65782-2.16536-1.62946-2.7201l-3.41678-1.95078,3.91372-.14424c1.11294-.04102,2.1244-.6705,2.66864-1.66086l1.91388-3.48264Z"/>
</svg>