<svg xmlns="http://www.w3.org/2000/svg" width="34.075" height="30.009" viewBox="0 0 34.075 30.009">
  <g id="Error_-_RedFill_WhiteBorder_WhiteExclamation" data-name="Error - RedFill_WhiteBorder_WhiteExclamation" transform="translate(-0.978 -2.19)">
    <g id="Group_1" data-name="Group 1">
      <path id="Path_1" data-name="Path 1" d="M33.829,28.69C33.658,28.227,20,5.07,20,5.07s-1-1.88-2-1.88-2,1.88-2,1.88S2.491,28.37,2.171,29.01c-.342.62-.342,2.18,1.664,2.18h28.33a1.714,1.714,0,0,0,1.664-2.5" fill="#fff" stroke="#fff" stroke-miterlimit="10" stroke-width="2" fill-rule="evenodd"/>
      <path id="Path_2" data-name="Path 2" d="M33.829,28.69C33.509,28.07,20,5.07,20,5.07s-1-1.88-2-1.88-2,1.88-2,1.88S2.491,28.37,2.171,29.01c-.342.62-.342,2.18,1.664,2.18h28.33a1.714,1.714,0,0,0,1.664-2.5M19.6,27.19H16.4a.512.512,0,0,1-.533-.5v-3a.512.512,0,0,1,.533-.5h3.2a.512.512,0,0,1,.533.5v3a.512.512,0,0,1-.533.5m0-6H16.4a.512.512,0,0,1-.533-.5v-9a.512.512,0,0,1,.533-.5h3.2a.512.512,0,0,1,.533.5v9a.512.512,0,0,1-.533.5" fill="#f53c3c" fill-rule="evenodd"/>
    </g>
  </g>
</svg>
