<svg xmlns="http://www.w3.org/2000/svg" data-name="S_Alert_18_N@2x" height="36" id="S_Alert_18_N_2x" viewBox="0 0 36 36" width="36">
  <defs>
    <style>
      .cls-1 {
        fill: #fff;
      }

      
    </style>
  </defs>
  <path class="cls-1" d="M17.128,2.578.4,32.512A1,1,0,0,0,1.272,34H34.728a1,1,0,0,0,.872-1.488L18.872,2.578a1,1,0,0,0-1.744,0ZM20,29.5a.5.5,0,0,1-.5.5h-3a.5.5,0,0,1-.5-.5v-3a.5.5,0,0,1,.5-.5h3a.5.5,0,0,1,.5.5Zm0-6a.5.5,0,0,1-.5.5h-3a.5.5,0,0,1-.5-.5v-12a.5.5,0,0,1,.5-.5h3a.5.5,0,0,1,.5.5Z" id="Shape" />
  </svg>