<svg id="icons" xmlns="http://www.w3.org/2000/svg" width="36" height="36" viewBox="0 0 36 36">
  <defs>
    <style>
      .cls-1 {
        fill: #ee4331;
      }

      .cls-2 {
        fill: #fff;
      }
    </style>
  </defs>
  <path class="cls-1" d="M18.0001,1.9a16.1,16.1,0,1,0,16.1,16.1A16.10007,16.10007,0,0,0,18.0001,1.9Z"/>
  <path class="cls-2" d="M16.74138,19.84h2.51428c.2902,0,.35017-.43546.35017-.52328a92.26462,92.26462,0,0,0,.78456-10.24017V6.10542c0-.0876-.35062-.29334-.59185-.38273a6.1649,6.1649,0,0,0-1.86381-.18845,4.86244,4.86244,0,0,0-1.76812.18845c-.23382.08939-.55546.2684-.55546.38273V9.07655c0,3.23191.675,9.42416.77041,10.24017C16.42783,19.43127,16.54867,19.84,16.74138,19.84Z"/>
  <path class="cls-2" d="M18.00066,23.52a2.65343,2.65343,0,1,0,2.65488,2.65264A2.6558,2.6558,0,0,0,18.00066,23.52Z"/>
</svg>
