<svg id="S_AlignCenter_Md_N_2x" data-name="S_AlignCenter_Md_N@2x" xmlns="http://www.w3.org/2000/svg" width="36" height="36" viewBox="0 0 36 36">
  <defs>
    <style>
      .fill {
        fill: #fff;
        fill-rule: evenodd;
        opacity: 0.65;
      }

      
    </style>
  </defs>
  <title>S_AlignCenter_Md_N@2x</title>
  <path class="fill" d="M29,20H18V16h7a1,1,0,0,0,1-1V5a1,1,0,0,0-1-1H18V0.5A0.5,0.5,0,0,0,17.5,0h-1a0.5,0.5,0,0,0-.5.5V4H9A1,1,0,0,0,8,5V15a1,1,0,0,0,1,1h7v4H5a1,1,0,0,0-1,1v8a1,1,0,0,0,1,1H16v5.5a0.5,0.5,0,0,0,.5.5h1a0.5,0.5,0,0,0,.5-0.5V30H29a1,1,0,0,0,1-1V21A1,1,0,0,0,29,20Z"/>
  </svg>