<svg xmlns="http://www.w3.org/2000/svg" width="36" height="36" viewBox="0 0 36 36">
  <defs>
    <style>
      .cls-1 {
        opacity: 0.6;
      }

      .red-2 {
        fill: #f53c3c;
      }
    </style>
  </defs>
  <g id="icons">
    <path class="cls-1" d="M32.165,34H3.834A3.65,3.65,0,0,1,.469,32.291a3.576,3.576,0,0,1-.051-3.436c.286-.574,10.671-18.5,13.846-23.976C14.7,4.057,16.012,2,18,2s3.3,2.057,3.77,2.939c2.183,3.717,13.143,22.387,13.811,23.6h0a3.92,3.92,0,0,1-.1,3.713A3.711,3.711,0,0,1,32.165,34ZM3.958,30.717l-.011.019Z"/>
    <path class="red-2" d="M33.829,29.5c-.32-.62-13.824-23.62-13.824-23.62S19,4,18,4,16,5.88,16,5.88,2.491,29.18,2.171,29.82C1.829,30.44,1.829,32,3.835,32h28.33a1.714,1.714,0,0,0,1.664-2.5M19.6,28H16.4a.512.512,0,0,1-.533-.5v-3A.512.512,0,0,1,16.4,24h3.2a.512.512,0,0,1,.533.5v3a.512.512,0,0,1-.533.5m0-6H16.4a.512.512,0,0,1-.533-.5v-9A.512.512,0,0,1,16.4,12h3.2a.512.512,0,0,1,.533.5v9a.512.512,0,0,1-.533.5"/>
  </g>
</svg>
