<svg id="S_AlignMiddle_Md_N_2x" data-name="S_AlignMiddle_Md_N@2x" xmlns="http://www.w3.org/2000/svg" width="36" height="36" viewBox="0 0 36 36">
  <defs>
    <style>
      .fill {
        fill: #fff;
        fill-rule: evenodd;
        opacity: 0.65;
      }

      
    </style>
  </defs>
  <title>S_AlignMiddle_Md_N@2x</title>
  <path class="fill" d="M35.5,16H32V9a1,1,0,0,0-1-1H21a1,1,0,0,0-1,1v7H16V5a1,1,0,0,0-1-1H7A1,1,0,0,0,6,5V16H0.5a0.5,0.5,0,0,0-.5.5v1a0.5,0.5,0,0,0,.5.5H6V29a1,1,0,0,0,1,1h8a1,1,0,0,0,1-1V18h4v7a1,1,0,0,0,1,1H31a1,1,0,0,0,1-1V18h3.5a0.5,0.5,0,0,0,.5-0.5v-1A0.5,0.5,0,0,0,35.5,16Z"/>
  </svg>