<svg id="S_AMMultiCPannerLabel13_41x23_N_2x" data-name="S_AMMultiCPannerLabel13_41x23_N@2x" xmlns="http://www.w3.org/2000/svg" width="82" height="46" viewBox="0 0 82 46">
  <defs>
    <style>
      .fill {
        fill-rule: evenodd;
        opacity: 0.65;
      }

      
    </style>
  </defs>
  <title>S_AMMultiCPannerLabel13_41x23_N@2x</title>
  <path class="fill" d="M49.208,26c-.144,0-.192-.048-.192-.168V13.759a9.833,9.833,0,0,1-2.52.864c-.144.024-.192,0-.192-.145v-2.04c0-.12.024-.168.144-.191a11.909,11.909,0,0,0,3.336-1.44.623.623,0,0,1,.36-.1H51.8c.1,0,.12.048.12.168V25.832c0,.12-.048.168-.144.168Z"/>
  <path class="fill" d="M57.536,19.352c-.12,0-.168-.048-.168-.168V17c0-.144.024-.216.144-.216h1.2c1.752,0,2.76-.576,2.76-1.776,0-1.128-.888-1.872-2.712-1.872a6.839,6.839,0,0,0-3.457.912c-.144.048-.168,0-.168-.1V11.743c0-.12-.024-.168.12-.24a8.582,8.582,0,0,1,4.057-.937c3.1,0,4.992,1.633,4.992,4.057a3.485,3.485,0,0,1-2.184,3.192,3.783,3.783,0,0,1,2.9,3.744c0,3.024-2.712,4.681-6,4.681a8.438,8.438,0,0,1-3.984-.792c-.12-.048-.144-.192-.144-.312V22.76c0-.1.12-.145.216-.1a7.777,7.777,0,0,0,3.816,1.008c2.232,0,3.12-.96,3.12-2.185,0-1.416-1.056-2.136-3.12-2.136Z"/>
  </svg>