<svg id="S_AMMultiCPannerLabel14_41x23_N_2x" data-name="S_AMMultiCPannerLabel14_41x23_N@2x" xmlns="http://www.w3.org/2000/svg" width="82" height="46" viewBox="0 0 82 46">
  <defs>
    <style>
      .fill {
        fill-rule: evenodd;
        opacity: 0.65;
      }

      
    </style>
  </defs>
  <title>S_AMMultiCPannerLabel14_41x23_N@2x</title>
  <path class="fill" d="M48.824,26c-.144,0-.192-.048-.192-.168V13.759a9.833,9.833,0,0,1-2.52.864c-.144.024-.192,0-.192-.145v-2.04c0-.12.024-.168.144-.191a11.909,11.909,0,0,0,3.336-1.44.623.623,0,0,1,.36-.1h1.656c.1,0,.12.048.12.168V25.832c0,.12-.048.168-.144.168Z"/>
  <path class="fill" d="M54.512,22.376c-.144,0-.192-.048-.192-.145V20.359a.449.449,0,0,1,.12-.336l6.1-9.072a.347.347,0,0,1,.336-.145h3c.12,0,.192.048.192.168v9.049h1.824c.144,0,.168.072.144.168l-.312,2.064c-.024.072-.072.12-.192.12H64.064v3.432c0,.145-.072.192-.168.192H61.5a.177.177,0,0,1-.192-.192V22.376ZM61.3,17.888c0-2.089.1-3.6.144-4.44h-.024c-.6,1.2-3.408,5.5-4.128,6.576H61.3Z"/>
  </svg>