<svg id="S_AMMultiCPannerLabel15_41x23_N_2x" data-name="S_AMMultiCPannerLabel15_41x23_N@2x" xmlns="http://www.w3.org/2000/svg" width="82" height="46" viewBox="0 0 82 46">
  <defs>
    <style>
      .fill {
        fill-rule: evenodd;
        opacity: 0.65;
      }

      
    </style>
  </defs>
  <title>S_AMMultiCPannerLabel15_41x23_N@2x</title>
  <path class="fill" d="M49.3,26c-.144,0-.192-.048-.192-.168V13.759a9.833,9.833,0,0,1-2.52.864c-.144.024-.192,0-.192-.145v-2.04c0-.12.024-.168.144-.191a11.909,11.909,0,0,0,3.336-1.44.623.623,0,0,1,.36-.1H51.9c.1,0,.12.048.12.168V25.832c0,.12-.048.168-.144.168Z"/>
  <path class="fill" d="M58.592,13.351c-.168.673-.5,2.017-.648,2.616,4.944.528,6.937,2.353,6.937,5.281,0,2.976-2.328,4.992-5.88,4.992a8.828,8.828,0,0,1-3.84-.744c-.1-.048-.144-.12-.144-.288V22.855a.1.1,0,0,1,.168-.1,8.281,8.281,0,0,0,3.792.936c2.184,0,2.976-1.031,2.976-2.256,0-1.92-1.872-2.832-6.576-3.216-.12,0-.216-.024-.216-.168V16.879c.144-.624,1.584-5.784,1.632-5.9.048-.144.072-.168.216-.168h7.273c.12,0,.168.048.12.192l-.624,2.184c-.024.12-.072.168-.216.168Z"/>
  </svg>