<svg id="S_AMMultiCPannerLabel28_41x23_N_2x" data-name="S_AMMultiCPannerLabel28_41x23_N@2x" xmlns="http://www.w3.org/2000/svg" width="82" height="46" viewBox="0 0 82 46">
  <defs>
    <style>
      .fill {
        fill-rule: evenodd;
        opacity: 0.65;
      }

      
    </style>
  </defs>
  <title>S_AMMultiCPannerLabel28_41x23_N@2x</title>
  <path class="fill" d="M44.516,26c-.168,0-.168-.072-.168-.192V24.2c0-.145,0-.217.1-.288a50.482,50.482,0,0,0,3.984-3.265c2.424-2.208,2.833-3.6,2.833-4.824,0-1.561-.816-2.641-2.833-2.641a6.939,6.939,0,0,0-3.528.984c-.12.072-.192.024-.192-.1V11.862a.282.282,0,0,1,.12-.264,8.876,8.876,0,0,1,4.224-1.032c3.528,0,5.161,2.3,5.161,4.873,0,1.8-.648,3.576-2.712,5.544a27.764,27.764,0,0,1-2.976,2.593c.912-.072,1.824-.072,3.528-.072h2.76c.168,0,.216.048.192.168l-.5,2.16a.215.215,0,0,1-.24.168Z"/>
  <path class="fill" d="M66.765,14.791a4.131,4.131,0,0,1-1.632,3.216,4.24,4.24,0,0,1,2.185,3.7c0,2.712-2.3,4.536-5.545,4.536-3.408,0-5.3-2.064-5.3-4.513A4.1,4.1,0,0,1,58.6,18.151a4.185,4.185,0,0,1-1.632-3.36c0-2.208,1.728-4.225,4.969-4.225C65.229,10.566,66.765,12.751,66.765,14.791Zm-2.352,6.721A2.368,2.368,0,0,0,63.5,19.52a.886.886,0,0,0-.552-.168H60.86a.607.607,0,0,0-.48.144,2.244,2.244,0,0,0-1.008,1.969,2.318,2.318,0,0,0,2.544,2.328A2.218,2.218,0,0,0,64.413,21.512Zm-4.681-6.5a2.318,2.318,0,0,0,.672,1.681.678.678,0,0,0,.552.191H62.9a.587.587,0,0,0,.528-.239,2.112,2.112,0,0,0,.6-1.561,2.15,2.15,0,0,0-4.3-.072Z"/>
  </svg>