<svg id="S_AMFxSendsMute_Md_N_D_2x" data-name="S_AMFxSendsMute_Md_N_D@2x" xmlns="http://www.w3.org/2000/svg" width="36" height="36" viewBox="0 0 36 36">
  <defs>
    <style>
      .background {
        opacity: 0.3;
      }

      .fill {
        fill: #fff;
        fill-rule: evenodd;
        opacity: 0.65;
      }

      
    </style>
  </defs>
  <title>S_AMFxSendsMute_Md_N_D@2x</title>
  <path class="background" d="M9.316,28.968a13.516,13.516,0,1,0-.286-.224C9.187,28.871,9.161,28.85,9.316,28.968Z"/>
  <path class="fill" d="M27.312,24.922c.159-.042.3-.075.415-.1a5.1,5.1,0,0,0,1.227-2.182c-1.031.387-1.169.449-2.948.992Z"/>
  <path class="fill" d="M22.256,24.749c-.847.174-1.553.193-1.821-.153a1.644,1.644,0,0,1-.085-1.728L19.126,21.66a3.361,3.361,0,0,0,.1,3.754,2.754,2.754,0,0,0,2.455.864,8.694,8.694,0,0,0,1.83-.29Z"/>
  <path class="fill" d="M18.333,16.061l2.642-1.7a2.006,2.006,0,0,0,.6-2.756c.025-.016-.2-.322-.2-.322a3.555,3.555,0,0,1,2.58-.415,2.253,2.253,0,0,1,1.273,1.955c.136,1.227-1.378,3.206-2.773,4.682-.433.458-.863.914-1.271,1.369l1.181,1.166c.393-.442.823-.9,1.276-1.382,2.038-2.157,3.223-4.334,3.087-6.152a3.311,3.311,0,0,0-2.319-3.187,4.649,4.649,0,0,0-3.659.921l-.259-.324a2.007,2.007,0,0,0-2.766-.6l-3.766,2.428Z"/>
  <path class="fill" d="M11.256,13.9a.5.5,0,0,0,.069.154l.83,1.234L5.864,19.5l.955,1.409,6.468-3.89.82,1.183a.5.5,0,0,0,.682.136l.591-.38Z"/>
  <path class="fill" d="M18,2A16,16,0,1,0,34,18,16,16,0,0,0,18,2ZM32,18a13.928,13.928,0,0,1-3.369,9.085L8.777,7.494A13.978,13.978,0,0,1,32,18ZM4,18A13.928,13.928,0,0,1,7.369,8.915L27.223,28.506A13.978,13.978,0,0,1,4,18Z"/>
  </svg>