<svg id="S_AMMultiCPannerLabel4_41x23_N_2x" data-name="S_AMMultiCPannerLabel4_41x23_N@2x" xmlns="http://www.w3.org/2000/svg" width="82" height="46" viewBox="0 0 82 46">
  <defs>
    <style>
      .fill {
        fill-rule: evenodd;
        opacity: 0.65;
      }

      
    </style>
  </defs>
  <title>S_AMMultiCPannerLabel4_41x23_N@2x</title>
  <path class="fill" d="M50.444,22.375c-.144,0-.192-.048-.192-.144V20.359a.448.448,0,0,1,.12-.336l6.1-9.073a.346.346,0,0,1,.336-.144h3c.12,0,.192.048.192.168v9.049h1.824c.144,0,.168.072.144.168l-.312,2.064c-.024.072-.072.12-.192.12H60v3.433c0,.144-.072.192-.168.192h-2.4a.176.176,0,0,1-.192-.192V22.375Zm6.793-4.488c0-2.088.1-3.6.144-4.44h-.024c-.6,1.2-3.408,5.5-4.128,6.577h4.009Z"/>
  </svg>