<svg id="S_AMMultiCPannerLabel19_41x23_N_2x" data-name="S_AMMultiCPannerLabel19_41x23_N@2x" xmlns="http://www.w3.org/2000/svg" width="82" height="46" viewBox="0 0 82 46">
  <defs>
    <style>
      .fill {
        fill-rule: evenodd;
        opacity: 0.65;
      }

      
    </style>
  </defs>
  <title>S_AMMultiCPannerLabel19_41x23_N@2x</title>
  <path class="fill" d="M48.8,26c-.144,0-.192-.048-.192-.168V13.759a9.833,9.833,0,0,1-2.52.864c-.144.024-.192,0-.192-.145v-2.04c0-.12.024-.168.144-.191a11.909,11.909,0,0,0,3.336-1.44.623.623,0,0,1,.36-.1h1.656c.1,0,.12.048.12.168V25.832c0,.12-.048.168-.144.168Z"/>
  <path class="fill" d="M56,23.888c0-.12.024-.12.168-.168,2.856-.552,4.824-1.968,5.712-3.624a6.024,6.024,0,0,1-2.52.527A4.73,4.73,0,0,1,54.32,15.8a5.241,5.241,0,0,1,5.568-5.232c3.192,0,5.521,2.4,5.521,6.289,0,5.28-4.1,8.784-9.193,9.385-.144.023-.192-.048-.192-.168Zm6.457-6.168c0-.169.048-.576.048-.864,0-2.353-1.008-3.841-2.76-3.841a2.459,2.459,0,0,0-2.472,2.664c0,1.824,1.224,2.616,2.88,2.616A4.207,4.207,0,0,0,62.457,17.72Z"/>
  </svg>