<svg id="S_AMMultiCPannerLabel29_41x23_N_2x" data-name="S_AMMultiCPannerLabel29_41x23_N@2x" xmlns="http://www.w3.org/2000/svg" width="82" height="46" viewBox="0 0 82 46">
  <defs>
    <style>
      .fill {
        fill-rule: evenodd;
        opacity: 0.65;
      }

      
    </style>
  </defs>
  <title>S_AMMultiCPannerLabel29_41x23_N@2x</title>
  <path class="fill" d="M44.4,26c-.168,0-.168-.072-.168-.192V24.2c0-.145,0-.217.1-.288a50.482,50.482,0,0,0,3.984-3.265c2.424-2.208,2.833-3.6,2.833-4.824,0-1.561-.816-2.641-2.833-2.641a6.939,6.939,0,0,0-3.528.984c-.12.072-.192.024-.192-.1V11.862a.282.282,0,0,1,.12-.264,8.876,8.876,0,0,1,4.224-1.032c3.528,0,5.161,2.3,5.161,4.873,0,1.8-.648,3.576-2.712,5.544A27.764,27.764,0,0,1,48.4,23.576c.912-.072,1.824-.072,3.528-.072h2.76c.168,0,.216.048.192.168l-.5,2.16a.215.215,0,0,1-.24.168Z"/>
  <path class="fill" d="M57.884,23.888c0-.12.024-.12.168-.168,2.856-.552,4.824-1.968,5.712-3.624a6.024,6.024,0,0,1-2.52.527A4.73,4.73,0,0,1,56.2,15.8a5.241,5.241,0,0,1,5.568-5.232c3.192,0,5.521,2.4,5.521,6.289,0,5.28-4.1,8.784-9.193,9.385-.144.023-.192-.048-.192-.168Zm6.457-6.168c0-.169.048-.576.048-.864,0-2.353-1.008-3.841-2.76-3.841a2.459,2.459,0,0,0-2.472,2.664c0,1.824,1.224,2.616,2.88,2.616A4.207,4.207,0,0,0,64.341,17.72Z"/>
  </svg>