<svg id="S_AMFxSends_Md_N_D_2x" data-name="S_AMFxSends_Md_N_D@2x" xmlns="http://www.w3.org/2000/svg" width="36" height="36" viewBox="0 0 36 36">
  <defs>
    <style>
      .background {
        opacity: 0.3;
      }

      .fill {
        fill: #fff;
        fill-rule: evenodd;
        opacity: 0.65;
      }

      
    </style>
  </defs>
  <title>S_AMFxSends_Md_N_D@2x</title>
  <path class="background" d="M9.316,28.968a13.516,13.516,0,1,0-.286-.224C9.187,28.871,9.161,28.85,9.316,28.968Z"/>
  <path class="fill" d="M28.955,23.045c-1.091.409-1.182.455-3.273,1.091-1.619.493-4.623,1.671-5.247.864-1-1.3.776-3.367,3.206-5.938,2.038-2.157,3.223-4.334,3.087-6.152a3.311,3.311,0,0,0-2.319-3.187,4.649,4.649,0,0,0-3.659.921l-.259-.324a2.007,2.007,0,0,0-2.766-.6l-6.256,4.032a.5.5,0,0,0-.144.7l.83,1.234L5.864,19.909l.955,1.409,6.468-3.89.82,1.183a.5.5,0,0,0,.682.136l6.188-3.982a2.006,2.006,0,0,0,.6-2.756c.025-.016-.2-.322-.2-.322a3.555,3.555,0,0,1,2.58-.415,2.253,2.253,0,0,1,1.273,1.955c.136,1.227-1.378,3.206-2.773,4.682-2.56,2.71-5.045,5.364-3.227,7.909a2.754,2.754,0,0,0,2.455.864c1.5,0,4.909-1.227,6.045-1.455A5.1,5.1,0,0,0,28.955,23.045Z"/>
  <path class="fill" d="M18,4A14,14,0,1,1,4,18,14.016,14.016,0,0,1,18,4Zm0-2A16,16,0,1,0,34,18,16,16,0,0,0,18,2Z"/>
  </svg>