<svg id="S_AMMultiCPannerLabel9_41x23_N_2x" data-name="S_AMMultiCPannerLabel9_41x23_N@2x" xmlns="http://www.w3.org/2000/svg" width="82" height="46" viewBox="0 0 82 46">
  <defs>
    <style>
      .fill {
        fill-rule: evenodd;
        opacity: 0.65;
      }

      
    </style>
  </defs>
  <title>S_AMMultiCPannerLabel9_41x23_N@2x</title>
  <path class="fill" d="M52.052,23.888c0-.12.024-.12.168-.168,2.856-.552,4.824-1.968,5.712-3.624a6.024,6.024,0,0,1-2.52.527A4.73,4.73,0,0,1,50.372,15.8a5.241,5.241,0,0,1,5.568-5.232c3.192,0,5.521,2.4,5.521,6.289,0,5.28-4.1,8.784-9.193,9.385-.144.023-.192-.048-.192-.168Zm6.457-6.168c0-.169.048-.576.048-.864,0-2.353-1.008-3.841-2.76-3.841a2.459,2.459,0,0,0-2.472,2.664c0,1.824,1.224,2.616,2.88,2.616A4.207,4.207,0,0,0,58.509,17.72Z"/>
  </svg>