<svg id="S_AMMultiCPannerLabel10_41x23_N_2x" data-name="S_AMMultiCPannerLabel10_41x23_N@2x" xmlns="http://www.w3.org/2000/svg" width="82" height="46" viewBox="0 0 82 46">
  <defs>
    <style>
      .fill {
        fill-rule: evenodd;
        opacity: 0.65;
      }

      
    </style>
  </defs>
  <title>S_AMMultiCPannerLabel10_41x23_N@2x</title>
  <path class="fill" d="M48.632,26c-.144,0-.192-.048-.192-.168V13.759a9.833,9.833,0,0,1-2.52.864c-.144.024-.192,0-.192-.145v-2.04c0-.12.024-.168.144-.191a11.909,11.909,0,0,0,3.336-1.44.623.623,0,0,1,.36-.1h1.656c.1,0,.12.048.12.168V25.832c0,.12-.048.168-.144.168Z"/>
  <path class="fill" d="M54.512,18.367c0-4.464,1.992-7.8,5.592-7.8,4.417,0,5.521,4.152,5.521,7.8,0,4.032-1.464,7.873-5.5,7.873C56.168,26.24,54.512,22.76,54.512,18.367Zm2.9-.072c0,3.409.888,5.449,2.712,5.449s2.616-1.9,2.616-5.4c0-3.648-.912-5.329-2.688-5.329C58.521,13.015,57.416,14.623,57.416,18.295Z"/>
  </svg>