<svg id="S_AMMultiCPannerLabel27_41x23_N_2x" data-name="S_AMMultiCPannerLabel27_41x23_N@2x" xmlns="http://www.w3.org/2000/svg" width="82" height="46" viewBox="0 0 82 46">
  <defs>
    <style>
      .fill {
        fill-rule: evenodd;
        opacity: 0.65;
      }

      
    </style>
  </defs>
  <title>S_AMMultiCPannerLabel27_41x23_N@2x</title>
  <path class="fill" d="M45.212,26c-.168,0-.168-.072-.168-.192V24.2c0-.145,0-.217.1-.288a50.482,50.482,0,0,0,3.984-3.265c2.424-2.208,2.833-3.6,2.833-4.824,0-1.561-.816-2.641-2.833-2.641a6.939,6.939,0,0,0-3.528.984c-.12.072-.192.024-.192-.1V11.862a.282.282,0,0,1,.12-.264,8.876,8.876,0,0,1,4.224-1.032c3.528,0,5.161,2.3,5.161,4.873,0,1.8-.648,3.576-2.712,5.544a27.764,27.764,0,0,1-2.976,2.593c.912-.072,1.824-.072,3.528-.072h2.76c.168,0,.216.048.192.168l-.5,2.16a.215.215,0,0,1-.24.168Z"/>
  <path class="fill" d="M67.029,10.807c.1,0,.144.024.144.145v1.655a.934.934,0,0,1-.072.313c-1.3,3.024-4.248,9.36-5.952,12.938a.21.21,0,0,1-.216.144h-2.76c-.1,0-.144-.048-.1-.168,3.432-6.961,5.352-10.969,6.072-12.457h-7.44c-.1,0-.144-.048-.12-.168l.36-2.256c.024-.12.048-.145.168-.145Z"/>
  </svg>