<svg id="S_AMFxMute_Md_N_D_2x" data-name="S_AMFxMute_Md_N_D@2x" xmlns="http://www.w3.org/2000/svg" width="36" height="36" viewBox="0 0 36 36">
  <defs>
    <style>
      .background {
        opacity: 0.3;
      }

      .fill {
        fill: #fff;
        fill-rule: evenodd;
        opacity: 0.65;
      }

      
    </style>
  </defs>
  <title>S_AMFxMute_Md_N_D@2x</title>
  <path class="background" d="M9.316,28.968a13.516,13.516,0,1,0-.286-.224C9.187,28.871,9.161,28.85,9.316,28.968Z"/>
  <path class="fill" d="M19.49,14.29l-.009-.109c.027-.1-.055-.127-.11-.127l.036.034L17.27,14.05h-.848l6.955,6.863c-.466-.8-.911-1.57-1.177-2.107,1.29-1.348,3.655-3.459,4.76-4.655.07-.065.046-.152-.069-.152H25c-.115,0-.139.044-.207.131,0,0,0-.025-3.81,3.651Z"/>
  <path class="fill" d="M19.269,14H17.357a.088.088,0,0,0-.087.05l2.1,0C19.35,14.013,19.343,14,19.269,14Z"/>
  <path class="fill" d="M18.071,20.461c-1.022,1.154-2.091,2.381-3.036,3.386A.084.084,0,0,0,15.08,24h1.978c.073,0,1.171-1.224,2.182-2.385Z"/>
  <path class="fill" d="M15.51,13.151c.684-2.923,2.1-3.487,3.215-3.487a10.876,10.876,0,0,1,1.75.416c.081.025.136-.025.164-.126l.355-1.469c.027-.076-.027-.152-.109-.2A9.757,9.757,0,0,0,18.758,8C16.571,8,14.9,9.027,13.87,11.533Z"/>
  <path class="fill" d="M11.577,14.053H10.323a.147.147,0,0,0-.164.127l-.546,1.385-.008.05c.008.01.045,0,.117.1h2.6c-.246,1.139-2.724,10.505-3.3,12.051-.055.127,0,.2.109.2.218-.025,1.477.076,2.132,0,.136-.025.191-.051.218-.177.529-1.52,1.868-6.468,2.908-10.965Z"/>
  <path class="fill" d="M18,2A16,16,0,1,0,34,18,16,16,0,0,0,18,2ZM32,18a13.928,13.928,0,0,1-3.369,9.085L8.777,7.494A13.978,13.978,0,0,1,32,18ZM4,18A13.928,13.928,0,0,1,7.369,8.915L27.223,28.506A13.978,13.978,0,0,1,4,18Z"/>
  </svg>