<svg id="S_AMMultiCPannerLabel23_41x23_N_2x" data-name="S_AMMultiCPannerLabel23_41x23_N@2x" xmlns="http://www.w3.org/2000/svg" width="82" height="46" viewBox="0 0 82 46">
  <defs>
    <style>
      .fill {
        fill-rule: evenodd;
        opacity: 0.65;
      }

      
    </style>
  </defs>
  <title>S_AMMultiCPannerLabel23_41x23_N@2x</title>
  <path class="fill" d="M44.612,26c-.168,0-.168-.072-.168-.192V24.2c0-.145,0-.217.1-.288a50.482,50.482,0,0,0,3.984-3.265c2.424-2.208,2.833-3.6,2.833-4.824,0-1.561-.816-2.641-2.833-2.641A6.939,6.939,0,0,0,45,14.167c-.12.072-.192.024-.192-.1V11.862a.282.282,0,0,1,.12-.264,8.876,8.876,0,0,1,4.224-1.032c3.528,0,5.161,2.3,5.161,4.873,0,1.8-.648,3.576-2.712,5.544a27.764,27.764,0,0,1-2.976,2.593c.912-.072,1.824-.072,3.528-.072h2.76c.168,0,.216.048.192.168l-.5,2.16a.215.215,0,0,1-.24.168Z"/>
  <path class="fill" d="M59.612,19.352c-.12,0-.168-.048-.168-.168V17c0-.144.024-.216.144-.216h1.2c1.752,0,2.76-.576,2.76-1.776,0-1.128-.888-1.872-2.712-1.872a6.839,6.839,0,0,0-3.457.912c-.144.048-.168,0-.168-.1V11.743c0-.12-.024-.168.12-.24a8.582,8.582,0,0,1,4.057-.937c3.1,0,4.992,1.633,4.992,4.057A3.485,3.485,0,0,1,64.2,17.815a3.783,3.783,0,0,1,2.9,3.744c0,3.024-2.712,4.681-6,4.681a8.438,8.438,0,0,1-3.984-.792c-.12-.048-.144-.192-.144-.312V22.76c0-.1.12-.145.216-.1A7.777,7.777,0,0,0,61,23.672c2.232,0,3.12-.96,3.12-2.185,0-1.416-1.056-2.136-3.12-2.136Z"/>
  </svg>