<svg id="S_AM16Panner51LF_41x23_N_2x" data-name="S_AM16Panner51LF_41x23_N@2x" xmlns="http://www.w3.org/2000/svg" width="82" height="46" viewBox="0 0 82 46">
  <defs>
    <style>
      .fill {
        fill-rule: evenodd;
        opacity: 0.65;
      }

      
    </style>
  </defs>
  <title>S_AM16Panner51LF_41x23_N@2x</title>
  <path class="fill" d="M12,31a2.993,2.993,0,0,0,5.816,1H32.184A2.993,2.993,0,1,0,36,28.184V13.816A2.993,2.993,0,1,0,32.184,10H27.816a3,3,0,1,0-5.633,0H18.859A3.992,3.992,0,1,0,14,14.858V28.184A2.992,2.992,0,0,0,12,31Zm1,0a1.993,1.993,0,0,1,1-1.722h0a1.941,1.941,0,0,1,2,0V14.858A3.986,3.986,0,0,0,18.859,12H22l1.605-1.576A2.041,2.041,0,0,1,23.277,10h0A1.976,1.976,0,0,1,23,9a2,2,0,0,1,4,0,1.976,1.976,0,0,1-.278,1h0a2.048,2.048,0,0,1-.36.455L28,12h5.277a1.941,1.941,0,0,1,0-2h0A1.993,1.993,0,1,1,36,12.722h0a1.941,1.941,0,0,1-2,0V29.277a1.941,1.941,0,0,1,2,0h0A1.993,1.993,0,1,1,33.278,32h0a1.941,1.941,0,0,1,0-2H16.723a1.941,1.941,0,0,1,0,2h0A1.994,1.994,0,0,1,13,31Z"/>
  </svg>