<svg id="S_AMMultiCPannerLabel17_41x23_N_2x" data-name="S_AMMultiCPannerLabel17_41x23_N@2x" xmlns="http://www.w3.org/2000/svg" width="82" height="46" viewBox="0 0 82 46">
  <defs>
    <style>
      .fill {
        fill-rule: evenodd;
        opacity: 0.65;
      }

      
    </style>
  </defs>
  <title>S_AMMultiCPannerLabel17_41x23_N@2x</title>
  <path class="fill" d="M49.652,26c-.144,0-.192-.048-.192-.168V13.759a9.833,9.833,0,0,1-2.52.864c-.144.024-.192,0-.192-.145v-2.04c0-.12.024-.168.144-.191a11.909,11.909,0,0,0,3.336-1.44.623.623,0,0,1,.36-.1h1.656c.1,0,.12.048.12.168V25.832c0,.12-.048.168-.144.168Z"/>
  <path class="fill" d="M65.109,10.807c.1,0,.144.024.144.145v1.655a.934.934,0,0,1-.072.313c-1.3,3.024-4.248,9.36-5.952,12.938a.21.21,0,0,1-.216.144h-2.76c-.1,0-.144-.048-.1-.168,3.432-6.961,5.352-10.969,6.072-12.457h-7.44c-.1,0-.144-.048-.12-.168l.36-2.256c.024-.12.048-.145.168-.145Z"/>
  </svg>