<svg id="S_AMMultiCPannerLabel16_41x23_N_2x" data-name="S_AMMultiCPannerLabel16_41x23_N@2x" xmlns="http://www.w3.org/2000/svg" width="82" height="46" viewBox="0 0 82 46">
  <defs>
    <style>
      .fill {
        fill-rule: evenodd;
        opacity: 0.65;
      }

      
    </style>
  </defs>
  <title>S_AMMultiCPannerLabel16_41x23_N@2x</title>
  <path class="fill" d="M48.656,26c-.144,0-.192-.048-.192-.168V13.759a9.833,9.833,0,0,1-2.52.864c-.144.024-.192,0-.192-.145v-2.04c0-.12.024-.168.144-.191a11.909,11.909,0,0,0,3.336-1.44.623.623,0,0,1,.36-.1h1.656c.1,0,.12.048.12.168V25.832c0,.12-.048.168-.144.168Z"/>
  <path class="fill" d="M64.281,12.919c0,.072,0,.12-.12.144-2.784.36-5.232,1.681-6.217,3.889a5.654,5.654,0,0,1,2.9-.768A4.621,4.621,0,0,1,65.7,21.031a5.191,5.191,0,0,1-5.569,5.209c-3.672,0-5.664-2.761-5.664-6.217,0-5.185,4.344-8.785,9.721-9.457.1,0,.1.072.1.145Zm-6.888,6.36a7.007,7.007,0,0,0-.048.816c0,2.28,1.128,3.624,2.88,3.624a2.381,2.381,0,0,0,2.52-2.568,2.511,2.511,0,0,0-2.784-2.64A4.405,4.405,0,0,0,57.393,19.279Z"/>
  </svg>