<svg id="S_AMSquigglyLines_14x148_N_D_2x" data-name="S_AMSquigglyLines_14x148_N_D@2x" xmlns="http://www.w3.org/2000/svg" width="28" height="296" viewBox="0 0 28 296">
  <defs>
    <style>
      .fill {
        fill: #fff;
        fill-rule: evenodd;
        opacity: 0.65;
      }

      
    </style>
  </defs>
  <title>S_AMSquigglyLines_14x148_N_D@2x</title>
  <path class="fill" d="M14,58H12V5l5-5h1V1L14,5V58Z"/>
  <path class="fill" d="M14,236H12v55l5,5h1v-1l-4-4V236Z"/>
  <path class="fill" d="M14,204V150l3-3h9v-2H17l-3-3V88H12v54l4,4-4,4v54h2Z"/>
  <path id="Fill5" class="fill" d="M6,221l4.5-4.5L12,218l6-6-1.34-1.34c0.59-.535,2.866-1.708,4.09.277,2.812,4.563-11.031,9.75-8.438,13.875,1.257,2,7.531-1.969,8.125-.781,1.476,2.952-7.5,5.406-7.5,5.406v1.188s11.216-3.446,8.5-7.375c-1.469-2.125-6.281,2.406-7.812.938-2.094-3.75,12.25-7.969,8.531-14.156-1.746-2.905-5.594-1.656-6.719-.594L14,208l-6,6,1.5,1.5L5,220l-0.2.8s-2.8.044-2.3,2.7c2.531,0.531,2.7-2.3,2.7-2.3Z"/>
  <path class="fill" d="M25.874,70h-2.2a0.258,0.258,0,0,0-.242.157l-4.445,4.411v-0.03L17.141,70.1a0.132,0.132,0,0,0-.161-0.1H11.024l0.413-1.792c0.78-3.53,2.4-4.208,3.68-4.208a11.913,11.913,0,0,1,2,.5c0.093,0.03.156-.031,0.187-0.152l0.405-1.765a0.221,0.221,0,0,0-.125-0.243A10.626,10.626,0,0,0,15.156,62c-3.026,0-5.21,1.765-6.24,6.361L8.5,70H5.493a0.17,0.17,0,0,0-.188.153L4.681,71.818l-0.009.06A0.242,0.242,0,0,1,4.805,72H7.774C7.493,73.369,4.679,83.9,4.025,85.757c-0.062.152,0,.243,0.124,0.243,0.25-.031,1.665-0.016,2.431-0.012a0.236,0.236,0,0,0,.256-0.2C7.491,83.809,9.214,77.721,10.43,72h3.188c0.064,0,1.2-.015,1.926-0.073l1.874,3.737c-1.639,1.8-3.685,4.3-5.378,6.153a0.1,0.1,0,0,0,.054.183H14.4c0.135,0,3.259-3.7,4.226-4.927h0.026S21.334,82,21.441,82h2.177a0.114,0.114,0,0,0,.107-0.183c-0.591-1.252-2.572-4.483-3.325-6.049,1.5-1.617,4.264-4.151,5.554-5.586C26.035,70.1,26.008,70,25.874,70Z"/>
  </svg>