<svg id="S_AMMultiCPannerLabel26_41x23_N_2x" data-name="S_AMMultiCPannerLabel26_41x23_N@2x" xmlns="http://www.w3.org/2000/svg" width="82" height="46" viewBox="0 0 82 46">
  <defs>
    <style>
      .fill {
        fill-rule: evenodd;
        opacity: 0.65;
      }

      
    </style>
  </defs>
  <title>S_AMMultiCPannerLabel26_41x23_N@2x</title>
  <path class="fill" d="M44.372,26c-.168,0-.168-.072-.168-.192V24.2c0-.145,0-.217.1-.288a50.482,50.482,0,0,0,3.984-3.265c2.424-2.208,2.833-3.6,2.833-4.824,0-1.561-.816-2.641-2.833-2.641a6.939,6.939,0,0,0-3.528.984c-.12.072-.192.024-.192-.1V11.862a.282.282,0,0,1,.12-.264,8.876,8.876,0,0,1,4.224-1.032c3.528,0,5.161,2.3,5.161,4.873,0,1.8-.648,3.576-2.712,5.544a27.764,27.764,0,0,1-2.976,2.593c.912-.072,1.824-.072,3.528-.072h2.76c.168,0,.216.048.192.168l-.5,2.16a.215.215,0,0,1-.24.168Z"/>
  <path class="fill" d="M66.044,12.919c0,.072,0,.12-.12.144-2.784.36-5.232,1.681-6.217,3.889a5.654,5.654,0,0,1,2.9-.768,4.621,4.621,0,0,1,4.849,4.848,5.191,5.191,0,0,1-5.569,5.209c-3.672,0-5.664-2.761-5.664-6.217,0-5.185,4.344-8.785,9.721-9.457.1,0,.1.072.1.145Zm-6.888,6.36a7.007,7.007,0,0,0-.048.816c0,2.28,1.128,3.624,2.88,3.624a2.381,2.381,0,0,0,2.52-2.568,2.511,2.511,0,0,0-2.784-2.64A4.405,4.405,0,0,0,59.156,19.279Z"/>
  </svg>