<svg id="S_AMMultiCPannerLabel25_41x23_N_2x" data-name="S_AMMultiCPannerLabel25_41x23_N@2x" xmlns="http://www.w3.org/2000/svg" width="82" height="46" viewBox="0 0 82 46">
  <defs>
    <style>
      .fill {
        fill-rule: evenodd;
        opacity: 0.65;
      }

      
    </style>
  </defs>
  <title>S_AMMultiCPannerLabel25_41x23_N@2x</title>
  <path class="fill" d="M44.732,26c-.168,0-.168-.072-.168-.192V24.2c0-.145,0-.217.1-.288a50.482,50.482,0,0,0,3.984-3.265c2.424-2.208,2.833-3.6,2.833-4.824,0-1.561-.816-2.641-2.833-2.641a6.939,6.939,0,0,0-3.528.984c-.12.072-.192.024-.192-.1V11.862a.282.282,0,0,1,.12-.264,8.876,8.876,0,0,1,4.224-1.032c3.528,0,5.161,2.3,5.161,4.873,0,1.8-.648,3.576-2.712,5.544a27.764,27.764,0,0,1-2.976,2.593c.912-.072,1.824-.072,3.528-.072h2.76c.168,0,.216.048.192.168l-.5,2.16a.215.215,0,0,1-.24.168Z"/>
  <path class="fill" d="M60.644,13.351c-.168.673-.5,2.017-.648,2.616,4.944.528,6.937,2.353,6.937,5.281,0,2.976-2.328,4.992-5.88,4.992a8.828,8.828,0,0,1-3.84-.744c-.1-.048-.144-.12-.144-.288V22.855a.1.1,0,0,1,.168-.1,8.281,8.281,0,0,0,3.792.936C63.212,23.7,64,22.664,64,21.439c0-1.92-1.872-2.832-6.576-3.216-.12,0-.216-.024-.216-.168V16.879c.144-.624,1.584-5.784,1.632-5.9.048-.144.072-.168.216-.168h7.273c.12,0,.168.048.12.192l-.624,2.184c-.024.12-.072.168-.216.168Z"/>
  </svg>