<svg id="S_AMMultiCPannerLabel2_41x23_N_2x" data-name="S_AMMultiCPannerLabel2_41x23_N@2x" xmlns="http://www.w3.org/2000/svg" width="82" height="46" viewBox="0 0 82 46">
  <defs>
    <style>
      .fill {
        fill-rule: evenodd;
        opacity: 0.65;
      }

      
    </style>
  </defs>
  <title>S_AMMultiCPannerLabel2_41x23_N@2x</title>
  <path class="fill" d="M50.8,26c-.168,0-.168-.072-.168-.192V24.2c0-.144,0-.216.1-.288a50.574,50.574,0,0,0,3.984-3.264c2.424-2.208,2.833-3.6,2.833-4.824,0-1.56-.816-2.64-2.833-2.64a6.934,6.934,0,0,0-3.528.984c-.12.072-.192.024-.192-.1V11.863a.282.282,0,0,1,.12-.264,8.87,8.87,0,0,1,4.224-1.032c3.528,0,5.161,2.3,5.161,4.872,0,1.8-.648,3.577-2.712,5.544a27.694,27.694,0,0,1-2.976,2.592c.912-.072,1.824-.072,3.528-.072H61.1c.168,0,.216.048.192.168l-.5,2.16a.215.215,0,0,1-.24.168Z"/>
  </svg>