<svg id="S_AMMultiCPannerLabel18_41x23_N_2x" data-name="S_AMMultiCPannerLabel18_41x23_N@2x" xmlns="http://www.w3.org/2000/svg" width="82" height="46" viewBox="0 0 82 46">
  <defs>
    <style>
      .fill {
        fill-rule: evenodd;
        opacity: 0.65;
      }

      
    </style>
  </defs>
  <title>S_AMMultiCPannerLabel18_41x23_N@2x</title>
  <path class="fill" d="M48.9,26c-.144,0-.192-.048-.192-.168V13.759a9.833,9.833,0,0,1-2.52.864c-.144.024-.192,0-.192-.145v-2.04c0-.12.024-.168.144-.191a11.909,11.909,0,0,0,3.336-1.44.623.623,0,0,1,.36-.1h1.656c.1,0,.12.048.12.168V25.832c0,.12-.048.168-.144.168Z"/>
  <path class="fill" d="M64.9,14.791a4.131,4.131,0,0,1-1.632,3.216,4.24,4.24,0,0,1,2.185,3.7c0,2.712-2.3,4.536-5.545,4.536-3.408,0-5.3-2.064-5.3-4.513a4.1,4.1,0,0,1,2.136-3.576,4.185,4.185,0,0,1-1.632-3.36c0-2.208,1.728-4.225,4.969-4.225C63.369,10.566,64.9,12.751,64.9,14.791Zm-2.352,6.721a2.368,2.368,0,0,0-.912-1.992.886.886,0,0,0-.552-.168H59a.607.607,0,0,0-.48.144,2.242,2.242,0,0,0-1.008,1.969,2.318,2.318,0,0,0,2.544,2.328A2.218,2.218,0,0,0,62.553,21.512Zm-4.681-6.5a2.318,2.318,0,0,0,.672,1.681.678.678,0,0,0,.552.191h1.944a.587.587,0,0,0,.528-.239,2.112,2.112,0,0,0,.6-1.561,2.15,2.15,0,0,0-4.3-.072Z"/>
  </svg>