<svg id="S_AMMultiCPannerLabel24_41x23_N_2x" data-name="S_AMMultiCPannerLabel24_41x23_N@2x" xmlns="http://www.w3.org/2000/svg" width="82" height="46" viewBox="0 0 82 46">
  <defs>
    <style>
      .fill {
        fill-rule: evenodd;
        opacity: 0.65;
      }

      
    </style>
  </defs>
  <title>S_AMMultiCPannerLabel24_41x23_N@2x</title>
  <path class="fill" d="M44.54,26c-.168,0-.168-.072-.168-.192V24.2c0-.145,0-.217.1-.288a50.482,50.482,0,0,0,3.984-3.265c2.424-2.208,2.833-3.6,2.833-4.824,0-1.561-.816-2.641-2.833-2.641a6.939,6.939,0,0,0-3.528.984c-.12.072-.192.024-.192-.1V11.862a.282.282,0,0,1,.12-.264,8.876,8.876,0,0,1,4.224-1.032c3.528,0,5.161,2.3,5.161,4.873,0,1.8-.648,3.576-2.712,5.544a27.764,27.764,0,0,1-2.976,2.593c.912-.072,1.824-.072,3.528-.072h2.76c.168,0,.216.048.192.168l-.5,2.16a.215.215,0,0,1-.24.168Z"/>
  <path class="fill" d="M56.276,22.376c-.144,0-.192-.048-.192-.145V20.359a.449.449,0,0,1,.12-.336l6.1-9.072a.347.347,0,0,1,.336-.145h3c.12,0,.192.048.192.168v9.049h1.824c.144,0,.168.072.144.168l-.312,2.064c-.024.072-.072.12-.192.12H65.829v3.432c0,.145-.072.192-.168.192h-2.4a.177.177,0,0,1-.192-.192V22.376Zm6.793-4.488c0-2.089.1-3.6.144-4.44h-.024c-.6,1.2-3.408,5.5-4.128,6.576h4.009Z"/>
  </svg>