<svg id="S_AMMultiCPannerLabel20_41x23_N_2x" data-name="S_AMMultiCPannerLabel20_41x23_N@2x" xmlns="http://www.w3.org/2000/svg" width="82" height="46" viewBox="0 0 82 46">
  <defs>
    <style>
      .fill {
        fill-rule: evenodd;
        opacity: 0.65;
      }

      
    </style>
  </defs>
  <title>S_AMMultiCPannerLabel20_41x23_N@2x</title>
  <path class="fill" d="M44.324,26c-.168,0-.168-.072-.168-.192V24.2c0-.145,0-.217.1-.288a50.482,50.482,0,0,0,3.984-3.265c2.424-2.208,2.833-3.6,2.833-4.824,0-1.561-.816-2.641-2.833-2.641a6.939,6.939,0,0,0-3.528.984c-.12.072-.192.024-.192-.1V11.862a.282.282,0,0,1,.12-.264,8.876,8.876,0,0,1,4.224-1.032c3.528,0,5.161,2.3,5.161,4.873,0,1.8-.648,3.576-2.712,5.544a27.764,27.764,0,0,1-2.976,2.593c.912-.072,1.824-.072,3.528-.072h2.76c.168,0,.216.048.192.168l-.5,2.16a.215.215,0,0,1-.24.168Z"/>
  <path class="fill" d="M56.3,18.367c0-4.464,1.992-7.8,5.592-7.8,4.417,0,5.521,4.152,5.521,7.8,0,4.032-1.464,7.873-5.5,7.873C57.956,26.24,56.3,22.76,56.3,18.367Zm2.9-.072c0,3.409.888,5.449,2.712,5.449s2.616-1.9,2.616-5.4c0-3.648-.912-5.329-2.688-5.329C60.309,13.015,59.2,14.623,59.2,18.295Z"/>
  </svg>