<svg id="S_AM16Panner51Center_41x23_N_2x" data-name="S_AM16Panner51Center_41x23_N@2x" xmlns="http://www.w3.org/2000/svg" width="82" height="46" viewBox="0 0 82 46">
  <defs>
    <style>
      .fill {
        fill-rule: evenodd;
        opacity: 0.65;
      }

      
    </style>
  </defs>
  <title>S_AM16Panner51Center_41x23_N@2x</title>
  <path class="fill" d="M36,28.184V13.816A2.993,2.993,0,1,0,32.184,10H28.859a4,4,0,1,0-7.717,0H17.816A2.993,2.993,0,1,0,14,13.816V28.184A2.993,2.993,0,1,0,17.816,32H32.184A2.993,2.993,0,1,0,36,28.184ZM35,33a1.994,1.994,0,0,1-1.722-1h0a1.941,1.941,0,0,1,0-2H16.723a1.941,1.941,0,0,1,0,2h0A1.993,1.993,0,1,1,14,29.278h0a1.941,1.941,0,0,1,2,0V12.723a1.941,1.941,0,0,1-2,0h0A1.993,1.993,0,1,1,16.722,10h0a1.941,1.941,0,0,1,0,2H22.38a3.933,3.933,0,0,0,5.241,0h5.657a1.941,1.941,0,0,1,0-2h0A1.993,1.993,0,1,1,36,12.722h0a1.941,1.941,0,0,1-2,0V29.277a1.941,1.941,0,0,1,2,0h0A1.993,1.993,0,0,1,35,33Z"/>
  </svg>