<svg id="S_AMMultiCPannerLabel3_41x23_N_2x" data-name="S_AMMultiCPannerLabel3_41x23_N@2x" xmlns="http://www.w3.org/2000/svg" width="82" height="46" viewBox="0 0 82 46">
  <defs>
    <style>
      .fill {
        fill-rule: evenodd;
        opacity: 0.65;
      }

      
    </style>
  </defs>
  <title>S_AMMultiCPannerLabel3_41x23_N@2x</title>
  <path class="fill" d="M53.5,19.352c-.12,0-.168-.048-.168-.168V17c0-.144.024-.216.144-.216h1.2c1.752,0,2.76-.576,2.76-1.776,0-1.128-.888-1.872-2.712-1.872a6.839,6.839,0,0,0-3.457.912c-.144.048-.168,0-.168-.1V11.743c0-.12-.024-.168.12-.24a8.582,8.582,0,0,1,4.057-.936c3.1,0,4.992,1.632,4.992,4.056a3.485,3.485,0,0,1-2.184,3.192,3.783,3.783,0,0,1,2.9,3.744c0,3.024-2.712,4.681-6,4.681a8.439,8.439,0,0,1-3.984-.792c-.12-.048-.144-.192-.144-.312V22.76c0-.1.12-.144.216-.1A7.767,7.767,0,0,0,54.9,23.672c2.232,0,3.12-.96,3.12-2.184,0-1.417-1.056-2.136-3.12-2.136Z"/>
  </svg>