<svg id="S_AMFx_Md_N_D_2x" data-name="S_AMFx_Md_N_D@2x" xmlns="http://www.w3.org/2000/svg" width="36" height="36" viewBox="0 0 36 36">
  <defs>
    <style>
      .background {
        opacity: 0.3;
      }

      .fill {
        fill: #fff;
        fill-rule: evenodd;
        opacity: 0.65;
      }

      
    </style>
  </defs>
  <title>S_AMFx_Md_N_D@2x</title>
  <path class="background" d="M9.316,28.968a13.516,13.516,0,1,0-.286-.224C9.187,28.871,9.161,28.85,9.316,28.968Z"/>
  <path class="fill" d="M18,4A14,14,0,1,1,4,18,14.016,14.016,0,0,1,18,4Zm0-2A16,16,0,1,0,34,18,16,16,0,0,0,18,2Z"/>
  <path id="PrefillD12" class="fill" d="M17.27,14.05a.135.135,0,0,0,.018.1l.8,1.558,1.554,3.011c-1.4,1.5-3.159,3.584-4.609,5.127A.084.084,0,0,0,15.08,24h1.978c.115,0,2.816-3.084,3.645-4.106,0,0,2.3,4.106,2.389,4.106h1.865c.092,0,.138-.065.092-.152-.506-1.043-2.2-3.736-2.85-5.041,1.29-1.348,3.655-3.459,4.76-4.655.069-.065.046-.152-.069-.152H25c-.115,0-.139.044-.207.131,0,0,0-.025-3.81,3.651l-1.5-3.492-.083-.2Zm2.1,0c-.021-.04-.028-.053-.1-.053H17.357a.088.088,0,0,0-.087.05Zm.11.127c.027-.1-.055-.127-.11-.127l.036.034.083.2Zm-2.05,1.537.66-.008-.8-1.558a.135.135,0,0,1-.018-.1l-2.108,0,.344-.887c.683-2.937,2.1-3.5,3.22-3.5a10.872,10.872,0,0,1,1.75.416c.081.025.136-.025.164-.126l.354-1.469c.027-.076-.027-.152-.109-.2A9.758,9.758,0,0,0,18.758,8C16.111,8,14.2,9.469,13.3,13.293l-.344.76H10.323a.147.147,0,0,0-.164.127l-.546,1.385-.008.05c.008.01.045,0,.117.1h2.6c-.246,1.139-2.724,10.505-3.3,12.051-.055.126,0,.2.109.2.218-.025,1.477.076,2.132,0,.136-.025.191-.051.218-.177.573-1.646,2.1-7.315,3.161-12.076Z"/>
  </svg>