<svg id="S_AMMultiCPannerLabel6_41x23_N_2x" data-name="S_AMMultiCPannerLabel6_41x23_N@2x" xmlns="http://www.w3.org/2000/svg" width="82" height="46" viewBox="0 0 82 46">
  <defs>
    <style>
      .fill {
        fill-rule: evenodd;
        opacity: 0.65;
      }

      
    </style>
  </defs>
  <title>S_AMMultiCPannerLabel6_41x23_N@2x</title>
  <path class="fill" d="M60.249,12.919c0,.072,0,.12-.12.144-2.784.36-5.232,1.68-6.217,3.888a5.654,5.654,0,0,1,2.9-.768,4.622,4.622,0,0,1,4.849,4.849A5.191,5.191,0,0,1,56.1,26.24c-3.672,0-5.664-2.76-5.664-6.217,0-5.185,4.344-8.785,9.721-9.457.1,0,.1.072.1.144Zm-6.888,6.36a7.007,7.007,0,0,0-.048.816c0,2.28,1.128,3.624,2.88,3.624a2.381,2.381,0,0,0,2.52-2.568,2.512,2.512,0,0,0-2.784-2.64A4.405,4.405,0,0,0,53.361,19.279Z"/>
  </svg>