<svg id="S_AnchorPoint_Sm_N_D_2x" data-name="S_AnchorPoint_Sm_N_D@2x" xmlns="http://www.w3.org/2000/svg" width="32" height="32" viewBox="0 0 32 32">
  <defs>
    <style>
      .fill, .fillPale {
        fill: #fff;
      }

      .fillPale {
        opacity: 0.15;
      }

      .fill {
        fill-rule: evenodd;
        opacity: 0.65;
      }

      
    </style>
  </defs>
  <title>S_AnchorPoint_Sm_N_D@2x</title>
  <rect class="fillPale" x="12" y="12" width="8" height="8" rx="1" ry="1"/>
  <rect class="fill" x="15" y="15" width="2" height="2"/>
  <path class="fill" d="M30.5,1h-4a.5.5,0,0,0-.5.5V4.869L20.869,10H11a1,1,0,0,0-1,1v9.869L4.869,26H1.5a.5.5,0,0,0-.5.5v4a.5.5,0,0,0,.5.5h4a.5.5,0,0,0,.5-.5V27.131L11.131,22H21a1,1,0,0,0,1-1V11.131L27.131,6H30.5a.5.5,0,0,0,.5-.5v-4A.5.5,0,0,0,30.5,1ZM20,19a1,1,0,0,1-1,1H13a1,1,0,0,1-1-1V13a1,1,0,0,1,1-1h6a1,1,0,0,1,1,1Z"/>
  </svg>