<svg id="S_AnchorAdd_Lg_N_2x" data-name="S_AnchorAdd_Lg_N@2x" xmlns="http://www.w3.org/2000/svg" width="44" height="36" viewBox="0 0 44 36">
  <defs>
    <style>
      .fill {
        fill: #fff;
        fill-rule: evenodd;
        opacity: 0.65;
      }

      
    </style>
  </defs>
  <title>S_AnchorAdd_Lg_N@2x</title>
  <path class="fill" d="M25.863,9.2l-8.278,3.813a2,2,0,0,0-1.011,1.051l-6.6,15.912a1,1,0,0,0,.216,1.09l0.67,0.67,8.047-8.046A2.034,2.034,0,1,1,20.326,25.1l-8.047,8.047,0.727,0.728a1,1,0,0,0,1.09.217l15.912-6.6a2,2,0,0,0,1.051-1.011l3.813-8.278Z"/>
  <path class="fill" d="M41.134,11.26L32.718,2.846a1.068,1.068,0,0,0-1.51,0L27.491,6.562a1.053,1.053,0,0,0-.147,1.289l8.42,8.42,0.008-.017,0.186,0.184a1.068,1.068,0,0,0,1.51,0l3.667-3.667A1.068,1.068,0,0,0,41.134,11.26Z"/>
  <path class="fill" d="M15,8H10V3A1,1,0,0,0,9,2H7A1,1,0,0,0,6,3V8H1A1,1,0,0,0,0,9v2a1,1,0,0,0,1,1H6v5a1,1,0,0,0,1,1H9a1,1,0,0,0,1-1V12h5a1,1,0,0,0,1-1V9A1,1,0,0,0,15,8Z"/>
  </svg>