<svg xmlns="http://www.w3.org/2000/svg" width="36" height="36" viewBox="0 0 36 36">
  <defs>
    <style>
      .fill {
        fill: #fff;
        opacity: 0.65;
      }
    </style>
  </defs>
  <g id="Icons">
    <path class="fill" d="M27,13.1a11.846,11.846,0,0,1,5,1.112V11a1,1,0,0,0-1-1H11a1,1,0,0,0-1,1V23a1,1,0,0,0,1,1h4.15A11.9,11.9,0,0,1,27,13.1Z"/>
    <path class="fill" d="M8,8H28V7a1,1,0,0,0-1-1H7A1,1,0,0,0,6,7V19a1,1,0,0,0,1,1H8Z"/>
    <path class="fill" d="M4,4H24V3a1,1,0,0,0-1-1H3A1,1,0,0,0,2,3V15a1,1,0,0,0,1,1H4Z"/>
    <path class="fill" d="M27,16.1A8.9,8.9,0,1,0,35.9,25,8.9,8.9,0,0,0,27,16.1ZM24.662,30.412l-4.128-4.127a.5.5,0,0,1,0-.708l1.037-1.036a.5.5,0,0,1,.707,0l2.731,2.731,6.106-6.106a.5.5,0,0,1,.707,0l1.043,1.043a.5.5,0,0,1,0,.707l-7.5,7.5A.5.5,0,0,1,24.662,30.412Z"/>
  </g>
</svg>
