<?xml version="1.0" encoding="UTF-8"?>
<svg id="i_c_o_n_s" data-name="i c o n s" xmlns="http://www.w3.org/2000/svg" width="32" height="32" viewBox="0 0 32 32">
  <defs>
    <style>
      .fill{
        fill: #b9b9b9;
        fill-rule: evenodd;
      }

      .background {
        opacity: .65;
        fill-rule: evenodd;
      }
    </style>
  </defs>
  <path class="fill" d="M25.89948,6.10046C20.43213,.63318,11.56787,.63318,6.10052,6.10046,.63318,11.56787,.63318,20.43213,6.10052,25.89941c5.46735,5.46741,14.3316,5.46741,19.79895,0,5.46735-5.46729,5.46735-14.33154,0-19.79895Zm-2.10309,11.23096l-7.4458,7.52502c-.09717,.0957-.22363,.14355-.35059,.14355s-.25342-.04785-.35059-.14355l-7.4458-7.52502c-.14062-.15808-.20361-.34436-.20361-.52673,0-.41248,.32275-.80469,.80176-.80469h5.19824V8c0-.55237,.44775-1,1-1h2c.55225,0,1,.44763,1,1v8h5.19824c.479,0,.80176,.39221,.80176,.80469,0,.18237-.06299,.36865-.20361,.52673Z"/>
  <path class="background" d="M15.64941,24.85645c.09717,.0957,.22363,.14355,.35059,.14355s.25342-.04785,.35059-.14355l7.4458-7.52502c.14062-.15808,.20361-.34436,.20361-.52673,0-.41248-.32275-.80469-.80176-.80469h-5.19824V8c0-.55237-.44775-1-1-1h-2c-.55225,0-1,.44763-1,1v8h-5.19824c-.479,0-.80176,.39221-.80176,.80469,0,.18237,.06299,.36865,.20361,.52673l7.4458,7.52502Z"/>
</svg>