<svg id="S_Archive_18_N" xmlns="http://www.w3.org/2000/svg" width="18" height="18" viewBox="0 0 18 18">
  <defs>
    <style>
      .cls-1, .cls-2 {
        fill: #707070;
      }

      .cls-2 {
        fill-rule: evenodd;
      }

      
    </style>
  </defs>
  <title>S_Archive_18_N</title>
  <rect class="cls-1" y="2" width="18" height="3" rx="0.5" ry="0.5"/>
  <path class="cls-2" d="M1,6v9.5a0.5,0.5,0,0,0,.5.5h15a0.5,0.5,0,0,0,.5-0.5V6H1Zm10.5,6h-5A0.5,0.5,0,0,1,6,11.5v-2A0.5,0.5,0,0,1,6.5,9h5a0.5,0.5,0,0,1,.5.5v2A0.5,0.5,0,0,1,11.5,12Z" transform="translate(0)"/>
  </svg>