<svg xmlns="http://www.w3.org/2000/svg" data-name="S_Asset_18_N_D@2x" height="36" id="S_Asset_18_N_D_2x" viewBox="0 0 36 36" width="36">
  <defs>
    <style>
	.fill {
        fill: #fff;
        fill-rule: evenodd;
        opacity: 0.65;
      }</style>
  </defs>
  <title>S_Asset_18_N_D@2x</title>
  <circle class="fill" cx="20.189" cy="8.1" r="1.806" />
  <path class="fill" d="M12,12.2a3.448,3.448,0,0,0-2.1-1.374c-1.845,0-5.9,5.587-5.9,5.587V4H26v6h2V3a1,1,0,0,0-1-1H3A1,1,0,0,0,2,3V21a1,1,0,0,0,1,1h9Z" />
  <path class="fill" d="M14,14V32a2,2,0,0,0,2,2H34a2,2,0,0,0,2-2V14a2,2,0,0,0-2-2H16A2,2,0,0,0,14,14Zm4,3.5a.5.5,0,0,1-.5.5h-1a.5.5,0,0,1-.5-.5v-3a.5.5,0,0,1,.5-.5h1a.5.5,0,0,1,.5.5Zm0,7a.5.5,0,0,1-.5.5h-1a.5.5,0,0,1-.5-.5v-3a.5.5,0,0,1,.5-.5h1a.5.5,0,0,1,.5.5Zm0,7a.5.5,0,0,1-.5.5h-1a.5.5,0,0,1-.5-.5v-3a.5.5,0,0,1,.5-.5h1a.5.5,0,0,1,.5.5Zm16-14a.5.5,0,0,1-.5.5h-1a.5.5,0,0,1-.5-.5v-3a.5.5,0,0,1,.5-.5h1a.5.5,0,0,1,.5.5Zm0,7a.5.5,0,0,1-.5.5h-1a.5.5,0,0,1-.5-.5v-3a.5.5,0,0,1,.5-.5h1a.5.5,0,0,1,.5.5Zm0,7a.5.5,0,0,1-.5.5h-1a.5.5,0,0,1-.5-.5v-3a.5.5,0,0,1,.5-.5h1a.5.5,0,0,1,.5.5ZM29.5,24h-9a.5.5,0,0,1-.5-.5v-1a.5.5,0,0,1,.5-.5h9a.5.5,0,0,1,.5.5v1A.5.5,0,0,1,29.5,24Z" />
  </svg>