<svg xmlns="http://www.w3.org/2000/svg" data-name="S_AssetCardsSoundfile_96_N_D@2x" height="192" id="S_AssetCardsSoundfile_96_N_D_2x" viewBox="0 0 192 192" width="192">
  <defs>
    <style>
      .fillMedium {
        fill: #fff;
      }

      .background, .fillMedium {
        opacity: 0.3;
      }

      
    </style>
  </defs>
  <title>S_AssetCardsSoundfile_96_N_D@2x</title>
  <path class="fillMedium" d="M96.509,133.753a2.488,2.488,0,0,1-2.441-2.56V89.613a2.494,2.494,0,0,1,4.987-.081v41.58A2.649,2.649,0,0,1,96.509,133.753Zm-8.828-11.482.034-23.777a2.338,2.338,0,0,0-2.357-2.463,2.408,2.408,0,0,0-2.605,2.289L82.719,122.1a2.776,2.776,0,0,0,2.481,2.835A2.611,2.611,0,0,0,87.681,122.271ZM110.3,137.414l.084-55.387a2.38,2.38,0,0,0-2.42-2.454,2.133,2.133,0,0,0-2.344,2.218l-.084,55.387A2.654,2.654,0,0,0,107.875,140,2.494,2.494,0,0,0,110.3,137.414ZM76.3,134.7V86.313a2.487,2.487,0,0,0-2.522-2.478,2.68,2.68,0,0,0-2.413,2.793v48.385a2.211,2.211,0,0,0,2.413,2.247A2.558,2.558,0,0,0,76.3,134.7Zm45.36-15.01V101.544A2.48,2.48,0,0,0,119.21,99a2.4,2.4,0,0,0-2.431,2.47v18.144a2.489,2.489,0,0,0,2.431,2.57A2.444,2.444,0,0,0,121.661,119.688ZM65,122.342V98.48a2.5,2.5,0,0,0-2.563-2.449A2.356,2.356,0,0,0,60,98.433v23.861a2.558,2.558,0,0,0,2.441,2.638A2.618,2.618,0,0,0,65,122.342Zm67.919,6.37V92.425a2.54,2.54,0,0,0-2.523-2.541,2.293,2.293,0,0,0-2.36,2.407v36.288a2.483,2.483,0,0,0,2.418,2.575A2.408,2.408,0,0,0,132.923,128.712ZM156,57.917v97.526A14.652,14.652,0,0,1,141.048,170H51.03A14.869,14.869,0,0,1,36,155.264V36.8A14.955,14.955,0,0,1,51.072,22h68.8A14.982,14.982,0,0,1,130.4,26.417L151.613,47.36A14.9,14.9,0,0,1,156,57.917ZM119.872,27H118.5V54a5.506,5.506,0,0,0,5.5,5.5h27V57.917a9.883,9.883,0,0,0-2.9-7L126.883,29.976A9.977,9.977,0,0,0,119.872,27ZM151,155.443V64.5H124A10.513,10.513,0,0,1,113.5,54V27H51.072A9.947,9.947,0,0,0,41,36.8V155.264A9.9,9.9,0,0,0,51.03,165h90.018A9.656,9.656,0,0,0,151,155.443Z" />
  <path class="background" d="M148.1,50.918a9.883,9.883,0,0,1,2.9,7V59.5H124a5.506,5.506,0,0,1-5.5-5.5V27h1.372a9.977,9.977,0,0,1,7.011,2.976ZM124,64.5h27v90.943A9.656,9.656,0,0,1,141.048,165H51.03A9.9,9.9,0,0,1,41,155.264V36.8A9.947,9.947,0,0,1,51.072,27H113.5V54A10.513,10.513,0,0,0,124,64.5ZM65,98.48a2.5,2.5,0,0,0-2.563-2.449A2.356,2.356,0,0,0,60,98.433v23.861a2.559,2.559,0,0,0,2.441,2.639A2.619,2.619,0,0,0,65,122.342ZM76.3,86.313a2.487,2.487,0,0,0-2.522-2.478,2.68,2.68,0,0,0-2.413,2.793v48.385a2.211,2.211,0,0,0,2.413,2.247A2.558,2.558,0,0,0,76.3,134.7ZM87.715,98.494a2.338,2.338,0,0,0-2.357-2.463,2.408,2.408,0,0,0-2.605,2.289L82.719,122.1a2.776,2.776,0,0,0,2.481,2.835,2.612,2.612,0,0,0,2.481-2.662Zm11.34-8.962a2.494,2.494,0,0,0-4.987.081v41.58a2.487,2.487,0,0,0,2.441,2.559,2.648,2.648,0,0,0,2.546-2.64Zm11.324-7.5a2.381,2.381,0,0,0-2.42-2.455,2.134,2.134,0,0,0-2.344,2.219l-.084,55.387A2.654,2.654,0,0,0,107.875,140a2.494,2.494,0,0,0,2.42-2.586Zm11.282,19.517A2.48,2.48,0,0,0,119.21,99a2.4,2.4,0,0,0-2.431,2.47v18.144a2.489,2.489,0,0,0,2.431,2.57,2.444,2.444,0,0,0,2.451-2.5Zm6.379,27.035a2.483,2.483,0,0,0,2.418,2.575,2.408,2.408,0,0,0,2.464-2.442V92.424a2.54,2.54,0,0,0-2.522-2.541,2.294,2.294,0,0,0-2.36,2.408Z" />
  </svg>