<svg id="S_AudioVideoCol_48x48_N_D_2x" data-name="S_AudioVideoCol_48x48_N_D@2x" xmlns="http://www.w3.org/2000/svg" width="96" height="96" viewBox="0 0 96 96">
  <defs>
    <style>
      .cls-1 {
        fill: #29d698;
        fill-rule: evenodd;
      }

      .cls-2 {
        fill: #a690e0;
      }

      
    </style>
  </defs>
  <title>S_AudioVideoCol_48x48_N_D@2x</title>
  <path class="cls-1" d="M30,42V92H96V42H30ZM94,90H32V44H94V90Z"/>
  <path class="cls-2" d="M28,44H14.5a0.5,0.5,0,0,1-.5-0.5v-3a0.5,0.5,0,0,1,.5-0.5h38a0.5,0.5,0,0,1-.5-0.5v-3a0.5,0.5,0,0,1,.5-0.5h3a0.5,0.5,0,0,1,.5.5v3a0.5,0.5,0,0,1-.5.5H60V11.143A1.143,1.143,0,0,0,58.857,10H1.143A1.143,1.143,0,0,0,0,11.143V72.857A1.143,1.143,0,0,0,1.143,74H28V44ZM52,12.5a0.5,0.5,0,0,1,.5-0.5h3a0.5,0.5,0,0,1,.5.5v3a0.5,0.5,0,0,1-.5.5h-3a0.5,0.5,0,0,1-.5-0.5v-3Zm0,8a0.5,0.5,0,0,1,.5-0.5h3a0.5,0.5,0,0,1,.5.5v3a0.5,0.5,0,0,1-.5.5h-3a0.5,0.5,0,0,1-.5-0.5v-3Zm0,8a0.5,0.5,0,0,1,.5-0.5h3a0.5,0.5,0,0,1,.5.5v3a0.5,0.5,0,0,1-.5.5h-3a0.5,0.5,0,0,1-.5-0.5v-3ZM8,71.5a0.5,0.5,0,0,1-.5.5h-3A0.5,0.5,0,0,1,4,71.5v-3A0.5,0.5,0,0,1,4.5,68h3a0.5,0.5,0,0,1,.5.5v3Zm0-8a0.5,0.5,0,0,1-.5.5h-3A0.5,0.5,0,0,1,4,63.5v-3A0.5,0.5,0,0,1,4.5,60h3a0.5,0.5,0,0,1,.5.5v3Zm0-8a0.5,0.5,0,0,1-.5.5h-3A0.5,0.5,0,0,1,4,55.5v-3A0.5,0.5,0,0,1,4.5,52h3a0.5,0.5,0,0,1,.5.5v3Zm0-8a0.5,0.5,0,0,1-.5.5h-3A0.5,0.5,0,0,1,4,47.5v-3A0.5,0.5,0,0,1,4.5,44h3a0.5,0.5,0,0,1,.5.5v3Zm0-8a0.5,0.5,0,0,1-.5.5h-3A0.5,0.5,0,0,1,4,39.5v-3A0.5,0.5,0,0,1,4.5,36h3a0.5,0.5,0,0,1,.5.5v3Zm0-8a0.5,0.5,0,0,1-.5.5h-3A0.5,0.5,0,0,1,4,31.5v-3A0.5,0.5,0,0,1,4.5,28h3a0.5,0.5,0,0,1,.5.5v3Zm0-8a0.5,0.5,0,0,1-.5.5h-3A0.5,0.5,0,0,1,4,23.5v-3A0.5,0.5,0,0,1,4.5,20h3a0.5,0.5,0,0,1,.5.5v3Zm0-8a0.5,0.5,0,0,1-.5.5h-3A0.5,0.5,0,0,1,4,15.5v-3A0.5,0.5,0,0,1,4.5,12h3a0.5,0.5,0,0,1,.5.5v3Z"/>
  <path class="cls-1" d="M64,44l1.055,8.1h1.78a10.066,10.066,0,0,1,.077,2.012,36.212,36.212,0,0,0,.1,3.792l1.961,0.1v2.064L69,56h2v6.22c1.646,1.719,4.031,3.843,4.031,3.843l1.969,0V60h2V50h2l2,12V56h2v8h2v2.03l2-.01V64h2v2.02L94,66v2H91v2H89V68H87v2H85v8H83V72L81,82H79V74H77V68H72.75c-0.279,0-.955,1-1.75,2.36V78H69V76l-0.01-1.95-1,1.95H67l-2,4V90H63V88H61l0.108-10.024H59.174L59.09,70H59V68.02l-4-.01V76H53V74H51V68.51c-1.279,1.162-2.806,4.11-4,6.73V78l-0.041,1.886L45,80V76H43V70H41l-2-2H33V66h6l2-2h2V56h2V54l1.856,0.194L47,56v2.57a25.643,25.643,0,0,0,4,6.33V60h2V58h2v8h2.344c0.589,0,1.142-.553,1.656-1.48V56h2V48h1.88c0.324-2.371.495-4,.495-4H64Z"/>
  </svg>