<svg xmlns="http://www.w3.org/2000/svg" data-name="S_AudioMute_18_N_D@2x" height="36" id="S_AudioMute_18_N_D_2x" viewBox="0 0 36 36" width="36">
  <defs>
    <style>
	.fill {
        fill: #fff;
        fill-rule: evenodd;
        opacity: 0.65;
      }</style>
  </defs>
  <title>S_AudioMute_18_N_D@2x</title>
  <path class="fill" d="M28.9,29.428,4.19,4.72a.75.75,0,0,0-1.061,0L1.22,6.629a.75.75,0,0,0,0,1.061L25.928,32.4a.75.75,0,0,0,1.061,0L28.9,30.489A.75.75,0,0,0,28.9,29.428Z" />
  <path class="fill" d="M20,16.712V5a.726.726,0,0,0-1.194-.571L13.328,10.04Z" />
  <path class="fill" d="M4,14.288v8.218A1.473,1.473,0,0,0,5.455,24h5.291a1.428,1.428,0,0,1,.93.345l7.13,7.259A.727.727,0,0,0,20,31.029v-.741Z" />
  </svg>