<?xml version="1.0" encoding="UTF-8"?>
<svg id="icons" xmlns="http://www.w3.org/2000/svg" width="120" height="90" viewBox="0 0 120 90">
  <defs>
    <style>
      .yellow {
        fill: #f4c500;
      }

      .yellow, .cls-1 {
        stroke-width: 0px;
      }

      .cls-1 {
        fill: #29d698;
      }
    </style>
  </defs>
  <path class="cls-1" d="m96.00001,75h2v-8h.70697c-.90698-1.15723-1.80701-2.2998-2.70697-3.41895v11.41895Z"/>
  <path class="cls-1" d="m90.00001,60h2v-1.23291c-.66699-.78418-1.33398-1.56689-2-2.33008v3.56299Z"/>
  <path class="cls-1" d="m119.00001,0H1.00001C.4477,0,0,.44775,0,1v88c0,.55225.44769,1,1,1h118c.55225,0,1-.44775,1-1V1c0-.55225-.44775-1-1-1ZM2.00001,88v-41h2v2h2v2h2v4h2v-8h8v2h2v-2h4v10h2v-5h2v-5h2v4h2v-2h2v10.91846h2v-12.91846h9v3h2v-1h1.72729l.27271-.20215v-1.79785h7v5h2v5h2v-10h2v4h2v7h2v16h2v-8h2v16h2v-6h2v10h2v-16h2v4l2-1.54004v-12.45996h2v10.91406c1.05994-2.65674,2.40088-5.19238,4-7.56396v-7.3501h3.62299c-7.60742-8.75586-16.00745-16.79004-25.09302-24h-.52997v7h-2v4h-2v-10h-2v5h-2v5h-7v-2h-2v-1h-2v3h-9v-13h-2v11h-2v-2h-2v4h-2v-5h-2v-5h-2v10h-4v-2h-2v2h-8v-8h-2v4h-2v2h-2v2h-2V2h116v41.01611h-3.98395v-4h-2v-6h-2v8h-2v-14h-2v2h-2v-6h-2v8h-2v-12h-2v-6h-2v14h-2v12.0498c-.659-.69189-1.34204-2.3999-2-3.0498v-6h-2v2.54199l-4-4.02686v-4.51514l-2-4-.01605-5.69336h-2l.01605,11.69336h-2V9.33887l-2-5v10h-2V4.33887h-2v6h-2v-2h-2v14h-2v-6h-2v7.98633c.31116.2334.61975.4834.93048.71973,9.52173,7.3291,18.33368,15.5376,26.30353,24.53223.26697-.31201.52496-.60693.76599-.87109v1.7251c2.422,2.7251,4.85199,5.57715,7.28796,8.58496h.71204v.89014c.66602.82959,1.33301,1.6748,2,2.52686v-1.41699h2v2h2v-14h2v8h2v-6h2v-4h3.98395v40.98389H2.00001Z"/>
  <path class="yellow" d="m59.915,25.429c17.983,12.71,37.272,32.392,56.6,62.378l.118.193h1.19l.17699-.114v-1.454c-19.194-29.717-38.388-49.4-56.343-62.219l-1.745-1.228C37.894,7.733,17.82,2.734,2,2.035v2c15.36.696,34.8,5.543,56.166,20.178l1.749,1.216Z"/>
</svg>