<?xml version="1.0" encoding="UTF-8"?>
<svg id="ICONS" xmlns="http://www.w3.org/2000/svg" width="96" height="96" viewBox="0 0 96 96">
  <defs>
    <style>
      .cls-1 {
        fill: #a690e0;
      }

      .fill {
        fill: #fff;
        opacity: .65;
      }

      .cls-2 {
        fill: #29d698;
        fill-rule: evenodd;
      }
    </style>
  </defs>
  <path class="cls-1" d="M28,44h-13.5c-.27614,0-.5-.22386-.5-.5v-3c0-.27614.22386-.5.5-.5h38c-.27614,0-.5-.22386-.5-.5v-3c0-.27614.22386-.5.5-.5h3c.27614,0,.5.22386.5.5v3c0,.27614-.22386.5-.5.5h4.5V11.143c0-.63126-.51174-1.143-1.143-1.143H1.143C.51174,10,0,10.51174,0,11.143v61.714c0,.63126.51174,1.143,1.143,1.143h26.857v-30ZM52,12.5c0-.27614.22386-.5.5-.5h3c.27614,0,.5.22386.5.5v3c0,.27614-.22386.5-.5.5h-3c-.27614,0-.5-.22386-.5-.5v-3ZM52,20.5c0-.27614.22386-.5.5-.5h3c.27614,0,.5.22386.5.5v3c0,.27614-.22386.5-.5.5h-3c-.27614,0-.5-.22386-.5-.5v-3ZM52,28.5c0-.27614.22386-.5.5-.5h3c.27614,0,.5.22386.5.5v3c0,.27614-.22386.5-.5.5h-3c-.27614,0-.5-.22386-.5-.5v-3ZM8,71.5c0,.27615-.22386.5-.5.5h-3c-.27614,0-.5-.22385-.5-.5v-3c0-.27615.22386-.5.5-.5h3c.27614,0,.5.22385.5.5v3ZM8,63.5c0,.27614-.22386.5-.5.5h-3c-.27614,0-.5-.22386-.5-.5v-3c0-.27614.22386-.5.5-.5h3c.27614,0,.5.22386.5.5v3ZM8,55.5c0,.27614-.22386.5-.5.5h-3c-.27614,0-.5-.22386-.5-.5v-3c0-.27614.22386-.5.5-.5h3c.27614,0,.5.22386.5.5v3ZM8,47.5c0,.27614-.22386.5-.5.5h-3c-.27614,0-.5-.22386-.5-.5v-3c0-.27614.22386-.5.5-.5h3c.27614,0,.5.22386.5.5v3ZM8,39.5c0,.27614-.22386.5-.5.5h-3c-.27614,0-.5-.22386-.5-.5v-3c0-.27614.22386-.5.5-.5h3c.27614,0,.5.22386.5.5v3ZM8,31.5c0,.27614-.22386.5-.5.5h-3c-.27614,0-.5-.22386-.5-.5v-3c0-.27614.22386-.5.5-.5h3c.27614,0,.5.22386.5.5v3ZM8,23.5c0,.27614-.22386.5-.5.5h-3c-.27614,0-.5-.22386-.5-.5v-3c0-.27614.22386-.5.5-.5h3c.27614,0,.5.22386.5.5v3ZM8,15.5c0,.27614-.22386.5-.5.5h-3c-.27614,0-.5-.22386-.5-.5v-3c0-.27614.22386-.5.5-.5h3c.27614,0,.5.22386.5.5v3Z"/>
  <rect class="fill" x="84" y="84" width="12" height="12" rx=".5" ry=".5"/>
  <rect class="fill" x="68" y="84" width="12" height="12" rx=".5" ry=".5"/>
  <rect class="fill" x="84" y="68" width="12" height="12" rx=".5" ry=".5"/>
  <rect class="fill" x="68" y="68" width="12" height="12" rx=".5" ry=".5"/>
  <polygon class="cls-2" points="64 90 32 90 32 44 94 44 94 64 96 64 96 42 30 42 30 92 64 92 64 90"/>
  <g>
    <polygon class="cls-2" points="85 64 85 56 83 56 83 62 81 50 79 50 79 60 77 60 77 64 85 64"/>
    <path class="cls-2" d="M64,90v-24c0-1.10457.89543-2,2-2h6.79895c-.60461-.57617-1.24268-1.19922-1.79895-1.78027v-6.21973h-2l-.02698,4.06787v-2.06396l-1.96106-.1001c-.09949-1.26123-.13281-2.52686-.09998-3.79199.04163-.67139.01587-1.34521-.07703-2.01172h-1.78003l-1.05493-8.1001h-.625s-.17102,1.62891-.495,4h-1.88v8h-2v8.52002c-.51392.92676-1.06702,1.47998-1.65601,1.47998h-2.34399v-8h-2v2h-2v4.8999c-1.63586-1.90283-2.98364-4.03564-4-6.33008v-2.56982l-.14404-1.80615-1.85596-.19385v2h-2v8h-2l-2,2h-6v2h6l2,2h2v6h2v4l1.95898-.11426.04102-1.88574v-2.75977c1.19409-2.62012,2.72095-5.56836,4-6.73047v5.49023h2v2h2v-7.99023l4,.01025v1.97998h.09009l.08398,7.97607h1.93396l-.10803,10.02393h2v2h1Z"/>
  </g>
</svg>