<svg xmlns="http://www.w3.org/2000/svg" data-name="S_AudioOn_18_N_D@2x" height="36" id="S_AudioOn_18_N_D_2x" viewBox="0 0 36 36" width="36">
  <defs>
    <style>
	.fill {
        fill: #fff;
        fill-rule: evenodd;
        opacity: 0.65;
      }</style>
  </defs>
  <title>S_AudioOn_18_N_D@2x</title>
  <path class="fill" d="M10.745,12.073H5.455A1.473,1.473,0,0,0,4,13.564v8.942A1.473,1.473,0,0,0,5.455,24h5.291a1.429,1.429,0,0,1,.93.345l7.13,7.259A.727.727,0,0,0,20,31.029V5a.726.726,0,0,0-1.194-.571l-7.127,7.3A1.437,1.437,0,0,1,10.745,12.073Z" />
  <path class="fill" d="M26.04,18a6.936,6.936,0,0,1-1.408,4.192.981.981,0,0,0,.087,1.288l.016.016a.991.991,0,0,0,1.486-.09A8.954,8.954,0,0,0,26.2,12.553a.991.991,0,0,0-1.484-.087l-.016.016a.982.982,0,0,0-.084,1.293A6.944,6.944,0,0,1,26.04,18Z" />
  <path class="fill" d="M32.04,18a12.937,12.937,0,0,1-3.116,8.436.972.972,0,0,0,.063,1.317l.014.014a1,1,0,0,0,1.474-.069,14.98,14.98,0,0,0-.027-19.43A1,1,0,0,0,28.981,8.2l-.015.015A.977.977,0,0,0,28.9,9.534,12.939,12.939,0,0,1,32.04,18Z" />
  </svg>