<svg id="S_AudioVideoCol_Sm_N_D_2x" data-name="S_AudioVideoCol_Sm_N_D@2x" xmlns="http://www.w3.org/2000/svg" width="32" height="32" viewBox="0 0 32 32">
  <defs>
    <style>
      .cls-1 {
        fill: #a690e0;
      }

      .cls-1, .cls-2 {
        fill-rule: evenodd;
      }

      .cls-2 {
        fill: #29d698;
      }

      
    </style>
  </defs>
  <title>S_AudioVideoCol_Sm_N_D@2x</title>
  <path class="cls-1" d="M6,15a1,1,0,0,1,1-1H6.5A0.5,0.5,0,0,1,6,13.5v-1A0.5,0.5,0,0,1,6.5,12h9a0.5,0.5,0,0,1,.5.5v1a0.5,0.5,0,0,1-.5.5h3a0.5,0.5,0,0,1-.5-0.5v-1a0.5,0.5,0,0,1,.5-0.5h1a0.5,0.5,0,0,1,.5.5v1a0.5,0.5,0,0,1-.5.5H22V3a1,1,0,0,0-1-1H1A1,1,0,0,0,0,3V23a1,1,0,0,0,1,1H6V15ZM18,4.5A0.5,0.5,0,0,1,18.5,4h1a0.5,0.5,0,0,1,.5.5v1a0.5,0.5,0,0,1-.5.5h-1A0.5,0.5,0,0,1,18,5.5v-1Zm0,4A0.5,0.5,0,0,1,18.5,8h1a0.5,0.5,0,0,1,.5.5v1a0.5,0.5,0,0,1-.5.5h-1A0.5,0.5,0,0,1,18,9.5v-1ZM4,21.5a0.5,0.5,0,0,1-.5.5h-1A0.5,0.5,0,0,1,2,21.5v-1A0.5,0.5,0,0,1,2.5,20h1a0.5,0.5,0,0,1,.5.5v1Zm0-4a0.5,0.5,0,0,1-.5.5h-1A0.5,0.5,0,0,1,2,17.5v-1A0.5,0.5,0,0,1,2.5,16h1a0.5,0.5,0,0,1,.5.5v1Zm0-4a0.5,0.5,0,0,1-.5.5h-1A0.5,0.5,0,0,1,2,13.5v-1A0.5,0.5,0,0,1,2.5,12h1a0.5,0.5,0,0,1,.5.5v1Zm0-4a0.5,0.5,0,0,1-.5.5h-1A0.5,0.5,0,0,1,2,9.5v-1A0.5,0.5,0,0,1,2.5,8h1a0.5,0.5,0,0,1,.5.5v1Zm0-4a0.5,0.5,0,0,1-.5.5h-1A0.5,0.5,0,0,1,2,5.5v-1A0.5,0.5,0,0,1,2.5,4h1a0.5,0.5,0,0,1,.5.5v1Z"/>
  <path class="cls-2" d="M29,14H7a1,1,0,0,0-1,1V31a1,1,0,0,0,1,1H29a1,1,0,0,0,1-1V15A1,1,0,0,0,29,14ZM28,30H8V23.749h2.938l0.6,3.533s1.869-3.533,2.664-3.533H15.83s0.515,6.229.5,6.251c0.757-2.251,3.548-6.251,4.3-6.251l1.48,0.028v4.688c0.568-2.208,1.518-4.688,3.486-4.688l2.4-.028V30Zm0-7.813s-2.365.071-2.4,0.028c-1.552,0-2.509-3.151-3.153-5.1l-0.333,5.1s-1.556-.071-1.48-0.028c-2.423,0-3.756-6.187-3.756-6.187s-0.583,6.187-2.06,6.187a7.3,7.3,0,0,0-.964,0c-1.1,0-2.428-4.416-2.428-4.416l-0.485,4.416H8V16H28v6.187Z"/>
  </svg>