<svg id="S_AudioVideoCol_Xl_N_D_2x" data-name="S_AudioVideoCol_Xl_N_D@2x" xmlns="http://www.w3.org/2000/svg" width="64" height="64" viewBox="0 0 64 64">
  <defs>
    <style>
      .cls-1 {
        fill: #a690e0;
        fill-rule: evenodd;
      }

      .cls-2 {
        fill: #29d698;
      }

      
    </style>
  </defs>
  <title>S_AudioVideoCol_Xl_N_D@2x</title>
  <path class="cls-1" d="M16,27H9a1,1,0,0,1-1-1V25a1,1,0,0,1,1-1H36V5a1,1,0,0,0-1-1H1A1,1,0,0,0,0,5V46a1,1,0,0,0,1,1H16V27ZM31,7a1,1,0,0,1,1-1h1a1,1,0,0,1,1,1V8a1,1,0,0,1-1,1H32a1,1,0,0,1-1-1V7Zm0,6a1,1,0,0,1,1-1h1a1,1,0,0,1,1,1v1a1,1,0,0,1-1,1H32a1,1,0,0,1-1-1V13Zm0,6a1,1,0,0,1,1-1h1a1,1,0,0,1,1,1v1a1,1,0,0,1-1,1H32a1,1,0,0,1-1-1V19ZM5,44a1,1,0,0,1-1,1H3a1,1,0,0,1-1-1V43a1,1,0,0,1,1-1H4a1,1,0,0,1,1,1v1Zm0-6a1,1,0,0,1-1,1H3a1,1,0,0,1-1-1V37a1,1,0,0,1,1-1H4a1,1,0,0,1,1,1v1Zm0-6a1,1,0,0,1-1,1H3a1,1,0,0,1-1-1V31a1,1,0,0,1,1-1H4a1,1,0,0,1,1,1v1Zm0-6a1,1,0,0,1-1,1H3a1,1,0,0,1-1-1V25a1,1,0,0,1,1-1H4a1,1,0,0,1,1,1v1Zm0-6a1,1,0,0,1-1,1H3a1,1,0,0,1-1-1V19a1,1,0,0,1,1-1H4a1,1,0,0,1,1,1v1Zm0-6a1,1,0,0,1-1,1H3a1,1,0,0,1-1-1V13a1,1,0,0,1,1-1H4a1,1,0,0,1,1,1v1ZM5,8A1,1,0,0,1,4,9H3A1,1,0,0,1,2,8V7A1,1,0,0,1,3,6H4A1,1,0,0,1,5,7V8Z"/>
  <path class="cls-2" d="M20,28H62V58H20V28Zm-2-1V59a1,1,0,0,0,1,1H63a1,1,0,0,0,1-1V27a1,1,0,0,0-1-1H19A1,1,0,0,0,18,27Z"/>
  <path class="cls-2" d="M50,32V42l-0.191.022a23.652,23.652,0,0,0-2.628.024c-0.32,0-4.009-4.354-4.009-4.354v-1.5l-1.3-.075s-0.13-1.885-.068-2.758a8.018,8.018,0,0,0-.051-1.463H40.576L39.84,28H39.25c-0.5,4.292-1.841,14-3.759,14H34c-1.309,0-2.964-2.937-4.055-5.4V34.727l-0.1-1.313-1.229-.141v1.455H27.3v5.818l-1.3.193V42H20v2h6v2h2v4l0.621-.091v2.909l1.3-.083,0.027-1.372V49.356C30.956,46.919,32.42,44,33.348,44h3.215l0.118,7.346h1.281L38.31,58h0.25c0.654-1.849,1.969-5.145,1.969-5.145L40.5,51.338,41.85,51.39S44.932,44,45.52,44H50V54c0.354-1.439.484-2.68,0.928-4.091h1.529V47.041A6.32,6.32,0,0,1,57.755,44H62V42s-3.837.091-3.914,0c-2.763,0-4.464-2.773-5.628-4.6V34.727H51.18C50.634,33.259,50.427,33.353,50,32Z"/>
  </svg>