<?xml version="1.0" encoding="UTF-8"?>
<svg id="icons" xmlns="http://www.w3.org/2000/svg" width="120" height="90" viewBox="0 0 120 90">
  <defs>
    <style>
      .yellow {
        fill: #f4c500;
      }

      .yellow, .cls-1 {
        stroke-width: 0px;
      }

      .cls-1 {
        fill: #29d698;
      }
    </style>
  </defs>
  <path class="yellow" d="m58.34265,65.81396c-21.44611,14.69165-40.95477,19.5188-56.34265,20.18481v2.00122c15.84692-.67017,35.98828-5.64941,58.08838-20.95728l1.74573-1.22876c17.89972-12.78247,37.03058-32.3833,56.16589-61.94751v-1.83936h-1.18976l-.12469.19336c-19.32532,29.98608-38.61401,49.66846-56.59717,62.37817l-1.74573,1.21533Z"/>
  <path class="cls-1" d="m95.65754,27h-1.65753v2.02539c.5542-.6665,1.10553-1.34766,1.65753-2.02539Z"/>
  <path class="cls-1" d="m100.01606,21.49463v-2.47852h-2v-6h-2v9.64014l-.01605.01172v3.90869c1.3454-1.65967,2.68427-3.35303,4.01605-5.08203Z"/>
  <path class="cls-1" d="m119.00001,0H1.00001C.4477,0,0,.44775,0,1v88c0,.55225.44769,1,1,1h118c.55231,0,1-.44775,1-1V1c0-.55225-.44769-1-1-1ZM2.00001,88v-41h2v2h2v2h2v4h2v-8h8v2h2v-2h4v10h2v-5h2v-5h2v4h2v-2h2v10.91846h2v-12.91846h9v3h2v-1h1.72729l.27271-.20215v-1.79785h7v5h2v5h2v-10h2v4h2v7h.64099c9.36267-7.34424,18.50665-16.24023,27.37506-26.62939v-1.35449h-.01605v-.01611h-2v2.5415l-3.10327-3.12451-.00049.00049-.88019-.88623v-4.51514l-2-4-.01605-5.69336v-.32275h-2v10.33203l.01373-.01025.00232,1.69434h-2V9.33887l-.01605-.04004v-.29883l-2-5v10h-1.98395V4.33887h-.01605v-.33887h-2v6h-1.98395v-1.66113h-.01605v-.33887h-2v14h-1.98395v-5.66113h-.01605v-.33887h-2v14h-2v9h-2v4h-2v-10h-2v5h-2v5h-7v-2h-2v-1h-2v3h-9v-13h-2v11h-2v-2h-2v4h-2v-5h-2v-5h-2v10h-4v-2h-2v2h-8v-8h-2v4h-2v2h-2v2h-2V2h116v41h-3.98395v-3.98389h-.01605v-.01611h-1.98395v-5.98389h-.01605v-.01611h-2v8h-1.98395v-13.98389h-.01605v-.01611h-2v2h-1.98395v-1.24756c-.6701.85352-1.34241,1.6958-2.01605,2.53271v.71484h-.57953c-11.35248,14.00195-23.19763,25.64062-35.42047,34.78027v8.21973h2v-8h2v16h2v-6h2v10h2v-16h2v4l2-1.54004v-12.45996h2v10.91406c.23596-.59131.49084-1.17432.75439-1.75342.05688-.12549.11481-.25195.17737-.38623.00122-.00293.00262-.00537.00378-.00781.39502-.84326.82806-1.66797,1.27972-2.48242.09863-.17725.19739-.35449.29871-.53027.46936-.81641.95874-1.62207,1.48602-2.40381v-7.3501h4v4h2v-8.93799c.42999-.54541.84271-1.04492,1.23419-1.50244.00525.00586.01062.01172.01587.01758.26135-.30566.51324-.59277.74994-.85303v12.27588h2v14h2v-8h2v-8h1.29083l.01318.01611h.69598v5.98389h2v-2.58691c.00537.00684.01068.01318.01605.02002v-1.41699h1.98395v1.98389h.01605v.01611h2v-14h1.98395v7.98389h.01605v.01611h2v-6h2v-4h3.98395v40.98389H2.00001Z"/>
</svg>