<?xml version="1.0" encoding="UTF-8"?>
<svg id="ICONS" xmlns="http://www.w3.org/2000/svg" width="64" height="64" viewBox="0 0 64 64">
  <defs>
    <style>
      .cls-1 {
        fill: #a690e0;
        fill-rule: evenodd;
      }

      .cls-2 {
        fill: #29d698;
      }

      .fill {
        fill: #fff;
        opacity: .65;
      }
    </style>
  </defs>
  <path class="cls-1" d="M16,27h-7c-.55229,0-1-.44772-1-1v-1c0-.55228.44771-1,1-1h27V5c0-.55228-.44772-1-1-1H1c-.55228,0-1,.44772-1,1v41c0,.55228.44772,1,1,1h15v-20ZM31,7c0-.55228.44772-1,1-1h1c.55228,0,1,.44772,1,1v1c0,.55229-.44772,1-1,1h-1c-.55228,0-1-.44771-1-1v-1ZM31,13c0-.55229.44772-1,1-1h1c.55228,0,1,.44771,1,1v1c0,.55229-.44772,1-1,1h-1c-.55228,0-1-.44771-1-1v-1ZM31,19c0-.55228.44772-1,1-1h1c.55228,0,1,.44772,1,1v1c0,.55228-.44772,1-1,1h-1c-.55228,0-1-.44772-1-1v-1ZM5,44c0,.55228-.44772,1-1,1h-1c-.55228,0-1-.44772-1-1v-1c0-.55228.44772-1,1-1h1c.55228,0,1,.44772,1,1v1ZM5,38c0,.55228-.44772,1-1,1h-1c-.55228,0-1-.44772-1-1v-1c0-.55228.44772-1,1-1h1c.55228,0,1,.44772,1,1v1ZM5,32c0,.55228-.44772,1-1,1h-1c-.55228,0-1-.44772-1-1v-1c0-.55228.44772-1,1-1h1c.55228,0,1,.44772,1,1v1ZM5,26c0,.55228-.44772,1-1,1h-1c-.55228,0-1-.44772-1-1v-1c0-.55228.44772-1,1-1h1c.55228,0,1,.44772,1,1v1ZM5,20c0,.55228-.44772,1-1,1h-1c-.55228,0-1-.44772-1-1v-1c0-.55228.44772-1,1-1h1c.55228,0,1,.44772,1,1v1ZM5,14c0,.55229-.44772,1-1,1h-1c-.55228,0-1-.44771-1-1v-1c0-.55229.44772-1,1-1h1c.55228,0,1,.44771,1,1v1ZM5,8c0,.55229-.44772,1-1,1h-1c-.55228,0-1-.44771-1-1v-1c0-.55228.44772-1,1-1h1c.55228,0,1,.44772,1,1v1Z"/>
  <rect class="fill" x="56" y="56" width="8" height="8" rx=".5" ry=".5"/>
  <rect class="fill" x="45" y="56" width="8" height="8" rx=".5" ry=".5"/>
  <rect class="fill" x="56" y="45" width="8" height="8" rx=".5" ry=".5"/>
  <rect class="fill" x="45" y="45" width="8" height="8" rx=".5" ry=".5"/>
  <path class="cls-2" d="M48.63208,42c-.06897,0-.13794-.00098-.20679,0h.20679Z"/>
  <path class="cls-2" d="M41,58h-21v-30h42v13h2v-14c0-.55225-.44775-1-1-1H19c-.55225,0-1,.44775-1,1v32c0,.55225.44775,1,1,1h22v-2Z"/>
  <path class="cls-2" d="M55.36609,41c-1.25854-.97363-2.18677-2.46777-2.90808-3.6001v-2.67285h-1.27808c-.5459-1.46826-.75293-1.37402-1.17993-2.72705v9h5.36609Z"/>
  <path class="cls-2" d="M41,51.35742v-8.85742c0-.82843.67157-1.5,1.5-1.5h3.57703c-1.19226-1.28711-2.90503-3.30811-2.90503-3.30811v-1.5l-1.29993-.07471s-.13013-1.88525-.06812-2.7583c.02771-.48828.01062-.97803-.05103-1.46289h-1.177l-.73584-3.896h-.59009c-.5,4.29199-1.84106,14-3.75903,14h-1.49097c-1.30908,0-2.96399-2.93701-4.05493-5.3999v-1.87305l-.1001-1.31299-1.229-.14111v1.45508h-1.31592v5.81787l-1.30005.19336v1.26074h-6v2h6v2h2v4l.62097-.09082v2.90869l1.30005-.08301.02698-1.37207v-2.00684c1.00806-2.43701,2.47192-5.35596,3.40002-5.35596h3.21497l.11804,7.34619h1.28088l.34814,6.65381h.25c.65393-1.84912,1.96899-5.14502,1.96899-5.14502l-.02905-1.51709.5.01953Z"/>
</svg>