<svg id="S_AudioVideoSubClip_Xl_N_D_2x" data-name="S_AudioVideoSubClip_Xl_N_D@2x" xmlns="http://www.w3.org/2000/svg" width="64" height="64" viewBox="0 0 64 64">
  <defs>
    <style>
      .cls-1 {
        fill: #a690e0;
      }

      .cls-1, .fill {
        fill-rule: evenodd;
      }

      .fill {
        fill: #fff;
        opacity: 0.65;
      }

      .cls-2 {
        fill: #29d698;
      }

      
    </style>
  </defs>
  <title>S_AudioVideoSubClip_Xl_N_D@2x</title>
  <polygon class="cls-1" points="10.118 33.059 16 39 16 47 20 47 20 27 16 27 10.118 33.059"/>
  <path class="cls-1" d="M37,4H16V24H38V5A1,1,0,0,0,37,4ZM36,20a1,1,0,0,1-1,1H34a1,1,0,0,1-1-1V19a1,1,0,0,1,1-1h1a1,1,0,0,1,1,1v1Zm0-6a1,1,0,0,1-1,1H34a1,1,0,0,1-1-1V13a1,1,0,0,1,1-1h1a1,1,0,0,1,1,1v1Zm0-6a1,1,0,0,1-1,1H34a1,1,0,0,1-1-1V7a1,1,0,0,1,1-1h1a1,1,0,0,1,1,1V8Z"/>
  <path class="fill" d="M10,24.373l-8.492,8.71L10,41.647V59a1,1,0,0,0,1,1h2a1,1,0,0,0,1-1V40L7.118,33.059,14,26V5a1,1,0,0,0-1-1H11a1,1,0,0,0-1,1V24.373Z"/>
  <path class="fill" d="M54,24.343V5a1,1,0,0,0-1-1H51a1,1,0,0,0-1,1V26l7,7-7,7V59a1,1,0,0,0,1,1h2a1,1,0,0,0,1-1V41.657L62.657,33Z"/>
  <path class="cls-2" d="M48,58H24V28H48V26H23a1,1,0,0,0-1,1V59a1,1,0,0,0,1,1H48V58Z"/>
  <path class="cls-2" d="M48,42c-0.493,0-1.879.012-1.819,0.047-0.32,0-3.009-4.354-3.009-4.354v-1.5l-1.3-.075s-0.13-1.885-.068-2.758a8.014,8.014,0,0,0-.051-1.463H40.576L39.84,28H39.25c-0.5,4.292-.833,13.875-3.759,14H34c-1.309,0-2.9-2.267-3.988-4.734V35.4l-0.1-1.313-1.229-.141V35.4H27.364L27.3,40.545l-1.3.193V42H24v2h2v2h2l0.123,3.223,0.621-.091v2.909l1.3-.083,0.027-1.372V48.579C31.08,46.142,32.42,44,33.348,44h2.861l0.118,7.346h1.636l0.287,5.7H38.5a29.975,29.975,0,0,1,2.029-4.187L40.5,51.338,41.85,51.39S43.932,44,44.52,44H48V42Z"/>
  </svg>