<svg id="S_AudioName_Sm_N_D_2x" data-name="S_AudioName_Sm_N_D@2x" xmlns="http://www.w3.org/2000/svg" width="32" height="32" viewBox="0 0 32 32">
  <defs>
    <style>
      .fill {
        fill: #fff;
        fill-rule: evenodd;
        opacity: 0.65;
      }

      
    </style>
  </defs>
  <title>S_AudioName_Sm_N_D@2x</title>
  <path class="fill" d="M9.241,17.839L7.8,21.88a0.14,0.14,0,0,1-.16.12H6.28a0.115,0.115,0,0,1-.12-0.16L10.521,9.7a2.1,2.1,0,0,0,.14-0.82,0.094,0.094,0,0,1,.1-0.1h1.96a0.1,0.1,0,0,1,.12.1l4.7,12.983c0.04,0.08.02,0.14-.08,0.14H15.942a0.178,0.178,0,0,1-.16-0.1l-1.46-4.061H9.241Zm4.621-1.54c-0.44-1.3-1.7-4.8-2.081-6.161h-0.02c-0.34,1.28-1.3,3.96-2.061,6.161h4.161Z"/>
  <path class="fill" d="M22.26,22c-0.12,0-.12-0.04-0.12-0.12v-10.9a10.235,10.235,0,0,1-2.381.96c-0.1.02-.14-0.02-0.14-0.12v-1.16c0-.08,0-0.12.1-0.14a11.393,11.393,0,0,0,2.761-1.26,0.381,0.381,0,0,1,.28-0.08h0.96c0.06,0,.08.04,0.08,0.12V21.88c0,0.08-.02.12-0.1,0.12H22.26Z"/>
  </svg>