<svg id="S_AudioSubClip_Xl_N_D_2x" data-name="S_AudioSubClip_Xl_N_D@2x" xmlns="http://www.w3.org/2000/svg" width="64" height="64" viewBox="0 0 64 64">
  <defs>
    <style>
      .fill {
        fill: #fff;
        opacity: 0.65;
      }

      .cls-1, .fill {
        fill-rule: evenodd;
      }

      .cls-1, .cls-2 {
        fill: #29d698;
      }

      
    </style>
  </defs>
  <title>S_AudioSubClip_Xl_N_D@2x</title>
  <path class="fill" d="M10,24.373l-8.492,8.71L10,41.647V59a1,1,0,0,0,1,1h2a1,1,0,0,0,1-1V40L7.118,33.059,14,26V5a1,1,0,0,0-1-1H11a1,1,0,0,0-1,1V24.373Z"/>
  <path class="fill" d="M54,24.343V5a1,1,0,0,0-1-1H51a1,1,0,0,0-1,1V26l7,7-7,7V59a1,1,0,0,0,1,1h2a1,1,0,0,0,1-1V41.657L62.657,33Z"/>
  <path class="cls-1" d="M50.2,33.534a7.357,7.357,0,0,0-6.133,3.421v3.227H42.3c-0.514,1.587-.885,3.291-1.3,4.909V33.636H37.408c-0.681,0-4.424,8.212-4.424,8.212l-1.562-.059L31.454,43.5S29.5,48.23,28.918,50c0.014-.016-0.435-8.2-0.435-8.2H27l-0.079-8.145-2.687-.017c-1.074,0-2.663,3.182-3.833,5.924v2.258l-0.032,1.544-1.5.093-0.8-8.182H17V33.636H13.667V32H17V30.364h1.2l0.667-8.182,1.423,0.159L20.4,23.818v2.1C21.662,28.7,23.484,32,25,32h0.6c2.851,0,4.624-19,4.624-19l1.288,7.631h1.365a8.759,8.759,0,0,1,.059,1.646c-0.071.982,0.079,3.1,0.079,3.1l1.5,0.084v1.688s4.272,4.9,4.642,4.9A9.9,9.9,0,0,1,41,32.024h0.024L41,20.545c0.494,1.522.956,1.621,1.587,3.273h1.48v3C45.414,28.881,47.384,32,50.583,32A4.834,4.834,0,0,0,51.8,32v1.534H50.2Z"/>
  <rect class="cls-2" x="16" y="8" width="32" height="3"/>
  <rect class="cls-2" x="16" y="53" width="32" height="3"/>
  </svg>