<svg id="S_AudioSubClip_Sm_N_D_2x" data-name="S_AudioSubClip_Sm_N_D@2x" xmlns="http://www.w3.org/2000/svg" width="32" height="32" viewBox="0 0 32 32">
  <defs>
    <style>
      .cls-1, .cls-2 {
        fill: #29d698;
      }

      .cls-1, .fill {
        fill-rule: evenodd;
      }

      .fill {
        fill: #fff;
        opacity: 0.65;
      }

      
    </style>
  </defs>
  <title>S_AudioSubClip_Sm_N_D@2x</title>
  <path class="cls-1" d="M26,18H24c-2.031,0-3.414,3.174-4,6V18H18c-0.781,0-3.66,5.12-4.441,8,0.02-.027-0.512-8-0.512-8H11.366c-0.82,0-2.749,4.522-2.749,4.522L8,18H6V16H8l0.5-5.652S9.873,16,11.006,16A6.064,6.064,0,0,1,12,16c1.523,0,2.125-10,2.125-10S15.5,16,18,16c-0.078-.054,2,0,2,0V9.175C20.664,11.675,22.4,16,24,16c0.039,0.054,2,0,2,0v2Z"/>
  <path id="Brackets" class="fill" d="M28,29.5V21l4-5-4-5V2.5A0.5,0.5,0,0,0,27.5,2h-1a0.5,0.5,0,0,0-.5.5V12l3.5,4L26,20v9.5a0.5,0.5,0,0,0,.5.5h1A0.5,0.5,0,0,0,28,29.5ZM4,2.5V11L0,16l4,5v8.5a0.5,0.5,0,0,0,.5.5h1A0.5,0.5,0,0,0,6,29.5V20L2.5,16,6,12V2.5A0.5,0.5,0,0,0,5.5,2h-1A0.5,0.5,0,0,0,4,2.5Z"/>
  <rect class="cls-2" x="7" y="4" width="18" height="2"/>
  <rect class="cls-2" x="7" y="26" width="18" height="2"/>
  </svg>