<svg id="S_AudioVolume_Xs_N_D_2x" data-name="S_AudioVolume_Xs_N_D@2x" xmlns="http://www.w3.org/2000/svg" width="26" height="26" viewBox="0 0 26 26">
  <defs>
    <style>
      .fill {
        fill: #fff;
        fill-rule: evenodd;
        opacity: 0.65;
      }

      
    </style>
  </defs>
  <title>S_AudioVolume_Xs_N_D@2x</title>
  <path id="Fill" class="fill" d="M22,4.5v19a0.5,0.5,0,0,0,.5.5h1a0.5,0.5,0,0,0,.5-0.5V4.5A0.5,0.5,0,0,0,23.5,4h-1A0.5,0.5,0,0,0,22,4.5Zm-4,6v13a0.5,0.5,0,0,0,.5.5h1a0.5,0.5,0,0,0,.5-0.5v-13a0.5,0.5,0,0,0-.5-0.5h-1A0.5,0.5,0,0,0,18,10.5ZM2,22.5v1a0.5,0.5,0,0,0,.5.5h1A0.5,0.5,0,0,0,4,23.5v-1A0.5,0.5,0,0,0,3.5,22h-1A0.5,0.5,0,0,0,2,22.5Zm4-2v3a0.5,0.5,0,0,0,.5.5h1A0.5,0.5,0,0,0,8,23.5v-3A0.5,0.5,0,0,0,7.5,20h-1A0.5,0.5,0,0,0,6,20.5Zm4-2v5a0.5,0.5,0,0,0,.5.5h1a0.5,0.5,0,0,0,.5-0.5v-5a0.5,0.5,0,0,0-.5-0.5h-1A0.5,0.5,0,0,0,10,18.5Zm4-4v9a0.5,0.5,0,0,0,.5.5h1a0.5,0.5,0,0,0,.5-0.5v-9a0.5,0.5,0,0,0-.5-0.5h-1A0.5,0.5,0,0,0,14,14.5Z"/>
  </svg>