<svg id="S_AudioTransCG_60x45_N_D_2x" data-name="S_AudioTransCG_60x45_N_D@2x" xmlns="http://www.w3.org/2000/svg" width="120" height="90" viewBox="0 0 120 90">
  <defs>
    <style>
      .cls-1 {
        fill: #29d698;
      }

      .cls-2 {
        fill: #f4c500;
      }

      
    </style>
  </defs>
  <title>S_AudioTransCG_60x45_N_D@2x</title>
  <g>
    <polygon class="cls-1" points="63.055 39 62 39 62 39.782 63.055 39"/>
    <polygon class="cls-1" points="4 49 6 49 6 51 8 51 8 55 10 55 10 47 18 47 18 49 20 49 20 47 24 47 24 57 26 57 26 52 28 52 28 47 30 47 30 51 32 51 32 49 34 49 34 60 34.73 60 36 59.058 36 47 45 47 45 50 47 50 47 49 49 49 49 47 52.265 47 54.962 45 52.265 43 49 43 49 41 47 41 47 40 45 40 45 43 36 43 36 30.942 34.73 30 34 30 34 41 32 41 32 39 30 39 30 43 28 43 28 38 26 38 26 33 24 33 24 43 20 43 20 41 18 41 18 43 10 43 10 35 8 35 8 39 6 39 6 41 4 41 4 43 2 43 2 47 4 47 4 49"/>
    <polygon class="cls-1" points="60 41.265 60 33 58 33 58 38 56 38 56 38.3 60 41.265"/>
    <polygon class="cls-1" points="80.59 26 80 26 80 9 78 4 78 14 76 14 76 4 74 4 74 10 72 10 72 8 70 8 70 14 70 22 68 22 68 16 66 16 66 32 64 32 64 38.3 80.59 26"/>
    <polygon class="cls-1" points="98 13.093 98 13 96 13 96 14.576 98 13.093"/>
    <polygon class="cls-1" points="85.267 22.533 84 20 84 14 82 14 82 24.955 85.267 22.533"/>
    <path class="cls-1" d="M114,39h-2V33h-2v8h-2V27h-2v2h-2V23h-2v8h-2V19.08l-4,2.966V27H94V39.05c-0.659-.692-1.342-2.4-2-3.05V30H90v2.542l-3.46-3.483L65.038,45,86,60.541V56h4v4h2V51.062c0.723-.916,1.405-1.722,2-2.372V61h2v6.955l2,1.483V67h2V59h2v6h2V61h2v2h2V49h2v8h2V51h2V47h4V43h-4V39Z"/>
    <polygon class="cls-1" points="56 52 58 52 58 57 60 57 60 48.735 56 51.7 56 52"/>
    <path class="cls-1" d="M82,65.045v5.869a47.405,47.405,0,0,1,2.033-4.362Z"/>
    <polygon class="cls-1" points="64 51.7 64 58 66 58 66 74 68 74 68 66 70 66 70 72 70 82 72 82 72 76 74 76 74 86 76 86 76 70 78 70 78 74 80 72.46 80 63.563 64 51.7"/>
    <polygon class="cls-1" points="62 50.218 62 51 63.055 51 62 50.218"/>
  </g>
  <polygon class="cls-2" points="2 88 3.68 88 60 46.245 116.32 88 118 88 118 86.755 61.68 45 118 3.245 118 2 116.32 2 60 43.755 3.68 2 2 2 2 3.245 58.32 45 2 86.755 2 88"/>
  <path id="outline2" class="cls-1" d="M2,2H118V88H2V2ZM0,1V89a1,1,0,0,0,1,1H119a1,1,0,0,0,1-1V1a1,1,0,0,0-1-1H1A1,1,0,0,0,0,1Z"/>
  </svg>