<?xml version="1.0" encoding="UTF-8"?>
<svg id="Layer_1" data-name="Layer 1" xmlns="http://www.w3.org/2000/svg" width="36" height="36" viewBox="0 0 36 36">
  <defs>
    <style>
      .cls-1 {
        fill: #b9b9b9;
      }
    </style>
  </defs>
  <path class="cls-1" d="m29.212,32c.2064.00024.40382-.08438.546-.234.14056-.14978.21294-.351.2-.556-.496-5.388-6.018-7.224-7.708-7.37-1.236-.108-1.256-1.102-1.256-2.34,1.59619-1.88811,2.52733-4.24864,2.65-6.718.006-4.07-2.31-6.782-5.644-6.782s-5.648,2.712-5.648,6.782c.12298,2.46893,1.0533,4.82917,2.648,6.718,0,1.238-.02,2.232-1.256,2.34-1.688.15-7.212,1.982-7.708,7.37-.0232.41246.29236.76562.70482.78882.01438.00081.02878.0012.04318.00118h22.428Z"/>
  <path class="cls-1" d="m25.846,19.296c1.01023.36376,1.98224.82598,2.902,1.38l-1.066,1.762c-.80271-.48317-1.65157-.88516-2.534-1.2l.698-1.942Z"/>
  <path class="cls-1" d="m31.916,26.474c-.447-.82674-.99963-1.59182-1.644-2.276l1.498-1.4c.76943.81367,1.42782,1.72559,1.958,2.712l-1.812.964Z"/>
  <path class="cls-1" d="m33.304,31.886c.06772-.93657.01191-1.87799-.166-2.8l2.022-.384c.21229,1.08632.27954,2.196.2,3.3l-2.056-.116Z"/>
  <path class="cls-1" d="m16.646,4.346l-.338-2.03c1.11927-.18494,2.25994-.20112,3.384-.048l-.282,2.038c-.91834-.12182-1.84957-.10834-2.764.04Z"/>
  <path class="cls-1" d="m24.086,6.724c-.64005-.65425-1.3833-1.19884-2.2-1.612l.92-1.84c1.02231.51072,1.95346,1.18644,2.756,2l-1.476,1.452Z"/>
  <path class="cls-1" d="m26.63,11.612c-.19052-.91928-.5026-1.8091-.928-2.646l1.83-.94c.50994.99953.88328,2.06305,1.11,3.162l-2.012.424Z"/>
  <path class="cls-1" d="m28.454,17.764l-2-.498c.23495-.93953.38093-1.8991.436-2.866l2.054.12c-.06186,1.09424-.2259,2.1803-.49,3.244Z"/>
  <path class="cls-1" d="m10.852,21.234c-.88243.31484-1.73129.71683-2.534,1.2l-1.066-1.762c.91976-.55401,1.89177-1.01624,2.902-1.38l.698,1.942Z"/>
  <path class="cls-1" d="m2.264,25.464c.54144-.98134,1.21061-1.88656,1.99-2.692l1.482,1.426c-.65294.67646-1.21439,1.43559-1.67,2.258l-1.802-.992Z"/>
  <path class="cls-1" d="m.586,31.968c-.05422-1.11872.03925-2.23971.278-3.334l2.01.434c-.20093.91895-.27894,1.86051-.232,2.8l-2.056.1Z"/>
  <path class="cls-1" d="m10.448,5.278c.80254-.81356,1.73369-1.48928,2.756-2l.92,1.84c-.82025.41223-1.56693.95686-2.21,1.612l-1.466-1.452Z"/>
  <path class="cls-1" d="m7.358,11.188c.22672-1.09895.60006-2.16247,1.11-3.162l1.83.94c-.4254.8369-.73748,1.72672-.928,2.646l-2.012-.424Z"/>
  <path class="cls-1" d="m7.056,14.528l2.054-.128c.05491.96415.20022,1.92101.434,2.858l-2,.498c-.26244-1.05853-.42581-2.13919-.488-3.228Z"/>
</svg>