<svg id="S_Audio_Sm_N_D_2x" data-name="S_Audio_Sm_N_D@2x" xmlns="http://www.w3.org/2000/svg" width="32" height="32" viewBox="0 0 32 32">
  <defs>
    <style>
      .fill {
        fill: #fff;
        fill-rule: evenodd;
        opacity: 0.65;
      }

      
    </style>
  </defs>
  <title>S_Audio_Sm_N_D@2x</title>
  <path class="fill" d="M2,11a1,1,0,0,1,1-1H9l7.336-6.521A1,1,0,0,1,18,4.227V27.773a1,1,0,0,1-1.664.747L9,22H3a1,1,0,0,1-1-1V11Z"/>
  <path class="fill" d="M21,12.54v1.014a0.485,0.485,0,0,0,.382.482,2,2,0,0,1,0,3.927,0.485,0.485,0,0,0-.382.482V19.46a0.509,0.509,0,0,0,.588.5,4,4,0,0,0,0-7.914A0.509,0.509,0,0,0,21,12.54Z"/>
  <path class="fill" d="M21,7.521v1a0.5,0.5,0,0,0,.479.494,7,7,0,0,1,0,13.968,0.5,0.5,0,0,0-.479.494v1a0.5,0.5,0,0,0,.522.506,9,9,0,0,0,0-17.97A0.5,0.5,0,0,0,21,7.521Z"/>
  </svg>