<?xml version="1.0" encoding="UTF-8"?>
<svg id="Icons" xmlns="http://www.w3.org/2000/svg" width="32" height="32" viewBox="0 0 32 32">
  <defs>
    <style>
      .fill {
        fill: #fff;
        opacity: .65;
      }
    </style>
  </defs>
  <path class="fill" d="m29,14h-7V3c0-.552-.448-1-1-1H1c-.552,0-1,.448-1,1v20c0,.552.448,1,1,1h5v7c0,.552.448,1,1,1h22c.552,0,1-.448,1-1V15c0-.552-.448-1-1-1Zm-25,7.5c0,.276-.224.5-.5.5h-1c-.276,0-.5-.224-.5-.5v-1c0-.276.224-.5.5-.5h1c.276,0,.5.224.5.5v1Zm0-4c0,.276-.224.5-.5.5h-1c-.276,0-.5-.224-.5-.5v-1c0-.276.224-.5.5-.5h1c.276,0,.5.224.5.5v1Zm0-4c0,.276-.224.5-.5.5h-1c-.276,0-.5-.224-.5-.5v-1c0-.276.224-.5.5-.5h1c.276,0,.5.224.5.5v1Zm0-4c0,.276-.224.5-.5.5h-1c-.276,0-.5-.224-.5-.5v-1c0-.276.224-.5.5-.5h1c.276,0,.5.224.5.5v1Zm0-4c0,.276-.224.5-.5.5h-1c-.276,0-.5-.224-.5-.5v-1c0-.276.224-.5.5-.5h1c.276,0,.5.224.5.5v1Zm14-1c0-.276.224-.5.5-.5h1c.276,0,.5.224.5.5v1c0,.276-.224.5-.5.5h-1c-.276,0-.5-.224-.5-.5v-1Zm0,4c0-.276.224-.5.5-.5h1c.276,0,.5.224.5.5v1c0,.276-.224.5-.5.5h-1c-.276,0-.5-.224-.5-.5v-1Zm0,4c0-.276.224-.5.5-.5h1c.276,0,.5.224.5.5v1c0,.276-.224.5-.5.5h-1c-.276,0-.5-.224-.5-.5v-1Zm-11.5,1.5c-.276,0-.5-.224-.5-.5v-1c0-.276.224-.5.5-.5h9c.276,0,.5.224.5.5v1c0,.276-.224.5-.5.5H6.5Zm9.83,16h-8.33v-6.251h2.938l.6,3.533s1.869-3.533,2.664-3.533h1.628s.515,6.229.5,6.251c.757-2.251,3.548-6.251,4.3-6.251l1.48.028v4.688c.568-2.208,1.518-4.688,3.486-4.688l2.4-.028v6.251h-11.666Zm11.67-7.813s-2.365.071-2.4.028c-1.552,0-2.509-3.151-3.153-5.1l-.333,5.1s-1.556-.071-1.48-.028c-2.423,0-3.756-6.187-3.756-6.187,0,0-.583,6.187-2.06,6.187-.321-.021-.643-.021-.964,0-1.1,0-2.428-4.416-2.428-4.416l-.485,4.416h-2.941v-6.187h20v6.187Z"/>
</svg>