<svg id="S_AudioMeter_Xs_N_D_2x" data-name="S_AudioMeter_Xs_N_D@2x" xmlns="http://www.w3.org/2000/svg" width="26" height="26" viewBox="0 0 26 26">
  <defs>
    <style>
      .fill {
        fill: #fff;
        fill-rule: evenodd;
        opacity: 0.65;
      }

      
    </style>
  </defs>
  <title>S_AudioMeter_Xs_N_D@2x</title>
  <path class="fill" d="M11,22h2a1,1,0,0,0,1-1V18H10v3A1,1,0,0,0,11,22Z"/>
  <path class="fill" d="M10,7V17h4V7a1,1,0,0,0-1-1H11A1,1,0,0,0,10,7Z"/>
  <path class="fill" d="M4,11v4H8V11a1,1,0,0,0-1-1H5A1,1,0,0,0,4,11Z"/>
  <path class="fill" d="M5,22H7a1,1,0,0,0,1-1V16H4v5A1,1,0,0,0,5,22Z"/>
  <path id="Fill4" class="fill" d="M18,18.5v1a0.5,0.5,0,0,0,.5.5h1a0.5,0.5,0,0,0,.5-0.5v-1a0.5,0.5,0,0,0-.5-0.5h-1A0.5,0.5,0,0,0,18,18.5Zm0-16v1a0.5,0.5,0,0,0,.5.5h1A0.5,0.5,0,0,0,20,3.5v-1A0.5,0.5,0,0,0,19.5,2h-1A0.5,0.5,0,0,0,18,2.5Zm0,8v1a0.5,0.5,0,0,0,.5.5h1a0.5,0.5,0,0,0,.5-0.5v-1a0.5,0.5,0,0,0-.5-0.5h-1A0.5,0.5,0,0,0,18,10.5Zm0-4v1a0.5,0.5,0,0,0,.5.5h3A0.5,0.5,0,0,0,22,7.5v-1A0.5,0.5,0,0,0,21.5,6h-3A0.5,0.5,0,0,0,18,6.5Zm0,8v1a0.5,0.5,0,0,0,.5.5h3a0.5,0.5,0,0,0,.5-0.5v-1a0.5,0.5,0,0,0-.5-0.5h-3A0.5,0.5,0,0,0,18,14.5Zm0,8v1a0.5,0.5,0,0,0,.5.5h3a0.5,0.5,0,0,0,.5-0.5v-1a0.5,0.5,0,0,0-.5-0.5h-3A0.5,0.5,0,0,0,18,22.5Z"/>
  </svg>