<svg id="S_AudioTrack16_10x10_N_D_2x" data-name="S_AudioTrack16_10x10_N_D@2x" xmlns="http://www.w3.org/2000/svg" width="20" height="20" viewBox="0 0 20 20">
  <defs>
    <style>
      .fill {
        fill: #fff;
        fill-rule: evenodd;
        opacity: 0.65;
      }

      
    </style>
  </defs>
  <title>S_AudioTrack16_10x10_N_D@2x</title>
  <path class="fill" d="M4.212,18c-0.132,0-.132-0.044-0.132-0.132V5.876A11.279,11.279,0,0,1,1.462,6.933C1.352,6.955,1.308,6.91,1.308,6.8V5.524c0-.088,0-0.132.11-0.154A12.511,12.511,0,0,0,4.455,3.984,0.419,0.419,0,0,1,4.763,3.9H5.819c0.066,0,.088.044,0.088,0.132v13.84c0,0.088-.022.132-0.11,0.132H4.212Z"/>
  <path class="fill" d="M16.479,5.26c0,0.066,0,.11-0.088.11C13.442,5.9,11.11,7.548,10.274,10.1A5.318,5.318,0,0,1,13.4,9.089a4.164,4.164,0,0,1,4.313,4.422,4.552,4.552,0,0,1-4.774,4.709c-3.1,0-4.907-2.442-4.907-5.611,0-4.775,3.7-8.119,8.361-8.845,0.088,0,.088.066,0.088,0.132V5.26Zm-6.557,6.4a8.278,8.278,0,0,0-.066.968c0,2.464,1.3,3.96,3.146,3.96A2.766,2.766,0,0,0,15.841,13.6a2.779,2.779,0,0,0-2.948-3.015A4.738,4.738,0,0,0,9.922,11.663Z"/>
  </svg>