<?xml version="1.0" encoding="UTF-8"?>
<svg id="icons" xmlns="http://www.w3.org/2000/svg" width="120" height="90" viewBox="0 0 120 90">
  <defs>
    <style>
      .cls-1 {
        fill-rule: evenodd;
      }

      .cls-1, .cls-2 {
        fill: #f4c500;
      }

      .cls-1, .cls-2, .cls-3 {
        stroke-width: 0px;
      }

      .cls-3 {
        fill: #29d698;
      }
    </style>
  </defs>
  <g>
    <polygon class="cls-1" points="56.28769 27.48741 58.93934 26.24998 57.52512 24.83579 56.28769 27.48741"/>
    <path class="cls-1" d="m64.94975,18.82535c-2.73368-2.73364-7.16581-2.73364-9.89949,0-2.73367,2.73371-2.73367,7.16584,0,9.89949,2.73368,2.73371,7.16581,2.73371,9.89949,0,2.73368-2.73365,2.73368-7.16578,0-9.89949Zm-.70709,2.82843l-4.94981,4.94971c-.05759.05762-.12839.10034-.20624.12427l-3.09186,1.35578c-.18308.04578-.34894-.12012-.30316-.30322l1.35568-3.09186c.02401-.07788.06668-.14868.12427-.2063l4.94977-4.94971c.19528-.19519.51187-.19519.70713,0l1.41422,1.41425c.19525.19525.19525.51184,0,.70709Z"/>
    <path class="cls-2" d="m51.98933,28.86768c-16.09155,12.74121-33.03851,31.10645-49.98932,57.29346v1.83887h1.19l.125-.19287c16.95135-26.30322,33.87482-44.67627,49.91559-57.37158-.4679-.47559-.88123-1.00293-1.24127-1.56787Z"/>
    <path class="cls-2" d="m67.56385,18.04395c.40277.53076.75012,1.10352,1.03552,1.71338,18.70593-11.23291,35.69086-15.13623,49.40063-15.72949v-2c-13.99774.5918-31.34705,4.55127-50.43616,16.01611Z"/>
    <path class="cls-2" d="m52.38148,18.11719C33.32459,6.64404,15.99671,2.65332,2.00001,2.03516v2c13.71222.62109,30.67755,4.55713,49.36053,15.80566.27966-.61328.62311-1.18896,1.02094-1.72363Z"/>
    <path class="cls-2" d="m67.95423,28.96045c-.36597.56006-.78546,1.08154-1.25806,1.55127,16.00983,12.69287,32.89935,31.0459,49.81885,57.29541l.11798.19287h1.19l.177-.11426v-1.45361c-16.96741-26.27002-33.9342-44.69434-50.04578-57.47168Z"/>
  </g>
  <g>
    <path class="cls-3" d="m114.00001,43v-4h-2v-6h-2v8h-2v-14h-2v2h-2v-6h-2v8h-2v-12h-2v-6h-2v14h-2v12.0498c-.659-.69189-1.34198-2.3999-2-3.0498v-6h-2v2.54199l-4-4.02686v-4.51514l-2-4v-5.38379c-.66101.28564-1.33197.59961-2,.8999v10.48389h-2v-9.55518c-3.26801,1.56494-6.59998,3.34912-10,5.3833v.17188h-.29999c-.11243.06787-.22681.14404-.33936.21191.08453.50977.13934,1.0293.13934,1.56299,0,1.0127-.1618,1.98682-.4552,2.90186,8.71429,6.90576,16.81219,14.55859,24.18921,22.88428.26697-.31201.52502-.60693.76599-.87109v1.7251c2.422,2.7251,4.85199,5.57715,7.28802,8.58496h.71198v.89014c.66602.82959,1.33301,1.6748,2,2.52686v-1.41699h2v2h2v-14h2v8h2v-6h2v-4h4v-4h-4Z"/>
    <path class="cls-3" d="m64.6197,32.07275c-.20123.1123-.40973.2124-.61969.31006v6.61719h-2v4h-2v-9.7251c-.68658,0-1.35474-.07666-2-.21484v4.93994h-2v5h-7v-2h-2v-1h-1.14502c-.28497.25977-.57001.52393-.85498.78711v2.21289h-2.35699c-1.34735,1.28857-2.69934,2.62207-4.05603,4h6.41302v3h2v-1h2v-2h7v5h2v5h2v-10h2v4h2v7h2v16h2v-8h2v16h2v-6h2v10h2v-16h2v4l2-1.54004v-12.45996h2v10.91406c1.05994-2.65674,2.40088-5.19238,4-7.56396v-7.3501h3.62299c-7.58209-8.72656-15.95239-16.73535-25.0033-23.92725Z"/>
    <path class="cls-3" d="m66.12801,16h-.128v.077l.128-.077Z"/>
    <path class="cls-3" d="m34.00001,51.793v8.207h2v-10.333c-.666.7-1.332,1.405-2,2.126Z"/>
    <path class="cls-3" d="m79.91201,8.779l-1.912-4.779v5.648c.64-.299,1.276-.585,1.912-.869Z"/>
    <path class="cls-3" d="m76.00001,10.607v-6.607h-2v6h-2v-2h-2v5.752c2.02067-1.12733,4.02067-2.17567,6-3.145Z"/>
    <path class="cls-3" d="m4.00001,49h2v2h2v4h2v-8h8v2h2v-2h4v5.491c1.336-1.539,2.669-3.047,4-4.5v-.991h.916c2.37133-2.562,4.73267-4.99333,7.084-7.294v-9.706h-2v11h-2v-2h-2v4h-2v-5h-2v-5h-2v10h-4v-2h-2v2h-8v-8h-2v4h-2v2h-2v2h-2v4h2v2Z"/>
    <path class="cls-3" d="m96.00001,63.581v11.419h2v-8h.707c-.907-1.157-1.807-2.3-2.707-3.419Z"/>
    <path class="cls-3" d="m90.00001,56.437v3.563h2v-1.233c-.667-.784-1.334-1.567-2-2.33Z"/>
    <path id="outline2" class="cls-3" d="m2.00001,2h116v86H2.00001V2ZM0,1v88c0,.55228.44772,1,1,1h118c.55228,0,1-.44772,1-1V1c0-.55228-.44772-1-1-1H1.00001C.44772,0,0,.44772,0,1Z"/>
  </g>
</svg>