<svg id="S_AutomateTimeline_Wi_N_D_2x" data-name="S_AutomateTimeline_Wi_N_D@2x" xmlns="http://www.w3.org/2000/svg" width="52" height="24" viewBox="0 0 52 24">
  <defs>
    <style>
      .fill {
        fill: #fff;
        fill-rule: evenodd;
        opacity: 0.65;
      }

      
    </style>
  </defs>
  <title>S_AutomateTimeline_Wi_N_D@2x</title>
  <path id="Fill" class="fill" d="M10,5V19a1,1,0,0,0,1,1h8a1,1,0,0,0,1-1V5a1,1,0,0,0-1-1H11A1,1,0,0,0,10,5ZM22,7V19a1,1,0,0,0,1,1h6a1,1,0,0,0,1-1V7a1,1,0,0,0-1-1H23A1,1,0,0,0,22,7ZM32,7V19a1,1,0,0,0,1,1h2a1,1,0,0,0,1-1V7a1,1,0,0,0-1-1H33A1,1,0,0,0,32,7Zm6,2V19a1,1,0,0,0,1,1h0a1,1,0,0,0,1-1V9a1,1,0,0,0-1-1h0A1,1,0,0,0,38,9Z"/>
  </svg>