<svg id="S_AudioTransitionShort_Sm_N_D_2x" data-name="S_AudioTransitionShort_Sm_N_D@2x" xmlns="http://www.w3.org/2000/svg" width="32" height="32" viewBox="0 0 32 32">
  <defs>
    <style>
      .fill {
        fill: #fff;
        fill-rule: evenodd;
        opacity: 0.65;
      }

      
    </style>
  </defs>
  <title>S_AudioTransitionShort_Sm_N_D@2x</title>
  <path class="fill" d="M12.5,14h3.48l3.167-3.152A.5.5,0,0,1,20,11.2V20.8a.5.5,0,0,1-.853.354L15.98,18H12.5a.5.5,0,0,1-.5-.5v-3A.5.5,0,0,1,12.5,14Z"/>
  <path id="Fill" class="fill" d="M.5,18H8v7.5a.5.5,0,0,1-.5.5h-1a.5.5,0,0,1-.5-.5V24L5,23s-5.244,2.875-.744,8.625C-4.369,26.75,3,21,3,21L2,20H.5a.5.5,0,0,1-.5-.5v-1A.5.5,0,0,1,.5,18Z"/>
  <path class="fill" d="M27,4H5A1,1,0,0,0,4,5V16h6V14.5A2.5,2.5,0,0,1,12.5,12h2.655l2.582-2.569A2.481,2.481,0,0,1,19.5,8.7h0a2.506,2.506,0,0,1,2.295,1.507L26,6V26H10v2H27a1,1,0,0,0,1-1V5A1,1,0,0,0,27,4Z"/>
  </svg>