<?xml version="1.0" encoding="UTF-8"?>
<svg id="icons" xmlns="http://www.w3.org/2000/svg" width="120" height="90" viewBox="0 0 120 90">
  <defs>
    <style>
      .yellow {
        fill: #f4c500;
      }

      .yellow, .cls-1 {
        stroke-width: 0px;
      }

      .cls-1 {
        fill: #29d698;
      }
    </style>
  </defs>
  <path class="yellow" d="m2.00001,85.993v2c15.82-.699,35.894-5.698,57.912-20.95,22.1,15.308,42.241,20.287,58.088,20.957v-2c-15.388-.666-34.9-5.493-56.343-20.185,17.955-12.819,37.149-32.502,56.343-62.219v-1.454l-.17699-.114h-1.19l-.118.193c-19.328,29.986-38.617,49.668-56.6,62.378C41.929,51.889,22.64001,32.207,3.31501,2.221l-.125-.193h-1.19v1.839c19.135,29.561,38.266,49.161,56.166,61.948-21.366,14.635-40.806,19.482-56.166,20.178Z"/>
  <path class="cls-1" d="m42.62153,47h2.37848v2.23242c.27527.25391.54932.51611.82507.76758h1.17493v-1h1.72729l.27271-.20215v-1.79785h7v5h2v5h2v-10h2v4h2v7h.55792c9.39191-7.37842,18.56403-16.31543,27.45813-26.75781v-1.22607h-.01605v-.01611h-2v2.5415l-3.10327-3.12451-.00049.00049-.88019-.88623v-4.51514l-2-4-.01605-5.69336v-.32275h-2v10.33203l.01373-.01025.00232,1.69434h-2V9.33887l-.01605-.04004v-.29883l-2-5v10h-1.98395V4.33887h-.01605v-.33887h-2v6h-1.98395v-1.66113h-.01605v-.33887h-2v14h-1.98395v-5.66113h-.01605v-.33887h-2v14h-2v9h-2v4h-2v-10h-2v5h-2v5h-7v-2h-2v-1h-2v3h-6.44275c1.349,1.36865,2.70428,2.69873,4.06427,4Z"/>
  <path class="cls-1" d="m95.54499,27h-1.54498v1.88037c.51599-.62158,1.03088-1.24854,1.54498-1.88037Z"/>
  <path class="cls-1" d="m100.01606,21.33936v-2.32324h-2v-6h-2v9.64014l-.01605.01172v3.7666c1.34546-1.66357,2.68408-3.3623,4.01605-5.09521Z"/>
  <path class="cls-1" d="m36.00001,40.34766v-10.34766h-2v8.20996c.66547.71924,1.3316,1.43506,2,2.1377Z"/>
  <path class="cls-1" d="m70.00001,76.28418v5.71582h2v-4.62891c-.66718-.35742-1.33429-.71484-2-1.08691Z"/>
  <path class="cls-1" d="m74.00001,78.43408v7.56592h2v-6.57715c-.66687-.32715-1.33441-.64697-2-.98877Z"/>
  <path class="cls-1" d="m66.00001,73.95361v.04639h.07581c-.02527-.01514-.05054-.03125-.07581-.04639Z"/>
  <path class="cls-1" d="m119.00001,0H1.00001C.4477,0,0,.44775,0,1v88c0,.55225.44769,1,1,1h118c.55231,0,1-.44775,1-1V1c0-.55225-.44769-1-1-1ZM2.00001,88v-41h2v2h2v2h2v4h2v-8h8v2h2v-2h4v10h2v-5h2v-5h2v4h2v-2h2v10.91846h2v-9.58789c-2.3877-2.34326-4.75677-4.78955-7.10809-7.33057h-.89191v-.979c-1.33954-1.46484-2.67285-2.96143-4-4.48975v5.46875h-4v-2h-2v2h-8v-8h-2v4h-2v2h-2v2h-2V2h116v41h-3.98395v-3.98389h-.01605v-.01611h-1.98395v-5.98389h-.01605v-.01611h-2v8h-1.98395v-13.98389h-.01605v-.01611h-2v2h-1.98395v-1.38623c-.66919.85449-1.34332,1.68506-2.01605,2.52246v.86377h-.69104c-11.31482,13.9668-23.11627,25.5918-35.289,34.71973.65887.42725,1.31976.83301,1.98004,1.24512v-.96484h2v2.19189c1.99438,1.1958,3.99426,2.32812,6,3.38574v-1.57764h2v2.60205c.36566.18408.73083.37402,1.0968.55322l.9032-.69531v-12.45996h2v10.91406c.23596-.59131.49084-1.17432.75439-1.75342.05688-.12549.11481-.25195.17737-.38623.00122-.00293.00262-.00537.00378-.00781.39502-.84326.82806-1.66797,1.27972-2.48242.09863-.17725.19739-.35449.29871-.53027.46936-.81641.95874-1.62207,1.48602-2.40381v-7.3501h4v4h2v-8.93799c.42999-.54541.84271-1.04492,1.23419-1.50244.00525.00586.01062.01172.01587.01758.26135-.30566.51324-.59277.74994-.85303v12.27588h2v14h2v-8h2v-8h1.29083l.01318.01611h.69598v5.98389h2v-2.58691c.00537.00684.01068.01318.01605.02002v-1.41699h1.98395v1.98389h.01605v.01611h2v-14h1.98395v7.98389h.01605v.01611h2v-6h2v-4h3.98395v40.98389H2.00001Z"/>
</svg>