<svg id="S_AudioTrack51_10x10_N_D_2x" data-name="S_AudioTrack51_10x10_N_D@2x" xmlns="http://www.w3.org/2000/svg" width="20" height="20" viewBox="0 0 20 20">
  <defs>
    <style>
      .fill {
        fill: #fff;
        fill-rule: evenodd;
        opacity: 0.65;
      }

      
    </style>
  </defs>
  <title>S_AudioTrack51_10x10_N_D@2x</title>
  <path class="fill" d="M4.626,5.635c-0.242.813-.682,2.617-0.836,3.277,4.555,0.463,6.557,2.068,6.557,4.863,0,2.6-1.98,4.445-5.1,4.445a7.4,7.4,0,0,1-3.366-.683,0.232,0.232,0,0,1-.088-0.22V15.8a0.078,0.078,0,0,1,.11-0.088,6.813,6.813,0,0,0,3.344.858c2.376,0,3.257-1.343,3.257-2.663,0-2.068-1.76-3.169-6.315-3.542a0.124,0.124,0,0,1-.154-0.133L2.008,9.484c0.088-.4,1.408-5.258,1.43-5.368,0.044-.11.066-0.132,0.154-0.132H9.819c0.088,0,.132.022,0.088,0.132L9.511,5.5a0.155,0.155,0,0,1-.176.133H4.626Z"/>
  <path class="fill" d="M11.823,17.01a1.144,1.144,0,0,1,1.188-1.187,1.126,1.126,0,0,1,1.167,1.188,1.11,1.11,0,0,1-1.167,1.211A1.127,1.127,0,0,1,11.823,17.01Z"/>
  <path class="fill" d="M16.215,18c-0.132,0-.132-0.044-0.132-0.132V5.877a11.32,11.32,0,0,1-2.619,1.056c-0.11.022-.154-0.022-0.154-0.132V5.524c0-.089,0-0.132.11-0.154a12.493,12.493,0,0,0,3.037-1.386A0.419,0.419,0,0,1,16.765,3.9h1.056c0.066,0,.088.044,0.088,0.132v13.84c0,0.088-.022.132-0.11,0.132H16.215Z"/>
  </svg>