<svg id="S_AudioVideoSubClip_48x48_N_D_2x" data-name="S_AudioVideoSubClip_48x48_N_D@2x" xmlns="http://www.w3.org/2000/svg" width="96" height="96" viewBox="0 0 96 96">
  <defs>
    <style>
      .fill {
        fill: #fff;
        opacity: 0.65;
      }

      .cls-2, .fill {
        fill-rule: evenodd;
      }

      .cls-1 {
        fill: #a690e0;
      }

      .cls-2 {
        fill: #29d698;
      }

      
    </style>
  </defs>
  <title>S_AudioVideoSubClip_48x48_N_D@2x</title>
  <path id="Fill" class="fill" d="M15,6H13a1,1,0,0,0-1,1V38L0,49,12,60V89a1,1,0,0,0,1,1h2a1,1,0,0,0,1-1V58L6,49l10-9V7A1,1,0,0,0,15,6ZM80,7V40l9.8,8.8L80,58V89a1,1,0,0,0,1,1h2a1,1,0,0,0,1-1V60L96,49,84,38V7a1,1,0,0,0-1-1H81A1,1,0,0,0,80,7Z"/>
  <path class="cls-1" d="M58.857,6H20V36H52.5a0.5,0.5,0,0,1-.5-0.5v-3a0.5,0.5,0,0,1,.5-0.5h3a0.5,0.5,0,0,1,.5.5v3a0.5,0.5,0,0,1-.5.5H60V7.143A1.143,1.143,0,0,0,58.857,6ZM56,27.5a0.5,0.5,0,0,1-.5.5h-3a0.5,0.5,0,0,1-.5-0.5v-3a0.5,0.5,0,0,1,.5-0.5h3a0.5,0.5,0,0,1,.5.5v3Zm0-8a0.5,0.5,0,0,1-.5.5h-3a0.5,0.5,0,0,1-.5-0.5v-3a0.5,0.5,0,0,1,.5-0.5h3a0.5,0.5,0,0,1,.5.5v3Zm0-8a0.5,0.5,0,0,1-.5.5h-3a0.5,0.5,0,0,1-.5-0.5v-3A0.5,0.5,0,0,1,52.5,8h3a0.5,0.5,0,0,1,.5.5v3Z"/>
  <path class="cls-1" d="M11.562,49L20,56.939V70h8V40H21Z"/>
  <path class="cls-2" d="M76,86H65V76l2-4h0.99l1-1.95L69,72v2h2V66.36C71.795,65,72.471,64,72.75,64H77V62.061H75.031S72.646,59.938,71,58.22V52H69l-0.024,4.076V54.012l-1.961-.1a36.211,36.211,0,0,1-.1-3.792,10.066,10.066,0,0,0-.077-2.012h-1.78L64,40H76V38H31a1,1,0,0,0-1,1V87a1,1,0,0,0,1,1H76V86ZM53,54v2H51v4.9a25.639,25.639,0,0,1-4-6.33V52l-0.144-1.806L45,50v2H43v8H41l-2,2H32v2h7l2,2h2v6h2v4l1.959-.114L47,74V71.24c1.194-2.62,2.721-5.568,4-6.73V70h2v2h2V64.01l4,0.01V66h0.09l0.084,7.976h1.935L61,84h2v2H32V40H63.368s-0.164,1.629-.488,4H61v8H59v8.52c-0.514.927-1.068,1.48-1.656,1.48H55V54H53Z"/>
  </svg>