<?xml version="1.0" encoding="UTF-8"?>
<svg id="ICONS" xmlns="http://www.w3.org/2000/svg" width="32" height="32" viewBox="0 0 32 32">
  <defs>
    <style>
      .cls-1 {
        fill: #a690e0;
      }

      .cls-1, .cls-2 {
        fill-rule: evenodd;
      }

      .fill {
        fill: #fff;
        opacity: .65;
      }

      .cls-2 {
        fill: #29d698;
      }
    </style>
  </defs>
  <path class="cls-1" d="M6,15c0-.55229.44772-1,1-1h-.5c-.27614,0-.5-.22386-.5-.5v-1c0-.27614.22386-.5.5-.5h9c.27614,0,.5.22386.5.5v1c0,.27614-.22386.5-.5.5h3c-.27614,0-.5-.22386-.5-.5v-1c0-.27614.22386-.5.5-.5h1c.27614,0,.5.22386.5.5v1c0,.27614-.22386.5-.5.5h2.5V3c0-.55228-.44772-1-1-1H1c-.55228,0-1,.44772-1,1v20c0,.55228.44772,1,1,1h5v-9ZM18,4.5c0-.27614.22386-.5.5-.5h1c.27614,0,.5.22386.5.5v1c0,.27614-.22386.5-.5.5h-1c-.27614,0-.5-.22386-.5-.5v-1ZM18,8.5c0-.27614.22386-.5.5-.5h1c.27614,0,.5.22386.5.5v1c0,.27614-.22386.5-.5.5h-1c-.27614,0-.5-.22386-.5-.5v-1ZM4,21.5c0,.27614-.22386.5-.5.5h-1c-.27614,0-.5-.22386-.5-.5v-1c0-.27614.22386-.5.5-.5h1c.27614,0,.5.22386.5.5v1ZM4,17.5c0,.27614-.22386.5-.5.5h-1c-.27614,0-.5-.22386-.5-.5v-1c0-.27614.22386-.5.5-.5h1c.27614,0,.5.22386.5.5v1ZM4,13.5c0,.27614-.22386.5-.5.5h-1c-.27614,0-.5-.22386-.5-.5v-1c0-.27614.22386-.5.5-.5h1c.27614,0,.5.22386.5.5v1ZM4,9.5c0,.27614-.22386.5-.5.5h-1c-.27614,0-.5-.22386-.5-.5v-1c0-.27614.22386-.5.5-.5h1c.27614,0,.5.22386.5.5v1ZM4,5.5c0,.27614-.22386.5-.5.5h-1c-.27614,0-.5-.22386-.5-.5v-1c0-.27614.22386-.5.5-.5h1c.27614,0,.5.22386.5.5v1Z"/>
  <g>
    <path class="cls-2" d="M22.31091,19.2002h.86011c-.27759-.72363-.51892-1.46387-.724-2.08496l-.13611,2.08496Z"/>
    <path class="cls-2" d="M16.32996,30h-8.32996v-6.25098h2.93799l.59998,3.5332s1.86902-3.5332,2.66406-3.5332h1.62793s.51501,6.22949.5,6.25098c.48267-1.43555,1.78931-3.57227,2.87-4.93945v-3.64844c-1.5072-1.65625-2.3219-5.41211-2.3219-5.41211,0,0-.58301,6.1875-2.06006,6.1875-.32092-.02148-.64307-.02148-.96399,0-1.09998,0-2.42798-4.41602-2.42798-4.41602l-.48499,4.41602h-2.94104v-6.1875h20v3.2002h2v-4.2002c0-.55273-.44775-1-1-1H7c-.55225,0-1,.44727-1,1v16c0,.55273.44775,1,1,1h12.19995v-2h-2.87Z"/>
  </g>
  <rect class="fill" x="28" y="28" width="4" height="4" rx=".5" ry=".5"/>
  <rect class="fill" x="22" y="28" width="4" height="4" rx=".5" ry=".5"/>
  <rect class="fill" x="28" y="22" width="4" height="4" rx=".5" ry=".5"/>
  <rect class="fill" x="22" y="22" width="4" height="4" rx=".5" ry=".5"/>
</svg>