<?xml version="1.0" encoding="UTF-8"?>
<svg id="icons" xmlns="http://www.w3.org/2000/svg" width="120" height="90" viewBox="0 0 120 90">
  <defs>
    <style>
      .yellow {
        fill: #f4c500;
      }

      .yellow, .cls-1 {
        stroke-width: 0px;
      }

      .cls-1 {
        fill: #29d698;
      }
    </style>
  </defs>
  <path class="yellow" d="m61.65735,65.81396c21.44611,14.69165,40.95477,19.5188,56.34265,20.18481v2.00122c-15.84692-.67017-35.98828-5.64941-58.08838-20.95728l-1.74573-1.22876C40.26617,53.03149,21.13531,33.43066,2,3.86646v-1.83936h1.18976l.12469.19336c19.32532,29.98608,38.61401,49.66846,56.59717,62.37817l1.74573,1.21533Z"/>
  <path class="cls-1" d="m28.00001,38h-.28741c.09583.10791.19159.21484.28741.32227v-.32227Z"/>
  <path class="cls-1" d="m119.00001,0H1.00001C.4477,0,0,.44775,0,1v88c0,.55225.44769,1,1,1h118c.55231,0,1-.44775,1-1V1c0-.55225-.44769-1-1-1ZM2.00001,88v-41h2v2h2v2h2v4h2v-8h8v2h2v-2h4v10h2v-5h2v-5h2v4h2v-2h2v10.91846h2v-9.60205c-2.38428-2.33984-4.75073-4.7793-7.09888-7.31641h-.90112v-.97021c-1.33905-1.46436-2.67334-2.95264-4-4.48047v5.45068h-4v-2h-2v2h-8v-8h-2v4h-2v2h-2v2h-2V2h116v41h-3.98395v-3.98389h-.01605v-.01611h-1.98395v-5.98389h-.01605v-.01611h-2v8h-1.98395v-13.98389h-.01605v-.01611h-2v2h-1.98395v-5.98389h-.01605v-.01611h-2v8h-1.98395v-11.98389h-2v-6h-2v9.64014l-.01605.01172v4.33203h-2v12.04639c-.01501-.01611-.03009-.03809-.0451-.05518-.16168-.19531-.47406-.69336-.81274-1.24316-.37744-.6665-.75574-1.36621-1.1261-1.73193v-6h-.01605v-.01611h-2v2.5415l-3.10327-3.12451-.00049.00049-.88019-.88623v-4.51514l-2-4-.01605-5.69336v-.32275h-2v10.33203l.01373-.01025.00232,1.69434h-2V9.33887l-.01605-.04004v-.29883l-2-5v10h-1.98395V4.33887h-.01605v-.33887h-2v6h-1.98395v-1.66113h-.01605v-.33887h-2v14h-1.98395v-5.66113h-.01605v-.33887h-2v14h-2v9h-2v4h-2v-10h-2v5h-2v5h-7v-2h-2v-1h-2v3h-6.42987c1.34534,1.36475,2.69513,2.70215,4.05139,4h2.37848v2.22559c.27924.25781.55792.51904.83759.77441h1.16241v-1h1.72729l.27271-.20215v-1.79785h7v5h2v5h2v-10h2v4h2v7h2v7.69678c.66565.43213,1.33289.84717,2,1.26318v-.95996h2v2.19775c1.99408,1.1958,3.99463,2.31543,6,3.37305v-1.5708h2v2.5957c.36871.18555.73737.37109,1.10645.55225l.89355-.68799v-12.45996h2v10.91406c.23596-.59131.49084-1.17432.75439-1.75342.05688-.12549.11481-.25195.17737-.38623.00122-.00293.00262-.00537.00378-.00781.39502-.84326.82806-1.66797,1.27972-2.48242.09863-.17725.19739-.35449.29871-.53027.46936-.81641.95874-1.62207,1.48602-2.40381v-7.3501h4v4h2v-8.93799c.42999-.54541.84271-1.04492,1.23419-1.50244.00525.00586.01062.01172.01587.01758.26135-.30566.51324-.59277.74994-.85303v12.27588h2v14h2v-8h2v-8h1.29083l.01318.01611h.69598v5.98389h2v-2.58691c.00537.00684.01068.01318.01605.02002v-1.41699h1.98395v1.98389h.01605v.01611h2v-14h1.98395v7.98389h.01605v.01611h2v-6h2v-4h3.98395v40.98389H2.00001Z"/>
  <path class="cls-1" d="m74.00001,78.4209v7.5791h2v-6.57275c-.66742-.32764-1.33392-.66455-2-1.00635Z"/>
  <path class="cls-1" d="m70.00001,76.28174v5.71826h2v-4.62891c-.66718-.35742-1.33417-.71729-2-1.08936Z"/>
  <path class="cls-1" d="m66.00001,73.96191v.03809h.06531c-.02173-.01318-.04358-.02539-.06531-.03809Z"/>
  <path class="cls-1" d="m36.00001,40.36279v-10.36279h-2v8.20898c.66632.72021,1.33087,1.4502,2,2.15381Z"/>
</svg>