<?xml version="1.0" encoding="UTF-8"?>
<svg id="icons" xmlns="http://www.w3.org/2000/svg" width="120" height="90" viewBox="0 0 120 90">
  <defs>
    <style>
      .cls-1 {
        fill-rule: evenodd;
      }

      .cls-1, .yellow {
        fill: #f4c500;
      }

      .cls-1, .yellow, .cls-2 {
        stroke-width: 0px;
      }

      .cls-2 {
        fill: #29d698;
      }
    </style>
  </defs>
  <g>
    <g>
      <path class="cls-1" d="m7.50831,77.92285c-1.83533,2.65674-3.67175,5.40039-5.5083,8.23779v1.83936h1.18976l.12469-.19336c1.93054-2.99561,3.86066-5.88379,5.78925-8.67676-.5744-.34668-1.10876-.75049-1.5954-1.20703Z"/>
      <path class="cls-1" d="m59.91163,22.98438l-1.74573,1.22852c-12.67822,9.05371-25.97424,21.53418-39.45184,38.54639.58203.33398,1.12262.72852,1.6189,1.17383,13.54565-17.08594,26.88745-29.53516,39.57867-38.50439l1.74573-1.21582c21.44611-14.69141,40.95477-19.51855,56.34265-20.18457v-2.00098c-15.84692.66992-35.98828,5.64941-58.08838,20.95703Z"/>
      <polygon class="cls-1" points="10.28769 74.71229 12.93934 73.47487 11.52512 72.06068 10.28769 74.71229"/>
      <path class="cls-1" d="m18.94975,66.05023c-2.73368-2.73364-7.16581-2.73364-9.89949,0-2.73367,2.73371-2.73367,7.16584,0,9.89949,2.73368,2.73371,7.16581,2.73371,9.89949,0,2.73368-2.73365,2.73368-7.16578,0-9.89949Zm-.70709,2.82843l-4.94981,4.94971c-.05759.05762-.12839.10034-.20624.12427l-3.09186,1.35578c-.18308.04578-.34894-.12012-.30316-.30322l1.35568-3.09186c.02401-.07788.06668-.14868.12427-.2063l4.94977-4.94971c.19528-.19519.51187-.19519.70713,0l1.41422,1.41425c.19525.19525.19525.51184,0,.70709Z"/>
    </g>
    <g>
      <path class="yellow" d="m7.50831,77.92285c-1.83533,2.65674-3.67175,5.40039-5.5083,8.23779v1.83936h1.18976l.12469-.19336c1.93054-2.99561,3.86066-5.88379,5.78925-8.67676-.5744-.34668-1.10876-.75049-1.5954-1.20703Z"/>
      <path class="yellow" d="m59.91163,22.98438l-1.74573,1.22852c-12.67822,9.05371-25.97424,21.53418-39.45184,38.54639.58203.33398,1.12262.72852,1.6189,1.17383,13.54565-17.08594,26.88745-29.53516,39.57867-38.50439l1.74573-1.21582c21.44611-14.69141,40.95477-19.51855,56.34265-20.18457v-2.00098c-15.84692.66992-35.98828,5.64941-58.08838,20.95703Z"/>
      <polygon class="cls-1" points="10.28769 74.71229 12.93934 73.47487 11.52512 72.06068 10.28769 74.71229"/>
      <path class="cls-1" d="m18.94975,66.05023c-2.73368-2.73364-7.16581-2.73364-9.89949,0-2.73367,2.73371-2.73367,7.16584,0,9.89949,2.73368,2.73371,7.16581,2.73371,9.89949,0,2.73368-2.73365,2.73368-7.16578,0-9.89949Zm-.70709,2.82843l-4.94981,4.94971c-.05759.05762-.12839.10034-.20624.12427l-3.09186,1.35578c-.18308.04578-.34894-.12012-.30316-.30322l1.35568-3.09186c.02401-.07788.06668-.14868.12427-.2063l4.94977-4.94971c.19528-.19519.51187-.19519.70713,0l1.41422,1.41425c.19525.19525.19525.51184,0,.70709Z"/>
    </g>
  </g>
  <g>
    <path class="cls-2" d="m79.91162,8.77905l-1.91162-4.77905v5.64819c.64026-.29956,1.27631-.58545,1.91162-.86914Z"/>
    <path class="cls-2" d="m76,10.60669v-6.60669h-2v6h-2v-2h-2v5.75171c2.02087-1.1272,4.02179-2.17578,6-3.14502Z"/>
    <path class="cls-2" d="m34,51.79346v8.20654h2v-10.33301c-.66595.7002-1.33221,1.40454-2,2.12646Z"/>
    <path class="cls-2" d="m119.00001,0H1.00001C.4477,0,0,.44775,0,1v88c0,.55225.44769,1,1,1h118c.55231,0,1-.44775,1-1V1c0-.55225-.44769-1-1-1Zm-1,43h-4v-4h-2v-6h-2v8h-2v-14h-2v2h-2v-6h-2v8h-2v-12h-2v-6h-2v14h-2v12.0498c-.6593-.69141-1.34192-2.3999-2-3.0498v-6h-2v2.5415l-4-4.02734v-4.51416l-2-4v-5.38379c-.6615.28564-1.3324.6001-2,.90381v10.47998h-2v-9.55469c-3.26782,1.56445-6.60352,3.34863-10,5.38281v.17188h-.29602c-1.22351.7373-2.45465,1.50635-3.69305,2.30908v5.69092h-2.01093v9h-2v4h-2v-10h-2v5h-2v5h-7v-2h-2v-1h-1.14459c-.28479.25977-.57013.52393-.85541.78711v2.21289h-2.35748c-1.34741,1.28857-2.69971,2.62451-4.05621,4h6.4137v3h2v-1h2v-2h7v5h2v5h2v-10h2v4h2v7h2v16h2v-8h2v16h2v-6h2v10h2v-16h2v4l2-1.54004v-12.45996h2v10.91406c1.05994-2.65674,2.40088-5.19238,4-7.56396v-7.3501h4v4h2v-9.58496l2-2.5v13.08496h2v14h2v-8h2v-8h2v6h2v-4h2v2h2v-14h2v8h2v-6h2v-4h4v41H2.00001v-41h2v2h2v2h2v4h2v-8h8v2h2v-2h4v5.49121c1.33563-1.53906,2.66949-3.04736,4-4.50195v-.98926h.91583c2.37158-2.56201,4.73328-4.98779,7.08417-7.29443v-9.70557h-2v11h-2v-2h-2v4h-2v-5h-2v-5h-2v10h-4v-2h-2v2h-8v-8h-2v4h-2v2h-2v2h-2V2h116v41Z"/>
  </g>
</svg>