<?xml version="1.0" encoding="UTF-8"?>
<svg id="icons" xmlns="http://www.w3.org/2000/svg" width="120" height="90" viewBox="0 0 120 90">
  <defs>
    <style>
      .yellow {
        fill: #f4c500;
      }

      .yellow, .cls-1 {
        stroke-width: 0px;
      }

      .cls-1 {
        fill: #29d698;
      }
    </style>
  </defs>
  <polygon class="yellow" points="2 88 3.67975 88 118 3.24536 118 2 116.32025 2 2 86.75464 2 88"/>
  <polygon class="cls-1" points="80 25.81494 80 16.44531 80 9 78 4 78 14 76 14 76 4 74 4 74 10 72 10 72 8 70 8 70 14 70 21.82812 70 22 69.70398 22 68 22 68 16 66 16 66 30 64 30 64 37.67725 80 25.81494"/>
  <polygon class="cls-1" points="85.03943 22.0791 84 20 84 14.61621 84 14 82 14 82 15.52002 82 24.33203 85.03943 22.0791"/>
  <polygon class="cls-1" points="56.43579 52 58 52 58 57 60 57 60 49.35742 56.43579 52"/>
  <path class="cls-1" d="m119.00001,0H1.00001C.4477,0,0,.44775,0,1v88c0,.55225.44769,1,1,1h118c.55231,0,1-.44775,1-1V1c0-.55225-.44769-1-1-1Zm-1,43h-4v-4h-2v-6h-2v8h-2v-14h-2v2h-2v-6h-2v8h-2v-11.29736l-4,2.96533v4.33203h-2v12.0498c-.32965-.3457-1.67096-2.72461-2-3.0498v-6h-2v2.5415l-3.10327-3.12451-24.89673,18.45801v3.125h2v7h2v16h2v-8h2v16h2v-6h2v10h2v-16h2v4l2-1.54004v-12.45996h2v10.91406s.00134-.00293.0014-.00342c.23517-.58887.48914-1.16992.75171-1.74707.05774-.12744.11652-.25537.17993-.39209.88123-1.88184,1.90369-3.69629,3.06696-5.42139v-7.3501h4v4h2v-8.93799c.72278-.9165,1.40521-1.72168,2-2.37207v12.31006h2v14h2v-8h2v-8h2v6h2v-4h2v2h2v-14h2v8h2v-6h2v-4h4v41H2.00001v-41h2v2h2v2h2v4h2v-8h8v2h2v-2h4v10h2v-5h2v-5h2v4h2v-2h2v10.91846l2-1.48291v-11.43555h9v3h2v-1h1.72729l.27271-.20215v-1.79785h2.42499l8.57501-6.35742v-7.64258h-2v5h-2v5h-7v-2h-2v-1h-2v3h-9v-13h-2v11h-2v-2h-2v4h-2v-5h-2v-5h-2v10h-4v-2h-2v2h-8v-8h-2v4h-2v2h-2v2h-2V2h116v41Z"/>
</svg>