<svg id="S_AudioVideoCol_64x64_N_D_2x" data-name="S_AudioVideoCol_64x64_N_D@2x" xmlns="http://www.w3.org/2000/svg" width="128" height="128" viewBox="0 0 128 128">
  <defs>
    <style>
      .cls-1 {
        fill: #a690e0;
      }

      .cls-2 {
        fill: #29d698;
      }

      
    </style>
  </defs>
  <title>S_AudioVideoCol_64x64_N_D@2x</title>
  <path class="cls-1" d="M34,56H18.8a0.8,0.8,0,0,1-.8-0.8V50.8a0.8,0.8,0,0,1,.8-0.8H84V10a2,2,0,0,0-2-2H2a2,2,0,0,0-2,2V96a2,2,0,0,0,2,2H34V56ZM72,14.75A0.721,0.721,0,0,1,72.689,14h4.623a0.721,0.721,0,0,1,.689.75v4.5a0.721,0.721,0,0,1-.689.75H72.689A0.721,0.721,0,0,1,72,19.25v-4.5Zm0,12A0.721,0.721,0,0,1,72.689,26h4.623a0.721,0.721,0,0,1,.689.75v4.5a0.721,0.721,0,0,1-.689.75H72.689A0.721,0.721,0,0,1,72,31.25v-4.5Zm0,12A0.721,0.721,0,0,1,72.689,38h4.623a0.721,0.721,0,0,1,.689.75v4.5a0.721,0.721,0,0,1-.689.75H72.689A0.721,0.721,0,0,1,72,43.25v-4.5Zm-66-24A0.721,0.721,0,0,1,6.689,14h4.623a0.721,0.721,0,0,1,.689.75v4.5a0.721,0.721,0,0,1-.689.75H6.689A0.721,0.721,0,0,1,6,19.25v-4.5Zm0,12A0.721,0.721,0,0,1,6.689,26h4.623a0.721,0.721,0,0,1,.689.75v4.5a0.721,0.721,0,0,1-.689.75H6.689A0.721,0.721,0,0,1,6,31.25v-4.5Zm0,12A0.721,0.721,0,0,1,6.689,38h4.623a0.721,0.721,0,0,1,.689.75v4.5a0.721,0.721,0,0,1-.689.75H6.689A0.721,0.721,0,0,1,6,43.25v-4.5Zm0,12A0.721,0.721,0,0,1,6.689,50h4.623a0.721,0.721,0,0,1,.689.75v4.5a0.721,0.721,0,0,1-.689.75H6.689A0.721,0.721,0,0,1,6,55.25v-4.5Zm0,12A0.721,0.721,0,0,1,6.689,62h4.623a0.721,0.721,0,0,1,.689.75v4.5a0.721,0.721,0,0,1-.689.75H6.689A0.721,0.721,0,0,1,6,67.25v-4.5Zm0,12A0.721,0.721,0,0,1,6.689,74h4.623a0.721,0.721,0,0,1,.689.75v4.5a0.721,0.721,0,0,1-.689.75H6.689A0.721,0.721,0,0,1,6,79.25v-4.5Zm0,12A0.721,0.721,0,0,1,6.689,86h4.623a0.721,0.721,0,0,1,.689.75v4.5a0.721,0.721,0,0,1-.689.75H6.689A0.721,0.721,0,0,1,6,91.25v-4.5Z"/>
  <path id="outline" class="cls-2" d="M38,54h88v64H38V54Zm-2-1v66a1,1,0,0,0,1,1h90a1,1,0,0,0,1-1V53a1,1,0,0,0-1-1H37A1,1,0,0,0,36,53Z"/>
  <path class="cls-2" d="M122,82h-2v4h-6V84h-2v2h-2V84h-2V78h-2V72h-2v8h-2V68h-2V62H98V76H96v9.92A7.514,7.514,0,0,0,94,86c-0.425,0-3.4-3.436-6-6V76H86v2.541l-2-2.027V72l-2-4V64H80V74H78V59l-2-5V64H74V54H72v6H70V76H68v8c-0.531.637-1.188,2-2,2H64V72H62V86a3.207,3.207,0,0,1-2-.82V76H58v6.81A45.61,45.61,0,0,1,54,74H52V66H50v4H48L46,82.171H44V86H38v1.829h6V91.6h2v7.543L50,102v6h2v-5.086l1.2-4.054c1.708-3.516,3.256-7.506,4.8-9.59V98h2V87.829l2,0.031V102h2V87.9l4,0.07V98h2v10h2v10h2V102h2v4l2-1.54V94h2v8.914s1.792-2.557,4-5.564V94h2v2h2V92.062C89.89,89.666,91.5,88,92,88h4v8h2v14h2v-8h2V94h2v6h2V96h2V90h2V88h2v2h2V88h6v4h2V88h4V86h-4V82Z"/>
  </svg>