<?xml version="1.0" encoding="UTF-8"?>
<svg id="icons" xmlns="http://www.w3.org/2000/svg" width="120" height="90" viewBox="0 0 120 90">
  <defs>
    <style>
      .cls-1 {
        fill: #f4c500;
      }

      .cls-1, .cls-2 {
        stroke-width: 0px;
      }

      .cls-2 {
        fill: #29d698;
      }
    </style>
  </defs>
  <polygon class="cls-1" points="3.68 2 2 2 2 3.245 116.32 88 118 88 118 86.755 3.68 2"/>
  <polygon class="cls-2" points="60.00001 40.64258 60.00001 33 58.00001 33 58.00001 38 56.43568 38 60.00001 40.64258"/>
  <path class="cls-2" d="m119.00001,0H1.00001C.4477,0,0,.44775,0,1v88c0,.55225.44769,1,1,1h118c.55231,0,1-.44775,1-1V1c0-.55225-.44769-1-1-1ZM2.00001,88v-41h2v2h2v2h2v4h2v-8h8v2h2v-2h4v10h2v-5h2v-5h2v4h2v-2h2v10.91846h2v-12.91846h9v3h2v-1h1.72729l.27271-.20215v-1.79785h7v5h2v5h2v-7.64258l-8.57513-6.35742h-2.42487v-1.79785l-.27277-.20215h-1.72723v-1h-2v3h-9v-11.43555l-2-1.48291v10.91846h-2v-2h-2v4h-2v-5h-2v-5h-2v10h-4v-2h-2v2h-8v-8h-2v4h-2v2h-2v2h-2V2h116v41h-3.98395v-3.98389h-.01605v-.01611h-1.98395v-5.98389h-.01605v-.01611h-2v8h-1.98395v-13.98389h-.01605v-.01611h-2v2h-1.98395v-5.98389h-.01605v-.01611h-2v8h-1.98395v-11.98389h-2v-6h-2v9.64014l-.01605.01172v4.33203h-2v12.04639c-.01501-.01611-.03009-.03809-.0451-.05518-.16168-.19531-.47406-.69336-.81274-1.24316-.37744-.6665-.75574-1.36621-1.1261-1.73193v-6h-.01605v-.01611h-2v2.5415l-3.10327-3.12451-.00049.00049-.88019-.88623v-4.51514l-2-4-.01605-5.69336v-.32275h-2v10.33203l.01373-.01025.00232,1.69434h-2V9.33887l-.01605-.04004v-.29883l-2-5v10h-1.98395V4.33887h-.01605v-.33887h-2v6h-1.98395v-1.66113h-.01605v-.33887h-2v14h-1.98395v-5.66113h-.01605v-.33887h-2v14h-2v9h-2v3.12549l24,17.79297v-3.91846h4v4h2v-8.93799c.42999-.54541.84271-1.04492,1.23419-1.50244.00525.00586.01062.01172.01587.01758.26135-.30566.51324-.59277.74994-.85303v12.27588h2v6.33252l2,1.48242v-1.81494h2v-8h1.29083l.01318.01611h.69598v5.98389h2v-2.58691c.00537.00684.01068.01318.01605.02002v-1.41699h1.98395v1.98389h.01605v.01611h2v-14h1.98395v7.98389h.01605v.01611h2v-6h2v-4h3.98395v40.98389H2.00001Z"/>
  <path class="cls-2" d="m82.00001,65.66797v5.24609c.23596-.59131.49084-1.17432.75439-1.75342.05688-.12549.11481-.25195.17737-.38623.00122-.00293.00262-.00537.00378-.00781.27722-.5918.57751-1.17236.8855-1.74854l-1.82104-1.3501Z"/>
  <polygon class="cls-2" points="62.00001 50.84033 62.00001 51 62.21552 51 62.00001 50.84033"/>
  <polygon class="cls-2" points="64.00001 52.32324 64.00001 58 66.00001 58 66.00001 74 68.00001 74 68.00001 66 70.00001 66 70.00001 72 70.00001 82 72.00001 82 72.00001 76 74.00001 76 74.00001 86 76.00001 86 76.00001 70 78.00001 70 78.00001 74 80.00001 72.45996 80.00001 64.18506 64.00001 52.32324"/>
</svg>