<svg id="S_Mute_Xs_N_D_2x" data-name="S_Mute_Xs_N_D@2x" xmlns="http://www.w3.org/2000/svg" width="26" height="26" viewBox="0 0 26 26">
  <defs>
    <style>
      .fill {
        fill: #fff;
        fill-rule: evenodd;
        opacity: 0.65;
      }

      
    </style>
  </defs>
  <title>S_Mute_Xs_N_D@2x</title>
  <path id="Fill" class="fill" d="M6,6.5v13a0.5,0.5,0,0,0,.5.5h1A0.5,0.5,0,0,0,8,19.5V9.64l4.243,4.243L13,14.625l0.757-.741L18,9.64V19.5a0.5,0.5,0,0,0,.5.5h1a0.5,0.5,0,0,0,.5-0.5V6.5A0.5,0.5,0,0,0,19.5,6H18V6.813l-5,5-5-5V6H6.5A0.5,0.5,0,0,0,6,6.5Z"/>
  </svg>