<svg id="S_AudioTransCP_60x45_N_D_2x" data-name="S_AudioTransCP_60x45_N_D@2x" xmlns="http://www.w3.org/2000/svg" width="120" height="90" viewBox="0 0 120 90">
  <defs>
    <style>
      .cls-1 {
        fill: #29d698;
      }

      .yellow {
        fill: #f4c500;
      }

      
    </style>
  </defs>
  <title>S_AudioTransCP_60x45_N_D@2x</title>
  <g>
    <path class="cls-1" d="M66.128,16H66v0.077Z"/>
    <path class="cls-1" d="M34,51.793V60h2V49.667C35.334,50.367,34.668,51.072,34,51.793Z"/>
    <path class="cls-1" d="M79.912,8.779L78,4V9.648C78.64,9.349,79.276,9.063,79.912,8.779Z"/>
    <path class="cls-1" d="M76,10.607V4H74v6H72V8H70v5.752Q73.031,12.061,76,10.607Z"/>
    <path class="cls-1" d="M4,49H6v2H8v4h2V47h8v2h2V47h4v5.491c1.336-1.539,2.669-3.047,4-4.5V47h0.916Q32.473,43.157,36,39.706V30H34V41H32V39H30v4H28V38H26V33H24V43H20V41H18v2H10V35H8v4H6v2H4v2H2v4H4v2Z"/>
    <path class="cls-1" d="M114,39h-2V33h-2v8h-2V27h-2v2h-2V23h-2v8h-2V19H98V13H96V27H94V39.05c-0.659-.692-1.342-2.4-2-3.05V30H90v2.542l-4-4.027V24l-2-4V14.616c-0.661.286-1.332,0.6-2,.9V26H80V16.445c-3.268,1.565-6.6,3.349-10,5.383V22H69.7q-1.835,1.106-3.693,2.309A189.859,189.859,0,0,1,93.234,49.561c0.267-.312.525-0.607,0.766-0.871v1.725c2.422,2.725,4.852,5.577,7.288,8.585H102v0.89c0.666,0.83,1.333,1.675,2,2.527V61h2v2h2V49h2v8h2V51h2V47h4V43h-4V39Z"/>
    <path class="cls-1" d="M96,63.581V75h2V67h0.707C97.8,65.843,96.9,64.7,96,63.581Z"/>
    <path class="cls-1" d="M64.53,32H64v7H62v4H60V33H58v5H56v5H49V41H47V40H45.855c-0.285.26-.57,0.524-0.855,0.787V43H42.643q-2.021,1.933-4.056,4H45v3h2V49h2V47h7v5h2v5h2V47h2v4h2v7h2V74h2V66h2V82h2V76h2V86h2V70h2v4l2-1.54V60h2V70.914a40.127,40.127,0,0,1,4-7.564V56h3.623A188.323,188.323,0,0,0,64.53,32Z"/>
    <path class="cls-1" d="M90,56.437V60h2V58.767C91.333,57.983,90.666,57.2,90,56.437Z"/>
  </g>
  <path class="yellow" d="M58.166,24.213C40.266,37,21.135,56.6,2,86.161V88H3.19l0.125-.193c19.325-29.986,38.614-49.668,56.6-62.378,17.983,12.71,37.272,32.392,56.6,62.378L116.633,88h1.19L118,87.886V86.432c-19.194-29.717-38.388-49.4-56.343-62.219C83.1,9.521,102.612,4.694,118,4.028v-2c-15.847.67-35.988,5.649-58.088,20.957C37.894,7.733,17.82,2.734,2,2.035v2C17.36,4.731,36.8,9.578,58.166,24.213Z"/>
  <path id="outline2" class="cls-1" d="M2,2H118V88H2V2ZM0,1V89a1,1,0,0,0,1,1H119a1,1,0,0,0,1-1V1a1,1,0,0,0-1-1H1A1,1,0,0,0,0,1Z"/>
  </svg>