<svg id="S_AudioVideoSubClip_64x64_N_D_2x" data-name="S_AudioVideoSubClip_64x64_N_D@2x" xmlns="http://www.w3.org/2000/svg" width="128" height="128" viewBox="0 0 128 128">
  <defs>
    <style>
      .fill {
        fill: #fff;
        fill-rule: evenodd;
        opacity: 0.65;
      }

      .cls-1 {
        fill: #a690e0;
      }

      .cls-2 {
        fill: #29d698;
      }

      
    </style>
  </defs>
  <title>S_AudioVideoSubClip_64x64_N_D@2x</title>
  <path class="fill" d="M112,49.021V10a2,2,0,0,0-2-2h-2a2,2,0,0,0-2,2V51.921L118,64,106,74.921V118a2,2,0,0,0,2,2h2a2,2,0,0,0,2-2V78l15.119-14Z"/>
  <polygon class="cls-1" points="15.517 64 26 73.563 26 98 34 98 34 56 23.437 56 15.517 64"/>
  <path class="cls-1" d="M82,8H26V50H84V10A2,2,0,0,0,82,8ZM78,43.25a0.721,0.721,0,0,1-.689.75H72.689A0.721,0.721,0,0,1,72,43.25v-4.5A0.721,0.721,0,0,1,72.689,38h4.623a0.721,0.721,0,0,1,.689.75v4.5Zm0-12a0.721,0.721,0,0,1-.689.75H72.689A0.721,0.721,0,0,1,72,31.25v-4.5A0.721,0.721,0,0,1,72.689,26h4.623a0.721,0.721,0,0,1,.689.75v4.5Zm0-12a0.721,0.721,0,0,1-.689.75H72.689A0.721,0.721,0,0,1,72,19.25v-4.5A0.721,0.721,0,0,1,72.689,14h4.623a0.721,0.721,0,0,1,.689.75v4.5Z"/>
  <path class="fill" d="M18,120h2a2,2,0,0,0,2-2V74.921L10,64,22,51.921V10a2,2,0,0,0-2-2H18a2,2,0,0,0-2,2V49.021L0.881,64,16,78v40A2,2,0,0,0,18,120Z"/>
  <path class="cls-2" d="M102,86s-6.144-.072-6,0c-0.425,0-3.4-3.436-6-6V76H88v2.541l-2-2.027V72l-2-4V64H82V74H80V59l-2-5V64H76V54H74v6H72V76H70v8c-0.531.637-1.188,2-2,2H66V72H64V86a3.207,3.207,0,0,1-2-.82V76H60v6.81A45.612,45.612,0,0,1,56,74H54V66H52v4H50L48,82.171H46V86H38v1.829h8V91.6h2v7.543L52,102v6h2v-5.086l1.2-4.054c1.708-3.516,3.256-7.506,4.8-9.59V98h2V87.829l2,0.031V102h2V87.9l4,0.07V98h2v10h2v10h2V102h2v4l2-1.54V94h2v8.914s1.792-2.557,4-5.564V94h2v2h2V92.062C91.89,89.666,93.5,88,94,88h8V86Z"/>
  <path class="cls-2" d="M102,118H38V54h64V52H37a1,1,0,0,0-1,1v66a1,1,0,0,0,1,1h65v-2Z"/>
  </svg>