<?xml version="1.0" encoding="UTF-8"?>
<svg id="icons" xmlns="http://www.w3.org/2000/svg" width="120" height="90" viewBox="0 0 120 90">
  <defs>
    <style>
      .cls-1 {
        fill-rule: evenodd;
      }

      .cls-1, .yellow {
        fill: #f4c500;
      }

      .cls-1, .yellow, .cls-2 {
        stroke-width: 0px;
      }

      .cls-2 {
        fill: #29d698;
      }
    </style>
  </defs>
  <g>
    <path class="yellow" d="m101.72004,63.52686c-13.68671-17.40869-27.19318-30.12549-40.06305-39.31396l-1.745-1.22803C37.89399,7.73291,17.82002,2.73389,2.00001,2.03516v2c15.35999.6958,34.79999,5.54297,56.16602,20.17773l1.74896,1.21582c12.8595,9.08887,26.3869,21.74609,40.11871,39.18359.51904-.41992,1.08545-.78125,1.68634-1.08545Z"/>
    <path class="yellow" d="m112.80042,78.62646c-.46637.47852-.98071.90918-1.53876,1.28125,1.75018,2.55127,3.50159,5.18164,5.25336,7.89941l.11798.19287h1.19l.177-.11426v-1.45361c-1.73352-2.68408-3.46698-5.2832-5.19958-7.80566Z"/>
    <polygon class="cls-1" points="102.28769 75.71229 104.93934 74.47487 103.52512 73.06068 102.28769 75.71229"/>
    <path class="cls-1" d="m110.94975,67.05023c-2.73368-2.73364-7.16581-2.73364-9.89949,0-2.73367,2.73371-2.73367,7.16584,0,9.89949,2.73368,2.73371,7.16581,2.73371,9.89949,0,2.73368-2.73365,2.73368-7.16578,0-9.89949Zm-.70709,2.82843l-4.94981,4.94971c-.05759.05762-.12839.10034-.20624.12427l-3.09186,1.35578c-.18308.04578-.34894-.12012-.30316-.30322l1.35568-3.09186c.02401-.07788.06668-.14868.12427-.2063l4.94977-4.94971c.19528-.19519.51187-.19519.70713,0l1.41422,1.41425c.19525.19525.19525.51184,0,.70709Z"/>
  </g>
  <g>
    <path class="cls-2" d="m90.00001,60h2v-1.23291c-.66699-.78418-1.33398-1.56689-2-2.33008v3.56299Z"/>
    <path class="cls-2" d="m96.50001,72c0-2.06592.66669-3.97217,1.78656-5.53076-.7644-.97363-1.52637-1.94287-2.28656-2.88818v11.41895h.99121c-.31433-.94385-.49121-1.95068-.49121-3Z"/>
    <path class="cls-2" d="m119.00001,0H1.00001C.4477,0,0,.44775,0,1v88c0,.55225.44769,1,1,1h118c.55225,0,1-.44775,1-1V1c0-.55225-.44775-1-1-1Zm-1,43.01611h-3.98395v-4h-2v-6h-2v8h-2v-14h-2v2h-2v-6h-2v8h-2v-12h-2v-6h-2v14h-2v12.0498c-.659-.69189-1.34204-2.3999-2-3.0498v-6h-2v2.54199l-4-4.02686v-4.51514l-2-4-.01605-5.69336h-2l.01605,11.69336h-2V9.33887l-2-5v10h-2V4.33887h-2v6h-2v-2h-2v14h-2v-6h-2v7.98633c.31116.2334.61975.4834.93048.71973,9.52173,7.3291,18.33368,15.5376,26.30353,24.53223.26697-.31201.52496-.60693.76599-.87109v1.7251c2.422,2.7251,4.85199,5.57715,7.28796,8.58496h.71204v.89014c.66602.82959,1.33301,1.6748,2,2.52686v-1.41699h2v1.48486c.68671.00098,1.35474.07861,2,.21826v-13.70312h2v8h2v-6h2v-4h3.98395v40.98389H2.00001v-41h2v2h2v2h2v4h2v-8h8v2h2v-2h4v10h2v-5h2v-5h2v4h2v-2h2v10.91846h2v-12.91846h9v3h2v-1h1.72729l.27271-.20215v-1.79785h7v5h2v5h2v-10h2v4h2v7h2v16h2v-8h2v16h2v-6h2v10h2v-16h2v4l2-1.54004v-12.45996h2v10.91406c1.05994-2.65674,2.40088-5.19238,4-7.56396v-7.3501h3.62299c-7.60742-8.75586-16.00745-16.79004-25.09302-24h-.52997v7h-2v4h-2v-10h-2v5h-2v5h-7v-2h-2v-1h-2v3h-9v-13h-2v11h-2v-2h-2v4h-2v-5h-2v-5h-2v10h-4v-2h-2v2h-8v-8h-2v4h-2v2h-2v2h-2V2h116v41.01611Z"/>
  </g>
</svg>