<?xml version="1.0" encoding="UTF-8"?>
<svg id="ICONS" xmlns="http://www.w3.org/2000/svg" width="128" height="128" viewBox="0 0 128 128">
  <defs>
    <style>
      .cls-1 {
        fill: #a690e0;
      }

      .cls-2 {
        fill: #29d698;
      }

      .fill {
        fill: #fff;
        opacity: .65;
      }
    </style>
  </defs>
  <path class="cls-1" d="M34,56h-15.2c-.44183,0-.8-.35817-.8-.8v-4.4c0-.44183.35817-.8.8-.8h65.2V10c0-1.10457-.89543-2-2-2H2c-1.10457,0-2,.89543-2,2v86c0,1.10457.89543,2,2,2h32v-42ZM72,14.75c-.01637-.39719.29185-.7327.689-.75h4.623c.39716.01731.70537.35281.689.75v4.5c.01637.3972-.29185.73269-.689.75h-4.623c-.39716-.01731-.70537-.3528-.689-.75v-4.5ZM72,26.75c-.01637-.3972.29185-.73269.689-.75h4.623c.39716.01731.70537.3528.689.75v4.5c.01637.3972-.29185.73269-.689.75h-4.623c-.39716-.01731-.70537-.3528-.689-.75v-4.5ZM72,38.75c-.01637-.39719.29185-.7327.689-.75h4.623c.39716.0173.70537.35281.689.75v4.5c.01637.39719-.29185.7327-.689.75h-4.623c-.39716-.0173-.70537-.35281-.689-.75v-4.5ZM6,14.75c-.01637-.39719.29185-.73269.689-.75h4.623c.39715.01731.70537.35281.689.75v4.5c.01637.39719-.29185.73269-.689.75h-4.623c-.39715-.01731-.70537-.35281-.689-.75v-4.5ZM6,26.75c-.01637-.39719.29185-.73269.689-.75h4.623c.39715.01731.70537.35281.689.75v4.5c.01637.39719-.29185.73269-.689.75h-4.623c-.39715-.01731-.70537-.35281-.689-.75v-4.5ZM6,38.75c-.01637-.39719.29185-.73269.689-.75h4.623c.39715.01731.70537.35281.689.75v4.5c.01637.39719-.29185.73269-.689.75h-4.623c-.39715-.01731-.70537-.35281-.689-.75v-4.5ZM6,50.75c-.01637-.39719.29185-.73269.689-.75h4.623c.39715.01731.70537.35281.689.75v4.5c.01637.39719-.29185.73269-.689.75h-4.623c-.39715-.01731-.70537-.35281-.689-.75v-4.5ZM6,62.75c-.01637-.39719.29185-.73269.689-.75h4.623c.39715.01731.70537.35281.689.75v4.5c.01637.39719-.29185.7327-.689.75h-4.623c-.39715-.0173-.70537-.35281-.689-.75v-4.5ZM6,74.75c-.01637-.39719.29185-.7327.689-.75h4.623c.39715.0173.70537.35281.689.75v4.5c.01637.39719-.29185.7327-.689.75h-4.623c-.39715-.0173-.70537-.35281-.689-.75v-4.5ZM6,86.75c-.01637-.39719.29185-.7327.689-.75h4.623c.39715.0173.70537.35281.689.75v4.5c.01637.39719-.29185.7327-.689.75h-4.623c-.39715-.0173-.70537-.35281-.689-.75v-4.5Z"/>
  <rect class="fill" x="112" y="112" width="16" height="16" rx="1" ry="1"/>
  <rect class="fill" x="92" y="112" width="16" height="16" rx="1" ry="1"/>
  <rect class="fill" x="112" y="91" width="16" height="16" rx="1" ry="1"/>
  <rect class="fill" x="92" y="91" width="16" height="16" rx="1" ry="1"/>
  <path class="cls-2" d="M88,118h-50V54h88v33h2v-34c0-.55225-.44775-1-1-1H37c-.55225,0-1,.44775-1,1v66c0,.55225.44775,1,1,1h51v-2Z"/>
  <path class="cls-2" d="M88,89c0-1.10457.89543-2,2-2h36v-1h-4v-4h-2v4h-6v-2h-2v2h-2v-2h-2v-6h-2v-6h-2v8h-2v-12h-2v-6h-2v14h-2v9.91992c-.66724-.0625-1.33984-.03564-2,.08008-.42505,0-3.3999-3.43604-6-6v-4h-2v2.54102l-2-2.02686v-4.51416l-2-4v-4h-2v10h-2v-15l-2-5v10h-2v-10h-2v6h-2v16h-2v8c-.53101.63672-1.18799,2-2,2h-2v-14h-2v14c-.74146-.03369-1.44824-.32324-2-.81982v-9.18018h-2v6.81006c-1.64185-2.78662-2.98291-5.73975-4-8.81006h-2v-8h-2v4h-2l-2,12.1709h-2v3.8291h-6v1.8291h6v3.771h2v7.54297l4,2.85693v6h2v-5.08594l1.19995-4.0542c1.70801-3.51611,3.2561-7.50586,4.80005-9.58984v8.72998h2v-10.1709l2,.03076v14.14014h2v-14.1001l4,.06982v10.03027h2v10h2v10h2v-16h2v4l2-1.54004v-10.45996h2v8.91406s1.79199-2.55713,4-5.56396v-3.3501h2v2h2v-7Z"/>
</svg>