<svg id="S_AudioPan_Wi_N_D_2x" data-name="S_AudioPan_Wi_N_D@2x" xmlns="http://www.w3.org/2000/svg" width="40" height="26" viewBox="0 0 40 26">
  <defs>
    <style>
      .fill {
        fill: #fff;
        fill-rule: evenodd;
        opacity: 0.65;
      }

      
    </style>
  </defs>
  <title>S_AudioPan_Wi_N_D@2x</title>
  <path id="Fill" class="fill" d="M32,4.5v15a0.5,0.5,0,0,0,.5.5h1a0.5,0.5,0,0,0,.5-0.5V4.5A0.5,0.5,0,0,0,33.5,4h-1A0.5,0.5,0,0,0,32,4.5Zm-4,2v11a0.5,0.5,0,0,0,.5.5h1a0.5,0.5,0,0,0,.5-0.5V6.5A0.5,0.5,0,0,0,29.5,6h-1A0.5,0.5,0,0,0,28,6.5Zm-4,2v7a0.5,0.5,0,0,0,.5.5h1a0.5,0.5,0,0,0,.5-0.5v-7A0.5,0.5,0,0,0,25.5,8h-1A0.5,0.5,0,0,0,24,8.5ZM6,4.5v15a0.5,0.5,0,0,0,.5.5h1A0.5,0.5,0,0,0,8,19.5V4.5A0.5,0.5,0,0,0,7.5,4h-1A0.5,0.5,0,0,0,6,4.5Zm4,2v11a0.5,0.5,0,0,0,.5.5h1a0.5,0.5,0,0,0,.5-0.5V6.5A0.5,0.5,0,0,0,11.5,6h-1A0.5,0.5,0,0,0,10,6.5Zm4,2v7a0.5,0.5,0,0,0,.5.5h1a0.5,0.5,0,0,0,.5-0.5v-7A0.5,0.5,0,0,0,15.5,8h-1A0.5,0.5,0,0,0,14,8.5Zm4,2v3a0.5,0.5,0,0,0,.5.5h3a0.5,0.5,0,0,0,.5-0.5v-3a0.5,0.5,0,0,0-.5-0.5h-3A0.5,0.5,0,0,0,18,10.5Z"/>
  </svg>