<svg id="S_AudioFile_64_N_D_2x" data-name="S_AudioFile_64_N_D@2x" xmlns="http://www.w3.org/2000/svg" width="128" height="128" viewBox="0 0 128 128">
  <defs>
    <style>
      .fill {
        fill: #fff;
        fill-rule: evenodd;
        opacity: 0.65;
      }

      
    </style>
  </defs>
  <title>S_AudioFile_64_N_D@2x</title>
  <path class="fill" d="M116,20H12a4,4,0,0,0-4,4v80a4,4,0,0,0,4,4H116a4,4,0,0,0,4-4V24A4,4,0,0,0,116,20Zm-4,8V62h-6C95.6,62,90.34,43.513,89.376,38.242A1.7,1.7,0,0,0,86,38.561V62H75.143C58.3,62,55.6,37.574,53.561,31.789A1.834,1.834,0,0,0,50,32.4V62H39.714c-7.9,0-11.383-13.224-12.309-17.523a1.693,1.693,0,0,0-1.662-1.334H25.7a1.7,1.7,0,0,0-1.7,1.7V62H16V28ZM16,100V68h8V85.154a1.7,1.7,0,0,0,1.7,1.7h.041a1.693,1.693,0,0,0,1.662-1.334C28.331,81.224,31.819,68,39.714,68H50V94.166a1.834,1.834,0,0,0,3.561.616C55.6,89,58.3,68,75.143,68H86V91.439a1.7,1.7,0,0,0,3.376.318C90.34,86.487,95.6,68,106,68h6v32Z"/>
  </svg>