<svg id="S_AudioSubClip_48x48_N_D_2x" data-name="S_AudioSubClip_48x48_N_D@2x" xmlns="http://www.w3.org/2000/svg" width="96" height="96" viewBox="0 0 96 96">
  <defs>
    <style>
      .fill {
        fill: #fff;
        opacity: 0.65;
      }

      .cls-1, .fill {
        fill-rule: evenodd;
      }

      .cls-1, .cls-2 {
        fill: #29d698;
      }

      
    </style>
  </defs>
  <title>S_AudioSubClip_48x48_N_D@2x</title>
  <path id="Fill" class="fill" d="M15,6H13a1,1,0,0,0-1,1V38L0,49,12,60V89a1,1,0,0,0,1,1h2a1,1,0,0,0,1-1V58L6,49l10-9V7A1,1,0,0,0,15,6ZM80,7V40l9.8,8.8L80,58V89a1,1,0,0,0,1,1h2a1,1,0,0,0,1-1V60L96,49,84,38V7a1,1,0,0,0-1-1H81A1,1,0,0,0,80,7Z"/>
  <path class="cls-1" d="M76,49.829v2H74.455v-2H72V53l-2,.171V58l-2.091-.171v4H66.364v-6H64.818v8L64,65.118V72H62V58l-1.818-.171v-8H57.091c-0.383,0-1.63,1.666-3.091,4.062v3.938H52.455V56.493L52,62l-2-6V67.213A16.417,16.417,0,0,0,48,72L46.884,58,46,60v6l-1.273,9.829L44.919,64H44V80H42V74l-1.909-.171v-14L38,60V50.814L36,50V64H34V50H32V60H30V52c-1.193,2.084-1.571,5.173-2.891,8.689L26,64.724V70H24V64l-2-2.95V54l-2-.571V49.657H17V48h3V44.171h1.545L23.091,32H24V28h2v8h2c0.858,3.1.818,6.542,2,8.908V38h2V48c0.5,0.524,1.472,0,2,0V34h2V48h1c0.628,0,.59-1.363,1-2V38h2.091V22H42V17a1,1,0,0,1,1-1h0a1,1,0,0,1,1,1v9h0.727l0.065-10,1.439,4.861a1,1,0,0,1,.041.284V36H48V26h2v4l0.909,4v4.514l1.545,2.027L52,38h2v4c2.007,2.564,4.308,6,4.636,6A5.209,5.209,0,0,1,60,48V38h2V24h1.273v6h1.545V42h1.545V34h1.546v6H70v5h2v3h2.455V46H76v2h3v2Z"/>
  <rect class="cls-2" x="20" y="10" width="56" height="4"/>
  <rect class="cls-2" x="20" y="82" width="56" height="4"/>
  </svg>