<svg id="S_AudioVideoSubClip_Sm_N_D_2x" data-name="S_AudioVideoSubClip_Sm_N_D@2x" xmlns="http://www.w3.org/2000/svg" width="32" height="32" viewBox="0 0 32 32">
  <defs>
    <style>
      .cls-1 {
        fill: #29d698;
      }

      .cls-2 {
        fill: #a690e0;
      }

      .fill {
        fill: #fff;
        fill-rule: evenodd;
        opacity: 0.65;
      }

      
    </style>
  </defs>
  <title>S_AudioVideoSubClip_Sm_N_D@2x</title>
  <path class="cls-1" d="M23.482,22.447L24,22.474v-1.25a2.877,2.877,0,0,0-.518-0.026c-1.938,0-3-4.949-3-4.949s-0.326,4.167-1.109,4.949c0-.034-1.309,0-1.309,0-0.878,0-1.943-3.533-1.943-3.533L15.729,21.2H14V16H24V14H13a1,1,0,0,0-1,1V29a1,1,0,0,0,1,1H24V28H14V22.447h1.729l0.479,2.826s1.5-2.826,2.131-2.826h1.635s0.075,4.013.042,4.561C20.643,25.206,22.882,22.447,23.482,22.447Z"/>
  <path class="cls-2" d="M12,15a1,1,0,0,1,1-1h5V12h2v2h2V2.5A0.5,0.5,0,0,0,21.5,2H8v8.5A0.5,0.5,0,0,1,8.5,10h7a0.5,0.5,0,0,1,.5.5v1a0.5,0.5,0,0,1-.5.5h-7A0.5,0.5,0,0,1,8,11.5V18h4V15ZM18,4h2V6H18V4Zm0,4h2v2H18V8Z"/>
  <path id="Brackets" class="fill" d="M28,29.5V21l4-5-4-5V2.5A0.5,0.5,0,0,0,27.5,2h-1a0.5,0.5,0,0,0-.5.5V12l3.5,4L26,20v9.5a0.5,0.5,0,0,0,.5.5h1A0.5,0.5,0,0,0,28,29.5ZM4,2.5V11L0,16l4,5v8.5a0.5,0.5,0,0,0,.5.5h1A0.5,0.5,0,0,0,6,29.5V20L2.5,16,6,12V2.5A0.5,0.5,0,0,0,5.5,2h-1A0.5,0.5,0,0,0,4,2.5Z"/>
  </svg>