<?xml version="1.0" encoding="UTF-8"?>
<svg id="icons" xmlns="http://www.w3.org/2000/svg" width="28" height="28" viewBox="0 0 28 28">
  <defs>
    <style>
      .fill {
        fill: #fff;
        opacity: .65;
        stroke-width: 0px;
      }
    </style>
  </defs>
  <path class="fill" d="M21,3v22.87231l-6.29468-6.26135-.70728-.70337-.70508.7052-6.29297,6.29395V3h14M21,2H7c-.56006,0-1,.43994-1,1v24.64001c0,.22717.07959.35083.20361.35083.07275,0,.1604-.04224.25635-.13086l7.54004-7.54004,7.54004,7.5c.09912.09912.18945.146.26343.146.12012,0,.19653-.12317.19653-.34595V3c0-.56006-.43994-1-1-1h0Z"/>
</svg>