<svg xmlns="http://www.w3.org/2000/svg" width="32" height="32" viewBox="0 0 32 32">
  <defs>
    <style>
      .fill {
        fill: #fff;
        fill-rule: evenodd;
        opacity: 0.65;
      }

      .fillPale {
        opacity: 0.15;
      }
    </style>
  </defs>
      <rect class="fill" x="16" width="8" height="8"/>
      <path class="fill" d="M0,1.6V8H8V0H1.6A1.6,1.6,0,0,0,0,1.6Z"/>
      <rect class="fill" x="16" y="16" width="8" height="8"/>
      <rect class="fill" y="16" width="8" height="8"/>
      <rect class="fill" x="8" y="24" width="8" height="8"/>
      <rect class="fill" x="24" y="8" width="8" height="8"/>
      <path class="fill" d="M24,24h8v6.667A1.333,1.333,0,0,1,30.667,32H24Z"/>
      <rect class="fill" x="8" y="8" width="8" height="8"/>
    <rect class="fillPale" x="8" width="8" height="8"/>
    <path class="fillPale" d="M24,0h6.667A1.333,1.333,0,0,1,32,1.333V8H24Z"/>
    <rect class="fillPale" x="16" y="8" width="8" height="8"/>
    <rect class="fillPale" x="8" y="16" width="8" height="8"/>
    <rect class="fillPale" x="24" y="16" width="8" height="8"/>
    <rect class="fillPale" x="16" y="24" width="8" height="8"/>
    <path class="fillPale" d="M0,24H8v8H1.333A1.333,1.333,0,0,1,0,30.667Z"/>
    <rect class="fillPale" y="8" width="8" height="8"/>
</svg>
