<?xml version="1.0" encoding="UTF-8"?>
<svg id="ImportedIcons-5" data-name="ImportedIcons" xmlns="http://www.w3.org/2000/svg" width="36" height="36" viewBox="0 0 36 36">
  <defs>
    <style>
      .cls-1 {
        fill: #fff;
      }

      .green {
        fill: #149b14;
      }
    </style>
  </defs>
  <path class="green" d="m18,1.99963C9.16344,1.99963,2,9.16307,2,17.99963s7.16344,16,16,16,16-7.16344,16-16c-.00005-8.83654-7.16347-15.99995-16-16Z"/>
  <path class="cls-1" d="m28.666,11.08008l-12.64842,16.26074c-.21256.27143-.53093.43915-.875.46094-.02344.00195-.04883.00195-.07227.00195-.31866.00033-.62435-.12617-.84961-.35156l-7.78515-7.79492c-.46869-.46857-.46878-1.22837-.00021-1.69706.00007-.00007.00014-.00014.00021-.00021l1.32617-1.32519c.4687-.4668,1.22661-.4668,1.69531,0l5.3457,5.34668,10.51172-13.50879c.40801-.52248,1.16183-.61638,1.68555-.20996l1.45508,1.13281c.52121.4082.61539,1.16047.21092,1.68457Z"/>
</svg>