<svg xmlns="http://www.w3.org/2000/svg" width="16" height="12" viewBox="0 0 16 12">

  <defs>
    <style>
      .fill {
        fill: #6e6e6e;
        fill-rule: evenodd;
      }
    </style>
  </defs>

	<g id="Chevron">
		<path id="Shape" class="st2" d="M8,1C7.6,1,7.2,1.2,6.9,1.4C5.7,2.6,3,5.5,0.5,7.9C0.2,8.2,0,8.6,0,9c0,0.8,0.7,1.5,1.5,1.5
			c0.4,0,0.8-0.2,1.1-0.4L8,4.6l5.4,5.4c0.3,0.3,0.7,0.4,1.1,0.4c0.8,0,1.5-0.7,1.5-1.5c0-0.4-0.2-0.8-0.4-1.1L9.1,1.4
			C8.8,1.2,8.4,1,8,1z"/>
	</g>
</svg>
