<?xml version="1.0" encoding="UTF-8"?>
<svg id="icons" xmlns="http://www.w3.org/2000/svg" width="42" height="40" viewBox="0 0 42 40">
  <defs>
    <style>

      .fill{
        fill-rule: evenodd;
        fill: #000;
        opacity: .65;
      }
        

      .fillMedium {
        fill: #000;
        opacity: .3;
      }
    </style>
  </defs>
  <path class="fillMedium" d="M40,2v36H2V2h38ZM41,0H1C.44769,0,0,.44772,0,1v38c0,.55229.44769,1,1,1h40c.55231,0,1-.44771,1-1V1c0-.55228-.44769-1-1-1Z"/>
  <path class="fill" d="M12.077,30.88099c4.13317-2.76491,6.76377-4.29479,9.07114-8.31986.99371-1.745,1.7177-4.24128,1.7177-6.06599,0-1.47637-.07972-2.57709-.64318-3.65052-.64427-1.23395-2.01364-2.20036-3.78483-2.03983-1.18044.10811-2.6033.53726-3.19406,1.18153-.32214.34834-.61697.83209-.8048,1.23395-.16161.34944,0,.88669.64427.9129.24133,0,.77859-.21512,1.07342-.24133,1.39556-.16161,2.54979.96641,2.54979,2.17415,0,1.18044-1.04722,2.41548-2.71141,2.41548-1.7177,0-3.16677-1.18153-3.22027-2.87193-.05351-1.7985,1.12693-3.62322,2.79112-4.53612.8856-.56347,2.81842-1.07342,3.75753-1.07342,1.7177,0,3.24757.29484,4.85825,1.63689,1.60959,1.34205,2.14685,2.44278,2.38818,4.69773.34944,3.19297-2.30846,7.37965-4.88446,9.5003-2.41548,1.98633-6.1195,3.99886-9.44788,5.60954l-.16052-.56347ZM29.55093,12.06713c.8856,0,1.44907.72399,1.44907,1.44907,0,.75129-.56347,1.47637-1.44907,1.47637-.93911,0-1.47637-.72508-1.47637-1.47637,0-.72508.53726-1.44907,1.47637-1.44907ZM29.55093,17.94421c.8856,0,1.44907.72508,1.44907,1.44907,0,.75238-.56347,1.47637-1.44907,1.47637-.93911,0-1.47637-.72399-1.47637-1.47637,0-.72399.53726-1.44907,1.47637-1.44907Z"/>
</svg>