<?xml version="1.0" encoding="UTF-8"?>
<svg id="icons" xmlns="http://www.w3.org/2000/svg" width="42" height="40" viewBox="0 0 42 40">
  <defs>
    <style>

      .fill{
        fill-rule: evenodd;
        fill: #000;
        opacity: .65;
      }
        

      .fillMedium {
        fill: #000;
        opacity: .3;
      }
    </style>
  </defs>
  <path class="fillMedium" d="M40,2v36H2V2h38ZM41,0H1C.44769,0,0,.44772,0,1v38c0,.55229.44769,1,1,1h40c.55231,0,1-.44771,1-1V1c0-.55228-.44769-1-1-1Z"/>
  <path class="fill" d="M23,17.57764c0-.31904.25861-.57764.57764-.57764h3.46586l4.99508-3.85296c.37252-.33113.96141-.06671.96141.43172v12.84246c0,.49842-.58889.76288-.96141.43175l-4.99508-3.85297h-3.46586c-.31904,0-.57764-.25864-.57764-.57764v-4.84471Z"/>
  <path class="fill" d="M19,17.57764c0-.31904-.25861-.57764-.57764-.57764h-3.46586s-4.99508-3.85296-4.99508-3.85296c-.37252-.33113-.96141-.06671-.96141.43172v12.84246c0,.49842.58889.76288.96141.43175l4.99508-3.85297h3.46586c.31904,0,.57764-.25864.57764-.57764v-4.84471Z"/>
</svg>