<?xml version="1.0" encoding="UTF-8"?>
<svg id="icons" xmlns="http://www.w3.org/2000/svg" width="42" height="40" viewBox="0 0 42 40">
  <defs>
    <style>

      .fill{
        fill-rule: evenodd;
        fill: #000;
        opacity: .65;
      }
        

      .fillMedium {
        fill: #000;
        opacity: .3;
      }
    </style>
  </defs>
  <path class="fillMedium" d="M40,2v36H2V2h38ZM41,0H1C.44769,0,0,.44772,0,1v38c0,.55229.44769,1,1,1h40c.55231,0,1-.44771,1-1V1c0-.55228-.44769-1-1-1Z"/>
  <path class="fill" d="M7,15.00001c0-.55231.44769-1,1-1h6l7.33563-6.52057c.6449-.57324,1.66437-.11548,1.66437.74738v23.54633c0,.86285-1.01947,1.32068-1.66437.74744l-7.33563-6.52057h-6c-.55231,0-1-.44775-1-1v-10Z"/>
  <path class="fill" d="M26,16.54034v1.01414c0,.23009.1559.43825.38181.48192.92193.17821,1.61819.98956,1.61819,1.9636,0,.97399-.69626,1.78538-1.6182,1.9636-.22591.04367-.3818.25183-.3818.48192v1.01414c0,.31055.28047.54271.58771.49747,1.93053-.28426,3.41229-1.94768,3.41229-3.95713s-1.48176-3.67288-3.41229-3.95713c-.30724-.04524-.58771.18692-.58771.49747Z"/>
  <path class="fill" d="M26,11.52062v1.00133c0,.26742.21217.47615.47898.49418,3.64257.24615,6.52102,3.27883,6.52102,6.98387s-2.87845,6.73771-6.52102,6.98387c-.26681.01803-.47898.22676-.47898.49418v1.00133c0,.28406.2382.52196.5218.50574,4.72775-.27026,8.4782-4.18975,8.4782-8.98513s-3.75046-8.71487-8.4782-8.98513c-.2836-.01621-.5218.22168-.5218.50574Z"/>
</svg>