<?xml version="1.0" encoding="UTF-8"?>
<svg id="icons" xmlns="http://www.w3.org/2000/svg" width="42" height="40" viewBox="0 0 42 40">
  <defs>
    <style>

      .fill{
        fill-rule: evenodd;
        fill: #000;
        opacity: .65;
      }
        

      .fillMedium {
        fill: #000;
        opacity: .3;
      }
    </style>
  </defs>
  <path class="fillMedium" d="M40,2v36H2V2h38ZM41,0H1C.44769,0,0,.44772,0,1v38c0,.55229.44769,1,1,1h40c.55231,0,1-.44771,1-1V1c0-.55228-.44769-1-1-1Z"/>
  <path class="fill" d="M32,28.18359v-13.3252c1.72223-.44604,3-1.99683,3-3.8584,0-2.20923-1.79083-4-4-4-1.86176,0-3.41254,1.27783-3.85858,3h-3.32513c.11169-.31421.18372-.64746.18372-1,0-1.65674-1.34314-3-3-3s-3,1.34326-3,3c0,.35254.07202.68579.18372,1h-4.36743c-.41327-1.1626-1.51196-2-2.81628-2-1.65686,0-3,1.34326-3,3,0,1.3042.83746,2.40283,2,2.81641v14.36719c-1.16254.41357-2,1.51221-2,2.81641,0,1.65674,1.34314,3,3,3,1.30432,0,2.40302-.8374,2.81628-2h14.36743c.41327,1.1626,1.51196,2,2.81628,2,1.65686,0,3-1.34326,3-3,0-1.3042-.83746-2.40283-2-2.81641ZM31,33c-.73694,0-1.37488-.40527-1.7218-1h-.00079c-.17181-.29517-.2774-.63379-.2774-1s.10559-.70483.2774-1H12.7226c.17181.29517.2774.63379.2774,1s-.10559.70483-.2774,1h-.00079c-.34692.59473-.98492,1-1.7218,1-1.10284,0-2-.89722-2-2,0-.73682.40509-1.37476,1-1.72168v-.00098c.29517-.17188.63385-.27734,1-.27734s.70483.10547,1,.27734V12.72266c-.29517.17188-.63385.27734-1,.27734s-.70483-.10547-1-.27734v-.00098c-.59491-.34692-1-.98486-1-1.72168,0-1.10278.89716-2,2-2,.73688,0,1.37488.40527,1.7218,1h.00079c.17181.29517.2774.63379.2774,1s-.10559.70483-.2774,1h5.27734c.54584-.51489,1.09167-1.03003,1.63757-1.54492-.1405-.1333-.26202-.28662-.36011-.45508h.00079c-.1723-.29541-.2782-.63403-.2782-1,0-1.10278.89716-2,2-2,1.10278,0,2,.89722,2,2,0,.36597-.1059.70459-.2782,1h.00079c-.0907.15576-.20129.29858-.32849.42432.53516.52515,1.07031,1.05054,1.60541,1.57568h3.14191c.36285,1.40063,1.45776,2.49561,2.85858,2.8584v14.41895c.29517-.17188.63385-.27734,1-.27734s.70483.10547,1,.27734v.00098c.59485.34668,1,.98486,1,1.72168,0,1.10278-.89722,2-2,2Z"/>
</svg>