<svg xmlns="http://www.w3.org/2000/svg" data-name="S_CheckmarkCircle_18_N@2x" height="36" id="S_CheckmarkCircle_18_N_2x" viewBox="0 0 36 36" width="36">
  <defs>
    <style>
      .cls-1 {
        fill: #fff;
      }

      
    </style>
  </defs>
  <path class="cls-1" d="M18,2A16,16,0,1,0,34,18,16,16,0,0,0,18,2Zm10.666,9.08L16.018,27.34a1.2,1.2,0,0,1-.874.46H15.07a1.2,1.2,0,0,1-.85-.352l-7.786-7.8a1.2,1.2,0,0,1,0-1.7h0L7.76,16.624a1.2,1.2,0,0,1,1.7,0L14.8,21.982,25.312,8.474A1.2,1.2,0,0,1,27,8.273h0l1.456,1.132A1.2,1.2,0,0,1,28.666,11.08Z" id="Shape" />
  </svg>