<svg xmlns="http://www.w3.org/2000/svg" width="12" height="16" viewBox="0 0 12 16">

  <defs>
    <style>
      .fill {
        fill: #6e6e6e;
        fill-rule: evenodd;
      }
    </style>
  </defs>

	<g id="Chevron">
		<path id="Shape" class="fill" d="M11,8c0-0.4-0.2-0.8-0.4-1.1C9.4,5.7,6.5,3,4.1,0.5C3.8,0.2,3.4,0,3,0C2.2,0,1.5,0.7,1.5,1.5
			c0,0.4,0.2,0.8,0.4,1.1L7.4,8L2,13.4c-0.3,0.3-0.4,0.7-0.4,1.1C1.5,15.3,2.2,16,3,16c0.4,0,0.8-0.2,1.1-0.4l6.5-6.5
			C10.8,8.8,11,8.4,11,8z"/>
	</g>
</svg>
