<svg id="SP_ChevDown_Sm_N_D_2x" data-name="SP_ChevDown_Sm_N_D@2x" xmlns="http://www.w3.org/2000/svg" width="32" height="32" viewBox="0 0 32 32">
  <defs>
    <style>
      .fill {
        fill: #fff;
        fill-rule: evenodd;
        opacity: 0.65;
      }

      
    </style>
  </defs>
  <title>SP_ChevDown_Sm_N_D@2x</title>
  <path class="fill" d="M24,12.5v1a0.5,0.5,0,0,0,.5.5h1a0.5,0.5,0,0,0,.5-0.5v-1a0.5,0.5,0,0,0-.5-0.5h-1A0.5,0.5,0,0,0,24,12.5Zm-4,4v1a0.5,0.5,0,0,0,.5.5h1a0.5,0.5,0,0,0,.5-0.5v-1a0.5,0.5,0,0,0-.5-0.5h-1A0.5,0.5,0,0,0,20,16.5Zm-4,4v1a0.5,0.5,0,0,0,.5.5h1a0.5,0.5,0,0,0,.5-0.5v-1a0.5,0.5,0,0,0-.5-0.5h-1A0.5,0.5,0,0,0,16,20.5Zm0-4v1a0.5,0.5,0,0,0,.5.5h1a0.5,0.5,0,0,0,.5-0.5v-1a0.5,0.5,0,0,0-.5-0.5h-1A0.5,0.5,0,0,0,16,16.5Zm-4,0v1a0.5,0.5,0,0,0,.5.5h1a0.5,0.5,0,0,0,.5-0.5v-1a0.5,0.5,0,0,0-.5-0.5h-1A0.5,0.5,0,0,0,12,16.5Zm8-4v1a0.5,0.5,0,0,0,.5.5h1a0.5,0.5,0,0,0,.5-0.5v-1a0.5,0.5,0,0,0-.5-0.5h-1A0.5,0.5,0,0,0,20,12.5Zm-4,0v1a0.5,0.5,0,0,0,.5.5h1a0.5,0.5,0,0,0,.5-0.5v-1a0.5,0.5,0,0,0-.5-0.5h-1A0.5,0.5,0,0,0,16,12.5Zm-4,0v1a0.5,0.5,0,0,0,.5.5h1a0.5,0.5,0,0,0,.5-0.5v-1a0.5,0.5,0,0,0-.5-0.5h-1A0.5,0.5,0,0,0,12,12.5Zm-4,0v1a0.5,0.5,0,0,0,.5.5h1a0.5,0.5,0,0,0,.5-0.5v-1A0.5,0.5,0,0,0,9.5,12h-1A0.5,0.5,0,0,0,8,12.5Z"/>
  </svg>