<svg xmlns="http://www.w3.org/2000/svg" width="16" height="12" viewBox="0 0 16 12">

  <defs>
    <style>
      .fill {
        fill: #6e6e6e;
        fill-rule: evenodd;
      }
    </style>
  </defs>

	<g id="Chevron">
		<path id="Shape" class="fill" d="M9.1,10.6l6.5-6.5C15.8,3.8,16,3.4,16,3c0-0.8-0.7-1.5-1.5-1.5c-0.4,0-0.8,0.2-1.1,0.4L8,7.4
			L2.6,2C2.3,1.7,1.9,1.5,1.5,1.5C0.7,1.5,0,2.2,0,3c0,0.4,0.2,0.8,0.4,1.1C3,6.5,5.7,9.4,6.9,10.6C7.2,10.8,7.6,11,8,11
			C8.4,11,8.8,10.8,9.1,10.6z"/>
	</g>
</svg>
