<?xml version="1.0" encoding="UTF-8"?>
<svg id="icons" xmlns="http://www.w3.org/2000/svg" width="42" height="40" viewBox="0 0 42 40">
  <defs>
    <style>

      .fill{
        fill-rule: evenodd;
        fill: #000;
        opacity: .65;
      }
        

      .fillMedium {
        fill: #000;
        opacity: .3;
      }
    </style>
  </defs>
  <path class="fillMedium" d="M40,2v36H2V2h38ZM41,0H1C.44769,0,0,.44772,0,1v38c0,.55229.44769,1,1,1h40c.55231,0,1-.44771,1-1V1c0-.55228-.44769-1-1-1Z"/>
  <path class="fill" d="M32,28.18359v-14.36719c1.16254-.41357,2-1.51221,2-2.81641,0-1.65674-1.34314-3-3-3-1.30432,0-2.40302.8374-2.81628,2h-3.32513c.08325-.32129.14142-.65259.14142-1,0-2.20923-1.79083-4-4-4s-4,1.79077-4,4c0,.34741.05817.67871.14142,1h-3.32513c-.41327-1.1626-1.51196-2-2.81628-2-1.65686,0-3,1.34326-3,3,0,1.3042.83746,2.40283,2,2.81641v14.36719c-1.16254.41357-2,1.51221-2,2.81641,0,1.65674,1.34314,3,3,3,1.30432,0,2.40302-.8374,2.81628-2h14.36743c.41327,1.1626,1.51196,2,2.81628,2,1.65686,0,3-1.34326,3-3,0-1.3042-.83746-2.40283-2-2.81641ZM31,33c-.73688,0-1.37488-.40527-1.7218-1h-.00079c-.17181-.29517-.2774-.63379-.2774-1s.10559-.70483.2774-1H12.7226c.17181.29517.2774.63379.2774,1s-.10559.70483-.2774,1h-.00079c-.34692.59473-.98486,1-1.7218,1-1.10278,0-2-.89722-2-2,0-.73682.40515-1.375,1-1.72168v-.00098c.29517-.17188.63385-.27734,1-.27734s.70483.10547,1,.27734V12.72266c-.29517.17188-.63385.27734-1,.27734s-.70483-.10547-1-.27734v-.00098c-.59485-.34668-1-.98486-1-1.72168,0-1.10278.89722-2,2-2,.73694,0,1.37488.40527,1.7218,1h.00079c.17181.29517.2774.63379.2774,1s-.10559.70483-.2774,1h5.65698c.70331.61475,1.61285,1,2.62042,1s1.91711-.38525,2.62042-1h5.65698c-.17181-.29517-.2774-.63379-.2774-1s.10559-.70483.2774-1h.00079c.34692-.59473.98492-1,1.7218-1,1.10284,0,2,.89722,2,2,0,.73682-.40509,1.37476-1,1.72168v.00098c-.29517.17188-.63385.27734-1,.27734s-.70483-.10547-1-.27734v16.55469c.29517-.17188.63385-.27734,1-.27734s.70483.10547,1,.27734v.00098c.59491.34692,1,.98486,1,1.72168,0,1.10278-.89716,2-2,2Z"/>
</svg>