<svg id="S_ChannelMapping_Sm_N_D_2x" data-name="S_ChannelMapping_Sm_N_D@2x" xmlns="http://www.w3.org/2000/svg" width="32" height="32" viewBox="0 0 32 32">
  <defs>
    <style>
      .fill {
        fill: #fff;
        fill-rule: evenodd;
        opacity: 0.65;
      }

      
    </style>
  </defs>
  <title>S_ChannelMapping_Sm_N_D@2x</title>
  <path id="Fill" class="fill" d="M22,22.5v5a0.5,0.5,0,0,0,.5.5h5a0.5,0.5,0,0,0,.5-0.5v-5a0.5,0.5,0,0,0-.5-0.5h-5A0.5,0.5,0,0,0,22,22.5ZM4,4.5v5a0.5,0.5,0,0,0,.5.5h7A0.5,0.5,0,0,0,12,9.5V8h2v9.5a0.5,0.5,0,0,0,.5.5H22v1.5a0.5,0.5,0,0,0,.5.5h5a0.5,0.5,0,0,0,.5-0.5v-5a0.5,0.5,0,0,0-.5-0.5h-5a0.5,0.5,0,0,0-.5.5V16H16V6.5A0.5,0.5,0,0,0,15.5,6H12V4.5A0.5,0.5,0,0,0,11.5,4h-7A0.5,0.5,0,0,0,4,4.5Zm18,2v5a0.5,0.5,0,0,0,.5.5h5a0.5,0.5,0,0,0,.5-0.5v-5A0.5,0.5,0,0,0,27.5,6h-5A0.5,0.5,0,0,0,22,6.5Z"/>
  </svg>