<?xml version="1.0" encoding="UTF-8"?>
<svg id="icons" xmlns="http://www.w3.org/2000/svg" width="42" height="40" viewBox="0 0 42 40">
  <defs>
    <style>

      .fill{
        fill-rule: evenodd;
        fill: #000;
        opacity: .65;
      }
        

      .fillMedium {
        fill: #000;
        opacity: .3;
      }
    </style>
  </defs>
  <path class="fill" d="M22,17.57764c0-.31904-.25861-.57764-.57764-.57764h-3.46586s-4.99508-3.85296-4.99508-3.85296c-.37252-.33113-.96141-.06671-.96141.43172v12.84246c0,.49842.58889.76288.96141.43175l4.99508-3.85297h3.46586c.31904,0,.57764-.25864.57764-.57764v-4.84471Z"/>
  <path class="fill" d="M10,17.89406v.61732c0,.14006-.0949.26677-.23241.29335-.56119.10848-.98501.60236-.98501,1.19527,0,.59288.42382,1.08678.98502,1.19527.13751.02658.23241.15329.23241.29335v.61732c0,.18904-.17073.33035-.35775.30281-1.17514-.17303-2.0771-1.18557-2.0771-2.40875,0-1.22321.90197-2.23573,2.07711-2.40876.18702-.02754.35774.11378.35774.30281Z"/>
  <path class="fill" d="M10,14.83849v.60952c0,.16278-.12915.28984-.29156.30082-2.21728.14983-3.96943,1.99587-3.96943,4.25117,0,2.25527,1.75215,4.10133,3.96943,4.25117.16241.01098.29156.13803.29156.30082v.60952c0,.17291-.14499.31772-.31763.30785-2.87784-.16451-5.16079-2.55035-5.16079-5.46936,0-2.91904,2.28295-5.30485,5.16079-5.46936.17263-.00987.31763.13494.31763.30785Z"/>
  <path class="fillMedium" d="M25,17.57764c0-.31904.25861-.57764.57764-.57764h3.46586l4.99508-3.85296c.37252-.33113.96141-.06671.96141.43172v12.84246c0,.49842-.58889.76288-.96141.43175l-4.99508-3.85297h-3.46586c-.31904,0-.57764-.25864-.57764-.57764v-4.84471Z"/>
  <path class="fillMedium" d="M40,2v36H2V2h38ZM41,0H1C.44769,0,0,.44772,0,1v38c0,.55229.44769,1,1,1h40c.55231,0,1-.44771,1-1V1c0-.55228-.44769-1-1-1Z"/>
</svg>