<svg xmlns="http://www.w3.org/2000/svg" width="12" height="16" viewBox="0 0 12 16">

  <defs>
    <style>
      .fill {
        fill: #6e6e6e;
        fill-rule: evenodd;
      }
    </style>
  </defs>

	<g id="Chevron">
		<path id="Shape" class="fill" d="M1.4,9.1l6.5,6.5C8.2,15.8,8.6,16,9,16c0.8,0,1.5-0.7,1.5-1.5c0-0.4-0.2-0.8-0.4-1.1L4.6,8L10,2.6
			c0.3-0.3,0.4-0.7,0.4-1.1C10.5,0.7,9.8,0,9,0C8.6,0,8.2,0.2,7.9,0.5C5.5,3,2.6,5.7,1.4,6.9C1.2,7.2,1,7.6,1,8
			C1,8.4,1.2,8.8,1.4,9.1z"/>
	</g>
</svg>
