<svg xmlns="http://www.w3.org/2000/svg" data-name="S_CheckmarkCircle_18_N_D@2x" height="36" id="S_CheckmarkCircle_18_N_D_2x" viewBox="0 0 36 36" width="36">
  <defs>
    <style>
	.fill {
        fill: #fff;
        fill-rule: evenodd;
        opacity: 0.65;
      }</style>
  </defs>
  <title>S_CheckmarkCircle_18_N_D@2x</title>
  <path class="fill" d="M18,2A16,16,0,1,0,34,18,16,16,0,0,0,18,2Zm10.666,9.08L16.018,27.341a1.208,1.208,0,0,1-.875.461c-.023,0-.049,0-.072,0a1.2,1.2,0,0,1-.85-.352L6.436,19.657a1.2,1.2,0,0,1,0-1.7l1.326-1.325a1.2,1.2,0,0,1,1.7,0L14.8,21.981,25.315,8.473A1.2,1.2,0,0,1,27,8.263L28.455,9.4A1.2,1.2,0,0,1,28.666,11.08Z" />
  </svg>