<svg id="S_CheckboxSelected_Sm_N_D_2x" data-name="S_CheckboxSelected_Sm_N_D@2x" xmlns="http://www.w3.org/2000/svg" width="32" height="32" viewBox="0 0 32 32">
  <defs>
    <style>
      .fill {
        fill: #fff;
        fill-rule: evenodd;
        opacity: 0.65;
      }

      
    </style>
  </defs>
  <title>S_CheckboxSelected_Sm_N_D@2x</title>
  <path class="fill" d="M4,6H26V28H4V6ZM2,5V29a1,1,0,0,0,1,1H27a1,1,0,0,0,1-1V5a1,1,0,0,0-1-1H3A1,1,0,0,0,2,5Z"/>
  <path id="Fill" class="fill" d="M7.881,18.544l4.674,5.072a0.5,0.5,0,0,0,.776-0.05L21.5,12.039a0.5,0.5,0,0,0-.061-0.649l-1.013-.978a0.5,0.5,0,0,0-.761.079l-6.635,9.783L9.765,16.721a0.5,0.5,0,0,0-.721-0.016L7.9,17.851A0.5,0.5,0,0,0,7.881,18.544Z"/>
  </svg>