<?xml version="1.0" encoding="UTF-8"?>
<svg xmlns="http://www.w3.org/2000/svg" width="44" height="36" viewBox="0 0 44 36">
  <defs>
    <style>
      .green {
        fill: #149b14;
      }

      .iconWhite {
        fill: #fff;
      }

      .fillMedium {
        fill: #fff;
        opacity: .3;
      }
    </style>
  </defs>
  <g id="ImportedIcons-3" data-name="ImportedIcons">
    <path class="fillMedium" d="m24.11085,22.88915c.00234-5.13047,3.55178-9.5777,8.554-10.71765.00049-.03918.00794-.07641.00794-.11572-.00024-4.74727-3.84887-8.5955-8.59614-8.59526-4.3179.00022-7.96551,3.20367-8.52325,7.4854-3.86366-1.03596-7.83558,1.25634-8.87154,5.11999-.32843,1.2249-.3295,2.51457-.00309,3.74001-2.21557-.38452-4.32336,1.09983-4.70788,3.3154-.38452,2.21557,1.09983,4.32336,3.3154,4.70788.22988.0399.46276.05996.69607.05997h19.339c-.79524-1.54675-1.21022-3.26081-1.21051-5.00002Z"/>
  </g>
  <g id="ImportedIcons-5" data-name="ImportedIcons">
    <path class="green" d="m35.25,14c-4.83252,0-8.75,3.91748-8.75,8.75s3.91748,8.75,8.75,8.75,8.75-3.91748,8.75-8.75-3.91754-8.75-8.75-8.75Zm5.47943,5.41174l-6.56354,8.44666c-.11627.14844-.29041.24023-.47852.2522-.01288.00098-.02673.00098-.03955.00098-.17426.00024-.34143-.06897-.46466-.19226l-4.25745-4.26282c-.25635-.25635-.25641-.67175-.00012-.9281,0,0,.00006-.00012.00012-.00012l.72522-.72461c.25635-.25537.67078-.25537.92712,0l2.9234,2.92383,5.39508-6.94165c.22314-.28577.63538-.33716.92175-.11487l.79578.61951c.28503.22327.33655.63464.11536.92126Z"/>
    <path class="iconWhite" d="m40.72941,19.41176l-6.56355,8.4467c-.11624.14844-.29035.24016-.47852.25208-.01282.00107-.0267.00107-.03952.00107-.17427.00018-.34144-.069-.46463-.19226l-4.2575-4.26285c-.25631-.25625-.25637-.67176-.00012-.92808.00004-.00004.00008-.00008.00012-.00012l.72525-.72471c.25632-.25528.6708-.25528.92712,0l2.92343,2.92397,5.39504-6.94173c.22313-.28573.63538-.33709.92179-.11482l.79575.61951c.28503.22323.33654.63463.11535.92125Z"/>
  </g>
</svg>