<?xml version="1.0" encoding="UTF-8"?>
<svg id="ImportedIcons-3" data-name="ImportedIcons" xmlns="http://www.w3.org/2000/svg" width="44" height="36" viewBox="0 0 44 36">
  <defs>
    <style>
      .fill{
        fill: #b9b9b9;
        fill-rule: evenodd;
      }

      .background {
        opacity: .65;
        fill-rule: evenodd;
      }
      .fillMedium {
        fill: #fff;
        opacity: .3;
        fill-rule: evenodd;
      }
    </style>
  </defs>
  <path class="fillMedium" d="M24,23c.00234-5.13047,3.55178-9.5777,8.554-10.71765,.00048-.03919,.00793-.07642,.00793-.11572-.00006-4.74727-3.84854-8.59565-8.59582-8.59558-4.31814,.00006-7.966,3.20373-8.52362,7.48571-3.86366-1.03596-7.83558,1.25634-8.87154,5.11999-.32843,1.2249-.3295,2.51457-.00309,3.74001-2.21556-.38455-4.32337,1.09977-4.70793,3.31533-.38455,2.21556,1.09977,4.32337,3.31533,4.70793,.22991,.03991,.46283,.05997,.69618,.05998H25.21046c-.79522-1.54675-1.21018-3.26081-1.21046-5Z"/>
  <path class="fill" d="M35,14.25024c-4.83252,0-8.75,3.91748-8.75,8.75s3.91748,8.75,8.75,8.75,8.75-3.91754,8.75-8.75-3.91748-8.75-8.75-8.75Zm3.8891,11.22485c.19525,.19525,.19525,.51184,0,.70709l-.70709,.70709c-.19525,.19525-.51184,.19525-.70709,0l-2.47491-2.47485-2.47491,2.47485c-.19525,.19525-.51178,.19525-.70709,0l-.70703-.70709c-.19531-.19525-.19531-.51184,0-.70709l2.47485-2.47485-2.47491-2.47491c-.19525-.19525-.19525-.51184,0-.70709l.70709-.70709c.19531-.19531,.5119-.19531,.70715,0l2.47485,2.47485,2.47485-2.47491c.19525-.19525,.51184-.19525,.70709,0l.70715,.70715c.19525,.19525,.19525,.51184,0,.70709l-2.47485,2.47491,2.47485,2.47485Z"/>
  <path class="background" d="M38.8891,19.81826l-.70713-.70714c-.19526-.19526-.51184-.19526-.70711,0l-2.47486,2.47488-2.47487-2.47487c-.19526-.19526-.51184-.19526-.70711,0l-.7071,.70713c-.19525,.19526-.19525,.51183,0,.70709l2.47489,2.47489-2.47488,2.47488c-.19526,.19526-.19526,.51184,0,.7071l.70708,.70708c.19526,.19526,.51184,.19526,.7071,0l2.47489-2.47488,2.47489,2.47489c.19526,.19526,.51184,.19526,.7071,0l.70712-.7071c.19526-.19526,.19526-.51184,0-.70711l-2.47487-2.47487,2.47487-2.47488c.19525-.19526,.19524-.51183-.00001-.70709Z"/>
</svg>