<?xml version="1.0" encoding="UTF-8"?>
<svg id="ImportedIcons-3" data-name="ImportedIcons" xmlns="http://www.w3.org/2000/svg" width="44" height="36" viewBox="0 0 44 36">
  <defs>
    <style>
      .red, .cls-1 {
        fill: #f53c3c;
      }

      .iconWhite {
        fill: #fff;
      }

      .cls-1 {
        fill-rule: evenodd;
      }

      .fillMedium {
        fill: #fff;
        opacity: .3;
      }
    </style>
  </defs>
  <path class="fillMedium" d="M24.11085,22.88915c.00234-5.13047,3.55178-9.5777,8.554-10.71765,.00049-.03918,.00794-.07641,.00794-.11572-.00024-4.74727-3.84887-8.5955-8.59614-8.59526-4.3179,.00022-7.96551,3.20367-8.52325,7.4854-3.86366-1.03596-7.83558,1.25634-8.87154,5.11999-.32843,1.2249-.3295,2.51457-.00309,3.74001-2.21557-.38452-4.32336,1.09983-4.70788,3.3154-.38452,2.21557,1.09983,4.32336,3.3154,4.70788,.22988,.0399,.46276,.05996,.69607,.05997H25.32136c-.79524-1.54675-1.21022-3.26081-1.21051-5.00002Z"/>
  <path class="cls-1" d="M35.11047,14.13916c-4.83246,0-8.75,3.91748-8.75,8.75s3.91754,8.75,8.75,8.75,8.75-3.91754,8.75-8.75-3.91748-8.75-8.75-8.75Zm-1.29834,2.28552c0-.06213,.1748-.15942,.30188-.20801,.31128-.0929,.63708-.12762,.96094-.10242,.34088-.01764,.6825,.01691,1.01294,.10242,.1311,.04858,.32166,.1604,.32166,.20801v1.61475c-.0387,1.86157-.18103,3.71954-.42639,5.56531,0,.04773-.03259,.28442-.19031,.28442h-1.36646c-.10474,0-.17041-.22217-.19556-.28442-.05188-.44348-.4187-3.80884-.4187-5.56531v-1.61475Zm1.30023,12.34863c-.79645,.00043-1.44244-.6449-1.44287-1.44128-.00043-.79645,.64484-1.44244,1.44128-1.44287,.79633,.00024,1.44196,.64532,1.44287,1.44165,.00024,.79626-.64496,1.44208-1.44128,1.4425Z"/>
  <path class="iconWhite" d="M34.4264,23.88915h1.36645c.15772,0,.19031-.23666,.19031-.28439,.24535-1.84575,.3877-3.70373,.42639-5.56531v-1.61474c0-.04761-.19055-.15943-.32165-.208-.33046-.08554-.67205-.12008-1.01294-.10242-.32389-.02522-.64965,.00951-.96094,.10242-.12707,.04858-.30188,.14587-.30188,.208v1.61474c0,1.75647,.36682,5.12183,.4187,5.56531,.02516,.06224,.09082,.28439,.19556,.28439Z"/>
  <path class="iconWhite" d="M35.11079,25.88915c-.79644,.00044-1.44173,.64643-1.44129,1.44287,.00043,.79644,.64643,1.44172,1.44287,1.44129,.7963-.00044,1.44152-.64621,1.44129-1.44251-.00095-.79629-.64659-1.44138-1.44287-1.44165Z"/>
</svg>