<svg xmlns="http://www.w3.org/2000/svg" width="36" height="36" viewBox="0 0 36 36">
  <defs>
    <style>
      .fill {
        fill: #fff;
        opacity: 0.65;
      }
    </style>
  </defs>
  <g id="i_c_o_n_s" data-name="i c o n s">
    <path class="fill" d="M31.5,6H4.5A4.5001,4.5001,0,0,0,0,10.5v15A4.5001,4.5001,0,0,0,4.5,30h27A4.5001,4.5001,0,0,0,36,25.5v-15A4.5001,4.5001,0,0,0,31.5,6ZM16.6626,13.612a.80973.80973,0,0,1-.3692.715l-.3236.2-.4586-.1826a5.948,5.948,0,0,0-2.3422-.3764,3.72131,3.72131,0,0,0-4.02,4.0012,3.81628,3.81628,0,0,0,4.0614,4.0416,6.58258,6.58258,0,0,0,2.2782-.3074l.309-.1084.3812.163a.78668.78668,0,0,1,.3612.6912v1.8122a.935.935,0,0,1-.5702.8976,9.63231,9.63231,0,0,1-3.0646.416c-4.6574,0-7.667-2.9612-7.667-7.5442,0-4.5494,3.2044-7.6058,7.9722-7.6058a7.57321,7.57321,0,0,1,2.922.4038.9087.9087,0,0,1,.5302.8486Zm13.5,0a.80973.80973,0,0,1-.3692.715l-.3236.2-.4586-.1826a5.948,5.948,0,0,0-2.3422-.3764,3.72131,3.72131,0,0,0-4.02,4.0012,3.81628,3.81628,0,0,0,4.0614,4.0416,6.58258,6.58258,0,0,0,2.2782-.3074l.309-.1084.3812.163a.78668.78668,0,0,1,.3612.6912v1.8122a.935.935,0,0,1-.5702.8976,9.63231,9.63231,0,0,1-3.0646.416c-4.6574,0-7.667-2.9612-7.667-7.5442,0-4.5494,3.2044-7.6058,7.9722-7.6058a7.57321,7.57321,0,0,1,2.922.4038.9087.9087,0,0,1,.5302.8486Z"/>
  </g>
</svg>
