<svg xmlns="http://www.w3.org/2000/svg" width="96" height="96" viewBox="0 0 96 96">
  <defs>
    <style>
      .fill {
        fill: #fff;
        opacity: 0.65;
      }
    </style>
  </defs>
  <g id="i_c_o_n_s" data-name="i c o n s">
    <path class="fill" d="M75,24H21a9.00013,9.00013,0,0,0-9,9V63a9.00021,9.00021,0,0,0,9,9H75a9.00021,9.00021,0,0,0,9-9V33A9.00013,9.00013,0,0,0,75,24ZM45.471,39.55676q0,.527-.46094.38379a10.23368,10.23368,0,0,0-2.529-.71692,19.03291,19.03291,0,0,0-3.0846-.23962,10.68247,10.68247,0,0,0-4.80212,1.00329,7.252,7.252,0,0,0-3.13184,2.94263,9.53933,9.53933,0,0,0-1.11487,4.807,10.78161,10.78161,0,0,0,.53577,3.61084,7.67626,7.67626,0,0,0,1.46155,2.559,7.13534,7.13534,0,0,0,2.15491,1.67334,11.08491,11.08491,0,0,0,2.62353.9342,13.12246,13.12246,0,0,0,2.87586.31067,24.16787,24.16787,0,0,0,2.45813-.11975,13.27044,13.27044,0,0,0,2.32031-.455c.15356-.063.26-.07922.323-.04663q.09467.0456.0946.28626v6.123a.59454.59454,0,0,1-.4176.62146,13.81985,13.81985,0,0,1-2.8324.597A30.34573,30.34573,0,0,1,38.65186,64a21.27984,21.27984,0,0,1-5.44825-.67017A16.61138,16.61138,0,0,1,28.61035,61.368a13.50653,13.50653,0,0,1-3.54944-3.20471,13.9095,13.9095,0,0,1-2.27307-4.44751A19.06383,19.06383,0,0,1,22,48.02332a15.88765,15.88765,0,0,1,2.17847-8.41785,15.07958,15.07958,0,0,1,6.00757-5.597A18.85393,18.85393,0,0,1,39.06934,32a28.68735,28.68735,0,0,1,3.59668.19092,12.71921,12.71921,0,0,1,2.43457.528c.24816.09546.37036.34937.37036.76367Zm28.52905,0q0,.527-.46094.38379A10.23368,10.23368,0,0,0,71.01,39.22363a19.03073,19.03073,0,0,0-3.08459-.23962,10.68251,10.68251,0,0,0-4.80213,1.00329,7.25266,7.25266,0,0,0-3.13183,2.94263,9.53923,9.53923,0,0,0-1.11475,4.807,10.77857,10.77857,0,0,0,.53577,3.61084,7.67586,7.67586,0,0,0,1.46142,2.559,7.13534,7.13534,0,0,0,2.15491,1.67334,11.08591,11.08591,0,0,0,2.62366.9342,13.12041,13.12041,0,0,0,2.87573.31067,24.16787,24.16787,0,0,0,2.45813-.11975,13.26594,13.26594,0,0,0,2.32031-.455c.15369-.063.26-.07922.323-.04663q.09467.0456.0946.28626v6.123a.59453.59453,0,0,1-.4176.62146,13.81971,13.81971,0,0,1-2.8324.597A30.344,30.344,0,0,1,67.18091,64a21.27809,21.27809,0,0,1-5.44812-.67017A16.61209,16.61209,0,0,1,57.1394,61.368,13.50649,13.50649,0,0,1,53.59,58.16333a13.90907,13.90907,0,0,1-2.273-4.44751,19.05952,19.05952,0,0,1-.788-5.6925,15.88774,15.88774,0,0,1,2.17847-8.41785,15.08076,15.08076,0,0,1,6.00769-5.597A18.85325,18.85325,0,0,1,67.59851,32a28.68724,28.68724,0,0,1,3.59668.19092,12.71553,12.71553,0,0,1,2.43445.528c.24829.09546.37036.34937.37036.76367Z"/>
  </g>
</svg>
