<?xml version="1.0" encoding="UTF-8"?>
<svg id="ImportedIcons-3" data-name="ImportedIcons" xmlns="http://www.w3.org/2000/svg" width="44" height="36" viewBox="0 0 44 36">
  <defs>
    <style>
      .fill{
        fill: #b9b9b9;
        fill-rule: evenodd;
      }

    </style>
  </defs>
  <path class="fill" d="M33.12513,27.88915c3.74765,.00443,6.78931-3.03005,6.79374-6.77769,.00443-3.74765-3.03004-6.78931-6.77769-6.79374-.27185,.00011-.52745,.01453-.78164,.04319,1.27243-4.57395-1.40397-9.31337-5.97792-10.58581s-9.31337,1.40397-10.58581,5.97792c-.10889,.39143-.1899,.79009-.24241,1.19298-3.86351-1.03611-7.83544,1.25596-8.87155,5.11947-.32853,1.22504-.3296,2.51487-.00311,3.74045-2.21557-.38452-4.32337,1.09984-4.70789,3.31542-.38452,2.21557,1.09984,4.32337,3.31542,4.70789,.22986,.03989,.46272,.05996,.69601,.05997l27.14285-.00004Z"/>
</svg>