<svg id="S_ClearInMark_Lg_N_D_2x" data-name="S_ClearInMark_Lg_N_D@2x" xmlns="http://www.w3.org/2000/svg" width="44" height="36" viewBox="0 0 44 36">
  <defs>
    <style>
      .fill {
        fill: #fff;
        fill-rule: evenodd;
        opacity: 0.65;
      }

      
    </style>
  </defs>
  <title>S_ClearInMark_Lg_N_D@2x</title>
  <path class="fill" d="M9,6H19a1,1,0,0,1,1,1V9a1,1,0,0,1-1,1H9A1,1,0,0,1,8,9V7A1,1,0,0,1,9,6Z"/>
  <path id="Fill" class="fill" d="M28,5v9l-4,3,4,3v9a1,1,0,0,1-1,1H25a1,1,0,0,1-1-1V20l-4-3,4-3V5a1,1,0,0,1,1-1h2A1,1,0,0,1,28,5Z"/>
  </svg>