<svg xmlns="http://www.w3.org/2000/svg" width="44" height="36" viewBox="0 0 44 36">
  <defs>
    <style>
      .fill {
        fill: #fff;
        fill-rule: evenodd;
        opacity: 0.65;
      }
    </style>
  </defs>
  <g id="icons">
    <path class="fill" d="M37.38208,21.98494a.45625.45625,0,0,1-.45813-.45825.439.439,0,0,1,.135-.31787l1.57678-1.59253a5.50471,5.50471,0,0,0-9.63269,1.30676.89054.89054,0,0,1-.83984.56287H27.02673a.69164.69164,0,0,1-.65686-.886,8.07545,8.07545,0,0,1,14.0929-2.809l1.13635-1.13635a.44029.44029,0,0,1,.31873-.13513.45542.45542,0,0,1,.45813.45642l.00586,4.55444a.454.454,0,0,1-.45423.45459Z"/>
    <path class="fill" d="M26.01953,24.569a.45294.45294,0,0,1,.45325-.45459h4.54553a.45653.45653,0,0,1,.45459.45825.44423.44423,0,0,1-.13318.31787l-1.58215,1.582a5.50551,5.50551,0,0,0,9.63281-1.30517.89038.89038,0,0,1,.83972-.56287h1.13733a.68994.68994,0,0,1,.656.88428,8.07663,8.07663,0,0,1-14.09278,2.81079L26.79419,29.436a.4472.4472,0,0,1-.31775.13305.45536.45536,0,0,1-.45825-.45459S26.02039,25.80115,26.01953,24.569Z"/>
    <path class="fill" d="M23,23A10.96391,10.96391,0,0,1,35.99353,12.18945c-.01929-.08691-.03638-.14941-.04492-.14148-.198-4.94336-3.7-8.63049-9.19275-8.63049a7.92542,7.92542,0,0,0-.802.03857c-4.39942.36829-7.38379,3.77906-8.45618,7.40467a9.38473,9.38473,0,0,0-2.54211-.35254A7.57822,7.57822,0,0,0,7.2019,17.8689a5.83971,5.83971,0,0,0,.16163,1.91125c-2.78638,0-4.9585,3.06738-4.9585,5.16431,0,2.44861,1.66492,5.02368,4.50574,5.02368,0,0,10.16113.01318,18.59643.02258A10.95434,10.95434,0,0,1,23,23Z"/>
  </g>
</svg>
