<svg xmlns="http://www.w3.org/2000/svg" width="32" height="32" viewBox="0 0 32 32">
  <defs>
    <style>
      .fill {
        fill: #fff;
        opacity: 0.65;
      }
    </style>
  </defs>
  <g id="i_c_o_n_s" data-name="i c o n s">
    <path class="fill" d="M28,6H4A3.88109,3.88109,0,0,0,0,9.75v12.5A3.88113,3.88113,0,0,0,4,26H28a3.88113,3.88113,0,0,0,4-3.75V9.75A3.88109,3.88109,0,0,0,28,6ZM14.97949,12.49512a.41808.41808,0,0,1-.40039.47882h-.06445l-.13672-.04682a4.69147,4.69147,0,0,0-1.07227-.276,9.12855,9.12855,0,0,0-1.3457-.09649,4.62464,4.62464,0,0,0-1.98144.391,2.81831,2.81831,0,0,0-1.252,1.11169,3.545,3.545,0,0,0-.44629,1.85291A3.91677,3.91677,0,0,0,8.5,17.29114,2.79824,2.79824,0,0,0,9.94336,18.8866a4.40751,4.40751,0,0,0,1.084.36468,6.37713,6.37713,0,0,0,1.21289.11414,9.23683,9.23683,0,0,0,1.06543-.05854,9.33254,9.33254,0,0,0,1.00684-.17358.46929.46929,0,0,1,.19043-.04.37982.37982,0,0,1,.35742.41156v2.59595a.54781.54781,0,0,1-.38574.54419,5.62293,5.62293,0,0,1-1.293.28375A15.02655,15.02655,0,0,1,11.66016,23a10.18407,10.18407,0,0,1-2.4834-.2887A7.84882,7.84882,0,0,1,7.07715,21.859a6.19116,6.19116,0,0,1-1.64942-1.416,6.08254,6.08254,0,0,1-1.0625-1.96307A7.812,7.812,0,0,1,4,16.02924,6.61429,6.61429,0,0,1,7.77637,9.86987,8.96826,8.96826,0,0,1,11.7998,9a12.70531,12.70531,0,0,1,1.70118.09265,5.87577,5.87577,0,0,1,1.11816.2428.575.575,0,0,1,.36035.60266Zm13.02051,0a.41808.41808,0,0,1-.40039.47882h-.06445l-.13672-.04682a4.69147,4.69147,0,0,0-1.07227-.276,9.12865,9.12865,0,0,0-1.3457-.09649,4.62469,4.62469,0,0,0-1.98145.391,2.81833,2.81833,0,0,0-1.252,1.11169,3.545,3.545,0,0,0-.44629,1.85291,3.91677,3.91677,0,0,0,.21973,1.38086,2.79824,2.79824,0,0,0,1.44336,1.59546,4.40751,4.40751,0,0,0,1.084.36468,6.377,6.377,0,0,0,1.21289.11414,9.237,9.237,0,0,0,1.06543-.05854A9.33254,9.33254,0,0,0,27.333,19.1333a.46929.46929,0,0,1,.19043-.04.37982.37982,0,0,1,.35742.41156v2.59595a.54783.54783,0,0,1-.38574.54419,5.62293,5.62293,0,0,1-1.293.28375A15.02661,15.02661,0,0,1,24.68066,23a10.184,10.184,0,0,1-2.48339-.2887,7.84882,7.84882,0,0,1-2.09961-.85229,6.19116,6.19116,0,0,1-1.64942-1.416,6.08254,6.08254,0,0,1-1.0625-1.96307,7.81171,7.81171,0,0,1-.36523-2.45068,6.61429,6.61429,0,0,1,3.77637-6.15937A8.96823,8.96823,0,0,1,24.82031,9a12.705,12.705,0,0,1,1.70117.09265,5.85854,5.85854,0,0,1,1.11817.2428A.575.575,0,0,1,28,9.93811Z"/>
  </g>
</svg>
