<svg xmlns="http://www.w3.org/2000/svg" width="44" height="36" viewBox="0 0 44 36">
  <defs>
    <style>
      :root {
        --Black: #000;
      }

      .fill {
        fill: #fff;
        fill-rule: evenodd;
      }

      .background, .fill {
        opacity: 0.65;
      }

      .background {
        fill: var(--Black, #000);
      }
    </style>
  </defs>
  <g id="icons">
    <path class="fill" d="M24,23.00024a11,11,0,0,1,11-11c.32031,0,.63544.02106.94879.04791-.19806-4.94342-3.7-8.63049-9.19281-8.63049a7.9198,7.9198,0,0,0-.80194.03851c-4.39947.36829-7.38379,3.77905-8.45624,7.40473a9.38462,9.38462,0,0,0-2.542-.35254A7.57827,7.57827,0,0,0,7.202,17.86907a5.83828,5.83828,0,0,0,.16168,1.91126c-2.78644,0-4.9585,3.06732-4.9585,5.16431,0,2.4486,1.66492,5.02368,4.50568,5.02368,0,0,10.98944.01416,19.597.02362A10.95432,10.95432,0,0,1,24,23.00024Z"/>
    <path class="fill" d="M35,14.25024a8.75,8.75,0,1,0,8.75,8.75A8.75,8.75,0,0,0,35,14.25024Zm3.8891,11.22485a.5.5,0,0,1,0,.7071l-.70709.70709a.5.5,0,0,1-.70709,0L35,24.41442l-2.47485,2.47486a.50009.50009,0,0,1-.70716,0l-.707-.70709a.49991.49991,0,0,1,0-.7071l2.47486-2.47485-2.47492-2.47492a.5.5,0,0,1,0-.70709l.70709-.70709a.5.5,0,0,1,.70716-.00006L35,21.586l2.47485-2.47491a.50009.50009,0,0,1,.70716,0l.70709.70715a.49989.49989,0,0,1,0,.70709l-2.47485,2.47492Z"/>
    <path class="background" d="M38.8891,19.81826l-.70713-.70714a.5.5,0,0,0-.70711,0L35,21.586l-2.47487-2.47487a.5.5,0,0,0-.70711,0l-.7071.70713a.5.5,0,0,0,0,.70709l2.47489,2.47489-2.47488,2.47488a.5.5,0,0,0,0,.7071l.70708.70708a.5.5,0,0,0,.7071,0L35,24.41442l2.47489,2.47489a.5.5,0,0,0,.7071,0l.70712-.7071a.5.5,0,0,0,0-.70711l-2.47487-2.47487,2.47487-2.47488A.5.5,0,0,0,38.8891,19.81826Z"/>
  </g>
</svg>
