<?xml version="1.0" encoding="UTF-8"?>
<svg id="ImportedIcons-5" data-name="ImportedIcons" xmlns="http://www.w3.org/2000/svg" width="36" height="36" viewBox="0 0 36 36">
  <defs>
    <style>
      .fill, .cls-1 {
        fill: #b9b9b9;
      }

      .cls-1 {
        fill-rule: evenodd;
      }
    </style>
  </defs>
  <path class="cls-1" d="m29.314,6.686c-6.24827-6.2485-16.37891-6.24869-22.62742-.00042-6.2485,6.24827-6.24869,16.37891-.00042,22.62742,6.24827,6.2485,16.37891,6.24869,22.62742.00042l.00042-.00042c6.24811-6.24834,6.24811-16.37866,0-22.627Zm-2.687,18.527l-1.414,1.414c-.46782.46944-1.22761.47076-1.69705.00295-.00098-.00098-.00197-.00196-.00295-.00295l-5.513-5.516-5.516,5.516c-.46782.46944-1.22761.47076-1.69705.00295-.00098-.00098-.00197-.00196-.00295-.00295l-1.409-1.415c-.46944-.46782-.47076-1.22761-.00295-1.69705.00098-.00098.00196-.00197.00295-.00295l5.514-5.512-5.514-5.516c-.46944-.46782-.47076-1.22761-.00295-1.69705.00098-.00098.00196-.00197.00295-.00295l1.414-1.414c.46782-.46944,1.22761-.47076,1.69705-.00295.00098.00098.00197.00196.00295.00295l5.511,5.518,5.516-5.515c.46782-.46944,1.22761-.47076,1.69705-.00295.00098.00098.00197.00196.00295.00295l1.414,1.414c.46944.46782.47076,1.22761.00295,1.69705-.00098.00098-.00196.00197-.00295.00295l-5.519,5.513,5.516,5.516c.46944.46782.47076,1.22761.00295,1.69705-.00098.00098-.00196.00197-.00295.00295v-.003Z"/>
</svg>