<svg xmlns="http://www.w3.org/2000/svg" width="44" height="36" viewBox="0 0 44 36">
  <defs>
    <style>
      .fill {
        fill: #fff;
        fill-rule: evenodd;
        opacity: 0.65;
      }
    </style>
  </defs>
  <g id="icons">
    <path class="fill" d="M35.9678,14.43364c-.06651,0-.13094.00831-.197.01a9.779,9.779,0,0,0,.197-1.95573c0-5.165-3.556-9.07018-9.21186-9.07018a7.91736,7.91736,0,0,0-.80193.03846c-4.39947.36829-7.38378,3.77908-8.45622,7.40478a9.38377,9.38377,0,0,0-2.542-.35259A7.5783,7.5783,0,0,0,7.202,17.86906a5.83713,5.83713,0,0,0,.16169,1.91126c-2.78645,0-4.95854,3.06735-4.95854,5.16431,0,2.44861,1.665,5.0237,4.50567,5.0237,0,0,24.75829.0319,29.057.0319a7.7833,7.7833,0,0,0,0-15.56659Z"/>
  </g>
</svg>
