<?xml version="1.0" encoding="UTF-8"?>
<svg id="ImportedIcons-3" data-name="ImportedIcons" xmlns="http://www.w3.org/2000/svg" width="44" height="36" viewBox="0 0 44 36">
  <defs>
    <style>
      .fill{
        fill: #b9b9b9;
        fill-rule: evenodd;
      }
      .fillMedium {
        fill: #fff;
        opacity: .3;
        fill-rule: evenodd;
      }
    </style>
  </defs>
  <path class="fillMedium" d="M23,22.88914c.00257-5.51396,4.08923-10.17309,9.5558-10.89441-.03226-4.74543-3.90535-8.5662-8.65078-8.53394-4.29518,.0292-7.909,3.22564-8.4625,7.48511-3.86366-1.03596-7.83558,1.25634-8.87154,5.11999-.32843,1.2249-.3295,2.51457-.00309,3.74001-2.21556-.38459-4.3234,1.09971-4.70799,3.31527s1.09971,4.3234,3.31527,4.70799c.22995,.03992,.4629,.05999,.69629,.05999H24.21047c-.79522-1.54675-1.21019-3.26081-1.21047-5.00001Z"/>
  <path class="fill" d="M37.38208,21.8741c-.25198,.00104-.4571-.2024-.45813-.45438-.00032-.12383,.04846-.23868,.135-.32175l1.57678-1.59253c-1.77507-2.46814-5.21487-3.02999-7.68301-1.25493-.89064,.64054-1.56957,1.53259-1.94968,2.5617-.13599,.34374-.47021,.56773-.83984,.56286h-1.13647c-.38196-.0038-.68851-.31652-.68471-.69848,.00063-.06349,.01-.12659,.02785-.18752,1.22084-4.28959,5.68794-6.77731,9.97754-5.55647,1.62549,.46262,3.06487,1.42357,4.11536,2.74747l1.13635-1.13636c.08334-.08667,.19849-.13549,.31873-.13513,.25152-.0015,.45663,.20118,.45812,.4527,0,.00372,.00587,4.55817,.00587,4.55817,.00032,.25074-.20267,.45426-.45341,.45459-.00082,0-4.54634,.00006-4.54634,.00006Z"/>
  <path class="fill" d="M26.01953,24.45812c-.00091-.25015,.20114-.45368,.45129-.45459,.00196,0,4.54749,0,4.54749,0,.25205,.00107,.45554,.2062,.45459,.45825,.00019,.11956-.04782,.23416-.13318,.31788l-1.58215,1.582c1.77565,2.46827,5.21603,3.02975,7.6843,1.2541,.88979-.6401,1.56826-1.53124,1.94851-2.55928,.13594-.34373,.47012-.56773,.83972-.56286h1.13733c.38102,.00331,.68722,.31487,.68392,.69589-.00056,.06378-.00995,.12718-.02792,.18838-1.22159,4.29007-5.68967,6.77756-9.97973,5.55597-1.62431-.46252-3.06277-1.42259-4.11305-2.74518l-1.13647,1.13648c-.0839,.085-.19832,.13291-.31775,.13305-.25148,.0016-.45664-.20096-.45824-.45244,0-.00215,.0022-3.31547,.00134-4.54765Z"/>
</svg>