<svg xmlns="http://www.w3.org/2000/svg" width="64" height="64" viewBox="0 0 64 64">
  <defs>
    <style>
      .fill {
        fill: #fff;
        opacity: 0.65;
      }
    </style>
  </defs>
  <g id="i_c_o_n_s" data-name="i c o n s">
    <path class="fill" d="M50,16H14a6.00009,6.00009,0,0,0-6,6V42a6.00014,6.00014,0,0,0,6,6H50a6.00014,6.00014,0,0,0,6-6V22A6.00009,6.00009,0,0,0,50,16ZM30.314,26.37118q0,.35132-.30729.25585a6.82258,6.82258,0,0,0-1.686-.47794,12.68785,12.68785,0,0,0-2.0564-.15975,7.12166,7.12166,0,0,0-3.20141.66886A4.8347,4.8347,0,0,0,20.97493,28.62a6.35963,6.35963,0,0,0-.74324,3.20468,7.18753,7.18753,0,0,0,.35718,2.40722,5.11753,5.11753,0,0,0,.97436,1.706,4.7571,4.7571,0,0,0,1.43661,1.11556,7.39029,7.39029,0,0,0,1.749.6228,8.74871,8.74871,0,0,0,1.91724.20711,16.11284,16.11284,0,0,0,1.63875-.07983,8.84729,8.84729,0,0,0,1.54688-.30331c.10237-.042.17334-.05281.21533-.03108q.0631.03039.06307.19083v4.082a.39636.39636,0,0,1-.2784.41431,9.21273,9.21273,0,0,1-1.88827.398,20.23218,20.23218,0,0,1-2.19556.11239,14.18669,14.18669,0,0,1-3.63216-.44678A11.07455,11.07455,0,0,1,19.07357,40.912a9.00443,9.00443,0,0,1-2.36629-2.13648,9.27312,9.27312,0,0,1-1.51539-2.965,12.70951,12.70951,0,0,1-.52522-3.795A10.59176,10.59176,0,0,1,16.119,26.40365a10.05309,10.05309,0,0,1,4.005-3.73137,12.5693,12.5693,0,0,1,5.9222-1.339,19.12616,19.12616,0,0,1,2.39779.12728,8.48019,8.48019,0,0,1,1.62305.352c.16544.06364.2469.23291.2469.50912Zm19.01937,0q0,.35132-.30729.25585a6.82258,6.82258,0,0,0-1.686-.47794,12.68642,12.68642,0,0,0-2.0564-.15975,7.12173,7.12173,0,0,0-3.20142.66886A4.83516,4.83516,0,0,0,39.9943,28.62a6.35964,6.35964,0,0,0-.74316,3.20468,7.1855,7.1855,0,0,0,.35718,2.40722,5.11739,5.11739,0,0,0,.97428,1.706,4.757,4.757,0,0,0,1.43661,1.11556,7.3909,7.3909,0,0,0,1.7491.6228,8.74745,8.74745,0,0,0,1.91716.20711,16.11284,16.11284,0,0,0,1.63875-.07983,8.84412,8.84412,0,0,0,1.54687-.30331c.10246-.042.17334-.05281.21534-.03108q.06311.03039.06307.19083v4.082a.39635.39635,0,0,1-.27841.41431,9.21277,9.21277,0,0,1-1.88826.398,20.2311,20.2311,0,0,1-2.19556.11239,14.18561,14.18561,0,0,1-3.63208-.44678A11.07506,11.07506,0,0,1,38.09294,40.912a9.00447,9.00447,0,0,1-2.3663-2.13648,9.273,9.273,0,0,1-1.5153-2.965,12.70686,12.70686,0,0,1-.5253-3.795,10.59176,10.59176,0,0,1,1.45231-5.61189,10.05383,10.05383,0,0,1,4.00512-3.73137,12.56882,12.56882,0,0,1,5.9222-1.339,19.12616,19.12616,0,0,1,2.39779.12728,8.47786,8.47786,0,0,1,1.623.352c.16552.06364.2469.23291.2469.50912Z"/>
  </g>
</svg>
