<svg id="S_CloudWarning_18_N_D_2x" data-name="S_CloudWarning_18_N_D@2x" xmlns="http://www.w3.org/2000/svg" width="36" height="36" viewBox="0 0 36 36">
  <defs>
    <style>
      .cls-2, .fill {
        fill: #fff;
      }

      .fill {
        fill-rule: evenodd;
        opacity: 0.65;
      }

      .cls-1 {
        fill: #e68619;
      }

      .cls-3 {
        fill: #ff13dc;
        opacity: 0;
      }
    </style>
  </defs>
  <title>S_CloudWarning_18_N_D@2x</title>
  <path class="fill" d="M18.75,23.25a9.188,9.188,0,0,1,10.479-9.159,5.455,5.455,0,0,0,.044-.654A7.711,7.711,0,0,0,21.2,5.7a8.531,8.531,0,0,0-8.014,6.318,8.446,8.446,0,0,0-2.213-.295,6.483,6.483,0,0,0-6.752,6.156,4.862,4.862,0,0,0,.28,1.61c-.094-.006-.184-.023-.28-.023C1.791,19.466.04,22.045.04,23.8S1.767,28,3.9,28H20.073A9.2,9.2,0,0,1,18.75,23.25Z"/>
  <path class="cls-1" d="M28,16a7.25,7.25,0,1,1-7.25,7.251A7.273,7.273,0,0,1,28,16Z"/>
  <path class="cls-2" d="M26.612,27.608A1.388,1.388,0,1,1,28,29,1.389,1.389,0,0,1,26.612,27.608Zm2.672-8.556a48.238,48.238,0,0,1-.41,5.354c0,.046-.032.277-.183.277H27.376c-.1,0-.164-.217-.188-.277-.05-.427-.4-3.664-.4-5.354V17.5c0-.06.168-.154.29-.2A2.563,2.563,0,0,1,28,17.2a3.25,3.25,0,0,1,.974.1c.126.047.31.155.31.2Z"/>
  <rect id="ToDelete" class="cls-3" width="36" height="36"/>
</svg>
