<svg id="S_Close_Md_N_D_2x" data-name="S_Close_Md_N_D@2x" xmlns="http://www.w3.org/2000/svg" width="36" height="36" viewBox="0 0 36 36">
  <defs>
    <style>
      .fill {
        fill: #fff;
        fill-rule: evenodd;
        opacity: 0.65;
      }

      
    </style>
  </defs>
  <title>S_Close_Md_N_D@2x</title>
  <path class="fill" d="M26.486,6.293L18,14.778,9.516,6.293a1,1,0,0,0-1.414,0L6.686,7.707a1,1,0,0,0,0,1.414l8.485,8.485L6.686,26.092a1,1,0,0,0,0,1.414L8.1,28.92a1,1,0,0,0,1.414,0L18,20.435l8.485,8.485a1,1,0,0,0,1.414,0l1.414-1.414a1,1,0,0,0,0-1.414l-8.485-8.485,8.485-8.485a1,1,0,0,0,0-1.414L27.9,6.293a1,1,0,0,0-1.414,0h0Z"/>
  </svg>