<?xml version="1.0" encoding="UTF-8"?>
<svg id="i_c_o_n_s" data-name="i c o n s" xmlns="http://www.w3.org/2000/svg" width="32" height="32" viewBox="0 0 32 32">
  <defs>
    <style>
      .fill {
        fill: #b9b9b9;
        fill-rule: evenodd;
      }
    </style>
  </defs>
  <path class="fill" d="M25,14c3.85812,0,7,3.13856,7,7,0,3.85978-3.14188,7-7,7-3.86144,0-7-3.14022-7-7,0-3.86144,3.13856-7,7-7Zm-2.50014,3.22844c-.14341-.14341-.37644-.14341-.51985,0l-1.03611,1.03791c-.14341,.14341-.14341,.37465,0,.51805l2.37876,2.37696-2.37876,2.37876c-.14341,.14341-.14341,.37465,0,.51806l1.03611,1.0379c.14341,.14341,.37644,.14341,.51985,0l2.37696-2.37876,2.37876,2.37876c.14341,.14341,.37465,.14341,.51805,0l1.03611-1.0379c.14341-.14341,.14341-.37465,0-.51806l-2.37696-2.37876,2.37696-2.37696c.14341-.14341,.14341-.37465,0-.51805l-1.03611-1.03791c-.14341-.14341-.37465-.14341-.51805,0l-2.37876,2.37876-2.37696-2.37876Z"/>
  <path class="fill" d="M18.87167,6.01165c1.84559-.1071,3.65522,.52793,5.00369,1.75589,1.23563,1.1252,1.9842,2.65734,2.10682,4.2868-.32316-.0364-.65058-.05434-.98218-.05434-4.97056,0-9,4.02944-9,9,0,1.84972,.55801,3.5691,1.51488,4.999l-14.0187-.01705c-.98054-.0477-1.90081-.47375-2.55617-1.18341C.28466,24.08888-.05146,23.15444,.0064,22.20301c.14314-2.0279,1.76308-3.66452,3.84465-3.88424-.1234-.46936-.16582-.95534-.12552-1.43816,.0904-3.13592,2.77412-5.61146,6.00484-5.53903,.66589,.00066,1.32857,.08974,1.96959,.26477,.79015-2.99094,3.39332-5.20245,6.55186-5.56611,0,0,.02169-.01053,.61985-.02858Z"/>
</svg>