<svg xmlns="http://www.w3.org/2000/svg" width="44" height="36" viewBox="0 0 44 36">
  <defs>
    <style>
      :root {
        --Black: #000;
      }

      .fill {
        fill: #fff;
        fill-rule: evenodd;
      }

      .background, .fill {
        opacity: 0.65;
      }

      .background {
        fill: var(--Black, #000);
      }
    </style>
  </defs>
  <g id="icons">
    <path class="fill" d="M23.99984,23.00012a11,11,0,0,1,11-11c.32031,0,.63544.02106.94879.04791-.19806-4.94342-3.7-8.63049-9.19281-8.63049a7.9198,7.9198,0,0,0-.80194.03851c-4.39947.36829-7.38379,3.77906-8.45624,7.40473a9.385,9.385,0,0,0-2.542-.35254A7.57827,7.57827,0,0,0,7.20187,17.869a5.83822,5.83822,0,0,0,.16168,1.91125c-2.78644,0-4.9585,3.06732-4.9585,5.16431,0,2.44861,1.66492,5.02368,4.50568,5.02368,0,0,10.98944.01416,19.597.02362A10.9543,10.9543,0,0,1,23.99984,23.00012Z"/>
    <path class="fill" d="M34.99949,14.25a8.75,8.75,0,1,0,8.75,8.75A8.75,8.75,0,0,0,34.99949,14.25Zm-1.29834,2.7605c0-.06214.17481-.15943.30188-.208a2.64272,2.64272,0,0,1,.96094-.10242,3.35049,3.35049,0,0,1,1.01294.10242c.1311.04858.32166.1604.32166.208v1.61474a50.141,50.141,0,0,1-.4264,5.56531c0,.04773-.03259.28833-.1903.28833H34.31541c-.10474,0-.17041-.22607-.19556-.28833-.05188-.44348-.4187-3.80884-.4187-5.56531Zm1.29871,11.76306a1.44208,1.44208,0,1,1,1.44287-1.44251A1.44284,1.44284,0,0,1,34.99986,28.77356Z"/>
    <path class="background" d="M34.31541,24.479h1.36646c.15771,0,.1903-.2406.1903-.28833a50.141,50.141,0,0,0,.4264-5.56531V17.01058c0-.04761-.19056-.15943-.32166-.208a3.35049,3.35049,0,0,0-1.01294-.10242,2.64272,2.64272,0,0,0-.96094.10242c-.12707.04858-.30188.14587-.30188.208v1.61474c0,1.75647.36682,5.12183.4187,5.56531C34.145,24.25289,34.21067,24.479,34.31541,24.479Z"/>
    <path class="background" d="M34.9998,25.88948a1.44208,1.44208,0,1,0,1.44287,1.44165A1.44337,1.44337,0,0,0,34.9998,25.88948Z"/>
  </g>
</svg>
