<svg xmlns="http://www.w3.org/2000/svg" data-name="S_CloudOnly_18_N_D@2x" height="36" id="S_CloudOnly_18_N_D_2x" viewBox="0 0 36 36" width="36">
  <defs>
    <style>
	.fill {
        fill: #fff;
        opacity: 0.65;
      }</style>
  </defs>
  <title>S_CloudOnly_18_N_D@2x</title>
  <path class="fill" d="M29.153,14.592a6.146,6.146,0,0,0,.12-1.155A7.71,7.71,0,0,0,21.2,5.7a8.529,8.529,0,0,0-8.013,6.317,8.446,8.446,0,0,0-2.214-.3,6.483,6.483,0,0,0-6.752,6.156,4.861,4.861,0,0,0,.28,1.61c-.094-.006-.184-.023-.28-.023C1.791,19.466.04,22.045.04,23.8S1.767,28,3.9,28H29.611l1.286-.192a5.871,5.871,0,0,0,5.02-6.232C35.916,17.78,32.145,15.044,29.153,14.592Z" />
  </svg>