<svg xmlns="http://www.w3.org/2000/svg" width="128" height="128" viewBox="0 0 128 128">
  <defs>
    <style>
      .fill {
        fill: #fff;
        opacity: 0.65;
      }
    </style>
  </defs>
  <g id="i_c_o_n_s" data-name="i c o n s">
    <path class="fill" d="M100,32H28A12.00018,12.00018,0,0,0,16,44V84A12.00028,12.00028,0,0,0,28,96h72a12.00028,12.00028,0,0,0,12-12V44A12.00018,12.00018,0,0,0,100,32ZM60.62793,52.74235q0,.70263-.61458.51172a13.64492,13.64492,0,0,0-3.37207-.95589,25.37691,25.37691,0,0,0-4.1128-.3195,14.24328,14.24328,0,0,0-6.40283,1.33773,9.66923,9.66923,0,0,0-4.17578,3.9235,12.71906,12.71906,0,0,0-1.48649,6.40934,14.37561,14.37561,0,0,0,.71435,4.81445,10.23483,10.23483,0,0,0,1.94873,3.41195,9.51385,9.51385,0,0,0,2.87321,2.23112,14.78039,14.78039,0,0,0,3.498,1.24561,17.4974,17.4974,0,0,0,3.83447.41422,32.21987,32.21987,0,0,0,3.27751-.15967,17.69422,17.69422,0,0,0,3.09375-.6066c.20475-.084.34668-.10564.43066-.06218q.12622.06079.12614.38167v8.16407a.79269.79269,0,0,1-.5568.82861,18.42616,18.42616,0,0,1-3.77653.79606,40.46187,40.46187,0,0,1-4.39111.22477,28.37385,28.37385,0,0,1-7.26433-.89355,22.1488,22.1488,0,0,1-6.12434-2.61572,18.00886,18.00886,0,0,1-4.73259-4.273,18.546,18.546,0,0,1-3.03076-5.93,25.41817,25.41817,0,0,1-1.05046-7.59A21.18355,21.18355,0,0,1,32.238,52.80729a20.10618,20.10618,0,0,1,8.01009-7.46273,25.13848,25.13848,0,0,1,11.8444-2.67789,38.25236,38.25236,0,0,1,4.79557.25455,16.95933,16.95933,0,0,1,3.24609.70394c.3309.12728.49382.46582.49382,1.01823Zm38.03874,0q0,.70263-.61459.51172A13.64466,13.64466,0,0,0,94.68,52.29818a25.37383,25.37383,0,0,0-4.11279-.3195,14.24328,14.24328,0,0,0-6.40283,1.33773,9.6701,9.6701,0,0,0-4.17578,3.9235,12.71907,12.71907,0,0,0-1.48633,6.40934,14.37154,14.37154,0,0,0,.71435,4.81445,10.23454,10.23454,0,0,0,1.94857,3.41195,9.51385,9.51385,0,0,0,2.87321,2.23112,14.78162,14.78162,0,0,0,3.49821,1.24561,17.49482,17.49482,0,0,0,3.83431.41422,32.21987,32.21987,0,0,0,3.27751-.15967,17.68847,17.68847,0,0,0,3.09375-.6066c.20491-.084.34668-.10564.43066-.06218q.12623.06079.12614.38167v8.16407a.7927.7927,0,0,1-.5568.82861,18.42616,18.42616,0,0,1-3.77653.79606,40.45977,40.45977,0,0,1-4.39112.22477,28.37168,28.37168,0,0,1-7.26416-.89355,22.14988,22.14988,0,0,1-6.12451-2.61572,18.00882,18.00882,0,0,1-4.73258-4.273,18.5457,18.5457,0,0,1-3.0306-5.93,25.41287,25.41287,0,0,1-1.05062-7.59,21.18364,21.18364,0,0,1,2.90462-11.2238A20.10775,20.10775,0,0,1,78.287,45.34456a25.13757,25.13757,0,0,1,11.8444-2.67789,38.25236,38.25236,0,0,1,4.79557.25455,16.95466,16.95466,0,0,1,3.24593.70394c.33106.12728.49382.46582.49382,1.01823Z"/>
  </g>
</svg>
