<svg xmlns="http://www.w3.org/2000/svg" width="44" height="36" viewBox="0 0 44 36">
  <defs>
    <style>
      :root {
        --Black: #000;
      }

      .fill {
        fill: #fff;
        fill-rule: evenodd;
      }

      .background, .fill {
        opacity: 0.65;
      }

      .background {
        fill: var(--Black, #000);
      }
    </style>
  </defs>
  <g id="icons">
    <path class="fill" d="M24,23.00024a11,11,0,0,1,11-11c.32031,0,.63544.02106.94879.04791-.19806-4.94342-3.7-8.63049-9.19281-8.63049a7.9198,7.9198,0,0,0-.80194.03851c-4.39947.36829-7.38379,3.77905-8.45624,7.40473a9.38462,9.38462,0,0,0-2.542-.35254A7.57827,7.57827,0,0,0,7.202,17.86907a5.83828,5.83828,0,0,0,.16168,1.91126c-2.78644,0-4.9585,3.06732-4.9585,5.16431,0,2.4486,1.66492,5.02368,4.50568,5.02368,0,0,10.98944.01416,19.597.02362A10.95432,10.95432,0,0,1,24,23.00024Z"/>
    <path class="fill" d="M34.99982,14.25012a8.75,8.75,0,1,0,8.75,8.75A8.75,8.75,0,0,0,34.99982,14.25012Zm-1.00024,11.7528a1.00005,1.00005,0,0,1-1,1h-.2909a1.00005,1.00005,0,0,1-1-1V19.82116a1,1,0,0,1,1-1h.2909a1,1,0,0,1,1,1Zm4.29089,0a1,1,0,0,1-1,1h-.29089a1,1,0,0,1-1-1V19.82116a1,1,0,0,1,1-1h.29089a1,1,0,0,1,1,1Z"/>
    <rect class="background" x="31.70867" y="18.82114" width="2.29091" height="8.18182" rx="1"/>
    <rect class="background" x="35.99958" y="18.82114" width="2.29091" height="8.18182" rx="1"/>
  </g>
</svg>
