<?xml version="1.0" encoding="UTF-8"?>
<svg xmlns="http://www.w3.org/2000/svg" width="34" height="30" viewBox="0 0 34 30">
  <path fill="#000" opacity="0.65" d="M1,0h32c.55228,0,1,.44772,1,1v28c0,.55228-.44772,1-1,1H1c-.55228,0-1-.44772-1-1V1C0,.44772.44772,0,1,0Z"/>
  <path fill="#ebebeb" d="M21.43191,11.76067v-1.03753h-2.26375v9.62061h2.3581v-5.01779c0-.89291.23887-1.54061.7168-1.94298.20109-.18865.44016-.32702.7168-.41502.28924-.08805.64125-.13208,1.05622-.13208h.60367v-2.22592h-.58468c-1.15696,0-2.02468.38359-2.60316,1.15072h0Z"/>
  <path fill="#ebebeb" d="M15.02623,18.04237c-.3522.2767-.77978.41502-1.2829.41502-.50292,0-.93688-.11949-1.30148-.3584-.3648-.25156-.65404-.59737-.86772-1.03753-.20128-.44016-.30183-.94953-.30183-1.52801s.10054-1.08785.30183-1.52801c.21368-.44016.50292-.77967.86772-1.01864.3646-.25151.79856-.37724,1.30148-.37724.47794,0,.89311.13203,1.24511.39613.3522.25151.61626.60362.79236,1.05637h2.41447c-.22628-1.05637-.7356-1.91785-1.52796-2.58438-.79236-.67907-1.76683-1.01864-2.92399-1.01864-.96827,0-1.8172.23267-2.5466.69797-.7168.45275-1.2765,1.06896-1.67888,1.84868-.38979.76713-.58468,1.60971-.58468,2.52776s.19489,1.76693.58468,2.54665c.40237.76713.96207,1.38334,1.67888,1.84868.7294.4527,1.57834.67907,2.5466.67907.77978,0,1.48399-.15721,2.11284-.47159.62886-.32697,1.14437-.76713,1.54675-1.32047.40258-.56594.67283-1.20104.81115-1.90525h-2.39548c-.16351.47789-.42777.85513-.79236,1.13183h.00002Z"/>
  <path fill="#ebebeb" d="M16.9,1.8C9.66518,1.8,3.8,7.66507,3.8,14.9s5.86518,13.1,13.1,13.1h13.1v-13.1c0-7.23493-5.86518-13.1-13.1-13.1ZM27.72944,25.7294h-10.82945c-5.98091,0-10.82925-4.84853-10.82925-10.8294s4.84834-10.82935,10.82925-10.82935,10.82945,4.84849,10.82945,10.82935v10.8294Z"/>
</svg>