<?xml version="1.0" encoding="UTF-8"?>
<svg xmlns="http://www.w3.org/2000/svg" width="34" height="30" viewBox="0 0 34 30">
  <path fill="#000" opacity="0.65" d="M1,0h32c.55228,0,1,.44772,1,1v28c0,.55228-.44772,1-1,1H1c-.55228,0-1-.44772-1-1V1C0,.44772.44772,0,1,0Z"/>
  <path fill="#ebebeb" d="M18,27v-1.27063h-3.09998c-5.98096,0-10.82928-4.84851-10.82928-10.82941S8.91907,4.07062,14.90002,4.07062c5.67706,0,10.3255,4.37073,10.78394,9.92938h2.27063c-.46436-6.81329-6.1236-12.20001-13.05457-12.20001C7.66516,1.79999,1.79999,7.66504,1.79999,14.89996s5.86517,13.10004,13.10004,13.10004h3.2843c-.11206-.31433-.18433-.64764-.18433-1Z"/>
  <rect fill="#f53c3c" x="20" y="16" width="12" height="12" rx="1" ry="1"/>
  <path fill="#fff" d="M28.39288,18.27712c.17261-.17242.40636-.26966.65033-.27053.5271.02613.94459.45479.95682.98239-.01442.23059-.1257.44433-.30634.58837l-2.39359,2.41847,2.42685,2.42684c.35924.35958.35896.94229-.00061,1.30152-.17231.17215-.40583.26896-.64939.26925-.24414-.00081-.47806-.0981-.65076-.27067l-2.42617-2.42683-2.42614,2.42685c-.35798.35965-.93973.36101-1.29938.00303-.17368-.17288-.27111-.40797-.27063-.65303-.00056-.24393.09638-.47797.26926-.65005l2.42684-2.42684-2.39359-2.41846c-.18064-.14405-.29191-.35778-.30633-.58837.01222-.5276.42972-.95625.95681-.98239.24397.00088.47772.09811.65033.27053l2.39289,2.4186,2.39282-2.41866Z"/>
  <path fill="#ebebeb" d="M18,17c0-1.17273.6828-2.17981,1.66589-2.67291.11688-.39227.30304-.71332.57715-.94409.20111-.18866.44019-.32703.7168-.41504.28925-.08807.6413-.13208,1.05627-.13208h.60364v-2.22595h-.58466c-1.15698,0-2.02472.38361-2.60321,1.15076v-1.03754h-2.26373v9.62061h.83185v-3.34375Z"/>
  <path fill="#ebebeb" d="M13.02623,18.04237c-.3522.2767-.77978.41502-1.2829.41502-.50292,0-.93688-.11949-1.30148-.3584-.3648-.25156-.65404-.59737-.86772-1.03753-.20128-.44016-.30183-.94953-.30183-1.52801s.10054-1.08785.30183-1.52801c.21368-.44016.50292-.77967.86772-1.01864.3646-.25151.79856-.37724,1.30148-.37724.47794,0,.89311.13203,1.24511.39613.3522.25151.61626.60362.79236,1.05637h2.41447c-.22628-1.05637-.7356-1.91785-1.52796-2.58438-.79236-.67907-1.76683-1.01864-2.92399-1.01864-.96827,0-1.8172.23267-2.5466.69797-.7168.45275-1.2765,1.06896-1.67888,1.84868-.38979.76713-.58468,1.60971-.58468,2.52776s.19489,1.76693.58468,2.54665c.40237.76713.96207,1.38334,1.67888,1.84868.7294.4527,1.57834.67907,2.5466.67907.77978,0,1.48399-.15721,2.11284-.47159.62886-.32697,1.14437-.76713,1.54675-1.32047.40258-.56594.67283-1.20104.81115-1.90525h-2.39548c-.16351.47789-.42777.85513-.79236,1.13183h.00002Z"/>
</svg>