<?xml version="1.0" encoding="UTF-8"?>
<svg id="ICONS" xmlns="http://www.w3.org/2000/svg" width="24" height="24" viewBox="0 0 24 24">
  <defs>
    <style>
      .cls-1 {
        opacity: .7;
      }

      .cls-1, .cls-2, .cls-3, .cls-4, .cls-5, .cls-6 {
        fill: #b9b9b9;
        isolation: isolate;
      }

      .cls-2 {
        opacity: .8;
      }

      .cls-3 {
        opacity: .6;
      }

      .cls-4 {
        opacity: .33;
      }

      .cls-5 {
        opacity: .2;
      }

      .cls-6 {
        opacity: .47;
      }

      .cls-7 {
        fill: #fff;
        opacity: .85;
      }
    </style>
  </defs>
  <path class="cls-6" d="M17.6543,17.65405l-5.6543-5.65405v8c2.20557,0,4.20557-.89734,5.6543-2.34595Z"/>
  <path class="cls-4" d="M12,12l5.6543,5.65405c1.44849-1.44861,2.3457-3.44849,2.3457-5.65405h-8Z"/>
  <path class="cls-1" d="M4,12c0,2.20557.89722,4.20544,2.3457,5.65405l5.6543-5.65405H4Z"/>
  <path class="cls-3" d="M6.3457,17.65405c1.44873,1.44861,3.44873,2.34595,5.6543,2.34595v-8l-5.6543,5.65405Z"/>
  <path class="cls-2" d="M12,11.99988l-5.65405-5.65405c-1.44849,1.44861-2.34595,3.44849-2.34595,5.65417,0,0,8,0,8-.00012Z"/>
  <path class="cls-5" d="M17.65405,6.34583l-5.65405,5.65405c0,.00012,8,.00012,8,.00012,0-2.20569-.89746-4.20557-2.34595-5.65417Z"/>
  <path class="cls-7" d="M12,2C6.47705,2,2,6.47717,2,12s4.47705,10,10,10,10-4.47717,10-10S17.52295,2,12,2ZM11.98706,4.00134c4.42407-.00134,8.01294,3.5874,8.01294,7.99866s-3.58887,8-8,8-8-3.58875-8-8c0-2.20569.89746-4.20557,2.34595-5.65417l5.65405,5.65405-.01294-7.99854Z"/>
</svg>