<svg id="AD-1722" xmlns="http://www.w3.org/2000/svg" width="80" height="64" viewBox="0 0 80 64">
  <defs>
    <style>
       .fill {
        opacity: 0.65;
        fill: #fff;
      }
    </style>
  </defs>
    <title>S_CreativeCloud_40x32_N_D@2x</title>
    <path class="fill" d="M67.53,13.132A25.637,25.637,0,0,0,48.652,5a26.348,26.348,0,0,0-18.647,7.789c-.844-.076-1.688-.153-2.494-.153-13.7,0-22.178,11.454-22.178,22.068a22.736,22.736,0,0,0,6.216,15.424A21.91,21.91,0,0,0,27.511,57H48.652A25.981,25.981,0,0,0,67.53,13.132ZM27.127,53.3A18.307,18.307,0,1,1,39.252,21.3l.077.076,7.635,7.789a3.249,3.249,0,0,1-.077,4.619,3.288,3.288,0,0,1-4.642-.076L34.686,26A11.767,11.767,0,0,0,18.149,27.22a11.524,11.524,0,0,0-2.84,7.6A12.068,12.068,0,0,0,27.281,46.654h1.5v.038c2.149,2.978,8.173,6.6,8.173,6.6Zm37.64-6.6a21.974,21.974,0,0,1-15.731,6.719,22.929,22.929,0,0,1-15.808-6.872L23.175,36.5a3.285,3.285,0,0,1,.038-4.62,3.3,3.3,0,0,1,4.643.077l10.015,9.964a16.167,16.167,0,0,0,11.165,4.964,15.161,15.161,0,0,0,11.05-4.773,16.1,16.1,0,0,0,4.605-11.263A15.739,15.739,0,0,0,48.959,15.194a14.294,14.294,0,0,0-8.71,2.52c-.038-.038-.767-.5-1.573-.993-.5-.3-1.036-.611-1.5-.84-.461-.267-1.842-.916-2.648-1.26-.191-.076-.46-.19-.575-.229h.038A21.4,21.4,0,0,1,48.959,8.666,22.256,22.256,0,0,1,71.252,30.847,22.521,22.521,0,0,1,64.767,46.692Z"/>

</svg>
