<?xml version="1.0" encoding="UTF-8"?>
<svg id="ICONS" xmlns="http://www.w3.org/2000/svg" width="24" height="24" viewBox="0 0 24 24">
  <defs>
    <style>
      .fill {
        fill: #fff;
      }

      .fill, .background {
        opacity: .65;
      }
    </style>
  </defs>
  <rect class="background" width="24" height="24" rx="1" ry="1"/>
  <path class="fill" d="M12,10.53333c-.81002,0-1.46667.65665-1.46667,1.46667,0,.81002.65665,1.46667,1.46667,1.46667s1.46667-.65665,1.46667-1.46667-.65665-1.46667-1.46667-1.46667Z"/>
  <path class="fill" d="M12,2C6.47705,2,2,6.47717,2,12s4.47705,10,10,10,10-4.47717,10-10S17.52295,2,12,2ZM13,19.89893v-3.80585c-.32202.07855-.65369.1319-1,.1319s-.67798-.05334-1-.1319v3.80585c-3.60449-.45654-6.44238-3.29456-6.89893-6.89893h3.80591c-.07861-.32208-.13196-.65369-.13196-1s.05334-.67792.13196-1h-3.80591c.45654-3.60449,3.29443-6.44238,6.89893-6.89893v3.80579c.32202-.07855.65369-.1319,1-.1319s.67798.05334,1,.1319v-3.80579c3.60449.45654,6.44238,3.29443,6.89893,6.89893h-3.80591c.07861.32208.13196.65369.13196,1s-.05334.67792-.13196,1h3.80591c-.45654,3.60437-3.29443,6.44238-6.89893,6.89893Z"/>
</svg>