<svg xmlns="http://www.w3.org/2000/svg" data-name="S_CreativeCloudBright_18_N@2x" height="36" id="S_CreativeCloudBright_18_N_2x" viewBox="0 0 36 36" width="36">
  <title>S_CreativeCloudBright_18_N@2x</title>
  <path fill="#E8E8E8" d="M22.179,5.708a12.29,12.29,0,0,1,2.042,24.408s-1.646.176-2.989.176h-9.38a10.407,10.407,0,0,1-.006-20.813,10.8,10.8,0,0,1,1.362.086l.581-.544A12.239,12.239,0,0,1,22.179,5.708Zm0-1.308A13.541,13.541,0,0,0,12.9,8.066l-.148.138c-.3-.022-.6-.033-.9-.033A11.714,11.714,0,0,0,11.851,31.6h9.38c1.4,0,3.059-.176,3.128-.184A13.6,13.6,0,0,0,22.179,4.4Z" />
  <path fill="#E8E8E8" d="M15.495,10.9a9.567,9.567,0,0,1,1.677.869A7.961,7.961,0,1,1,16.5,23.622l-4.652-4.666a.878.878,0,1,0-1.257,1.224l4.675,4.69A9.717,9.717,0,1,0,15.495,10.9ZM4.068,19.866a7.855,7.855,0,0,0,7.858,7.854h4.1a11.5,11.5,0,0,1-2.16-1.75H11.926a6.1,6.1,0,0,1,0-12.209,5.815,5.815,0,0,1,4,1.5l3.535,3.627a.877.877,0,1,0,1.257-1.225L17.186,14.03a7.6,7.6,0,0,0-5.266-2.024,7.851,7.851,0,0,0-7.853,7.854Z" />
  </svg>