<svg xmlns="http://www.w3.org/2000/svg" width="36" height="36" viewBox="0 0 36 36">
  <defs>
    <style>
      .fill {
        fill: #000;
        fill-rule: evenodd;
        opacity: 0.65;
      }
    </style>
  </defs>
  <g id="icons">
    <path id="_256" data-name=" 256" class="fill" d="M32.29441,9.22263a13.31015,13.31015,0,0,0-9.80188-4.22244,13.68172,13.68172,0,0,0-9.68235,4.044c-.43829-.03964-.87659-.07929-1.295-.07929A11.511,11.511,0,0,0,0,20.423a11.80275,11.80275,0,0,0,3.22745,8.00875A11.37558,11.37558,0,0,0,11.51522,32H22.49253A13.49032,13.49032,0,0,0,32.29441,9.22263ZM11.316,30.0771a9.50546,9.50546,0,1,1,6.29552-16.61221l.03984.03964,3.96459,4.044a1.68735,1.68735,0,0,1-.03985,2.39866,1.7077,1.7077,0,0,1-2.41062-.03965L15.24073,15.9032a6.10964,6.10964,0,0,0-8.58661.63435,5.98349,5.98349,0,0,0-1.47426,3.94491,6.26579,6.26579,0,0,0,6.21582,6.14533h.777v.01983a18.634,18.634,0,0,0,4.2435,3.42949ZM30.86,26.64761a11.41092,11.41092,0,0,1-8.16824,3.489,11.905,11.905,0,0,1-8.20808-3.56826L9.264,21.3547A1.70509,1.70509,0,0,1,9.2839,18.956a1.71422,1.71422,0,0,1,2.41062.03964l5.19978,5.174a8.39588,8.39588,0,0,0,5.79745,2.57707,7.87367,7.87367,0,0,0,5.73769-2.478,8.36108,8.36108,0,0,0,2.3907-5.848,8.172,8.172,0,0,0-8.16823-8.1277,7.42253,7.42253,0,0,0-4.52241,1.30836c-.01993-.01982-.39845-.2577-.81683-.51541-.259-.15859-.5379-.31718-.777-.43612-.23907-.13877-.95629-.47577-1.37466-.65418-.09961-.03965-.23907-.09912-.29884-.11894h.01993a11.1107,11.1107,0,0,1,7.76978-2.97355,11.556,11.556,0,0,1,11.575,11.51754A11.694,11.694,0,0,1,30.86,26.64761Z"/>
  </g>
</svg>
