<svg xmlns="http://www.w3.org/2000/svg" width="48" height="48" viewBox="0 0 48 48">
  <defs>
    <style>
      .fill {
        fill: #fff;
        opacity: 0.65;
      }   
    </style>
  </defs>
    <title>S_CreativeCloud_24_N_D@2x</title>
      <path class="fill" d="M41.471,12.161A16.27,16.27,0,0,0,29.491,7a16.722,16.722,0,0,0-11.834,4.943c-.536-.049-1.071-.1-1.583-.1A14.069,14.069,0,0,0,2,25.85a14.424,14.424,0,0,0,3.945,9.789A13.9,13.9,0,0,0,16.074,40H29.491a16.488,16.488,0,0,0,11.98-27.839ZM15.831,37.65a11.618,11.618,0,1,1,7.694-20.3l.049.048,4.845,4.943a2.062,2.062,0,0,1-.048,2.932,2.088,2.088,0,0,1-2.947-.049l-4.8-4.894a7.468,7.468,0,0,0-10.495.775,7.314,7.314,0,0,0-1.8,4.822,7.658,7.658,0,0,0,7.6,7.511h.95v.024c1.363,1.89,5.186,4.192,5.186,4.192Zm23.887-4.192a13.945,13.945,0,0,1-9.984,4.264A14.551,14.551,0,0,1,19.7,33.361l-6.379-6.372a2.084,2.084,0,0,1,.024-2.932,2.1,2.1,0,0,1,2.946.049l6.356,6.324a10.26,10.26,0,0,0,7.085,3.149,9.624,9.624,0,0,0,7.013-3.028A10.22,10.22,0,0,0,39.669,23.4a9.988,9.988,0,0,0-9.983-9.934,9.076,9.076,0,0,0-5.528,1.6c-.024-.024-.487-.315-1-.629-.317-.194-.658-.388-.95-.534-.292-.169-1.168-.581-1.68-.8-.122-.049-.292-.121-.365-.145h.024a13.578,13.578,0,0,1,9.5-3.635A14.124,14.124,0,0,1,43.833,23.4,14.292,14.292,0,0,1,39.718,33.458Z"/>
</svg>
