<svg id="icon" xmlns="http://www.w3.org/2000/svg" width="36" height="36" viewBox="0 0 36 36">
  <defs>
    <style>
      .fill {
        fill: #fff;
        opacity: 0.65;
      }   
    </style>
  </defs>
    <title>S_CreativeCloud_18_N_D@2x</title>
    <path class="fill" d="M32.294,9.223A13.308,13.308,0,0,0,22.493,5,13.682,13.682,0,0,0,12.81,9.044c-.438-.039-.876-.079-1.295-.079A11.511,11.511,0,0,0,0,20.423a11.8,11.8,0,0,0,3.227,8.009A11.379,11.379,0,0,0,11.515,32H22.493a13.49,13.49,0,0,0,9.8-22.777ZM11.316,30.077a9.506,9.506,0,1,1,6.3-16.612l.039.04,3.965,4.044a1.687,1.687,0,0,1-.04,2.4,1.708,1.708,0,0,1-2.411-.039L15.241,15.9a6.11,6.11,0,0,0-8.587.635A5.982,5.982,0,0,0,5.18,20.482,6.266,6.266,0,0,0,11.4,26.628h.777v.02a18.621,18.621,0,0,0,4.243,3.429ZM30.86,26.648a11.413,11.413,0,0,1-8.168,3.489,11.9,11.9,0,0,1-8.208-3.569l-5.22-5.213a1.705,1.705,0,0,1,.02-2.4A1.714,1.714,0,0,1,11.7,19l5.2,5.174a8.4,8.4,0,0,0,5.8,2.577,7.872,7.872,0,0,0,5.737-2.478,8.363,8.363,0,0,0,2.391-5.848,8.173,8.173,0,0,0-8.168-8.128A7.428,7.428,0,0,0,18.129,11.6c-.019-.019-.4-.257-.816-.515-.259-.159-.538-.317-.777-.436-.239-.139-.957-.476-1.375-.654-.1-.04-.239-.1-.3-.119h.02A11.112,11.112,0,0,1,22.652,6.9,11.556,11.556,0,0,1,34.227,18.421,11.7,11.7,0,0,1,30.86,26.648Z"/>
</svg>
