<svg id="AD-1722" xmlns="http://www.w3.org/2000/svg" width="32" height="32" viewBox="0 0 32 32">
  <defs>
    <style>
       .fill {
        opacity: 0.65;
        fill: #fff;
      }
    </style>
  </defs>
    <title>S_CreativeCloud_16_N_D@2x</title>
    <path class="fill" d="M28.706,7.753A11.834,11.834,0,0,0,19.993,4a12.161,12.161,0,0,0-8.606,3.6c-.39-.035-.779-.071-1.151-.071A10.233,10.233,0,0,0,0,17.709a10.493,10.493,0,0,0,2.869,7.119A10.109,10.109,0,0,0,10.236,28h9.757A11.992,11.992,0,0,0,28.706,7.753ZM10.059,26.291a8.45,8.45,0,1,1,5.6-14.767l.035.036,3.524,3.594a1.5,1.5,0,0,1-.035,2.132,1.518,1.518,0,0,1-2.143-.035l-3.489-3.559a5.429,5.429,0,0,0-7.632.564A5.318,5.318,0,0,0,4.6,17.762a5.57,5.57,0,0,0,5.525,5.463h.691v.017a16.562,16.562,0,0,0,3.772,3.049Zm17.372-3.049a10.144,10.144,0,0,1-7.261,3.1,10.583,10.583,0,0,1-7.3-3.172L8.235,18.538a1.516,1.516,0,0,1,.017-2.133,1.523,1.523,0,0,1,2.143.036l4.622,4.6a7.465,7.465,0,0,0,5.153,2.29,7,7,0,0,0,5.1-2.2,7.435,7.435,0,0,0,2.125-5.2,7.265,7.265,0,0,0-7.261-7.225,6.6,6.6,0,0,0-4.02,1.163c-.018-.018-.354-.229-.726-.458-.23-.141-.478-.282-.691-.388-.212-.123-.85-.423-1.222-.581-.088-.036-.212-.088-.265-.106h.018a9.873,9.873,0,0,1,6.906-2.643A10.272,10.272,0,0,1,30.424,15.93,10.4,10.4,0,0,1,27.431,23.242Z"/>
</svg>
