<?xml version="1.0" encoding="utf-8"?>
<!-- Generator: Adobe Illustrator 21.1.0, SVG Export Plug-In . SVG Version: 6.00 Build 0)  -->
<svg version="1.1" id="S_CreatingProxy_16_N_2x" xmlns="http://www.w3.org/2000/svg" xmlns:xlink="http://www.w3.org/1999/xlink"
	 x="0px" y="0px" viewBox="0 0 32 32" style="enable-background:new 0 0 32 32;" xml:space="preserve">
<style type="text/css">
	.st0{fill:#E2E2E2;enable-background:new    ;}
</style>
<title>S_CreatingProxy_16_N@2x</title>
<path class="st0" d="M31,2H1C0.4,2,0,2.4,0,3v20c0,0.6,0.4,1,1,1h11v3c0,0.6-0.4,1-1,1H9c-0.5,0-1,0.4-1,1c0,0,0,0,0,0v1h16v-1
	c0-0.6-0.4-1-1-1h-2c-0.6,0-1-0.4-1-1v-3h11c0.6,0,1-0.4,1-1V3C32,2.4,31.6,2,31,2z M28,20H4V6h24V20z"/>
<circle class="st0" cx="10" cy="14" r="2"/>
<circle class="st0" cx="16" cy="14" r="2"/>
<circle class="st0" cx="22" cy="14" r="2"/>
</svg>
