<svg xmlns="http://www.w3.org/2000/svg" data-name="S_CreatingProxy_18_N_D@2x" height="36" id="S_CreatingProxy_18_N_D_2x" viewBox="0 0 36 36" width="36">
  <defs>
    <style>
	.fill {
        fill: #fff;
        opacity: 0.65;
      }</style>
  </defs>
  <title>S_CreatingProxy_18_N_D@2x</title>
  <circle class="fill" cx="10" cy="15" r="2.9" />
  <circle class="fill" cx="18" cy="15" r="2.9" />
  <circle class="fill" cx="26" cy="15" r="2.9" />
  <path class="fill" d="M35,2H1A1,1,0,0,0,0,3V27a1,1,0,0,0,1,1H14v5a1,1,0,0,1-1,1H11a.979.979,0,0,0-1,1v1H26V35a1,1,0,0,0-1-1H23a1,1,0,0,1-1-1V28H35a1,1,0,0,0,1-1V3A1,1,0,0,0,35,2ZM32,24H4V6H32Z" />
  </svg>