<svg id="SP_CTILink_Lg_N_D_2x" data-name="SP_CTILink_Lg_N_D@2x" xmlns="http://www.w3.org/2000/svg" width="44" height="36" viewBox="0 0 44 36">
  <defs>
    <style>
      .fill, .fillMedium {
        fill: #fff;
      }

      .fillMedium {
        opacity: 0.3;
      }

      .fill {
        fill-rule: evenodd;
        opacity: 0.65;
      }

      
    </style>
  </defs>
  <title>SP_CTILink_Lg_N_D@2x</title>
  <path id="Fill" class="fillMedium" d="M0,4.5v7.312a0.5,0.5,0,0,0,.124.329L7,20l7-8V4.5A0.5,0.5,0,0,0,13.5,4H0.5A0.5,0.5,0,0,0,0,4.5Z"/>
  <path id="Fill2" class="fill" d="M10,16.5v7.312a0.5,0.5,0,0,0,.124.329L17,32l6.876-7.859A0.5,0.5,0,0,0,24,23.812V16.5a0.5,0.5,0,0,0-.5-0.5h-13A0.5,0.5,0,0,0,10,16.5Z"/>
  <path class="fill" d="M35,17.816A2.965,2.965,0,0,0,36,18a3,3,0,0,0,3-3V8a3,3,0,0,0-6,0V9.589a8.025,8.025,0,0,0-3,2.137V8A6,6,0,0,1,42,8v7a5.967,5.967,0,0,1-7,5.91V17.816ZM30,17v7a6,6,0,0,0,12,0V20.274a8.025,8.025,0,0,1-3,2.137V24a3,3,0,0,1-6,0V17a3,3,0,0,1,3-3,2.965,2.965,0,0,1,1,.184V11.09A5.967,5.967,0,0,0,30,17Z"/>
  </svg>