<svg xmlns="http://www.w3.org/2000/svg" data-name="S_Dashboard_16_N_D@2x" height="32" id="S_Dashboard_16_N_D_2x" viewBox="0 0 32 32" width="32">
  <defs>
    <style>
      .fill {
        fill: #fff;
        fill-rule: evenodd;
        opacity: 0.65;
      }

      
    </style>
  </defs>
  <path class="fill" d="M5.993,26.331A12.427,12.427,0,0,1,3.5,19.025,12.638,12.638,0,0,1,15.638,6.352,12.5,12.5,0,0,1,26.01,26.331a.68.68,0,0,0,.094.938l.872.726a.687.687,0,0,0,.968-.082h0l.015-.018a15,15,0,1,0-23.919,0A.684.684,0,0,0,5,28.009H5L5.019,28l.874-.728A.68.68,0,0,0,5.993,26.331Z" />
  <path class="fill" d="M18.365,23.121A2.668,2.668,0,1,1,15.176,21.1h0c.685-.153,5.074-5.686,5.636-5.36C21.432,16.1,18.2,22.369,18.365,23.121Z" />
  <circle class="fill" cx="6.858" cy="19.036" r="1.6" />
  <circle class="fill" cx="9.583" cy="12.785" r="1.6" />
  <circle class="fill" cx="22.884" cy="12.785" r="1.6" />
  <circle class="fill" cx="16" cy="9.888" r="1.455" />
  <circle class="fill" cx="25.349" cy="19.181" r="1.455" />
  </svg>