<?xml version="1.0" encoding="UTF-8"?>
<svg id="Icons" xmlns="http://www.w3.org/2000/svg" width="36" height="36" viewBox="0 0 36 36">
  <defs>
    <style>
      .fill {
        fill: #fff;
        opacity: .65;
      }
    </style>
  </defs>
  <path class="fill" d="m2,7c0,1.657,1.343,3,3,3h26c1.657,0,3-1.343,3-3,0-1.657-1.343-3-3-3H5c-1.657,0-3,1.343-3,3Zm10-1h19c.553,0,1,.447,1,1s-.447,1-1,1H12v-2Z"/>
  <path class="fill" d="m2,17c0,1.657,1.343,3,3,3h26c1.657,0,3-1.343,3-3,0-1.657-1.343-3-3-3H5c-1.657,0-3,1.343-3,3Zm18-1h11c.553,0,1,.447,1,1s-.447,1-1,1h-11v-2Z"/>
  <path class="fill" d="m2,27c0,1.657,1.343,3,3,3h26c1.657,0,3-1.343,3-3,0-1.657-1.343-3-3-3H5c-1.657,0-3,1.343-3,3Zm14-1h15c.553,0,1,.447,1,1,0,.553-.447,1-1,1h-15v-2Z"/>
</svg>