<svg xmlns="http://www.w3.org/2000/svg" xmlns:xlink="http://www.w3.org/1999/xlink" version="1.1" xml:space="preserve" width="32" height="32"><rect id="backgroundrect" width="100%" height="100%" x="0" y="0" fill="none" stroke="none" class=""/><style type="text/css">
	.st0{fill:#C93636;}
	.st1{fill:#FFFFFF;}
</style><g class="currentLayer"><title>Layer 1</title><circle class="st0" cx="16.135973112047743" cy="16.579908979178448" r="14.52511631300115" id="svg_1"/><path class="st1" d="M24.994838084871382,24.804811117961535 L18.39705251766926,16.36541624520855 l6.572793955205148,-8.439394872752983 c0.09996644798791102,-0.12786961928413623 0.09996644798791102,-0.3196740482103403 0,-0.44754366749447716 l-2.1242870197431083,-2.717229409787892 c-0.09996644798791102,-0.12786961928413623 -0.24991611996977775,-0.12786961928413623 -0.34988256795768874,0 L15.922882929968463,13.200643167926183 L9.350088974763318,4.793215699994235 c-0.09996644798791102,-0.12786961928413623 -0.24991611996977775,-0.12786961928413623 -0.34988256795768874,0 l-2.1242870197431083,2.717229409787892 c-0.09996644798791102,0.12786961928413623 -0.09996644798791102,0.3196740482103403 0,0.44754366749447716 L13.423721730270689,16.36541624520855 L6.85092777506554,24.772843713140503 c-0.09996644798791102,0.12786961928413623 -0.09996644798791102,0.3196740482103403 0,0.44754366749447716 l2.1242870197431083,2.717229409787892 c0.09996644798791102,0.12786961928413623 0.27490773196675566,0.12786961928413623 0.34988256795768874,0 L15.922882929968463,19.530189322490923 l6.572793955205148,8.407427467931948 c0.09996644798791102,0.12786961928413623 0.27490773196675566,0.12786961928413623 0.3748741799546661,0.031967404821034044 l2.1242870197431083,-2.717229409787892 C25.094804532859293,25.124485166171883 25.094804532859293,24.93268073724567 24.994838084871382,24.804811117961535 z" id="svg_2"/></g></svg>