<svg xmlns="http://www.w3.org/2000/svg" data-name="S_DesktopCloudSynced_18_N_D@2x" height="36" id="S_DesktopCloudSynced_18_N_D_2x" viewBox="0 0 36 36" width="36">
  <defs>
    <style>
	.fill {
        fill: #fff;
        opacity: 0.65;
      }</style>
  </defs>
  <title>S_DesktopCloudSynced_18_N_D@2x</title>
  <path class="fill" d="M26,20v6H2V10H12a5.9,5.9,0,0,1,.8-2H1A1,1,0,0,0,0,9V27a1,1,0,0,0,1,1h9v3a1,1,0,0,1-1,1H7a.979.979,0,0,0-1,1v1H22V33a1,1,0,0,0-1-1H19a1,1,0,0,1-1-1V28h9a1,1,0,0,0,1-1V20Z" />
  <path class="fill" d="M31.194,8.918a4.165,4.165,0,0,0,.081-.782A5.222,5.222,0,0,0,25.8,2.9a5.777,5.777,0,0,0-5.428,4.279,5.72,5.72,0,0,0-1.5-.2,4.391,4.391,0,0,0-4.573,4.17,3.293,3.293,0,0,0,.19,1.091c-.064,0-.125-.016-.19-.016a3.13,3.13,0,0,0-2.829,2.934A3.016,3.016,0,0,0,14.088,18H31.5l.871-.13a3.977,3.977,0,0,0,3.4-4.221C35.775,11.078,33.22,9.225,31.194,8.918Z" />
  </svg>