<svg id="S_DeletedByOthers_17x15_N_D_2x" data-name="S_DeletedByOthers_17x15_N_D@2x" xmlns="http://www.w3.org/2000/svg" width="34" height="30" viewBox="0 0 34 30">
  <defs>
    <style>
      .background {
        opacity: 0.65;
      }

      .red {
        fill: #f53c3c;
      }

      
    </style>
  </defs>
  <title>S_DeletedByOthers_17x15_N_D@2x</title>
  <path class="background" d="M1,0H33a1,1,0,0,1,1,1V29a1,1,0,0,1-1,1H1a1,1,0,0,1-1-1V1A1,1,0,0,1,1,0Z"/>
  <path class="red" d="M4,4H30V26H4ZM2,3V27a1,1,0,0,0,1,1H31a1,1,0,0,0,1-1V3a1,1,0,0,0-1-1H3A1,1,0,0,0,2,3Z"/>
  <path class="red" d="M20,8V6.5a.5.5,0,0,0-.5-.5h-5a.5.5,0,0,0-.5.5V8H8.5a.5.5,0,0,0-.5.5v1a.5.5,0,0,0,.5.5H10V23a1,1,0,0,0,1,1H23a1,1,0,0,0,1-1V10h1.5a.5.5,0,0,0,.5-.5v-1a.5.5,0,0,0-.5-.5ZM14,22H12V10h2Zm4,0H16V10h2Zm4,0H20V10h2Z"/>
  </svg>