<svg xmlns="http://www.w3.org/2000/svg" data-name="S_DeleteOutline_18_N@2x" height="36" id="S_DeleteOutline_18_N_2x" viewBox="0 0 36 36" width="36">
  <defs>
    <style>
	.fill {
		fill: #000000;
		
        fill-rule: evenodd;
        opacity: 0.65;
      }</style>
  </defs>
  <title>S_DeleteOutline_18_N@2x</title>
  <path class="fill" d="M27.491,8,25.183,32H8.817L6.509,8ZM22,2H12a2,2,0,0,0-2,2V6H2.5a.5.5,0,0,0-.5.5v1a.5.5,0,0,0,.5.5h2L6.913,33.1a1,1,0,0,0,1,.9H26.092a1,1,0,0,0,1-.9L29.5,8h2a.5.5,0,0,0,.5-.5v-1a.5.5,0,0,0-.5-.5H24V4A2,2,0,0,0,22,2ZM12,6V4H22V6Z" />
  <rect class="fill" height="18.08" rx="0.5" ry="0.5" width="2" x="16" y="10.9" />
  <path class="fill" d="M13.542,28.944l-1,.06a.5.5,0,0,1-.529-.469L10.87,11.49a.5.5,0,0,1,.469-.529l1-.06a.5.5,0,0,1,.529.469l1.145,17.045A.5.5,0,0,1,13.542,28.944Z" />
  <path class="fill" d="M20.458,28.944l1,.06a.5.5,0,0,0,.529-.469L23.13,11.49a.5.5,0,0,0-.469-.529l-1-.06a.5.5,0,0,0-.529.469L19.989,28.415A.5.5,0,0,0,20.458,28.944Z" />
  </svg>