<svg id="S_Delete_Wi_N_2x" data-name="S_Delete_Wi_N@2x" xmlns="http://www.w3.org/2000/svg" width="40" height="26" viewBox="0 0 40 26">
  <defs>
    <style>
      .fill {
        fill: #fff;
        fill-rule: evenodd;
        opacity: 0.65;
      }

      
    </style>
  </defs>
  <title>S_Delete_Wi_N@2x</title>
  <path class="fill" d="M18,8.6V19.4a0.557,0.557,0,0,0,.5.6h1a0.557,0.557,0,0,0,.5-0.6V8.6A0.557,0.557,0,0,0,19.5,8h-1A0.557,0.557,0,0,0,18,8.6Z"/>
  <path class="fill" d="M14,8.6V19.4a0.557,0.557,0,0,0,.5.6h1a0.557,0.557,0,0,0,.5-0.6V8.6A0.557,0.557,0,0,0,15.5,8h-1A0.557,0.557,0,0,0,14,8.6Z"/>
  <path class="fill" d="M29.5,4H24a4,4,0,0,0-4-4H18a4,4,0,0,0-4,4H8.5a0.5,0.5,0,0,0-.5.5v1a0.5,0.5,0,0,0,.5.5H10V22a2,2,0,0,0,2,2H26a2,2,0,0,0,2-2V6h1.5A0.5,0.5,0,0,0,30,5.5v-1A0.5,0.5,0,0,0,29.5,4ZM16,3a1,1,0,0,1,1-1h4a1,1,0,0,1,1,1V4H16V3ZM26,22H12V6H26V22Z"/>
  <path class="fill" d="M22.5,20h1a0.557,0.557,0,0,0,.5-0.6V8.6A0.557,0.557,0,0,0,23.5,8h-1a0.557,0.557,0,0,0-.5.6V19.4A0.557,0.557,0,0,0,22.5,20Z"/>
  </svg>