<?xml version="1.0" encoding="utf-8"?>
<!-- Generator: Adobe Illustrator 21.1.0, SVG Export Plug-In . SVG Version: 6.00 Build 0)  -->
<svg version="1.1" id="S_DesktopCloudSynced_16_N_D_2x"
	 xmlns="http://www.w3.org/2000/svg" xmlns:xlink="http://www.w3.org/1999/xlink" x="0px" y="0px" viewBox="0 0 32 32"
	 style="enable-background:new 0 0 32 32;" xml:space="preserve">
<style type="text/css">
	.st0{fill:#E2E2E2;enable-background:new    ;}
</style>
<title>S_DesktopCloudSynced_16_N_D@2x</title>
<path class="st0" d="M24,18v4H2V8h8.9c0.2-0.7,0.6-1.4,1.1-2H1C0.4,6,0,6.4,0,7v16c0,0.6,0.4,1,1,1h9v3c0,0.6-0.4,1-1,1H7
	c-0.5,0-1,0.4-1,1c0,0,0,0,0,0v1h14v-1c0-0.6-0.4-1-1-1h-2c-0.6,0-1-0.4-1-1v-3h9c0.6,0,1-0.4,1-1v-5H24z"/>
<path class="st0" d="M27.7,7.9c0-0.2,0.1-0.5,0.1-0.7c0-2.6-2.1-4.7-4.6-4.7c-0.1,0-0.2,0-0.2,0c-2.3,0.1-4.2,1.6-4.8,3.8
	c-0.4-0.1-0.9-0.2-1.3-0.2c-2.1-0.1-4,1.6-4.1,3.7c0,0.3,0.1,0.7,0.2,1c-0.1,0-0.1,0-0.2,0c-1.4,0.1-2.4,1.2-2.5,2.6
	c0.1,1.3,1,2.4,2.3,2.5H28l0.8-0.1c1.8-0.3,3.2-1.9,3-3.8C31.8,9.8,29.5,8.2,27.7,7.9z"/>
</svg>
