<svg id="S_DistributeHorizontalCenter_Md_N_2x" data-name="S_DistributeHorizontalCenter_Md_N@2x" xmlns="http://www.w3.org/2000/svg" width="36" height="36" viewBox="0 0 36 36">
  <defs>
    <style>
      .fill {
        fill: #fff;
        fill-rule: evenodd;
        opacity: 0.65;
      }

      
    </style>
  </defs>
  <title>S_DistributeHorizontalCenter_Md_N@2x</title>
  <path class="fill" d="M13,6H10V0.5A0.5,0.5,0,0,0,9.5,0h-1A0.5,0.5,0,0,0,8,.5V6H5A1,1,0,0,0,4,7V29a1,1,0,0,0,1,1H8v5.5a0.5,0.5,0,0,0,.5.5h1a0.5,0.5,0,0,0,.5-0.5V30h3a1,1,0,0,0,1-1V7A1,1,0,0,0,13,6Z"/>
  <path class="fill" d="M31,10H28V0.5A0.5,0.5,0,0,0,27.5,0h-1a0.5,0.5,0,0,0-.5.5V10H23a1,1,0,0,0-1,1V25a1,1,0,0,0,1,1h3v9.5a0.5,0.5,0,0,0,.5.5h1a0.5,0.5,0,0,0,.5-0.5V26h3a1,1,0,0,0,1-1V11A1,1,0,0,0,31,10Z"/>
  </svg>