<svg id="SP_DirectMan_26x12_N_D_2x" data-name="SP_DirectMan_26x12_N_D@2x" xmlns="http://www.w3.org/2000/svg" width="52" height="24" viewBox="0 0 52 24">
  <defs>
    <style>
      .fill {
        fill: #fff;
        fill-rule: evenodd;
        opacity: 0.65;
      }

      
    </style>
  </defs>
  <title>SP_DirectMan_26x12_N_D@2x</title>
  <path class="fill" d="M30,7.5v-5A0.5,0.5,0,0,0,29.5,2h-5a0.5,0.5,0,0,0-.5.5V4H12V2.5A0.5,0.5,0,0,0,11.5,2h-5a0.5,0.5,0,0,0-.5.5v5a0.5,0.5,0,0,0,.5.5H8V18H6.5a0.5,0.5,0,0,0-.5.5v5a0.5,0.5,0,0,0,.5.5h5a0.5,0.5,0,0,0,.5-0.5V22H24v1.5a0.5,0.5,0,0,0,.5.5h5a0.5,0.5,0,0,0,.5-0.5v-5a0.5,0.5,0,0,0-.5-0.5H28V8h1.5A0.5,0.5,0,0,0,30,7.5ZM8,4h2V6H8V4Zm2,18H8V20h2v2Zm14-2H12V18.5a0.5,0.5,0,0,0-.5-0.5H10V8h1.5A0.5,0.5,0,0,0,12,7.5V6H24V7.5a0.5,0.5,0,0,0,.5.5H26V18H24.5a0.5,0.5,0,0,0-.5.5V20Zm4,2H26V20h2v2ZM26,6V4h2V6H26Z"/>
  <path id="Fill2" class="fill" d="M34,3.344V16.978a0.5,0.5,0,0,0,.816.387L38.937,14h3.908a0.5,0.5,0,0,0,.365-0.842Z"/>
  </svg>