<svg id="S_DistributeSpaceHoriz_Md_N_D_2x" data-name="S_DistributeSpaceHoriz_Md_N_D@2x" xmlns="http://www.w3.org/2000/svg" width="36" height="36" viewBox="0 0 36 36">
  <defs>
    <style>
      .fill {
        fill: #fff;
        fill-rule: evenodd;
        opacity: 0.65;
      }

      
    </style>
  </defs>
  <title>S_DistributeSpaceHoriz_Md_N_D@2x</title>
  <rect class="fill" x="4" y="10" width="10" height="24" rx="1" ry="1"/>
  <rect class="fill" x="20" y="12" width="12" height="16" rx="1" ry="1"/>
  <path class="fill" d="M25.5,2H22V0.5A0.5,0.5,0,0,0,21.5,0h-1a0.5,0.5,0,0,0-.5.5V2H14V0.5A0.5,0.5,0,0,0,13.5,0h-1a0.5,0.5,0,0,0-.5.5V2H8.5a0.5,0.5,0,0,0-.5.5v1a0.5,0.5,0,0,0,.5.5H12V7.5a0.5,0.5,0,0,0,.5.5h1A0.5,0.5,0,0,0,14,7.5V4h6V7.5a0.5,0.5,0,0,0,.5.5h1A0.5,0.5,0,0,0,22,7.5V4h3.5A0.5,0.5,0,0,0,26,3.5v-1A0.5,0.5,0,0,0,25.5,2Z"/>
  </svg>