<?xml version="1.0" encoding="utf-8"?>
<!-- Generator: Adobe Illustrator 21.0.0, SVG Export Plug-In . SVG Version: 6.00 Build 0)  -->
<svg version="1.1" id="Layer_1" xmlns="http://www.w3.org/2000/svg" xmlns:xlink="http://www.w3.org/1999/xlink" x="0px" y="0px"
	 viewBox="0 0 18 16" style="enable-background:new 0 0 18 16;" xml:space="preserve">
<style type="text/css">
	.st0{fill:#FFFFFF;}
</style>
<title>Smock_FullScreen_18_N@2x</title>
<desc>Created with Sketch.</desc>
<g id="Symbols">
	<g id="Smock_x5F_FullScreen_x5F_18_x5F_N_x40_2x" transform="translate(15.000000, 15.000000)">
		<path id="Combined-Shape" class="st0" d="M1.8-2.3v-1.9c0-0.1-0.1-0.3-0.3-0.3H1c-0.1,0-0.3,0.1-0.3,0.3v1.9c-0.4,0.2-0.8,0.5-1,1
			h-1.9c-0.1,0-0.3,0.1-0.3,0.3v0.5c0,0.1,0.1,0.3,0.3,0.3h1.9c0.3,0.6,0.9,1,1.6,1c0.9,0,1.6-0.7,1.6-1.6C2.9-1.5,2.4-2,1.8-2.3z"
			/>
		<path id="Combined-Shape_1_" class="st0" d="M-11.9-1.3h1.9c0.1,0,0.3,0.1,0.3,0.3v0.5c0,0.1-0.1,0.3-0.3,0.3h-1.9
			c-0.2,0.6-0.8,1.1-1.5,1.1c-0.9,0-1.6-0.7-1.6-1.6c0-0.7,0.4-1.3,1.1-1.5v-1.9c0-0.1,0.1-0.3,0.3-0.3h0.5c0.1,0,0.3,0.1,0.3,0.3
			v1.9C-12.5-2.1-12.1-1.7-11.9-1.3z"/>
		<path id="Combined-Shape_2_" class="st0" d="M-0.2-13.9h-1.9c-0.1,0-0.3,0.1-0.3,0.3v0.5c0,0.1,0.1,0.3,0.3,0.3h1.9
			c0.2,0.4,0.5,0.8,1,1v1.9c0,0.1,0.1,0.3,0.3,0.3h0.5c0.1,0,0.3-0.1,0.3-0.3v-1.9C2.5-12,3-12.6,3-13.3c0-0.9-0.7-1.6-1.6-1.6
			C0.6-14.9,0-14.5-0.2-13.9z"/>
		<path id="Combined-Shape_3_" class="st0" d="M-7.6-12.8h-1.1v-1.1h1.1c0.2-0.6,0.8-1.1,1.5-1.1s1.3,0.4,1.5,1.1h1.1v1.1h-1.1
			c-0.2,0.6-0.8,1.1-1.5,1.1S-7.3-12.2-7.6-12.8z"/>
		<path id="Combined-Shape_4_" class="st0" d="M-7.6-0.2h-1.1v-1.1h1.1c0.2-0.6,0.8-1.1,1.5-1.1S-4.8-2-4.6-1.3h1.1v1.1h-1.1
			c-0.2,0.6-0.8,1.1-1.5,1.1S-7.3,0.4-7.6-0.2z"/>
		<path id="Combined-Shape_5_" class="st0" d="M-12.9-11.9v1.9c0,0.1-0.1,0.3-0.3,0.3h-0.5c-0.1,0-0.3-0.1-0.3-0.3v-1.9
			c-0.6-0.2-1.1-0.8-1.1-1.5c0-0.9,0.7-1.6,1.6-1.6c0.7,0,1.3,0.4,1.5,1.1h1.9c0.1,0,0.3,0.1,0.3,0.3v0.5c0,0.1-0.1,0.3-0.3,0.3H-12
			C-12.1-12.4-12.5-12-12.9-11.9z"/>
		<circle id="Oval-Copy-3" class="st0" cx="-13.4" cy="-7.1" r="1.6"/>
		<circle id="Oval-Copy-7" class="st0" cx="1.3" cy="-7.1" r="1.6"/>
	</g>
</g>
</svg>
