<svg id="S_DistributeSpaceVert_Md_N_D_2x" data-name="S_DistributeSpaceVert_Md_N_D@2x" xmlns="http://www.w3.org/2000/svg" width="36" height="36" viewBox="0 0 36 36">
  <defs>
    <style>
      .fill {
        fill: #fff;
        opacity: 0.65;
      }

      
    </style>
  </defs>
  <title>S_DistributeSpaceVert_Md_N_D@2x</title>
  <path class="fill" d="M7.5,16A0.5,0.5,0,0,0,8,15.5v-1A0.5,0.5,0,0,0,7.5,14H4V10.5A0.5,0.5,0,0,0,3.5,10h-1a0.5,0.5,0,0,0-.5.5V14H0.5a0.5,0.5,0,0,0-.5.5v1a0.5,0.5,0,0,0,.5.5H2v6H0.5a0.5,0.5,0,0,0-.5.5v1a0.5,0.5,0,0,0,.5.5H2v3.5a0.5,0.5,0,0,0,.5.5h1A0.5,0.5,0,0,0,4,27.5V24H7.5A0.5,0.5,0,0,0,8,23.5v-1A0.5,0.5,0,0,0,7.5,22H4V16H7.5Z"/>
  <rect class="fill" x="10" y="22" width="24" height="10" rx="1" ry="1"/>
  <rect class="fill" x="12" y="4" width="16" height="12" rx="1" ry="1"/>
  </svg>