<svg xmlns="http://www.w3.org/2000/svg" data-name="S_Download_18_N_D@2x" height="36" id="S_Download_18_N_D_2x" viewBox="0 0 36 36" width="36">
  <defs>
    <style>
	.fill {
        fill: #fff;
        opacity: 0.65;
      }</style>
  </defs>
  <title>S_Download_18_N_D@2x</title>
  <path class="fill" d="M24.793,20H20V2.5a.5.5,0,0,0-.5-.5h-3a.5.5,0,0,0-.5.5V20H11.207a.5.5,0,0,0-.353.854L18,28l7.146-7.146A.5.5,0,0,0,24.793,20Z" />
  <path class="fill" d="M30,26.5V30H6V26.5a.5.5,0,0,0-.5-.5h-3a.5.5,0,0,0-.5.5V33a1,1,0,0,0,1,1H33a1,1,0,0,0,1-1V26.5a.5.5,0,0,0-.5-.5h-3A.5.5,0,0,0,30,26.5Z" />
  </svg>