<svg id="S_DriveButton_Sm_N_D_2x" data-name="S_DriveButton_Sm_N_D@2x" xmlns="http://www.w3.org/2000/svg" width="32" height="32" viewBox="0 0 32 32">
  <defs>
    <style>
      .fill {
        fill: #fff;
        fill-rule: evenodd;
        opacity: 0.65;
      }

      
    </style>
  </defs>
  <title>S_DriveButton_Sm_N_D@2x</title>
  <path class="fill" d="M31,12H1a1,1,0,0,0-1,1v8a1,1,0,0,0,1,1H2v1.5a0.5,0.5,0,0,0,.5.5h1A0.5,0.5,0,0,0,4,23.5V22H28v1.5a0.5,0.5,0,0,0,.5.5h1a0.5,0.5,0,0,0,.5-0.5V22h1a1,1,0,0,0,1-1V13A1,1,0,0,0,31,12ZM4,18.12A2.12,2.12,0,1,1,6.12,16,2.12,2.12,0,0,1,4,18.12Z"/>
  </svg>