<svg id="S_DriveButton_Xl_N_D_2x" data-name="S_DriveButton_Xl_N_D@2x" xmlns="http://www.w3.org/2000/svg" width="64" height="64" viewBox="0 0 64 64">
  <defs>
    <style>
      .fill {
        fill: #fff;
        fill-rule: evenodd;
        opacity: 0.65;
      }

      
    </style>
  </defs>
  <title>S_DriveButton_Xl_N_D@2x</title>
  <path class="fill" d="M60.125,26H3.875A1.875,1.875,0,0,0,2,27.875v14.25A1.875,1.875,0,0,0,3.875,44H6v1.063A0.938,0.938,0,0,0,6.938,46H9.063A0.938,0.938,0,0,0,10,45.063V44H54v1.063a0.938,0.938,0,0,0,.938.938h2.125A0.938,0.938,0,0,0,58,45.063V44h2.125A1.875,1.875,0,0,0,62,42.125V27.875A1.875,1.875,0,0,0,60.125,26ZM9,36a3,3,0,1,1,3-3A3,3,0,0,1,9,36Z"/>
  </svg>