<svg id="Layer_1" data-name="Layer 1" xmlns="http://www.w3.org/2000/svg" width="140" height="90" viewBox="0 0 140 90">
  <defs>
    <style>
      .cls-1 {
        fill: #1e1e1e;
      }

      .cls-2 {
        fill: #7c7c7c;
      }

      .cls-3 {
        fill: #1d7dee;
      }

      .cls-4 {
        fill: #080808;
      }

      .cls-5 {
        fill: #fff;
      }

      .cls-6 {
        fill: #393939;
      }

      .cls-7 {
        fill: #a2a2a2;
      }

      .cls-8 {
        fill: #494949;
      }
    </style>
  </defs>
  <g>
    <rect class="cls-1" x="9.925" y="2.508" width="120.15" height="84.984" rx="1.954"/>
    <g>
      <circle class="cls-2" cx="19.053" cy="10.225" r="2.227"/>
      <circle class="cls-2" cx="25.657" cy="10.225" r="2.227"/>
      <circle class="cls-2" cx="32.261" cy="10.225" r="2.227"/>
    </g>
    <g id="cursor_lg" data-name="cursor lg">
      <g id="cursor">
        <path class="cls-3" d="M15.972,23.38v7.037a.214.214,0,0,0,.38.135l1.839-2.271,2.985.43a.213.213,0,0,0,.242-.181.216.216,0,0,0-.059-.18l-5.021-5.12a.214.214,0,0,0-.366.15Z"/>
      </g>
    </g>
    <path class="cls-2" d="M122.977,11.3h-17.75a1,1,0,0,1,0-2h17.75a1,1,0,0,1,0,2Z"/>
    <rect class="cls-4" x="25.833" y="18.437" width="70.46" height="67.549"/>
    <rect class="cls-5" x="35.653" y="27.68" width="50.772" height="30.945" rx="0.8"/>
    <path class="cls-3" d="M108.874,29.887h-6.761a1,1,0,0,1,0-2h6.761a1,1,0,0,1,0,2Z"/>
    <path class="cls-6" d="M123.789,29.887h-1.85a1,1,0,0,1,0-2h1.85a1,1,0,0,1,0,2Z"/>
    <path class="cls-7" d="M115.438,32.555a3.5,3.5,0,1,1,3.5-3.5v0A3.507,3.507,0,0,1,115.438,32.555Zm0-5.007a1.5,1.5,0,1,0,1.5,1.505h0A1.5,1.5,0,0,0,115.438,27.548Z"/>
    <path class="cls-3" d="M104.514,40.2h-2.4a1,1,0,0,1,0-2h2.4a1,1,0,0,1,0,2Z"/>
    <path class="cls-6" d="M123.789,40.2H117.52a1,1,0,0,1,0-2h6.269a1,1,0,0,1,0,2Z"/>
    <path class="cls-7" d="M111.016,42.868a3.5,3.5,0,1,1,3.5-3.5A3.5,3.5,0,0,1,111.016,42.868Zm0-5.007a1.5,1.5,0,1,0,1.5,1.5A1.5,1.5,0,0,0,111.016,37.861Z"/>
    <path class="cls-4" d="M129.312,18.437h-119a1,1,0,0,1,0-2h119a1,1,0,0,1,0,2Z"/>
    <path class="cls-8" d="M12.232,4.015a.8.8,0,0,0-.8.8h0v80.37a.8.8,0,0,0,.8.8H127.768a.8.8,0,0,0,.8-.8h0V4.815a.8.8,0,0,0-.8-.8H12.232ZM128.12,89H11.879a3.465,3.465,0,0,1-3.462-3.462V4.462A3.465,3.465,0,0,1,11.879,1H128.12a3.466,3.466,0,0,1,3.463,3.462V85.538A3.466,3.466,0,0,1,128.12,89Z"/>
  </g>
</svg>
