<svg id="S_Duration_Md_N_D_2x" data-name="S_Duration_Md_N_D@2x" xmlns="http://www.w3.org/2000/svg" width="36" height="36" viewBox="0 0 36 36">
  <defs>
    <style>
      .fill, .fillPale {
        fill: #fff;
      }

      .fill {
        fill-rule: evenodd;
        opacity: 0.65;
      }

      .fillPale {
        opacity: 0.15;
      }

      
    </style>
  </defs>
  <title>S_Duration_Md_N_D@2x</title>
  <path id="Fill" class="fill" d="M14,5v9l-4,3,4,3v9a1,1,0,0,1-1,1H11a1,1,0,0,1-1-1V20L6,17l4-3V5a1,1,0,0,1,1-1h2A1,1,0,0,1,14,5Z"/>
  <path id="Fill-2" data-name="Fill" class="fill" d="M22,5v9l4,3-4,3v9a1,1,0,0,0,1,1h2a1,1,0,0,0,1-1V20l4-3-4-3V5a1,1,0,0,0-1-1H23A1,1,0,0,0,22,5Z"/>
  <path class="fillPale" d="M14,4V14l-4,3,4,3V30h8V20l4-3-4-3V4H14Z"/>
  </svg>