<?xml version="1.0" encoding="UTF-8"?>
<svg id="ImportedIcons-3" data-name="ImportedIcons" xmlns="http://www.w3.org/2000/svg" width="32" height="32" viewBox="0 0 32 32">
  <defs>
    <style>
      .fill{
        fill: #b9b9b9;
        fill-rule: evenodd;
      }

      .background {
        opacity: .65;
        fill-rule: evenodd;
      }
    </style>
  </defs>
  <polygon class="fill" points="8.57538 23.42456 13.87866 20.94971 11.05023 18.12134 8.57538 23.42456"/>
  <path class="fill" d="M25.89948,6.10046C20.43213,.63318,11.56787,.63318,6.10052,6.10046,.63318,11.56787,.63318,20.43213,6.10052,25.89941c5.46735,5.46741,14.3316,5.46741,19.79895,0,5.46735-5.46729,5.46735-14.33154,0-19.79895Zm-1.41418,5.65686l-9.8996,9.89941c-.11517,.11523-.25677,.20068-.41248,.24854l-6.18372,2.71155c-.36615,.09155-.69788-.24023-.60632-.60645l2.71136-6.18372c.04803-.15576,.13336-.29736,.24854-.4126L20.24261,7.51465c.39056-.39038,1.02374-.39038,1.41425,0l2.82843,2.82849c.3905,.3905,.3905,1.02368,0,1.41418Z"/>
  <path class="background" d="M24.48529,10.34314l-2.82843-2.82849c-.3905-.39038-1.02368-.39038-1.41425,0l-9.89952,9.89952c-.11517,.11523-.2005,.25684-.24854,.4126l-2.71139,6.18362c-.09155,.36621,.24017,.698,.60632,.60645l6.18374-2.71145c.1557-.04797,.2973-.1333,.41248-.24854l9.89958-9.89952c.3905-.3905,.3905-1.02368,0-1.41418Zm-15.90991,13.08148l2.47484-5.30333,2.82846,2.82846-5.3033,2.47487Z"/>
</svg>