<svg id="S_EditedByMe_17x15_N_D_2x" data-name="S_EditedByMe_17x15_N_D@2x" xmlns="http://www.w3.org/2000/svg" width="34" height="30" viewBox="0 0 34 30">
  <defs>
    <style>
      .background, .fill {
        opacity: 0.65;
      }

      .fill {
        fill: #fff;
        fill-rule: evenodd;
      }

      
    </style>
  </defs>
  <title>S_EditedByMe_17x15_N_D@2x</title>
  <path class="background" d="M1,0H33a1,1,0,0,1,1,1V29a1,1,0,0,1-1,1H1a1,1,0,0,1-1-1V1A1,1,0,0,1,1,0Z"/>
  <path class="fill" d="M4,4H30V26H4ZM2,3V27a1,1,0,0,0,1,1H31a1,1,0,0,0,1-1V3a1,1,0,0,0-1-1H3A1,1,0,0,0,2,3Z"/>
  <path class="fill" d="M15.085,20.213l-4.752,1.822,1.823-4.745ZM21.3,7.182h-.021a.764.764,0,0,0-.516.226l-9.377,9.377L9.222,22.671c-.132.4.058.57.47.47l5.894-2.154h0l9.377-9.377a.765.765,0,0,0,.225-.492.681.681,0,0,0-.2-.528L21.783,7.379A.676.676,0,0,0,21.3,7.182Z"/>
  </svg>