<svg id="SP_Effects_Xs_N_D_2x" data-name="SP_Effects_Xs_N_D@2x" xmlns="http://www.w3.org/2000/svg" width="26" height="26" viewBox="0 0 26 26">
  <defs>
    <style>
      .fill {
        fill: #fff;
        fill-rule: evenodd;
        opacity: 0.65;
      }

      
    </style>
  </defs>
  <title>SP_Effects_Xs_N_D@2x</title>
  <path class="fill" d="M23.874,10h-2.2a0.258,0.258,0,0,0-.242.157l-4.445,4.411v-0.03L15.141,10.1a0.132,0.132,0,0,0-.161-0.1H9.024L9.437,8.208C10.217,4.678,11.839,4,13.118,4a11.913,11.913,0,0,1,2,.5c0.093,0.03.156-.031,0.187-0.152L15.71,2.583a0.221,0.221,0,0,0-.125-0.243A10.626,10.626,0,0,0,13.156,2c-3.026,0-5.21,1.765-6.24,6.361L6.5,10H3.493a0.17,0.17,0,0,0-.188.153L2.681,11.818l-0.009.06A0.242,0.242,0,0,1,2.805,12H5.774C5.493,13.369,2.679,23.9,2.025,25.757c-0.062.152,0,.243,0.124,0.243,0.25-.031,1.665-0.016,2.431-0.012a0.236,0.236,0,0,0,.256-0.2C5.491,23.809,7.214,17.721,8.43,12h3.187c0.064,0,1.2-.015,1.926-0.073l1.874,3.737c-1.639,1.8-3.685,4.3-5.378,6.153a0.1,0.1,0,0,0,.054.183H12.4c0.135,0,3.259-3.7,4.226-4.927h0.026S19.334,22,19.441,22h2.177a0.114,0.114,0,0,0,.107-0.183c-0.591-1.252-2.572-4.483-3.325-6.049,1.5-1.617,4.264-4.151,5.554-5.586C24.035,10.1,24.008,10,23.874,10Z"/>
  </svg>