<svg id="SP_EffectsOff_Xs_N_D_2x" data-name="SP_EffectsOff_Xs_N_D@2x" xmlns="http://www.w3.org/2000/svg" width="26" height="26" viewBox="0 0 26 26">
  <defs>
    <style>
      .fill {
        fill: #fff;
        opacity: 0.65;
      }

      
    </style>
  </defs>
  <title>SP_EffectsOff_Xs_N_D@2x</title>
  <path class="fill" d="M12.969,4a11.915,11.915,0,0,1,2,.5c0.093,0.03.156-.031,0.187-0.152l0.405-1.765a0.221,0.221,0,0,0-.124-0.243A10.626,10.626,0,0,0,13.007,2,5.38,5.38,0,0,0,7.985,4.985l1.74,1.74C10.581,4.48,11.894,4,12.969,4Z"/>
  <path class="fill" d="M6.354,10H3.344a0.17,0.17,0,0,0-.188.153L2.532,11.818l-0.009.06A0.242,0.242,0,0,1,2.656,12H5.625C5.344,13.369,2.53,23.9,1.875,25.757,1.813,25.908,1.875,26,2,26c0.25-.031,1.709,0,2.437,0a0.239,0.239,0,0,0,.25-0.213C5.342,23.809,7.065,17.721,8.281,12H9L6.485,9.485Z"/>
  <path class="fill" d="M13,10l3.59,3.59L15.141,10.1A19.858,19.858,0,0,0,13,10Z"/>
  <path class="fill" d="M10.04,21.817a0.1,0.1,0,0,0,.054.183H12.4c0.1,0,1.8-1.977,3.079-3.52l-1.355-1.355C12.779,18.675,11.31,20.428,10.04,21.817Z"/>
  <path class="fill" d="M23.873,10h-2.2a0.258,0.258,0,0,0-.242.157l-4.154,4.118,1.3,1.3c1.536-1.62,4.134-4.018,5.375-5.4C24.035,10.1,24.008,10,23.873,10Z"/>
  <rect class="fill" x="11.999" y="-3.264" width="2" height="32.529" rx="0.5" ry="0.5" transform="translate(-5.385 12.998) rotate(-44.998)"/>
  </svg>