<svg id="S_Effects_Sm_N_D_2x" data-name="S_Effects_Sm_N_D@2x" xmlns="http://www.w3.org/2000/svg" width="32" height="32" viewBox="0 0 32 32">
  <defs>
    <style>
      .fill {
        fill: #fff;
        fill-rule: evenodd;
        opacity: 0.65;
      }

      
    </style>
  </defs>
  <title>S_Effects_Sm_N_D@2x</title>
  <path class="fill" d="M27.936,12h-2.2a0.258,0.258,0,0,0-.242.157l-4.445,4.411v-0.03L19.2,12.1a0.132,0.132,0,0,0-.161-0.1H12.938l0.413-1.792C14.131,6.678,15.752,6,17.031,6a11.913,11.913,0,0,1,2,.5c0.093,0.03.156-.031,0.187-0.152l0.405-1.765A0.221,0.221,0,0,0,19.5,4.339,10.626,10.626,0,0,0,17.069,4c-3.026,0-5.21,1.765-6.24,6.361L10.416,12H7.406a0.17,0.17,0,0,0-.188.153L6.594,13.818l-0.009.06A0.242,0.242,0,0,1,6.719,14H9.688c-0.281,1.369-3.095,11.9-3.75,13.757-0.062.152,0,.243,0.125,0.243,0.25-.031,1.689.092,2.438,0a0.239,0.239,0,0,0,.25-0.213C9.4,25.809,11.127,19.721,12.344,14h3.188c0.068,0,1.359-.016,2.069-0.084l1.88,3.749c-1.639,1.8-3.685,4.3-5.378,6.153a0.1,0.1,0,0,0,.054.183h2.307c0.135,0,3.259-3.7,4.226-4.927h0.026S23.4,24,23.5,24H25.68a0.114,0.114,0,0,0,.107-0.183c-0.591-1.252-2.572-4.483-3.325-6.049,1.5-1.617,4.264-4.151,5.554-5.586C28.1,12.1,28.071,12,27.936,12Z"/>
  </svg>