<svg id="S_Effects_Wi_N_D_2x" data-name="S_Effects_Wi_N_D@2x" xmlns="http://www.w3.org/2000/svg" width="40" height="26" viewBox="0 0 40 26">
  <defs>
    <style>
      .fill {
        fill: #fff;
        fill-rule: evenodd;
        opacity: 0.65;
      }

      
    </style>
  </defs>
  <title>S_Effects_Wi_N_D@2x</title>
  <path class="fill" d="M9.292,10.1a0.146,0.146,0,0,1-.134-0.189l0.43-1.861a0.179,0.179,0,0,1,.19-0.162l3.394-.062,0.162-.676c0.863-3.916,2.861-5.59,5.644-5.59a4.093,4.093,0,0,1,1.54.242,0.191,0.191,0,0,1,.108.244l-0.46,2.131c-0.026.109-.08,0.189-0.188,0.162A3.277,3.277,0,0,0,19.006,4.2c-0.946,0-1.972.324-2.484,2.728L16.3,7.824h4.808c0.08,0,.134.025,0.108,0.162L20.955,9.938a0.2,0.2,0,0,1-.162.16l-4.975.048C14.766,15.332,12.97,23.9,12.4,25.656a0.242,0.242,0,0,1-.27.217c-0.839.107-2.474,0.1-2.69,0.127-0.107,0-.162-0.082-0.134-0.217,0.622-2,2.97-13.666,3.376-15.637Z"/>
  <path class="fill" d="M20.363,8.321a0.127,0.127,0,0,1,.131-0.186h2.938a0.147,0.147,0,0,1,.187.134l1.693,4.579h0.028L28.7,8.295a0.29,0.29,0,0,1,.265-0.159h2.91a0.119,0.119,0,0,1,.081.212c-1.111,1.4-3.707,4.605-5.057,6.167,0.741,1.721,2.225,4.977,2.779,6.272,0.054,0.134,0,.212-0.131.212h-2.91a0.257,0.257,0,0,1-.267-0.185l-1.746-4.552H24.6c-0.9,1.323-2.383,3.175-3.5,4.579a0.258,0.258,0,0,1-.264.159H17.714c-0.1,0-.158-0.107-0.078-0.212,1.563-1.852,3.891-4.6,5.347-6.352Z"/>
  </svg>