<svg xmlns="http://www.w3.org/2000/svg" data-name="S_Ellipse_Lg_N_D@2x" height="36" id="S_Ellipse_Lg_N_D_2x" viewBox="0 0 44 36" width="44">
  <defs>
    <style>
      .fill{
		fill: #FFF;
		opacity: 0.65;
		fill-rule: evenodd;
		}

      .fillPale{
		fill: #FFF;
		opacity: 0.15;
		fill-rule: evenodd;
		}        
        
    </style>
  </defs>
  <path class="fill" d="M22,5.931c8.883,0,16.11,5.414,16.11,12.069S30.883,30.069,22,30.069,5.89,24.655,5.89,18,13.117,5.931,22,5.931ZM22,4.15c-9.886,0-17.9,6.2-17.9,13.85S12.114,31.85,22,31.85,39.9,25.649,39.9,18,31.886,4.15,22,4.15Z" />
  <path class="fillPale" d="M22,5.931c8.883,0,16.11,5.414,16.11,12.069S30.883,30.069,22,30.069,5.89,24.655,5.89,18,13.117,5.931,22,5.931Z" />
  </svg>