<?xml version="1.0" encoding="UTF-8"?>
<svg id="ICONS" xmlns="http://www.w3.org/2000/svg" width="44" height="36" viewBox="0 0 44 36">
  <defs>
    <style>
      .fill {
        fill: #fff;
        opacity: .65;
        stroke-width: 0px;
      }
    </style>
  </defs>
  <path class="fill" d="M4.20544,16c.48718-2.62988,1.90112-5.02832,3.99915-6.97559l1.5293,1.28418c-1.7843,1.59766-3.01099,3.55078-3.49304,5.69141h-2.0354ZM24,4.0918v2.0127c2.49036.23438,4.80505.89355,6.80566,1.88672l1.63489-1.37305c-2.43591-1.35645-5.31494-2.25586-8.44055-2.52637ZM6.24084,20h-2.0354c.48718,2.62988,1.90112,5.02832,3.99915,6.97559l1.5293-1.28418c-1.7843-1.59766-3.01099-3.55078-3.49304-5.69141ZM37.75916,20c-.48206,2.14062-1.70874,4.09375-3.49304,5.69141l1.5293,1.28418c2.09802-1.94727,3.51196-4.3457,3.99915-6.97559h-2.0354ZM35.79541,9.02441l-1.5293,1.28418c1.7843,1.59766,3.01099,3.55078,3.49304,5.69141h2.0354c-.48718-2.62988-1.90112-5.02832-3.99915-6.97559ZM30.80566,28.00879c-2.00061.99316-4.31531,1.65234-6.80566,1.88672v2.0127c3.12561-.27051,6.00452-1.16992,8.44043-2.52637l-1.63477-1.37305ZM13.19434,7.99121c2.00061-.99316,4.31531-1.65234,6.80566-1.88672v-2.0127c-3.12561.27051-6.00464,1.16992-8.44055,2.52637l1.63489,1.37305ZM20,29.89551c-2.49036-.23438-4.80505-.89355-6.80566-1.88672l-1.63477,1.37305c2.43591,1.35645,5.31482,2.25586,8.44043,2.52637v-2.0127Z"/>
</svg>