<svg id="S_EndOfMediaIndicator_24x16_N_2x" data-name="S_EndOfMediaIndicator_24x16_N@2x" xmlns="http://www.w3.org/2000/svg" width="48" height="32" viewBox="0 0 48 32">
  <defs>
    <style>
      .Background {
        fill: #fff;
        opacity: 0.3;
      }

      .fill {
        fill-rule: evenodd;
        opacity: 0.65;
      }

      
    </style>
  </defs>
  <title>S_EndOfMediaIndicator_24x16_N@2x</title>
  <rect id="back" class="Background" width="48" height="32"/>
  <polygon class="fill" points="48 12.57 35.43 0 29.25 0 48 18.75 48 12.57"/>
  <polygon class="fill" points="48 0 43.25 0 48 4.75 48 0"/>
  <polygon class="fill" points="48 32 48 26.57 21.43 0 15.25 0 47.25 32 48 32"/>
  <polygon class="fill" points="5.25 32 11.43 32 0 20.57 0 26.75 5.25 32"/>
  <polygon class="fill" points="19.25 32 25.43 32 0 6.57 0 12.75 19.25 32"/>
  <polygon class="fill" points="33.25 32 39.43 32 7.43 0 1.25 0 33.25 32"/>
  </svg>