<svg xmlns="http://www.w3.org/2000/svg" width="32" height="32" viewBox="0 0 32 32">
  <defs>
    <style>
      .fill {
        fill: #fff;
        fill-rule: evenodd;
        opacity: 0.65;
      }
    </style>
  </defs>
  <g id="icons">
    <path class="fill" d="M25.0417,2H6.9583A4.94723,4.94723,0,0,0,2,6.936V24.189a4.94724,4.94724,0,0,0,4.9583,4.936H25.0417A4.94724,4.94724,0,0,0,30,24.189V6.936A4.94723,4.94723,0,0,0,25.0417,2ZM16.60962,20.18011a4.32235,4.32235,0,0,1-1.8783,1.47046,7.15738,7.15738,0,0,1-2.83361.5152,10.69509,10.69509,0,0,1-2.17884-.20392,7.14258,7.14258,0,0,1-1.64221-.52594.36645.36645,0,0,1-.17175-.365v-2.5545a.126.126,0,0,1,.05371-.118.1423.1423,0,0,1,.13952.01074,7.30363,7.30363,0,0,0,1.91065.83716,7.38255,7.38255,0,0,0,1.97485.27905,3.09513,3.09513,0,0,0,1.74951-.37567,1.1146,1.1146,0,0,0,.52588-.93378,1.26156,1.26156,0,0,0-.17163-.65472,1.8605,1.8605,0,0,0-.60107-.56885,7.02539,7.02539,0,0,0-1.18079-.57965l-1.07336-.45075a7.97606,7.97606,0,0,1-2.05-1.1914A3.42719,3.42719,0,0,1,8.1626,13.40735a4.345,4.345,0,0,1-.27906-1.56708,3.85333,3.85333,0,0,1,2.29688-3.59564,6.51623,6.51623,0,0,1,2.8335-.54743,13.45151,13.45151,0,0,1,1.92138.12885,4.55025,4.55025,0,0,1,1.42749.40784.29739.29739,0,0,1,.15027.27911v2.42566a.14852.14852,0,0,1-.05359.09662q-.05383.05383-.13965-.01074a5.98293,5.98293,0,0,0-1.50256-.53669,8.0992,8.0992,0,0,0-1.78186-.19317,4.40731,4.40731,0,0,0-1.05176.10736,2.58654,2.58654,0,0,0-.69775.26831,1.03289,1.03289,0,0,0-.3971.4079,1.0815,1.0815,0,0,0-.12878.50445,1.01915,1.01915,0,0,0,.19324.61176,2.11516,2.11516,0,0,0,.64392.53668,13.71851,13.71851,0,0,0,1.24512.6333l.79418.30054a8.646,8.646,0,0,1,2.21119,1.23431,3.76968,3.76968,0,0,1,1.11621,1.41681,4.177,4.177,0,0,1,.322,1.64221A3.74641,3.74641,0,0,1,16.60962,20.18011Zm6.118-.77282a1.11019,1.11019,0,0,0,.91223.31128c.12891,0,.25025-.00336.365-.01075q.17157-.01062.34351-.03216a.13646.13646,0,0,1,.11792.01068c.03564.02148.05371.06812.05371.13953v1.76025q0,.23647-.17163.27911a7.55737,7.55737,0,0,1-.85864.21467,5.56549,5.56549,0,0,1-1.03052.08587,3.11179,3.11179,0,0,1-2.18945-.72992,3.03983,3.03983,0,0,1-.79432-2.33984V13.74445H18.1792q-.17213,0-.17188-.19324l.01636-2.11359q0-.17157.19312-.17169h1.29626c.01416-.24316.016-.5097.03748-.83173s.05-.644.08593-.966q.0533-.483.09644-.78351a.37616.37616,0,0,1,.06445-.1181.22883.22883,0,0,1,.10743-.07507l2.55444-.322a.14058.14058,0,0,1,.10742,0c.02844.01441.043.05738.043.12879q-.04339.49411-.06445,1.34167c-.01441.56556-.0127,1.09668-.02674,1.626h1.88013q.12873,0,.12878.17175l-.01623,2.1565a.13222.13222,0,0,1-.1073.15027h-1.8927v4.6217A1.722,1.722,0,0,0,22.72766,19.40729Z"/>
  </g>
</svg>
