<svg xmlns="http://www.w3.org/2000/svg" data-name="S_ExclamationmarkOutline_32_N@2x" height="64" id="S_ExclamationmarkOutline_32_N_2x" viewBox="0 0 64 64" width="64">
  <defs>
    <style>
      .fill {
        fill: #fff;
        fill-rule: evenodd;
        opacity: 0.65;
      }

      
    </style>
  </defs>
  <title>S_ExclamationmarkOutline_32_N@2x</title>
  <path class="fill" d="M32,9.347A22.653,22.653,0,1,1,9.347,32h0A22.679,22.679,0,0,1,32,9.347ZM32,4A28,28,0,1,0,60,32,28,28,0,0,0,32,4ZM27.92,43.971A3.856,3.856,0,0,1,32,40.06a3.794,3.794,0,0,1,4.08,3.911c0,2.379-1.7,3.8-4.08,3.8C29.562,47.768,27.92,46.3,27.92,43.971Zm7.538-28.863a.705.705,0,0,1,.339.622v3.541c0,4.762-.963,13.534-1.133,15.236,0,.169-.057.339-.4.339H29.733a.377.377,0,0,1-.4-.339c-.113-1.587-1.02-10.3-1.02-15.067V15.9a.6.6,0,0,1,.283-.622A9.8,9.8,0,0,1,32,14.6,11.122,11.122,0,0,1,35.458,15.108Z" />
  </svg>