<svg id="S_Export_Md_N_D_2x" data-name="S_Export_Md_N_D@2x" xmlns="http://www.w3.org/2000/svg" width="36" height="36" viewBox="0 0 36 36">
  <defs>
    <style>
      .fill {
        fill: #fff;
        fill-rule: evenodd;
        opacity: 0.65;
      }

      
    </style>
  </defs>
  <title>S_Export_Md_N_D@2x</title>
  <path class="fill" d="M13.3,4.4A1,1,0,0,0,12.5,4H5A1,1,0,0,0,4,5V6H14.4Z"/>
  <path id="Fill2" class="fill" d="M18,22h7V18.1a0.5,0.5,0,0,1,.829-0.376L34,25l-8.171,7.274A0.5,0.5,0,0,1,25,31.9V28H18a1,1,0,0,1-1-1V23A1,1,0,0,1,18,22Z"/>
  <path class="fill" d="M15,23a3,3,0,0,1,3-3h5V18.1a2.5,2.5,0,0,1,2.5-2.5h0a2.507,2.507,0,0,1,1.656.631L32,20.542V9a1,1,0,0,0-1-1H4V25a1,1,0,0,0,1,1H15V23Z"/>
  </svg>