<svg id="S_Extract_Lg_N_D_2x" data-name="S_Extract_Lg_N_D@2x" xmlns="http://www.w3.org/2000/svg" width="44" height="36" viewBox="0 0 44 36">
  <defs>
    <style>
      .fill {
        fill: #fff;
        fill-rule: evenodd;
        opacity: 0.65;
      }

      
    </style>
  </defs>
  <title>S_Extract_Lg_N_D@2x</title>
  <path id="Fill" class="fill" d="M32,20.969l5.181-4.291a0.5,0.5,0,0,1,.819.385v7.865a0.5,0.5,0,0,1-.821.383ZM4,24.94V17.06a0.5,0.5,0,0,1,.818-0.386L10.062,21,4.818,25.325A0.5,0.5,0,0,1,4,24.94ZM14,18V6H28V18H14ZM2,15V27a1,1,0,0,0,1,1H15a1,1,0,0,0,1-1V20H26v7a1,1,0,0,0,1,1H39a1,1,0,0,0,1-1V15a1,1,0,0,0-1-1H30V5a1,1,0,0,0-1-1H13a1,1,0,0,0-1,1v9H3A1,1,0,0,0,2,15Zm15.071-1h7.858a0.5,0.5,0,0,0,.383-0.821L21,8.031l-4.312,5.148A0.5,0.5,0,0,0,17.071,14Z"/>
  </svg>