<svg xmlns="http://www.w3.org/2000/svg" width="32" height="32" viewBox="0 0 32 32">
  <defs>
    <style>
      .fill {
        fill: #fff;  
        fill-rule: evenodd;
        opacity: 0.65;
      }
    </style>
  </defs>
  <g id="brand_-_color" data-name="brand - color">
    <path class="fill" d="M11.14905,13.42078a4.01539,4.01539,0,0,1,.79431.08526,1.936,1.936,0,0,0,.46143-.57586,1.79538,1.79538,0,0,0,.18249-.85315,1.49729,1.49729,0,0,0-.279-.93848,1.67025,1.67025,0,0,0-.80506-.54388,4.19233,4.19233,0,0,0-1.34155-.18134H9.53906q-.27942,0-.50451.01068-.2254.01108-.483.01068v2.96472h1.45972Q10.591,13.39941,11.14905,13.42078Z"/>
    <path class="fill" d="M11.77148,16.06561a5.27509,5.27509,0,0,0-.59021-.10669,6.283,6.283,0,0,0-.78356-.0426l-1.8462-.00006v3.51929q.36475.02151.73.032.36476.01107.88013.01068a5.71424,5.71424,0,0,0,1.55628-.192,2.01545,2.01545,0,0,0,1.01965-.59716,1.49671,1.49671,0,0,0,.3435-1.00251,1.79182,1.79182,0,0,0-.279-1.00244A1.66143,1.66143,0,0,0,11.77148,16.06561Z"/>
    <path class="fill" d="M22.6333,13.44208a1.86669,1.86669,0,0,0-1.771,1.0025,2.68018,2.68018,0,0,0-.28991.87445h2.81213q.51527,0,.76209-.01062a1.52418,1.52418,0,0,0,.31128-.032v-.12793a1.69535,1.69535,0,0,0-.08582-.4906A1.7532,1.7532,0,0,0,22.6333,13.44208Z"/>
    <path class="fill" d="M25.0416,2H6.9584A4.94254,4.94254,0,0,0,2,6.92652V24.19843A4.94258,4.94258,0,0,0,6.9584,29.125H25.0416A4.94258,4.94258,0,0,0,30,24.19843V6.92652A4.94254,4.94254,0,0,0,25.0416,2ZM15.45312,19.88348a4.63542,4.63542,0,0,1-2.06079,1.525,8.53081,8.53081,0,0,1-3.20935.54388H8.75549q-.6762,0-1.245-.01068-.5691-.011-.98755-.0213-.41857-.011-.71912-.01068a.16689.16689,0,0,1-.15027-.192V8.17383q0-.192.12879-.21326.36474-.02106,1.11633-.032Q7.64978,7.918,8.53,7.90723q.88-.01053,1.61011-.01068a8.31155,8.31155,0,0,1,2.80127.38391,4.15641,4.15641,0,0,1,1.59936.97046,3.08971,3.08971,0,0,1,.75134,1.22644,4.092,4.092,0,0,1,.19324,1.17309,3.38549,3.38549,0,0,1-.21472,1.24774,3.32589,3.32589,0,0,1-.51526.9065,2.44254,2.44254,0,0,1-.57959.5332,4.28956,4.28956,0,0,1,.8479.58655,3.48194,3.48194,0,0,1,.80518,1.05578,3.54257,3.54257,0,0,1,.34326,1.6424A3.72384,3.72384,0,0,1,15.45312,19.88348Zm11.78467-3.306q-.03222.384-.05371.55457a.19387.19387,0,0,1-.19311.17065q-.12891,0-.44019.032t-.7727.04266q-.4618.011-.97669.01062h-4.229a2.73971,2.73971,0,0,0,.40783,1.11981,2.20528,2.20528,0,0,0,.97681.79981,4.13557,4.13557,0,0,0,1.70654.29864,7.83981,7.83981,0,0,0,1.38465-.11731A5.79856,5.79856,0,0,0,26.304,19.1156c.07153-.05664.10742-.0213.10742.10669v2.02625a.31546.31546,0,0,1-.03223.16.30814.30814,0,0,1-.09668.096,6.0458,6.0458,0,0,1-1.39526.45861,9.49524,9.49524,0,0,1-1.889.16,6.157,6.157,0,0,1-2.55457-.46924,4.55005,4.55005,0,0,1-1.67431-1.25842,4.91506,4.91506,0,0,1-.9231-1.73835,6.8001,6.8001,0,0,1-.27905-1.93029,6.68382,6.68382,0,0,1,.33264-2.1009,5.48029,5.48029,0,0,1,.99817-1.81292,4.78963,4.78963,0,0,1,1.61011-1.25843,5.06172,5.06172,0,0,1,2.23242-.45855,4.87067,4.87067,0,0,1,2.07165.40521,3.74314,3.74314,0,0,1,1.406,1.09845,4.84024,4.84024,0,0,1,.79431,1.50372,5.33247,5.33247,0,0,1,.25757,1.621Q27.27,16.1937,27.23779,16.57745Z"/>
  </g>
</svg>
