<svg id="S_Extract_Lg_N_D_3to2x" data-name="S_Extract_Lg_N_D@3to2x" xmlns="http://www.w3.org/2000/svg" width="33" height="27" viewBox="0 0 33 27">
  <defs>
    <style>
      .fill {
        fill: #fff;
        fill-rule: evenodd;
        opacity: 0.65;
      }

      
    </style>
  </defs>
  <title>S_Extract_Lg_N_D@3to2x</title>
  <path id="Fill" class="fill" d="M24.105,16.227l3.818-3.218a0.368,0.368,0,0,1,.6.289v5.9a0.368,0.368,0,0,1-.605.287ZM3.474,19.2V13.3a0.368,0.368,0,0,1,.6-0.289L7.941,16.25,4.077,19.494A0.368,0.368,0,0,1,3.474,19.2ZM11,14V4.5H21V14H11ZM2,11.75v8.5a0.744,0.744,0,0,0,.737.75h8.526A0.744,0.744,0,0,0,12,20.25V15.5h8v4.75a0.744,0.744,0,0,0,.737.75h8.526A0.744,0.744,0,0,0,30,20.25v-8.5A0.744,0.744,0,0,0,29.263,11H22.632V3.75A0.744,0.744,0,0,0,21.895,3H10.105a0.744,0.744,0,0,0-.737.75V11H2.737A0.744,0.744,0,0,0,2,11.75ZM13.105,11h5.79a0.376,0.376,0,0,0,.282-0.616L16,6.523l-3.177,3.861A0.376,0.376,0,0,0,13.105,11Z"/>
  </svg>