<svg xmlns="http://www.w3.org/2000/svg" data-name="S_FastForward_18_N@2x" height="36" id="S_FastForward_18_N_2x" viewBox="0 0 36 36" width="36">
  <defs>
    <style>
	.fill {
        fill: #fff;
        fill-rule: evenodd;
        opacity: 0.65;
      }</style>
  </defs>
  <title>S_FastForward_18_N@2x</title>
  <path class="fill" d="M31.541,17.193,20.265,10.631a.938.938,0,0,0-.478-.131H18.85a.937.937,0,0,0-.937.938v6.048a.907.907,0,0,0-.284-.292L6.353,10.631a.938.938,0,0,0-.478-.131H4.938A.937.937,0,0,0,4,11.438V24.563a.937.937,0,0,0,.938.938h.938a.938.938,0,0,0,.478-.131l11.276-6.562a.906.906,0,0,0,.284-.292v6.048a.937.937,0,0,0,.938.938h.938a.938.938,0,0,0,.478-.131l11.276-6.562A.938.938,0,0,0,31.541,17.193Z" />
  </svg>