<svg id="S_FavoritesBin_Sm_N_D_2x" data-name="S_FavoritesBin_Sm_N_D@2x" xmlns="http://www.w3.org/2000/svg" width="32" height="32" viewBox="0 0 32 32">
  <defs>
    <style>
      .fill {
        fill: #fff;
        fill-rule: evenodd;
        opacity: 0.65;
      }

      
    </style>
  </defs>
  <title>S_FavoritesBin_Sm_N_D@2x</title>
  <path class="fill" d="M11.3,4.4a1,1,0,0,0-.8-.4H3A1,1,0,0,0,2,5V6H12.4Z"/>
  <path class="fill" d="M28.549,15.209,25,12.912l-3.549,2.3-3.266,2.114a.5.5,0,0,1-.755-.548l1-3.759L19.52,8.931,18.374,8H2V25a1,1,0,0,0,1,1H29a1,1,0,0,0,1-1V16.149Z"/>
  <path class="fill" d="M25,10.53l3.547,2.3a.5.5,0,0,0,.755-.548L28.214,8.195l3.279-2.664a.5.5,0,0,0-.288-.887l-4.219-.228L25.466.474a.5.5,0,0,0-.933,0l-1.52,3.942-4.219.228a.5.5,0,0,0-.288.887l3.279,2.664L20.7,12.277a.5.5,0,0,0,.755.548Z"/>
  </svg>