<svg xmlns="http://www.w3.org/2000/svg" data-name="S_Facebook_18_N_D@2x" height="36" id="S_Facebook_18_N_D_2x" viewBox="0 0 36 36" width="36">
  <defs>
    <style>
	.fill {
        fill: #fff;
        fill-rule: evenodd;
        opacity: 0.65;
      }</style>
  </defs>
  <title>S_Facebook_18_N_D@2x</title>
  <path class="fill" d="M2,3V33a1,1,0,0,0,1,1H19.092V21.607H14.923V16.779h4.171V13.223c0-3.45,2.011-6.05,5.209-6.37a34.44,34.44,0,0,1,4.736.176v4.32H26.473c-1.016,0-2.385.424-2.385,1.53,0,.888-.008,3.831-.008,3.9h4.782l-.622,4.83H24.08V34H33a1,1,0,0,0,1-1V3a1,1,0,0,0-1-1H3A1,1,0,0,0,2,3Z" />
  </svg>