<svg id="S_FixedTab_Md_N_D_2x" data-name="S_FixedTab_Md_N_D@2x" xmlns="http://www.w3.org/2000/svg" width="36" height="36" viewBox="0 0 36 36">
  <defs>
    <style>
      .fill {
        fill: #fff;
        opacity: 0.65;
      }

      
    </style>
  </defs>
  <title>S_FixedTab_Md_N_D@2x</title>
  <path id="Fill" class="fill" d="M2.5,12H18v3.5a.5.5,0,0,0,.82.384L24,11,18.82,6.117A.5.5,0,0,0,18,6.5V10H2.5a.5.5,0,0,0-.5.5v1A.5.5,0,0,0,2.5,12Z"/>
  <path class="fill" d="M2,21v8a1,1,0,0,0,1,1H6V24H8v6h2V26h2v4h2V24h2v6h2V26h2v4h2V24h2v6h2V26h2v4h2V24h2v6h1a1,1,0,0,0,1-1V21a1,1,0,0,0-1-1H3A1,1,0,0,0,2,21Z"/>
  <rect class="fill" x="26" y="6" width="2" height="10" rx="0.5" ry="0.5"/>
  </svg>