<svg width="33" height="32" viewBox="0 0 33 32" fill="none" xmlns="http://www.w3.org/2000/svg">
<g id="Frame" clip-path="url(#clip0_7392_10241)">
<path id="iconFill" fill-rule="evenodd" clip-rule="evenodd" d="M13.6556 24.0001C13.6946 21.2509 14.7018 18.6035 16.5 16.5236C18.3516 14.1334 26.9293 3.21517 26.9293 3.21517C27.0322 3.08398 27.0961 2.92652 27.1137 2.76075C27.1314 2.59499 27.102 2.42761 27.0291 2.27772C26.9561 2.12783 26.8425 2.00148 26.7012 1.91309C26.5598 1.82469 26.3965 1.77783 26.2298 1.77783H1.4369C1.2702 1.77783 1.10686 1.82469 0.965524 1.91309C0.824191 2.00148 0.710562 2.12783 0.637611 2.27772C0.56466 2.42761 0.535327 2.59499 0.552962 2.76075C0.570596 2.92652 0.634487 3.08398 0.73734 3.21517L11.1667 16.5236V30.1334C11.1451 30.3147 11.1804 30.4983 11.2676 30.6587C11.3548 30.8191 11.4897 30.9485 11.6536 31.029C11.8175 31.1095 12.0024 31.1371 12.1826 31.108C12.3629 31.079 12.5297 30.9946 12.66 30.8667L14.7382 28.6987C14.0273 27.2343 13.6572 25.6279 13.6556 24.0001Z" fill="#B0B0B0"/>
<path id="iconFill_2" fill-rule="evenodd" clip-rule="evenodd" d="M24.5 16.0889C22.9353 16.0889 21.4058 16.5528 20.1048 17.4221C18.8038 18.2914 17.7898 19.527 17.1911 20.9725C16.5923 22.4181 16.4356 24.0088 16.7409 25.5434C17.0461 27.078 17.7996 28.4876 18.906 29.594C20.0124 30.7004 21.422 31.4538 22.9566 31.7591C24.4912 32.0643 26.0819 31.9077 27.5274 31.3089C28.973 30.7101 30.2085 29.6961 31.0778 28.3952C31.9471 27.0942 32.4111 25.5646 32.4111 24C32.4111 21.9018 31.5776 19.8896 30.094 18.406C28.6104 16.9224 26.5981 16.0889 24.5 16.0889ZM28.9444 24.4444C28.9444 24.5623 28.8976 24.6753 28.8143 24.7587C28.7309 24.842 28.6179 24.8889 28.5 24.8889H25.3889V28C25.3889 28.1179 25.342 28.2309 25.2587 28.3142C25.1753 28.3976 25.0623 28.4444 24.9444 28.4444H24.0555C23.9377 28.4444 23.8246 28.3976 23.7413 28.3142C23.6579 28.2309 23.6111 28.1179 23.6111 28V24.8889H20.5C20.3821 24.8889 20.2691 24.842 20.1857 24.7587C20.1024 24.6753 20.0555 24.5623 20.0555 24.4444V23.5555C20.0555 23.4377 20.1024 23.3246 20.1857 23.2413C20.2691 23.1579 20.3821 23.1111 20.5 23.1111H23.6111V20C23.6111 19.8821 23.6579 19.7691 23.7413 19.6857C23.8246 19.6024 23.9377 19.5555 24.0555 19.5555H24.9444C25.0623 19.5555 25.1753 19.6024 25.2587 19.6857C25.342 19.7691 25.3889 19.8821 25.3889 20V23.1111H28.5C28.6179 23.1111 28.7309 23.1579 28.8143 23.2413C28.8976 23.3246 28.9444 23.4377 28.9444 23.5555V24.4444Z" fill="#B0B0B0"/>
</g>
<defs>
<clipPath id="clip0_7392_10241">
<rect width="32" height="32" fill="white" transform="translate(0.5)"/>
</clipPath>
</defs>
</svg>
