<svg xmlns="http://www.w3.org/2000/svg" data-name="S_FillContent_18_N_D@2x" height="36" id="S_FillContent_18_N_D_2x" viewBox="0 0 36 36" width="36">
  <defs>
    <style>
      .fill {
        fill: #fff;
        fill-rule: evenodd;
        opacity: 0.65;
      }

      
    </style>
  </defs>
  <path class="fill" d="M32,27H4V9H32ZM3,7A1,1,0,0,0,2,8V28a1,1,0,0,0,1,1H33a1,1,0,0,0,1-1V8a1,1,0,0,0-1-1Z" />
  <rect class="fill" height="14" width="24" x="6" y="11" />
  <path class="fill" d="M7,1H29a1,1,0,0,1,1,1V5a0,0,0,0,1,0,0H6A0,0,0,0,1,6,5V2A1,1,0,0,1,7,1Z" />
  <path class="fill" d="M6,31H30a0,0,0,0,1,0,0v3a1,1,0,0,1-1,1H7a1,1,0,0,1-1-1V31A0,0,0,0,1,6,31Z" />
  </svg>