<?xml version="1.0" encoding="UTF-8"?>
<svg id="ICONS" xmlns="http://www.w3.org/2000/svg" width="36" height="36" viewBox="0 0 36 36">
  <defs>
    <style>
      .fill {
        fill: #fff;
        opacity: .65;
      }
    </style>
  </defs>
  <path class="fill" d="M30.946,2H3.054c-.55228-.00002-1.00002.44768-1.00004.99996,0,.22372.075.44098.21304.61704l11.733,14.972v15.311c-.06405.54411.32512,1.03712.86923,1.10117.29828.03511.5964-.06681.81077-.27716l3.981-4.153c.21742-.22681.33886-.52881.339-.843v-11.139L31.733,3.617c.34076-.43463.26467-1.0632-.16996-1.40396-.17606-.13803-.39332-.21305-.61704-.21304Z"/>
  <path id="Shape" class="fill" d="M36,26.9v8.7c0,.22091-.17909.4-.4.4h-8.7c-.22084-.00571-.39523-.18937-.38952-.41021.00256-.09876.04157-.19308.10952-.26479l8.703-8.709c.15936-.153.41257-.14784.56557.01152.07043.07336.11028.17079.11143.27248Z"/>
</svg>