<svg xmlns="http://www.w3.org/2000/svg" width="36" height="36" viewBox="0 0 36 36">
  <defs>
    <style>
      .fill {
        fill: #fff;
        opacity: 0.65;
        fill-rule: evenodd;
      }
    </style>
  </defs>
  <g id="i_c_o_n_s" data-name="i c o n s">
    <rect class="fill" x="2" y="16.00007" width="2" height="2" rx="0.5"/>
    <rect class="fill" x="6" y="16.00007" width="2" height="2" rx="0.5"/>
    <rect class="fill" x="10" y="16.00007" width="2" height="2" rx="0.5"/>
    <rect class="fill" x="14" y="16.00007" width="2" height="2" rx="0.5"/>
    <rect class="fill" x="18" y="16.00007" width="2" height="2" rx="0.5"/>
    <rect class="fill" x="22" y="16.00007" width="2" height="2" rx="0.5"/>
    <rect class="fill" x="26" y="16.00007" width="2" height="2" rx="0.5"/>
    <rect class="fill" x="30" y="16.00007" width="2" height="2" rx="0.5"/>
    <path class="fill" d="M5.29783,30.24892,16.20508,20.177a1.00991,1.00991,0,0,1,1.42825,0L28.70217,30.24892A1.00992,1.00992,0,0,1,27.988,31.973H6.012A1.00992,1.00992,0,0,1,5.29783,30.24892Z"/>
    <path class="fill" d="M25.92141,3.818l-8.84325,8.16754L8.0993,3.818ZM29,3.01715a1.009,1.009,0,0,0-1.0119-1.01708H6.01239A1.00958,1.00958,0,0,0,5,3.01752a.98916.98916,0,0,0,.29785.70665L16.36707,13.796a1.00978,1.00978,0,0,0,1.4281,0l10.907-10.07187A.98956.98956,0,0,0,29,3.01715Z"/>
  </g>
</svg>
