<svg id="SP_FlyoutMenu_15x9_N_D_2x" data-name="SP_FlyoutMenu_15x9_N_D@2x" xmlns="http://www.w3.org/2000/svg" width="30" height="18" viewBox="0 0 30 18">
  <defs>
    <style>
      .fill {
        fill: #fff;
        fill-rule: evenodd;
        opacity: 0.65;
      }

      
    </style>
  </defs>
  <title>SP_FlyoutMenu_15x9_N_D@2x</title>
  <path id="Fill" class="fill" d="M16,14.5v1a0.5,0.5,0,0,0,.5.5h9a0.5,0.5,0,0,0,.5-0.5v-1a0.5,0.5,0,0,0-.5-0.5h-9A0.5,0.5,0,0,0,16,14.5Zm0-6v1a0.5,0.5,0,0,0,.5.5h9A0.5,0.5,0,0,0,26,9.5v-1A0.5,0.5,0,0,0,25.5,8h-9A0.5,0.5,0,0,0,16,8.5Zm0-6v1a0.5,0.5,0,0,0,.5.5h9A0.5,0.5,0,0,0,26,3.5v-1A0.5,0.5,0,0,0,25.5,2h-9A0.5,0.5,0,0,0,16,2.5ZM2,4.809v8.382a0.5,0.5,0,0,0,.724.447L12,9,2.724,4.362A0.5,0.5,0,0,0,2,4.809Z"/>
  </svg>