<svg xmlns="http://www.w3.org/2000/svg" width="36" height="36" viewBox="0 0 36 36">
  <defs>
    <style>
      .fill {
        fill: #fff;
        fill-rule: evenodd;
        opacity: 0.65;
      }
    </style>
  </defs>
  <g id="ImportedIcons">
    <path class="fill" d="M28.677,28.542v-1.4a.966.966,0,0,1,.246-.623,7.366,7.366,0,0,0,1.675-4.6c0-3.479-1.845-5.424-4.633-5.424s-4.686,2.021-4.686,5.424a7.447,7.447,0,0,0,1.756,4.6.96491.96491,0,0,1,.246.623v1.389a.958.958,0,0,1-.836.967c-5.6.487-6.439,4.319-6.439,5.83C16.005,35.5,16,36,16,36H36v-.667c0-1.448-.989-5.266-6.49-5.825A.963.963,0,0,1,28.677,28.542Z"/>
    <path class="fill" d="M19.69336,26.95215a10.44891,10.44891,0,0,1-1.41309-4.9502c-.001-5.043,3.15918-8.50683,7.68457-8.50683,4.56543,0,7.63282,3.38574,7.63282,8.42383a10.45671,10.45671,0,0,1-1.36621,5.06445A10.80471,10.80471,0,0,1,34,27.66852V9a1,1,0,0,0-1-1l-14.332.008L15.368,4.608A2,2,0,0,0,13.929,4H4A2,2,0,0,0,2,6V29a1,1,0,0,0,1,1H14.91388A9.113,9.113,0,0,1,19.69336,26.95215ZM4,6h9.929l3.887,4H4Z"/>
  </g>
</svg>
