<?xml version="1.0" encoding="utf-8"?>
<!-- Generator: Adobe Illustrator 25.1.0, SVG Export Plug-In . SVG Version: 6.00 Build 0)  -->
<svg version="1.1" id="Layer_1" xmlns="http://www.w3.org/2000/svg" xmlns:xlink="http://www.w3.org/1999/xlink" x="0px" y="0px"
	 viewBox="0 0 36 36" style="enable-background:new 0 0 36 36;" xml:space="preserve">
<style type="text/css">
	.st0{fill:#7575F1;}
	.st1{fill:#FFFFFF;}
	.st2{fill:#323232;}
</style>
<path class="st1" d="M18,0C8.1,0,0,8.1,0,18c0,9.9,8.1,18,18,18c9.9,0,18-8.1,18-18C36,8.1,27.9,0,18,0z M29.9,14.5
	c0,0.1-0.1,0.2-0.1,0.2l-6.5,5.2l2.2,8c0.1,0.2,0,0.4-0.2,0.4c0,0,0,0,0,0c-0.1,0-0.2,0-0.3,0L18,23.7l-6.9,4.6
	c-0.2,0.1-0.4,0-0.5-0.1c-0.1-0.1-0.1-0.2,0-0.3l2.2-8l-6.5-5.2c-0.1-0.1-0.2-0.3-0.1-0.5c0.1-0.1,0.1-0.1,0.2-0.1l8.3-0.4l2.9-7.8
	c0.1-0.2,0.2-0.3,0.4-0.2c0,0,0,0,0,0c0.1,0.1,0.2,0.1,0.2,0.2l2.9,7.8l8.3,0.4C29.7,14.1,29.9,14.3,29.9,14.5
	C29.9,14.5,29.9,14.5,29.9,14.5z"/>
</svg>
