<svg xmlns="http://www.w3.org/2000/svg" data-name="S_FullScreen_18_N@2x" height="36" id="S_FullScreen_18_N_2x" viewBox="0 0 36 36" width="36">
  <defs>
    <style>
	.fill {
		fill: #000000;
		
        opacity: 0.65;
      }</style>
  </defs>
  <title>S_FullScreen_18_N@2x</title>
  <path class="fill" d="M32,24.5V30H26.5a.5.5,0,0,0-.5.5v1a.5.5,0,0,0,.5.5H34V24.5a.5.5,0,0,0-.5-.5h-1A.5.5,0,0,0,32,24.5Z" />
  <path class="fill" d="M4,30V24.5a.5.5,0,0,0-.5-.5h-1a.5.5,0,0,0-.5.5V32H9.5a.5.5,0,0,0,.5-.5v-1a.5.5,0,0,0-.5-.5Z" />
  <path class="fill" d="M26,4.5v1a.5.5,0,0,0,.5.5H32v5.5a.5.5,0,0,0,.5.5h1a.5.5,0,0,0,.5-.5V4H26.5A.5.5,0,0,0,26,4.5Z" />
  <path class="fill" d="M4,6H9.5a.5.5,0,0,0,.5-.5v-1A.5.5,0,0,0,9.5,4H2v7.5a.5.5,0,0,0,.5.5h1a.5.5,0,0,0,.5-.5Z" />
  <rect class="fill" height="16" rx="0.5" ry="0.5" width="20" x="8" y="10" />
  </svg>