<svg id="S_FullSequence_Sm_N_D_2x" data-name="S_FullSequence_Sm_N_D@2x" xmlns="http://www.w3.org/2000/svg" width="32" height="32" viewBox="0 0 32 32">
  <defs>
    <style>
      .fill {
        fill: #fff;
        fill-rule: evenodd;
        opacity: 0.65;
      }

      
    </style>
  </defs>
  <title>S_FullSequence_Sm_N_D@2x</title>
  <path class="fill" d="M14,10H6.5a0.5,0.5,0,0,0-.5.5v3a0.5,0.5,0,0,0,.5.5H14V10Z"/>
  <path class="fill" d="M27.5,10H20v4h7.5a0.5,0.5,0,0,0,.5-0.5v-3A0.5,0.5,0,0,0,27.5,10Z"/>
  <path class="fill" d="M23.5,16H20v4h3.5a0.5,0.5,0,0,0,.5-0.5v-3A0.5,0.5,0,0,0,23.5,16Z"/>
  <path class="fill" d="M8,22.5v3a0.5,0.5,0,0,0,.5.5H14V22H8.5A0.5,0.5,0,0,0,8,22.5Z"/>
  <path class="fill" d="M20,22v4h9.5a0.5,0.5,0,0,0,.5-0.5v-3a0.5,0.5,0,0,0-.5-0.5H20Z"/>
  <path class="fill" d="M18,8a1.959,1.959,0,0,1,2-2V2.5A0.5,0.5,0,0,0,19.5,2h-5a0.5,0.5,0,0,0-.5.5V6a1.959,1.959,0,0,1,2,2V28h2V8Z"/>
  <path class="fill" d="M14,16H2.5a0.5,0.5,0,0,0-.5.5v3a0.5,0.5,0,0,0,.5.5H14V16Z"/>
  </svg>