<svg id="S_FXMenuPurple_Xs_N_D_2x" data-name="S_FXMenuPurple_Xs_N_D@2x" xmlns="http://www.w3.org/2000/svg" width="26" height="26" viewBox="0 0 26 26">
  <defs>
    <style>
      .fill {
        fill: #fff;
        fill-rule: evenodd;
        opacity: 0.65;
      }

      .cls-1 {
        fill: #a67de0;
      }

      .cls-2 {
        fill-opacity: 0.65;
      }

      
    </style>
  </defs>
  <title>S_FXMenuPurple_Xs_N_D@2x</title>
  <path class="fill" d="M0,3V23a1,1,0,0,0,1,1H23a1,1,0,0,0,1-1V3a1,1,0,0,0-1-1H1A1,1,0,0,0,0,3ZM21,22H3a1,1,0,0,1-1-1V5A1,1,0,0,1,3,4H21a1,1,0,0,1,1,1V21A1,1,0,0,1,21,22Z"/>
  <path class="cls-1" d="M3,4H21a1,1,0,0,1,1,1V21a1,1,0,0,1-1,1H3a1,1,0,0,1-1-1V5A1,1,0,0,1,3,4Z"/>
  <path id="Fill" class="cls-2" d="M5.123,11.781H7c-0.25.906-2.469,8.781-2.838,10.025-0.04.1,0,.162,0.079,0.162A9.733,9.733,0,0,1,5.687,22a0.154,0.154,0,0,0,.158-0.142C6.259,20.541,7.91,15.59,8.679,11.781h2.015a8.248,8.248,0,0,0,1.6-.121l-0.118-1.108a0.075,0.075,0,0,0-.079-0.1H9.054L9.315,9.257c0.493-2.35,1.383-1.94,2.191-1.94a15.534,15.534,0,0,1,1.86.526c0.059,0.02.1-.02,0.118-0.1l0.256-1.175a0.15,0.15,0,0,0-.078-0.162,11.418,11.418,0,0,0-2.132-.419c-1.913,0-3.158.313-3.809,3.372L7.46,10.45h-1.9a0.109,0.109,0,0,0-.119.1L5.045,11.66l-0.006.04A0.157,0.157,0,0,1,5.123,11.781Z"/>
  <path id="Fill3" class="cls-2" d="M12.062,10.313c-0.034-.069,0-0.122.051-0.122h1.41a0.084,0.084,0,0,1,.1.07l1.344,3.927,0.177,0.02,3.215-3.884a0.162,0.162,0,0,1,.153-0.1h1.392a0.067,0.067,0,0,1,.051.122c-0.815.955-2.965,3.59-3.916,4.666,0.476,1.042,1.523,3.66,1.9,4.493a0.076,0.076,0,0,1-.068.122H16.494c-0.068,0-1.557-3.747-1.557-3.747H14.921c-0.612.816-3.117,3.938-3.2,3.938H10.26a0.068,0.068,0,0,1-.034-0.122c1.07-1.233,2.738-3.555,3.774-4.753Z"/>
  </svg>