<svg xmlns="http://www.w3.org/2000/svg" width="64" height="64" viewBox="0 0 64 64">
  <defs>
    <style>
      .cls-1 {
        fill: #9f9f9f;
      }

      .cls-2 {
        fill: #fff;
      }
    </style>
  </defs>
  <title>Asset 1@2x</title>
  <g id="Layer_2" data-name="Layer 2">
    <g id="Layer_1-2" data-name="Layer 1">
      <path class="cls-1" d="M55,0H9A9,9,0,0,0,0,9V55a9,9,0,0,0,9,9H55a9,9,0,0,0,9-9V9A9,9,0,0,0,55,0Z"/>
      <path class="cls-2" d="M32,7.2a12,12,0,1,0,12,12A12,12,0,0,0,32,7.2Zm0,19.44a7.44,7.44,0,1,1,7.44-7.44A7.44,7.44,0,0,1,32,26.64ZM56,43.2v9.6A1.2,1.2,0,0,1,54.8,54H52.4a1.2,1.2,0,0,1-1.2-1.2V43.2a6.223,6.223,0,0,0-6.363-6.057,8.391,8.391,0,0,0-3.942,1.106,19.467,19.467,0,0,1-17.79,0,8.39,8.39,0,0,0-3.942-1.106A6.223,6.223,0,0,0,12.8,43.2v9.6A1.2,1.2,0,0,1,11.6,54H9.2A1.2,1.2,0,0,1,8,52.8V43.2A11.046,11.046,0,0,1,19.163,32.343c5.367,0,6.7,3.257,12.837,3.257s7.471-3.257,12.837-3.257A11.045,11.045,0,0,1,56,43.2Z"/>
    </g>
  </g>
</svg>
