<svg xmlns="http://www.w3.org/2000/svg" width="32" height="32" viewBox="0 0 32 32">
  <defs>
    <style>
      .cls-1 {
        fill: #9f9f9f;
      }

      .cls-2 {
        fill: #fff;
      }
    </style>
  </defs>
  <title>Asset 1@2x</title>
  <g id="Layer_2" data-name="Layer 2">
    <g id="Layer_1-2" data-name="Layer 1">
      <path class="cls-1" d="M27.5,0h-23C2,0,0,2,0,4.5v23C0,30,2,32,4.5,32h23c2.5,0,4.5-2,4.5-4.5v-23C32,2,30,0,27.5,0z"/>
      <path class="cls-2" d="M16,3.6c-3.3,0-6,2.7-6,6s2.7,6,6,6s6-2.7,6-6S19.3,3.6,16,3.6L16,3.6z M16,13.3c-2.1,0-3.7-1.7-3.7-3.7c0-2.1,1.7-3.7,3.7-3.7s3.7,1.7,3.7,3.7l0,0C19.7,11.7,18.1,13.3,16,13.3z M28,21.6v4.8c0,0.3-0.3,0.6-0.6,0.6h-1.2c-0.3,0-0.6-0.3-0.6-0.6l0,0v-4.8c0-1.7-1.5-3.1-3.2-3c-0.7,0-1.4,0.2-2,0.6c-2.8,1.4-6.1,1.4-8.9,0c-0.6-0.3-1.3-0.5-2-0.6c-1.7,0-3.1,1.3-3.2,3v4.8c0,0.3-0.3,0.6-0.6,0.6H4.6C4.3,27,4,26.7,4,26.4l0,0v-4.8c0.1-3,2.5-5.5,5.6-5.4c2.7,0,3.3,1.6,6.4,1.6s3.7-1.6,6.4-1.6C25.5,16.1,27.9,18.6,28,21.6z"/>
    </g>
  </g>
</svg>
