<svg id="S_GoToNextEdit_Lg_N_D_2x" data-name="S_GoToNextEdit_Lg_N_D@2x" xmlns="http://www.w3.org/2000/svg" width="44" height="36" viewBox="0 0 44 36">
  <defs>
    <style>
      .fill {
        fill: #fff;
        fill-rule: evenodd;
        opacity: 0.65;
      }

      
    </style>
  </defs>
  <title>S_GoToNextEdit_Lg_N_D@2x</title>
  <path id="Fill" class="fill" d="M32,5V29a1,1,0,0,0,1,1h2a1,1,0,0,0,1-1V5a1,1,0,0,0-1-1H33A1,1,0,0,0,32,5Z"/>
  <path id="Fill2" class="fill" d="M9,14h9V9.123a0.5,0.5,0,0,1,.834-0.372L28,17l-9.166,8.249A0.5,0.5,0,0,1,18,24.877V20H9a1,1,0,0,1-1-1V15A1,1,0,0,1,9,14Z"/>
  </svg>