<svg id="S_GoToPreviousMarker_Lg_N_D_2x" data-name="S_GoToPreviousMarker_Lg_N_D@2x" xmlns="http://www.w3.org/2000/svg" width="44" height="36" viewBox="0 0 44 36">
  <defs>
    <style>
      .fill {
        fill: #fff;
        fill-rule: evenodd;
        opacity: 0.65;
      }

      
    </style>
  </defs>
  <title>S_GoToPreviousMarker_Lg_N_D@2x</title>
  <path id="Fill" class="fill" d="M39,14H30V9.123a0.5,0.5,0,0,0-.834-0.372L20,17l9.166,8.249A0.5,0.5,0,0,0,30,24.877V20h9a1,1,0,0,0,1-1V15A1,1,0,0,0,39,14Z"/>
  <path id="Fill2" class="fill" d="M4,9V20l7,6,7-6V9a1,1,0,0,0-1-1H5A1,1,0,0,0,4,9Z"/>
  </svg>