<svg id="S_GoToPreviousEdit_Lg_N_D_2x" data-name="S_GoToPreviousEdit_Lg_N_D@2x" xmlns="http://www.w3.org/2000/svg" width="44" height="36" viewBox="0 0 44 36">
  <defs>
    <style>
      .fill {
        fill: #fff;
        fill-rule: evenodd;
        opacity: 0.65;
      }

      
    </style>
  </defs>
  <title>S_GoToPreviousEdit_Lg_N_D@2x</title>
  <path id="Fill" class="fill" d="M12,5V29a1,1,0,0,1-1,1H9a1,1,0,0,1-1-1V5A1,1,0,0,1,9,4h2A1,1,0,0,1,12,5Z"/>
  <path id="Fill2" class="fill" d="M35,14H26V9.123a0.5,0.5,0,0,0-.834-0.372L16,17l9.166,8.249A0.5,0.5,0,0,0,26,24.877V20h9a1,1,0,0,0,1-1V15A1,1,0,0,0,35,14Z"/>
  </svg>