<svg id="SP_Gripper_10x3_N_D_2x" data-name="SP_Gripper_10x3_N_D@2x" xmlns="http://www.w3.org/2000/svg" width="18" height="6" viewBox="0 0 18 6">
  <defs>
    <style>
      .fill {
        fill: #fff;
        fill-rule: evenodd;
        opacity: 0.65;
      }

      
    </style>
  </defs>
  <title>SP_Gripper_10x3_N_D@2x</title>
<path id="Fill" class="fill" d="M17,2L17,2c0.6,0,1-0.4,1-1l0,0c0-0.6-0.4-1-1-1l0,0c-0.6,0-1,0.4-1,1l0,0C16,1.6,16.4,2,17,2z M13,2L13,2
	c0.6,0,1-0.4,1-1l0,0c0-0.6-0.4-1-1-1l0,0c-0.6,0-1,0.4-1,1l0,0C12,1.6,12.4,2,13,2z M9,2L9,2c0.6,0,1-0.4,1-1l0,0c0-0.6-0.4-1-1-1
	l0,0C8.4,0,8,0.4,8,1l0,0C8,1.6,8.4,2,9,2z M5,2L5,2c0.6,0,1-0.4,1-1l0,0c0-0.6-0.4-1-1-1l0,0C4.4,0,4,0.4,4,1l0,0C4,1.6,4.4,2,5,2z
	 M1,2L1,2c0.6,0,1-0.4,1-1l0,0c0-0.6-0.4-1-1-1l0,0C0.4,0,0,0.4,0,1l0,0C0,1.6,0.4,2,1,2z M17,6L17,6c0.6,0,1-0.4,1-1l0,0
	c0-0.6-0.4-1-1-1l0,0c-0.6,0-1,0.4-1,1l0,0C16,5.6,16.4,6,17,6z M13,6L13,6c0.6,0,1-0.4,1-1l0,0c0-0.6-0.4-1-1-1l0,0
	c-0.6,0-1,0.4-1,1l0,0C12,5.6,12.4,6,13,6z M9,6L9,6c0.6,0,1-0.4,1-1l0,0c0-0.6-0.4-1-1-1l0,0C8.4,4,8,4.4,8,5l0,0C8,5.6,8.4,6,9,6z
	 M5,6L5,6c0.6,0,1-0.4,1-1l0,0c0-0.6-0.4-1-1-1l0,0C4.4,4,4,4.4,4,5l0,0C4,5.6,4.4,6,5,6z M1,6L1,6c0.6,0,1-0.4,1-1l0,0
	c0-0.6-0.4-1-1-1l0,0C0.4,4,0,4.4,0,5l0,0C0,5.6,0.4,6,1,6z"/>
</svg>
