<svg id="SP_Gripper_3x10_N_D_2x" data-name="SP_Gripper_3x10_N_D@2x" xmlns="http://www.w3.org/2000/svg" width="6" height="20" viewBox="0 0 6 20">
  <defs>
    <style>
      .fill {
        fill: #fff;
        fill-rule: evenodd;
        opacity: 0.65;
      }

      
    </style>
  </defs>
  <title>SP_Gripper_3x10_N_D@2x</title>
  <path id="Fill" class="fill" d="M4,19H4a1,1,0,0,0,1,1H5a1,1,0,0,0,1-1H6a1,1,0,0,0-1-1H5A1,1,0,0,0,4,19Zm0-4H4a1,1,0,0,0,1,1H5a1,1,0,0,0,1-1H6a1,1,0,0,0-1-1H5A1,1,0,0,0,4,15Zm0-4H4a1,1,0,0,0,1,1H5a1,1,0,0,0,1-1H6a1,1,0,0,0-1-1H5A1,1,0,0,0,4,11ZM4,7H4A1,1,0,0,0,5,8H5A1,1,0,0,0,6,7H6A1,1,0,0,0,5,6H5A1,1,0,0,0,4,7ZM4,3H4A1,1,0,0,0,5,4H5A1,1,0,0,0,6,3H6A1,1,0,0,0,5,2H5A1,1,0,0,0,4,3ZM0,19H0a1,1,0,0,0,1,1H1a1,1,0,0,0,1-1H2a1,1,0,0,0-1-1H1A1,1,0,0,0,0,19Zm0-4H0a1,1,0,0,0,1,1H1a1,1,0,0,0,1-1H2a1,1,0,0,0-1-1H1A1,1,0,0,0,0,15Zm0-4H0a1,1,0,0,0,1,1H1a1,1,0,0,0,1-1H2a1,1,0,0,0-1-1H1A1,1,0,0,0,0,11ZM0,7H0A1,1,0,0,0,1,8H1A1,1,0,0,0,2,7H2A1,1,0,0,0,1,6H1A1,1,0,0,0,0,7ZM0,3H0A1,1,0,0,0,1,4H1A1,1,0,0,0,2,3H2A1,1,0,0,0,1,2H1A1,1,0,0,0,0,3Z"/>
  </svg>