<svg id="S_ObjectSnap_Lg_N_D_2x" data-name="S_ObjectSnap_Lg_N_D@2x" xmlns="http://www.w3.org/2000/svg" width="44" height="36" viewBox="0 0 44 36">
  <defs>
    <style>
      .fill {
        fill: #fff;
        fill-rule: evenodd;
        opacity: 0.65;
      }


    </style>
  </defs>
  <title>S_ObjectSnap_Lg_N_D@2x</title>
  <path class="fill" d="M6,9.5V6H9.5a.5.5,0,0,0,.5-.5v-1A.5.5,0,0,0,9.5,4H5A1,1,0,0,0,4,5V9.5a.5.5,0,0,0,.5.5h1A.5.5,0,0,0,6,9.5Z"/>
  <path class="fill" d="M38.5,10h1a.5.5,0,0,0,.5-.5V5a1,1,0,0,0-1-1H34.5a.5.5,0,0,0-.5.5v1a.5.5,0,0,0,.5.5H38V9.5A.5.5,0,0,0,38.5,10Z"/>
  <path class="fill" d="M9.5,30H6V26.5a.5.5,0,0,0-.5-.5h-1a.5.5,0,0,0-.5.5V31a1,1,0,0,0,1,1H9.5a.5.5,0,0,0,.5-.5v-1A.5.5,0,0,0,9.5,30Z"/>
  <path class="fill" d="M38,26.5V30H34.5a.5.5,0,0,0-.5.5v1a.5.5,0,0,0,.5.5H39a1,1,0,0,0,1-1V26.5a.5.5,0,0,0-.5-.5h-1A.5.5,0,0,0,38,26.5Z"/>
  <path class="fill" d="M35,12H27a1,1,0,0,0-1,1v3H18V11a1,1,0,0,0-1-1H9a1,1,0,0,0-1,1V23a1,1,0,0,0,1,1h8a1,1,0,0,0,1-1V18h8v3a1,1,0,0,0,1,1h8a1,1,0,0,0,1-1V13A1,1,0,0,0,35,12ZM16,16H12.5a.5.5,0,0,0-.5.5v1a.5.5,0,0,0,.5.5H16v4H10V12h6Zm18,4H28V18h3.5a.5.5,0,0,0,.5-.5v-1a.5.5,0,0,0-.5-.5H28V14h6Z"/>
  </svg>
