<svg xmlns="http://www.w3.org/2000/svg" data-name="S_Guides_Sm_N_D@2x" height="32" id="S_Guides_Sm_N_D_2x" viewBox="0 0 32 32" width="32">
  <defs>
    <style>
      .fill {
        fill: #fff;
        fill-rule: evenodd;
        opacity: 0.65;
      }

      
    </style>
  </defs>
  <path class="fill" d="M29.5,12a.5.5,0,0,0,.5-.5v-1a.5.5,0,0,0-.5-.5H16V2.5a.5.5,0,0,0-.5-.5h-1a.5.5,0,0,0-.5.5V10H10V2.5A.5.5,0,0,0,9.5,2h-1a.5.5,0,0,0-.5.5V10H2.5a.5.5,0,0,0-.5.5v1a.5.5,0,0,0,.5.5H8v8H2.5a.5.5,0,0,0-.5.5v1a.5.5,0,0,0,.5.5H8v7.5a.5.5,0,0,0,.5.5h1a.5.5,0,0,0,.5-.5V22h4v7.5a.5.5,0,0,0,.5.5h1a.5.5,0,0,0,.5-.5V22H29.5a.5.5,0,0,0,.5-.5v-1a.5.5,0,0,0-.5-.5H16V12ZM14,20H10V12h4Z" />
  </svg>