<svg xmlns="http://www.w3.org/2000/svg" data-name="S_HelpOutline_18_N_D@2x" height="36" id="S_HelpOutline_18_N_D_2x" viewBox="0 0 36 36" width="36">
  <defs>
    <style>
      .fill {
        fill: #fff;
        opacity: 0.65;
      }

      
    </style>
  </defs>
  <path class="fill" d="M22.5,14.025a4.417,4.417,0,0,1-1.535,3.41c-.936.916-1.823,1.731-1.823,2.472a2.671,2.671,0,0,0,.383,1.361.105.105,0,0,1-.095.173H17.343a.4.4,0,0,1-.312-.1,2.764,2.764,0,0,1-.576-1.707c0-1.161.7-1.9,1.848-3.09.791-.815,1.247-1.334,1.247-2.1,0-.89-.576-1.508-2.039-1.508a5.956,5.956,0,0,0-3.023.815.12.12,0,0,1-.191-.1v-2.4c0-.1,0-.2.1-.248a7.443,7.443,0,0,1,3.646-.865C20.917,10.142,22.5,11.849,22.5,14.025ZM16.575,25.149a1.68,1.68,0,1,1,3.359,0,1.575,1.575,0,0,1-1.679,1.731A1.6,1.6,0,0,1,16.575,25.149Z" />
  <path class="fill" d="M18,2.1A15.9,15.9,0,1,0,33.9,18,15.9,15.9,0,0,0,18,2.1Zm0,29.813A13.913,13.913,0,1,1,31.913,18,13.912,13.912,0,0,1,18,31.913Z" />
  </svg>