<?xml version="1.0" encoding="UTF-8"?>
<svg id="i_c_o_n_s" data-name="i c o n s" xmlns="http://www.w3.org/2000/svg" width="28" height="28" viewBox="0 0 28 28">
  <defs>
    <style>
      .fill {
        fill: #fff;
        opacity: .65;
        fill-rule: evenodd;
      }
    </style>
  </defs>
  <path class="fill" d="M14.176,18.626c-.807-.033-1.489,.594-1.522,1.402-.002,.047-.002,.095,.001,.142-.067,.797,.525,1.497,1.322,1.564,.066,.006,.133,.007,.199,.003,.786,.056,1.468-.535,1.524-1.321,.006-.082,.005-.165-.004-.246,.045-.807-.574-1.498-1.381-1.543-.046-.003-.093-.003-.139-.001Z"/>
  <path class="fill" d="M13.963,6.222c-1.223-.026-2.433,.261-3.514,.834-.092,.049-.092,.143-.092,.239v2.311c0,.064,.051,.116,.115,.117,.025,0,.049-.008,.069-.022,.884-.517,1.889-.788,2.913-.785,1.41,0,1.965,.595,1.965,1.453,0,.739-.439,1.239-1.202,2.025-1.11,1.144-1.781,1.858-1.781,2.978-.004,.595,.191,1.174,.555,1.645,.082,.074,.191,.109,.3,.095h2.011c.055,.009,.107-.029,.116-.085,.005-.03-.004-.06-.024-.082-.239-.396-.367-.849-.37-1.311,0-.714,.855-1.5,1.757-2.382,.955-.823,1.497-2.026,1.479-3.287,0-2.097-1.526-3.742-4.299-3.742Z"/>
  <path class="fill" d="M14,.778c-7.302,0-13.222,5.92-13.222,13.222,0,7.302,5.92,13.222,13.222,13.222,7.302,0,13.222-5.92,13.222-13.222,0-7.302-5.92-13.222-13.222-13.222Zm0,23.605c-5.734,0-10.383-4.649-10.383-10.383,0-5.734,4.649-10.383,10.383-10.383,5.734,0,10.383,4.649,10.383,10.383,0,5.734-4.649,10.383-10.383,10.383h0Z"/>
</svg>