<?xml version="1.0" encoding="UTF-8"?>
<svg id="ICONS" xmlns="http://www.w3.org/2000/svg" width="36" height="36" viewBox="0 0 36 36">
  <defs>
    <style>
      .fillMedium {
        opacity: .3;
      }

      .fillMedium, .fill {
        fill: #fff;
      }

      .fill {
        opacity: .65;
      }
    </style>
  </defs>
  <path class="fillMedium" d="M30.26954,13.50824c-.00988-5.76754-4.4849-10.03202-9.84733-10.03202s-8.54612,3.27782-8.88115,6.61519c-.10557,1.05159.54367,1.8404,1.14801,2.07544,1.62965.63381,3.70658-.58232,5.66216.12462,2.79885,1.01179,4.19701,5.33519,8.18994,5.33653,2.33279.00079,3.73128-2.42555,3.72838-4.11976Z"/>
  <path class="fill" d="M20.64916,1.44426c-6.91362,0-10.60334,3.21162-11.37648,9.3521-.25448,2.02559-4.1771,5.0708-4.1771,7.37259,0,1.65048,2.48065.52942,2.81365,1.12376.33312.5944-.333,3.29843,0,5.09384.33444,1.79547,4.94356,1.11023,6.12285,2.41827.38323.43593.283,1.39732.283,2.59833h.00138c0,.74372-.01872,2.02077-.00428,4.09974.00188.27075.2224.49709.49316.49709h9.9072c.27219.00001.49285-.22064.49285-.49283v-4.39518c.01486-.58622.22747-3.63143.61191-4.06598,2.69718-3.27948,5.60299-4.79327,6.35989-9.65952,1.071-7.81129-4.61453-13.9422-11.52803-13.9422ZM26.54117,17.62798c-3.99294-.00132-5.3911-4.32473-8.18995-5.33654-1.95556-.7069-4.03253.50921-5.66213-.1246-.60439-.23505-1.25359-1.02383-1.14801-2.07546.33504-3.33736,3.51869-6.61515,8.88115-6.61515s9.83742,4.26445,9.84729,10.03199c.00295,1.69422-1.39557,4.12054-3.72835,4.11976Z"/>
</svg>