<svg id="S_ChannelMappingR_21x20_N_2x" data-name="S_ChannelMappingR_21x20_N@2x" xmlns="http://www.w3.org/2000/svg" width="42" height="40" viewBox="0 0 42 40">
  <defs>
    <style>
      .Background, .fillMedium {
        opacity: 0.3;
      }

      .Background {
        fill: #fff;
      }

      .fill {
        fill-rule: evenodd;
        opacity: 0.65;
      }

      
    </style>
  </defs>
  <title>S_ChannelMappingR_21x20_N@2x</title>
  <path class="fillMedium" d="M40,2V38H2V2H40Zm1-2H1A1,1,0,0,0,0,1V39a1,1,0,0,0,1,1H41a1,1,0,0,0,1-1V1A1,1,0,0,0,41,0Z"/>
  <path class="Background" d="M2,2V38H40V2H2ZM17,22.422a0.578,0.578,0,0,1-.578.578H12.956l-5,3.853A0.578,0.578,0,0,1,7,26.421V13.579a0.578,0.578,0,0,1,.961-0.432l5,3.853h3.466a0.578,0.578,0,0,1,.578.578v4.845Z"/>
  <path class="fill" d="M20,17.578A0.578,0.578,0,0,1,20.578,17h3.466l5-3.853a0.578,0.578,0,0,1,.961.432V26.421a0.578,0.578,0,0,1-.961.432l-5-3.853H20.578A0.578,0.578,0,0,1,20,22.422V17.578Z"/>
  <path class="fill" d="M32,17.894v0.617a0.3,0.3,0,0,0,.232.293,1.218,1.218,0,0,1,0,2.391,0.3,0.3,0,0,0-.232.293v0.617a0.31,0.31,0,0,0,.358.3,2.435,2.435,0,0,0,0-4.818A0.31,0.31,0,0,0,32,17.894Z"/>
  <path class="fill" d="M32,14.838v0.61a0.3,0.3,0,0,0,.292.3,4.261,4.261,0,0,1,0,8.5,0.3,0.3,0,0,0-.292.3v0.61a0.307,0.307,0,0,0,.318.308,5.479,5.479,0,0,0,0-10.939A0.307,0.307,0,0,0,32,14.838Z"/>
  <path class="fillMedium" d="M17,17.578A0.578,0.578,0,0,0,16.422,17H12.956l-5-3.853A0.578,0.578,0,0,0,7,13.579V26.421a0.578,0.578,0,0,0,.961.432l5-3.853h3.466A0.578,0.578,0,0,0,17,22.422V17.578Z"/>
  </svg>