<svg id="S_IconView_Wi_N_D_2x" data-name="S_IconView_Wi_N_D@2x" xmlns="http://www.w3.org/2000/svg" width="52" height="24" viewBox="0 0 52 24">
  <defs>
    <style>
      .fill {
        fill: #fff;
        fill-rule: evenodd;
        opacity: 0.65;
      }

      
    </style>
  </defs>
  <title>S_IconView_Wi_N_D@2x</title>
  <path id="Fill" class="fill" d="M16,20.5v1a0.5,0.5,0,0,0,.5.5h19a0.5,0.5,0,0,0,.5-0.5v-1a0.5,0.5,0,0,0-.5-0.5h-19A0.5,0.5,0,0,0,16,20.5ZM16,3V15a1,1,0,0,0,1,1H35a1,1,0,0,0,1-1V3a1,1,0,0,0-1-1H17A1,1,0,0,0,16,3Z"/>
  </svg>