<?xml version="1.0" encoding="UTF-8"?>
<svg id="Illustration" xmlns="http://www.w3.org/2000/svg" width="180" height="180" viewBox="0 0 180 180">
  <defs>
    <style>
      .cls-1 {
        fill: #b3b3b3;
      }
    </style>
  </defs>
  <path class="cls-1" d="m59.375,146h-10.375c-3.859,0-7-3.141-7-7v-9.143c0-3.859,3.141-7,7-7h10.428V43h-28.428v10c0,3.859-3.141,7-7,7h-9c-3.859,0-7-3.141-7-7v-26c0-3.859,3.141-7,7-7h112c3.859,0,7,3.141,7,7v26c0,3.859-3.141,7-7,7h-9.143c-3.859,0-7-3.141-7-7v-10h-28.285v69.688c0,1.656-1.344,3-3,3s-3-1.344-3-3V40c0-1.656,1.344-3,3-3h34.285c1.656,0,3,1.344,3,3v13c0,.551.449,1,1,1h9.143c.551,0,1-.449,1-1v-26c0-.551-.449-1-1-1H15c-.551,0-1,.449-1,1v26c0,.551.449,1,1,1h9c.551,0,1-.449,1-1v-13c0-1.656,1.344-3,3-3h34.428c1.656,0,3,1.344,3,3v85.857c0,1.656-1.344,3-3,3h-13.428c-.551,0-1,.449-1,1v9.143c0,.551.449,1,1,1h10.375c1.656,0,3,1.344,3,3s-1.344,3-3,3Z"/>
  <g>
    <path class="cls-1" d="m118.352,171.75c-18.393,0-32.447-8.086-41.002-14.871-5.408-4.291-8.803-10.549-9.082-16.742-.236-5.297,1.748-10.104,5.74-13.898,9.018-8.58,19.48-5.57,28.711-2.916,1.523.439,3.035.873,4.521,1.25,2.217.561,3.807-.033,5.33-1.979.883-1.125,1.189-2.279.941-3.527-.365-1.828-1.881-3.553-3.119-4.25-4.605-2.586-6.342-6.615-4.889-11.34,2.383-7.758,16.582-9.758,29.355-7.723h0c14.695,2.338,35.391,15.557,35.391,37.627,0,21.156-23.281,38.369-51.898,38.369Zm-29.982-45.156c-3.666,0-7.109,1.027-10.227,3.992-2.695,2.562-4.037,5.773-3.881,9.283.201,4.48,2.75,9.084,6.818,12.311,7.805,6.189,20.607,13.57,37.271,13.57,24.879,0,45.898-14.824,45.898-32.369,0-18.537-17.738-29.697-30.332-31.701h0c-12.562-1.998-21.824.771-22.68,3.559-.514,1.67-.342,2.98,2.092,4.348,2.471,1.387,5.303,4.492,6.064,8.305.596,2.982-.131,5.889-2.102,8.404-2.996,3.824-6.973,5.238-11.521,4.094-1.549-.391-3.123-.844-4.711-1.299-4.404-1.268-8.68-2.496-12.691-2.496Z"/>
    <path class="cls-1" d="m94.154,139.688c3.442,0,6.242,2.801,6.242,6.245s-2.8,6.244-6.242,6.244-6.242-2.801-6.242-6.244,2.8-6.245,6.242-6.245h0Zm0-4c-5.657,0-10.242,4.587-10.242,10.245s4.586,10.244,10.242,10.244,10.242-4.587,10.242-10.244-4.586-10.245-10.242-10.245h0Z"/>
    <path class="cls-1" d="m146.162,117.181c1.378,0,2.5,1.122,2.5,2.501s-1.122,2.501-2.5,2.501-2.5-1.122-2.5-2.501,1.122-2.501,2.5-2.501h0Zm0-4c-3.59,0-6.5,2.911-6.5,6.501s2.91,6.501,6.5,6.501,6.5-2.911,6.5-6.501-2.91-6.501-6.5-6.501h0Z"/>
    <path class="cls-1" d="m117.302,146.654c3.087,0,5.599,2.512,5.599,5.601s-2.511,5.6-5.599,5.6-5.599-2.512-5.599-5.6,2.512-5.601,5.599-5.601h0Zm0-4c-5.301,0-9.599,4.298-9.599,9.601s4.297,9.6,9.599,9.6,9.599-4.298,9.599-9.6-4.297-9.601-9.599-9.601h0Z"/>
    <path class="cls-1" d="m138.309,145.615c2.262,0,4.102,1.841,4.102,4.103s-1.84,4.103-4.102,4.103-4.102-1.841-4.102-4.103,1.84-4.103,4.102-4.103h0Zm0-4c-4.474,0-8.102,3.628-8.102,8.103s3.627,8.103,8.102,8.103,8.102-3.628,8.102-8.103-3.627-8.103-8.102-8.103h0Z"/>
    <path class="cls-1" d="m151.61,132.468c1.82,0,3.3,1.481,3.3,3.302s-1.48,3.302-3.3,3.302-3.3-1.481-3.3-3.302,1.48-3.302,3.3-3.302h0Zm0-4c-4.032,0-7.3,3.269-7.3,7.302s3.268,7.302,7.3,7.302,7.3-3.269,7.3-7.302-3.268-7.302-7.3-7.302h0Z"/>
  </g>
</svg>