<svg xmlns="http://www.w3.org/2000/svg" data-name="S_IlluRushProjectBrowserEmptyState_90x80@2x" height="160" id="S_IlluRushProjectBrowserEmptyState_90x80_2x" viewBox="0 0 180 160" width="180">
  <defs>
    <style>
      .cls-1 {
        fill: #5c5c5c;
        opacity: 1;
      }

      
    </style>
  </defs>
  <title>S_IlluRushProjectBrowserEmptyState_90x80@2x</title>
  <path class="cls-1" d="M104.225,87.483,84.049,75.72a3.842,3.842,0,0,0-1.933-.524H79.867a2.918,2.918,0,0,0-2.914,2.914v23.778a2.918,2.918,0,0,0,2.914,2.914h2.249a3.828,3.828,0,0,0,1.922-.52l20.191-11.769a2.918,2.918,0,0,0,0-5.03ZM82.116,100.8H80.953V79.2h1.115L100.6,90Z" />
  <path class="cls-1" d="M88,56.31A33.69,33.69,0,1,0,121.69,90h0A33.726,33.726,0,0,0,88,56.31Zm0,63.38A29.69,29.69,0,1,1,117.69,90,29.689,29.689,0,0,1,88,119.69Z" />
  <path class="cls-1" d="M153.88,36H95.212a1.51,1.51,0,0,1-1.065-.441L80.089,21.488A11.9,11.9,0,0,0,71.672,18H26.12A14.12,14.12,0,0,0,12,32.12v97.76A14.12,14.12,0,0,0,26.12,144H153.88A14.12,14.12,0,0,0,168,129.88V50.12A14.12,14.12,0,0,0,153.88,36ZM162,129.881A8.119,8.119,0,0,1,153.881,138H26.119A8.119,8.119,0,0,1,18,129.881h0V32.12A8.121,8.121,0,0,1,26.12,24H71.672a5.9,5.9,0,0,1,4.171,1.729L86.106,36H28a3,3,0,0,0,0,6H153.88A8.12,8.12,0,0,1,162,50.12Z" />
  </svg>