<svg id="S_Import_Md_N_D_2x" data-name="S_Import_Md_N_D@2x" xmlns="http://www.w3.org/2000/svg" width="36" height="36" viewBox="0 0 36 36">
  <defs>
    <style>
      .fill {
        fill: #fff;
        fill-rule: evenodd;
        opacity: 0.65;
      }

      
    </style>
  </defs>
  <title>S_Import_Md_N_D@2x</title>
  <path class="fill" d="M13.3,4.4A1,1,0,0,0,12.5,4H5A1,1,0,0,0,4,5V6H14.4Z"/>
  <path id="Fill2" class="fill" d="M3,20H9.992V16.1a0.5,0.5,0,0,1,.829-0.376L18.992,23l-8.171,7.274A0.5,0.5,0,0,1,9.992,29.9V26H3a1,1,0,0,1-1-1V21A1,1,0,0,1,3,20Z"/>
  <path class="fill" d="M31,8H4V18H7.992V16.1a2.5,2.5,0,0,1,2.5-2.5h0a2.507,2.507,0,0,1,1.656.631l8.171,7.274L22,23l-1.678,1.494L18.63,26H31a1,1,0,0,0,1-1V9A1,1,0,0,0,31,8Z"/>
  </svg>