<svg xmlns="http://www.w3.org/2000/svg" data-name="S_Instagram_18_N_D@2x" height="36" id="S_Instagram_18_N_D_2x" viewBox="0 0 36 36" width="36">
  <defs>
    <style>
	.fill {
        fill: #fff;
        opacity: 0.65;
      }</style>
  </defs>
  <title>S_Instagram_18_N_D@2x</title>
  <path class="fill" d="M18,4.883c4.272,0,4.778.016,6.465.093a8.853,8.853,0,0,1,2.971.551,4.957,4.957,0,0,1,1.84,1.2,4.957,4.957,0,0,1,1.2,1.84,8.853,8.853,0,0,1,.551,2.971c.077,1.687.093,2.193.093,6.465s-.016,4.778-.093,6.465a8.853,8.853,0,0,1-.551,2.971,5.3,5.3,0,0,1-3.037,3.037,8.853,8.853,0,0,1-2.971.551c-1.687.077-2.193.093-6.465.093s-4.778-.016-6.465-.093a8.853,8.853,0,0,1-2.971-.551,5.3,5.3,0,0,1-3.037-3.037,8.853,8.853,0,0,1-.551-2.971C4.9,22.778,4.883,22.272,4.883,18s.016-4.778.093-6.465a8.853,8.853,0,0,1,.551-2.971,4.957,4.957,0,0,1,1.2-1.84,4.957,4.957,0,0,1,1.84-1.2,8.853,8.853,0,0,1,2.971-.551C13.222,4.9,13.728,4.883,18,4.883ZM18,2c-4.345,0-4.89.018-6.6.1a11.744,11.744,0,0,0-3.884.744A8.181,8.181,0,0,0,2.84,7.519,11.744,11.744,0,0,0,2.1,11.4C2.018,13.11,2,13.655,2,18s.018,4.89.1,6.6a11.744,11.744,0,0,0,.744,3.884A8.181,8.181,0,0,0,7.519,33.16,11.744,11.744,0,0,0,11.4,33.9c1.707.078,2.251.1,6.6.1s4.89-.018,6.6-.1a11.744,11.744,0,0,0,3.884-.744,8.181,8.181,0,0,0,4.679-4.679A11.744,11.744,0,0,0,33.9,24.6c.078-1.707.1-2.251.1-6.6s-.018-4.89-.1-6.6a11.744,11.744,0,0,0-.744-3.884A8.181,8.181,0,0,0,28.481,2.84,11.744,11.744,0,0,0,24.6,2.1C22.89,2.018,22.345,2,18,2Z" />
  <path class="fill" d="M18,9.784A8.216,8.216,0,1,0,26.216,18,8.216,8.216,0,0,0,18,9.784Zm0,13.55A5.333,5.333,0,1,1,23.333,18,5.333,5.333,0,0,1,18,23.333Z" />
  <circle class="fill" cx="26.541" cy="9.459" r="1.92" />
  </svg>