<svg id="S_InOut_Sm_N_D_2x_Wrong_Size_" data-name="S_InOut_Sm_N_D@2x Wrong Size!" xmlns="http://www.w3.org/2000/svg" width="32" height="32" viewBox="0 0 32 32">
  <defs>
    <style>
      .fill, .fillPale {
        fill: #fff;
      }

      .fill {
        fill-rule: evenodd;
        opacity: 0.65;
      }

      .fillPale {
        opacity: 0.15;
      }

      
    </style>
  </defs>
  <title>S_InOut_Sm_N_D@2x Wrong Size!</title>
  <path id="Fill" class="fill" d="M12,5v8L8,16l4,3v8a1,1,0,0,1-1,1H9a1,1,0,0,1-1-1V19L4,16l4-3V5A1,1,0,0,1,9,4h2A1,1,0,0,1,12,5Z"/>
  <path id="Fill-2" data-name="Fill" class="fill" d="M20,5v8l4,3-4,3v8a1,1,0,0,0,1,1h2a1,1,0,0,0,1-1V19l4-3-4-3V5a1,1,0,0,0-1-1H21A1,1,0,0,0,20,5Z"/>
  <path class="fillPale" d="M12,4v9L8,16l4,3v9h8V19l4-3-4-3V4H12Z"/>
  </svg>