<svg id="S_InsertAfter_Wi_N_D_2x" data-name="S_InsertAfter_Wi_N_D@2x" xmlns="http://www.w3.org/2000/svg" width="40" height="26" viewBox="0 0 40 26">
  <defs>
    <style>
      .cls-1 {
        fill: none;
      }

      .fill, .fillMedium {
        fill: #fff;
      }

      .fill {
        fill-rule: evenodd;
        opacity: 0.65;
      }

      .fillMedium {
        opacity: 0.3;
      }

      
    </style>
  </defs>
  <title>S_InsertAfter_Wi_N_D@2x</title>
  <path id="Fill3" class="cls-1" d="M35,2.5V8h2.5a0.5,0.5,0,0,1,.368.838L33,14,28.131,8.837A0.5,0.5,0,0,1,28.5,8H31V2.5A0.5,0.5,0,0,1,31.5,2h3A0.5,0.5,0,0,1,35,2.5Z"/>
  <path id="Fill" class="fill" d="M35,2.5V8h2.5a0.5,0.5,0,0,1,.368.838L33,14,28.131,8.837A0.5,0.5,0,0,1,28.5,8H31V2.5A0.5,0.5,0,0,1,31.5,2h3A0.5,0.5,0,0,1,35,2.5Z"/>
  <path id="Fill2" class="fillMedium" d="M23,16H1a1,1,0,0,0-1,1v8a1,1,0,0,0,1,1H23a1,1,0,0,0,1-1V17A1,1,0,0,0,23,16Z"/>
  <path class="fill" d="M40,17v8a1,1,0,0,1-1,1H27a1,1,0,0,1-1-1V17a1,1,0,0,1,1-1H39A1,1,0,0,1,40,17Z"/>
  </svg>