<svg xmlns="http://www.w3.org/2000/svg" data-name="S_Info_18_N@2x" height="36" id="S_Info_18_N_2x" viewBox="0 0 36 36" width="36">
  <defs>
    <style>
      .cls-1 {
        fill: #fff;
      }

      
    </style>
  </defs>
  <path class="cls-1" d="M18,2A16,16,0,1,0,34,18,16,16,0,0,0,18,2Zm-.3,4.3a2.718,2.718,0,0,1,2.862,2.566h0v.258a2.664,2.664,0,0,1-2.446,2.864,2.888,2.888,0,0,1-.416,0A2.706,2.706,0,0,1,14.836,9.45a2.991,2.991,0,0,1,0-.328,2.718,2.718,0,0,1,2.6-2.824C17.53,6.294,17.614,6.3,17.7,6.3ZM22,27a1,1,0,0,1-1,1H15a1,1,0,0,1-1-1V25a1,1,0,0,1,1-1h1V18H15a1,1,0,0,1-1-1V15a1,1,0,0,1,1-1h4a1,1,0,0,1,1,1v9h1a1,1,0,0,1,1,1Z" id="Shape" />
  </svg>