<svg id="S_More_Sm_N_D_2x" data-name="S_More_Sm_N_D@2x" xmlns="http://www.w3.org/2000/svg" width="32" height="32" viewBox="0 0 32 32">
  <defs>
    <style>
      .fill {
        fill: #fff;
        fill-rule: evenodd;
        opacity: 0.65;
      }

      
    </style>
  </defs>
  <title>S_More_Sm_N_D@2x</title>
  <path class="fill" d="M30.357,27.878,17.327,3a1.475,1.475,0,0,0-2.663.014L1.675,27.86a1.511,1.511,0,0,0-.147.647A1.49,1.49,0,0,0,3,30l25.973-.005c.01,0,.017.005.027.005a1.5,1.5,0,0,0,1.5-1.5A1.479,1.479,0,0,0,30.357,27.878ZM18,27.5a.5.5,0,0,1-.5.5h-3a.5.5,0,0,1-.5-.5v-3a.5.5,0,0,1,.5-.5h3a.5.5,0,0,1,.5.5Zm0-6a.5.5,0,0,1-.5.5h-3a.5.5,0,0,1-.5-.5v-11a.5.5,0,0,1,.5-.5h3a.5.5,0,0,1,.5.5Z"/>
  </svg>