<svg id="S_JumpIn_Lg_N_D_2x" data-name="S_JumpIn_Lg_N_D@2x" xmlns="http://www.w3.org/2000/svg" width="44" height="36" viewBox="0 0 44 36">
  <defs>
    <style>
      .fill {
        fill: #fff;
        fill-rule: evenodd;
        opacity: 0.65;
      }

      
    </style>
  </defs>
  <title>S_JumpIn_Lg_N_D@2x</title>
  <path id="Fill2" class="fill" d="M37,14H28V9.123a0.5,0.5,0,0,0-.834-0.372L18,17l9.166,8.249A0.5,0.5,0,0,0,28,24.877V20h9a1,1,0,0,0,1-1V15A1,1,0,0,0,37,14Z"/>
  <path id="Fill" class="fill" d="M16,5v9l-4,3,4,3v9a1,1,0,0,1-1,1H13a1,1,0,0,1-1-1V20L8,17l4-3V5a1,1,0,0,1,1-1h2A1,1,0,0,1,16,5Z"/>
  </svg>