<svg id="S_JumpOut_Md_N_D_2x" data-name="S_JumpOut_Md_N_D@2x" xmlns="http://www.w3.org/2000/svg" width="36" height="36" viewBox="0 0 36 36">
  <defs>
    <style>
      .fill {
        fill: #fff;
        fill-rule: evenodd;
        opacity: 0.65;
      }

      
    </style>
  </defs>
  <title>S_JumpOut_Md_N_D@2x</title>
  <path id="Fill2" class="fill" d="M5,14h7V9.123a0.5,0.5,0,0,1,.834-0.372L22,17l-9.166,8.249A0.5,0.5,0,0,1,12,24.877V20H5a1,1,0,0,1-1-1V15A1,1,0,0,1,5,14Z"/>
  <path id="Fill" class="fill" d="M24,5v9l4,3-4,3v9a1,1,0,0,0,1,1h2a1,1,0,0,0,1-1V20l4-3-4-3V5a1,1,0,0,0-1-1H25A1,1,0,0,0,24,5Z"/>
  </svg>