<svg id="S_JumpOut_Lg_N_D_2x" data-name="S_JumpOut_Lg_N_D@2x" xmlns="http://www.w3.org/2000/svg" width="44" height="36" viewBox="0 0 44 36">
  <defs>
    <style>
      .fill {
        fill: #fff;
        fill-rule: evenodd;
        opacity: 0.65;
      }

      
    </style>
  </defs>
  <title>S_JumpOut_Lg_N_D@2x</title>
  <path id="Fill2" class="fill" d="M7,14h9V9.123a0.5,0.5,0,0,1,.834-0.372L26,17l-9.166,8.249A0.5,0.5,0,0,1,16,24.877V20H7a1,1,0,0,1-1-1V15A1,1,0,0,1,7,14Z"/>
  <path id="Fill" class="fill" d="M28,5v9l4,3-4,3v9a1,1,0,0,0,1,1h2a1,1,0,0,0,1-1V20l4-3-4-3V5a1,1,0,0,0-1-1H29A1,1,0,0,0,28,5Z"/>
  </svg>