<svg id="S_JumpIn_Md_N_D_2x" data-name="S_JumpIn_Md_N_D@2x" xmlns="http://www.w3.org/2000/svg" width="36" height="36" viewBox="0 0 36 36">
  <defs>
    <style>
      .fill {
        fill: #fff;
        fill-rule: evenodd;
        opacity: 0.65;
      }

      
    </style>
  </defs>
  <title>S_JumpIn_Md_N_D@2x</title>
  <path id="Fill2" class="fill" d="M31,14H24V9.123a0.5,0.5,0,0,0-.834-0.372L14,17l9.166,8.249A0.5,0.5,0,0,0,24,24.877V20h7a1,1,0,0,0,1-1V15A1,1,0,0,0,31,14Z"/>
  <path id="Fill" class="fill" d="M12,5v9L8,17l4,3v9a1,1,0,0,1-1,1H9a1,1,0,0,1-1-1V20L4,17l4-3V5A1,1,0,0,1,9,4h2A1,1,0,0,1,12,5Z"/>
  </svg>