<svg id="S_KeyframeTrackVolume1_Sm_N_D_2x" data-name="S_KeyframeTrackVolume1_Sm_N_D@2x" xmlns="http://www.w3.org/2000/svg" width="32" height="32" viewBox="0 0 32 32">
  <defs>
    <style>
      .fill {
        fill: #fff;
        fill-rule: evenodd;
        opacity: 0.65;
      }

      
    </style>
  </defs>
  <title>S_KeyframeTrackVolume1_Sm_N_D@2x</title>
  <path class="fill" d="M27.238,4.075L20.249,8.268l3.563,3.563a0.643,0.643,0,0,1,.188.455v6.429a0.643,0.643,0,0,1-.188.454L22.981,20H27a1,1,0,0,0,1-1V4.5A0.5,0.5,0,0,0,27.238,4.075Z"/>
  <path class="fill" d="M6.188,19.169A0.643,0.643,0,0,1,6,18.714v-1.9L2.239,19.074A0.5,0.5,0,0,0,2.5,20H7.019Z"/>
  <path class="fill" d="M21.854,12.646l-6.5-6.5a0.5,0.5,0,0,0-.707,0l-6.5,6.5A0.5,0.5,0,0,0,8,13v5a0.5,0.5,0,0,0,.146.354l6.5,6.5a0.5,0.5,0,0,0,.707,0l6.5-6.5A0.5,0.5,0,0,0,22,18V13A0.5,0.5,0,0,0,21.854,12.646ZM20,16.5a0.5,0.5,0,0,1-.5.5H16v3.5a0.5,0.5,0,0,1-.5.5h-1a0.5,0.5,0,0,1-.5-0.5V17H10.5a0.5,0.5,0,0,1-.5-0.5v-1a0.5,0.5,0,0,1,.5-0.5H14V11.5a0.5,0.5,0,0,1,.5-0.5h1a0.5,0.5,0,0,1,.5.5V15h3.5a0.5,0.5,0,0,1,.5.5v1Z"/>
  <path id="Fill" class="fill" d="M22.25,25.82L26.567,31l4.317-5.18A0.5,0.5,0,0,0,30.5,25H22.635A0.5,0.5,0,0,0,22.25,25.82Z"/>
  </svg>