<?xml version="1.0" encoding="UTF-8"?>
<svg id="ICONS" xmlns="http://www.w3.org/2000/svg" width="32" height="32" viewBox="0 0 32 32">
  <defs>
    <style>
      .fill {
        fill: #fff;
        opacity: .65;
      }
    </style>
  </defs>
  <path class="fill" d="M26.29297,15.29303l-9.58594-9.58606c-.3905-.39038-1.02356-.39038-1.41406,0L5.70703,15.29303c-.39038.3905-.39038,1.02356,0,1.41406l9.58594,9.58594c.3905.39038,1.02356.39038,1.41406,0l9.58594-9.58594c.39038-.3905.39038-1.02356,0-1.41406ZM22,17c0,.55225-.44775,1-1,1h-10c-.55225,0-1-.44775-1-1v-2c0-.55237.44775-1,1-1h10c.55225,0,1,.44763,1,1v2Z"/>
</svg>