<svg id="SP_KeyEaseInLast_Sm_N_D_2x" data-name="SP_KeyEaseInLast_Sm_N_D@2x" xmlns="http://www.w3.org/2000/svg" width="32" height="32" viewBox="0 0 32 32">
  <defs>
    <style>
      .fill, .fillPale {
        fill: #fff;
      }

      .fillPale {
        opacity: 0.15;
      }

      .fill {
        fill-rule: evenodd;
        opacity: 0.65;
      }

      
    </style>
  </defs>
  <title>SP_KeyEaseInLast_Sm_N_D@2x</title>
  <path class="fillPale" d="M16,10l8,7-8,7V10Z"/>
  <path class="fill" d="M15.146,6.146A0.5,0.5,0,0,0,14.793,6H4.513a0.506,0.506,0,0,0-.5.519C4.29,13.884,10.576,12.112,10.6,17S4.291,20.085,4.01,27.481a0.506,0.506,0,0,0,.5.519h10.28a0.5,0.5,0,0,0,.354-0.146L26,17ZM16,10l8,7-8,7V10Z"/>
  </svg>