<svg id="S_KeyframeEffectsNone1_Sm_N_2x" data-name="S_KeyframeEffectsNone1_Sm_N@2x" xmlns="http://www.w3.org/2000/svg" width="26" height="26" viewBox="0 0 26 26">
  <defs>
    <style>
      .fill {
        opacity: 0.65;
      }

      
    </style>
  </defs>
  <title>S_KeyframeEffectsNone1_Sm_N@2x</title>
  <path class="fill" d="M18.207,20h5.586a0.5,0.5,0,0,1,.354.854L21,24l-3.146-3.146A0.5,0.5,0,0,1,18.207,20Z"/>
  <path class="fill" d="M7.14,5.9L9,4.036l5,5v3.719l2,2V8.414a0.5,0.5,0,0,0-.146-0.354l-6.5-6.5a0.5,0.5,0,0,0-.707,0L5.726,4.481Z"/>
  <path class="fill" d="M11.069,18.309L9,20.379l-5-5V11.241l-2-2V16a0.5,0.5,0,0,0,.146.354l6.5,6.5a0.5,0.5,0,0,0,.707,0l3.13-3.13Z"/>
  <rect class="fill" x="7.548" y="0.289" width="2" height="22.418" rx="0.5" ry="0.5" transform="translate(-5.626 9.411) rotate(-44.998)"/>
  </svg>