<svg id="S_KeyframeEffects_Xs_N_D_2x" data-name="S_KeyframeEffects_Xs_N_D@2x" xmlns="http://www.w3.org/2000/svg" width="26" height="26" viewBox="0 0 26 26">
  <defs>
    <style>
      .fill {
        fill: #fff;
        fill-rule: evenodd;
        opacity: 0.65;
      }

      
    </style>
  </defs>
  <title>S_KeyframeEffects_Xs_N_D@2x</title>
  <path class="fill" d="M18.207,20h5.586a0.5,0.5,0,0,1,.354.854L21,24l-3.146-3.146A0.5,0.5,0,0,1,18.207,20Z"/>
  <path class="fill" d="M9,4.036l5,5v6.343l-5,5-5-5V9.036ZM8.646,1.561l-6.5,6.5A0.5,0.5,0,0,0,2,8.414V16a0.5,0.5,0,0,0,.146.354l6.5,6.5a0.5,0.5,0,0,0,.707,0l6.5-6.5A0.5,0.5,0,0,0,16,16V8.414a0.5,0.5,0,0,0-.146-0.354l-6.5-6.5A0.5,0.5,0,0,0,8.646,1.561Z"/>
  </svg>