<svg id="SP_KeyframeTrackEffects1_Xs_N_D_2x" data-name="SP_KeyframeTrackEffects1_Xs_N_D@2x" xmlns="http://www.w3.org/2000/svg" width="26" height="26" viewBox="0 0 26 26">
  <defs>
    <style>
      .fill {
        fill: #fff;
        fill-rule: evenodd;
        opacity: 0.65;
      }

      
    </style>
  </defs>
  <title>SP_KeyframeTrackEffects1_Xs_N_D@2x</title>
  <path class="fill" d="M18.207,20h5.586a0.5,0.5,0,0,1,.354.854L21,24l-3.146-3.146A0.5,0.5,0,0,1,18.207,20Z"/>
  <path class="fill" d="M15.854,8.646l-6.5-6.5a0.5,0.5,0,0,0-.707,0l-6.5,6.5A0.5,0.5,0,0,0,2,9v8a0.5,0.5,0,0,0,.146.354l6.5,6.5a0.5,0.5,0,0,0,.707,0l6.5-6.5A0.5,0.5,0,0,0,16,17V9A0.5,0.5,0,0,0,15.854,8.646ZM14,13.5a0.5,0.5,0,0,1-.5.5H10v3.5a0.5,0.5,0,0,1-.5.5h-1A0.5,0.5,0,0,1,8,17.5V14H4.5A0.5,0.5,0,0,1,4,13.5v-1A0.5,0.5,0,0,1,4.5,12H8V8.5A0.5,0.5,0,0,1,8.5,8h1a0.5,0.5,0,0,1,.5.5V12h3.5a0.5,0.5,0,0,1,.5.5v1Z"/>
  </svg>