<svg id="SP_KeyBezierFirst_Sm_N_D_2x" data-name="SP_KeyBezierFirst_Sm_N_D@2x" xmlns="http://www.w3.org/2000/svg" width="32" height="32" viewBox="0 0 32 32">
  <defs>
    <style>
      .fill, .fillPale {
        fill: #fff;
      }

      .fillPale {
        opacity: 0.15;
      }

      .fill {
        fill-rule: evenodd;
        opacity: 0.65;
      }

      
    </style>
  </defs>
  <title>SP_KeyBezierFirst_Sm_N_D@2x</title>
  <path class="fillPale" d="M6,6c0.006,4.294,6.6,4,6.6,9,0,5.031-6.594,4.719-6.6,9H16V6H6Z"/>
  <path class="fill" d="M19.4,15c0.024-4.888,6.31-3.116,6.59-10.481A0.506,0.506,0,0,0,25.487,4H4.513a0.506,0.506,0,0,0-.5.519C4.29,11.884,10.576,10.112,10.6,15S4.291,18.085,4.01,25.481a0.506,0.506,0,0,0,.5.519H25.487a0.506,0.506,0,0,0,.5-0.519C25.709,18.085,19.376,19.889,19.4,15ZM16,24H6c0.006-4.281,6.6-3.969,6.6-9,0-5-6.594-4.706-6.6-9H16V24Z"/>
  </svg>