<svg id="SP_KeyNav_Sm_N_D_2x" data-name="SP_KeyNav_Sm_N_D@2x" xmlns="http://www.w3.org/2000/svg" width="32" height="32" viewBox="0 0 32 32">
  <defs>
    <style>
      .fill, .fillPale {
        fill: #fff;
      }

      .fillPale {
        opacity: 0.15;
      }

      .fill {
        fill-rule: evenodd;
        opacity: 0.65;
      }

      
    </style>
  </defs>
  <title>SP_KeyNav_Sm_N_D@2x</title>
  <path class="fillPale" d="M15,10l-5,4.4v5.256L15,24l5-4.349V14.4Z"/>
  <path class="fill" d="M14.675,8.279l-6.5,5.571A0.5,0.5,0,0,0,8,14.23v5.54a0.5,0.5,0,0,0,.175.38l6.5,5.571a0.5,0.5,0,0,0,.651,0l6.5-5.571A0.5,0.5,0,0,0,22,19.77V14.23a0.5,0.5,0,0,0-.175-0.38l-6.5-5.571A0.5,0.5,0,0,0,14.675,8.279ZM20,19.651L15,24l-5-4.349V14.4L15,10l5,4.4v5.256Z"/>
  </svg>