<svg id="SP_KeyEaseInFirst_Sm_N_D_2x" data-name="SP_KeyEaseInFirst_Sm_N_D@2x" xmlns="http://www.w3.org/2000/svg" width="32" height="32" viewBox="0 0 32 32">
  <defs>
    <style>
      .fill, .fillPale {
        fill: #fff;
      }

      .fillPale {
        opacity: 0.15;
      }

      .fill {
        fill-rule: evenodd;
        opacity: 0.65;
      }

      
    </style>
  </defs>
  <title>SP_KeyEaseInFirst_Sm_N_D@2x</title>
  <path class="fillPale" d="M6,8c0.006,4.294,6.6,4,6.6,9,0,5.031-6.594,4.719-6.6,9H16V8H6Z"/>
  <path class="fill" d="M15.146,6.146A0.5,0.5,0,0,0,14.793,6H4.513a0.506,0.506,0,0,0-.5.519C4.29,13.884,10.576,12.112,10.6,17S4.291,20.085,4.01,27.481a0.506,0.506,0,0,0,.5.519h10.28a0.5,0.5,0,0,0,.354-0.146L26,17ZM6,26c0.006-4.281,6.6-3.969,6.6-9,0-5-6.594-4.706-6.6-9H16V26H6Z"/>
  </svg>