<svg id="SP_KeyEaseOutFirst_Sm_N_D_2x" data-name="SP_KeyEaseOutFirst_Sm_N_D@2x" xmlns="http://www.w3.org/2000/svg" width="32" height="32" viewBox="0 0 32 32">
  <defs>
    <style>
      .fill, .fillPale {
        fill: #fff;
      }

      .fillPale {
        opacity: 0.15;
      }

      .fill {
        fill-rule: evenodd;
        opacity: 0.65;
      }

      
    </style>
  </defs>
  <title>SP_KeyEaseOutFirst_Sm_N_D@2x</title>
  <path class="fillPale" d="M16,8L6,17l10,9V8Z"/>
  <path class="fill" d="M19.4,17c0.024-4.888,6.31-3.116,6.59-10.481A0.506,0.506,0,0,0,25.487,6H15.207a0.5,0.5,0,0,0-.354.146L4,17,14.854,27.854a0.5,0.5,0,0,0,.354.146h10.28a0.506,0.506,0,0,0,.5-0.519C25.709,20.085,19.376,21.889,19.4,17ZM16,26L6,17,16,8V26Z"/>
  </svg>