<svg id="S_KEMSequence_Sm_N_D_2x" data-name="S_KEMSequence_Sm_N_D@2x" xmlns="http://www.w3.org/2000/svg" width="32" height="32" viewBox="0 0 32 32">
  <defs>
    <style>
      .fill {
        fill: #fff;
        opacity: 0.65;
      }

      
    </style>
  </defs>
  <title>S_KEMSequence_Sm_N_D@2x</title>
  <path class="fill" d="M2.5,16a0.5,0.5,0,0,0-.5.5v3a0.5,0.5,0,0,0,.5.5H13.758l-4-4H2.5Z"/>
  <path class="fill" d="M27.5,10H20v4h7.5a0.5,0.5,0,0,0,.5-0.5v-3A0.5,0.5,0,0,0,27.5,10Z"/>
  <path class="fill" d="M23.5,20a0.5,0.5,0,0,0,.5-0.5v-3a0.5,0.5,0,0,0-.5-0.5H20v1.757L22.243,20H23.5Z"/>
  <path class="fill" d="M8,22.5v3a0.5,0.5,0,0,0,.5.5H14V22H8.5A0.5,0.5,0,0,0,8,22.5Z"/>
  <path class="fill" d="M29.5,22H24.243l3.026,3.025a2.468,2.468,0,0,1,.592.975H29.5a0.5,0.5,0,0,0,.5-0.5v-3A0.5,0.5,0,0,0,29.5,22Z"/>
  <polygon class="fill" points="16 28 18 28 18 24.242 16 22.242 16 28"/>
  <path class="fill" d="M18,8a1.959,1.959,0,0,1,2-2V2.5A0.5,0.5,0,0,0,19.5,2h-5a0.5,0.5,0,0,0-.5.5V6a1.959,1.959,0,0,1,2,2v5.758l2,2V8Z"/>
  <rect class="fill" x="13.999" y="2.15" width="2" height="29.7" rx="0.5" ry="0.5" transform="translate(-7.628 15.584) rotate(-44.998)"/>
  </svg>