<svg id="S_LabelExport_Md_N_2x" data-name="S_LabelExport_Md_N@2x" xmlns="http://www.w3.org/2000/svg" width="36" height="36" viewBox="0 0 36 36">
  <defs>
    <style>
      .cls-1, .cls-2 {
        fill: #fff;
      }

      .cls-1 {
        opacity: 0.3;
      }

      .cls-2 {
        fill-rule: evenodd;
        opacity: 0.65;
      }

      
    </style>
  </defs>
  <title>S_LabelExport_Md_N@2x</title>
  <rect class="cls-1" x="6" y="19" width="4" height="4" rx="1" ry="1"/>
  <path class="cls-1" d="M18,0A18,18,0,1,0,36,18,18,18,0,0,0,18,0ZM11.707,10.293,18,3.6l6.293,6.693A1,1,0,0,1,23.586,12H20v7.5a.5.5,0,0,1-.5.5h-3a.5.5,0,0,1-.5-.5V12H12.414A1,1,0,0,1,11.707,10.293ZM31,27H5a1,1,0,0,1-1-1V18a1,1,0,0,1,1-1h9v4a1,1,0,0,0,1,1h6a1,1,0,0,0,1-1V17h9a1,1,0,0,1,1,1v8A1,1,0,0,1,31,27Z"/>
  <path class="cls-2" d="M11.707,10.293,18,3.6l6.293,6.693A1,1,0,0,1,23.586,12H20v7.5a.5.5,0,0,1-.5.5h-3a.5.5,0,0,1-.5-.5V12H12.414A1,1,0,0,1,11.707,10.293ZM32,18v8a1,1,0,0,1-1,1H5a1,1,0,0,1-1-1V18a1,1,0,0,1,1-1h9v4a1,1,0,0,0,1,1h6a1,1,0,0,0,1-1V17h9A1,1,0,0,1,32,18ZM10,20a1,1,0,0,0-1-1H7a1,1,0,0,0-1,1v2a1,1,0,0,0,1,1H9a1,1,0,0,0,1-1Z"/>
  </svg>