<svg id="S_LabelShare_Md_N_2x" data-name="S_LabelShare_Md_N@2x" xmlns="http://www.w3.org/2000/svg" width="36" height="36" viewBox="0 0 36 36">
  <defs>
    <style>
      .cls-1, .fillMedium {
        fill: #fff;
      }

      .fillMedium {
        opacity: 0.3;
      }

      .cls-1 {
        fill-rule: evenodd;
        opacity: 0.65;
      }

      
    </style>
  </defs>
  <title>S_LabelShare_Md_N@2x</title>
  <path class="fillMedium" d="M18,0A18,18,0,1,0,36,18,18,18,0,0,0,18,0ZM12,30a6,6,0,1,1,6-6A6,6,0,0,1,12,30Zm17-9.414a1,1,0,0,1-1.707.707l-4.172-4.172-2.293,2.293a1,1,0,0,1-1.414,0l-2.828-2.829a1,1,0,0,1,0-1.414l2.293-2.293L14.707,8.707A1,1,0,0,1,15.414,7H29Z"/>
  <path class="cls-1" d="M12,30a6,6,0,1,1,6-6A6,6,0,0,1,12,30ZM29,7H15.414a1,1,0,0,0-.707,1.707l4.172,4.172-2.293,2.293a1,1,0,0,0,0,1.414l2.828,2.828a1,1,0,0,0,1.414,0l2.293-2.293,4.172,4.172A1,1,0,0,0,29,20.586Z"/>
  </svg>