<svg id="S_LabelIngest_Md_N_2x" data-name="S_LabelIngest_Md_N@2x" xmlns="http://www.w3.org/2000/svg" width="36" height="36" viewBox="0 0 36 36">
  <defs>
    <style>
      .cls-1, .fillMedium {
        fill: #fff;
      }

      .fillMedium {
        opacity: 0.3;
      }

      .cls-1 {
        fill-rule: evenodd;
        opacity: 0.65;
      }

      
    </style>
  </defs>
  <title>S_LabelIngest_Md_N@2x</title>
  <path class="fillMedium" d="M18,0A18,18,0,1,0,36,18,18,18,0,0,0,18,0ZM12.414,11H16V3.5a.5.5,0,0,1,.5-.5h3a.5.5,0,0,1,.5.5V11h3.586a1,1,0,0,1,.707,1.707L18,19.4l-6.293-6.693A1,1,0,0,1,12.414,11ZM31,27H5a1,1,0,0,1-1-1V18a1,1,0,0,1,1-1h7l6,6.4L24,17h7a1,1,0,0,1,1,1v8A1,1,0,0,1,31,27Z"/>
  <rect class="fillMedium" x="6" y="19" width="4" height="4" rx="1" ry="1"/>
  <path class="cls-1" d="M24.293,12.707,18,19.4l-6.293-6.693A1,1,0,0,1,12.414,11H16V3.5a.5.5,0,0,1,.5-.5h3a.5.5,0,0,1,.5.5V11h3.586A1,1,0,0,1,24.293,12.707ZM32,18v8a1,1,0,0,1-1,1H5a1,1,0,0,1-1-1V18a1,1,0,0,1,1-1h7l6,6.4L24,17h7A1,1,0,0,1,32,18ZM10,22V20a1,1,0,0,0-1-1H7a1,1,0,0,0-1,1v2a1,1,0,0,0,1,1H9A1,1,0,0,0,10,22Z"/>
  </svg>