<svg id="S_LabelReply_Md_N_2x" data-name="S_LabelReply_Md_N@2x" xmlns="http://www.w3.org/2000/svg" width="36" height="36" viewBox="0 0 36 36">
  <defs>
    <style>
      .cls-1, .fillMedium {
        fill: #fff;
      }

      .fillMedium {
        opacity: 0.3;
      }

      .cls-1 {
        fill-rule: evenodd;
        opacity: 0.65;
      }

      
    </style>
  </defs>
  <title>S_LabelReply_Md_N@2x</title>
  <path class="fillMedium" d="M18,0A18,18,0,0,0,0,18C0,30.608,8.059,36,18,36A18,18,0,0,0,18,0ZM30,23a3,3,0,0,1-3,3H18l-5.146,5.146A.5.5,0,0,1,12,30.793V26H9a3,3,0,0,1-3-3V11.053A3.045,3.045,0,0,1,9,8H27a3.045,3.045,0,0,1,3,3.053Z"/>
  <path class="cls-1" d="M27,8H9a3.045,3.045,0,0,0-3,3.053V23a3,3,0,0,0,3,3h3v4.793a.5.5,0,0,0,.854.354L18,26h9a3,3,0,0,0,3-3V11.053A3.045,3.045,0,0,0,27,8Zm-.331,15.828a.378.378,0,0,1-.53-.076,9.817,9.817,0,0,0-10.01-3.89v2.714a.535.535,0,0,1-.913.377L9.179,16.7l6.036-6.259a.535.535,0,0,1,.913.378v2.673c8.849,0,10.692,8.433,10.692,10.05A.379.379,0,0,1,26.669,23.828Z"/>
  <path class="fillMedium" d="M26.669,23.828a.378.378,0,0,1-.53-.076,9.817,9.817,0,0,0-10.01-3.89v2.714a.535.535,0,0,1-.913.377L9.179,16.7l6.036-6.259a.535.535,0,0,1,.913.378v2.673c8.849,0,10.692,8.433,10.692,10.05A.379.379,0,0,1,26.669,23.828Z"/>
  </svg>