<svg xmlns="http://www.w3.org/2000/svg" width="128" height="128" viewBox="0 0 128 128">
  <defs>
    <style>
      .fill {
        fill: #fff;
        opacity: 0.65;
        isolation: isolate;
      }
    </style>
  </defs>
  <g id="ImportedIcons">
    <path class="fill" d="M54.47589,100.21893A.90663.90663,0,0,0,56,99.577V54H9.41351a.90663.90663,0,0,0-.6322,1.55353L23.1062,69.56476A98.23946,98.23946,0,0,0,6.10059,94.1322a51.84925,51.84925,0,0,0-3.74231,30.51728,1.63442,1.63442,0,0,0,3.15576.24517,62.13823,62.13823,0,0,1,2.75757-6.89581,76.52024,76.52024,0,0,1,31.3648-32.28613Z"/>
    <path class="fill" d="M126,6H18a1.99994,1.99994,0,0,0-2,2V46h8V14h96V86H64v8h62a1.99994,1.99994,0,0,0,2-2V8A1.99978,1.99978,0,0,0,126,6Z"/>
    <path class="fill" d="M110,110H92a4,4,0,0,1-4-4V98H64v8a4,4,0,0,1-4,4H34a2,2,0,0,0-2,2v4a2,2,0,0,0,2,2h76a2,2,0,0,0,2-2v-4A2,2,0,0,0,110,110Z"/>
  </g>
  <g id="icons">
    <path class="fill" d="M99.00055,30.97607a25.1411,25.1411,0,0,0-18.51465-7.9757A25.84316,25.84316,0,0,0,62.197,30.639c-.82788-.07489-1.65582-.14978-2.446-.14978A21.55192,21.55192,0,0,0,38.94147,46h3.61261a17.97181,17.97181,0,0,1,28.71209-7.0108l.07526.07489,7.48865,7.63873a3.18718,3.18718,0,0,1-.07526,4.53082,3.22572,3.22572,0,0,1-4.5534-.07489L66.788,43.59491a11.54041,11.54041,0,0,0-16.21911,1.19824A11.06165,11.06165,0,0,0,49.66254,46H64v7.32721l5.91144,5.88214a15.85887,15.85887,0,0,0,10.95074,4.8678,14.87249,14.87249,0,0,0,10.83789-4.6806A15.79325,15.79325,0,0,0,96.21582,48.3504,15.436,15.436,0,0,0,80.78693,32.99805a14.02034,14.02034,0,0,0-8.5423,2.47137c-.03766-.03747-.75263-.48682-1.54291-.97357-.4892-.29956-1.016-.59912-1.46765-.82379-.45154-.26209-1.80627-.89868-2.59656-1.23566-.18817-.07489-.45154-.18725-.56445-.22467h.0376A20.98691,20.98691,0,0,1,80.78693,26.595,21.828,21.828,0,0,1,102.65082,48.3504a22.08872,22.08872,0,0,1-6.35974,15.53949,21.55353,21.55353,0,0,1-15.4289,6.59027,22.48713,22.48713,0,0,1-15.50415-6.74L64,62.38367V66.8584a51.04205,51.04205,0,0,0,5.0083,3.50946H64V74H80.4859A25.48172,25.48172,0,0,0,99.00055,30.97607Z"/>
  </g>
</svg>
