<svg id="S_LiveLinkOnline_48x48_N_D_2x" data-name="S_LiveLinkOnline_48x48_N_D@2x" xmlns="http://www.w3.org/2000/svg" width="96" height="96" viewBox="0 0 96 96">
  <defs>
    <style>
      .fill {
        fill: #fff;
        fill-rule: evenodd;
        opacity: 0.65;
      }

      
    </style>
  </defs>
  <title>S_LiveLinkOnline_48x48_N_D@2x</title>
  <circle class="fill" cx="51" cy="46" r="10"/>
  <path class="fill" d="M50,33.551V21.4L32.4,39h8.243A12.485,12.485,0,0,1,50,33.551Z"/>
  <path class="fill" d="M45,66H38.757a16.074,16.074,0,0,1,3.27,4H45a8,8,0,0,1,0,16H33a7.995,7.995,0,0,1-6.24-13H22.1A11.982,11.982,0,0,0,33,90H45A12,12,0,0,0,45,66Z"/>
  <path class="fill" d="M16,90h6.243a16.074,16.074,0,0,1-3.27-4H16a8,8,0,0,1,0-16H28a7.995,7.995,0,0,1,6.24,13H38.9A11.982,11.982,0,0,0,28,66H16A12,12,0,0,0,16,90Z"/>
  <path class="fill" d="M22,53.5a0.5,0.5,0,0,1-.5.5h-3a0.5,0.5,0,0,1-.5-0.5v-3a0.5,0.5,0,0,1,.5-0.5h3a0.5,0.5,0,0,1,.5.5v3Zm0-8a0.5,0.5,0,0,1-.5.5h-3a0.5,0.5,0,0,1-.5-0.5v-3a0.5,0.5,0,0,1,.5-0.5h3a0.5,0.5,0,0,1,.5.5v3Zm0-8a0.5,0.5,0,0,1-.5.5h-3a0.5,0.5,0,0,1-.5-0.5v-3a0.5,0.5,0,0,1,.5-0.5h3a0.5,0.5,0,0,1,.5.5v3Zm0-8a0.5,0.5,0,0,1-.5.5h-3a0.5,0.5,0,0,1-.5-0.5v-3a0.5,0.5,0,0,1,.5-0.5h3a0.5,0.5,0,0,1,.5.5v3Zm0-8a0.5,0.5,0,0,1-.5.5h-3a0.5,0.5,0,0,1-.5-0.5v-3a0.5,0.5,0,0,1,.5-0.5h3a0.5,0.5,0,0,1,.5.5v3Zm0-8a0.5,0.5,0,0,1-.5.5h-3a0.5,0.5,0,0,1-.5-0.5v-3a0.5,0.5,0,0,1,.5-0.5h3a0.5,0.5,0,0,1,.5.5v3Zm60,56a0.5,0.5,0,0,1-.5.5h-3a0.5,0.5,0,0,1-.5-0.5v-3a0.5,0.5,0,0,1,.5-0.5h3a0.5,0.5,0,0,1,.5.5v3Zm0-8a0.5,0.5,0,0,1-.5.5h-3a0.5,0.5,0,0,1-.5-0.5v-3a0.5,0.5,0,0,1,.5-0.5h3a0.5,0.5,0,0,1,.5.5v3Zm0-8a0.5,0.5,0,0,1-.5.5h-3a0.5,0.5,0,0,1-.5-0.5v-3a0.5,0.5,0,0,1,.5-0.5h3a0.5,0.5,0,0,1,.5.5v3Zm0-8a0.5,0.5,0,0,1-.5.5h-3a0.5,0.5,0,0,1-.5-0.5v-3a0.5,0.5,0,0,1,.5-0.5h3a0.5,0.5,0,0,1,.5.5v3Zm0-8a0.5,0.5,0,0,1-.5.5h-3a0.5,0.5,0,0,1-.5-0.5v-3a0.5,0.5,0,0,1,.5-0.5h3a0.5,0.5,0,0,1,.5.5v3Zm0-8a0.5,0.5,0,0,1-.5.5h-3a0.5,0.5,0,0,1-.5-0.5v-3a0.5,0.5,0,0,1,.5-0.5h3a0.5,0.5,0,0,1,.5.5v3Zm0-8a0.5,0.5,0,0,1-.5.5h-3a0.5,0.5,0,0,1-.5-0.5v-3a0.5,0.5,0,0,1,.5-0.5h3a0.5,0.5,0,0,1,.5.5v3Zm0-8a0.5,0.5,0,0,1-.5.5h-3a0.5,0.5,0,0,1-.5-0.5v-3a0.5,0.5,0,0,1,.5-0.5h3a0.5,0.5,0,0,1,.5.5v3ZM84.857,8H15.143A1.143,1.143,0,0,0,14,9.143V62h4.5a0.5,0.5,0,0,1-.5-0.5v-3a0.5,0.5,0,0,1,.5-0.5h3a0.5,0.5,0,0,1,.5.5v3a0.5,0.5,0,0,1-.5.5H43v0.138A15.856,15.856,0,0,1,59.826,72H84.857A1.143,1.143,0,0,0,86,70.857V9.143A1.143,1.143,0,0,0,84.857,8ZM74,47a1,1,0,0,1-1,1H63.831a12.992,12.992,0,1,1-25.2-6H25L53,14V26H73a1,1,0,0,1,1,1V47Z"/>
  </svg>