<svg id="S_Link_18_N" xmlns="http://www.w3.org/2000/svg" width="18" height="18" viewBox="0 0 18 18">
  <defs>
    <style>
      .cls-1 {
        fill: #707070;
        fill-rule: evenodd;
      }

      
    </style>
  </defs>
  <title>S_Link_18_N</title>
  <path class="cls-1" d="M15.848,2.152a3.588,3.588,0,0,0-5.074,0C10.581,2.345,8.642,4.263,8.1,4.807a4.154,4.154,0,0,1,1.871.3c0.26-.26,1.784-1.763,1.891-1.871a2.05,2.05,0,1,1,2.9,2.9L11.2,9.7a2.311,2.311,0,0,1-1.686.648,1.977,1.977,0,0,1-1.352-.555,2.08,2.08,0,0,1-.621-0.813,1.013,1.013,0,0,0-.214.159l-0.818.856a3.567,3.567,0,0,0,.613.836,3.923,3.923,0,0,0,5.338-.219l3.382-3.382A3.588,3.588,0,0,0,15.848,2.152Z"/>
  <path class="cls-1" d="M6.963,13.912c-0.26.26-.749,0.773-0.857,0.881a2.05,2.05,0,0,1-2.9-2.9L6.8,8.3a2.292,2.292,0,0,1,1.683-.646,2.1,2.1,0,0,1,1.892,1.391,1.013,1.013,0,0,0,.214-0.159l0.867-.86a3.567,3.567,0,0,0-.613-0.836,3.656,3.656,0,0,0-5.13.024L2.12,10.806A3.588,3.588,0,0,0,7.194,15.88c0.193-.193,1.1-1.121,1.64-1.665A4.154,4.154,0,0,1,6.963,13.912Z"/>
  </svg>