<svg id="S_LiveLinkOffline_Sm_N_D_2x" data-name="S_LiveLinkOffline_Sm_N_D@2x" xmlns="http://www.w3.org/2000/svg" width="32" height="32" viewBox="0 0 32 32">
  <defs>
    <style>
      .fill {
        fill: #fff;
        fill-rule: evenodd;
        opacity: 0.65;
      }

      .red {
        fill: #f53c3c;
      }

      
    </style>
  </defs>
  <title>S_LiveLinkOffline_Sm_N_D@2x</title>
  <path class="fill" d="M15,22H9.729c0.542,0.688,1.229,1.188,1.854,2H15a2,2,0,0,1,.032,4l1.382,1.382a2.019,2.019,0,0,1,.219.266A4,4,0,0,0,15,22Z"/>
  <path class="fill" d="M7.417,28H4a2,2,0,0,1-.032-4L2.337,22.372A3.994,3.994,0,0,0,4,30H9C8.6,29.5,8.042,28.75,7.417,28Z"/>
  <rect class="red" x="7.326" y="15.387" width="2" height="18.878" rx="0.5" ry="0.5" transform="translate(-15.116 13.158) rotate(-45)"/>
  <path class="fill" d="M17.8,10.3V6.9l-5.9,5.9h1.95c-0.044.082-.075,0.17-0.114,0.255A4.7,4.7,0,0,1,18,10.3C17.933,10.3,17.866,10.3,17.8,10.3Z"/>
  <circle class="fill" cx="18" cy="15" r="3.3"/>
  <path class="fill" d="M30.933,2H5.067A1.035,1.035,0,0,0,4,3V17l3,3h8.5a6,6,0,0,1,5.658,4H31a1,1,0,0,0,1-1V3A1.035,1.035,0,0,0,30.933,2ZM8,17.5a0.5,0.5,0,0,1-.5.5h-1A0.5,0.5,0,0,1,6,17.5v-1A0.5,0.5,0,0,1,6.5,16h1a0.5,0.5,0,0,1,.5.5v1Zm0-4a0.5,0.5,0,0,1-.5.5h-1A0.5,0.5,0,0,1,6,13.5v-1A0.5,0.5,0,0,1,6.5,12h1a0.5,0.5,0,0,1,.5.5v1Zm0-4a0.5,0.5,0,0,1-.5.5h-1A0.5,0.5,0,0,1,6,9.5v-1A0.5,0.5,0,0,1,6.5,8h1a0.5,0.5,0,0,1,.5.5v1Zm0-4a0.5,0.5,0,0,1-.5.5h-1A0.5,0.5,0,0,1,6,5.5v-1A0.5,0.5,0,0,1,6.5,4h1a0.5,0.5,0,0,1,.5.5v1ZM26,16H22.593c0-.008,0-0.017,0-0.024a4.7,4.7,0,1,1-8.951-2.721,4.644,4.644,0,0,0-.237.746H9L19,4V8h7v8Zm4,5.5a0.5,0.5,0,0,1-.5.5h-1a0.5,0.5,0,0,1-.5-0.5v-1a0.5,0.5,0,0,1,.5-0.5h1a0.5,0.5,0,0,1,.5.5v1Zm0-4a0.5,0.5,0,0,1-.5.5h-1a0.5,0.5,0,0,1-.5-0.5v-1a0.5,0.5,0,0,1,.5-0.5h1a0.5,0.5,0,0,1,.5.5v1Zm0-4a0.5,0.5,0,0,1-.5.5h-1a0.5,0.5,0,0,1-.5-0.5v-1a0.5,0.5,0,0,1,.5-0.5h1a0.5,0.5,0,0,1,.5.5v1Zm0-4a0.5,0.5,0,0,1-.5.5h-1A0.5,0.5,0,0,1,28,9.5v-1A0.5,0.5,0,0,1,28.5,8h1a0.5,0.5,0,0,1,.5.5v1Zm0-4a0.5,0.5,0,0,1-.5.5h-1A0.5,0.5,0,0,1,28,5.5v-1A0.5,0.5,0,0,1,28.5,4h1a0.5,0.5,0,0,1,.5.5v1Z"/>
  </svg>