<svg id="S_LiveLinkOffline_Xl_N_D_2x" data-name="S_LiveLinkOffline_Xl_N_D@2x" xmlns="http://www.w3.org/2000/svg" width="64" height="64" viewBox="0 0 64 64">
  <defs>
    <style>
      .fill {
        fill: #fff;
        fill-rule: evenodd;
        opacity: 0.65;
      }

      .red {
        fill: #f53c3c;
      }

      
    </style>
  </defs>
  <title>S_LiveLinkOffline_Xl_N_D@2x</title>
  <circle class="fill" cx="34" cy="28" r="6"/>
  <path class="fill" d="M32,19.231V14l-9,9h3.518A9,9,0,0,1,32,19.231Z"/>
  <rect class="red" x="18.684" y="33.192" width="2.632" height="35.616" rx="0.658" ry="0.658" transform="translate(-30.205 29.08) rotate(-45)"/>
  <path class="fill" d="M15.22,41H32a10.991,10.991,0,0,1,9.79,6H59a1,1,0,0,0,1-1V5a1,1,0,0,0-1-1H9A1,1,0,0,0,8,5V34.732ZM13,32a1,1,0,0,1-1,1H11a1,1,0,0,1-1-1V31a1,1,0,0,1,1-1h1a1,1,0,0,1,1,1v1Zm0-6a1,1,0,0,1-1,1H11a1,1,0,0,1-1-1V25a1,1,0,0,1,1-1h1a1,1,0,0,1,1,1v1Zm0-6a1,1,0,0,1-1,1H11a1,1,0,0,1-1-1V19a1,1,0,0,1,1-1h1a1,1,0,0,1,1,1v1Zm0-6a1,1,0,0,1-1,1H11a1,1,0,0,1-1-1V13a1,1,0,0,1,1-1h1a1,1,0,0,1,1,1v1Zm0-6a1,1,0,0,1-1,1H11a1,1,0,0,1-1-1V7a1,1,0,0,1,1-1h1a1,1,0,0,1,1,1V8ZM50,29a1,1,0,0,1-1,1H42.769a9,9,0,0,1-8.777,7,9.174,9.174,0,0,1-8.59-6.438A8.525,8.525,0,0,1,25.231,26H16L35,7v7H49a1,1,0,0,1,1,1V29Zm8,15a1,1,0,0,1-1,1H56a1,1,0,0,1-1-1V43a1,1,0,0,1,1-1h1a1,1,0,0,1,1,1v1Zm0-6a1,1,0,0,1-1,1H56a1,1,0,0,1-1-1V37a1,1,0,0,1,1-1h1a1,1,0,0,1,1,1v1Zm0-6a1,1,0,0,1-1,1H56a1,1,0,0,1-1-1V31a1,1,0,0,1,1-1h1a1,1,0,0,1,1,1v1Zm0-6a1,1,0,0,1-1,1H56a1,1,0,0,1-1-1V25a1,1,0,0,1,1-1h1a1,1,0,0,1,1,1v1Zm0-6a1,1,0,0,1-1,1H56a1,1,0,0,1-1-1V19a1,1,0,0,1,1-1h1a1,1,0,0,1,1,1v1Zm0-6a1,1,0,0,1-1,1H56a1,1,0,0,1-1-1V13a1,1,0,0,1,1-1h1a1,1,0,0,1,1,1v1Zm0-6a1,1,0,0,1-1,1H56a1,1,0,0,1-1-1V7a1,1,0,0,1,1-1h1a1,1,0,0,1,1,1V8Z"/>
  <path class="fill" d="M32,44H17.689l4,4H32a4,4,0,0,1,0,8H29.689l0.24,0.24,3.609,3.608A8,8,0,0,0,32,44Z"/>
  <path class="fill" d="M20.311,56H10a4,4,0,0,1,0-8h2.311L11.3,46.992,8.462,44.151A8,8,0,0,0,10,60H24.311Z"/>
  </svg>