<svg id="S_LiveLinkOnline_Xl_N_D_2x" data-name="S_LiveLinkOnline_Xl_N_D@2x" xmlns="http://www.w3.org/2000/svg" width="64" height="64" viewBox="0 0 64 64">
  <defs>
    <style>
      .fill {
        fill: #fff;
        fill-rule: evenodd;
        opacity: 0.65;
      }

      
    </style>
  </defs>
  <title>S_LiveLinkOnline_Xl_N_D@2x</title>
  <path class="fill" d="M59,4H9A1,1,0,0,0,8,5V41H32a10.991,10.991,0,0,1,9.79,6H59a1,1,0,0,0,1-1V5A1,1,0,0,0,59,4ZM13,38a1,1,0,0,1-1,1H11a1,1,0,0,1-1-1V37a1,1,0,0,1,1-1h1a1,1,0,0,1,1,1v1Zm0-6a1,1,0,0,1-1,1H11a1,1,0,0,1-1-1V31a1,1,0,0,1,1-1h1a1,1,0,0,1,1,1v1Zm0-6a1,1,0,0,1-1,1H11a1,1,0,0,1-1-1V25a1,1,0,0,1,1-1h1a1,1,0,0,1,1,1v1Zm0-6a1,1,0,0,1-1,1H11a1,1,0,0,1-1-1V19a1,1,0,0,1,1-1h1a1,1,0,0,1,1,1v1Zm0-6a1,1,0,0,1-1,1H11a1,1,0,0,1-1-1V13a1,1,0,0,1,1-1h1a1,1,0,0,1,1,1v1Zm0-6a1,1,0,0,1-1,1H11a1,1,0,0,1-1-1V7a1,1,0,0,1,1-1h1a1,1,0,0,1,1,1V8ZM49,30H42.769a9,9,0,0,1-8.777,7,9.174,9.174,0,0,1-8.59-6.438A8.525,8.525,0,0,1,25.231,26H16L35,7v7H49a1,1,0,0,1,1,1V29A1,1,0,0,1,49,30Zm9,14a1,1,0,0,1-1,1H56a1,1,0,0,1-1-1V43a1,1,0,0,1,1-1h1a1,1,0,0,1,1,1v1Zm0-6a1,1,0,0,1-1,1H56a1,1,0,0,1-1-1V37a1,1,0,0,1,1-1h1a1,1,0,0,1,1,1v1Zm0-6a1,1,0,0,1-1,1H56a1,1,0,0,1-1-1V31a1,1,0,0,1,1-1h1a1,1,0,0,1,1,1v1Zm0-6a1,1,0,0,1-1,1H56a1,1,0,0,1-1-1V25a1,1,0,0,1,1-1h1a1,1,0,0,1,1,1v1Zm0-6a1,1,0,0,1-1,1H56a1,1,0,0,1-1-1V19a1,1,0,0,1,1-1h1a1,1,0,0,1,1,1v1Zm0-6a1,1,0,0,1-1,1H56a1,1,0,0,1-1-1V13a1,1,0,0,1,1-1h1a1,1,0,0,1,1,1v1Zm0-6a1,1,0,0,1-1,1H56a1,1,0,0,1-1-1V7a1,1,0,0,1,1-1h1a1,1,0,0,1,1,1V8Z"/>
  <circle class="fill" cx="34" cy="28" r="6"/>
  <path class="fill" d="M20,44H10a8,8,0,0,0,0,16h5a10.035,10.035,0,0,1-3.167-4H10a4,4,0,0,1,0-8H20a4,4,0,0,1,4,4,3.954,3.954,0,0,1-.556,2h4.274A7.9,7.9,0,0,0,20,44Z"/>
  <path class="fill" d="M22,60H32a8,8,0,0,0,0-16H27a10.035,10.035,0,0,1,3.167,4H32a4,4,0,0,1,0,8H22a4,4,0,0,1-4-4,3.954,3.954,0,0,1,.556-2H14.283A7.9,7.9,0,0,0,22,60Z"/>
  <path class="fill" d="M32,19.231V14l-9,9h3.518A9,9,0,0,1,32,19.231Z"/>
  </svg>