<svg xmlns="http://www.w3.org/2000/svg" width="96" height="96" viewBox="0 0 96 96">
  <defs>
    <style>
      .fill {
        fill: #fff;
        opacity: 0.65;
        isolation: isolate;
      }
    </style>
  </defs>
  <g id="ImportedIcons">
    <path class="fill" d="M40.85687,76.66418A.68.68,0,0,0,42,76.18268V42H7.06012a.68.68,0,0,0-.47418,1.16516L17.32965,53.67358A73.67926,73.67926,0,0,0,4.57544,72.09918,38.8875,38.8875,0,0,0,1.76868,94.98712a1.22586,1.22586,0,0,0,2.36688.1839,46.58558,46.58558,0,0,1,2.06818-5.17187,57.3902,57.3902,0,0,1,23.52355-24.2146Z"/>
    <path class="fill" d="M94.5,6h-81A1.5,1.5,0,0,0,12,7.5V36h6V12H90V66H48v6H94.5A1.5,1.5,0,0,0,96,70.5V7.5A1.49984,1.49984,0,0,0,94.5,6Z"/>
    <path class="fill" d="M82.5,84H69a3,3,0,0,1-3-3V75H48v6a3,3,0,0,1-3,3H25.5A1.5,1.5,0,0,0,24,85.5v3A1.5,1.5,0,0,0,25.5,90h57A1.5,1.5,0,0,0,84,88.5v-3A1.5,1.5,0,0,0,82.5,84Z"/>
  </g>
  <g id="icons">
    <path class="fill" d="M74.64746,25.09937A19.22563,19.22563,0,0,0,60.4892,19.00024a19.76231,19.76231,0,0,0-13.9856,5.84137c-.63312-.05725-1.26617-.1145-1.87048-.1145A16.43557,16.43557,0,0,0,28.92627,36h2.7915a13.74883,13.74883,0,0,1,21.72107-4.773l.05756.05725L59.223,37.12567a2.43728,2.43728,0,0,1-.05755,3.46472,2.46664,2.46664,0,0,1-3.482-.05725L50.0144,34.749a8.8251,8.8251,0,0,0-12.40289.91632c-.09454.10779-.17865.22272-.26721.33466H48v6.30847l4.40289,4.381A12.12753,12.12753,0,0,0,60.777,50.41193a11.373,11.373,0,0,0,8.28778-3.57929A12.07712,12.07712,0,0,0,72.518,38.38556a11.804,11.804,0,0,0-11.79859-11.74,10.72145,10.72145,0,0,0-6.53235,1.88989c-.02881-.02869-.57556-.37225-1.17987-.74451-.37408-.22906-.777-.45813-1.12231-.62994-.34534-.20044-1.38129-.68726-1.9856-.945-.14392-.05725-.34533-.14318-.43164-.17181h.02875a16.04891,16.04891,0,0,1,11.223-4.2951A16.692,16.692,0,0,1,77.43884,38.38556a16.89143,16.89143,0,0,1-4.86328,11.88318A16.48239,16.48239,0,0,1,60.777,55.30835a17.19623,17.19623,0,0,1-11.85614-5.15411L48,49.23444V52.633a39.36174,39.36174,0,0,0,3.71222,2.58947H48V58H60.4892A19.486,19.486,0,0,0,74.64746,25.09937Z"/>
  </g>
</svg>
