<svg id="S_LiveLinkOffline_64x64_N_D_2x" data-name="S_LiveLinkOffline_64x64_N_D@2x" xmlns="http://www.w3.org/2000/svg" width="128" height="128" viewBox="0 0 128 128">
  <defs>
    <style>
      .fill {
        fill: #fff;
        fill-rule: evenodd;
        opacity: 0.65;
      }

      .red {
        fill: #f53c3c;
      }

      
    </style>
  </defs>
  <title>S_LiveLinkOffline_64x64_N_D@2x</title>
  <circle class="fill" cx="68" cy="62" r="14.5"/>
  <path class="fill" d="M68,43V28L42,54h8.784A18.985,18.985,0,0,1,68,43Z"/>
  <rect class="red" x="34.868" y="65.884" width="5.263" height="71.232" rx="1.316" ry="1.316" transform="translate(-60.788 56.245) rotate(-45)"/>
  <path class="fill" d="M118,10H18a2,2,0,0,0-2,2V71.338a5.275,5.275,0,0,1,1.935,1.219l4.085,4.085A0.7,0.7,0,0,1,22.689,76h4.623a0.721,0.721,0,0,1,.689.75v4.5a0.72,0.72,0,0,1-.634.738L29.378,84H64c10.182,0,18,8.455,18,16h36a2,2,0,0,0,2-2V12A2,2,0,0,0,118,10ZM28,69.25a0.721,0.721,0,0,1-.689.75H22.689A0.721,0.721,0,0,1,22,69.25v-4.5A0.721,0.721,0,0,1,22.689,64h4.623a0.721,0.721,0,0,1,.689.75v4.5Zm0-12a0.721,0.721,0,0,1-.689.75H22.689A0.721,0.721,0,0,1,22,57.25v-4.5A0.721,0.721,0,0,1,22.689,52h4.623a0.721,0.721,0,0,1,.689.75v4.5Zm0-12a0.721,0.721,0,0,1-.689.75H22.689A0.721,0.721,0,0,1,22,45.25v-4.5A0.721,0.721,0,0,1,22.689,40h4.623a0.721,0.721,0,0,1,.689.75v4.5Zm0-12a0.721,0.721,0,0,1-.689.75H22.689A0.721,0.721,0,0,1,22,33.25v-4.5A0.721,0.721,0,0,1,22.689,28h4.623a0.721,0.721,0,0,1,.689.75v4.5Zm0-12a0.721,0.721,0,0,1-.689.75H22.689A0.721,0.721,0,0,1,22,21.25v-4.5A0.721,0.721,0,0,1,22.689,16h4.623a0.721,0.721,0,0,1,.689.75v4.5ZM100,62H87a19,19,0,1,1-37.57-4H32L72,18V34h28V62Zm14,31.25a0.721,0.721,0,0,1-.689.75h-4.623A0.721,0.721,0,0,1,108,93.25v-4.5a0.721,0.721,0,0,1,.689-0.75h4.623a0.721,0.721,0,0,1,.689.75v4.5Zm0-12a0.721,0.721,0,0,1-.689.75h-4.623A0.721,0.721,0,0,1,108,81.25v-4.5a0.721,0.721,0,0,1,.689-0.75h4.623a0.721,0.721,0,0,1,.689.75v4.5Zm0-12a0.721,0.721,0,0,1-.689.75h-4.623A0.721,0.721,0,0,1,108,69.25v-4.5a0.721,0.721,0,0,1,.689-0.75h4.623a0.721,0.721,0,0,1,.689.75v4.5Zm0-12a0.721,0.721,0,0,1-.689.75h-4.623A0.721,0.721,0,0,1,108,57.25v-4.5a0.721,0.721,0,0,1,.689-0.75h4.623a0.721,0.721,0,0,1,.689.75v4.5Zm0-12a0.721,0.721,0,0,1-.689.75h-4.623A0.721,0.721,0,0,1,108,45.25v-4.5a0.721,0.721,0,0,1,.689-0.75h4.623a0.721,0.721,0,0,1,.689.75v4.5Zm0-12a0.721,0.721,0,0,1-.689.75h-4.623A0.721,0.721,0,0,1,108,33.25v-4.5a0.721,0.721,0,0,1,.689-0.75h4.623a0.721,0.721,0,0,1,.689.75v4.5Zm0-12a0.721,0.721,0,0,1-.689.75h-4.623A0.721,0.721,0,0,1,108,21.25v-4.5a0.721,0.721,0,0,1,.689-0.75h4.623a0.721,0.721,0,0,1,.689.75v4.5Z"/>
  <path class="fill" d="M62,88H33.455l0.238,0.314L39.378,94H62a10,10,0,0,1,0,20H59.378l5.7,5.7A16,16,0,0,0,62,88Z"/>
  <path class="fill" d="M40.622,114H18a10,10,0,0,1,0-20h2.622l-0.455-.455L14.924,88.3A16,16,0,0,0,18,120H46.622Z"/>
  </svg>