<svg id="S_LiveLinkOffline_48x48_N_D_2x" data-name="S_LiveLinkOffline_48x48_N_D@2x" xmlns="http://www.w3.org/2000/svg" width="96" height="96" viewBox="0 0 96 96">
  <defs>
    <style>
      .fill {
        fill: #fff;
        fill-rule: evenodd;
        opacity: 0.65;
      }

      .red {
        fill: #f53c3c;
      }

      
    </style>
  </defs>
  <title>S_LiveLinkOffline_48x48_N_D@2x</title>
  <circle class="fill" cx="51" cy="46" r="10"/>
  <path class="fill" d="M50,33.551V21.4L32.4,39h8.243A12.485,12.485,0,0,1,50,33.551Z"/>
  <rect class="red" x="28" y="51.544" width="4" height="50.912" rx="1" ry="1" transform="translate(-45.66 43.766) rotate(-45)"/>
  <path class="fill" d="M45,66H26l4,4H45a8,8,0,0,1,1,15.931l3.182,3.182c0.029,0.029.05,0.065,0.078,0.095A11.994,11.994,0,0,0,45,66Z"/>
  <path class="fill" d="M84.857,8H15.143A1.143,1.143,0,0,0,14,9.143V55l8.071,7H43v0.138A15.856,15.856,0,0,1,59.826,72H84.857A1.143,1.143,0,0,0,86,70.857V9.143A1.143,1.143,0,0,0,84.857,8ZM22,53.5a0.5,0.5,0,0,1-.5.5h-3a0.5,0.5,0,0,1-.5-0.5v-3a0.5,0.5,0,0,1,.5-0.5h3a0.5,0.5,0,0,1,.5.5v3Zm0-8a0.5,0.5,0,0,1-.5.5h-3a0.5,0.5,0,0,1-.5-0.5v-3a0.5,0.5,0,0,1,.5-0.5h3a0.5,0.5,0,0,1,.5.5v3Zm0-8a0.5,0.5,0,0,1-.5.5h-3a0.5,0.5,0,0,1-.5-0.5v-3a0.5,0.5,0,0,1,.5-0.5h3a0.5,0.5,0,0,1,.5.5v3Zm0-8a0.5,0.5,0,0,1-.5.5h-3a0.5,0.5,0,0,1-.5-0.5v-3a0.5,0.5,0,0,1,.5-0.5h3a0.5,0.5,0,0,1,.5.5v3Zm0-8a0.5,0.5,0,0,1-.5.5h-3a0.5,0.5,0,0,1-.5-0.5v-3a0.5,0.5,0,0,1,.5-0.5h3a0.5,0.5,0,0,1,.5.5v3Zm0-8a0.5,0.5,0,0,1-.5.5h-3a0.5,0.5,0,0,1-.5-0.5v-3a0.5,0.5,0,0,1,.5-0.5h3a0.5,0.5,0,0,1,.5.5v3ZM74,47a1,1,0,0,1-1,1H63.831a12.992,12.992,0,1,1-25.2-6H25L53,14V26H73a1,1,0,0,1,1,1V47Zm8,22.5a0.5,0.5,0,0,1-.5.5h-3a0.5,0.5,0,0,1-.5-0.5v-3a0.5,0.5,0,0,1,.5-0.5h3a0.5,0.5,0,0,1,.5.5v3Zm0-8a0.5,0.5,0,0,1-.5.5h-3a0.5,0.5,0,0,1-.5-0.5v-3a0.5,0.5,0,0,1,.5-0.5h3a0.5,0.5,0,0,1,.5.5v3Zm0-8a0.5,0.5,0,0,1-.5.5h-3a0.5,0.5,0,0,1-.5-0.5v-3a0.5,0.5,0,0,1,.5-0.5h3a0.5,0.5,0,0,1,.5.5v3Zm0-8a0.5,0.5,0,0,1-.5.5h-3a0.5,0.5,0,0,1-.5-0.5v-3a0.5,0.5,0,0,1,.5-0.5h3a0.5,0.5,0,0,1,.5.5v3Zm0-8a0.5,0.5,0,0,1-.5.5h-3a0.5,0.5,0,0,1-.5-0.5v-3a0.5,0.5,0,0,1,.5-0.5h3a0.5,0.5,0,0,1,.5.5v3Zm0-8a0.5,0.5,0,0,1-.5.5h-3a0.5,0.5,0,0,1-.5-0.5v-3a0.5,0.5,0,0,1,.5-0.5h3a0.5,0.5,0,0,1,.5.5v3Zm0-8a0.5,0.5,0,0,1-.5.5h-3a0.5,0.5,0,0,1-.5-0.5v-3a0.5,0.5,0,0,1,.5-0.5h3a0.5,0.5,0,0,1,.5.5v3Zm0-8a0.5,0.5,0,0,1-.5.5h-3a0.5,0.5,0,0,1-.5-0.5v-3a0.5,0.5,0,0,1,.5-0.5h3a0.5,0.5,0,0,1,.5.5v3Z"/>
  <path class="fill" d="M16,90H35l-4-4H16a8,8,0,0,1-1-15.931l-3.182-3.182c-0.029-.029-0.05-0.065-0.078-0.095A11.994,11.994,0,0,0,16,90Z"/>
  </svg>