<svg id="S_LiveLinkOnline_64x64_N_D_2x" data-name="S_LiveLinkOnline_64x64_N_D@2x" xmlns="http://www.w3.org/2000/svg" width="128" height="128" viewBox="0 0 128 128">
  <defs>
    <style>
      .fill {
        fill: #fff;
        fill-rule: evenodd;
        opacity: 0.65;
      }

      
    </style>
  </defs>
  <title>S_LiveLinkOnline_64x64_N_D@2x</title>
  <circle class="fill" cx="68" cy="62" r="14.5"/>
  <path class="fill" d="M64,84c10.182,0,18,8.455,18,16h36a2,2,0,0,0,2-2V12a2,2,0,0,0-2-2H18a2,2,0,0,0-2,2V84H64ZM28,81.25a0.721,0.721,0,0,1-.689.75H22.689A0.721,0.721,0,0,1,22,81.25v-4.5A0.721,0.721,0,0,1,22.689,76h4.623a0.721,0.721,0,0,1,.689.75v4.5Zm0-12a0.721,0.721,0,0,1-.689.75H22.689A0.721,0.721,0,0,1,22,69.25v-4.5A0.721,0.721,0,0,1,22.689,64h4.623a0.721,0.721,0,0,1,.689.75v4.5Zm0-12a0.721,0.721,0,0,1-.689.75H22.689A0.721,0.721,0,0,1,22,57.25v-4.5A0.721,0.721,0,0,1,22.689,52h4.623a0.721,0.721,0,0,1,.689.75v4.5Zm0-12a0.721,0.721,0,0,1-.689.75H22.689A0.721,0.721,0,0,1,22,45.25v-4.5A0.721,0.721,0,0,1,22.689,40h4.623a0.721,0.721,0,0,1,.689.75v4.5Zm0-12a0.721,0.721,0,0,1-.689.75H22.689A0.721,0.721,0,0,1,22,33.25v-4.5A0.721,0.721,0,0,1,22.689,28h4.623a0.721,0.721,0,0,1,.689.75v4.5Zm0-12a0.721,0.721,0,0,1-.689.75H22.689A0.721,0.721,0,0,1,22,21.25v-4.5A0.721,0.721,0,0,1,22.689,16h4.623a0.721,0.721,0,0,1,.689.75v4.5ZM100,62H87a19,19,0,1,1-37.57-4H32L72,18V34h28V62Zm14,31.25a0.721,0.721,0,0,1-.689.75h-4.623A0.721,0.721,0,0,1,108,93.25v-4.5a0.721,0.721,0,0,1,.689-0.75h4.623a0.721,0.721,0,0,1,.689.75v4.5Zm0-12a0.721,0.721,0,0,1-.689.75h-4.623A0.721,0.721,0,0,1,108,81.25v-4.5a0.721,0.721,0,0,1,.689-0.75h4.623a0.721,0.721,0,0,1,.689.75v4.5Zm0-12a0.721,0.721,0,0,1-.689.75h-4.623A0.721,0.721,0,0,1,108,69.25v-4.5a0.721,0.721,0,0,1,.689-0.75h4.623a0.721,0.721,0,0,1,.689.75v4.5Zm0-12a0.721,0.721,0,0,1-.689.75h-4.623A0.721,0.721,0,0,1,108,57.25v-4.5a0.721,0.721,0,0,1,.689-0.75h4.623a0.721,0.721,0,0,1,.689.75v4.5Zm0-12a0.721,0.721,0,0,1-.689.75h-4.623A0.721,0.721,0,0,1,108,45.25v-4.5a0.721,0.721,0,0,1,.689-0.75h4.623a0.721,0.721,0,0,1,.689.75v4.5Zm0-12a0.721,0.721,0,0,1-.689.75h-4.623A0.721,0.721,0,0,1,108,33.25v-4.5a0.721,0.721,0,0,1,.689-0.75h4.623a0.721,0.721,0,0,1,.689.75v4.5Zm0-12a0.721,0.721,0,0,1-.689.75h-4.623A0.721,0.721,0,0,1,108,21.25v-4.5a0.721,0.721,0,0,1,.689-0.75h4.623a0.721,0.721,0,0,1,.689.75v4.5Z"/>
  <path class="fill" d="M62,88H47.964A20.07,20.07,0,0,1,53.3,94H62a10,10,0,0,1,0,20H44a9.988,9.988,0,0,1-7.439-16.667H29.469A15.975,15.975,0,0,0,44,120H62A16,16,0,0,0,62,88Z"/>
  <path class="fill" d="M18,120H32.036a20.07,20.07,0,0,1-5.339-6H18a10,10,0,0,1,0-20H36a9.988,9.988,0,0,1,7.439,16.667h7.093A15.975,15.975,0,0,0,36,88H18A16,16,0,0,0,18,120Z"/>
  <path class="fill" d="M68,43V28L42,54h8.784A18.985,18.985,0,0,1,68,43Z"/>
  </svg>