<svg id="S_LinkHori_Sm_N_D_2x" data-name="S_LinkHori_Sm_N_D@2x" xmlns="http://www.w3.org/2000/svg" width="32" height="32" viewBox="0 0 32 32">
  <defs>
    <style>
      .fill {
        fill: #fff;
        fill-rule: evenodd;
        opacity: 0.65;
      }

      
    </style>
  </defs>
  <title>S_LinkHori_Sm_N_D@2x</title>
  <path class="fill" d="M14.184,15A2.965,2.965,0,0,0,14,16a3,3,0,0,0,3,3h7a3,3,0,0,0,0-6H22.411a8.025,8.025,0,0,0-2.137-3H24a6,6,0,0,1,0,12H17a5.967,5.967,0,0,1-5.91-7h3.094ZM15,10H8A6,6,0,0,0,8,22h3.726a8.025,8.025,0,0,1-2.137-3H8a3,3,0,0,1,0-6h7a3,3,0,0,1,3,3,2.965,2.965,0,0,1-.184,1H20.91A5.967,5.967,0,0,0,15,10Z"/>
  </svg>