<svg id="S_LiveLinkOnline_Sm_N_D_2x" data-name="S_LiveLinkOnline_Sm_N_D@2x" xmlns="http://www.w3.org/2000/svg" width="32" height="32" viewBox="0 0 32 32">
  <defs>
    <style>
      .fill {
        fill: #fff;
        fill-rule: evenodd;
        opacity: 0.65;
      }

      
    </style>
  </defs>
  <title>S_LiveLinkOnline_Sm_N_D@2x</title>
  <path class="fill" d="M9,22H4a4,4,0,0,0,0,8H6.5a5.017,5.017,0,0,1-1.583-2H4a2,2,0,0,1,0-4H9a2,2,0,0,1,2,2,1.977,1.977,0,0,1-.278,1h2.137A3.952,3.952,0,0,0,9,22Z"/>
  <path class="fill" d="M10,30h5a4,4,0,0,0,0-8H12.5a5.017,5.017,0,0,1,1.583,2H15a2,2,0,0,1,0,4H10a2,2,0,0,1-2-2,1.977,1.977,0,0,1,.278-1H6.141A3.952,3.952,0,0,0,10,30Z"/>
  <circle class="fill" cx="18" cy="15" r="3.3"/>
  <path class="fill" d="M17.8,10.3V6.9l-5.9,5.9h1.95c-0.044.082-.075,0.17-0.114,0.255A4.7,4.7,0,0,1,18,10.3C17.933,10.3,17.866,10.3,17.8,10.3Z"/>
  <path class="fill" d="M30.933,2H5.067A1.035,1.035,0,0,0,4,3V20H15.5a6,6,0,0,1,5.658,4H31a1,1,0,0,0,1-1V3A1.035,1.035,0,0,0,30.933,2ZM8,17.5a0.5,0.5,0,0,1-.5.5h-1A0.5,0.5,0,0,1,6,17.5v-1A0.5,0.5,0,0,1,6.5,16h1a0.5,0.5,0,0,1,.5.5v1Zm0-4a0.5,0.5,0,0,1-.5.5h-1A0.5,0.5,0,0,1,6,13.5v-1A0.5,0.5,0,0,1,6.5,12h1a0.5,0.5,0,0,1,.5.5v1Zm0-4a0.5,0.5,0,0,1-.5.5h-1A0.5,0.5,0,0,1,6,9.5v-1A0.5,0.5,0,0,1,6.5,8h1a0.5,0.5,0,0,1,.5.5v1Zm0-4a0.5,0.5,0,0,1-.5.5h-1A0.5,0.5,0,0,1,6,5.5v-1A0.5,0.5,0,0,1,6.5,4h1a0.5,0.5,0,0,1,.5.5v1Zm18,10a0.5,0.5,0,0,1-.5.5H22.593c0-.008,0-0.017,0-0.024a4.694,4.694,0,0,1-8.959.761,4.623,4.623,0,0,1,.008-3.483,4.644,4.644,0,0,0-.237.746H9L19,4V8h6.5a0.5,0.5,0,0,1,.5.5v7Zm4,6a0.5,0.5,0,0,1-.5.5h-1a0.5,0.5,0,0,1-.5-0.5v-1a0.5,0.5,0,0,1,.5-0.5h1a0.5,0.5,0,0,1,.5.5v1Zm0-4a0.5,0.5,0,0,1-.5.5h-1a0.5,0.5,0,0,1-.5-0.5v-1a0.5,0.5,0,0,1,.5-0.5h1a0.5,0.5,0,0,1,.5.5v1Zm0-4a0.5,0.5,0,0,1-.5.5h-1a0.5,0.5,0,0,1-.5-0.5v-1a0.5,0.5,0,0,1,.5-0.5h1a0.5,0.5,0,0,1,.5.5v1Zm0-4a0.5,0.5,0,0,1-.5.5h-1A0.5,0.5,0,0,1,28,9.5v-1A0.5,0.5,0,0,1,28.5,8h1a0.5,0.5,0,0,1,.5.5v1Zm0-4a0.5,0.5,0,0,1-.5.5h-1A0.5,0.5,0,0,1,28,5.5v-1A0.5,0.5,0,0,1,28.5,4h1a0.5,0.5,0,0,1,.5.5v1Z"/>
  </svg>