<svg xmlns="http://www.w3.org/2000/svg" width="64" height="64" viewBox="0 0 64 64">
  <defs>
    <style>
      .fill {
        fill: #fff;
        opacity: 0.65;
        isolation: isolate;
      }
    </style>
  </defs>
  <g id="ImportedIcons">
    <path class="fill" d="M63,4H9A1,1,0,0,0,8,5V24h4V8H60V44H32v4H63a1,1,0,0,0,1-1V5A.99989.99989,0,0,0,63,4Z"/>
    <path class="fill" d="M27.23792,51.10944A.45331.45331,0,0,0,28,50.78845V28H4.70673a.45331.45331,0,0,0-.31611.77673l7.16248,7.00562A49.121,49.121,0,0,0,3.05029,48.0661,25.92428,25.92428,0,0,0,1.17914,63.32471a.81721.81721,0,0,0,1.57788.12262A31.06564,31.06564,0,0,1,4.1358,59.99945,38.25984,38.25984,0,0,1,19.81818,43.85638Z"/>
    <path class="fill" d="M55,56H46a2,2,0,0,1-2-2V50H32v4a2,2,0,0,1-2,2H17a1,1,0,0,0-1,1v2a1,1,0,0,0,1,1H55a1,1,0,0,0,1-1V57A1,1,0,0,0,55,56Z"/>
  </g>
  <g id="icons">
    <path class="fill" d="M50.29443,17.2226a13.31025,13.31025,0,0,0-9.80188-4.22242,13.68189,13.68189,0,0,0-9.68237,4.044c-.43829-.03961-.87659-.07929-1.295-.07929A11.33843,11.33843,0,0,0,18.93634,24H20.9527a9.51831,9.51831,0,0,1,14.65881-2.53516l.03986.03968,3.96454,4.044a1.68734,1.68734,0,0,1-.0398,2.39868,1.70772,1.70772,0,0,1-2.41064-.03967L33.24072,23.9032A6.11156,6.11156,0,0,0,25.18713,24H32v5.28967l2.89429,2.88a8.39583,8.39583,0,0,0,5.79748,2.57708,7.87357,7.87357,0,0,0,5.73767-2.478,8.36088,8.36088,0,0,0,2.39069-5.848,8.17193,8.17193,0,0,0-8.16821-8.12769,7.42239,7.42239,0,0,0-4.5224,1.30835c-.02-.01984-.3985-.25769-.81684-.51538-.259-.15863-.5379-.3172-.777-.43616-.23908-.13873-.9563-.47577-1.3747-.65417-.09961-.03961-.239-.09912-.29883-.119h.02a11.11082,11.11082,0,0,1,7.76978-2.97351,11.55592,11.55592,0,0,1,11.575,11.51752A11.6939,11.6939,0,0,1,48.86,34.64758a11.41063,11.41063,0,0,1-8.16822,3.489A11.9049,11.9049,0,0,1,32.4837,34.5683L32,34.08514v2.32257a27.37152,27.37152,0,0,0,2.41614,1.66938H32V40h8.49255a13.49035,13.49035,0,0,0,9.80188-22.7774Z"/>
  </g>
</svg>
