<svg xmlns="http://www.w3.org/2000/svg" width="32" height="32" viewBox="0 0 32 32">
  <defs>
    <style>
      .fill {
        fill: #999;
        isolation: isolate;
      }
    </style>
  </defs>
  <title>S_LinkedTeamProject_Sm_N_D@2x</title>
  <g id="ImportedIcons">
    <path class="fill" d="M9.54114,11.7998h2.59625a3.56053,3.56053,0,0,1,2.10382-.83886,3.097,3.097,0,0,1,2.24976.97058l1.88733,1.87317A1.04547,1.04547,0,0,0,19.85461,12.324l-1.876-1.88122a5.19527,5.19527,0,0,0-3.73743-1.57983A5.40841,5.40841,0,0,0,9.54114,11.7998ZM27.5,28H23a1,1,0,0,1-1-1V25H16v2a1,1,0,0,1-1,1H8.5a.5.5,0,0,0-.5.5v1a.5.5,0,0,0,.5.5h19a.5.5,0,0,0,.5-.5v-1A.5.5,0,0,0,27.5,28Zm4-26H4.5a.5.5,0,0,0-.5.5v9.2998H6V4H30V22H16v2H31.5a.5.5,0,0,0,.5-.5V2.5A.5.5,0,0,0,31.5,2ZM14,14H2.35337a.22666.22666,0,0,0-.158.38838l3.58122,3.50281a24.56054,24.56054,0,0,0-4.2514,6.14187,12.96239,12.96239,0,0,0-.93558,7.62931.40862.40862,0,0,0,.789.0613,15.53434,15.53434,0,0,1,.68938-1.72395,19.13,19.13,0,0,1,7.8412-8.07153L13.619,25.55474a.22665.22665,0,0,0,.381-.1605Zm12.87122-1.03247a6.34322,6.34322,0,0,0-6.30286-6.303,6.23739,6.23739,0,0,0-3.12756.86121,7.283,7.283,0,0,1,1.96984,1.41015,4.19866,4.19866,0,0,1,1.16419-.167,4.19989,4.19989,0,1,1-.00647,8.39978c-1.29553,0-1.985-.22388-3.65784-1.88855l-.71032-.71722v2.95849a6.418,6.418,0,0,0,4.36816,1.74933A6.33816,6.33816,0,0,0,26.87122,12.96753Z"/>
  </g>
</svg>
