<svg id="S_LinkedSelection_Sm_N_D_2x" data-name="S_LinkedSelection_Sm_N_D@2x" xmlns="http://www.w3.org/2000/svg" width="32" height="32" viewBox="0 0 32 32">
  <defs>
    <style>
      .fill {
        fill: #fff;
        fill-rule: evenodd;
        opacity: 0.65;
      }

      
    </style>
  </defs>
  <title>S_LinkedSelection_Sm_N_D@2x</title>
  <path class="fill" d="M15,4H29a1,1,0,0,1,1,1v8a1,1,0,0,1-1,1H25Z"/>
  <path class="fill" d="M10,4H3A1,1,0,0,0,2,5v8a1,1,0,0,0,1,1h7V4Z"/>
  <path class="fill" d="M4,24V18h6V16H3a1,1,0,0,0-1,1v8a1,1,0,0,0,1,1h7V24H4Z"/>
  <path id="pointer_copy_2" class="fill" d="M12,5.7V29.95a0.5,0.5,0,0,0,.852.355l7.493-7.443,8.988,0.025a0.5,0.5,0,0,0,.355-0.854L12.956,5.3A0.56,0.56,0,0,0,12,5.7Z"/>
  </svg>