<svg xmlns="http://www.w3.org/2000/svg" data-name="S_LockOpen_18_N@2x" height="36" id="S_LockOpen_18_N_2x" viewBox="0 0 36 36" width="36">
  <defs>
    <style>
	.fill {
		fill: #000000;
		
        fill-rule: evenodd;
        opacity: 0.65;
      }</style>
  </defs>
  <title>S_LockOpen_18_N@2x</title>
  <path class="fill" d="M29,16H11.9V10.352a6.279,6.279,0,0,1,4.955-6.246,6.15,6.15,0,0,1,6.653,3.312,7.425,7.425,0,0,1,.3.8.5.5,0,0,0,.659.307L27.152,7.46a.506.506,0,0,0,.3-.622A9.965,9.965,0,0,0,17.133.037C12.094.463,8,5.236,8,10.292V16H7a1,1,0,0,0-1,1V33a1,1,0,0,0,1,1H29a1,1,0,0,0,1-1V17A1,1,0,0,0,29,16ZM20,26.222V29a1,1,0,0,1-1,1H17a1,1,0,0,1-1-1V26.222a3,3,0,1,1,4,0Z" transform="translate(0 0)" />
  </svg>