<svg id="S_LoopPlay_Lg_N_D_3to2x" data-name="S_LoopPlay_Lg_N_D@3to2x" xmlns="http://www.w3.org/2000/svg" width="33" height="27" viewBox="0 0 33 27">
  <defs>
    <style>
      .fill {
        fill: #fff;
        fill-rule: evenodd;
        opacity: 0.65;
      }

      
    </style>
  </defs>
  <title>S_LoopPlay_Lg_N_D@3to2x</title>
  <path class="fill" d="M13,15.125a0.375,0.375,0,0,0,.375.375h1.036a0.375,0.375,0,0,0,.168-0.04L25,9.5,14.579,3.54a0.375,0.375,0,0,0-.168-0.04H13.375A0.375,0.375,0,0,0,13,3.875v11.25Z"/>
  <path class="fill" d="M26.457,12.771L24.207,13.9a0.375,0.375,0,0,0-.207.335V20H8V11h3V8H5.375A0.375,0.375,0,0,0,5,8.375v14.25A0.375,0.375,0,0,0,5.375,23h21.25A0.375,0.375,0,0,0,27,22.625V13.107A0.375,0.375,0,0,0,26.457,12.771Z"/>
  </svg>