<svg id="S_LoopPlay_Lg_N_D_2x" data-name="S_LoopPlay_Lg_N_D@2x" xmlns="http://www.w3.org/2000/svg" width="44" height="36" viewBox="0 0 44 36">
  <defs>
    <style>
      .fill {
        fill: #fff;
        fill-rule: evenodd;
        opacity: 0.65;
      }

      
    </style>
  </defs>
  <title>S_LoopPlay_Lg_N_D@2x</title>
  <path class="fill" d="M18,19.5a0.5,0.5,0,0,0,.5.5h1.382a0.5,0.5,0,0,0,.224-0.053L34,12,20.106,4.053A0.5,0.5,0,0,0,19.882,4H18.5a0.5,0.5,0,0,0-.5.5v15Z"/>
  <path class="fill" d="M35.276,16.362l-3,1.5a0.5,0.5,0,0,0-.276.447V26H10V14h4V10H6.5a0.5,0.5,0,0,0-.5.5v19a0.5,0.5,0,0,0,.5.5h29a0.5,0.5,0,0,0,.5-0.5V16.809A0.5,0.5,0,0,0,35.276,16.362Z"/>
  </svg>