<svg xmlns="http://www.w3.org/2000/svg" data-name="S_LoopPlaybackLg_N@2x" height="36" id="S_LoopPlaybackLg_N_2x" viewBox="0 0 44 36" width="44">
	<defs>
		<style>
			.fill {
				opacity: 0.65;
				fill: #FFFFFF;
			}
		</style>
	</defs>
	<path class="fill" transform="translate(13.000000, 12.000000)" d="M2.8,13.1c-1-0.5-1.8,0-1.8,1.1v5.7c0,1.1,0.8,1.6,1.8,1.1l5.6-3c1-0.5,1-1.3,0-1.9L2.8,13.1z"/>
	<path class="fill" transform="translate(13.000000, 12.000000)" d="M15.2-6.9c1-0.5,1.8,0,1.8,1.1v5.7c0,1.1-0.8,1.6-1.8,1.1l-5.6-3c-1-0.5-1-1.3,0-1.9L15.2-6.9z"/>
	<path class="fill" transform="translate(13.000000, 12.000000)" d="M7.2-5H-3c-3.3,0-6,2.7-6,6v12c0,3.3,2.7,6,6,6h6v-4h-6c-1.1,0-2-0.9-2-2V1c0-1.1,0.9-2,2-2H7.3L5.7-1.9 c-0.9-0.6-1-1.5,0-2.1L7.2-5z M15-5h6c3.3,0,6,2.7,6,6v12c0,3.3-2.7,6-6,6H10.8l1.5-0.9c0.9-0.6,1-1.5,0-2.1L10.8,15H21 c1.1,0,2-0.9,2-2V1c0-1.1-0.9-2-2-2h-6V-5z"/>
</svg>
