<svg xmlns="http://www.w3.org/2000/svg" data-name="S_Maximize_Md_N_D@2x" height="36" id="S_Maximize_Md_N_D_2x" viewBox="0 0 36 36" width="36">
  <defs>
    <style>
      .fill {
        fill: #fff;
        fill-rule: evenodd;
        opacity: 0.65;
      }
    </style>
  </defs>
  <path class="fill" d="M14.1,20.7c-0.4-0.4-1-0.4-1.4,0l-6.5,6.5l-3-3C3.1,24.1,2.9,24,2.7,24C2.3,24,2,24.3,2,24.7l0,0v8.8
	C2,33.8,2.2,34,2.5,34h8.8c0.4,0,0.7-0.3,0.7-0.7l0,0c0-0.2-0.1-0.4-0.2-0.5l-3-3l6.5-6.5c0.4-0.4,0.4-1,0-1.4L14.1,20.7z"/>
  <path class="fill" d="M33.5,2h-8.8C24.3,2,24,2.3,24,2.7c0,0,0,0,0,0v0c0,0.2,0.1,0.4,0.2,0.5l3,3l-6.5,6.5c-0.4,0.4-0.4,1,0,1.4
	l1.2,1.2c0.4,0.4,1,0.4,1.4,0l6.5-6.5l3,3c0.1,0.1,0.3,0.2,0.5,0.2c0.4,0,0.7-0.3,0.7-0.7c0,0,0,0,0,0l0,0V2.5C34,2.2,33.8,2,33.5,2
	z"/>
</svg>
