<svg xmlns="http://www.w3.org/2000/svg" data-name="S_MakeSequence_18_N_D@2x" height="36" id="S_MakeSequence_18_N_D_2x" viewBox="0 0 36 36" width="36">
  <defs>
    <style>
      .fill {
        fill: #fff;
        fill-rule: evenodd;
        opacity: 0.65;
      }

      
    </style>
  </defs>
  <title>S_MakeSequence_18_N_D@2x</title>
  <path class="fill" d="M4,11v4a1,1,0,0,0,1,1h5V10H5A1,1,0,0,0,4,11Z" />
  <path class="fill" d="M16,10v6H29a1,1,0,0,0,1-1V11a1,1,0,0,0-1-1Z" />
  <path class="fill" d="M14,10c0-4,4-4,4-4V1a1,1,0,0,0-1-1H9A1,1,0,0,0,8,1V6s4,0,4,4V27.5a.5.5,0,0,0,.5.5h1a.5.5,0,0,0,.5-.5Z" />
  <path class="fill" d="M10,18H1a1,1,0,0,0-1,1v4a1,1,0,0,0,1,1h9Z" />
  <path class="fill" d="M27,18.1A8.9,8.9,0,1,0,35.9,27,8.9,8.9,0,0,0,27,18.1Zm4.9,10.4H28.5v3.4a.5.5,0,0,1-.5.5H26a.5.5,0,0,1-.5-.5V28.5H22.1a.5.5,0,0,1-.5-.5V26a.5.5,0,0,1,.5-.5h3.4V22.1a.5.5,0,0,1,.5-.5h2a.5.5,0,0,1,.5.5v3.4h3.4a.5.5,0,0,1,.5.5v2A.5.5,0,0,1,31.9,28.5Z" />
  <path class="fill" d="M20.018,18H16v6h.2A9.99,9.99,0,0,1,20.018,18Z" />
  </svg>