<?xml version="1.0" encoding="UTF-8"?>
<svg id="ICONS" xmlns="http://www.w3.org/2000/svg" width="32" height="32" viewBox="0 0 32 32">
  <defs>
    <style>
      .fill {
        opacity: .65;
      }

      .fill, .cls-1 {
        fill: #fff;
      }

      .cls-1, .cls-2 {
        opacity: .9;
      }
    </style>
  </defs>
  <path class="fill" d="M28,6v20H4V6h24M29,4H3c-.55225,0-1,.44727-1,1v22c0,.55273.44775,1,1,1h26c.55237,0,1-.44727,1-1V5c0-.55273-.44763-1-1-1h0Z"/>
  <path class="cls-1" d="M16.00003,8.66211c-4.05255,0-7.33777,3.28516-7.33777,7.33789s3.28522,7.33789,7.33777,7.33789c4.05212-.00098,7.33673-3.28564,7.33771-7.33789,0-4.05273-3.28522-7.33789-7.33771-7.33789Z"/>
  <path class="cls-2" d="M4,6v20h24V6H4ZM16.00006,23.33789c-4.05255,0-7.33777-3.28516-7.33777-7.33789s3.28522-7.33789,7.33777-7.33789,7.33771,3.28516,7.33771,7.33789c-.00098,4.05225-3.28558,7.33691-7.33771,7.33789Z"/>
</svg>