<svg id="S_MarkerOverlay_9x12N_2x" data-name="S_MarkerOverlay_9x12N@2x" xmlns="http://www.w3.org/2000/svg" width="18" height="24" viewBox="0 0 18 24">
  <defs>
    <style>
      .fill {
        fill-rule: evenodd;
        opacity: 0.65;
      }

      .Background {
        fill: #fff;
        opacity: 0.3;
      }

      
    </style>
  </defs>
  <title>S_MarkerOverlay_9x12N@2x</title>
  <path class="fill" d="M9,20.909l-6.825-5.85A0.5,0.5,0,0,1,2,14.679V3A1,1,0,0,1,3,2H15a1,1,0,0,1,1,1V14.679a0.5,0.5,0,0,1-.175.38Z"/>
  <path class="Background" d="M0,1V15.775a0.5,0.5,0,0,0,.168.374L9,24l8.832-7.851A0.5,0.5,0,0,0,18,15.775V1a1,1,0,0,0-1-1H1A1,1,0,0,0,0,1ZM15.825,15.059L9,20.909l-6.825-5.85A0.5,0.5,0,0,1,2,14.679V3A1,1,0,0,1,3,2H15a1,1,0,0,1,1,1V14.679A0.5,0.5,0,0,1,15.825,15.059Z"/>
  </svg>