<?xml version="1.0" encoding="UTF-8"?>
<svg id="ICONS" xmlns="http://www.w3.org/2000/svg" width="32" height="32" viewBox="0 0 32 32">
  <defs>
    <style>
      .cls-1 {
        fill: blue;
        opacity: .8;
      }

      .fillPale {
        opacity: .15;
      }

      .fillPale, .fill {
        fill: #fff;
      }

      .fill {
        opacity: .65;
      }
    </style>
  </defs>
  <path class="fill" d="M16,7.45312c-4.72034,0-8.54688,3.82617-8.54688,8.54688s3.82654,8.54688,8.54688,8.54688,8.54688-3.82617,8.54688-8.54688-3.82654-8.54688-8.54688-8.54688ZM16,22.54688c-3.61572,0-6.54688-2.93066-6.54688-6.54688s2.93115-6.54688,6.54688-6.54688,6.54688,2.93066,6.54688,6.54688c-.00085,3.61523-2.9314,6.5459-6.54688,6.54688Z"/>
  <path class="cls-1" d="M16.00005,9.45298c-3.61578,0-6.54693,2.93109-6.54693,6.54704s2.93115,6.54704,6.54693,6.54704c3.6154-.00087,6.546-2.93153,6.54687-6.54704,0-3.61594-2.93115-6.54704-6.54687-6.54704Z"/>
  <path class="fill" d="M28,6v20H4V6h24M29,4H3c-.55225,0-1,.44727-1,1v22c0,.55273.44775,1,1,1h26c.55225,0,1-.44727,1-1V5c0-.55273-.44775-1-1-1h0Z"/>
  <path class="fillPale" d="M4,6v20h24V6H4ZM16,24.54688c-4.72034,0-8.54688-3.82617-8.54688-8.54688s3.82654-8.54688,8.54688-8.54688,8.54688,3.82617,8.54688,8.54688-3.82654,8.54688-8.54688,8.54688Z"/>
</svg>