<svg id="S_MaximizeItem_Lg_N_D_2x" data-name="S_MaximizeItem_Lg_N_D@2x" xmlns="http://www.w3.org/2000/svg" width="44" height="36" viewBox="0 0 44 36">
  <defs>
    <style>
      .fill {
        fill: #fff;
        fill-rule: evenodd;
        opacity: 0.65;
      }

      
    </style>
  </defs>
  <title>S_MaximizeItem_Lg_N_D@2x</title>
  <path class="fill" d="M26.5,6h9a0.5,0.5,0,0,1,.5.5v7a0.5,0.5,0,0,0,.5.5h1a0.5,0.5,0,0,0,.5-0.5V5a1,1,0,0,0-1-1H26.5a0.5,0.5,0,0,0-.5.5v1A0.5,0.5,0,0,0,26.5,6Z"/>
  <path class="fill" d="M8,13.5v-7A0.5,0.5,0,0,1,8.5,6h9A0.5,0.5,0,0,0,18,5.5v-1A0.5,0.5,0,0,0,17.5,4H7A1,1,0,0,0,6,5v8.5a0.5,0.5,0,0,0,.5.5h1A0.5,0.5,0,0,0,8,13.5Z"/>
  <path class="fill" d="M17.5,28h-9A0.5,0.5,0,0,1,8,27.5v-7A0.5,0.5,0,0,0,7.5,20h-1a0.5,0.5,0,0,0-.5.5V29a1,1,0,0,0,1,1H17.5a0.5,0.5,0,0,0,.5-0.5v-1A0.5,0.5,0,0,0,17.5,28Z"/>
  <path class="fill" d="M36,20.5v7a0.5,0.5,0,0,1-.5.5h-9a0.5,0.5,0,0,0-.5.5v1a0.5,0.5,0,0,0,.5.5H37a1,1,0,0,0,1-1V20.5a0.5,0.5,0,0,0-.5-0.5h-1A0.5,0.5,0,0,0,36,20.5Z"/>
  </svg>