<?xml version="1.0" encoding="UTF-8"?>
<svg id="a" xmlns="http://www.w3.org/2000/svg" version="1.1" viewBox="0 0 240 160">
  <defs>
    <style>
      .cls-1 {
        fill: #909090;
        stroke-width: 0px;
      }

      .cls-2 {
        opacity: .5;
      }
    </style>
  </defs>
  <g id="b">
    <g id="c">
      <path class="cls-1" d="M156.8,126.9c-1.6,0-3-.6-4.1-1.7l-22.7-22.6c-.8-.8-.8-2.2,0-3l5.2-5.2c.8-.8,2.2-.8,3,0l22.7,22.6c2.3,2.3,2.3,6,0,8.3-1.1,1.1-2.6,1.7-4.1,1.7ZM132.1,101l22.4,22.4c1.2,1.2,3.4,1.2,4.7,0s1.3-3.4,0-4.7l-22.4-22.4s-4.7,4.7-4.7,4.7Z"/>
      <path class="cls-1" d="M131.9,100.8c-.2,0-.4,0-.6-.2l-2.8-2.8c-.3-.3-.3-.9,0-1.2s.9-.3,1.2,0l2.8,2.8c.3.3.3.9,0,1.2s-.4.2-.6.2Z"/>
      <path class="cls-1" d="M135.8,96.8c-.2,0-.4,0-.6-.2l-2.8-2.8c-.3-.3-.3-.9,0-1.2s.9-.3,1.2,0l2.8,2.8c.3.3.3.9,0,1.2s-.4.2-.6.2Z"/>
      <path class="cls-1" d="M111.8,100.7c-14.2,0-25.8-11.6-25.8-25.8s11.6-25.8,25.8-25.8,2.6,0,3.9.3c.7.1,1.2.8,1.1,1.5-.1.7-.7,1.2-1.5,1.1-1.2-.2-2.3-.3-3.5-.3-12.8,0-23.3,10.4-23.3,23.3s10.4,23.3,23.3,23.3,23.3-10.4,23.3-23.3-.2-3.8-.7-5.7c-.2-.7.2-1.4.9-1.5.7-.2,1.4.2,1.5.9.5,2,.8,4.2.8,6.3,0,14.2-11.6,25.8-25.8,25.8Z"/>
    </g>
  </g>
  <g class="cls-2">
    <path class="cls-1" d="M29.9,42.6c-.7,0-1.3-.6-1.3-1.3v-5.8c0-2.2,1.8-4,4-4h5.8c.7,0,1.3.6,1.3,1.3s-.6,1.3-1.3,1.3h-5.8c-.8,0-1.4.6-1.4,1.4v5.8c0,.7-.6,1.3-1.3,1.3Z"/>
    <path class="cls-1" d="M38.4,80.9h-5.8c-2.2,0-4-1.8-4-4v-5.8c0-.7.6-1.3,1.3-1.3s1.3.6,1.3,1.3v5.8c0,.8.6,1.4,1.4,1.4h5.8c.7,0,1.3.6,1.3,1.3s-.6,1.3-1.3,1.3Z"/>
    <path class="cls-1" d="M73.1,80.9h-5.8c-.7,0-1.3-.6-1.3-1.3s.6-1.3,1.3-1.3h5.8c.8,0,1.4-.6,1.4-1.4v-5.8c0-.7.6-1.3,1.3-1.3s1.3.6,1.3,1.3v5.8c0,2.2-1.8,4-4,4Z"/>
    <path class="cls-1" d="M75.8,42.6c-.7,0-1.3-.6-1.3-1.3v-5.8c0-.8-.6-1.4-1.4-1.4h-5.8c-.7,0-1.3-.6-1.3-1.3s.6-1.3,1.3-1.3h5.8c2.2,0,4,1.8,4,4v5.8c0,.7-.6,1.3-1.3,1.3Z"/>
  </g>
  <g class="cls-2">
    <path class="cls-1" d="M171,95.3c-.7,0-1.3-.6-1.3-1.3v-5.8c0-2.2,1.8-4,4-4h5.8c.7,0,1.3.6,1.3,1.3s-.6,1.3-1.3,1.3h-5.8c-.8,0-1.4.6-1.4,1.4v5.8c0,.7-.6,1.3-1.3,1.3Z"/>
    <path class="cls-1" d="M179.5,130.1h-5.8c-2.2,0-4-1.8-4-4v-5.8c0-.7.6-1.3,1.3-1.3s1.3.6,1.3,1.3v5.8c0,.8.6,1.4,1.4,1.4h5.8c.7,0,1.3.6,1.3,1.3s-.6,1.3-1.3,1.3Z"/>
    <path class="cls-1" d="M207.4,130.1h-5.8c-.7,0-1.3-.6-1.3-1.3s.6-1.3,1.3-1.3h5.8c.8,0,1.4-.6,1.4-1.4v-5.8c0-.7.6-1.3,1.3-1.3s1.3.6,1.3,1.3v5.8c0,2.2-1.8,4-4,4Z"/>
    <path class="cls-1" d="M210.1,95.3c-.7,0-1.3-.6-1.3-1.3v-5.8c0-.8-.6-1.4-1.4-1.4h-5.8c-.7,0-1.3-.6-1.3-1.3s.6-1.3,1.3-1.3h5.8c2.2,0,4,1.8,4,4v5.8c0,.7-.6,1.3-1.3,1.3Z"/>
  </g>
  <g class="cls-2">
    <path class="cls-1" d="M152.3,23c-.7,0-1.3-.6-1.3-1.3v-5.8c0-2.2,1.8-4,4-4h5.8c.7,0,1.3.6,1.3,1.3s-.6,1.3-1.3,1.3h-5.8c-.8,0-1.4.6-1.4,1.4v5.8c0,.7-.6,1.3-1.3,1.3Z"/>
    <path class="cls-1" d="M160.8,68.1h-5.8c-2.2,0-4-1.8-4-4v-5.8c0-.7.6-1.3,1.3-1.3s1.3.6,1.3,1.3v5.8c0,.8.6,1.4,1.4,1.4h5.8c.7,0,1.3.6,1.3,1.3s-.6,1.3-1.3,1.3Z"/>
    <path class="cls-1" d="M205.7,68.1h-5.8c-.7,0-1.3-.6-1.3-1.3s.6-1.3,1.3-1.3h5.8c.8,0,1.4-.6,1.4-1.4v-5.8c0-.7.6-1.3,1.3-1.3s1.3.6,1.3,1.3v5.8c0,2.2-1.8,4-4,4Z"/>
    <path class="cls-1" d="M208.4,23c-.7,0-1.3-.6-1.3-1.3v-5.8c0-.8-.6-1.4-1.4-1.4h-5.8c-.7,0-1.3-.6-1.3-1.3s.6-1.3,1.3-1.3h5.8c2.2,0,4,1.8,4,4v5.8c0,.7-.6,1.3-1.3,1.3Z"/>
  </g>
  <g class="cls-2">
    <path class="cls-1" d="M52,122.5c-.7,0-1.3-.6-1.3-1.3v-5.8c0-2.2,1.8-4,4-4h5.8c.7,0,1.3.6,1.3,1.3s-.6,1.3-1.3,1.3h-5.8c-.8,0-1.4.6-1.4,1.4v5.8c0,.7-.6,1.3-1.3,1.3Z"/>
    <path class="cls-1" d="M60.5,148h-5.8c-2.2,0-4-1.8-4-4v-5.8c0-.7.6-1.3,1.3-1.3s1.3.6,1.3,1.3v5.8c0,.8.6,1.4,1.4,1.4h5.8c.7,0,1.3.6,1.3,1.3s-.6,1.3-1.3,1.3Z"/>
    <path class="cls-1" d="M109.6,148h-5.8c-.7,0-1.3-.6-1.3-1.3s.6-1.3,1.3-1.3h5.8c.8,0,1.4-.6,1.4-1.4v-5.8c0-.7.6-1.3,1.3-1.3s1.3.6,1.3,1.3v5.8c0,2.2-1.8,4-4,4Z"/>
    <path class="cls-1" d="M112.3,122.5c-.7,0-1.3-.6-1.3-1.3v-5.8c0-.8-.6-1.4-1.4-1.4h-5.8c-.7,0-1.3-.6-1.3-1.3s.6-1.3,1.3-1.3h5.8c2.2,0,4,1.8,4,4v5.8c0,.7-.6,1.3-1.3,1.3Z"/>
  </g>
  <g>
    <path class="cls-1" d="M51.1,82.4c-.2,0-.4,0-.6-.1-.6-.3-.9-1.1-.6-1.7l.5-1c.8-1.6,1.2-3.3,1.2-5v-6.9c0-4.7-1.9-6.4-3-7.4-.2-.2-.3-.3-.5-.4-.5-.5-.5-1.3,0-1.8.5-.5,1.3-.5,1.8,0,.1.1.2.2.4.3,1.3,1.1,3.9,3.5,3.9,9.3v6.9c0,2.1-.5,4.3-1.4,6.2l-.5,1c-.2.5-.7.7-1.1.7Z"/>
    <path class="cls-1" d="M58.5,82.4c-.5,0-.9-.3-1.1-.7l-.5-1c-.9-1.9-1.4-4-1.4-6.2v-7.9c0-5.8,4.3-10,4.5-10.2.5-.5,1.3-.5,1.8,0,.5.5.5,1.3,0,1.8,0,0-3.7,3.7-3.7,8.3v7.9c0,1.7.4,3.5,1.2,5l.5,1c.3.6,0,1.4-.6,1.7-.2,0-.4.1-.6.1h0Z"/>
    <path class="cls-1" d="M45.7,68.3c-.3,0-.7,0-1,0-2.4-.3-4.5-1.5-6-3.3-1.5-1.9-2.2-4.2-1.9-6.6.4-3.1,2.2-5.7,4.9-7-.9-1.6-1.2-3.4-1-5.2.3-2.4,1.5-4.5,3.3-6,1.9-1.5,4.2-2.2,6.6-1.9,3.1.4,5.8,2.3,7.1,5.1.9-.2,1.9-.3,2.8-.2,2,.2,3.8,1.2,5.1,2.8,1.3,1.6,1.8,3.6,1.6,5.6,0,.6-.2,1.2-.4,1.8,2.8,1.4,4.5,4.4,4.1,7.6-.2,2-1.2,3.8-2.8,5.1s-3.6,1.8-5.6,1.6c-.7,0-1.2-.7-1.1-1.4,0-.7.7-1.2,1.4-1.1,1.3.1,2.6-.2,3.7-1.1,1-.8,1.7-2,1.9-3.4.3-2.4-1.3-4.8-3.7-5.4-.4-.1-.7-.4-.9-.8-.1-.4-.1-.8.1-1.1.4-.6.7-1.3.7-2.1.2-1.3-.2-2.6-1.1-3.7-.8-1-2-1.7-3.4-1.9-.9-.1-1.9,0-2.7.5-.3.2-.7.2-1.1,0s-.6-.4-.7-.8c-.7-2.5-2.9-4.3-5.4-4.6-1.7-.2-3.4.3-4.7,1.4-1.3,1.1-2.2,2.6-2.4,4.3-.2,1.7.3,3.4,1.4,4.8.3.3.4.8.2,1.2-.1.4-.5.7-.9.8-2.6.7-4.4,2.8-4.7,5.5-.2,1.7.3,3.4,1.4,4.7,1.1,1.3,2.6,2.2,4.3,2.4.8,0,1.5,0,2.2-.1.7-.2,1.4.3,1.5.9.2.7-.3,1.4-.9,1.5-.7.2-1.4.3-2.1.3h0Z"/>
    <path class="cls-1" d="M56.8,67.9c-.6,0-1.2-.5-1.3-1.1-.8-7.2-3-12.5-4.7-13.9-.5-.4-.6-1.2-.2-1.8.4-.5,1.2-.6,1.8-.2,2.6,2.1,4.8,8.3,5.6,15.5,0,.7-.4,1.3-1.1,1.4,0,0,0,0-.1,0Z"/>
  </g>
  <path class="cls-1" d="M126.9,67.8c-.6,0-1.2-.2-1.7-.5-1.3-.8-2-2.2-1.6-3.7l1-4.7c0-.3,0-.6-.2-.8l-3.2-3.5c-1-1.1-1.2-2.7-.4-4,.8-1.3,2.2-2,3.7-1.6l4.7,1c.3,0,.6,0,.8-.2l3.5-3.2c1.1-1,2.7-1.2,4-.5,1.3.8,2,2.2,1.6,3.7l-1,4.7c0,.3,0,.6.2.8l3.2,3.5c1,1.1,1.2,2.7.4,4-.8,1.3-2.2,2-3.7,1.6l-4.7-1s0,0,0,0c-.3,0-.6,0-.8.2l-3.5,3.2c-.7.6-1.5.9-2.3.9ZM123.6,51.5c-.4,0-.7.3-.7.4,0,.1-.3.6.1,1l3.2,3.5c.8.8,1.1,2,.8,3.1l-1,4.7c-.1.6.3.9.4,1,.2,0,.6.3,1-.1l3.5-3.2c.8-.8,2-1.1,3.1-.8l4.7,1c.6.1.9-.3,1-.4s.3-.6-.1-1l-3.2-3.5c-.8-.8-1.1-2-.8-3.1l1-4.6c.1-.6-.3-.9-.4-1-.2,0-.6-.3-1,.1l-3.5,3.2c-.8.8-2,1.1-3.1.8l-4.6-1c0,0-.2,0-.2,0h0Z"/>
  <path class="cls-1" d="M113.8,79c-.5,0-.9-.1-1.3-.4-1-.6-1.5-1.7-1.2-2.8l.7-3.3-2.3-2.5c-.8-.8-.9-2.1-.3-3.1.6-1,1.7-1.5,2.8-1.2l3.3.7,2.5-2.3c.8-.8,2.1-.9,3.1-.3,1,.6,1.5,1.7,1.2,2.8l-.7,3.3,2.3,2.5c.8.8.9,2.1.3,3.1-.6,1-1.7,1.5-2.8,1.2l-3.3-.7s0,0,0,0l-2.5,2.3c-.5.5-1.1.7-1.8.7ZM111.6,68.1s0,0,0,0c0,0,0,0,0,0l2.3,2.5c.6.6.8,1.5.6,2.4l-.7,3.3s0,0,0,0c0,0,0,0,0,0l2.5-2.3c.6-.6,1.5-.8,2.4-.6,0,0,0,0,0,0l3.3.7s0,0,0,0c0,0,0,0,0,0l-2.3-2.5c-.6-.6-.8-1.5-.6-2.4l.7-3.3s0,0,0,0c0,0,0,0,0,0l-2.5,2.3c-.6.6-1.5.8-2.4.6l-3.3-.7s0,0,0,0h0Z"/>
  <path class="cls-1" d="M189.6,124.1c-6.5,0-8.7-1.2-9-1.3-.4-.2-.7-.7-.6-1.2l.7-15-2.2,1.2c-.3.2-.7.2-1,0-.3-.1-.6-.3-.7-.6l-2.6-5.1c-.3-.5-.1-1.2.3-1.6l7.5-6.4c1.3-1.1,2.9-1.7,4.6-1.7h.5c.7,0,1.3.6,1.3,1.3s0,0,0,0c0,.5,1,1.2,2.4,1.2s2.4-.7,2.4-1.2c0,0,0,0,0,0,0-.7.6-1.3,1.3-1.3h.5c1.7,0,3.3.6,4.6,1.7l7.5,6.4c.5.4.6,1,.3,1.6l-2.6,5.1c-.2.3-.4.5-.7.6-.3.1-.7,0-1,0l-2.2-1.2.7,15c0,.5-.3,1-.8,1.2-.3.1-2.7,1.1-10,1.3-.4,0-.8,0-1.1,0ZM182.6,120.8c1.1.3,3.5.8,8.1.7,4.5,0,7-.5,8.2-.8l-.8-16.2c0-.5.2-.9.6-1.1.4-.2.9-.3,1.3,0l3,1.6,1.5-3-6.7-5.7c-.7-.6-1.5-1-2.4-1.1-.7,1.5-2.5,2.5-4.7,2.5s-4-1-4.7-2.5c-.9.1-1.8.5-2.4,1.1l-6.7,5.7,1.5,3,3-1.6c.4-.2.9-.2,1.3,0,.4.2.6.7.6,1.1l-.8,16.3Z"/>
  <g>
    <path class="cls-1" d="M66.5,140.2c-2.6,0-4.7-2.1-4.7-4.7s2.1-4.7,4.7-4.7,4.7,2.1,4.7,4.7-2.1,4.7-4.7,4.7ZM66.5,133.4c-1.2,0-2.1,1-2.1,2.1s1,2.1,2.1,2.1,2.1-1,2.1-2.1-1-2.1-2.1-2.1Z"/>
    <path class="cls-1" d="M96.5,140.2c-2.6,0-4.7-2.1-4.7-4.7s2.1-4.7,4.7-4.7,4.7,2.1,4.7,4.7-2.1,4.7-4.7,4.7ZM96.5,133.4c-1.2,0-2.1,1-2.1,2.1s1,2.1,2.1,2.1,2.1-1,2.1-2.1-1-2.1-2.1-2.1Z"/>
    <path class="cls-1" d="M93.1,137h-23.3c-.7,0-1.3-.6-1.3-1.3s.6-1.3,1.3-1.3h23.3c.7,0,1.3.6,1.3,1.3s-.6,1.3-1.3,1.3Z"/>
    <path class="cls-1" d="M63.1,136.8c-.1,0-.3,0-.4,0l-4-1.4c-.5-.2-.9-.7-.9-1.2v-7.6c0-.5.3-1,.9-1.2l4.5-1.5,7.6-4.1c.2,0,.3-.1.5-.2,9.5-.5,14.1.2,14.3.2.2,0,.3,0,.5.2l7.4,4.5c10.2,1,12.8,2.6,13.2,2.9.3.2.5.6.5,1.1l-.2,6.4c0,.6-.4,1-.9,1.2-.1,0-2.7.7-6.1.7s-1.3-.6-1.3-1.3.6-1.3,1.3-1.3c2,0,3.6-.2,4.6-.4l.2-4.6c-1.1-.5-4.3-1.5-11.6-2.2-.2,0-.4,0-.5-.2l-7.4-4.5c-1-.1-5.4-.6-13.2-.2l-7.5,4c0,0-.1,0-.2,0l-3.7,1.3v5.8l3.1,1.1c.7.2,1,1,.8,1.6-.2.5-.7.9-1.2.9Z"/>
  </g>
  <g>
    <g>
      <circle class="cls-1" cx="180.2" cy="34.9" r="1.7"/>
      <path class="cls-1" d="M180.2,37.1c-.1,0-.3,0-.4,0-.6-.1-1.1-.4-1.4-.9-.3-.5-.4-1.1-.3-1.6.2-1.2,1.4-1.9,2.6-1.7.6.1,1.1.4,1.4.9.3.5.4,1.1.3,1.6-.2,1-1.1,1.7-2.1,1.7ZM180.2,33.6c-.6,0-1.2.4-1.3,1.1,0,.3,0,.7.2,1s.5.5.8.6c.4,0,.7,0,1-.2.3-.2.5-.5.6-.8,0-.3,0-.7-.2-1s-.5-.5-.8-.6c0,0-.2,0-.3,0Z"/>
    </g>
    <path class="cls-1" d="M179.2,59.3c-.9,0-1.9-.2-2.8-.6l-2.9-1.3c-.9-.4-2-.5-2.9-.2l-4.1,1.3c-.1,0-.3,0-.4,0-1.1,0-2.1-.6-2.6-1.5s-.6-2,0-3l2-3.8c2-3.7,3-7.9,3-12.1v-5.7s0,0,0,0c0-6.4,5.3-11.5,11.7-11.5s11.6,5.2,11.7,11.5c0,0,0,0,0,.1v5.7c0,4.2,1,8.4,3,12.1h0l2,3.8c.5,1,.5,2.1,0,3-.5.9-1.5,1.4-2.5,1.5l-3.9.6c-1.1.2-2.2,0-3.3-.3l-1.5-.5c-.9-.3-1.9-.3-2.9,0l-1.2.5c-.8.3-1.6.4-2.4.4ZM171.8,54.5c.9,0,1.9.2,2.8.6l2.9,1.3c1,.5,2.2.5,3.2,0l1.2-.5c1.5-.6,3.1-.6,4.6,0l1.5.5c.6.2,1.3.3,2,.2l4-.6c0,0,.1,0,.2,0,.2,0,.4-.1.4-.2,0,0,.1-.3,0-.5l-2-3.8c-2.2-4.1-3.3-8.7-3.3-13.3v-5.7s0,0,0,0c0-5-4.1-9.1-9.1-9.1s-9.1,4.1-9.1,9.1c0,0,0,0,0,0v5.7c0,4.6-1.1,9.2-3.3,13.3l-2,3.8c-.1.2,0,.4,0,.5,0,0,.1.2.3.2l3.8-1.2c.7-.2,1.3-.3,2-.3Z"/>
    <path class="cls-1" d="M180.2,40.8c-3.3,0-6.1-2.7-6.1-6.1s2.7-6.1,6.1-6.1,6.1,2.7,6.1,6.1-2.7,6.1-6.1,6.1ZM180.2,31.2c-1.9,0-3.5,1.6-3.5,3.5s1.6,3.5,3.5,3.5,3.5-1.6,3.5-3.5-1.6-3.5-3.5-3.5Z"/>
    <path class="cls-1" d="M173.1,26.2c-.3,0-.7-.1-.9-.4l-5.5-5.5c-.5-.5-.5-1.3,0-1.8s1.3-.5,1.8,0l5.5,5.5c.5.5.5,1.3,0,1.8-.2.2-.6.4-.9.4Z"/>
    <path class="cls-1" d="M187.9,26.2c-.3,0-.7-.1-.9-.4-.5-.5-.5-1.3,0-1.8l5.5-5.5c.5-.5,1.3-.5,1.8,0s.5,1.3,0,1.8l-5.5,5.5c-.2.2-.6.4-.9.4Z"/>
    <path class="cls-1" d="M186.5,46.3h-12.8c-.7,0-1.3-.6-1.3-1.3s.6-1.3,1.3-1.3h12.8c.7,0,1.3.6,1.3,1.3s-.6,1.3-1.3,1.3Z"/>
    <path class="cls-1" d="M193.3,45.2c-.9,0-1.8-.1-2.6-.4-.7-.2-1-.9-.8-1.6.2-.7.9-1,1.6-.8,1.8.6,3.6.3,4.9-.7,1.2-.9,1.8-2.2,1.8-3.6,0-.7.5-1.3,1.2-1.3.7,0,1.3.5,1.3,1.2,0,2.3-.9,4.4-2.8,5.8-1.3,1-3,1.5-4.6,1.5Z"/>
    <path class="cls-1" d="M199.5,39.3c-1.9,0-3.4-1.5-3.4-3.4s.6-1.3,1.3-1.3,1.3.6,1.3,1.3.4.8.8.8.8-.4.8-.8c0-.7.6-1.3,1.3-1.3s1.3.6,1.3,1.3c0,1.9-1.5,3.4-3.4,3.4Z"/>
    <path class="cls-1" d="M167.1,44.2c-1.7,0-3.3-.5-4.6-1.5-1.9-1.4-2.9-3.5-2.8-5.8,0-.7.6-1.2,1.3-1.2.7,0,1.3.6,1.2,1.3,0,1.4.6,2.7,1.8,3.6,1.4,1,3.2,1.3,4.9.7.7-.2,1.4.1,1.6.8.2.7-.1,1.4-.8,1.6-.9.3-1.8.4-2.6.4Z"/>
    <path class="cls-1" d="M160.9,38.3c-1.9,0-3.4-1.5-3.4-3.4s.6-1.3,1.3-1.3,1.3.6,1.3,1.3.4.8.8.8.8-.4.8-.8c0-.7.6-1.3,1.3-1.3s1.3.6,1.3,1.3c0,1.9-1.5,3.4-3.4,3.4Z"/>
    <g>
      <path class="cls-1" d="M173.7,45.9l1.3,2.4c.2.4.8.4,1,0l.9-2c0-.2,0-.4-.2-.4h-3"/>
      <path class="cls-1" d="M175.5,49c-.4,0-.7-.2-.9-.5l-1.7-3.1h3.7c.2,0,.4.1.6.3.1.2.1.4,0,.6l-.9,2c-.1.3-.5.6-.9.6,0,0,0,0,0,0h0ZM174.4,46.3l1,1.8c0,0,0,0,.1,0,0,0,0,0,.1,0l.8-1.8h-2Z"/>
    </g>
    <g>
      <path class="cls-1" d="M183.4,45.9l1.3,2.4c.2.4.8.4,1,0l.9-2c0-.2,0-.4-.2-.4h-3"/>
      <path class="cls-1" d="M185.2,49c-.4,0-.7-.2-.9-.5l-1.7-3.1h3.7c.2,0,.4.1.6.3.1.2.1.4,0,.6l-.9,2c-.1.3-.5.6-.9.6,0,0,0,0,0,0h0ZM184.1,46.3l1,1.8c0,0,0,0,.1,0,0,0,0,0,.1,0l.8-1.8h-2Z"/>
    </g>
  </g>
</svg>