<svg id="SP_Menu_Sm_N_D_2x" data-name="SP_Menu_Sm_N_D@2x" xmlns="http://www.w3.org/2000/svg" width="32" height="32" viewBox="0 0 32 32">
  <defs>
    <style>
      .fill {
        fill: #fff;
        fill-rule: evenodd;
        opacity: 0.65;
      }

      
    </style>
  </defs>
  <title>SP_Menu_Sm_N_D@2x</title>
  <path class="fill" d="M4,3V25a1,1,0,0,0,1,1H18V24H6V8H24v6.6l2,2V7a1,1,0,0,0-1-1H16V3a1,1,0,0,0-1-1H5A1,1,0,0,0,4,3Z"/>
  <path class="fill" d="M8,18.5v1a0.5,0.5,0,0,0,.5.5h9a0.5,0.5,0,0,0,.5-0.5v-1a0.5,0.5,0,0,0-.5-0.5h-9A0.5,0.5,0,0,0,8,18.5Zm0-4v1a0.5,0.5,0,0,0,.5.5h9a0.5,0.5,0,0,0,.5-0.5v-1a0.5,0.5,0,0,0-.5-0.5h-9A0.5,0.5,0,0,0,8,14.5Zm0-4v1a0.5,0.5,0,0,0,.5.5h9a0.5,0.5,0,0,0,.5-0.5v-1a0.5,0.5,0,0,0-.5-0.5h-9A0.5,0.5,0,0,0,8,10.5Z"/>
  <path id="PrefillD1" class="fill" d="M20,13.243V29.4a0.5,0.5,0,0,0,.889.314L24.5,25.243h4.9a0.5,0.5,0,0,0,.376-0.829Z"/>
  </svg>