<svg id="S_NeedingAE_17x15_N_D_2x" data-name="S_NeedingAE_17x15_N_D@2x" xmlns="http://www.w3.org/2000/svg" width="34" height="30" viewBox="0 0 34 30">
  <rect id="Rectangle_89" data-name="Rectangle 89" width="34" height="30" opacity="0.65"/>
  <path id="Path_84" data-name="Path 84" d="M33.924,26.988,27.6,14.384a.7.7,0,0,0-1.247,0l-6.281,12.6A.7.7,0,0,0,20.7,28H33.3a.7.7,0,0,0,.623-1.012ZM25.96,18.55a.144.144,0,0,1,.1-.147,3.053,3.053,0,0,1,.9-.144,3.609,3.609,0,0,1,.917.109c.089.033.117.093.117.128v.927a30.5,30.5,0,0,1-.435,4c0,.033-.019.068-.123.068h-.919a.115.115,0,0,1-.123-.068,37.1,37.1,0,0,1-.436-4Zm1.018,8.082a1.054,1.054,0,1,1,1.054-1.055,1.054,1.054,0,0,1-1.054,1.055Z" fill="#f53c3c"/>
  <path id="Path_86" data-name="Path 86" d="M26.519,23.492h.919c.1,0,.123-.035.123-.068a30.487,30.487,0,0,0,.435-4V18.5a.149.149,0,0,0-.117-.128,3.607,3.607,0,0,0-.917-.109,3.055,3.055,0,0,0-.9.144.144.144,0,0,0-.1.147v.872a37.113,37.113,0,0,0,.436,4C26.414,23.47,26.45,23.492,26.519,23.492Z" opacity="0.65"/>
  <circle id="Ellipse_1" data-name="Ellipse 1" cx="1.054" cy="1.054" r="1.054" transform="translate(25.925 24.524)" opacity="0.65"/>
  <path id="Path_87" data-name="Path 87" d="M18.282,26.1l.049-.1H4V4H28v8.226a2.678,2.678,0,0,1,1.387,1.261L30,14.708V2H2V28H18.1a2.685,2.685,0,0,1,.182-1.9Z" fill="#f53c3c"/>
  <g id="Decorative_icon" data-name="Decorative icon" transform="translate(5.508 6.224)">
    <g id="Placement_Area" data-name="Placement Area" transform="translate(0 0)" fill="#f63c3d" stroke="rgba(0,0,0,0)" stroke-width="1" opacity="0">
      <rect width="17.815" height="15.555" stroke="none"/>
      <rect x="0.5" y="0.5" width="16.815" height="14.555" fill="none"/>
    </g>
    <g id="Icon" transform="translate(0 0)">
      <g id="Canvas" transform="translate(0 0)" fill="#f63c3d" stroke="#6e6e6e" stroke-width="1" opacity="0">
        <rect width="17.815" height="15.555" stroke="none"/>
        <rect x="0.5" y="0.5" width="16.815" height="14.555" fill="none"/>
      </g>
      <path id="Path_5" data-name="Path 5" d="M16.693,5.079H15.1c-.1,0-.117.033-.175.1l-3.219,2.8V7.956L10.372,5.145c-.02-.05-.039-.066-.117-.066H5.835l.3-1.136C6.7,1.7,7.871,1.309,8.8,1.309a9.679,9.679,0,0,1,1.448.317c.067.019.112-.019.135-.1L10.675.41c.023-.058-.022-.115-.09-.154A8.732,8.732,0,0,0,8.826.041c-2.191,0-3.772,1.085-4.517,4l-.3,1.039H1.831a.12.12,0,0,0-.136.1v0L1.243,6.232l-.006.038a.183.183,0,0,1,.1.077H3.482c-.2.867-2.24,7.481-2.714,8.657-.045.1,0,.154.09.154.181-.019,1.223.058,1.765,0,.112-.019.158-.038.18-.135A89.99,89.99,0,0,0,5.4,6.347H7.713c.048,0,.984-.011,1.5-.053L10.57,8.67C9.383,9.811,7.9,11.4,6.676,12.571a.06.06,0,0,0-.027.07.072.072,0,0,0,.066.046h1.67c.1,0,2.359-2.346,3.06-3.124h.019s1.942,3.124,2.02,3.124h1.575c.078,0,.117-.05.078-.116-.428-.794-1.862-2.843-2.407-3.835C13.82,7.711,15.819,6.1,16.751,5.194,16.81,5.145,16.79,5.079,16.693,5.079Z" transform="translate(0.242 0.204)" fill="#f63c3d"/>
    </g>
  </g>
</svg>
