<svg id="S_Move_Sm_N_D_2x" data-name="S_Move_Sm_N_D@2x" xmlns="http://www.w3.org/2000/svg" width="32" height="32" viewBox="0 0 32 32">
  <defs>
    <style>
      .fill {
        fill: #fff;
        fill-rule: evenodd;
        opacity: 0.65;
      }

      
    </style>
  </defs>
  <title>S_Move_Sm_N_D@2x</title>
  <path class="fill" d="M24.768,11.187c-.424-.354-.768-.192-.768.36V15H17V8h3.459c.552,0,.713-.344.36-.768L16,2.108l-4.8,5.124C10.84,7.656,11,8,11.553,8H15v7H8V11.547c0-.552-.344-.713-.768-.36l-5.124,4.8,5.124,4.823c.424.354.768.192.768-.36V17h7v7H11.547c-.552,0-.713.344-.36.768l4.823,5.124,4.8-5.124c.354-.424.192-.768-.36-.768H17V17h7v3.453c0,.552.344.713.768.36l5.124-4.823Z"/>
  </svg>