<svg id="Layer_1" data-name="Layer 1" xmlns="http://www.w3.org/2000/svg" viewBox="0 0 90 90"><defs><style>.cls-1{fill:#b3b3b3;}</style></defs><title>Artboard 1</title><path class="cls-1" d="M56.1,78.65l-9.42,9.39a2.49883,2.49883,0,0,1-3.51,0l-9.42-9.38a1.50262,1.50262,0,0,1,2.12-2.13l7.55,7.52V62.78a1.5,1.5,0,0,1,3,0V84.06l7.56-7.53a1.49906,1.49906,0,0,1,2.12,2.12Z"/><path class="cls-1" d="M65.09668,69.77734H50.42578a1.5,1.5,0,0,1,0-3h14.6709a4.9242,4.9242,0,0,0,4.918-4.91894v-42.332a6.93858,6.93858,0,0,0-2.04492-4.9375L59.18555,5.8042a6.938,6.938,0,0,0-4.93848-2.04492H24.752a4.92378,4.92378,0,0,0-4.918,4.91845V61.8584a4.9242,4.9242,0,0,0,4.918,4.91894h14.6709a1.5,1.5,0,0,1,0,3H24.752a7.92748,7.92748,0,0,1-7.918-7.91894V8.67773A7.92706,7.92706,0,0,1,24.752.75928H54.24707a9.91747,9.91747,0,0,1,7.05957,2.92383l8.78418,8.78466a9.91527,9.91527,0,0,1,2.92383,7.0586v42.332A7.92748,7.92748,0,0,1,65.09668,69.77734Z"/><g id="circle_triangle_rectangle_graphics_sm" data-name="circle triangle rectangle graphics sm"><g id="circle_triangle_rectangle_graphics_sm-2" data-name="circle triangle rectangle graphics sm"><g id="circle_triangle_rectangle_graphics_lg" data-name="circle triangle rectangle graphics lg"><path class="cls-1" d="M46.83,33.22c.01-.01.02-.01.02,0v-.19A1.10662,1.10662,0,0,1,46.83,33.22Z"/><path class="cls-1" d="M61.15,25.57H46.85V18.94a1.61168,1.61168,0,0,0-1-1.5,1.63506,1.63506,0,0,0-1.77.35L26.88,35a1.61753,1.61753,0,0,0,1.14,2.77h6.15a9.75475,9.75475,0,0,0-1.12,4.58,9.927,9.927,0,0,0,19.84.52h8.26a1.003,1.003,0,0,0,1-1V26.57A1.00291,1.00291,0,0,0,61.15,25.57ZM28.93,35.77,44.85,19.85V32.6a9.93386,9.93386,0,0,0-9.3,3.17Zm14.05,14.5a7.92736,7.92736,0,0,1-7.93-7.92,7.82261,7.82261,0,0,1,1.74-4.95,7.92079,7.92079,0,0,1,14.09,4.44v.15c.01.12.02.23.02.36A7.92527,7.92527,0,0,1,42.98,50.27Zm17.17-9.4H52.77a9.80556,9.80556,0,0,0-5.92-7.65c0-.01-.01-.01-.02,0a1.10662,1.10662,0,0,0,.02-.19V27.57h13.3Z"/></g></g></g></svg>