<?xml version="1.0" encoding="UTF-8"?>
<svg id="icons" xmlns="http://www.w3.org/2000/svg" width="42" height="40" viewBox="0 0 42 40">
  <defs>
    <style>

      .fill{
        fill-rule: evenodd;
        fill: #000;
        opacity: .65;
      }
        

      .fillMedium {
        fill: #000;
        opacity: .3;
      }
    </style>
  </defs>
  <path class="fill" d="M14.54834,28c-.14404,0-.19189-.04785-.19189-.16797v-12.07324c-.69629.38379-1.84814.74414-2.52002.86426-.14404.02441-.19238,0-.19238-.14453v-2.04004c0-.12012.02393-.16797.14404-.19141,1.12842-.28809,2.42432-.84082,3.33643-1.44043.09619-.07227.24023-.0957.35986-.0957h1.65625c.09619,0,.12012.04785.12012.16797v14.95312c0,.12012-.04785.16797-.14404.16797h-2.56836Z"/>
  <path class="fill" d="M23.83643,15.35059c-.16797.67285-.50391,2.0166-.64795,2.61621,4.94434.52832,6.93652,2.35254,6.93652,5.28125,0,2.97559-2.32812,4.99219-5.88037,4.99219-1.56006,0-2.85596-.26465-3.84033-.74414-.0957-.04785-.14404-.12012-.14404-.28809v-2.35254c0-.12012.09619-.14355.16797-.0957,1.05615.55176,2.37646.93555,3.79248.93555,2.18408,0,2.97607-1.03125,2.97607-2.25586,0-1.91992-1.87207-2.83203-6.57617-3.21582-.12012,0-.21631-.02441-.21631-.16797v-1.17676c.14404-.62402,1.58398-5.78418,1.63232-5.9043.04785-.14355.07178-.16797.21582-.16797h7.27295c.11963,0,.16797.04785.11963.19238l-.62402,2.18359c-.02393.12012-.07178.16797-.21582.16797h-4.96875Z"/>
  <path class="fillMedium" d="M40,2v36H2V2h38ZM41,0H1C.44769,0,0,.44772,0,1v38c0,.55229.44769,1,1,1h40c.55231,0,1-.44771,1-1V1c0-.55228-.44769-1-1-1Z"/>
</svg>