<?xml version="1.0" encoding="UTF-8"?>
<svg id="icons" xmlns="http://www.w3.org/2000/svg" width="42" height="40" viewBox="0 0 42 40">
  <defs>
    <style>

      .fill{
        fill-rule: evenodd;
        fill: #000;
        opacity: .65;
      }
        

      .fillMedium {
        fill: #000;
        opacity: .3;
      }
    </style>
  </defs>
  <path class="fill" d="M12.80859,21.35156c-.12012,0-.16797-.04785-.16797-.16797v-2.18457c0-.14355.02393-.21582.14404-.21582h1.2002c1.75195,0,2.76025-.57617,2.76025-1.77637,0-1.12793-.88818-1.87207-2.7124-1.87207-1.24805,0-2.32812.28809-3.45654.91211-.14355.04785-.16797,0-.16797-.0957v-2.20801c0-.12012-.02393-.16797.12012-.24023,1.05615-.57617,2.47217-.93652,4.05664-.93652,3.09619,0,4.99219,1.63281,4.99219,4.05664,0,1.7041-1.17627,2.75977-2.18408,3.19238,1.24805.36035,2.9043,1.41602,2.9043,3.74414,0,3.02441-2.7124,4.68066-6.00049,4.68066-1.56055,0-2.9043-.21582-3.9844-.79199-.1201-.04785-.14402-.19238-.14402-.3125v-2.37598c0-.0957.12012-.14453.21582-.0957,1.32031.69531,2.47217,1.00781,3.81641,1.00781,2.23242,0,3.12012-.95996,3.12012-2.18457,0-1.41602-1.05615-2.13574-3.12012-2.13574h-1.39209Z"/>
  <path class="fill" d="M22.07227,28c-.16797,0-.16797-.07227-.16797-.19238v-1.60742c0-.14453,0-.2168.0957-.28809,1.03223-.79199,2.64062-1.99219,3.98438-3.26465,2.42432-2.20801,2.83252-3.60059,2.83252-4.82422,0-1.56055-.81641-2.64062-2.83252-2.64062-1.48779,0-2.49609.43262-3.52832.98438-.11963.07227-.19189.02441-.19189-.0957v-2.20898c0-.11914.02393-.19141.12012-.26367,1.22412-.64746,2.61621-1.03223,4.22412-1.03223,3.52832,0,5.16064,2.30469,5.16064,4.87305,0,1.7998-.64795,3.57617-2.71241,5.54395-1.24804,1.24805-2.13622,1.94434-2.97606,2.59277.91211-.07227,1.82422-.07227,3.52832-.07227h2.76025c.16797,0,.21582.04785.19189.16797l-.50391,2.16016c-.04785.12012-.09619.16797-.24023.16797h-9.74463Z"/>
  <path class="fillMedium" d="M40,2v36H2V2h38ZM41,0H1C.44769,0,0,.44772,0,1v38c0,.55229.44769,1,1,1h40c.55231,0,1-.44771,1-1V1c0-.55228-.44769-1-1-1Z"/>
</svg>