<?xml version="1.0" encoding="UTF-8"?>
<svg id="icons" xmlns="http://www.w3.org/2000/svg" width="42" height="40" viewBox="0 0 42 40">
  <defs>
    <style>

      .fill{
        fill-rule: evenodd;
        fill: #000;
        opacity: .65;
      }
        

      .fillMedium {
        fill: #000;
        opacity: .3;
      }
    </style>
  </defs>
  <path class="fill" d="M18.74854,21.35156c-.12012,0-.16797-.04834-.16797-.16797v-2.18457c0-.14404.02393-.21582.14404-.21582h1.2002c1.75195,0,2.76025-.57617,2.76025-1.77637,0-1.12793-.88818-1.87207-2.7124-1.87207-1.24805,0-2.32812.28809-3.45654.91211-.14404.04785-.16797,0-.16797-.0957v-2.2085c0-.12012-.02393-.16797.12012-.23975,1.05615-.57617,2.47217-.93604,4.05664-.93604,3.09619,0,4.99219,1.63184,4.99219,4.05615,0,1.7041-1.17627,2.76025-2.18408,3.19238,1.24805.35986,2.9043,1.41602,2.9043,3.74414,0,3.02441-2.7124,4.68066-6.00049,4.68066-1.56006,0-2.9043-.21631-3.98438-.79248-.12012-.04785-.14404-.19189-.14404-.31201v-2.37598c0-.09619.12012-.14404.21582-.09619,1.32031.69629,2.47217,1.0083,3.81641,1.0083,2.23242,0,3.12012-.95996,3.12012-2.18408,0-1.4165-1.05615-2.13623-3.12012-2.13623h-1.39209Z"/>
  <path class="fillMedium" d="M40,2v36H2V2h38ZM41,0H1C.44769,0,0,.44772,0,1v38c0,.55229.44769,1,1,1h40c.55231,0,1-.44771,1-1V1c0-.55228-.44769-1-1-1Z"/>
</svg>