<svg id="S_MulticamClipSequence_17x15_N_D_2x" data-name="S_MulticamClipSequence_17x15_N_D@2x" xmlns="http://www.w3.org/2000/svg" width="34" height="30" viewBox="0 0 34 30">
  <defs>
    <style>
      .background {
        opacity: 0.3;
      }

      .blue {
        fill: #2d8ceb;
      }

      
    </style>
  </defs>
  <title>S_MulticamClipSequence_17x15_N_D@2x</title>
  <path class="background" d="M0,0H34V30H0V0Z"/>
  <path class="blue" d="M14,18H6.25a0.447,0.447,0,0,0-.25.5v1a0.447,0.447,0,0,0,.25.5H14V18Z"/>
  <path class="blue" d="M27.5,18H20v2h7.5a0.5,0.5,0,0,0,.5-0.5v-1A0.5,0.5,0,0,0,27.5,18Z"/>
  <path class="blue" d="M14,14H6.25a0.447,0.447,0,0,0-.25.5v1a0.447,0.447,0,0,0,.25.5H14V14Z"/>
  <path class="blue" d="M27.5,14H20v2h7.5a0.5,0.5,0,0,0,.5-0.5v-1A0.5,0.5,0,0,0,27.5,14Z"/>
  <path class="blue" d="M27.5,22H20v2h7.5a0.5,0.5,0,0,0,.5-0.5v-1A0.5,0.5,0,0,0,27.5,22Z"/>
  <path class="blue" d="M14,22H6.333A0.443,0.443,0,0,0,6,22.5v1a0.443,0.443,0,0,0,.333.5H14V22Z"/>
  <path class="blue" d="M18,12a1.959,1.959,0,0,1,2-2V6.5A0.5,0.5,0,0,0,19.5,6h-5a0.5,0.5,0,0,0-.5.5V10a1.959,1.959,0,0,1,2,2V24h2V12Z"/>
  <path class="blue" d="M4,4H30V26H4V4ZM2,3V27a1,1,0,0,0,1,1H31a1,1,0,0,0,1-1V3a1,1,0,0,0-1-1H3A1,1,0,0,0,2,3Z"/>
  </svg>