<svg id="S_MultiCamSequence_Xl_N_D_2x" data-name="S_MultiCamSequence_Xl_N_D@2x" xmlns="http://www.w3.org/2000/svg" width="64" height="64" viewBox="0 0 64 64">
  <defs>
    <style>
      .cls-1, .cls-2 {
        fill: #729acc;
        opacity: 0.9;
      }

      .cls-2, .cls-3, .fill {
        fill-rule: evenodd;
      }

      .cls-3 {
        fill: #29d698;
      }

      .fill {
        fill: #fff;
        opacity: 0.65;
      }

      
    </style>
  </defs>
  <title>S_MultiCamSequence_Xl_N_D@2x</title>
  <path class="cls-1" d="M22,20H5a1,1,0,0,0-1,1v4a1,1,0,0,0,1,1H22V20Z"/>
  <path class="cls-1" d="M22,28H5a1,1,0,0,0-1,1v4a1,1,0,0,0,1,1H22V28Z"/>
  <path class="cls-2" d="M22,36H5a1,1,0,0,0-1,1v4a1,1,0,0,0,1,1H22V36Z"/>
  <path class="cls-2" d="M30,36v6H59a1,1,0,0,0,1-1V37a1,1,0,0,0-1-1H30Z"/>
  <path class="cls-1" d="M30,28v6H59a1,1,0,0,0,1-1V29a1,1,0,0,0-1-1H30Z"/>
  <path class="cls-3" d="M22,44H5a1,1,0,0,0-1,1v4a1,1,0,0,0,1,1H22V44Z"/>
  <path class="cls-3" d="M22,52H5a1,1,0,0,0-1,1v4a1,1,0,0,0,1,1H22V52Z"/>
  <path class="cls-3" d="M30,52v6H59a1,1,0,0,0,1-1V53a1,1,0,0,0-1-1H30Z"/>
  <path class="cls-3" d="M30,44v6H59a1,1,0,0,0,1-1V45a1,1,0,0,0-1-1H30Z"/>
  <path class="cls-1" d="M30,20v6H59a1,1,0,0,0,1-1V21a1,1,0,0,0-1-1H30Z"/>
  <path class="fill" d="M30,2H22a2,2,0,0,0-2,2v8s4,0,4,4V61a1,1,0,0,0,1,1h2a1,1,0,0,0,1-1V16c0-4,4-4,4-4V4A2,2,0,0,0,30,2ZM28,16H24V8h4v8Z"/>
  </svg>