<svg id="S_MultiCamSequence_48x48_N_D_2x" data-name="S_MultiCamSequence_48x48_N_D@2x" xmlns="http://www.w3.org/2000/svg" width="96" height="96" viewBox="0 0 96 96">
  <defs>
    <style>
      .cls-1, .cls-2 {
        fill: #729acc;
        opacity: 0.9;
      }

      .cls-2, .cls-3, .fill {
        fill-rule: evenodd;
      }

      .cls-3 {
        fill: #29d698;
      }

      .fill {
        fill: #fff;
        opacity: 0.65;
      }

      
    </style>
  </defs>
  <title>S_MultiCamSequence_48x48_N_D@2x</title>
  <path class="cls-1" d="M34,28H9.5A1.5,1.5,0,0,0,8,29.5v5A1.5,1.5,0,0,0,9.5,36H34V28Z"/>
  <path class="cls-1" d="M34,40H9.5A1.5,1.5,0,0,0,8,41.5v5A1.5,1.5,0,0,0,9.5,48H34V40Z"/>
  <path class="cls-2" d="M34,52H9.5A1.5,1.5,0,0,0,8,53.5v5A1.5,1.5,0,0,0,9.5,60H34V52Z"/>
  <path class="cls-2" d="M46,52v8H88.5A1.5,1.5,0,0,0,90,58.5v-5A1.5,1.5,0,0,0,88.5,52H46Z"/>
  <path class="cls-1" d="M46,40v8H88.5A1.5,1.5,0,0,0,90,46.5v-5A1.5,1.5,0,0,0,88.5,40H46Z"/>
  <path class="cls-3" d="M34,64H9.5A1.5,1.5,0,0,0,8,65.5v5A1.5,1.5,0,0,0,9.5,72H34V64Z"/>
  <path class="cls-3" d="M34,76H9.5A1.5,1.5,0,0,0,8,77.5v5A1.5,1.5,0,0,0,9.5,84H34V76Z"/>
  <path class="cls-3" d="M46,76v8H88.5A1.5,1.5,0,0,0,90,82.5v-5A1.5,1.5,0,0,0,88.5,76H46Z"/>
  <path class="cls-3" d="M46,64v8H88.5A1.5,1.5,0,0,0,90,70.5v-5A1.5,1.5,0,0,0,88.5,64H46Z"/>
  <path class="cls-1" d="M46,28v8H88.5A1.5,1.5,0,0,0,90,34.5v-5A1.5,1.5,0,0,0,88.5,28H46Z"/>
  <path class="fill" d="M45,2H35a3,3,0,0,0-3,3V17s6,0,6,6V90.5A1.5,1.5,0,0,0,39.5,92h1A1.5,1.5,0,0,0,42,90.5V23c0-6,6-6,6-6V5A3,3,0,0,0,45,2ZM42,23H38V11h4V23Z"/>
  </svg>