<svg xmlns="http://www.w3.org/2000/svg" data-name="S_MultiSelect_18_N@2x" height="36" id="S_Select_18_N_2x" viewBox="0 0 36 36" width="36">
  <defs>
    <style>
	.fill {
        fill: #fff;
        fill-rule: evenodd;
        opacity: 0.65;
      }</style>
  </defs>
  <title>S_MultiSelect_18_N@2x</title>
  <path class="fill" d="M27,18.1A8.9,8.9,0,1,0,35.9,27,8.9,8.9,0,0,0,27,18.1Zm5,9.4a.5.5,0,0,1-.5.5H28v3.5a.5.5,0,0,1-.5.5h-1a.5.5,0,0,1-.5-.5V28H22.5a.5.5,0,0,1-.5-.5v-1a.5.5,0,0,1,.5-.5H26V22.5a.5.5,0,0,1,.5-.5h1a.5.5,0,0,1,.5.5V26h3.5a.5.5,0,0,1,.5.5Z" />
  <path class="fill" d="M19.592,18.886,2.854,2.147A.49.49,0,0,0,2.5,2a.5.5,0,0,0-.5.5v27a.5.5,0,0,0,.5.5.49.49,0,0,0,.35-.147L10.5,22h6.71A11.021,11.021,0,0,1,19.592,18.886Z" />
  </svg>