<?xml version="1.0" encoding="UTF-8"?>
<svg id="icons" xmlns="http://www.w3.org/2000/svg" width="42" height="40" viewBox="0 0 42 40">
  <defs>
    <style>

      .fill{
        fill-rule: evenodd;
        fill: #000;
        opacity: .65;
      }
        

      .fillMedium {
        fill: #000;
        opacity: .3;
      }
    </style>
  </defs>
  <path class="fill" d="M12.24414,21.35156c-.12012,0-.16797-.04785-.16797-.16797v-2.18457c0-.14355.02393-.21582.14404-.21582h1.2002c1.75195,0,2.76025-.57617,2.76025-1.77637,0-1.12793-.88818-1.87207-2.7124-1.87207-1.24805,0-2.32812.28809-3.45654.91211-.14355.04785-.16797,0-.16797-.0957v-2.20801c0-.12012-.02393-.16797.12012-.24023,1.05615-.57617,2.47217-.93652,4.05664-.93652,3.09619,0,4.99219,1.63281,4.99219,4.05664,0,1.7041-1.17627,2.75977-2.18408,3.19238,1.24805.36035,2.9043,1.41602,2.9043,3.74414,0,3.02441-2.7124,4.68066-6.00049,4.68066-1.56055,0-2.9043-.21582-3.98438-.79199-.12012-.04785-.14404-.19238-.14404-.3125v-2.37598c0-.0957.12012-.14453.21582-.0957,1.32031.69531,2.47217,1.00781,3.81641,1.00781,2.23242,0,3.12012-.95996,3.12012-2.18457,0-1.41602-1.05615-2.13574-3.12012-2.13574h-1.39209Z"/>
  <path class="fill" d="M21.65234,20.36719c0-4.46387,1.99219-7.80078,5.59229-7.80078,4.4165,0,5.52051,4.15234,5.52051,7.80078,0,4.03223-1.46436,7.87305-5.49658,7.87305-3.96045,0-5.61621-3.48047-5.61621-7.87305ZM24.55615,20.29492c0,3.40918.88818,5.44922,2.7124,5.44922s2.61621-1.89648,2.61621-5.40039c0-3.64844-.91211-5.3291-2.68799-5.3291-1.53613,0-2.64062,1.6084-2.64062,5.28027Z"/>
  <path class="fillMedium" d="M40,2v36H2V2h38ZM41,0H1C.44769,0,0,.44772,0,1v38c0,.55229.44769,1,1,1h40c.55231,0,1-.44771,1-1V1c0-.55228-.44769-1-1-1Z"/>
</svg>