<?xml version="1.0" encoding="UTF-8"?>
<svg id="icons" xmlns="http://www.w3.org/2000/svg" width="42" height="40" viewBox="0 0 42 40">
  <defs>
    <style>

      .fill{
        fill-rule: evenodd;
        fill: #000;
        opacity: .65;
      }
        

      .fillMedium {
        fill: #000;
        opacity: .3;
      }
    </style>
  </defs>
  <path class="fill" d="M13.90039,28c-.14404,0-.19189-.04785-.19189-.16797v-12.07324c-.69629.38379-1.84814.74414-2.52002.86426-.14404.02441-.19238,0-.19238-.14453v-2.04004c0-.12012.02441-.16797.14404-.19141,1.12842-.28809,2.42432-.84082,3.33643-1.44043.09619-.07227.24023-.0957.35986-.0957h1.65625c.09619,0,.12012.04785.12012.16797v14.95312c0,.12012-.04785.16797-.14404.16797h-2.56836Z"/>
  <path class="fill" d="M29.5249,14.91895c0,.07227,0,.12012-.11963.14355-2.78418.36035-5.23242,1.68066-6.2168,3.88867.69629-.4082,1.65625-.76758,2.9043-.76758,2.66406,0,4.84863,1.77539,4.84863,4.84766,0,2.61621-1.89648,5.20898-5.56885,5.20898-3.67188,0-5.66406-2.76074-5.66406-6.2168,0-5.18457,4.34424-8.78516,9.7207-9.45703.0957,0,.0957.07227.0957.14453v2.20801ZM22.63672,21.2793c-.02441.14453-.04834.55176-.04834.81641,0,2.28027,1.12842,3.62402,2.88037,3.62402,1.58398,0,2.52002-1.05566,2.52002-2.56836,0-1.63184-1.05566-2.63965-2.78418-2.63965-1.05615,0-1.91992.31152-2.56787.76758Z"/>
  <path class="fillMedium" d="M40,2v36H2V2h38ZM41,0H1C.44769,0,0,.44772,0,1v38c0,.55229.44769,1,1,1h40c.55231,0,1-.44771,1-1V1c0-.55228-.44769-1-1-1Z"/>
</svg>