<svg id="S_MultiCamSequence_Sm_N_D_2x" data-name="S_MultiCamSequence_Sm_N_D@2x" xmlns="http://www.w3.org/2000/svg" width="32" height="32" viewBox="0 0 32 32">
  <defs>
    <style>
      .cls-1, .cls-2 {
        fill: #729acc;
        opacity: 0.9;
      }

      .cls-2, .cls-3, .fill {
        fill-rule: evenodd;
      }

      .cls-3 {
        fill: #29d698;
      }

      .fill {
        fill: #fff;
        opacity: 0.65;
      }

      
    </style>
  </defs>
  <title>S_MultiCamSequence_Sm_N_D@2x</title>
  <path class="cls-1" d="M10,10H2.5a0.5,0.5,0,0,0-.5.5v1a0.5,0.5,0,0,0,.5.5H10V10Z"/>
  <path class="cls-1" d="M10,14H2.5a0.5,0.5,0,0,0-.5.5v1a0.5,0.5,0,0,0,.5.5H10V14Z"/>
  <path class="cls-2" d="M10,18H2.5a0.5,0.5,0,0,0-.5.5v1a0.5,0.5,0,0,0,.5.5H10V18Z"/>
  <path class="cls-2" d="M16,18v2H29.5a0.5,0.5,0,0,0,.5-0.5v-1a0.5,0.5,0,0,0-.5-0.5H16Z"/>
  <path class="cls-1" d="M16,14v2H29.5a0.5,0.5,0,0,0,.5-0.5v-1a0.5,0.5,0,0,0-.5-0.5H16Z"/>
  <path class="cls-3" d="M10,22H2.5a0.5,0.5,0,0,0-.5.5v1a0.5,0.5,0,0,0,.5.5H10V22Z"/>
  <path class="cls-3" d="M10,26H2.5a0.5,0.5,0,0,0-.5.5v1a0.5,0.5,0,0,0,.5.5H10V26Z"/>
  <path class="cls-3" d="M16,26v2H29.5a0.5,0.5,0,0,0,.5-0.5v-1a0.5,0.5,0,0,0-.5-0.5H16Z"/>
  <path class="cls-3" d="M16,22v2H29.5a0.5,0.5,0,0,0,.5-0.5v-1a0.5,0.5,0,0,0-.5-0.5H16Z"/>
  <path class="cls-1" d="M16,10v2H29.5a0.5,0.5,0,0,0,.5-0.5v-1a0.5,0.5,0,0,0-.5-0.5H16Z"/>
  <path class="fill" d="M15,0H11a1,1,0,0,0-1,1V5a1.959,1.959,0,0,1,2,2V29.5a0.5,0.5,0,0,0,.5.5h1a0.5,0.5,0,0,0,.5-0.5V7a1.959,1.959,0,0,1,2-2V1A1,1,0,0,0,15,0ZM14,7H12V3h2V7Z"/>
  </svg>