<svg xmlns="http://www.w3.org/2000/svg" data-name="S_Multiple_18_N@2x" height="36" id="S_Multiple_18_N_2x" viewBox="0 0 36 36" width="36">
  <defs>
    <style>
	.fill {
        fill: #707070;
      }</style>
  </defs>
  <title>S_Multiple_18_N@2x</title>
  <path class="fill" d="M31,4H21a1,1,0,0,0-1,1v5h4a2,2,0,0,1,2,2v4h5a1,1,0,0,0,1-1V5A1,1,0,0,0,31,4Z" />
  <rect class="fill" height="12" rx="1" ry="1" width="12" x="4" y="20" />
  <path class="fill" d="M23,12H13a1,1,0,0,0-1,1v5h4a2,2,0,0,1,2,2v4h5a1,1,0,0,0,1-1V13A1,1,0,0,0,23,12Z" />
  </svg>