<?xml version="1.0" encoding="UTF-8"?>
<svg id="icons" xmlns="http://www.w3.org/2000/svg" width="42" height="40" viewBox="0 0 42 40">
  <defs>
    <style>

      .fill{
        fill-rule: evenodd;
        fill: #000;
        opacity: .65;
      }
        

      .fillMedium {
        fill: #000;
        opacity: .3;
      }
    </style>
  </defs>
  <path class="fill" d="M20.44043,28c-.14404,0-.19189-.04785-.19189-.16797v-12.07324c-.69629.38428-1.84814.74414-2.52002.86426-.14404.02393-.19238,0-.19238-.14404v-2.04004c0-.12012.02441-.16797.14404-.19238,1.12842-.2876,2.42432-.83984,3.33643-1.43994.09619-.07178.24023-.09619.35986-.09619h1.65625c.09619,0,.12012.04834.12012.16846v14.95312c0,.12012-.04785.16797-.14404.16797h-2.56836Z"/>
  <path class="fillMedium" d="M40,2v36H2V2h38ZM41,0H1C.44769,0,0,.44772,0,1v38c0,.55229.44769,1,1,1h40c.55231,0,1-.44771,1-1V1c0-.55228-.44769-1-1-1Z"/>
</svg>