<?xml version="1.0" encoding="UTF-8"?>
<svg id="icons" xmlns="http://www.w3.org/2000/svg" width="42" height="40" viewBox="0 0 42 40">
  <defs>
    <style>

      .fill{
        fill-rule: evenodd;
        fill: #000;
        opacity: .65;
      }
        

      .fillMedium {
        fill: #000;
        opacity: .3;
      }
    </style>
  </defs>
  <path class="fill" d="M26.28516,12.80664c.09619,0,.14404.02393.14404.14404v1.65625c0,.07178-.02393.19189-.07227.31201-1.2959,3.02441-4.24805,9.36035-5.95215,12.9375-.04834.0957-.09619.14355-.21631.14355h-2.76025c-.0957,0-.14404-.04785-.0957-.16797,3.43213-6.96094,5.35205-10.96875,6.07227-12.45703h-7.44043c-.09619,0-.14404-.04785-.12012-.16797l.35986-2.25635c.02393-.12012.04834-.14404.16797-.14404h9.91309Z"/>
  <path class="fillMedium" d="M40,2v36H2V2h38ZM41,0H1C.44769,0,0,.44772,0,1v38c0,.55229.44769,1,1,1h40c.55231,0,1-.44771,1-1V1c0-.55228-.44769-1-1-1Z"/>
</svg>