<svg id="S_MultiCamMode_Wi_N_D_2x" data-name="S_MultiCamMode_Wi_N_D@2x" xmlns="http://www.w3.org/2000/svg" width="40" height="26" viewBox="0 0 40 26">
  <defs>
    <style>
      .fill {
        fill: #fff;
        fill-rule: evenodd;
        opacity: 0.65;
      }

      
    </style>
  </defs>
  <title>S_MultiCamMode_Wi_N_D@2x</title>
  <path id="Fill" class="fill" d="M4,16H8v4H4V16Zm6,0h4v4H10V16ZM2,14v7a1,1,0,0,0,1,1H15a1,1,0,0,0,1-1V14H2ZM4,6H8v4H4V6Zm6,0h4v4H10V6ZM2,5v7H16V5a1,1,0,0,0-1-1H3A1,1,0,0,0,2,5ZM20,6H36V20H20V6ZM18,5V21a1,1,0,0,0,1,1H37a1,1,0,0,0,1-1V5a1,1,0,0,0-1-1H19A1,1,0,0,0,18,5Z"/>
  </svg>