<?xml version="1.0" encoding="UTF-8"?>
<svg id="icons" xmlns="http://www.w3.org/2000/svg" width="42" height="40" viewBox="0 0 42 40">
  <defs>
    <style>

      .fill{
        fill-rule: evenodd;
        fill: #000;
        opacity: .65;
      }
        

      .fillMedium {
        fill: #000;
        opacity: .3;
      }
    </style>
  </defs>
  <path class="fill" d="M16.04834,28c-.16797,0-.16797-.07178-.16797-.19189v-1.6084c0-.14404,0-.21582.0957-.28809,1.03223-.79199,2.64062-1.99219,3.98438-3.26416,2.42432-2.20801,2.83252-3.6001,2.83252-4.82422,0-1.56006-.81641-2.64014-2.83252-2.64014-1.48779,0-2.49609.43164-3.52832.98389-.11965.07178-.19189.02393-.19189-.09619v-2.20801c0-.12012.02393-.19189.12012-.26416,1.22412-.64795,2.61621-1.03174,4.22412-1.03174,3.52832,0,5.16064,2.3042,5.16064,4.87207,0,1.80029-.64795,3.57666-2.7124,5.54443-1.24805,1.24805-2.13623,1.94434-2.97609,2.59229.91212-.07178,1.82423-.07178,3.52833-.07178h2.76025c.16797,0,.21582.04785.19189.16797l-.50391,2.16016c-.04785.12012-.09619.16797-.24023.16797h-9.74463Z"/>
  <path class="fillMedium" d="M40,2v36H2V2h38ZM41,0H1C.44769,0,0,.44772,0,1v38c0,.55229.44769,1,1,1h40c.55231,0,1-.44771,1-1V1c0-.55228-.44769-1-1-1Z"/>
</svg>