<?xml version="1.0" encoding="UTF-8"?>
<svg id="icons" xmlns="http://www.w3.org/2000/svg" width="42" height="40" viewBox="0 0 42 40">
  <defs>
    <style>

      .fill{
        fill-rule: evenodd;
        fill: #000;
        opacity: .65;
      }
        

      .fillMedium {
        fill: #000;
        opacity: .3;
      }
    </style>
  </defs>
  <path class="fill" d="M13.87646,28c-.14404,0-.19189-.04785-.19189-.16797v-12.07324c-.69629.38379-1.84814.74414-2.52002.86426-.14404.02441-.19238,0-.19238-.14453v-2.04004c0-.12012.02393-.16797.14404-.19141,1.12842-.28809,2.42432-.84082,3.33643-1.44043.09619-.07227.24023-.0957.35984-.0957h1.65627c.09619,0,.12012.04785.12012.16797v14.95312c0,.12012-.04785.16797-.14404.16797h-2.56836Z"/>
  <path class="fill" d="M19.75635,20.36719c0-4.46387,1.99219-7.80078,5.59229-7.80078,4.4165,0,5.52051,4.15234,5.52051,7.80078,0,4.03223-1.46436,7.87305-5.49658,7.87305-3.96045,0-5.61621-3.48047-5.61621-7.87305ZM22.66016,20.29492c0,3.40918.88818,5.44922,2.7124,5.44922s2.61621-1.89648,2.61621-5.40039c0-3.64844-.91211-5.3291-2.68799-5.3291-1.53613,0-2.64062,1.6084-2.64062,5.28027Z"/>
  <path class="fillMedium" d="M40,2v36H2V2h38ZM41,0H1C.44769,0,0,.44772,0,1v38c0,.55229.44769,1,1,1h40c.55231,0,1-.44771,1-1V1c0-.55228-.44769-1-1-1Z"/>
</svg>