<?xml version="1.0" encoding="UTF-8"?>
<svg id="icons" xmlns="http://www.w3.org/2000/svg" width="42" height="40" viewBox="0 0 42 40">
  <defs>
    <style>

      .fill{
        fill-rule: evenodd;
        fill: #000;
        opacity: .65;
      }
        

      .fillMedium {
        fill: #000;
        opacity: .3;
      }
    </style>
  </defs>
  <path class="fill" d="M14.06836,28c-.14404,0-.19189-.04785-.19189-.16797v-12.07324c-.69629.38379-1.84814.74414-2.52002.86426-.14404.02441-.19238,0-.19238-.14453v-2.04004c0-.12012.02441-.16797.14404-.19141,1.12842-.28809,2.42432-.84082,3.33643-1.44043.09619-.07227.24023-.0957.35986-.0957h1.65625c.09619,0,.12012.04785.12012.16797v14.95312c0,.12012-.04785.16797-.14404.16797h-2.56836Z"/>
  <path class="fill" d="M19.75586,24.37598c-.14404,0-.19189-.04785-.19189-.14453v-1.87207c0-.14355.02393-.21582.12012-.33594l6.09668-9.07227c.0957-.12012.16797-.14453.33594-.14453h3c.12012,0,.19189.04785.19189.16797v9.04883h1.82422c.14404,0,.16797.07227.14404.16797l-.31201,2.06445c-.02393.07227-.07178.12012-.19189.12012h-1.46436v3.43164c0,.14453-.07178.19238-.16797.19238h-2.3999c-.12012,0-.19189-.07227-.19189-.19238v-3.43164h-6.79297ZM26.54883,19.8877c0-2.08887.0957-3.60059.14355-4.44043h-.02393c-.6001,1.2002-3.4082,5.49609-4.12842,6.57617h4.00879v-2.13574Z"/>
  <path class="fillMedium" d="M40,2v36H2V2h38ZM41,0H1C.44769,0,0,.44772,0,1v38c0,.55229.44769,1,1,1h40c.55231,0,1-.44771,1-1V1c0-.55228-.44769-1-1-1Z"/>
</svg>