<?xml version="1.0" encoding="UTF-8"?>
<svg id="icons" xmlns="http://www.w3.org/2000/svg" width="42" height="40" viewBox="0 0 42 40">
  <defs>
    <style>

      .fill{
        fill-rule: evenodd;
        fill: #000;
        opacity: .65;
      }
        

      .fillMedium {
        fill: #000;
        opacity: .3;
      }
    </style>
  </defs>
  <path class="fill" d="M15.68799,24.37549c-.14404,0-.19189-.04785-.19189-.14404v-1.87207c0-.14404.02393-.21582.12012-.33594l6.09668-9.07275c.0957-.12012.16797-.14404.33594-.14404h3c.12012,0,.19238.04785.19238.16797v9.04883h1.82373c.14404,0,.16797.07227.14404.16797l-.31201,2.06445c-.02393.07178-.07178.11963-.19189.11963h-1.46387v3.43262c0,.14404-.07227.19189-.16846.19189h-2.3999c-.12012,0-.19189-.07178-.19189-.19189v-3.43262h-6.79297ZM22.48096,19.88721c0-2.08789.0957-3.6001.14355-4.44043h-.02393c-.6001,1.2002-3.4082,5.49658-4.12842,6.57666h4.00879v-2.13623Z"/>
  <path class="fillMedium" d="M40,2v36H2V2h38ZM41,0H1C.44769,0,0,.44772,0,1v38c0,.55229.44769,1,1,1h40c.55231,0,1-.44771,1-1V1c0-.55228-.44769-1-1-1Z"/>
</svg>