<?xml version="1.0" encoding="UTF-8"?>
<svg id="icons" xmlns="http://www.w3.org/2000/svg" width="42" height="40" viewBox="0 0 42 40">
  <defs>
    <style>

      .fill{
        fill-rule: evenodd;
        fill: #000;
        opacity: .65;
      }
        

      .fillMedium {
        fill: #000;
        opacity: .3;
      }
    </style>
  </defs>
  <path class="fill" d="M14.04443,28c-.14404,0-.19189-.04785-.19189-.16797v-12.07324c-.69629.38379-1.84814.74414-2.52002.86426-.14404.02441-.19238,0-.19238-.14453v-2.04004c0-.12012.02393-.16797.14404-.19141,1.12842-.28809,2.42432-.84082,3.33643-1.44043.09619-.07227.24023-.0957.35986-.0957h1.65625c.09619,0,.12012.04785.12012.16797v14.95312c0,.12012-.04785.16797-.14404.16797h-2.56836Z"/>
  <path class="fill" d="M21.24463,25.8877c0-.12012.02393-.12012.16797-.16797,2.85596-.55176,4.82422-1.96777,5.7124-3.62402-.83984.38379-1.7041.52734-2.52002.52734-2.73633,0-5.04053-1.77539-5.04053-4.82422,0-2.83203,2.16016-5.23242,5.56836-5.23242,3.19238,0,5.52051,2.40039,5.52051,6.28906,0,5.28027-4.10449,8.78418-9.19287,9.38477-.14404.02344-.19189-.04785-.19189-.16797l-.02393-2.18457ZM27.70117,19.71973c0-.16895.04785-.57617.04785-.86426,0-2.35254-1.00781-3.84082-2.76025-3.84082-1.56006,0-2.47217,1.2002-2.47217,2.66406,0,1.82422,1.22412,2.61621,2.88037,2.61621.95996,0,1.68018-.19141,2.3042-.5752Z"/>
  <path class="fillMedium" d="M40,2v36H2V2h38ZM41,0H1C.44769,0,0,.44772,0,1v38c0,.55229.44769,1,1,1h40c.55231,0,1-.44771,1-1V1c0-.55228-.44769-1-1-1Z"/>
</svg>