<?xml version="1.0" encoding="UTF-8"?>
<svg id="icons" xmlns="http://www.w3.org/2000/svg" width="42" height="40" viewBox="0 0 42 40">
  <defs>
    <style>

      .fill{
        fill-rule: evenodd;
        fill: #000;
        opacity: .65;
      }
        

      .fillMedium {
        fill: #000;
        opacity: .3;
      }
    </style>
  </defs>
  <path class="fill" d="M9.64014,28c-.16797,0-.16797-.07227-.16797-.19238v-1.60742c0-.14453,0-.2168.0957-.28809,1.03223-.79199,2.64062-1.99219,3.98438-3.26465,2.42432-2.20801,2.83252-3.60059,2.83252-4.82422,0-1.56055-.81641-2.64062-2.83252-2.64062-1.48779,0-2.49609.43262-3.52832.98438-.11963.07227-.19189.02441-.19189-.0957v-2.20898c0-.11914.02393-.19141.12012-.26367,1.22412-.64746,2.61621-1.03223,4.22412-1.03223,3.52832,0,5.16064,2.30469,5.16064,4.87305,0,1.7998-.64795,3.57617-2.7124,5.54395-1.24805,1.24805-2.13623,1.94434-2.97607,2.59277.91211-.07227,1.82422-.07227,3.52832-.07227h2.76025c.16797,0,.21582.04785.19189.16797l-.50391,2.16016c-.04785.12012-.09619.16797-.24023.16797h-9.74463Z"/>
  <path class="fill" d="M23.12842,25.8877c0-.12012.02393-.12012.16797-.16797,2.85596-.55176,4.82422-1.96777,5.7124-3.62402-.83984.38379-1.7041.52734-2.52002.52734-2.73633,0-5.04053-1.77539-5.04053-4.82422,0-2.83203,2.16016-5.23242,5.56836-5.23242,3.19238,0,5.52051,2.40039,5.52051,6.28906,0,5.28027-4.10449,8.78418-9.19287,9.38477-.14404.02344-.19189-.04785-.19189-.16797l-.02393-2.18457ZM29.58496,19.71973c0-.16895.04785-.57617.04785-.86426,0-2.35254-1.00781-3.84082-2.76025-3.84082-1.56008,0-2.47217,1.2002-2.47217,2.66406,0,1.82422,1.22412,2.61621,2.88037,2.61621.95996,0,1.68018-.19141,2.3042-.5752Z"/>
  <path class="fillMedium" d="M40,2v36H2V2h38ZM41,0H1C.44769,0,0,.44772,0,1v38c0,.55229.44769,1,1,1h40c.55231,0,1-.44771,1-1V1c0-.55228-.44769-1-1-1Z"/>
</svg>