
<svg width="75" height="75" viewBox="0 0 75 75" fill="none" xmlns="http://www.w3.org/2000/svg">
<path class="fill" d="M68.5288 22.6562H24.6689C24.022 22.6562 23.4971 22.1313 23.4971 21.4844C23.4971 20.8374 24.022 20.3125 24.6689 20.3125H68.5288C69.1758 20.3125 69.7007 20.8374 69.7007 21.4844C69.7007 22.1313 69.1758 22.6562 68.5288 22.6562Z"/>
<path class="fill" d="M13.8796 22.6562H4.65869C4.01172 22.6562 3.48682 22.1313 3.48682 21.4844C3.48682 20.8374 4.01172 20.3125 4.65869 20.3125H13.8796C14.5266 20.3125 15.0515 20.8374 15.0515 21.4844C15.0515 22.1313 14.5265 22.6562 13.8796 22.6562Z"/>
<path class="fill" d="M13.8796 44.5312H4.65869C4.01172 44.5312 3.48682 44.0063 3.48682 43.3594C3.48682 42.7124 4.01172 42.1875 4.65869 42.1875H13.8796C14.5266 42.1875 15.0515 42.7124 15.0515 43.3594C15.0515 44.0063 14.5265 44.5312 13.8796 44.5312Z"/>
<path class="fill" d="M68.5288 44.5312H24.6689C24.022 44.5312 23.4971 44.0063 23.4971 43.3594C23.4971 42.7124 24.022 42.1875 24.6689 42.1875H68.5288C69.1758 42.1875 69.7007 42.7124 69.7007 43.3594C69.7007 44.0063 69.1758 44.5312 68.5288 44.5312Z"/>
<path class="fill" d="M13.8796 66.4062H4.65869C4.01172 66.4062 3.48682 65.8813 3.48682 65.2344C3.48682 64.5874 4.01172 64.0625 4.65869 64.0625H13.8796C14.5266 64.0625 15.0515 64.5874 15.0515 65.2344C15.0515 65.8813 14.5265 66.4062 13.8796 66.4062Z"/>
<path class="fill" d="M68.5288 66.4062H24.6689C24.022 66.4062 23.4971 65.8813 23.4971 65.2344C23.4971 64.5874 24.022 64.0625 24.6689 64.0625H68.5288C69.1758 64.0625 69.7007 64.5874 69.7007 65.2344C69.7007 65.8813 69.1758 66.4062 68.5288 66.4062Z"/>
<path class="fill" d="M41.9556 38.3152H41.9282C38.3881 38.3091 36.0093 35.941 36.0093 32.4223C36.0093 30.7438 36.6074 29.2286 37.6954 28.1559C38.7803 27.0848 40.2863 26.4882 41.9465 26.5293C42.775 26.54 43.4907 26.6621 44.2002 26.9139C44.8105 27.1305 45.131 27.7989 44.9143 28.4092C44.6976 29.0196 44.0247 29.3385 43.4189 29.1233C42.9444 28.9555 42.4958 28.8807 41.9159 28.8731C40.831 28.8975 39.9766 29.1966 39.3418 29.8237C38.6948 30.4615 38.353 31.3603 38.353 32.4223C38.353 34.6745 39.6577 35.9684 41.9327 35.9715C42.4805 35.9379 42.8651 35.9318 43.5151 35.7777C44.1331 35.6419 44.7755 36.0188 44.925 36.6505C45.073 37.2807 44.6824 37.9109 44.0522 38.0604C43.335 38.2282 42.8101 38.3152 41.9556 38.3152Z"/>
<path class="fill" d="M51.8189 38.3152H51.7914C48.2514 38.3091 45.8726 35.941 45.8726 32.4223C45.8726 30.7438 46.4707 29.2286 47.5587 28.1559C48.6436 27.0848 50.1923 26.4882 51.8097 26.5293C52.6383 26.54 53.3539 26.6621 54.0635 26.9139C54.6738 27.1305 54.9942 27.7989 54.7776 28.4092C54.5609 29.0196 53.8865 29.3385 53.2822 29.1233C52.8077 28.9555 52.3591 28.8807 51.7792 28.8731C50.7096 28.8975 49.8398 29.1966 49.2051 29.8237C48.5581 30.4615 48.2163 31.3603 48.2163 32.4223C48.2163 34.6745 49.5209 35.9684 51.796 35.9715C52.3438 35.9379 52.7283 35.9318 53.3784 35.7777C53.9948 35.6419 54.6387 36.0188 54.7883 36.6505C54.9363 37.2807 54.5457 37.9109 53.9155 38.0604C53.1983 38.2282 52.6734 38.3152 51.8189 38.3152Z"/>
<path class="fill" d="M41.9556 60.1896H41.9282C38.3881 60.1835 36.0093 57.8153 36.0093 54.2967C36.0093 52.6182 36.6074 51.103 37.6954 50.0303C38.7803 48.9591 40.2863 48.3701 41.9465 48.4037C42.775 48.4144 43.4907 48.5365 44.2002 48.7882C44.8105 49.0049 45.131 49.6732 44.9143 50.2836C44.6976 50.8939 44.0247 51.2144 43.4189 50.9977C42.9444 50.8298 42.4958 50.7551 41.9159 50.7474C40.831 50.778 39.9766 51.0709 39.3418 51.6981C38.6948 52.3359 38.353 53.2346 38.353 54.2966C38.353 56.5488 39.6577 57.8428 41.9327 57.8458C42.4805 57.8123 42.8651 57.8062 43.5151 57.652C44.1331 57.5162 44.7755 57.8931 44.925 58.5248C45.073 59.155 44.6824 59.7852 44.0522 59.9347C43.335 60.1026 42.8101 60.1896 41.9556 60.1896Z"/>
<path class="fill" d="M51.8189 60.1896H51.7914C48.2514 60.1835 45.8726 57.8153 45.8726 54.2967C45.8726 52.6182 46.4707 51.103 47.5587 50.0303C48.6436 48.9591 50.1923 48.3701 51.8097 48.4037C52.6383 48.4144 53.3539 48.5365 54.0635 48.7882C54.6738 49.0049 54.9942 49.6732 54.7776 50.2836C54.5609 50.8939 53.8865 51.2144 53.2822 50.9977C52.8077 50.8298 52.3591 50.7551 51.7792 50.7474C50.7096 50.778 49.8398 51.0709 49.2051 51.6981C48.5581 52.3359 48.2163 53.2346 48.2163 54.2966C48.2163 56.5488 49.5209 57.8428 51.796 57.8458C52.3438 57.8123 52.7283 57.8062 53.3784 57.652C53.9948 57.5162 54.6387 57.8931 54.7883 58.5248C54.9363 59.155 54.5457 59.7852 53.9155 59.9347C53.1983 60.1026 52.6734 60.1896 51.8189 60.1896Z"/>
<path class="fill" d="M23.8281 3.125H14.4531C13.8062 3.125 13.2812 3.64991 13.2812 4.29688V10.4446C13.2812 10.7071 13.3697 10.9634 13.533 11.1694L16.6916 15.1779C16.9128 15.4602 17.2531 15.625 17.6117 15.625H17.9688V70.7031C17.9688 71.3501 18.4937 71.875 19.1406 71.875C19.7876 71.875 20.3125 71.3501 20.3125 70.7031V15.625H20.6696C21.0251 15.625 21.3608 15.4648 21.582 15.1871L24.7406 11.261C24.9084 11.0535 25 10.7941 25 10.527V4.29688C25 3.64991 24.4751 3.125 23.8281 3.125ZM22.6562 10.1135L20.108 13.2812H18.1808L15.625 10.0387V5.46875H22.6562V10.1135Z"/>
</svg>
