<?xml version="1.0" encoding="UTF-8"?>
<svg id="icons" xmlns="http://www.w3.org/2000/svg" width="42" height="40" viewBox="0 0 42 40">
  <defs>
    <style>

      .fill{
        fill-rule: evenodd;
        fill: #000;
        opacity: .65;
      }
        

      .fillMedium {
        fill: #000;
        opacity: .3;
      }
    </style>
  </defs>
  <path class="fill" d="M9.97656,28c-.16797,0-.16797-.07227-.16797-.19238v-1.60742c0-.14453,0-.2168.0957-.28809,1.03223-.79199,2.64062-1.99219,3.98438-3.26465,2.42432-2.20801,2.83252-3.60059,2.83252-4.82422,0-1.56055-.81641-2.64062-2.83252-2.64062-1.48779,0-2.49609.43262-3.52832.98438-.11963.07227-.19189.02441-.19189-.0957v-2.20898c0-.11914.02393-.19141.12012-.26367,1.22412-.64746,2.61621-1.03223,4.22412-1.03223,3.52832,0,5.16064,2.30469,5.16064,4.87305,0,1.7998-.64795,3.57617-2.7124,5.54395-1.24805,1.24805-2.13623,1.94434-2.97607,2.59277.91211-.07227,1.82422-.07227,3.52832-.07227h2.76025c.16797,0,.21582.04785.19189.16797l-.50391,2.16016c-.04785.12012-.09619.16797-.24023.16797h-9.74463Z"/>
  <path class="fill" d="M25.88818,15.35059c-.16797.67285-.50391,2.0166-.64795,2.61621,4.94434.52832,6.93652,2.35254,6.93652,5.28125,0,2.97559-2.32812,4.99219-5.88037,4.99219-1.56006,0-2.85596-.26465-3.84033-.74414-.0957-.04785-.14404-.12012-.14404-.28809v-2.35254c0-.12012.09619-.14355.16797-.0957,1.05615.55176,2.37646.93555,3.79248.93555,2.18408,0,2.97607-1.03125,2.97607-2.25586,0-1.91992-1.87207-2.83203-6.57617-3.21582-.12012,0-.21631-.02441-.21631-.16797v-1.17676c.14404-.62402,1.58398-5.78418,1.63232-5.9043.04785-.14355.07178-.16797.21582-.16797h7.27295c.11963,0,.16797.04785.11963.19238l-.62402,2.18359c-.02393.12012-.07178.16797-.21582.16797h-4.96875Z"/>
  <path class="fillMedium" d="M40,2v36H2V2h38ZM41,0H1C.44769,0,0,.44772,0,1v38c0,.55229.44769,1,1,1h40c.55231,0,1-.44771,1-1V1c0-.55228-.44769-1-1-1Z"/>
</svg>