<svg id="S_MultiCamSequence_64x64_N_D_2x" data-name="S_MultiCamSequence_64x64_N_D@2x" xmlns="http://www.w3.org/2000/svg" width="128" height="128" viewBox="0 0 128 128">
  <defs>
    <style>
      .cls-1, .cls-2 {
        fill: #729acc;
        opacity: 0.9;
      }

      .cls-2, .cls-3, .fill {
        fill-rule: evenodd;
      }

      .cls-3 {
        fill: #29d698;
      }

      .fill {
        fill: #fff;
        opacity: 0.65;
      }

      
    </style>
  </defs>
  <title>S_MultiCamSequence_64x64_N_D@2x</title>
  <path class="cls-1" d="M44,40H10a2,2,0,0,0-2,2v8a2,2,0,0,0,2,2H44V40Z"/>
  <path class="cls-1" d="M44,56H10a2,2,0,0,0-2,2v8a2,2,0,0,0,2,2H44V56Z"/>
  <path class="cls-2" d="M44,72H10a2,2,0,0,0-2,2v8a2,2,0,0,0,2,2H44V72Z"/>
  <path class="cls-2" d="M58,72V84h60a2,2,0,0,0,2-2V74a2,2,0,0,0-2-2H58Z"/>
  <path class="cls-1" d="M58,56V68h60a2,2,0,0,0,2-2V58a2,2,0,0,0-2-2H58Z"/>
  <path class="cls-3" d="M44,88H10a2,2,0,0,0-2,2v8a2,2,0,0,0,2,2H44V88Z"/>
  <path class="cls-3" d="M44,104H10a2,2,0,0,0-2,2v8a2,2,0,0,0,2,2H44V104Z"/>
  <path class="cls-3" d="M58,104v12h60a2,2,0,0,0,2-2v-8a2,2,0,0,0-2-2H58Z"/>
  <path class="cls-3" d="M58,88v12h60a2,2,0,0,0,2-2V90a2,2,0,0,0-2-2H58Z"/>
  <path class="cls-1" d="M58,40V52h60a2,2,0,0,0,2-2V42a2,2,0,0,0-2-2H58Z"/>
  <path class="fill" d="M58,4H44a4,4,0,0,0-4,4V24s8,0,8,8v90a2,2,0,0,0,2,2h2a2,2,0,0,0,2-2V32c0-8,8-8,8-8V8A4,4,0,0,0,58,4ZM54,32H48V16h6V32Z"/>
  </svg>