<?xml version="1.0" encoding="UTF-8"?>
<svg id="icons" xmlns="http://www.w3.org/2000/svg" width="42" height="40" viewBox="0 0 42 40">
  <defs>
    <style>

      .fill{
        fill-rule: evenodd;
        fill: #000;
        opacity: .65;
      }
        

      .fillMedium {
        fill: #000;
        opacity: .3;
      }
    </style>
  </defs>
  <path class="fill" d="M14.89648,28c-.14404,0-.19189-.04785-.19189-.16797v-12.07324c-.69629.38379-1.84814.74414-2.52002.86426-.14404.02441-.19238,0-.19238-.14453v-2.04004c0-.12012.02441-.16797.14404-.19141,1.12842-.28809,2.42432-.84082,3.33643-1.44043.09619-.07227.24023-.0957.35986-.0957h1.65625c.09619,0,.12012.04785.12012.16797v14.95312c0,.12012-.04785.16797-.14404.16797h-2.56836Z"/>
  <path class="fill" d="M30.35303,12.80664c.09619,0,.14404.02441.14404.14453v1.65527c0,.07227-.02393.19238-.07227.3125-1.2959,3.02441-4.24805,9.36035-5.95215,12.9375-.04834.0957-.09619.14355-.21631.14355h-2.76025c-.0957,0-.14404-.04785-.0957-.16797,3.43213-6.96094,5.35205-10.96875,6.07227-12.45703h-7.44043c-.09619,0-.14404-.04785-.12012-.16797l.35986-2.25586c.02393-.12012.04834-.14453.16797-.14453h9.91309Z"/>
  <path class="fillMedium" d="M40,2v36H2V2h38ZM41,0H1C.44769,0,0,.44772,0,1v38c0,.55229.44769,1,1,1h40c.55231,0,1-.44771,1-1V1c0-.55228-.44769-1-1-1Z"/>
</svg>