<?xml version="1.0" encoding="UTF-8"?>
<svg id="ICONS" xmlns="http://www.w3.org/2000/svg" width="96" height="96" viewBox="0 0 96 96">
  <defs>
    <style>
      .fill {
        fill: #fafffa;
        opacity: .65;
        stroke-width: 0px;
      }
    </style>
  </defs>
  <path class="fill" d="M75.3,54.60048c-11.43198,0-20.7,9.26709-20.7,20.69952s9.26802,20.7,20.7,20.7,20.7-9.26754,20.7-20.7-9.26802-20.69952-20.7-20.69952ZM69.86217,87.88794l-9.60015-9.60015c-.45447-.45399-.45447-1.19037,0-1.64436l2.4105-2.4105c.45399-.45447,1.19037-.45447,1.64436,0l6.3528,6.35235,14.20161-14.20206c.45399-.45447,1.19037-.45447,1.64484,0l2.42493,2.42538c.45447.45399.45447,1.19037,0,1.64436l-17.43405,17.43498c-.45399.45399-1.19037.45399-1.64484,0Z"/>
  <path class="fill" d="M48.60004,75.29993c0-9.03021,4.51776-17.01324,11.39996-21.84741v-19.45251c0-2.20914-1.79086-4-4-4H10c-2.20914,0-4,1.79086-4,4v46c0,2.20914,1.79086,4,4,4h40.08447c-.94537-2.73157-1.48444-5.651-1.48444-8.70007Z"/>
  <path class="fill" d="M66,50.30475c1.90906-.71283,3.91443-1.21948,6-1.47839v-26.82635c0-2.20914-1.79086-4-4-4H22c-2.20914,0-4,1.79086-4,4v2h44c2.20914,0,4,1.79086,4,4v22.30475Z"/>
  <path class="fill" d="M78,48.73718c2.08337.21021,4.0849.68481,6,1.34766V10c0-2.20914-1.79086-4-4-4h-46c-2.20914,0-4,1.79086-4,4v2h44c2.20914,0,4,1.79086,4,4v32.73718Z"/>
</svg>