<?xml version="1.0" encoding="UTF-8"?>
<svg id="icons" xmlns="http://www.w3.org/2000/svg" width="42" height="40" viewBox="0 0 42 40">
  <defs>
    <style>

      .fill{
        fill-rule: evenodd;
        fill: #000;
        opacity: .65;
      }
        

      .fillMedium {
        fill: #000;
        opacity: .3;
      }
    </style>
  </defs>
  <path class="fill" d="M25.49316,14.91895c0,.07178,0,.12012-.11963.14404-2.78418.35986-5.23242,1.68018-6.2168,3.88818.69629-.4082,1.65625-.76807,2.9043-.76807,2.66406,0,4.84863,1.77637,4.84863,4.84863,0,2.61621-1.89648,5.2085-5.56885,5.2085-3.67188,0-5.66406-2.76025-5.66406-6.2168,0-5.18457,4.34424-8.78467,9.7207-9.45654.0957,0,.0957.07178.0957.14355v2.2085ZM18.60498,21.2793c-.02441.14404-.04835.55225-.04835.81641,0,2.27979,1.12843,3.62402,2.88038,3.62402,1.58398,0,2.52002-1.05615,2.52002-2.56836,0-1.63184-1.05566-2.64014-2.78418-2.64014-1.05615,0-1.91992.31201-2.56787.76807Z"/>
  <path class="fillMedium" d="M40,2v36H2V2h38ZM41,0H1C.44769,0,0,.44772,0,1v38c0,.55229.44769,1,1,1h40c.55231,0,1-.44771,1-1V1c0-.55228-.44769-1-1-1Z"/>
</svg>