<?xml version="1.0" encoding="UTF-8"?>
<svg id="icons" xmlns="http://www.w3.org/2000/svg" width="42" height="40" viewBox="0 0 42 40">
  <defs>
    <style>

      .fill{
        fill-rule: evenodd;
        fill: #000;
        opacity: .65;
      }
        

      .fillMedium {
        fill: #000;
        opacity: .3;
      }
    </style>
  </defs>
  <path class="fill" d="M9.76025,28c-.16797,0-.16797-.07227-.16797-.19238v-1.60742c0-.14453,0-.2168.0957-.28809,1.03223-.79199,2.64062-1.99219,3.98438-3.26465,2.42432-2.20801,2.83252-3.60059,2.83252-4.82422,0-1.56055-.81641-2.64062-2.83252-2.64062-1.48779,0-2.49609.43262-3.52832.98438-.11963.07227-.19189.02441-.19189-.0957v-2.20898c0-.11914.02393-.19141.12012-.26367,1.22412-.64746,2.61621-1.03223,4.22412-1.03223,3.52832,0,5.16064,2.30469,5.16064,4.87305,0,1.7998-.64795,3.57617-2.7124,5.54395-1.24805,1.24805-2.13623,1.94434-2.97607,2.59277.91211-.07227,1.82422-.07227,3.52832-.07227h2.76025c.16797,0,.21582.04785.19189.16797l-.50391,2.16016c-.04785.12012-.09619.16797-.24023.16797h-9.74463Z"/>
  <path class="fill" d="M32.00879,16.79102c0,1.58398-.93604,2.66406-1.63232,3.21582,1.05615.64844,2.18457,1.80078,2.18457,3.69727,0,2.71191-2.3042,4.53613-5.54492,4.53613-3.4082,0-5.3042-2.06445-5.3042-4.5127,0-1.63184.88818-2.80859,2.13623-3.57617-.86426-.69629-1.63232-1.77637-1.63232-3.36035,0-2.20801,1.72803-4.22461,4.96875-4.22461,3.28809,0,4.82422,2.18457,4.82422,4.22461ZM29.65674,23.51172c.02393-.93652-.4082-1.6084-.91211-1.99219-.19238-.12012-.31201-.16797-.55225-.16797h-2.08789c-.21631,0-.28809,0-.48047.14355-.59961.38477-1.00781,1.05664-1.00781,1.96875,0,1.3916,1.03223,2.32812,2.54395,2.32812,1.7041,0,2.49658-1.03223,2.49658-2.28027ZM24.97607,17.00684c0,.69629.24023,1.22461.67236,1.68066.14355.14355.2876.19141.55176.19141h1.94434c.23975,0,.35986-.04785.52783-.23926.36035-.36035.6001-.86426.6001-1.56055,0-1.27246-.79199-2.1123-2.13623-2.1123-1.41602,0-2.16016.91211-2.16016,2.04004Z"/>
  <path class="fillMedium" d="M40,2v36H2V2h38ZM41,0H1C.44769,0,0,.44772,0,1v38c0,.55229.44769,1,1,1h40c.55231,0,1-.44771,1-1V1c0-.55228-.44769-1-1-1Z"/>
</svg>