<?xml version="1.0" encoding="UTF-8"?>
<svg id="icons" xmlns="http://www.w3.org/2000/svg" width="42" height="40" viewBox="0 0 42 40">
  <defs>
    <style>

      .fill{
        fill-rule: evenodd;
        fill: #000;
        opacity: .65;
      }
        

      .fillMedium {
        fill: #000;
        opacity: .3;
      }
    </style>
  </defs>
  <path class="fill" d="M26.11719,16.79102c0,1.58398-.93604,2.66406-1.63232,3.21582,1.05615.64844,2.18457,1.80078,2.18457,3.69727,0,2.71191-2.3042,4.53613-5.54492,4.53613-3.4082,0-5.3042-2.06445-5.3042-4.5127,0-1.63184.88818-2.80859,2.13623-3.57617-.86426-.69629-1.63232-1.77637-1.63232-3.36035,0-2.20801,1.72803-4.22461,4.96875-4.22461,3.28809,0,4.82422,2.18457,4.82422,4.22461ZM23.76514,23.51172c.02393-.93652-.4082-1.6084-.91211-1.99219-.19238-.12012-.31201-.16797-.55225-.16797h-2.08789c-.21631,0-.28809,0-.48047.14355-.59961.38477-1.00781,1.05664-1.00781,1.96875,0,1.3916,1.03223,2.32812,2.54395,2.32812,1.7041,0,2.49658-1.03223,2.49658-2.28027ZM19.08447,17.00684c0,.69629.24023,1.22461.67236,1.68066.14355.14355.2876.19141.55176.19141h1.94434c.23975,0,.35986-.04785.52783-.23926.36035-.36035.6001-.86426.6001-1.56055,0-1.27246-.79199-2.1123-2.13623-2.1123-1.41602,0-2.16016.91211-2.16016,2.04004Z"/>
  <path class="fillMedium" d="M40,2v36H2V2h38ZM41,0H1C.44769,0,0,.44772,0,1v38c0,.55229.44769,1,1,1h40c.55231,0,1-.44771,1-1V1c0-.55228-.44769-1-1-1Z"/>
</svg>