<?xml version="1.0" encoding="UTF-8"?>
<svg id="icons" xmlns="http://www.w3.org/2000/svg" width="42" height="40" viewBox="0 0 42 40">
  <defs>
    <style>

      .fill{
        fill-rule: evenodd;
        fill: #000;
        opacity: .65;
      }
        

      .fillMedium {
        fill: #000;
        opacity: .3;
      }
    </style>
  </defs>
  <path class="fill" d="M19.90039,15.35107c-.16797.67188-.50391,2.01611-.64795,2.61621,4.94434.52783,6.93652,2.35205,6.93652,5.28027,0,2.97607-2.32812,4.99268-5.88037,4.99268-1.56006,0-2.85596-.26416-3.84033-.74414-.09619-.04834-.14404-.12012-.14404-.28809v-2.35205c0-.12012.09619-.14404.16797-.09619,1.05615.55176,2.37646.93604,3.79248.93604,2.18408,0,2.97607-1.03223,2.97607-2.25635,0-1.91992-1.87207-2.83203-6.57617-3.21631-.12012,0-.21631-.02393-.21631-.16797v-1.17578c.14404-.62402,1.58398-5.78467,1.63232-5.90479.04785-.14404.07178-.16797.21582-.16797h7.27246c.12012,0,.16846.04785.12012.19189l-.62402,2.18457c-.02393.11963-.07178.16797-.21582.16797h-4.96875Z"/>
  <path class="fillMedium" d="M40,2v36H2V2h38ZM41,0H1C.44769,0,0,.44772,0,1v38c0,.55229.44769,1,1,1h40c.55231,0,1-.44771,1-1V1c0-.55228-.44769-1-1-1Z"/>
</svg>