<svg xmlns="http://www.w3.org/2000/svg" data-name="S_NewTitle_18_N_D@2x" height="36" id="S_NewTitle_18_N_D_2x" viewBox="0 0 36 36" width="36">
  <defs>
    <style>
	.fill {
        fill: #fff;
        fill-rule: evenodd;
        opacity: 0.65;
      }</style>
  </defs>
  <title>S_NewTitle_18_N_D@2x</title>
  <path class="fill" d="M32,4H4A1,1,0,0,0,3,5V31a1,1,0,0,0,1,1H32a1,1,0,0,0,1-1V5A1,1,0,0,0,32,4ZM9,29.5a.5.5,0,0,1-.5.5h-3a.5.5,0,0,1-.5-.5v-3a.5.5,0,0,1,.5-.5h3a.5.5,0,0,1,.5.5Zm0-6.706a.5.5,0,0,1-.5.5h-3a.5.5,0,0,1-.5-.5v-3a.5.5,0,0,1,.5-.5h3a.5.5,0,0,1,.5.5Zm0-6.588a.5.5,0,0,1-.5.5h-3a.5.5,0,0,1-.5-.5v-3a.5.5,0,0,1,.5-.5h3a.5.5,0,0,1,.5.5ZM9,9.5a.5.5,0,0,1-.5.5h-3A.5.5,0,0,1,5,9.5v-3A.5.5,0,0,1,5.5,6h3a.5.5,0,0,1,.5.5Zm15,6a.5.5,0,0,1-.5.5h-1a.5.5,0,0,1-.5-.5V14H19v8h1.5a.5.5,0,0,1,.5.5v1a.5.5,0,0,1-.5.5h-5a.5.5,0,0,1-.5-.5v-1a.5.5,0,0,1,.5-.5H17V14H14v1.473a.5.5,0,0,1-.5.5h-1a.5.5,0,0,1-.5-.5V12.5a.5.5,0,0,1,.5-.5h11a.5.5,0,0,1,.5.5Zm7,14a.5.5,0,0,1-.5.5h-3a.5.5,0,0,1-.5-.5v-3a.5.5,0,0,1,.5-.5h3a.5.5,0,0,1,.5.5Zm0-6.706a.5.5,0,0,1-.5.5h-3a.5.5,0,0,1-.5-.5v-3a.5.5,0,0,1,.5-.5h3a.5.5,0,0,1,.5.5Zm0-6.588a.5.5,0,0,1-.5.5h-3a.5.5,0,0,1-.5-.5v-3a.5.5,0,0,1,.5-.5h3a.5.5,0,0,1,.5.5ZM31,9.5a.5.5,0,0,1-.5.5h-3a.5.5,0,0,1-.5-.5v-3a.5.5,0,0,1,.5-.5h3a.5.5,0,0,1,.5.5Z" />
  </svg>