<svg id="S_NextScene_Md_N_D_2x" data-name="S_NextScene_Md_N_D@2x" xmlns="http://www.w3.org/2000/svg" width="36" height="36" viewBox="0 0 36 36">
  <defs>
    <style>
      .fill {
        fill: #fff;
        fill-rule: evenodd;
        opacity: 0.65;
      }

      
    </style>
  </defs>
  <title>S_NextScene_Md_N_D@2x</title>
  <polygon class="fill" points="4.045 14 4.045 18 6.045 18 8.045 14 4.045 14"/>
  <polygon class="fill" points="12.045 14 10.045 18 14.045 18 16.045 14 12.045 14"/>
  <path class="fill" d="M28.045,14l-2,4h4V15a1,1,0,0,0-1-1h-1Z"/>
  <polygon class="fill" points="20.045 14 18.045 18 22.045 18 24.045 14 20.045 14"/>
  <path class="fill" d="M4.045,14L3.056,11.168a1,1,0,0,1,.614-1.274l0.944-.33,3.207,3.117Z"/>
  <polygon class="fill" points="11.598 11.362 8.391 8.245 12.167 6.926 15.374 10.043 11.598 11.362"/>
  <path class="fill" d="M26.7,6.086L23.5,2.969l2.832-.989a1,1,0,0,1,1.274.614l0.989,2.832Z"/>
  <polygon class="fill" points="19.151 8.724 15.943 5.607 19.72 4.288 22.927 7.405 19.151 8.724"/>
  <path class="fill" d="M17,30V27a3,3,0,0,1,3-3h5V21.1a2.468,2.468,0,0,1,.267-1.1H4.045V31a1,1,0,0,0,1,1h12.24A3.323,3.323,0,0,1,17,30Z"/>
  <path class="fill" d="M20,32h7v3.9a0.443,0.443,0,0,0,.031.1h1.107L36,29l-8.171-7.274A0.5,0.5,0,0,0,27,22.1V26H20a1,1,0,0,0-1,1v4A1,1,0,0,0,20,32Z"/>
  </svg>