<svg id="S_NewTitle_Md_N_D_2x" data-name="S_NewTitle_Md_N_D@2x" xmlns="http://www.w3.org/2000/svg" width="36" height="36" viewBox="0 0 36 36">
  <defs>
    <style>
      .fill {
        fill: #fff;
        fill-rule: evenodd;
        opacity: 0.65;
      }

      
    </style>
  </defs>
  <title>S_NewTitle_Md_N_D@2x</title>
  <path class="fill" d="M31,4H5A1,1,0,0,0,4,5V31a1,1,0,0,0,1,1H31a1,1,0,0,0,1-1V5A1,1,0,0,0,31,4ZM8,29.5a0.5,0.5,0,0,1-.5.5h-1A0.5,0.5,0,0,1,6,29.5v-3A0.5,0.5,0,0,1,6.5,26h1a0.5,0.5,0,0,1,.5.5v3Zm0-6.706a0.5,0.5,0,0,1-.5.5h-1a0.5,0.5,0,0,1-.5-0.5v-3a0.5,0.5,0,0,1,.5-0.5h1a0.5,0.5,0,0,1,.5.5v3Zm0-6.588a0.5,0.5,0,0,1-.5.5h-1a0.5,0.5,0,0,1-.5-0.5v-3a0.5,0.5,0,0,1,.5-0.5h1a0.5,0.5,0,0,1,.5.5v3ZM8,9.5a0.5,0.5,0,0,1-.5.5h-1A0.5,0.5,0,0,1,6,9.5v-3A0.5,0.5,0,0,1,6.5,6h1a0.5,0.5,0,0,1,.5.5v3Zm16,6a0.5,0.5,0,0,1-.5.5h-1a0.5,0.5,0,0,1-.5-0.5V14H19v8h1.5a0.5,0.5,0,0,1,.5.5v1a0.5,0.5,0,0,1-.5.5h-5a0.5,0.5,0,0,1-.5-0.5v-1a0.5,0.5,0,0,1,.5-0.5H17V14H14v1.473a0.5,0.5,0,0,1-.5.5h-1a0.5,0.5,0,0,1-.5-0.5V12.5a0.5,0.5,0,0,1,.5-0.5h11a0.5,0.5,0,0,1,.5.5v3Zm6,14a0.5,0.5,0,0,1-.5.5h-1a0.5,0.5,0,0,1-.5-0.5v-3a0.5,0.5,0,0,1,.5-0.5h1a0.5,0.5,0,0,1,.5.5v3Zm0-6.706a0.5,0.5,0,0,1-.5.5h-1a0.5,0.5,0,0,1-.5-0.5v-3a0.5,0.5,0,0,1,.5-0.5h1a0.5,0.5,0,0,1,.5.5v3Zm0-6.588a0.5,0.5,0,0,1-.5.5h-1a0.5,0.5,0,0,1-.5-0.5v-3a0.5,0.5,0,0,1,.5-0.5h1a0.5,0.5,0,0,1,.5.5v3ZM30,9.5a0.5,0.5,0,0,1-.5.5h-1A0.5,0.5,0,0,1,28,9.5v-3A0.5,0.5,0,0,1,28.5,6h1a0.5,0.5,0,0,1,.5.5v3Z"/>
  </svg>