<svg id="S_NextEditPoint_54x54_N_D_2x" data-name="S_NextEditPoint_54x54_N_D@2x" xmlns="http://www.w3.org/2000/svg" width="108" height="108" viewBox="0 0 108 108">
  <defs>
    <style>
      .cls-1 {
        opacity: 0.3;
      }

      .background, .fill {
        opacity: 0.65;
      }

      .fill {
        fill: #fff;
        fill-rule: evenodd;
      }

      
    </style>
  </defs>
  <title>S_NextEditPoint_54x54_N_D@2x</title>
  <circle class="cls-1" cx="54" cy="54" r="45"/>
  <path id="Fill" class="background" d="M75,38a1,1,0,0,1,1,1V69a1,1,0,0,1-1,1H71a1,1,0,0,1-1-1V39a1,1,0,0,1,1-1h4Zm0-2H71a3,3,0,0,0-3,3V69a3,3,0,0,0,3,3h4a3,3,0,0,0,3-3V39A3,3,0,0,0,75,36Z"/>
  <path id="Fill2" class="background" d="M35,38.665a0.993,0.993,0,0,1,.47.119L64,54,35.471,69.216A1,1,0,0,1,34,68.333V39.667A1,1,0,0,1,35,38.665Zm0-2a3,3,0,0,0-3,3V68.333a3,3,0,0,0,4.412,2.647L68.25,54,36.412,37.02A3.01,3.01,0,0,0,35,36.665Z"/>
  <path id="Fill-2" data-name="Fill" class="fill" d="M71,38h4a1,1,0,0,1,1,1V69a1,1,0,0,1-1,1H71a1,1,0,0,1-1-1V39A1,1,0,0,1,71,38Z"/>
  <path id="Fill2-2" data-name="Fill2" class="fill" d="M35.471,38.784L64,54,35.471,69.216A1,1,0,0,1,34,68.333V39.667A1,1,0,0,1,35.471,38.784Z"/>
  </svg>