<svg id="S_NextEditPoint_32x32_N_D_2x" data-name="S_NextEditPoint_32x32_N_D@2x" xmlns="http://www.w3.org/2000/svg" width="64" height="64" viewBox="0 0 64 64">
  <defs>
    <style>
      .cls-1 {
        opacity: 0.3;
      }

      .background, .fill {
        opacity: 0.65;
      }

      .fill {
        fill: #fff;
        fill-rule: evenodd;
      }

      
    </style>
  </defs>
  <title>S_NextEditPoint_32x32_N_D@2x</title>
  <path id="Ellipse" class="cls-1" d="M4,32A28,28,0,1,1,32,60,28,28,0,0,1,4,32Z"/>
  <path class="background" d="M18,22,35.725,32,18,42Z"/>
  <path id="Fill" class="background" d="M45,20H43a3,3,0,0,0-3,3V41a3,3,0,0,0,3,3h2a3,3,0,0,0,3-3V23A3,3,0,0,0,45,20Zm0,2a1,1,0,0,1,1,1V41a1,1,0,0,1-1,1H43a1,1,0,0,1-1-1V23a1,1,0,0,1,1-1Z"/>
  <path id="Fill-2" data-name="Fill" class="fill" d="M43,22h2a1,1,0,0,1,1,1V41a1,1,0,0,1-1,1H43a1,1,0,0,1-1-1V23A1,1,0,0,1,43,22Z"/>
  <path id="Fill2" class="background" d="M19,22.564a.994.994,0,0,1,.5.134L35.725,32,19.491,41.159A1,1,0,0,1,18,40.288V23.566A1,1,0,0,1,19,22.564Zm0-2a3,3,0,0,0-3,3V40.288A3,3,0,0,0,20.474,42.9l16.234-9.159,3.063-1.728L36.72,30.265l-16.228-9.3A3,3,0,0,0,19,20.564Z"/>
  <path id="Fill2-2" data-name="Fill2" class="fill" d="M19.5,22.7,35.725,32,19.491,41.159A1,1,0,0,1,18,40.288V23.566A1,1,0,0,1,19.5,22.7Z"/>
  </svg>