<svg id="S_NonMedia_48x48_N_D_2x" data-name="S_NonMedia_48x48_N_D@2x" xmlns="http://www.w3.org/2000/svg" width="96" height="96" viewBox="0 0 96 96">
  <defs>
    <style>
      .fill {
        fill: #fff;
        fill-rule: evenodd;
        opacity: 0.65;
      }

      
    </style>
  </defs>
  <title>S_NonMedia_48x48_N_D@2x</title>
  <polygon class="fill" points="60 9 60 30 81 30 60 9"/>
  <path class="fill" d="M37.975,45.631c-1.275,0-3.126.159-3.711,0.212V58.277c0.744,0.053,1.957-.053,3.232-0.053,3.772,0,7.279-1.328,7.279-6.429C44.776,47.7,42.279,45.631,37.975,45.631Z"/>
  <path class="fill" d="M57,36a3,3,0,0,1-3-3V6H15a3,3,0,0,0-3,3V87a3,3,0,0,0,3,3H81a3,3,0,0,0,3-3V36H57ZM37.391,63.369c-1.222,0-2.276.062-3.126,0.062V75.8a0.316,0.316,0,0,1-.372.372l-4.366-.106a0.316,0.316,0,0,1-.372-0.372V41.061a0.3,0.3,0,0,1,.319-0.372c2.072-.106,5.1-0.159,8.289-0.159,8.926,0,12.805,4.888,12.805,11.158C50.568,59.871,44.67,63.369,37.391,63.369Zm30.392-9.2a0.563,0.563,0,0,1-.434.6,21.715,21.715,0,0,0-6.651.788L60.645,75.589a0.62,0.62,0,0,1-.5.6l-3.781-.124a0.638,0.638,0,0,1-.638-0.478l0.053-20.306a16.222,16.222,0,0,0,.053-3.17,0.361,0.361,0,0,1,.266-0.425,30.155,30.155,0,0,1,11.255-2.231,0.47,0.47,0,0,1,.5.451Z"/>
  </svg>