<svg id="S_NonMedia_Sm_N_D_2x" data-name="S_NonMedia_Sm_N_D@2x" xmlns="http://www.w3.org/2000/svg" width="32" height="32" viewBox="0 0 32 32">
  <defs>
    <style>
      .fill {
        fill: #fff;
        fill-rule: evenodd;
        opacity: 0.65;
      }

      
    </style>
  </defs>
  <title>S_NonMedia_Sm_N_D@2x</title>
  <path class="fill" d="M19,12a1,1,0,0,1-1-1V2H5A1,1,0,0,0,4,3V29a1,1,0,0,0,1,1H27a1,1,0,0,0,1-1V12H19Zm-7.056,8.366c-0.437,0-.852-0.016-1.155-0.016v4.427a0.113,0.113,0,0,1-.134.133l-1.523,0A0.113,0.113,0,0,1,9,24.773V12.387a0.107,0.107,0,0,1,.113-0.133c0.742-.038,1.824-0.057,2.965-0.057,3.191,0,4.578,1.747,4.578,3.989C16.656,19.112,14.547,20.366,11.944,20.366Zm10.884-3.174c0,0.1-.039.114-0.133,0.114a4.657,4.657,0,0,0-1.84.21v7.257a0.113,0.113,0,0,1-.133.133l-1.613-.022a0.113,0.113,0,0,1-.133-0.133V17.438c0-.133,0-0.475-0.057-1.121a0.13,0.13,0,0,1,.095-0.152,8.849,8.849,0,0,1,3.681-.758c0.094,0,.133.019,0.133,0.114v1.672Z"/>
  <path class="fill" d="M12.364,14.021c-0.456,0-1.155.022-1.364,0.042v4.445c0.266,0.019.737,0.016,1.193,0.016,1.35,0,2.6-.475,2.6-2.3C14.8,14.762,13.9,14.021,12.364,14.021Z"/>
  <polygon class="fill" points="20 3 20 10 27 10 20 3"/>
  </svg>