<?xml version="1.0" encoding="UTF-8"?>
<svg id="a" data-name="Layer 1" xmlns="http://www.w3.org/2000/svg" width="72" height="72" viewBox="0 0 72 72">
  <path d="M63.48535,67.48535c-1.33594,0-2.5918-.52051-3.53613-1.46484l-20.00586-20.00586c-1.12402-1.12598-1.12402-2.95508,0-4.0791l.43555-.43555-1.19824-1.19727c-3.41162,2.92676-7.84326,4.69727-12.68066,4.69727-5.11035,0-9.94043-1.96289-13.60107-5.52637-.59375-.57812-.60645-1.52832-.02832-2.12207.57764-.59326,1.52686-.60547,2.12109-.02832,3.09717,3.01562,7.18408,4.67676,11.5083,4.67676,9.09814,0,16.5-7.40186,16.5-16.5s-7.40186-16.5-16.5-16.5c-4.97412,0-9.63428,2.21191-12.78516,6.06934-.52441.64062-1.46875.73584-2.11084.2124-.64111-.52393-.73633-1.46924-.2124-2.11084,3.72314-4.55713,9.22998-7.1709,15.1084-7.1709,10.75195,0,19.5,8.74756,19.5,19.5,0,4.8374-1.77051,9.26904-4.69727,12.68066l1.19727,1.19824.43555-.43555c1.12305-1.125,2.95312-1.12402,4.07812-.00098l20.00684,20.00781c.94434.94336,1.46484,2.19922,1.46484,3.53516s-.51953,2.59082-1.46387,3.53516h-.00098v.00098c-.94434.94434-2.19922,1.46387-3.53516,1.46387ZM42.14648,43.97461l19.9248,19.9248c.75586.75586,2.07227.75586,2.82812,0h0c.37793-.37793.58594-.87988.58594-1.41406s-.20801-1.03613-.58594-1.41309l-19.9248-19.92578-2.82812,2.82812ZM18,34.5c-.38379,0-.76758-.14648-1.06055-.43945l-5.43945-5.43945-5.43945,5.43945c-.58594.58594-1.53516.58594-2.12109,0-.58594-.58545-.58594-1.53564,0-2.12109l5.43945-5.43945-5.43945-5.43945c-.58594-.58545-.58594-1.53564,0-2.12109.58594-.58594,1.53516-.58594,2.12109,0l5.43945,5.43945,5.43945-5.43945c.58594-.58594,1.53516-.58594,2.12109,0,.58594.58545.58594,1.53564,0,2.12109l-5.43945,5.43945,5.43945,5.43945c.58594.58545.58594,1.53564,0,2.12109-.29297.29297-.67676.43945-1.06055.43945Z" fill="#909090" stroke-width="0"/>
</svg>