<svg id="S_NonMedia_64x64_N_D_2x" data-name="S_NonMedia_64x64_N_D@2x" xmlns="http://www.w3.org/2000/svg" width="128" height="128" viewBox="0 0 128 128">
  <defs>
    <style>
      .fill {
        fill: #fff;
        fill-rule: evenodd;
        opacity: 0.65;
      }

      
    </style>
  </defs>
  <title>S_NonMedia_64x64_N_D@2x</title>
  <polygon class="fill" points="80 12 80 40 108 40 80 12"/>
  <path class="fill" d="M50.969,60.576c-1.642,0-3.22.072-3.969,0.135V76.759c0.956,0.072,1.7.072,3.356,0.072,4.871,0,9.391-1.723,9.391-8.3C59.746,63.255,56.526,60.576,50.969,60.576Z"/>
  <path class="fill" d="M76,48a4,4,0,0,1-4-4V8H20a4,4,0,0,0-4,4V116a4,4,0,0,0,4,4h88a4,4,0,0,0,4-4V48H76ZM50.221,83.48c-1.579,0-2.129-.072-3.22-0.072V99.383a0.411,0.411,0,0,1-.487.478l-6.026.108A0.411,0.411,0,0,1,40,99.492V54.785a0.388,0.388,0,0,1,.415-0.478C43.085,54.171,46.585,54,50.7,54c11.52,0,16.526,6.305,16.526,14.4C67.225,78.951,59.611,83.48,50.221,83.48ZM90.3,71.987c0,0.343-.144.406-0.487,0.406a27.271,27.271,0,0,0-8.479,1V99.582a0.408,0.408,0,0,1-.487.478l-6.116-.054a0.408,0.408,0,0,1-.478-0.478v-26.4c0-.478,0-1.714-0.207-4.041a0.474,0.474,0,0,1,.352-0.55,44.255,44.255,0,0,1,15.416-2.995c0.343,0,.487.072,0.487,0.415v6.035Z"/>
  </svg>