<svg xmlns="http://www.w3.org/2000/svg" data-name="S_NotForMobile_17x15_N_D@2x" height="30" id="S_NotForMobile_17x15_N_D_2x" viewBox="0 0 34 30" width="34">
  <defs>
    <style>
	.background {
		fill: #000000;
		
        opacity: 0.65;
      }
	.yellow {
        fill: #f4c500;
      }</style>
  </defs>
  <title>S_NotForMobile_17x15_N_D@2x</title>
  <rect class="background" height="30" width="34" />
  <path class="yellow" d="M12,5.741V4H22v9.923l2,1.636V4a2,2,0,0,0-2-2H12a2,2,0,0,0-2,2v.1Z" />
  <path class="yellow" d="M19.239,22H12V16.077l-2-1.636V26a2,2,0,0,0,2,2H22a2,2,0,0,0,2-2v-.1ZM17.1,27.1A2.1,2.1,0,1,1,19.2,25,2.1,2.1,0,0,1,17.1,27.1Z" />
  <rect class="yellow" height="30.825" rx="0.5" ry="0.5" transform="translate(-5.374 18.659) rotate(-50.711)" width="2.4" x="15.8" y="-0.413" />
  </svg>