<svg id="S_NonMedia_Xl_N_D_2x" data-name="S_NonMedia_Xl_N_D@2x" xmlns="http://www.w3.org/2000/svg" width="64" height="64" viewBox="0 0 64 64">
  <defs>
    <style>
      .fill {
        fill: #fff;
        fill-rule: evenodd;
        opacity: 0.65;
      }

      
    </style>
  </defs>
  <title>S_NonMedia_Xl_N_D@2x</title>
  <polygon class="fill" points="40 6 40 20 54 20 40 6"/>
  <path class="fill" d="M38,24a2,2,0,0,1-2-2V4H10A2,2,0,0,0,8,6V58a2,2,0,0,0,2,2H54a2,2,0,0,0,2-2V24H38ZM23.858,41.268c-0.845,0-1.479-.029-2.065-0.029V49.75a0.21,0.21,0,0,1-.25.25l-3.093-.01a0.216,0.216,0,0,1-.25-0.259v-23.8a0.21,0.21,0,0,1,.221-0.259c1.422-.067,3.5-0.106,5.687-0.106,6.139,0,8.8,3.353,8.8,7.667C32.908,38.856,28.854,41.268,23.858,41.268ZM44.74,35.129c0,0.182-.067.221-0.25,0.221a15.193,15.193,0,0,0-4.534.452V49.75a0.21,0.21,0,0,1-.25.25l-3.141-.01a0.216,0.216,0,0,1-.25-0.259V35.676c0-.25,0-0.913-0.115-2.152a0.245,0.245,0,0,1,.182-0.288A23.146,23.146,0,0,1,44.491,31.7c0.182,0,.25.038,0.25,0.221v3.209Z"/>
  <path class="fill" d="M24.252,29.077c-0.874,0-2.056.048-2.459,0.086V37.7c0.509,0.039,1.258.02,2.133,0.02,2.594,0,5.005-.913,5.005-4.419C28.931,30.5,27.211,29.077,24.252,29.077Z"/>
  </svg>