<svg id="S_Offline_Xl_N_D_2x" data-name="S_Offline_Xl_N_D@2x" xmlns="http://www.w3.org/2000/svg" width="64" height="64" viewBox="0 0 64 64">
  <defs>
    <style>
      .fill {
        fill: #fff;
        fill-rule: evenodd;
        opacity: 0.65;
      }

      
    </style>
  </defs>
  <title>S_Offline_Xl_N_D@2x</title>
  <polygon class="fill" points="40 6 40 20 54 20 40 6"/>
  <path class="fill" d="M38,24a2,2,0,0,1-2-2V4H10A2,2,0,0,0,8,6V58a2,2,0,0,0,2,2H54a2,2,0,0,0,2-2V24H38ZM28.6,49.859a2.362,2.362,0,0,1-2.521-2.52,2.521,2.521,0,0,1,5.041,0A2.327,2.327,0,0,1,28.6,49.859ZM32.672,36.1c-1.4,1.332-2.737,2.521-2.737,3.6a3.8,3.8,0,0,0,.576,1.98,0.154,0.154,0,0,1-.144.252H27.234a0.6,0.6,0,0,1-.469-0.145,3.933,3.933,0,0,1-.864-2.484c0-1.691,1.045-2.773,2.773-4.5,1.188-1.189,1.872-1.945,1.872-3.062,0-1.295-.864-2.2-3.061-2.2a9.139,9.139,0,0,0-4.537,1.188,0.183,0.183,0,0,1-.289-0.145V27.1a0.339,0.339,0,0,1,.145-0.359,11.412,11.412,0,0,1,5.474-1.262c4.321,0,6.7,2.484,6.7,5.654A6.359,6.359,0,0,1,32.672,36.1Z"/>
  </svg>