<svg id="S_OfflineBad_Sm_N_D_2x" data-name="S_OfflineBad_Sm_N_D@2x" xmlns="http://www.w3.org/2000/svg" width="32" height="32" viewBox="0 0 32 32">
  <defs>
    <style>
      .red {
        fill: #f53c3c;
      }

      .fill {
        fill: #fff;
        fill-rule: evenodd;
        opacity: 0.65;
      }

      
    </style>
  </defs>
  <title>S_OfflineBad_Sm_N_D@2x</title>
  <path class="red" d="M22.867,26.213L16.533,14.481a0.533,0.533,0,0,0-.938,0L9.132,26.213A0.533,0.533,0,0,0,9.6,27H22.4A0.533,0.533,0,0,0,22.867,26.213ZM17,24.5a0.5,0.5,0,0,1-.5.5h-1a0.5,0.5,0,0,1-.5-0.5v-1a0.5,0.5,0,0,1,.5-0.5h1a0.5,0.5,0,0,1,.5.5v1Zm0-3a0.5,0.5,0,0,1-.5.5h-1a0.5,0.5,0,0,1-.5-0.5v-4a0.5,0.5,0,0,1,.5-0.5h1a0.5,0.5,0,0,1,.5.5v4Z"/>
  <polygon class="fill" points="20 3 20 10 27 10 20 3"/>
  <path class="fill" d="M19,12a1,1,0,0,1-1-1V2H5A1,1,0,0,0,4,3V29a1,1,0,0,0,1,1H27a1,1,0,0,0,1-1V12H19Zm4.772,15.22A1.586,1.586,0,0,1,22.4,28H9.6a1.6,1.6,0,0,1-1.4-2.368l6.459-11.726a1.6,1.6,0,0,1,2.814,0L23.806,25.64A1.587,1.587,0,0,1,23.772,27.22Z"/>
  </svg>