<svg id="S_OfflineBad_64x64_N_D_2x" data-name="S_OfflineBad_64x64_N_D@2x" xmlns="http://www.w3.org/2000/svg" width="128" height="128" viewBox="0 0 128 128">
  <defs>
    <style>
      .fill {
        fill: #fff;
        fill-rule: evenodd;
        opacity: 0.65;
      }

      .red {
        fill: #f53c3c;
      }

      
    </style>
  </defs>
  <title>S_OfflineBad_64x64_N_D@2x</title>
  <polygon class="fill" points="80 12 80 40 108 40 80 12"/>
  <path class="fill" d="M76,48a4,4,0,0,1-4-4V8H20a4,4,0,0,0-4,4V116a4,4,0,0,0,4,4h88a4,4,0,0,0,4-4V48H76Zm15.8,64H36.3a4.2,4.2,0,0,1-3.65-6.266L60.367,57.178a4.2,4.2,0,0,1,7.34-.04l27.774,48.641A4.2,4.2,0,0,1,91.8,112Z"/>
  <path class="red" d="M92.8,107.222l-27.748-48.6a1.2,1.2,0,0,0-2.1,0L35.2,107.222A1.2,1.2,0,0,0,36.252,109h55.5A1.2,1.2,0,0,0,92.8,107.222ZM68,102a2,2,0,0,1-2,2H62a2,2,0,0,1-2-2V98a2,2,0,0,1,2-2h4a2,2,0,0,1,2,2v4Zm0-12a2,2,0,0,1-2,2H62a2,2,0,0,1-2-2V74a2,2,0,0,1,2-2h4a2,2,0,0,1,2,2V90Z"/>
  </svg>