<svg id="S_Offline_64x64_N_D_2x" data-name="S_Offline_64x64_N_D@2x" xmlns="http://www.w3.org/2000/svg" width="128" height="128" viewBox="0 0 128 128">
  <defs>
    <style>
      .fill {
        fill: #fff;
        fill-rule: evenodd;
        opacity: 0.65;
      }

      
    </style>
  </defs>
  <title>S_Offline_64x64_N_D@2x</title>
  <polygon class="fill" points="80 12 80 40 108 40 80 12"/>
  <path class="fill" d="M76,48a4,4,0,0,1-4-4V8H20a4,4,0,0,0-4,4V116a4,4,0,0,0,4,4h88a4,4,0,0,0,4-4V48H76ZM61.885,104.758a4.723,4.723,0,0,1-5.041-5.039,5.042,5.042,0,0,1,10.082,0A4.653,4.653,0,0,1,61.885,104.758Zm8.139-27.512c-2.809,2.664-5.475,5.043-5.475,7.2A7.6,7.6,0,0,0,65.7,88.41a0.308,0.308,0,0,1-.287.5H59.148a1.209,1.209,0,0,1-.937-0.289,7.866,7.866,0,0,1-1.729-4.969c0-3.383,2.09-5.547,5.547-9,2.377-2.379,3.744-3.891,3.744-6.125,0-2.59-1.729-4.391-6.121-4.391a18.279,18.279,0,0,0-9.074,2.375A0.366,0.366,0,0,1,50,66.227V59.242a0.679,0.679,0,0,1,.289-0.719A22.825,22.825,0,0,1,61.236,56c8.643,0,13.4,4.969,13.4,11.309C74.633,71.844,72.76,74.656,70.023,77.246Z"/>
  </svg>