<svg id="S_OfflineBad_48x48_N_D_2x" data-name="S_OfflineBad_48x48_N_D@2x" xmlns="http://www.w3.org/2000/svg" width="96" height="96" viewBox="0 0 96 96">
  <defs>
    <style>
      .fill {
        fill: #fff;
        fill-rule: evenodd;
        opacity: 0.65;
      }

      .red {
        fill: #f53c3c;
      }

      
    </style>
  </defs>
  <title>S_OfflineBad_48x48_N_D@2x</title>
  <polygon class="fill" points="60 9 60 30 81 30 60 9"/>
  <path class="fill" d="M57,36a3,3,0,0,1-3-3V6H15a3,3,0,0,0-3,3V87a3,3,0,0,0,3,3H81a3,3,0,0,0,3-3V36H57ZM68.849,84H27.224a3.15,3.15,0,0,1-2.737-4.7L45.275,42.883a3.15,3.15,0,0,1,5.505-.03l20.83,36.48A3.15,3.15,0,0,1,68.849,84Z"/>
  <path class="red" d="M69.889,80.417L49.078,43.97a0.9,0.9,0,0,0-1.578,0L26.689,80.417a0.9,0.9,0,0,0,.789,1.333H69.1A0.9,0.9,0,0,0,69.889,80.417ZM51.289,76.5a1.5,1.5,0,0,1-1.5,1.5h-3a1.5,1.5,0,0,1-1.5-1.5v-3a1.5,1.5,0,0,1,1.5-1.5h3a1.5,1.5,0,0,1,1.5,1.5v3Zm0-9a1.5,1.5,0,0,1-1.5,1.5h-3a1.5,1.5,0,0,1-1.5-1.5v-12a1.5,1.5,0,0,1,1.5-1.5h3a1.5,1.5,0,0,1,1.5,1.5v12Z"/>
  </svg>