<svg id="S_Offline_Sm_N_D_2x" data-name="S_Offline_Sm_N_D@2x" xmlns="http://www.w3.org/2000/svg" width="32" height="32" viewBox="0 0 32 32">
  <defs>
    <style>
      .fill {
        fill: #fff;
        fill-rule: evenodd;
        opacity: 0.65;
      }

      
    </style>
  </defs>
  <title>S_Offline_Sm_N_D@2x</title>
  <polygon class="fill" points="20 3 20 10 27 10 20 3"/>
  <path class="fill" d="M19,12a1,1,0,0,1-1-1V2H5A1,1,0,0,0,4,3V29a1,1,0,0,0,1,1H27a1,1,0,0,0,1-1V12H19ZM14.288,25.661a1.323,1.323,0,0,1-1.411-1.411,1.338,1.338,0,0,1,1.411-1.391A1.339,1.339,0,0,1,15.7,24.25,1.3,1.3,0,0,1,14.288,25.661Zm2.279-7.7c-0.786.746-1.533,1.412-1.533,2.017a2.128,2.128,0,0,0,.323,1.109,0.086,0.086,0,0,1-.08.141H13.522a0.338,0.338,0,0,1-.263-0.081,2.2,2.2,0,0,1-.484-1.391c0-.947.585-1.553,1.553-2.52a2.52,2.52,0,0,0,1.048-1.715c0-.725-0.484-1.229-1.714-1.229a5.118,5.118,0,0,0-2.541.665,0.1,0.1,0,0,1-.162-0.081V12.917a0.19,0.19,0,0,1,.081-0.2,6.391,6.391,0,0,1,3.065-.707c2.42,0,3.751,1.391,3.751,3.166A3.561,3.561,0,0,1,16.567,17.958Z"/>
  </svg>