<svg id="S_Offline_48x48_N_D_2x" data-name="S_Offline_48x48_N_D@2x" xmlns="http://www.w3.org/2000/svg" width="96" height="96" viewBox="0 0 96 96">
  <defs>
    <style>
      .fill {
        fill: #fff;
        fill-rule: evenodd;
        opacity: 0.65;
      }

      
    </style>
  </defs>
  <title>S_Offline_48x48_N_D@2x</title>
  <polygon class="fill" points="60 9 60 30 81 30 60 9"/>
  <path class="fill" d="M57,36a3,3,0,0,1-3-3V6H15a3,3,0,0,0-3,3V87a3,3,0,0,0,3,3H81a3,3,0,0,0,3-3V36H57ZM46.414,78.568a3.543,3.543,0,0,1-3.781-3.779,3.781,3.781,0,0,1,7.562,0A3.49,3.49,0,0,1,46.414,78.568Zm6.1-20.634c-2.106,2-4.106,3.782-4.106,5.4a5.7,5.7,0,0,0,.864,2.971,0.231,0.231,0,0,1-.215.378h-4.7a0.907,0.907,0,0,1-.7-0.217,5.9,5.9,0,0,1-1.3-3.727c0-2.537,1.567-4.16,4.16-6.75C48.3,54.208,49.33,53.074,49.33,51.4c0-1.942-1.3-3.293-4.591-3.293a13.709,13.709,0,0,0-6.806,1.781A0.274,0.274,0,0,1,37.5,49.67V44.432a0.509,0.509,0,0,1,.217-0.539A17.119,17.119,0,0,1,45.927,42c6.482,0,10.047,3.727,10.047,8.481A9.538,9.538,0,0,1,52.518,57.935Z"/>
  </svg>