<?xml version="1.0" encoding="UTF-8"?>
<svg id="ICONS" xmlns="http://www.w3.org/2000/svg" width="36" height="36" viewBox="0 0 36 36">
  <defs>
    <style>
      .fill {
        fill: #fafffa;
        opacity: .65;
        stroke-width: 0px;
      }
    </style>
  </defs>
  <path class="fill" d="M22,4h9c.55228,0,1,.44772,1,1v1h-10v-2h0Z"/>
  <path class="fill" d="M20,8v-4H5c-.55225,0-1,.44775-1,1v21.34302l2-2V6h12v4h12v20H11.65668l-1.99994,2h21.34326c.55231,0,1-.44775,1-1V8h-12Z"/>
  <path class="fill" d="M18.63574,27.7644c.14757.15071.34962.23563.56054.2356.42534.001.77775-.32973.80372-.75428v-10.74988c-.00081-.27351-.22233-.49503-.49584-.49584h-10.74976c-.42471.02569-.75562.37824-.7544.80372.00003.21087.08484.41286.23536.56054l3.78612,3.78574L2.9789,30.19236c-.39053.39052-.39053,1.02369,0,1.41421h0s1.41434,1.41435,1.41434,1.41435c.39052.39053,1.02369.39053,1.41421,0h0s9.04214-9.04241,9.04214-9.04241l3.78614,3.78588Z"/>
</svg>