<svg id="SP_OverlayInOut_15x15_N_D_2x" data-name="SP_OverlayInOut_15x15_N_D@2x" xmlns="http://www.w3.org/2000/svg" width="30" height="30" viewBox="0 0 30 30">
  <defs>
    <style>
      .fill {
        fill: #fff;
        fill-rule: evenodd;
        opacity: 0.65;
      }

      
    </style>
  </defs>
  <title>SP_OverlayInOut_15x15_N_D@2x</title>
  <path id="Fill" class="fill" d="M6,2A4,4,0,0,0,2,6V24a4,4,0,0,0,4,4H24a4,4,0,0,0,4-4V6a4,4,0,0,0-4-4H6ZM4,6A2,2,0,0,1,6,4H24a2,2,0,0,1,2,2V24a2,2,0,0,1-2,2H6a2,2,0,0,1-2-2V6Z"/>
  <path id="Fill2" class="fill" d="M17.5,6h-1a0.5,0.5,0,0,0-.5.5V13l3,2-3,2v6.5a0.5,0.5,0,0,0,.5.5h1a0.5,0.5,0,0,0,.5-0.5V18l4-3-4-3V6.5A0.5,0.5,0,0,0,17.5,6ZM12,6.5V12L8,15l4,3v5.5a0.5,0.5,0,0,0,.5.5h1a0.5,0.5,0,0,0,.5-0.5V17l-3-2,3-2V6.5A0.5,0.5,0,0,0,13.5,6h-1A0.5,0.5,0,0,0,12,6.5Z"/>
  </svg>