<svg id="S_Overwrite_Lg_N_D_3to2x" data-name="S_Overwrite_Lg_N_D@3to2x" xmlns="http://www.w3.org/2000/svg" width="33" height="27" viewBox="0 0 33 27">
  <defs>
    <style>
      .fill {
        fill: #fff;
        fill-rule: evenodd;
        opacity: 0.65;
      }

      
    </style>
  </defs>
  <title>S_Overwrite_Lg_N_D@3to2x</title>
  <path id="Fill" class="fill" d="M11.25,13.5v-9h10.5v9H11.25ZM9.75,15h13.5v1.5H9.75V15Zm0-11.25V12H2.808a0.75,0.75,0,0,0-.75.75v7.5a0.75,0.75,0,0,0,.75.75H30.192a0.75,0.75,0,0,0,.75-0.75v-7.5a0.75,0.75,0,0,0-.75-0.75H23.25V3.75A0.75,0.75,0,0,0,22.5,3h-12A0.75,0.75,0,0,0,9.75,3.75Zm3.506,3.864L16.5,11.547l3.244-3.933A0.375,0.375,0,0,0,19.455,7H13.545A0.375,0.375,0,0,0,13.256,7.614Z"/>
  </svg>