<svg id="S_PanoramaVR_Sm_N_D_2x" data-name="S_PanoramaVR_Sm_N_D@2x" xmlns="http://www.w3.org/2000/svg" width="32" height="32" viewBox="0 0 32 32">
  <defs>
    <style>
      .fill {
        fill: #fff;
        fill-rule: evenodd;
        opacity: 0.65;
      }

      
    </style>
  </defs>
  <title>S_PanoramaVR_Sm_N_D@2x</title>
  <path id="Fill" class="fill" d="M1.289,23.552c8.387-2.692,21.035-2.692,29.422,0A0.993,0.993,0,0,0,32,22.6V9.4a1,1,0,0,0-1.324-.943c-8.959,2.891-20.421,2.413-29.408-.008A1,1,0,0,0,0,9.411V22.6A0.993,0.993,0,0,0,1.289,23.552Zm0.735-2.289V10.656c7.9,2.05,20.054,2.508,27.953.075V21.263C22.63,19.05,9.371,19.05,2.023,21.263Z"/>
  <path id="Fill2" class="fill" d="M25.58,7.71C24.348,4.409,20.527,2,16,2,11.53,2,7.74,4.343,6.46,7.58,7.135,7.695,7.821,7.8,8.51,7.89,9.648,5.616,12.57,4,16,4c3.493,0,6.46,1.679,7.55,4.02C24.232,7.931,24.912,7.828,25.58,7.71Z"/>
  <path id="Fill3" class="fill" d="M25.58,24.31c-1.232,3.3-5.053,5.71-9.58,5.71-4.47,0-8.26-2.343-9.54-5.58,0.675-.115,1.361-0.217,2.05-0.31C9.648,26.4,12.57,28.02,16,28.02c3.493,0,6.46-1.679,7.55-4.02C24.232,24.089,24.912,24.192,25.58,24.31Z"/>
  <path id="Fill4" class="fill" d="M14,16a2,2,0,1,1,2,2A2,2,0,0,1,14,16Z"/>
  </svg>