<svg id="SP_ParamRangeArrow_11x12_N_D_2x" data-name="SP_ParamRangeArrow_11x12_N_D@2x" xmlns="http://www.w3.org/2000/svg" width="22" height="24" viewBox="0 0 22 24">
  <defs>
    <style>
      .fill {
        fill: #fff;
        fill-rule: evenodd;
        opacity: 0.65;
      }

      
    </style>
  </defs>
  <title>SP_ParamRangeArrow_11x12_N_D@2x</title>
  <path class="fill" d="M6.117,9.18L11,4l4.884,5.18A0.5,0.5,0,0,1,15.5,10H12v6h3.5a0.5,0.5,0,0,1,.384.82L11,22,6.117,16.82A0.5,0.5,0,0,1,6.5,16H10V10H6.5A0.5,0.5,0,0,1,6.117,9.18ZM0,3V23a1,1,0,0,0,1,1H21a1,1,0,0,0,1-1V3a1,1,0,0,0-1-1H1A1,1,0,0,0,0,3Z"/>
  </svg>