<?xml version="1.0" encoding="utf-8"?>
<!-- Generator: Adobe Illustrator 21.1.0, SVG Export Plug-In . SVG Version: 6.00 Build 0)  -->
<svg version="1.1" id="S_Pending_16_N_2x" xmlns="http://www.w3.org/2000/svg" xmlns:xlink="http://www.w3.org/1999/xlink" x="0px"
	 y="0px" viewBox="0 0 32 32" style="enable-background:new 0 0 32 32;" xml:space="preserve">
<style type="text/css">
	.st0{fill:#E2E2E2;enable-background:new    ;}
</style>
<title>S_Pending_16_N@2x</title>
<path class="st0" d="M18,14.1V7c0-0.6-0.4-1-1-1h-2c-0.6,0-1,0.4-1,1v8.6c0,0.3,0.1,0.5,0.3,0.7l5.6,5.6c0.4,0.4,1,0.4,1.4,0
	l1.3-1.3c0.4-0.4,0.4-1,0-1.4l-4.4-4.4C18.1,14.6,18,14.4,18,14.1z"/>
<path class="st0" d="M18,2.2v2c0.7,0.1,1.5,0.3,2.2,0.6l1-1.8C20.2,2.6,19.1,2.3,18,2.2z"/>
<path class="st0" d="M29,10.8l-1.8,1c0.3,0.7,0.5,1.4,0.6,2.2h2C29.7,12.9,29.4,11.8,29,10.8z"/>
<path class="st0" d="M23.6,6.8c0.6,0.5,1.1,1,1.6,1.6l1.7-1c-0.7-0.9-1.5-1.7-2.3-2.3L23.6,6.8z"/>
<path class="st0" d="M27.8,18c-1.1,6.5-7.3,10.9-13.8,9.8C7.5,26.7,3.1,20.5,4.2,14C5,9,9,5,14,4.2v-2C6.4,3.3,1,10.4,2.1,18
	S10.3,31,18,29.9C24.1,29,29,24.1,29.8,18H27.8z"/>
</svg>
