<svg id="S_PlayInOut_Md_N_D_2x" data-name="S_PlayInOut_Md_N_D@2x" xmlns="http://www.w3.org/2000/svg" width="36" height="36" viewBox="0 0 36 36">
  <defs>
    <style>
      .fill {
        fill: #fff;
        fill-rule: evenodd;
        opacity: 0.65;
      }

      
    </style>
  </defs>
  <title>S_PlayInOut_Md_N_D@2x</title>
  <path id="Fill" class="fill" d="M28,5v9l4,3-4,3v9a1,1,0,0,0,1,1h2a1,1,0,0,0,1-1V20l4-3-4-3V5a1,1,0,0,0-1-1H29A1,1,0,0,0,28,5Z"/>
  <path id="Fill2" class="fill" d="M12.724,10.362L26,17,12.724,23.638A0.5,0.5,0,0,1,12,23.191V10.809A0.5,0.5,0,0,1,12.724,10.362Z"/>
  <path id="Fill3" class="fill" d="M8,5v9L4,17l4,3v9a1,1,0,0,1-1,1H5a1,1,0,0,1-1-1V20L0,17l4-3V5A1,1,0,0,1,5,4H7A1,1,0,0,1,8,5Z"/>
  </svg>