<svg id="S_PluginAudioMonoShort_Sm_N_D_2x" data-name="S_PluginAudioMonoShort_Sm_N_D@2x" xmlns="http://www.w3.org/2000/svg" width="32" height="32" viewBox="0 0 32 32">
  <defs>
    <style>
      .fill {
        fill: #fff;
        fill-rule: evenodd;
        opacity: 0.65;
      }

      
    </style>
  </defs>
  <title>S_PluginAudioMonoShort_Sm_N_D@2x</title>
  <path id="Fill" class="fill" d="M.5,18.014H8v7.5a.5.5,0,0,1-.5.5h-1a.5.5,0,0,1-.5-.5v-1.5l-1-1s-5.244,2.875-.744,8.625C-4.369,26.764,3,21.014,3,21.014l-1-1H.5a.5.5,0,0,1-.5-.5v-1A.5.5,0,0,1,.5,18.014Z" transform="translate(0 -0.014)"/>
  <path class="fill" d="M27,10.014H26v-3a1,1,0,0,0-1-1H19a1,1,0,0,0-1,1v3H14v-3a1,1,0,0,0-1-1H7a1,1,0,0,0-1,1v3H5a1,1,0,0,0-1,1v5h6v12H27a1,1,0,0,0,1-1v-16A1,1,0,0,0,27,10.014Zm-7,13.8a.5.5,0,0,1-.853.354L15.98,21.014H12.5a.5.5,0,0,1-.5-.5v-3a.5.5,0,0,1,.5-.5h3.48l3.167-3.152a.5.5,0,0,1,.853.354Z" transform="translate(0 -0.014)"/>
  </svg>