<?xml version="1.0" encoding="UTF-8"?>
<svg id="ImportedIcons" xmlns="http://www.w3.org/2000/svg" width="36" height="36" viewBox="0 0 36 36">
  <defs>
    <style>
      .fill {
        fill: #fff;
        opacity: .65;
      }
    </style>
  </defs>
  <path class="fill" d="M22.52565,10.14694c-.15709-.09609-.33766-.14694-.52181-.14694h-1.00384c-.55228,0-1,.44772-1,1v14c0,.55228.44772,1,1,1h1.01116c.17736,0,.34447-.043.49757-.13253,1.37078-.80157,8.5896-5.03084,11.56893-6.93917.6353-.40692.623-1.33414-.02059-1.72781l-11.53143-7.05356Z"/>
  <path class="fill" d="M1.94293,17.20049c-.64359.39367-.65589,1.32089-.02059,1.72781,2.97933,1.90832,10.19815,6.1376,11.56893,6.93917.15311.08953.32021.13253.49757.13253h1.01116c.55228,0,1-.44772,1-1v-14c0-.55228-.44772-1-1-1h-1.00384c-.18415,0-.36472.05085-.52181.14694L1.94293,17.20049Z"/>
</svg>