<svg id="S_PluginVideoShort_Sm_N_D_2x" data-name="S_PluginVideoShort_Sm_N_D@2x" xmlns="http://www.w3.org/2000/svg" width="32" height="32" viewBox="0 0 32 32">
  <defs>
    <style>
      .fill {
        fill: #fff;
        opacity: 0.65;
      }

      
    </style>
  </defs>
  <title>S_PluginVideoShort_Sm_N_D@2x</title>
  <path id="Fill" class="fill" d="M.5,18H8v7.5a.5.5,0,0,1-.5.5h-1a.5.5,0,0,1-.5-.5V24L5,23s-5.244,2.875-.744,8.625C-4.369,26.75,3,21,3,21L2,20H.5a.5.5,0,0,1-.5-.5v-1A.5.5,0,0,1,.5,18Z"/>
  <rect class="fill" x="10" y="14" width="2" height="2" rx="0.5" ry="0.5"/>
  <rect class="fill" x="10" y="18" width="2" height="2" rx="0.5" ry="0.5"/>
  <path class="fill" d="M27,10H26V7a1,1,0,0,0-1-1H19a1,1,0,0,0-1,1v3H14V7a1,1,0,0,0-1-1H7A1,1,0,0,0,6,7v3H5a1,1,0,0,0-1,1v5H8V13a1,1,0,0,1,1-1H23a1,1,0,0,1,1,1V24H21.5a.5.5,0,0,0,.5-.5v-1a.5.5,0,0,0-.5-.5h-1a.5.5,0,0,0-.5.5v1a.5.5,0,0,0,.5.5h-9a.5.5,0,0,0,.5-.5v-1a.5.5,0,0,0-.5-.5h-1a.5.5,0,0,0-.5.5v1a.5.5,0,0,0,.5.5H10v4H27a1,1,0,0,0,1-1V11A1,1,0,0,0,27,10Z"/>
  <rect class="fill" x="20" y="18" width="2" height="2" rx="0.5" ry="0.5"/>
  <rect class="fill" x="20" y="14" width="2" height="2" rx="0.5" ry="0.5"/>
  </svg>