<svg id="S_PluginMixedPresetShort_Sm_N_D_2x" data-name="S_PluginMixedPresetShort_Sm_N_D@2x" xmlns="http://www.w3.org/2000/svg" width="32" height="32" viewBox="0 0 32 32">
  <defs>
    <style>
      .fill {
        fill: #fff;
        fill-rule: evenodd;
      }

      .background, .fill {
        opacity: 0.65;
      }

      .background {
        isolation: isolate;
      }

      
    </style>
  </defs>
  <title>S_PluginMixedPresetShort_Sm_N_D@2x</title>
  <path class="fill" d="M26.5,9.793l2.921,1.89a.412.412,0,0,0,.622-.452l-.9-3.362,2.7-2.194a.412.412,0,0,0-.237-.731l-3.474-.187L26.884,1.513a.412.412,0,0,0-.768,0L24.864,4.759l-3.474.187a.412.412,0,0,0-.237.731l2.7,2.194-.9,3.362a.412.412,0,0,0,.622.452Z"/>
  <path class="fill" d="M26.5,12.176l-1.834,1.187a2.406,2.406,0,0,1-1.31.389,2.432,2.432,0,0,1-1.915-.946,2.392,2.392,0,0,1-.416-2.088L21.216,10H14V7a1,1,0,0,0-1-1H7A1,1,0,0,0,6,7v3H5a1,1,0,0,0-1,1v5h6V28H27a1,1,0,0,0,1-1V13.146Z"/>
  <path id="Fill" class="fill" d="M.5,18H8v7.5a.5.5,0,0,1-.5.5h-1a.5.5,0,0,1-.5-.5V24L5,23s-5.244,2.875-.744,8.625C-4.369,26.75,3,21,3,21L2,20H.5a.5.5,0,0,1-.5-.5v-1A.5.5,0,0,1,.5,18Z"/>
  <path id="f" class="background" d="M13.787,17.825H15.4c-.152.8-1.677,6.931-2.031,8.013-.034.088,0,.142.067.142.135-.018.915.053,1.321,0,.084-.018.118-.035.135-.124.355-1.153,1.288-4.7,1.947-8.031h1.727a6.928,6.928,0,0,0,1.372-.106l-.1-.97a.065.065,0,0,0-.068-.089H17.156l.224-1.044c.423-2.056,1.3-2.451,1.994-2.451a6.083,6.083,0,0,1,1.083.291c.05.018.084-.018.1-.089l.22-1.028a.132.132,0,0,0-.067-.142,5.389,5.389,0,0,0-1.317-.2c-1.64,0-2.823,1.028-3.381,3.705l-.224.955H14.159c-.051,0-.085.018-.1.089l-.338.97-.005.035C13.719,17.761,13.742,17.753,13.787,17.825Z"/>
  <path id="x" class="background" d="M19.861,16.762c-.029-.06,0-.106.044-.106h1.208c.058,0,.073.015.087.061l1,2.583v.017l2.408-2.57c.043-.061.058-.091.131-.091h1.193c.073,0,.088.061.044.106-.7.836-2.194,2.312-3.009,3.254.408.912,1.481,2.794,1.8,3.523.029.061,0,.106-.058.106H23.53c-.058,0-1.51-2.87-1.51-2.87h-.014c-.524.714-2.217,2.87-2.29,2.87h-1.25a.06.06,0,0,1-.029-.106c.917-1.079,2.026-2.536,2.914-3.584Z"/>
  </svg>