<svg id="S_PlayAroundEdit_Md_N_D_2x" data-name="S_PlayAroundEdit_Md_N_D@2x" xmlns="http://www.w3.org/2000/svg" width="36" height="36" viewBox="0 0 36 36">
  <defs>
    <style>
      .fill {
        fill: #fff;
        fill-rule: evenodd;
        opacity: 0.65;
      }

      
    </style>
  </defs>
  <title>S_PlayAroundEdit_Md_N_D@2x</title>
  <path class="fill" d="M14,17L3.5,23.864A1,1,0,0,1,2,23V11a1,1,0,0,1,1.5-.864Z"/>
  <path class="fill" d="M34,17L23.5,23.864A1,1,0,0,1,22,23V11a1,1,0,0,1,1.5-.864Z"/>
  <rect class="fill" x="16" y="10" width="2" height="18"/>
  <path class="fill" d="M17,8L12.117,2.82A0.5,0.5,0,0,1,12.5,2h9a0.5,0.5,0,0,1,.384.82Z"/>
  </svg>