<svg id="S_PlayAroundEdit_Lg_N_D_2x" data-name="S_PlayAroundEdit_Lg_N_D@2x" xmlns="http://www.w3.org/2000/svg" width="44" height="36" viewBox="0 0 44 36">
  <defs>
    <style>
      .fill {
        fill: #fff;
        fill-rule: evenodd;
        opacity: 0.65;
      }

      
    </style>
  </defs>
  <title>S_PlayAroundEdit_Lg_N_D@2x</title>
  <path id="Fill" class="fill" d="M4.752,10.439L16,17,4.752,23.561A0.5,0.5,0,0,1,4,23.129V10.871A0.5,0.5,0,0,1,4.752,10.439Z"/>
  <path id="Fill2" class="fill" d="M26.752,10.439L38,17,26.752,23.561A0.5,0.5,0,0,1,26,23.129V10.871A0.5,0.5,0,0,1,26.752,10.439Z"/>
  <path id="Fill3" class="fill" d="M16.116,3.139L21,9l4.884-5.861A0.5,0.5,0,0,0,26,2.819V2.5A0.5,0.5,0,0,0,25.5,2h-9a0.5,0.5,0,0,0-.5.5V2.819A0.5,0.5,0,0,0,16.116,3.139Z"/>
  <path id="Fill4" class="fill" d="M20,10.5V27a1,1,0,0,0,1,1h0a1,1,0,0,0,1-1V10.5a0.5,0.5,0,0,0-.5-0.5h-1A0.5,0.5,0,0,0,20,10.5Z"/>
  </svg>