<svg id="S_PluginAudioMonoPresetShort_Sm_N_D_2x" data-name="S_PluginAudioMonoPresetShort_Sm_N_D@2x" xmlns="http://www.w3.org/2000/svg" width="32" height="32" viewBox="0 0 32 32">
  <defs>
    <style>
      .fill {
        fill: #fff;
        fill-rule: evenodd;
        opacity: 0.65;
      }

      
    </style>
  </defs>
  <title>S_PluginAudioMonoPresetShort_Sm_N_D@2x</title>
  <path class="fill" d="M26.5,9.793l2.921,1.89a.412.412,0,0,0,.622-.452l-.9-3.362,2.7-2.194a.412.412,0,0,0-.237-.731l-3.474-.187L26.884,1.513a.412.412,0,0,0-.768,0L24.864,4.759l-3.474.187a.412.412,0,0,0-.237.731l2.7,2.194-.9,3.362a.412.412,0,0,0,.622.452Z"/>
  <path class="fill" d="M26.5,12.176l-1.834,1.187a2.406,2.406,0,0,1-1.31.389,2.432,2.432,0,0,1-1.915-.946,2.392,2.392,0,0,1-.416-2.088L21.216,10H14V7a1,1,0,0,0-1-1H7A1,1,0,0,0,6,7v3H5a1,1,0,0,0-1,1v5h6V28H27a1,1,0,0,0,1-1V13.146ZM20,23.8a.5.5,0,0,1-.853.354L15.98,21H12.5a.5.5,0,0,1-.5-.5v-3a.5.5,0,0,1,.5-.5h3.48l3.167-3.152A.5.5,0,0,1,20,14.2Z"/>
  <path id="Fill" class="fill" d="M.5,18H8v7.5a.5.5,0,0,1-.5.5h-1a.5.5,0,0,1-.5-.5V24L5,23s-5.244,2.875-.744,8.625C-4.369,26.75,3,21,3,21L2,20H.5a.5.5,0,0,1-.5-.5v-1A.5.5,0,0,1,.5,18Z"/>
  </svg>