<svg id="S_PlayAudio_Wi_N_D_2x" data-name="S_PlayAudio_Wi_N_D@2x" xmlns="http://www.w3.org/2000/svg" width="40" height="26" viewBox="0 0 40 26">
  <defs>
    <style>
      .fill {
        fill: #fff;
        fill-rule: evenodd;
        opacity: 0.65;
      }

      
    </style>
  </defs>
  <title>S_PlayAudio_Wi_N_D@2x</title>
  <path class="fill" d="M7.882,6H6.5a0.5,0.5,0,0,0-.5.5v13a0.5,0.5,0,0,0,.5.5H7.882a0.5,0.5,0,0,0,.224-0.053L22,13,8.106,6.053A0.5,0.5,0,0,0,7.882,6Z"/>
  <path class="fill" d="M28,7.4c2.675,0.75,4.511,2.685,4.511,4.685a6.473,6.473,0,0,1-1.7,4.3c1.787-.085,3.468-2.188,3.34-5.043-0.089-2-5.682-6.456-6.478-7.915a0.618,0.618,0,0,0-.316-0.36A1,1,0,0,0,26,4V18.565a4.593,4.593,0,0,0-2.688.677c-1.6.957-2.422,2.907-1.714,4.029s3,1,4.6.043a3.261,3.261,0,0,0,1.8-2.5V7.4Z"/>
  <path class="fill" d="M27.671,3.426a0.965,0.965,0,0,0-.316-0.36A1,1,0,0,0,26,4S28.483,4.875,27.671,3.426Z"/>
  </svg>