<svg id="SP_PowerNA_Sm_N_D_2x" data-name="SP_PowerNA_Sm_N_D@2x" xmlns="http://www.w3.org/2000/svg" width="32" height="32" viewBox="0 0 32 32">
  <defs>
    <style>
      .fill {
        fill: #fff;
        opacity: 0.65;
      }

      
    </style>
  </defs>
  <title>SP_PowerNA_Sm_N_D@2x</title>
  <path class="fill" d="M10.31,9.31a8.98,8.98,0,0,1,.88-0.47L10.35,7.03a10.972,10.972,0,0,0-1.48.84ZM24.135,23.135A11.009,11.009,0,0,0,19.65,7.03L18.81,8.84a9.008,9.008,0,0,1,3.875,12.845ZM4,17a11.005,11.005,0,0,0,17.135,9.135l-1.45-1.45A9.007,9.007,0,0,1,7.31,12.31L5.87,10.87A10.933,10.933,0,0,0,4,17Z"/>
  <path class="fill" d="M14,4.5V13l2,2V4.5A0.5,0.5,0,0,0,15.5,4h-1A0.5,0.5,0,0,0,14,4.5Z"/>
  <rect class="fill" x="13.999" y="-0.678" width="2" height="35.357" rx="0.5" ry="0.5" transform="translate(-7.628 15.584) rotate(-44.998)"/>
  </svg>