<?xml version="1.0" encoding="UTF-8" standalone="no"?>
<svg width="17px" height="16px" viewBox="0 0 17 16" version="1.1" xmlns="http://www.w3.org/2000/svg" xmlns:xlink="http://www.w3.org/1999/xlink">
    <!-- Generator: Sketch 40.1 (33804) - http://www.bohemiancoding.com/sketch -->
    <title>position@2x</title>
    <desc>Created with Sketch.</desc>
    <defs></defs>
    <g id="Inspector-&amp;-Layers-Spec-04" stroke="none" stroke-width="1" fill="none" fill-rule="evenodd" opacity="0.617537313">
        <g id="Graphics-Panel-Current" transform="translate(-1568.000000, -418.000000)" fill="#FFFFFF">
            <g id="position" transform="translate(1567.000000, 418.000000)">
                <path d="M9.90846845,7.80980645 L9.90846845,3.09677419 L11.8624381,3.09677419 C11.9667609,3.0969612 12.0608943,3.03408368 12.1008422,2.93752944 C12.14079,2.8409752 12.1186626,2.72981378 12.0448018,2.656 L9.39331693,0 L6.74234724,2.656 C6.66848644,2.72981378 6.64635898,2.8409752 6.68630684,2.93752944 C6.72625469,3.03408368 6.82038812,3.0969612 6.92471087,3.09677419 L8.87816542,3.09677419 L8.87816542,7.80980645 L8.87816542,12.5228387 L6.92471087,12.5228387 C6.82038812,12.5226517 6.72625469,12.5855292 6.68630684,12.6820835 C6.64635898,12.7786377 6.66848644,12.8897991 6.74234724,12.9636129 L9.39331693,15.6196129 L12.0448018,12.9636129 C12.1186626,12.8897991 12.14079,12.7786377 12.1008422,12.6820835 C12.0608943,12.5855292 11.9667609,12.5226517 11.8624381,12.5228387 L9.90846845,12.5228387 L9.90846845,7.80980645 Z" id="Combined-Shape" opacity="0.65"></path>
                <path d="M9.82506061,7.89337256 L9.82506061,2.66421127 L11.7790303,2.66421127 C11.8833531,2.66439828 11.9774865,2.60152076 12.0174343,2.50496652 C12.0573822,2.40841228 12.0352547,2.29725086 11.9613939,2.22343708 L9.30990909,-0.43256292 L6.65893939,2.22343708 C6.5850786,2.29725086 6.56295114,2.40841228 6.60289899,2.50496652 C6.64284684,2.60152076 6.73698027,2.66439828 6.84130303,2.66421127 L8.79475758,2.66421127 L8.79475758,7.89337256 L8.79475758,13.1225339 L6.84130303,13.1225339 C6.73698027,13.1223468 6.64284684,13.1852244 6.60289899,13.2817786 C6.56295114,13.3783329 6.5850786,13.4894943 6.65893939,13.563308 L9.30990909,16.219308 L11.9613939,13.563308 C12.0352547,13.4894943 12.0573822,13.3783329 12.0174343,13.2817786 C11.9774865,13.1852244 11.8833531,13.1223468 11.7790303,13.1225339 L9.82506061,13.1225339 L9.82506061,7.89337256 Z" id="Combined-Shape" opacity="0.65" transform="translate(9.310167, 7.893373) rotate(-270.000000) translate(-9.310167, -7.893373) "></path>
            </g>
        </g>
    </g>
</svg>