<svg xmlns="http://www.w3.org/2000/svg" data-name="S_Polygon_Lg_N_D@2x" height="36" id="S_Polygon_Lg_N_D_2x" viewBox="0 0 44 36" width="44">
  <defs>
    <style>
      .fill{
		fill: #FFF;
		opacity: 0.65;
		fill-rule: evenodd;
		}

      .fillPale{
		fill: #FFF;
		opacity: 0.15;
		fill-rule: evenodd;
		}        
      
    </style>
  </defs>
  <path class="fill" d="M38.61,17.53L30.942,4.565A1.077,1.077,0,0,0,29.995,4H14.046a1.077,1.077,0,0,0-.945.561l-7.708,12.9a1.077,1.077,0,0,0,0,1.03L13.1,31.438a1.077,1.077,0,0,0,.946.563H30a1.077,1.077,0,0,0,.946-0.563l7.666-12.882A1.077,1.077,0,0,0,38.61,17.53ZM29.447,30H14.6L7.388,17.98,14.593,6h14.85l7.169,12.04Z" />
  <polygon class="fillPale" points="29.447 30 14.595 30 7.388 17.98 14.593 6 29.444 6 36.613 18.04 29.447 30" />
  </svg>