<svg xmlns="http://www.w3.org/2000/svg" data-name="S_ProjectOpenNone_16_N_D@2x" height="32" id="S_ProjectOpenNone_16_N_D_2x" viewBox="0 0 32 32" width="32">
  <defs>
    <style>
      .fill {
        fill: #fff;
        fill-rule: evenodd;
        opacity: 0.65;
      }

      
    </style>
  </defs>
  <path class="fill" d="M16.207,2l5.617,5.617A.6.6,0,0,1,22,8.042V27a1,1,0,0,1-1,1H3a1,1,0,0,1-1-1V3A1,1,0,0,1,3,2Zm.166-2H3A3,3,0,0,0,0,3V27a3,3,0,0,0,3,3H21a3,3,0,0,0,3-3V8.042A2.6,2.6,0,0,0,23.238,6.2L17.5.469A1.6,1.6,0,0,0,16.373,0Z" />
  </svg>