<svg xmlns="http://www.w3.org/2000/svg" data-name="S_ProjectAliasReadWrite_Xl_N_D@2x" height="64" id="S_ProjectAliasReadWrite_Xl_N_D_2x" viewBox="0 0 64 64" width="64">
  <defs>
    <style>
      .fill {
        fill: #fff;
        fill-rule: evenodd;
        opacity: 0.65;
      }

      .green {
        fill: #149b14;
      }

      
    </style>
  </defs>
  <path class="fill" d="M22.6,9.8A2,2,0,0,0,21,9H6a2,2,0,0,0-2,2v2H24.8Z" />
  <path class="green" d="M35.092,58.191l-9.053,3.471,3.473-9.039ZM56.59,23h-.04a1.455,1.455,0,0,0-.983.431L28.045,51.66,23.922,62.874c-.251.762.111,1.086.895.895l11.229-4.1,27.523-28.23A1.459,1.459,0,0,0,64,30.5a1.293,1.293,0,0,0-.381-1.005L57.51,23.375A1.287,1.287,0,0,0,56.59,23Z" />
  <path class="fill" d="M46.313,52H58a2,2,0,0,0,2-2V37.961Z" />
  <path class="fill" d="M26.315,50.569,54.136,22.034A3.447,3.447,0,0,1,56.481,21h.12a3.312,3.312,0,0,1,2.321.958L60,23.038V18a2,2,0,0,0-2-2H4V50a2,2,0,0,0,2,2H25.79ZM12.828,47.43c-.618.026-1.69-6.485,1.4-13.136a34.987,34.987,0,0,1,6.056-8.75l-5.1-4.991a.319.319,0,0,1-.1-.229A.323.323,0,0,1,15.408,20H32V36.232a.327.327,0,0,1-.086.213.324.324,0,0,1-.457.016L26.172,31.3A27.258,27.258,0,0,0,15,42.794C13.842,45.208,14.605,47.354,12.828,47.43Z" />
  </svg>