<svg id="S_PreviousEditPoint_32x32_N_D_2x" data-name="S_PreviousEditPoint_32x32_N_D@2x" xmlns="http://www.w3.org/2000/svg" width="64" height="64" viewBox="0 0 64 64">
  <defs>
    <style>
      .cls-1 {
        opacity: 0.3;
      }

      .background, .fill {
        opacity: 0.65;
      }

      .fill {
        fill: #fff;
        fill-rule: evenodd;
      }

      
    </style>
  </defs>
  <title>S_PreviousEditPoint_32x32_N_D@2x</title>
  <path id="Ellipse" class="cls-1" d="M60,32A28,28,0,1,0,32,60,28,28,0,0,0,60,32Z"/>
  <path id="Fill" class="background" d="M19,20a3,3,0,0,0-3,3V41a3,3,0,0,0,3,3h2a3,3,0,0,0,3-3V23a3,3,0,0,0-3-3Zm0,2h2a1,1,0,0,1,1,1V41a1,1,0,0,1-1,1H19a1,1,0,0,1-1-1V23A1,1,0,0,1,19,22Z"/>
  <path id="Fill-2" data-name="Fill" class="fill" d="M22,23V41a1,1,0,0,1-1,1H19a1,1,0,0,1-1-1V23a1,1,0,0,1,1-1h2A1,1,0,0,1,22,23Z"/>
  <path id="Fill2" class="background" d="M45,22.564a1,1,0,0,1,1,1V40.288a1,1,0,0,1-1.491.871L28.275,32,44.5,22.7A.994.994,0,0,1,45,22.564Zm0-2a3,3,0,0,0-1.49.4l-16.228,9.3-3.051,1.749,3.063,1.728L43.526,42.9A3,3,0,0,0,48,40.288V23.566A3,3,0,0,0,45,20.564Z"/>
  <path id="Fill2-2" data-name="Fill2" class="fill" d="M46,23.566V40.288a1,1,0,0,1-1.491.871L28.275,32,44.5,22.7A1,1,0,0,1,46,23.566Z"/>
  </svg>