<svg xmlns="http://www.w3.org/2000/svg" data-name="S_ProjectAliasReadWrite_64x64_N_D@2x" height="128" id="S_ProjectAliasReadWrite_64x64_N_D_2x" viewBox="0 0 128 128" width="128">
  <defs>
    <style>
      .fill {
        fill: #fff;
        fill-rule: evenodd;
        opacity: 0.65;
      }

      .green {
        fill: #149b14;
      }

      
    </style>
  </defs>
  <path class="fill" d="M45.2,21.6A4,4,0,0,0,42,20H12a4,4,0,0,0-4,4v4H49.6Z" />
  <path class="green" d="M71.062,114.3l-17.2,6.6,6.6-17.179ZM111.918,47.42h-.076a2.77,2.77,0,0,0-1.868.818l-52.3,53.649L49.835,123.2c-.478,1.448.21,2.064,1.7,1.7l21.339-7.8,52.3-53.648A2.773,2.773,0,0,0,126,61.67a2.468,2.468,0,0,0-.724-1.911l-11.6-11.626A2.447,2.447,0,0,0,111.918,47.42Z" />
  <path class="fill" d="M91.233,104H116a4,4,0,0,0,4-4V74.493Z" />
  <path class="fill" d="M54.21,99.705l52.9-54.259a6.75,6.75,0,0,1,4.589-2.023l.144,0h.095a6.48,6.48,0,0,1,4.554,1.883L120,48.817V36a4,4,0,0,0-4-4H8v68a4,4,0,0,0,4,4H52.631ZM30,85.588c-2.318,4.828-.793,9.119-4.346,9.271-1.236.053-3.38-12.968,2.8-26.271a69.955,69.955,0,0,1,12.114-17.5l-10.2-9.983a.638.638,0,0,1-.193-.457A.646.646,0,0,1,30.815,40H64V72.465a.645.645,0,0,1-1.086.457L52.344,62.59A54.5,54.5,0,0,0,30,85.588Z" />
  </svg>