<?xml version="1.0" encoding="UTF-8"?>
<svg id="a" xmlns="http://www.w3.org/2000/svg" viewBox="0 0 87.88 80.94">
  <defs>
    <style>
      .cls-1 {
        fill: #8f8f8f;
      }
    </style>
  </defs>
  <path class="cls-1" d="m59.68,36.96c-.83,0-1.5.67-1.5,1.5v32.14c0,1.63-1.33,2.96-2.96,2.96H19.51c-1.63,0-2.96-1.33-2.96-2.96v-9.07c0-.83-.67-1.5-1.5-1.5s-1.5.67-1.5,1.5v9.07c0,3.29,2.67,5.96,5.96,5.96h35.71c3.29,0,5.96-2.67,5.96-5.96v-32.14c0-.83-.67-1.5-1.5-1.5Z"/>
  <path class="cls-1" d="m15.05,33.06c.83,0,1.5-.67,1.5-1.5v-9.17c0-1.63,1.33-2.96,2.96-2.96h23.5v11.52c0,2.06,1.67,3.73,3.73,3.73h12.84c.19,0,.39-.04.57-.12.14-.06.25-.15.37-.24.04-.03.08-.04.12-.08,0,0,0,0,0,0,.14-.14.25-.3.33-.49.08-.18.12-.38.12-.57,0,0,0,0,0,0,0-.04-.02-.08-.02-.12-.01-.15-.03-.3-.09-.45-.06-.14-.15-.26-.25-.38-.03-.03-.04-.07-.07-.11l-15.07-15.25s0,0,0,0c-.14-.14-.3-.25-.49-.33-.18-.08-.38-.12-.57-.12,0,0,0,0,0,0h-25c-3.29,0-5.96,2.67-5.96,5.96v9.17c0,.83.67,1.5,1.5,1.5h0Zm30.96-2.11v-9.37l9.98,10.1h-9.25c-.4,0-.73-.33-.73-.73Z"/>
  <path class="cls-1" d="m81.8,24.2c-.83,0-1.5.67-1.5,1.5v32.14c0,1.63-1.33,2.96-2.96,2.96h-12.96c-.83,0-1.5.67-1.5,1.5s.67,1.5,1.5,1.5h12.96c3.29,0,5.96-2.67,5.96-5.96V25.7c0-.83-.67-1.5-1.5-1.5Z"/>
  <path class="cls-1" d="m65.12,18.18c0,2.06,1.67,3.73,3.73,3.73h12.84c.19,0,.39-.04.57-.12.14-.06.25-.15.37-.24.04-.03.08-.04.12-.08,0,0,0,0,0,0,.14-.14.25-.3.33-.49.08-.18.12-.38.12-.57,0,0,0,0,0,0,0-.04-.02-.08-.02-.12-.01-.15-.03-.3-.09-.45-.06-.14-.15-.26-.25-.38-.03-.03-.04-.07-.07-.11l-15.07-15.25s0,0,0,0c-.14-.14-.3-.25-.48-.33-.18-.08-.38-.12-.57-.12,0,0,0,0,0,0h-25c-3.29,0-5.96,2.67-5.96,5.96v3.28c0,.83.67,1.5,1.5,1.5s1.5-.67,1.5-1.5v-3.28c0-1.63,1.33-2.96,2.96-2.96h23.5v11.52h0Zm3,0v-9.37l9.98,10.1h-9.25c-.4,0-.73-.33-.73-.73h0Z"/>
  <path class="cls-1" d="m16.55,52.36v-4.58h4.58c.83,0,1.5-.67,1.5-1.5s-.67-1.5-1.5-1.5h-4.58v-4.15c0-.83-.67-1.5-1.5-1.5s-1.5.67-1.5,1.5v4.15h-4.58c-.83,0-1.5.67-1.5,1.5s.67,1.5,1.5,1.5h4.58v4.58c0,.83.67,1.5,1.5,1.5s1.5-.67,1.5-1.5Z"/>
  <path class="cls-1" d="m26.56,46.5c0-6.35-5.16-11.51-11.51-11.51s-11.51,5.16-11.51,11.51,5.16,11.51,11.51,11.51,11.51-5.16,11.51-11.51Zm-20.02,0c0-4.69,3.82-8.51,8.51-8.51s8.51,3.82,8.51,8.51-3.82,8.51-8.51,8.51-8.51-3.82-8.51-8.51Z"/>
</svg>