<svg xmlns="http://www.w3.org/2000/svg" data-name="S_ProjectOpenEditOther_16_N_D@2x" height="32" id="S_ProjectOpenEditOther_16_N_D_2x" viewBox="0 0 32 32" width="32">
  <defs>
    <style>
      .cls-1 {
        fill: #f53c3c;
      }

      .fill {
        fill: #fff;
        fill-rule: evenodd;
        opacity: 0.65;
      }

      
    </style>
  </defs>
  <path class="cls-1" d="M29,20H28V18a6,6,0,0,0-12,0v2H15a1,1,0,0,0-1,1V31a1,1,0,0,0,1,1H29a1,1,0,0,0,1-1V21A1,1,0,0,0,29,20ZM18.4,18a3.6,3.6,0,0,1,7.2,0v2H18.4Zm4.924,9.3v1.718a.888.888,0,0,1-.875.9H21.415a.888.888,0,0,1-.875-.9V27.3a2.515,2.515,0,0,1-.87-1.826,2.276,2.276,0,1,1,4.55,0A2.34,2.34,0,0,1,23.324,27.3Z" />
  <path class="fill" d="M12,28H3a1,1,0,0,1-1-1V3A1,1,0,0,1,3,2H16.207l5.617,5.617A.6.6,0,0,1,22,8.042V10a8,8,0,0,1,2,.263V8.042A2.6,2.6,0,0,0,23.239,6.2L17.5.469A1.6,1.6,0,0,0,16.373,0H3A3,3,0,0,0,0,3V27a3,3,0,0,0,3,3h9Z" />
  </svg>