<svg id="S_ProjectAliasReadOnly_48x48_N_D_2x" data-name="S_ProjectAliasReadOnly_48x48_N_D@2x" xmlns="http://www.w3.org/2000/svg" width="96" height="96" viewBox="0 0 96 96">
  <defs>
    <style>
      .fill {
        fill: #fff;
        fill-rule: evenodd;
        opacity: 0.65;
      }

      .red {
        fill: #f53c3c;
      }

      
    </style>
  </defs>
  <title>S_ProjectAliasReadOnly_48x48_N_D@2x</title>
  <path class="fill" d="M33.9,15.2A3,3,0,0,0,31.5,14H9a3,3,0,0,0-3,3v3H37.2Z"/>
  <path class="fill" d="M48,66a9.015,9.015,0,0,1,6-8.486V57A20.981,20.981,0,0,1,90,42.331V27a3,3,0,0,0-3-3H6V75a3,3,0,0,0,3,3H48Zm-.814-11.309-7.928-7.749A40.878,40.878,0,0,0,22.5,64.191c-1.739,3.621-.594,6.839-3.26,6.954-.927.04-2.535-9.727,2.1-19.7a52.468,52.468,0,0,1,9.085-13.125l-7.653-7.487a.479.479,0,0,1-.145-.343A.485.485,0,0,1,23.112,30H48V54.349a.49.49,0,0,1-.13.319A.485.485,0,0,1,47.186,54.691Z"/>
  <path class="red" d="M93,63H90V57a15,15,0,0,0-30,0v6H57a3,3,0,0,0-3,3V93a3,3,0,0,0,3,3H93a3,3,0,0,0,3-3V66A3,3,0,0,0,93,63ZM66,57a9,9,0,0,1,18,0v6H66ZM79.149,82.146V87.3A2.663,2.663,0,0,1,76.524,90h-3.1A2.663,2.663,0,0,1,70.8,87.3V82.146a7.544,7.544,0,0,1-2.609-5.479,6.828,6.828,0,1,1,13.65,0A7.015,7.015,0,0,1,79.149,82.146Z"/>
  </svg>