<svg id="S_ProjectAliasReadOnly_Xl_N_D_2x" data-name="S_ProjectAliasReadOnly_Xl_N_D@2x" xmlns="http://www.w3.org/2000/svg" width="64" height="64" viewBox="0 0 64 64">
  <defs>
    <style>
      .fill {
        fill: #fff;
        fill-rule: evenodd;
        opacity: 0.65;
      }

      .red {
        fill: #f53c3c;
      }

      
    </style>
  </defs>
  <title>S_ProjectAliasReadOnly_Xl_N_D@2x</title>
  <path class="fill" d="M22.6,9.8A2,2,0,0,0,21,9H6a2,2,0,0,0-2,2v2H24.8Z"/>
  <path class="fill" d="M32,44a6.01,6.01,0,0,1,4-5.657V38a13.987,13.987,0,0,1,24-9.779V18a2,2,0,0,0-2-2H4V50a2,2,0,0,0,2,2H32Zm-.543-7.539-5.285-5.166A27.252,27.252,0,0,0,15,42.794c-1.159,2.414-.4,4.56-2.173,4.636-.618.026-1.69-6.484,1.4-13.136a34.979,34.979,0,0,1,6.057-8.75l-5.1-4.991a.319.319,0,0,1-.1-.229A.323.323,0,0,1,15.408,20H32V36.232a.327.327,0,0,1-.086.213A.323.323,0,0,1,31.457,36.461Z"/>
  <path class="red" d="M62,42H60V38a10,10,0,0,0-20,0v4H38a2,2,0,0,0-2,2V62a2,2,0,0,0,2,2H62a2,2,0,0,0,2-2V44A2,2,0,0,0,62,42ZM44,38a6,6,0,0,1,12,0v4H44Zm8.766,16.764V58.2a1.775,1.775,0,0,1-1.75,1.8H48.947a1.775,1.775,0,0,1-1.75-1.8V54.764a5.03,5.03,0,0,1-1.74-3.652,4.552,4.552,0,1,1,9.1,0A4.677,4.677,0,0,1,52.766,54.764Z"/>
  </svg>