<svg xmlns="http://www.w3.org/2000/svg" data-name="S_ProjectAliasReadWrite_Sm_N_D@2x" height="32" id="S_ProjectAliasReadWrite_Sm_N_D_2x" viewBox="0 0 32 32" width="32">
  <defs>
    <style>
      .fill {
        fill: #fff;
        fill-rule: evenodd;
        opacity: 0.65;
      }

      .green {
        fill: #149b14;
      }

      
    </style>
  </defs>
  <path class="fill" d="M11.3,4.4a1,1,0,0,0-.8-.4H3A1,1,0,0,0,2,5V6H12.4Z" />
  <path class="fill" d="M11.233,24.283l.147-.4.3-.3L27.005,8H2V25a1,1,0,0,0,1,1h7.6Zm-4.819-.568c-.309.013-.845-3.242.7-6.568a17.475,17.475,0,0,1,3.028-4.375l-2.551-2.5A.161.161,0,0,1,7.7,10H16v8.116a.164.164,0,0,1-.043.107.16.16,0,0,1-.228.007l-2.643-2.583A13.634,13.634,0,0,0,7.5,21.4C6.921,22.6,7.3,23.677,6.414,23.715Z" />
  <path class="fill" d="M23.24,26H29a1,1,0,0,0,1-1V19.13Z" />
  <path class="green" d="M16.809,28.4l-4.752,1.822,1.823-4.745ZM28.094,9.929h-.021a.761.761,0,0,0-.516.226L13.11,24.973l-2.164,5.886c-.132.4.058.57.47.47l5.894-2.154L31.757,14.357a.769.769,0,0,0,.225-.492.679.679,0,0,0-.2-.528l-3.2-3.211A.672.672,0,0,0,28.094,9.929Z" />
  </svg>