<svg xmlns="http://www.w3.org/2000/svg" data-name="S_ProjectAliasReadWrite_48x48_N_D@2x" height="96" id="S_ProjectAliasReadWrite_48x48_N_D_2x" viewBox="0 0 96 96" width="96">
  <defs>
    <style>
      .fill {
        fill: #fff;
        fill-rule: evenodd;
        opacity: 0.65;
      }

      .green {
        fill: #149b14;
      }

      
    </style>
  </defs>
  <path class="fill" d="M33.9,15.2A3,3,0,0,0,31.5,14H9a3,3,0,0,0-3,3v3H37.2Z" />
  <path class="fill" d="M41.263,74.961l40.36-41.4a5.1,5.1,0,0,1,3.47-1.528l.1,0h.035a4.923,4.923,0,0,1,3.475,1.418L90,34.748V27a3,3,0,0,0-3-3H6V75a3,3,0,0,0,3,3H40.145ZM22.5,64.191c-1.738,3.621-.594,6.839-3.259,6.954-.927.039-2.535-9.727,2.1-19.7a52.47,52.47,0,0,1,9.086-13.125l-7.653-7.487A.484.484,0,0,1,23.112,30H48V54.349a.489.489,0,0,1-.13.319.483.483,0,0,1-.684.023l-7.928-7.749A40.88,40.88,0,0,0,22.5,64.191Z" />
  <path class="fill" d="M69.6,78H87a3,3,0,0,0,3-3V57.076Z" />
  <path class="green" d="M54.077,86.068,40.948,91.1l5.037-13.109ZM85.254,35.033H85.2a2.106,2.106,0,0,0-1.425.625L43.857,76.6,37.879,92.858c-.365,1.106.16,1.575,1.3,1.3l16.284-5.951L95.374,47.267A2.117,2.117,0,0,0,96,45.907a1.877,1.877,0,0,0-.553-1.458l-8.854-8.872A1.872,1.872,0,0,0,85.254,35.033Z" />
  </svg>