<svg id="S_ProjectAliasReadOnly_64x64_N_D_2x" data-name="S_ProjectAliasReadOnly_64x64_N_D@2x" xmlns="http://www.w3.org/2000/svg" width="128" height="128" viewBox="0 0 128 128">
  <defs>
    <style>
      .fill {
        fill: #fff;
        fill-rule: evenodd;
        opacity: 0.65;
      }

      .red {
        fill: #f53c3c;
      }

      
    </style>
  </defs>
  <title>S_ProjectAliasReadOnly_64x64_N_D@2x</title>
  <path class="fill" d="M45.2,21.6A4,4,0,0,0,42,20H12a4,4,0,0,0-4,4v4H49.6Z"/>
  <path class="fill" d="M64,88a12.02,12.02,0,0,1,8-11.314V76a27.974,27.974,0,0,1,48-19.559V36a4,4,0,0,0-4-4H8v68a4,4,0,0,0,4,4H64ZM62.914,72.922,52.344,62.59A54.5,54.5,0,0,0,30,85.588c-2.318,4.828-.792,9.119-4.346,9.271-1.236.053-3.379-12.969,2.8-26.271a69.957,69.957,0,0,1,12.114-17.5l-10.2-9.982a.638.638,0,0,1-.193-.457A.646.646,0,0,1,30.815,40H64V72.465a.653.653,0,0,1-.173.426A.646.646,0,0,1,62.914,72.922Z"/>
  <path class="red" d="M124,84h-4V76a20,20,0,0,0-40,0v8H76a4,4,0,0,0-4,4v36a4,4,0,0,0,4,4h48a4,4,0,0,0,4-4V88A4,4,0,0,0,124,84ZM88,76a12,12,0,0,1,24,0v8H88Zm17.532,33.527V116.4a3.551,3.551,0,0,1-3.5,3.6H97.895a3.551,3.551,0,0,1-3.5-3.6v-6.873a10.059,10.059,0,0,1-3.479-7.3,9.1,9.1,0,1,1,18.2,0A9.353,9.353,0,0,1,105.532,109.527Z"/>
  </svg>