<svg id="S_ProjectAliasReadOnly_Sm_N_D_2x" data-name="S_ProjectAliasReadOnly_Sm_N_D@2x" xmlns="http://www.w3.org/2000/svg" width="32" height="32" viewBox="0 0 32 32">
  <defs>
    <style>
      .fill {
        fill: #fff;
        fill-rule: evenodd;
        opacity: 0.65;
      }

      .cls-1 {
        fill: #f53c3c;
      }

      
    </style>
  </defs>
  <title>S_ProjectAliasReadOnly_Sm_N_D@2x</title>
  <path class="fill" d="M11.3,4.4a1,1,0,0,0-.8-.4H3A1,1,0,0,0,2,5V6H12.4Z"/>
  <path class="fill" d="M16,22a3.005,3.005,0,0,1,2-2.829V19a6.994,6.994,0,0,1,12-4.89V9a1,1,0,0,0-1-1H2V25a1,1,0,0,0,1,1H16Zm-.271-3.77-2.643-2.583A13.626,13.626,0,0,0,7.5,21.4c-.58,1.207-.2,2.28-1.087,2.318-.309.013-.845-3.242.7-6.568a17.489,17.489,0,0,1,3.028-4.375l-2.551-2.5a.16.16,0,0,1-.048-.114A.162.162,0,0,1,7.7,10H16v8.116a.163.163,0,0,1-.043.106A.162.162,0,0,1,15.729,18.23Z"/>
  <path class="cls-1" d="M31,21H30V19a5,5,0,0,0-10,0v2H19a1,1,0,0,0-1,1v9a1,1,0,0,0,1,1H31a1,1,0,0,0,1-1V22A1,1,0,0,0,31,21Zm-9-2a3,3,0,0,1,6,0v2H22Zm4.383,8.382V29.1a.888.888,0,0,1-.875.9H24.474a.888.888,0,0,1-.875-.9V27.382a2.515,2.515,0,0,1-.87-1.826,2.276,2.276,0,1,1,4.55,0A2.338,2.338,0,0,1,26.383,27.382Z"/>
  </svg>