<?xml version="1.0" encoding="UTF-8"?>
<svg id="icons" xmlns="http://www.w3.org/2000/svg" width="32" height="32" viewBox="0 0 32 32">
  <defs>
    <style>
      .cls-1 {
        fill: #99f;
      }

      .cls-1, .cls-2 {
        stroke-width: 0px;
      }

      .cls-2 {
        fill: #00005b;
      }
    </style>
  </defs>
  <path class="cls-2" d="m7.40039,2c-.77021,0-1.40039.63018-1.40039,1.40039v23.19922c0,.77021.63018,1.40039,1.40039,1.40039h17.19922c.77021,0,1.40039-.63018,1.40039-1.40039V7.36539c0-.26522-.10536-.51957-.29289-.70711l-4.36539-4.36539c-.18754-.18754-.44189-.29289-.70711-.29289H7.40039Z"/>
  <path class="cls-1" d="m24.59961,30H7.40039c-1.87798,0-3.40039-1.52241-3.40039-3.40039V3.40039c0-1.87798,1.52241-3.40039,3.40039-3.40039h12.73392c.79565,0,1.55871.31607,2.12132.87868l4.86569,4.86569c.56261.56261.87868,1.32567.87868,2.12132v18.73392c0,1.87798-1.52241,3.40039-3.40039,3.40039ZM7.40039,2c-.77021,0-1.40039.63018-1.40039,1.40039v23.19922c0,.77021.63018,1.40039,1.40039,1.40039h17.19922c.77021,0,1.40039-.63018,1.40039-1.40039V7.36539c0-.26522-.10536-.51957-.29289-.70711l-4.36539-4.36539c-.18754-.18754-.44189-.29289-.70711-.29289H7.40039Z"/>
  <g id="_16" data-name="16">
    <path class="cls-1" d="m10.33163,10.15488c0-.06006.01465-.10547.08984-.10547.58496-.02979,2.11328-.05615,3.01367-.05615,2.52246,0,2.46875,1.41553,2.46875,3.1875,0,2.31201-.43294,2.77083-2.48958,2.77083-.3457,0-1.25977-.04167-1.5-.04167l.0638,3.89502c0,.07471-.03027.10498-.10547.10498l-1.48926.06331c-.0752,0-.10449-.03027-.10449-.10498l.05273-9.71338Zm1.22721,4.51383c.20996.01514,1.37012-.00879,1.73047-.00879,1.06641,0,1.52083-.10026,1.52083-1.54167,0-1.15576-.09668-1.58333-1.3125-1.58333-.36035,0-1.74121-.10124-1.90625-.0861l-.03255,3.21989Z"/>
    <path class="cls-1" d="m18.22812,13.72373c0-.10498,0-.37549-.04492-.88574,0-.0752.01465-.09033.0752-.12012.55469-.22559,1.86133-.63086,3.33301-.63086.0752,0,.10449.01514.10449.09033l.0625,1.53857c0,.07471-.0293.08984-.10449.08984-.57129-.02979-1.41113.04541-1.72656.18018l-.07422,5.87109c0,.07471-.03027.10498-.10547.10498h-1.42676c-.07422,0-.10449-.03027-.10449-.10498l.01172-6.1333Z"/>
  </g>
</svg>