<svg xmlns="http://www.w3.org/2000/svg" width="32" height="32" viewBox="0 0 32 32">
  <defs>
    <style>
      .avatar {
        fill: #fff;
        fill-rule: evenodd;
        opacity: 0.7;
      }
    </style>
  </defs>
  <g id="i_c_o_n_s" data-name="i c o n s">
    <path class="avatar" d="M21.04321,23.55127c-1.46429-.12744-1.48761-1.30542-1.48767-2.77344a13.36124,13.36124,0,0,0,3.13935-7.963c0-4.82214-2.744-8.037-6.69489-8.037s-6.69489,3.21485-6.69489,8.037a13.36124,13.36124,0,0,0,3.13935,7.963c-.00006,1.468-.02338,2.646-1.48767,2.77344a11.98421,11.98421,0,0,0-6.644,3.35144,15.94714,15.94714,0,0,0,23.37452,0A11.98421,11.98421,0,0,0,21.04321,23.55127Z"/>
  </g>
</svg>
