<svg id="S_ProjectAlias_64x64_N_D_2x" data-name="S_ProjectAlias_64x64_N_D@2x" xmlns="http://www.w3.org/2000/svg" width="128" height="128" viewBox="0 0 128 128">
  <defs>
    <style>
      .fill {
        fill: #fff;
        fill-rule: evenodd;
        opacity: 0.65;
      }

      
    </style>
  </defs>
  <title>S_ProjectAlias_64x64_N_D@2x</title>
  <path class="fill" d="M45.2,21.6A4,4,0,0,0,42,20H12a4,4,0,0,0-4,4v4H49.6Z"/>
  <path class="fill" d="M116,32H8v68a4,4,0,0,0,4,4H116a4,4,0,0,0,4-4V36A4,4,0,0,0,116,32ZM64,72.465a.653.653,0,0,1-.173.426.646.646,0,0,1-.913.031L52.344,62.59A54.5,54.5,0,0,0,30,85.588c-2.318,4.828-.792,9.119-4.346,9.271-1.236.053-3.379-12.969,2.8-26.271a69.957,69.957,0,0,1,12.114-17.5l-10.2-9.982a.638.638,0,0,1-.193-.457A.646.646,0,0,1,30.815,40H64Z"/>
  </svg>