<svg xmlns="http://www.w3.org/2000/svg" data-name="S_ProjectOpenEditMe_16_N_D@2x" height="32" id="S_ProjectOpenEditMe_16_N_D_2x" viewBox="0 0 32 32" width="32">
  <defs>
    <style>
      .green {
        fill: #149b14;
      }

      .fill {
        fill: #fff;
        fill-rule: evenodd;
        opacity: 0.65;
      }

      
    </style>
  </defs>
  <path class="green" d="M14.826,29.044l-4.752,1.822L11.9,26.121ZM26.111,10.572H26.09a.763.763,0,0,0-.516.226L11.127,25.616,8.963,31.5c-.132.4.058.57.47.47l5.894-2.154L29.774,15A.769.769,0,0,0,30,14.508a.687.687,0,0,0-.2-.528l-3.2-3.211A.676.676,0,0,0,26.111,10.572Z" />
  <path class="fill" d="M9.25,24.926l.147-.4.3-.306L24,9.547V8.042A2.6,2.6,0,0,0,23.238,6.2L17.5.469A1.6,1.6,0,0,0,16.373,0H3A3,3,0,0,0,0,3V27a3,3,0,0,0,3,3H7.384Z" />
  <path class="fill" d="M17.943,30H21a3,3,0,0,0,3-3V23.787Z" />
  </svg>