<svg id="S_ProjectAlias_Sm_N_D_2x" data-name="S_ProjectAlias_Sm_N_D@2x" xmlns="http://www.w3.org/2000/svg" width="32" height="32" viewBox="0 0 32 32">
  <defs>
    <style>
      .fill {
        fill: #fff;
        fill-rule: evenodd;
        opacity: 0.65;
      }

      
    </style>
  </defs>
  <title>S_ProjectAlias_Sm_N_D@2x</title>
  <path class="fill" d="M11.3,4.4a1,1,0,0,0-.8-.4H3A1,1,0,0,0,2,5V6H12.4Z"/>
  <path class="fill" d="M29,8H2V25a1,1,0,0,0,1,1H29a1,1,0,0,0,1-1V9A1,1,0,0,0,29,8ZM16,18.116a.163.163,0,0,1-.043.106.162.162,0,0,1-.228.008l-2.643-2.583A13.626,13.626,0,0,0,7.5,21.4c-.58,1.207-.2,2.28-1.087,2.318-.309.013-.845-3.242.7-6.568a17.489,17.489,0,0,1,3.028-4.375l-2.551-2.5a.16.16,0,0,1-.048-.114A.162.162,0,0,1,7.7,10H16Z"/>
  </svg>