<svg id="S_PreviewWell_110x74_N_2x" data-name="S_PreviewWell_110x74_N@2x" xmlns="http://www.w3.org/2000/svg" width="220" height="148" viewBox="0 0 220 148">
  <defs>
    <style>
      .fillMedium {
        opacity: 0.3;
      }

      .fillPale {
        opacity: 0.15;
      }

      .fill {
        fill-rule: evenodd;
        opacity: 0.65;
      }

      
    </style>
  </defs>
  <title>S_PreviewWell_110x74_N@2x</title>
  <rect class="fillMedium" x="50" y="10" width="160" height="120"/>
  <polygon class="fillPale" points="210 10 210 4 2 4 2 144 210 144 210 130 50 130 50 10 210 10"/>
  <path id="_Path_" data-name="&lt;Path&gt;" class="fill" d="M203,136H57a1,1,0,0,0,0,2H203A1,1,0,0,0,203,136Z"/>
  <path class="fillMedium" d="M210,2H2A2,2,0,0,0,0,4V144a2,2,0,0,0,2,2H210a2,2,0,0,0,2-2V4A2,2,0,0,0,210,2Zm0,142H2V4H210V144Z"/>
  </svg>