<svg xmlns="http://www.w3.org/2000/svg" data-name="S_Razor_18_N_D@2x" height="36" id="S_Razor_18_N_D_2x" viewBox="0 0 36 36" width="36">
  <defs>
    <style>
	.fill {
        fill: #fff;
        fill-rule: evenodd;
        opacity: 0.65;
      }</style>
  </defs>
  <title>S_Razor_18_N_D@2x</title>
  <path class="fill" d="M26,22v2H24v2H22V23.094L20.874,22s-.635.243-.875,0S20,21.12,20,21.12L18.874,20s-2.081.8-2.875,0,0-2.906,0-2.906L14.937,16s-.679.259-.937,0,0-.937,0-.937L12.937,14H10V12h2V10h2v3l1,1s.724-.276,1,0,0,1,0,1l1.031,1s2.149-.785,2.969,0,0,2.969,0,2.969L21,20s.724-.268,1,0,0,.969,0,.969L23.062,22ZM4,18,18,32c3.677,3.677,4.093,2.477,6,.57l1-1c.969-1.031.969-1.062,1-1.906V28s1.375,0,1.656-.344A4.541,4.541,0,0,0,28,26h1.6c.938-.031.969-.031,1.969-1-.031,0,1-1,1-1,1.906-1.906,3.107-2.323-.57-6,0,.031-14-14-14-14-3.677-3.677-4.063-2.477-6-.57l-1,1c-.969.969-1,.969-1,2.031V8s-1.25-.031-1.656.344S8,10,8,10H6.484c-.969,0-1,.063-2.031,1l-1,1C1.516,13.907.323,14.323,4,18Z" id="Fill" />
  </svg>