<svg id="S_RateStretch_Lg_N_D_2x" data-name="S_RateStretch_Lg_N_D@2x" xmlns="http://www.w3.org/2000/svg" width="44" height="36" viewBox="0 0 44 36">
  <defs>
    <style>
      .fill {
        fill: #fff;
        fill-rule: evenodd;
        opacity: 0.65;
      }

      
    </style>
  </defs>
  <title>S_RateStretch_Lg_N_D@2x</title>
  <path id="Fill" class="fill" d="M30,20.476v3.191c-6.094,0-8.031.281-10-2v1.95c1.781,2.046,4.411,2.05,10,2.05v3.191a0.5,0.5,0,0,0,.724.447L40,24.667l-9.276-4.638A0.5,0.5,0,0,0,30,20.476ZM13.276,6.028L4,10.667,13.276,15.3A0.5,0.5,0,0,0,14,14.858V11.667c7.562-.031,6.687-0.312,10,2v-1.95c-1.781-2.046-4.411-2.05-10-2.05V6.476A0.5,0.5,0,0,0,13.276,6.028ZM20,28.479v2.688a0.5,0.5,0,0,0,.5.5h3a0.5,0.5,0,0,0,.5-0.5v-1.5S20.969,29.635,20,28.479Zm0-12.813v2l4,2v-2Zm0-11.5v1.5S23.031,5.7,23.969,6.885c0-1.24.012-2.18,0.021-2.715a0.5,0.5,0,0,0-.5-0.5H20.5A0.5,0.5,0,0,0,20,4.167Z" transform="translate(0 0.333)"/>
  </svg>