<?xml version="1.0" encoding="UTF-8"?>
<svg id="ImportedIcons-3" data-name="ImportedIcons" xmlns="http://www.w3.org/2000/svg" width="32" height="32" viewBox="0 0 32 32">
  <defs>
    <style>
      .fill {
        fill: #b9b9b9;
        fill-rule: evenodd;
      }

      .background {
        opacity: .65;
        fill-rule: evenodd;
      }

    </style>
  </defs>
  <path class="background" d="M7,15v2c0,.55229,.44772,1,1,1H24c.55228,0,1-.44771,1-1v-2c0-.55229-.44772-1-1-1H8c-.55228,0-1,.44771-1,1Z"/>
  <path class="fill" d="M16,2c-7.73199,0-14,6.26807-14,14s6.26801,14,14,14,14-6.26807,14-14S23.73199,2,16,2Zm9,15c0,.55225-.44769,1-1,1H8c-.55231,0-1-.44775-1-1v-2c0-.55225,.44769-1,1-1H24c.55231,0,1,.44775,1,1v2Z"/>
</svg>