<?xml version="1.0" encoding="UTF-8"?>
<svg id="ICONS" xmlns="http://www.w3.org/2000/svg" width="44" height="36" viewBox="0 0 44 36">
  <defs>
    <style>
      .fill {
        fill: #fff;
        opacity: .65;
        stroke-width: 0px;
      }
    </style>
  </defs>
  <path class="fill" d="M18,32v-2h8v2h-8ZM6,22h2v-8h-2v8ZM30,6h6v4h2v-5c0-.55273-.44775-1-1-1h-7v2ZM18,4v2h8v-2h-8ZM36,26v4h-6v2h7c.55225,0,1-.44727,1-1v-5h-2ZM14,30h-6v-4h-2v5c0,.55273.44775,1,1,1h7v-2ZM8,10v-4h6v-2h-7c-.55225,0-1,.44727-1,1v5h2ZM38,14h-2v8h2v-8Z"/>
</svg>