<svg id="S_Replay_22_N_D_2x" data-name="S_Replay_22_N_D@2x" xmlns="http://www.w3.org/2000/svg" width="44" height="44" viewBox="0 0 44 44">
  <defs>
    <style>
      .cls-1 {
        fill: #fff;
        opacity: 1;
      }

      
    </style>
  </defs>
  <title>S_Replay_22_N_D@2x</title>
  <path class="cls-1" d="M31.446,22.914,18.667,30.352a1.063,1.063,0,0,1-.542.148H17.063A1.062,1.062,0,0,1,16,29.439h0V14.563A1.062,1.062,0,0,1,17.061,13.5h1.065a1.063,1.063,0,0,1,.542.148l12.779,7.438a1.063,1.063,0,0,1,0,1.828Z"/>
  <path class="cls-1" d="M36.832,24.744a15.119,15.119,0,1,1-4.274-13.509c-1.715.979-3.151,1.794-3.151,1.794a.584.584,0,0,0,.068,1.048l8.811,3.6a.5.5,0,0,0,.689-.463V8.543a.582.582,0,0,0-.885-.5c-.419.257-1.587.932-2.932,1.7a18,18,0,1,0,4.531,15.476.508.508,0,0,0-.417-.585h0l-1.874-.3A.494.494,0,0,0,36.832,24.744Z"/>
  </svg>