<svg id="S_Redo_Md_N_2x" data-name="S_Redo_Md_N@2x" xmlns="http://www.w3.org/2000/svg" width="36" height="36" viewBox="0 0 36 36">
  <defs>
    <style>
      .fill {
        fill-rule: evenodd;
        opacity: 0.65;
      }

      
    </style>
  </defs>
  <title>S_Redo_Md_N@2x</title>
  <path class="fill" d="M15.473,8H23V3.991a.7.7,0,0,1,1.173-.516L31.4,10.1l-7.227,6.625A.7.7,0,0,1,23,16.209V12H15.4A7.267,7.267,0,0,0,8.01,18.624,7,7,0,0,0,15,26H26a1,1,0,0,1,1,1v2a1,1,0,0,1-1,1H15A11,11,0,0,1,4.052,17.92C4.6,12.2,9.727,8,15.473,8Z"/>
  </svg>