<svg id="S_ReplyComment_Md_N_D_2x" data-name="S_ReplyComment_Md_N_D@2x" xmlns="http://www.w3.org/2000/svg" width="36" height="36" viewBox="0 0 36 36">
  <defs>
    <style>
      .fill {
        fill: #fff;
        fill-rule: evenodd;
        opacity: 0.65;
      }

      
    </style>
  </defs>
  <title>S_ReplyComment_Md_N_D@2x</title>
  <path class="fill" d="M30,4H6A4,4,0,0,0,2,8V22a4,4,0,0,0,4,4H8v8.8a.5.5,0,0,0,.854.354L18,26H30a4,4,0,0,0,4-4V8A4,4,0,0,0,30,4ZM26.843,21.921a.394.394,0,0,1-.551-.079A10.21,10.21,0,0,0,15.881,17.8v2.822a.556.556,0,0,1-.95.393L8.654,14.5,14.932,8a.556.556,0,0,1,.95.394v2.78C25.084,11.168,27,19.939,27,21.62A.393.393,0,0,1,26.843,21.921Z"/>
  </svg>