<svg xmlns="http://www.w3.org/2000/svg" data-name="S_Rename_18_N_D@2x" height="36" id="S_Rename_18_N_D_2x" viewBox="0 0 36 36" width="36">
  <defs>
    <style>
	.fill {
        fill: #fff;
        fill-rule: evenodd;
        opacity: 0.65;
      }</style>
  </defs>
  <title>S_Rename_18_N_D@2x</title>
  <rect class="fill" height="36" width="2" x="32" />
  <path class="fill" d="M26.588,31.7,16.633,4.21c-.041-.169-.083-.21-.252-.21H12.229a.2.2,0,0,0-.21.21,4.559,4.559,0,0,1-.3,1.738L2.485,31.662c-.041.21.045.338.255.338H5.62a.3.3,0,0,0,.338-.255L9.09,23H19.7l3.161,8.79A.378.378,0,0,0,23.2,32h3.218C26.632,32,26.674,31.872,26.588,31.7ZM14.347,6.88h.041c.759,2.707,3.355,9.972,4.44,13.12H9.958C11.548,15.416,13.662,9.454,14.347,6.88Z" />
  </svg>