<svg id="SP_Reset_Sm_N_D_2x" data-name="SP_Reset_Sm_N_D@2x" xmlns="http://www.w3.org/2000/svg" width="32" height="32" viewBox="0 0 32 32">
  <defs>
    <style>
      .fill {
        fill: #fff;
        fill-rule: evenodd;
        opacity: 0.65;
      }

      
    </style>
  </defs>
  <title>SP_Reset_Sm_N_D@2x</title>
  <path id="Fill" class="fill" d="M24.55,24c1.338-.63,3.45-6.341,3.45-9A11,11,0,0,0,17,4,10.635,10.635,0,0,0,6.436,14H2.156a0.5,0.5,0,0,0-.364.842L8.52,22l6.693-7.159A0.5,0.5,0,0,0,14.848,14H10.431a6.634,6.634,0,0,1,6.621-6C21.326,8.094,24,10.932,24,14.8c0,2.792-1.384,8.216-4.583,9.2H24.55Z"/>
  <path id="Fill2" class="fill" d="M4.5,26h23a0.5,0.5,0,0,1,.5.5v1a0.5,0.5,0,0,1-.5.5H4.5A0.5,0.5,0,0,1,4,27.5v-1A0.5,0.5,0,0,1,4.5,26Z"/>
  </svg>