<svg xmlns="http://www.w3.org/2000/svg" data-name="Layer 1" height="32" id="Layer_1" viewBox="0 0 32 32" width="32">
  <defs>
    <style>
      .fill{
		fill: #6E6E6E;
		fill-rule: evenodd;
		}
    </style>
  </defs>
  <path class="fill" d="M31,10H24V3a1,1,0,0,0-1-1H7A1,1,0,0,0,6,3V6L8,8V4H22V18H14l-2,2h2v7a1,1,0,0,0,1,1H31a1,1,0,0,0,1-1V11A1,1,0,0,0,31,10ZM28,24H18V20h5a1,1,0,0,0,1-1V14h4Z" />
  <path class="fill" d="M6.87671,10.00452A.5.5,0,0,0,6,10.33325V14H1a1,1,0,0,0-1,1v2a1,1,0,0,0,1,1H6v3.66663a.5.5,0,0,0,.87671.32885l5.0105-5.74109a.34436.34436,0,0,0,0-.50891Z" />
</svg>