<?xml version="1.0" encoding="UTF-8"?>
<svg id="Icons" xmlns="http://www.w3.org/2000/svg" width="32" height="32" viewBox="0 0 32 32">
  <defs>
    <style>
      .fill {
        fill: #fff;
        opacity: .65;
      }
    </style>
  </defs>
  <rect class="fill" x="2" y="24" width="28" height="4" rx="1" ry="1"/>
  <path class="fill" d="m16.646,6.064c-4.106,0-7.762,1.846-10.244,4.734l-3.196-3.196c-.144-.144-.322-.208-.496-.208-.212,0-.68.148-.71.666v9.5c0,.242.198.436.438.438h9.5c.52-.03.666-.498.666-.71,0-.174-.064-.352-.208-.496l-3.14-3.14c1.742-2.174,4.384-3.59,7.388-3.59,4.442,0,8.154,3.042,9.218,7.15.118.454.502.784.97.784h2.078c.618,0,1.116-.56.99-1.166-1.282-6.148-6.724-10.77-13.254-10.77v.004Z"/>
</svg>