<svg xmlns="http://www.w3.org/2000/svg" width="44" height="36" viewBox="0 0 44 36">
  <defs>
    <style>
      .fill {
        fill: #fff;
        fill-rule: evenodd;
        opacity: 0.65;
      }
    </style>
  </defs>
  <g id="ImportedIcons-2" data-name="ImportedIcons">
    <path class="fill" d="M41.80005,16.6,36.8,12.10083a.50007.50007,0,0,0-.8.40015V16H32.5a.5.5,0,0,0-.5.5v1a.5.5,0,0,0,.5.5H36v3.49907a.5.5,0,0,0,.8.4l5.00006-4.49919A.5.5,0,0,0,41.80005,16.6Z"/>
    <path class="fill" d="M2.2,16.6,7.2,12.10083A.50007.50007,0,0,1,8,12.501V16h3.5a.5.5,0,0,1,.5.5v1a.5.5,0,0,1-.5.5H8v3.49907a.5.5,0,0,1-.8.4L2.2,17.3999A.5.5,0,0,1,2.2,16.6Z"/>
  </g>
  <g id="ImportedIcons-10" data-name="ImportedIcons">
    <path class="fill" d="M30,25,29.9989,3.002a.99987.99987,0,0,0-1.26782-.96484L14.73218,6.48486A1.00047,1.00047,0,0,0,14,7.44849V25.05166a.98533.98533,0,0,1-1.08278.99306,6.54279,6.54279,0,0,0-3.4163.57247c-2.63361,1.17846-4.09742,3.64819-3.26947,5.51648.82788,1.86828,3.634,2.42749,6.26763,1.24914,2.134-.95483,3.47559-2.75464,3.47657-4.39831L15.99109,29,16,12.40894l12.00085-4-.00072,12.64011a.98526.98526,0,0,1-1.07849.99342,6.55935,6.55935,0,0,0-3.40894.58277c-2.63569,1.18555-4.10639,3.65735-3.285,5.52124.82141,1.86377,3.624,2.4137,6.25958,1.22828,2.13318-.95948,3.47889-2.75879,3.48835-4.39917Z"/>
  </g>
</svg>
