<?xml version="1.0" encoding="UTF-8"?>
<svg id="I_C_O_N_S" data-name="I C O N S" xmlns="http://www.w3.org/2000/svg" width="32" height="32" viewBox="0 0 32 32">
  <defs>
    <style>
      .fill {
        fill: #fff;
        opacity: .65;
        stroke-width: 0px;
      }
    </style>
  </defs>
  <path class="fill" d="m23.833,6.412c-1.266-.037-2.533.043-3.785.237-.461.097-.913-.198-1.01-.659-.014-.065-.02-.13-.018-.196v-1.281c.002-.399-.268-.749-.655-.848-.935-.246-1.901-.351-2.866-.312-2.645-.002-5.24.725-7.499,2.102v12.038c2.196-1.492,4.761-2.351,7.414-2.483.478.002.864.39.862.868v2.978c-.009.424.328.775.752.784.122.003.242-.024.352-.077,2.037-.859,4.244-1.239,6.451-1.112,1.115,0,2.226.13,3.31.388.387.079.766-.17.845-.558.011-.054.016-.109.014-.164V7.59c.006-.333-.213-.627-.532-.719-1.187-.306-2.408-.46-3.634-.459h-.001Z"/>
  <rect class="fill" x="4" y="4" width="2" height="26" rx=".25" ry=".25"/>
</svg>