<svg id="S_Refresh_Md_N_D_2x" data-name="S_Refresh_Md_N_D@2x" xmlns="http://www.w3.org/2000/svg" width="36" height="36" viewBox="0 0 36 36">
  <defs>
    <style>
      .fill {
        fill: #fff;
        fill-rule: evenodd;
        opacity: 0.65;
      }

      
    </style>
  </defs>
  <title>S_Refresh_Md_N_D@2x</title>
  <path class="fill" d="M31.37,13.907A13.974,13.974,0,0,0,8.239,7.973L4.6,4.487a.35.35,0,0,0-.6.247V15.2H14.916a.35.35,0,0,0,.247-.6l-3.38-3.236a9.053,9.053,0,0,1,14.822,3.793.7.7,0,0,0,.833.481l3.421-.855A.7.7,0,0,0,31.37,13.907Z"/>
  <path class="fill" d="M21.044,20.8a.35.35,0,0,0-.248.6l3.429,3.227A9.052,9.052,0,0,1,9.394,20.839a.7.7,0,0,0-.833-.481l-3.421.855a.7.7,0,0,0-.51.877A13.972,13.972,0,0,0,27.8,27.985l3.6,3.391a.35.35,0,0,0,.6-.247V20.8Z"/>
  </svg>