<svg xmlns="http://www.w3.org/2000/svg" data-name="S_Rewind_18_N@2x" height="36" id="S_Rewind_18_N_2x" viewBox="0 0 36 36" width="36">
  <defs>
    <style>
	.fill {
        fill: #fff;
        fill-rule: evenodd;
        opacity: 0.65;
      }</style>
  </defs>
  <title>S_Rewind_18_N@2x</title>
  <path class="fill" d="M31.063,10.5h-.937a.938.938,0,0,0-.478.131L18.371,17.193a.908.908,0,0,0-.284.292V11.438a.937.937,0,0,0-.937-.937h-.937a.938.938,0,0,0-.478.131L4.459,17.193a.938.938,0,0,0,0,1.613l11.276,6.563a.938.938,0,0,0,.478.131h.938a.937.937,0,0,0,.938-.937V18.515a.906.906,0,0,0,.284.292l11.276,6.563a.937.937,0,0,0,.478.131h.938A.937.937,0,0,0,32,24.563V11.438A.937.937,0,0,0,31.063,10.5Z" />
  </svg>