<svg xmlns="http://www.w3.org/2000/svg" data-name="S_RearrageableView_26x12_N_D@2x" height="24" id="S_RearrageableView_26x12_N_D_2x" viewBox="0 0 52 24" width="52">
  <defs>
    <style>
      .fill {
        fill: #fff;
        fill-rule: evenodd;
        opacity: 0.65;
      }

      
    </style>
  </defs>
  <title>S_RearrageableView_26x12_N_D@2x</title>
  <path class="fill" d="M27,2H9A1,1,0,0,0,8,3V13a1,1,0,0,0,1,1h5V6a2,2,0,0,1,2-2H28V3A1,1,0,0,0,27,2Z" />
  <rect class="fill" height="12" rx="1" ry="1" width="20" x="24" y="10" />
  <path class="fill" d="M35,6H17a1,1,0,0,0-1,1V17a1,1,0,0,0,1,1h5V10a2,2,0,0,1,2-2H36V7A1,1,0,0,0,35,6Z" />
  </svg>