<?xml version="1.0" encoding="UTF-8"?>
<svg id="ICONS" xmlns="http://www.w3.org/2000/svg" width="36" height="36" viewBox="0 0 36 36">
  <defs>
    <style>
      .cls-1 {
        fill: #1ac605;
      }

      .cls-2 {
        fill: red;
      }

      .cls-3 {
        fill: #3f69ff;
      }
    </style>
  </defs>
  <path class="cls-3" d="M26.522,15.036c-.32417-.03499-.64995-.05302-.976-.054-5.00701-.00669-9.07141,4.04688-9.0781,9.05388-.00669,5.00701,4.04688,9.07141,9.05388,9.0781,5.00701.00669,9.07141-4.04688,9.0781-9.05388.00618-4.62922-3.47624-8.51956-8.07788-9.0241Z"/>
  <path class="cls-2" d="M17.026,20.966c1.29494-3.59101,4.70264-5.98441,8.52-5.984.32605.00099.65183.01901.976.054,1.69723-4.70471-.74082-9.89451-5.44553-11.59174-4.70471-1.69723-9.89451.74082-11.59174,5.44553-1.69723,4.70471.74082,9.89451,5.44553,11.59174.67685.24417,1.38039.40681,2.09574.48447Z"/>
  <path class="cls-1" d="M17.026,20.966c-3.4418-.37395-6.36997-2.67581-7.546-5.932-4.97114.54-8.56329,5.00767-8.02329,9.97881.54,4.97114,5.00767,8.56329,9.97881,8.02328,2.67227-.29028,5.0774-1.75293,6.56447-3.9921-1.58259-2.38759-1.94372-5.38267-.974-8.078Z"/>
</svg>