<svg id="S_Rotate_Lg_N_2x" data-name="S_Rotate_Lg_N@2x" xmlns="http://www.w3.org/2000/svg" width="44" height="36" viewBox="0 0 44 36">
  <defs>
    <style>
      .fill {
        fill: #fff;
        fill-rule: evenodd;
        opacity: 0.65;
      }

      
    </style>
  </defs>
  <title>S_Rotate_Lg_N@2x</title>
  <circle class="fill" cx="30.747" cy="30.187" r="1.1"/>
  <circle class="fill" cx="34.347" cy="26.321" r="1.1"/>
  <circle class="fill" cx="25.992" cy="32.468" r="1.1"/>
  <circle class="fill" cx="20.796" cy="32.955" r="1.1"/>
  <circle class="fill" cx="15.712" cy="31.618" r="1.1"/>
  <circle class="fill" cx="11.367" cy="28.591" r="1.1"/>
  <circle class="fill" cx="8.454" cy="24.401" r="1.1"/>
  <path class="fill" d="M22,2A15.947,15.947,0,0,0,10.727,6.66L7.3,4.3a0.5,0.5,0,0,0-.781.463l1.05,10.223,9.9-2.68a0.5,0.5,0,0,0,.153-0.894L14.276,9.1a13.533,13.533,0,0,1,8.7-3.1c7.18,0,13.019,5.457,13.019,12.084v0.028a14.831,14.831,0,0,1-.344,3.006,1.005,1.005,0,1,0,1.963.4A16,16,0,0,0,22,2Z"/>
  </svg>