<svg id="S_RollCrawlOptions_Md_N_D_2x" data-name="S_RollCrawlOptions_Md_N_D@2x" xmlns="http://www.w3.org/2000/svg" width="36" height="36" viewBox="0 0 36 36">
  <defs>
    <style>
      .fill {
        fill: #fff;
        fill-rule: evenodd;
        opacity: 0.65;
      }

      
    </style>
  </defs>
  <title>S_RollCrawlOptions_Md_N_D@2x</title>
  <path id="PrefillD2" class="fill" d="M10,24.5v1a0.5,0.5,0,0,0,.5.5h9a0.5,0.5,0,0,0,.5-0.5v-1a0.5,0.5,0,0,0-.5-0.5h-9A0.5,0.5,0,0,0,10,24.5Zm0-4v1a0.5,0.5,0,0,0,.5.5h9a0.5,0.5,0,0,0,.5-0.5v-1a0.5,0.5,0,0,0-.5-0.5h-9A0.5,0.5,0,0,0,10,20.5Zm0-6v1a0.5,0.5,0,0,0,.5.5h9a0.5,0.5,0,0,0,.5-0.5v-1a0.5,0.5,0,0,0-.5-0.5h-9A0.5,0.5,0,0,0,10,14.5Zm0-4v1a0.5,0.5,0,0,0,.5.5h9a0.5,0.5,0,0,0,.5-0.5v-1a0.5,0.5,0,0,0-.5-0.5h-9A0.5,0.5,0,0,0,10,10.5Z"/>
  <path id="Fill2" class="fill" d="M2,20.5v3a0.5,0.5,0,0,0,.5.5h3A0.5,0.5,0,0,0,6,23.5v-3A0.5,0.5,0,0,0,5.5,20h-3A0.5,0.5,0,0,0,2,20.5Zm0-10v3a0.5,0.5,0,0,0,.5.5h3A0.5,0.5,0,0,0,6,13.5v-3A0.5,0.5,0,0,0,5.5,10h-3A0.5,0.5,0,0,0,2,10.5Z"/>
  <path id="Fill3" class="fill" d="M28,16.5v3a0.5,0.5,0,0,0,.5.5h1a0.5,0.5,0,0,0,.5-0.5v-3a0.5,0.5,0,0,0-.5-0.5h-1A0.5,0.5,0,0,0,28,16.5Zm0,6V26H24.5a0.5,0.5,0,0,0-.384.82L29,32l4.883-5.18A0.5,0.5,0,0,0,33.5,26H30V22.5a0.5,0.5,0,0,0-.5-0.5h-1A0.5,0.5,0,0,0,28,22.5ZM28.5,14h1a0.5,0.5,0,0,0,.5-0.5V10h3.5a0.5,0.5,0,0,0,.384-0.82L29,4,24.117,9.18A0.5,0.5,0,0,0,24.5,10H28v3.5A0.5,0.5,0,0,0,28.5,14Z"/>
  </svg>