<svg id="S_Rolling_Lg_N_D_2x" data-name="S_Rolling_Lg_N_D@2x" xmlns="http://www.w3.org/2000/svg" width="44" height="36" viewBox="0 0 44 36">
  <defs>
    <style>
      .fill {
        fill: #fff;
        fill-rule: evenodd;
        opacity: 0.65;
      }

      
    </style>
  </defs>
  <title>S_Rolling_Lg_N_D@2x</title>
  <path id="Fill" class="fill" d="M23,30H21a1,1,0,0,1-1-1V24H16v3.191a0.5,0.5,0,0,1-.724.447L6,23l9.276-4.638a0.5,0.5,0,0,1,.724.447V22h4V12H16v3.191a0.5,0.5,0,0,1-.724.447L6,11l9.276-4.638A0.5,0.5,0,0,1,16,6.809V10h4V5a1,1,0,0,1,1-1h2a1,1,0,0,1,1,1v5h4V6.809a0.5,0.5,0,0,1,.724-0.447L38,11l-9.276,4.638A0.5,0.5,0,0,1,28,15.191V12H24V22h4V18.809a0.5,0.5,0,0,1,.724-0.447L38,23l-9.276,4.638A0.5,0.5,0,0,1,28,27.191V24H24v5A1,1,0,0,1,23,30Z"/>
  </svg>