<svg xmlns="http://www.w3.org/2000/svg" data-name="S_RoundedRectangle_Lg_N_D@2x" height="36" id="S_RoundedRectangle_Lg_N_D_2x" viewBox="0 0 44 36" width="44">
  <defs>
    <style>
      .fill{
		fill: #FFF;
		opacity: 0.65;
		fill-rule: evenodd;
		}

      .fillPale{
		fill: #FFF;
		opacity: 0.15;
		fill-rule: evenodd;
		} 
    </style>
  </defs>
  <path class="fill" d="M6,12V24a8,8,0,0,0,8,8H30a8,8,0,0,0,8-8V12a8,8,0,0,0-8-8H14A8,8,0,0,0,6,12ZM30.2,30H13.8A5.8,5.8,0,0,1,8,24.2V11.8A5.8,5.8,0,0,1,13.8,6H30.2A5.8,5.8,0,0,1,36,11.8V24.2A5.8,5.8,0,0,1,30.2,30Z" />
  <rect class="fillPale" height="24" rx="5.8" ry="5.8" width="28" x="8" y="6" />
  </svg>