<svg xmlns="http://www.w3.org/2000/svg" data-name="S_Rulers_Sm_N_D@2x" height="32" id="S_Rulers_Sm_N_D_2x" viewBox="0 0 32 32" width="32">
  <defs>
    <style>
      .fill {
        fill: #fff;
        fill-rule: evenodd;
        opacity: 0.65;
      }

      
    </style>
  </defs>
  <path class="fill" d="M29,2H4A2,2,0,0,0,2,4V29a1,1,0,0,0,1,1H9.5a.5.5,0,0,0,.5-.5V10H29.5a.5.5,0,0,0,.5-.5V3A1,1,0,0,0,29,2ZM8,26H4.5a.5.5,0,0,1-.5-.5v-1a.5.5,0,0,1,.5-.5H8Zm0-6H4.5a.5.5,0,0,1-.5-.5v-1a.5.5,0,0,1,.5-.5H8Zm0-6H4.5a.5.5,0,0,1-.5-.5v-1a.5.5,0,0,1,.5-.5H8Zm6-6H12V4.5a.5.5,0,0,1,.5-.5h1a.5.5,0,0,1,.5.5Zm6,0H18V4.5a.5.5,0,0,1,.5-.5h1a.5.5,0,0,1,.5.5Zm6,0H24V4.5a.5.5,0,0,1,.5-.5h1a.5.5,0,0,1,.5.5Z" />
  </svg>