<svg id="S_Sampler_Lg_N_2x" data-name="S_Sampler_Lg_N@2x" xmlns="http://www.w3.org/2000/svg" width="44" height="36" viewBox="0 0 44 36">
  <defs>
    <style>
      .fill {
        fill: #fff;
        fill-rule: evenodd;
        opacity: 0.65;
      }

      
    </style>
  </defs>
  <title>S_Sampler_Lg_N@2x</title>
  <path class="fill" d="M34.143,14.342l-1.414-1.414L37.254,8.4a3.6,3.6,0,0,0,0-5.091l-0.566-.566a3.6,3.6,0,0,0-5.091,0L27.072,7.271,25.658,5.857a1,1,0,0,0-1.414,0L20.882,9.218a1,1,0,0,0,0,1.414l0.707,0.707L11.44,21.489a6,6,0,0,0-1.6,2.894l-0.025.107a2.807,2.807,0,0,1-1.2,1.541A7.553,7.553,0,0,0,6.86,27.2,5.13,5.13,0,0,0,5.3,31.11,3.841,3.841,0,0,0,6.4,33.6a3.879,3.879,0,0,0,2.753,1.11,5.176,5.176,0,0,0,3.653-1.567,8.291,8.291,0,0,0,1.178-1.78,2.58,2.58,0,0,1,1.524-1.177l0.107-.025a6,6,0,0,0,2.894-1.6l10.15-10.15,0.707,0.707a1,1,0,0,0,1.414,0l3.361-3.361A1,1,0,0,0,34.143,14.342ZM17.1,27.146a4,4,0,0,1-1.931,1.07l-0.1.024a4.589,4.589,0,0,0-2.8,2.109c-0.084.142-.166,0.29-0.25,0.44a4.532,4.532,0,0,1-.62.943,3.3,3.3,0,0,1-1.882.956,2,2,0,0,1-1.7-.5,2,2,0,0,1-.5-1.7,3.3,3.3,0,0,1,.956-1.882,5.751,5.751,0,0,1,1.192-.771l0.088-.047h0a4.769,4.769,0,0,0,2.2-2.85l0.025-.109A3.994,3.994,0,0,1,12.854,22.9L23,12.754,27.246,17Z"/>
  </svg>