<svg id="S_Sampler_Sm_N_D_2x" data-name="S_Sampler_Sm_N_D@2x" xmlns="http://www.w3.org/2000/svg" width="32" height="32" viewBox="0 0 32 32">
  <defs>
    <style>
      .fill {
        fill: #fff;
        fill-rule: evenodd;
        opacity: 0.65;
      }

      
    </style>
  </defs>
  <title>S_Sampler_Sm_N_D@2x</title>
  <path class="fill" d="M26.383,14.1l-1.414-1.414L29.254,8.4a3.6,3.6,0,0,0,0-5.091l-0.566-.566a3.6,3.6,0,0,0-5.091,0L19.312,7.032,17.9,5.617a1,1,0,0,0-1.414,0L13.4,8.7a1,1,0,0,0,0,1.414L14.1,10.824,7.44,17.489a6,6,0,0,0-1.6,2.894l-0.025.107a3,3,0,0,1-1.2,1.541C0.4,24.669,2.334,27.848,3.2,28.719s4.277,2.665,6.782-1.353a2.653,2.653,0,0,1,1.524-1.177l0.107-.025a6,6,0,0,0,2.894-1.6L21.176,17.9,21.883,18.6a1,1,0,0,0,1.414,0l3.086-3.086A1,1,0,0,0,26.383,14.1ZM13.1,23.146a4,4,0,0,1-1.931,1.07l-0.1.024a4.814,4.814,0,0,0-2.8,2.109c-0.184.285-1.964,2.873-3.723,1.115s0.732-3.486,1.014-3.672a5.811,5.811,0,0,0,2.2-2.85l0.025-.109A3.994,3.994,0,0,1,8.854,18.9l6.739-6.739,4.243,4.243Z"/>
  </svg>