<?xml version="1.0" encoding="UTF-8"?>
<svg id="ICONS" xmlns="http://www.w3.org/2000/svg" width="36" height="36" viewBox="0 0 36 36">
  <defs>
    <style>
      .fill {
        opacity: .65;
      }

      .fill, .fillMedium {
        fill: #fff;
        stroke-width: 0px;
      }

      .fillMedium {
        opacity: .3;
      }
    </style>
  </defs>
  <path class="fill" d="M31.6875,24.46094c-.69922-.67676-1.6289-.84082-2.36132-.96972-.7168-.12402-.85352-.22558-1.17578-.52832-.31446-.292-.48242-.63086-.48242-.97852s.16796-.68652.48242-.97852l2.25976-2.0996c1.88086-1.74122,2.91796-4.07128,2.91796-6.5625s-1.0371-4.82128-2.91992-6.56348c-2.64648-2.4375-6.27344-3.78028-10.2129-3.78028-4.5664,0-9.13282,1.8086-12.5293,4.96094-3.21876,2.98046-4.99218,6.96582-4.99218,11.22266s1.77344,8.24218,4.99218,11.22168c3.11524,2.88574,7.51758,4.56054,12.21484,4.59472,4.51172,0,8.8086-1.58984,11.78124-4.35938.67188-.61914,1.04882-1.50586,1.0625-2.49708.01562-1.03028-.3711-2.03124-1.0332-2.67872l-.0039-.0039.00002.00002ZM30.30274,28.1748c-2.61132,2.43066-6.41016,3.8252-10.54102,3.8252-1.99878-.0149-3.95752-.38342-5.76172-1.05286V5.25916c1.96972-.8142,4.0813-1.25916,6.19532-1.25916,3.43554,0,6.58204,1.1543,8.85546,3.25,1.46876,1.35742,2.27734,3.167,2.27734,5.09376s-.8086,3.73632-2.2793,5.0957l-2.26172,2.10156c-.7207.67188-1.11914,1.53906-1.11914,2.44336s.39844,1.77148,1.11718,2.44042c.6582.61622,1.17188.85938,2.2461,1.04492.49414.08692,1.0039.17676,1.26368.42676.26758.26368.4375.74122.42968,1.21876-.0039.2539-.0625.72754-.42188,1.05958l.00003-.00002Z"/>
  <path class="fillMedium" d="M24,4.55712c-1.20996-.33398-2.47388-.55712-3.80468-.55712-2.11402,0-4.22558.44494-6.19532,1.25916v25.68798c1.8042.66944,3.76294,1.03796,5.76172,1.05286,1.46876,0,2.89208-.1842,4.23828-.52076V4.55712Z"/>
</svg>