<svg id="S_Scale_Sm_N_D_2x" data-name="S_Scale_Sm_N_D@2x" xmlns="http://www.w3.org/2000/svg" width="32" height="32" viewBox="0 0 32 32">
  <defs>
    <style>
      .fill {
        fill: #fff;
        fill-rule: evenodd;
        opacity: 0.65;
      }

      
    </style>
  </defs>
  <title>S_Scale_Sm_N_D@2x</title>
  <path class="fill" d="M29,2H9A1,1,0,0,0,8,3V14H3a1,1,0,0,0-1,1V27a1,1,0,0,0,1,1H17a1,1,0,0,0,1-1V22H29a1,1,0,0,0,1-1V3A1,1,0,0,0,29,2ZM16,26H4V16H8v5a1,1,0,0,0,1,1h7Zm0-6H10V16h6Zm12,0H18V15a1,1,0,0,0-1-1H10V4H28Z"/>
  <path id="arrow_fill" class="fill" d="M18.146,12.439l3.611-3.61L19.783,6.854A.5.5,0,0,1,20.137,6H26v5.864a.5.5,0,0,1-.854.354l-1.975-1.975-3.611,3.61a.5.5,0,0,1-.707,0l-.707-.707A.5.5,0,0,1,18.146,12.439Z"/>
  </svg>