<svg id="S_SceneDetect_Md_N_D_2x" data-name="S_SceneDetect_Md_N_D@2x" xmlns="http://www.w3.org/2000/svg" width="36" height="36" viewBox="0 0 36 36">
  <defs>
    <style>
      .fill {
        fill: #fff;
        fill-rule: evenodd;
        opacity: 0.65;
      }

      
    </style>
  </defs>
  <title>S_SceneDetect_Md_N_D@2x</title>
  <polygon class="fill" points="6 14 6 18 8 18 10 14 6 14"/>
  <polygon class="fill" points="14 14 12 18 16 18 18 14 14 14"/>
  <path class="fill" d="M30,14l-2,4h4V15a1,1,0,0,0-1-1H30Z"/>
  <polygon class="fill" points="22 14 20 18 24 18 26 14 22 14"/>
  <path class="fill" d="M6,14L5.011,11.168a1,1,0,0,1,.614-1.274l0.944-.33,3.207,3.117Z"/>
  <polygon class="fill" points="13.553 11.362 10.345 8.245 14.122 6.926 17.329 10.043 13.553 11.362"/>
  <path class="fill" d="M28.658,6.086L25.45,2.969l2.832-.989a1,1,0,0,1,1.274.614l0.989,2.832Z"/>
  <polygon class="fill" points="21.105 8.724 17.898 5.607 21.674 4.288 24.881 7.405 21.105 8.724"/>
  <path class="fill" d="M6,20V31a1,1,0,0,0,1,1H31a1,1,0,0,0,1-1V20H6Zm18.852,2.823-6.161,7.934a0.659,0.659,0,0,1-1.023,0L14.291,26.38a0.659,0.659,0,0,1,.095-0.927l0.919-.749a0.659,0.659,0,0,1,.927.095l1.946,2.619,4.73-6.173a0.659,0.659,0,0,1,.927-0.1L24.757,21.9A0.659,0.659,0,0,1,24.852,22.823Z"/>
  </svg>