<?xml version="1.0" encoding="UTF-8"?>
<svg id="ICONS" xmlns="http://www.w3.org/2000/svg" width="36" height="36" viewBox="0 0 36 36">
  <defs>
    <style>
      .fill {
        fill: #fff;
        opacity: .65;
        stroke-width: 0px;
      }
    </style>
  </defs>
  <path class="fill" d="M30,4H6c-1.10457,0-2,.89543-2,2v24c0,1.10457.89543,2,2,2h24c1.10457,0,2-.89543,2-2V6c0-1.10457-.89543-2-2-2ZM30,30h-10v-1.5c0-.27614-.22386-.5-.5-.5h-1c-.27614,0-.5.22386-.5.5v1.5H6v-12h1.5c.27614,0,.5-.22386.5-.5v-1c0-.27614-.22386-.5-.5-.5h-1.5V6h24v24ZM10,17.5v-1c0-.27614.22386-.5.5-.5h1c.27614,0,.5.22386.5.5v1c0,.27614-.22386.5-.5.5h-1c-.27614,0-.5-.22386-.5-.5ZM14,17.5v-1c0-.27614.22386-.5.5-.5h1c.27614,0,.5.22386.5.5v1c0,.27614-.22386.5-.5.5h-1c-.27614,0-.5-.22386-.5-.5ZM18,17.5v-1c0-.27614.22386-.5.5-.5h1c.27614,0,.5.22386.5.5v1c0,.27614-.22386.5-.5.5h-1c-.27614,0-.5-.22386-.5-.5ZM18,21.5v-1c0-.27614.22386-.5.5-.5h1c.27614,0,.5.22386.5.5v1c0,.27614-.22386.5-.5.5h-1c-.27614,0-.5-.22386-.5-.5ZM18,25.5v-1c0-.27614.22386-.5.5-.5h1c.27614,0,.5.22386.5.5v1c0,.27614-.22386.5-.5.5h-1c-.27614,0-.5-.22386-.5-.5Z"/>
  <path class="fill" d="M27.77026,8h-4.41968c-.24121,0-.35059.20715-.35059.35254,0,.08594.03198.17365.10327.24493l1.49219,1.49219-3.74194,3.7417c-.19531.19525-.19531.51184,0,.70709l.60791.60797c.19531.19525.51172.19525.70703,0l3.74194-3.7417,1.49219,1.49207c.07129.07129.15894.10321.24487.10321.14429,0,.35254-.10974.35254-.35071v-4.41962c-.00684-.0882-.07617-.21765-.22974-.22968Z"/>
</svg>