<svg id="S_Settings_22_N_D_2x" data-name="S_Settings_22_N_D@2x" xmlns="http://www.w3.org/2000/svg" width="44" height="44" viewBox="0 0 44 44">
  <defs>
    <style>
      .fill {
        fill: #fff;
        fill-rule: evenodd;
      }

      
    </style>
  </defs>
  <title>S_Settings_22_N_D@2x</title>
  <path class="fill" d="M38.2,19.03H35.506a.437.437,0,0,1-.424-.336,13.386,13.386,0,0,0-1.5-3.6.437.437,0,0,1,.064-.537l1.907-1.908a1.8,1.8,0,0,0,0-2.546L33.9,8.445a1.8,1.8,0,0,0-2.546,0l-1.908,1.907a.437.437,0,0,1-.537.064,13.365,13.365,0,0,0-3.6-1.5.439.439,0,0,1-.336-.425V5.8A1.8,1.8,0,0,0,23.17,4H20.83a1.8,1.8,0,0,0-1.8,1.8V8.494a.439.439,0,0,1-.336.425,13.365,13.365,0,0,0-3.6,1.5.437.437,0,0,1-.537-.064L12.645,8.445a1.8,1.8,0,0,0-2.546,0L8.445,10.1a1.8,1.8,0,0,0,0,2.546l1.907,1.908a.437.437,0,0,1,.064.537,13.386,13.386,0,0,0-1.5,3.6.437.437,0,0,1-.424.336H5.8A1.8,1.8,0,0,0,4,20.83v2.34a1.8,1.8,0,0,0,1.8,1.8H8.494a.437.437,0,0,1,.424.336,13.4,13.4,0,0,0,1.5,3.6.438.438,0,0,1-.063.537L8.445,31.355a1.8,1.8,0,0,0,0,2.545L10.1,35.555a1.8,1.8,0,0,0,2.546,0l1.908-1.907a.437.437,0,0,1,.537-.064,13.365,13.365,0,0,0,3.6,1.5.439.439,0,0,1,.336.425V38.2a1.8,1.8,0,0,0,1.8,1.8h2.34a1.8,1.8,0,0,0,1.8-1.8V35.506a.439.439,0,0,1,.336-.425,13.365,13.365,0,0,0,3.6-1.5.437.437,0,0,1,.537.064l1.908,1.907a1.8,1.8,0,0,0,2.546,0L35.555,33.9a1.8,1.8,0,0,0,0-2.545l-1.908-1.908a.438.438,0,0,1-.063-.537,13.4,13.4,0,0,0,1.5-3.6.437.437,0,0,1,.424-.336H38.2a1.8,1.8,0,0,0,1.8-1.8V20.83A1.8,1.8,0,0,0,38.2,19.03ZM22,28a6,6,0,1,1,6-6A6,6,0,0,1,22,28Z"/>
  </svg>