<svg id="S_Sequence_Sm_N_D_2x" data-name="S_Sequence_Sm_N_D@2x" xmlns="http://www.w3.org/2000/svg" width="32" height="32" viewBox="0 0 32 32">
  <defs>
    <style>
      .cls-1, .cls-2 {
        fill: #729acc;
      }

      .cls-2, .cls-3, .fill {
        fill-rule: evenodd;
      }

      .cls-3 {
        fill: #29d698;
      }

      .fill {
        fill: #fff;
        opacity: 0.65;
      }

      
    </style>
  </defs>
  <title>S_Sequence_Sm_N_D@2x</title>
  <path class="cls-1" d="M12,11H7a1,1,0,0,0-1,1v2a1,1,0,0,0,1,1h5V11Z"/>
  <path class="cls-2" d="M12,17H3a1,1,0,0,0-1,1v2a1,1,0,0,0,1,1h9V17Z"/>
  <path class="cls-3" d="M12,23H6a1,1,0,0,0-1,1v2a1,1,0,0,0,1,1h6V23Z"/>
  <path class="cls-3" d="M18,23v4H29a1,1,0,0,0,1-1V24a1,1,0,0,0-1-1H18Z"/>
  <path class="cls-2" d="M18,17v4h5a1,1,0,0,0,1-1V18a1,1,0,0,0-1-1H18Z"/>
  <path class="cls-1" d="M18,11v4H29a1,1,0,0,0,1-1V12a1,1,0,0,0-1-1H18Z"/>
  <path class="fill" d="M17.5,2h-5a0.5,0.5,0,0,0-.5.5V7a1.959,1.959,0,0,1,2,2V29a1,1,0,0,0,1,1h0a1,1,0,0,0,1-1V9a1.959,1.959,0,0,1,2-2V2.5A0.5,0.5,0,0,0,17.5,2ZM16,9H14V5h2V9Z"/>
  </svg>