<svg id="S_SetOutMark_54x54_N_D_2x" data-name="S_SetOutMark_54x54_N_D@2x" xmlns="http://www.w3.org/2000/svg" width="108" height="108" viewBox="0 0 108 108">
  <defs>
    <style>
      .cls-1 {
        opacity: 0.3;
      }

      .background, .fill {
        opacity: 0.65;
      }

      .fill {
        fill: #fff;
        fill-rule: evenodd;
      }

      
    </style>
  </defs>
  <title>S_SetOutMark_54x54_N_D@2x</title>
  <circle class="cls-1" cx="54" cy="54" r="45"/>
  <path id="Fill" class="background" d="M53,26a1,1,0,0,1,1,1V43.857l7.756,8.064L54,60.357V79a1,1,0,0,1-1,1H51a1,1,0,0,1-1-1V60.357L58,52l-8-8.143V27a1,1,0,0,1,1-1h2Zm0-2H51a3,3,0,0,0-3,3V44.675l0.573,0.584,6.641,6.759-6.659,6.956L48,59.554V79a3,3,0,0,0,3,3h2a3,3,0,0,0,3-3V61.137l7.229-7.862L64.5,51.89l-1.3-1.356L56,43.051V27A3,3,0,0,0,53,24Z"/>
  <path id="Fill-2" data-name="Fill" class="fill" d="M61.756,51.921L54,60.357V79a1,1,0,0,1-1,1H51a1,1,0,0,1-1-1V60.357L58,52l-8-8.143V27a1,1,0,0,1,1-1h2a1,1,0,0,1,1,1V43.857Z"/>
  </svg>