<?xml version="1.0" encoding="UTF-8"?>
<svg id="Icons" xmlns="http://www.w3.org/2000/svg" width="32" height="32" viewBox="0 0 32 32">
  <defs>
    <style>
      .fill {
        opacity: .65;
      }
    </style>
  </defs>
  <path class="fill" d="M29,14h-3.2c-.256-1.254-.754-2.446-1.464-3.508l2.264-2.278c.39-.39,.39-1.024,0-1.414l-1.408-1.4c-.39-.39-1.024-.39-1.414,0l-2.27,2.262c-1.064-.708-2.254-1.206-3.508-1.462V3c0-.55-.448-1-1-1h-2c-.552,0-1,.45-1,1v3.2c-1.252,.258-2.444,.754-3.508,1.462l-2.27-2.262c-.39-.39-1.024-.39-1.414,0l-1.408,1.4c-.39,.39-.39,1.024,0,1.414l2.264,2.278c-.71,1.062-1.208,2.254-1.464,3.508H3c-.552,0-1,.45-1,1v2c0,.552,.448,1,1,1h3.2c.256,1.254,.754,2.446,1.464,3.508l-2.264,2.278c-.39,.39-.39,1.024,0,1.414l1.408,1.402c.39,.388,1.024,.388,1.414,0l2.27-2.264c1.064,.708,2.254,1.208,3.508,1.462v3.2c0,.552,.448,1,1,1h2c.552,0,1-.448,1-1v-3.2c1.252-.256,2.444-.754,3.508-1.462l2.27,2.264c.39,.388,1.024,.388,1.414,0l1.408-1.402c.39-.39,.39-1.024,0-1.414l-2.264-2.278c.71-1.062,1.208-2.254,1.464-3.508h3.2c.552,0,1-.448,1-1v-2c0-.55-.448-1-1-1Zm-13,6.5c-2.484,0-4.5-2.016-4.5-4.5s2.016-4.5,4.5-4.5,4.5,2.016,4.5,4.5-2.016,4.5-4.5,4.5Z"/>
</svg>