<svg xmlns="http://www.w3.org/2000/svg" data-name="S_SeparateAudio_18_N_D@2x" height="36" id="S_SeparateAudio_18_N_D_2x" viewBox="0 0 36 36" width="36">
  <defs>
    <style>
      .fill {
        fill: #fff;
        opacity: 0.65;
      }

      
    </style>
  </defs>
  <path class="fill" d="M33,28H3a1,1,0,0,0-1,1v2a1,1,0,0,0,1,1H33a1,1,0,0,0,1-1V29A1,1,0,0,0,33,28Z" />
  <path class="fill" d="M12.5,18h11a.5.5,0,0,1,.416.777L18.4,25.8a.5.5,0,0,1-.8,0l-5.516-7.023A.5.5,0,0,1,12.5,18Z" />
  <path class="fill" d="M32,10v4H4V10Zm1-6H3A1,1,0,0,0,2,5V15a1,1,0,0,0,1,1H33a1,1,0,0,0,1-1V5A1,1,0,0,0,33,4Z" />
  </svg>