<svg id="S_Sequence_Xl_N_D_2x" data-name="S_Sequence_Xl_N_D@2x" xmlns="http://www.w3.org/2000/svg" width="64" height="64" viewBox="0 0 64 64">
  <defs>
    <style>
      .cls-1, .cls-2 {
        fill: #729acc;
      }

      .cls-2, .cls-3, .fill {
        fill-rule: evenodd;
      }

      .cls-3 {
        fill: #29d698;
      }

      .fill {
        fill: #fff;
        opacity: 0.65;
      }

      
    </style>
  </defs>
  <title>S_Sequence_Xl_N_D@2x</title>
  <path class="cls-1" d="M26,22H14a2,2,0,0,0-2,2v6a2,2,0,0,0,2,2H26V22Z"/>
  <path class="cls-2" d="M26,34H6a2,2,0,0,0-2,2v4c0,1.1.9,4,2,4H26V34Z"/>
  <path class="cls-3" d="M26,46H12a2,2,0,0,0-2,2v6a2,2,0,0,0,2,2H26V46Z"/>
  <path class="cls-3" d="M34,46V56H58a2,2,0,0,0,2-2V48a2,2,0,0,0-2-2H34Z"/>
  <path class="cls-2" d="M34,34V44H46a2,2,0,0,0,2-2V36a2,2,0,0,0-2-2H34Z"/>
  <path class="cls-1" d="M34,22V32H58a2,2,0,0,0,2-2V24a2,2,0,0,0-2-2H34Z"/>
  <path class="fill" d="M35,4H25a1,1,0,0,0-1,1v9s4,0,4,4V59a1,1,0,0,0,1,1h2a1,1,0,0,0,1-1V18c0-4,4-4,4-4V5A1,1,0,0,0,35,4ZM32,18H28V10h4v8Z"/>
  </svg>