<?xml version="1.0" encoding="UTF-8"?>
<svg id="Icons" xmlns="http://www.w3.org/2000/svg" width="32" height="32" viewBox="0 0 32 32">
  <defs>
    <style>
      .fill {
        fill: #fff;
        opacity: .65;
      }
    </style>
  </defs>
  <path class="fill" d="m12,11h-5c-.552,0-1,.448-1,1v2c0,.552.448,1,1,1h5v-4Z"/>
  <path class="fill" d="m12,17H3c-.552,0-1,.448-1,1v2c0,.552.448,1,1,1h9v-4Z"/>
  <path class="fill" d="m12,23h-6c-.552,0-1,.448-1,1v2c0,.552.448,1,1,1h6v-4Z"/>
  <path class="fill" d="m18,23v4h11c.552,0,1-.448,1-1v-2c0-.552-.448-1-1-1h-11Z"/>
  <path class="fill" d="m18,17v4h5c.552,0,1-.448,1-1v-2c0-.552-.448-1-1-1h-5Z"/>
  <path class="fill" d="m18,11v4h11c.552,0,1-.448,1-1v-2c0-.552-.448-1-1-1h-11Z"/>
  <path class="fill" d="m17.5,2h-5c-.276,0-.5.224-.5.5v4.5c1.082-.023,1.977.835,2,1.917,0,.028,0,.055,0,.083v20c0,.552.448,1,1,1h0c.552,0,1-.448,1-1V9c-.023-1.082.835-1.977,1.917-2,.028,0,.055,0,.083,0V2.5c0-.276-.224-.5-.5-.5Zm-1.5,7h-2v-4h2v4Z"/>
</svg>