<svg id="S_Settings_24_N_D_2x" data-name="S_Settings_24_N_D@2x" xmlns="http://www.w3.org/2000/svg" width="48" height="48" viewBox="0 0 48 48">
  <defs>
    <style>
      .fill {
        fill: #fff;
        fill-rule: evenodd;
        opacity: 0.65;
      }

      
    </style>
  </defs>
  <title>S_Settings_24_N_D@2x</title>
  <path class="fill" d="M42.333,20.667H39.888a1.706,1.706,0,0,1-1.608-1.228,14.874,14.874,0,0,0-.97-2.33,1.67,1.67,0,0,1,.262-1.968l1.748-1.748a1.667,1.667,0,0,0,0-2.357L36.964,8.679a1.667,1.667,0,0,0-2.357,0l-1.749,1.748a1.67,1.67,0,0,1-1.968.262,14.882,14.882,0,0,0-2.33-.97,1.706,1.706,0,0,1-1.228-1.608V5.667A1.666,1.666,0,0,0,25.667,4H22.333a1.667,1.667,0,0,0-1.667,1.667V8.112A1.706,1.706,0,0,1,19.439,9.72a14.873,14.873,0,0,0-2.33.97,1.67,1.67,0,0,1-1.968-.262L13.393,8.679a1.667,1.667,0,0,0-2.357,0L8.679,11.037a1.667,1.667,0,0,0,0,2.357l1.748,1.748a1.67,1.67,0,0,1,.262,1.968,14.884,14.884,0,0,0-.97,2.33,1.705,1.705,0,0,1-1.608,1.228H5.667A1.666,1.666,0,0,0,4,22.333v3.333a1.667,1.667,0,0,0,1.667,1.667H8.112A1.705,1.705,0,0,1,9.72,28.561a14.87,14.87,0,0,0,.97,2.33,1.67,1.67,0,0,1-.262,1.968L8.679,34.607a1.667,1.667,0,0,0,0,2.357l2.357,2.357a1.667,1.667,0,0,0,2.357,0l1.748-1.748a1.67,1.67,0,0,1,1.968-.262,14.883,14.883,0,0,0,2.33.97,1.705,1.705,0,0,1,1.228,1.608v2.445A1.667,1.667,0,0,0,22.334,44h3.333a1.667,1.667,0,0,0,1.667-1.667V39.888a1.706,1.706,0,0,1,1.228-1.608,14.873,14.873,0,0,0,2.33-.97,1.67,1.67,0,0,1,1.968.262l1.748,1.748a1.667,1.667,0,0,0,2.357,0l2.357-2.357a1.667,1.667,0,0,0,0-2.357l-1.748-1.748a1.67,1.67,0,0,1-.262-1.968,14.88,14.88,0,0,0,.97-2.33,1.705,1.705,0,0,1,1.608-1.227h2.445A1.667,1.667,0,0,0,44,25.667V22.333A1.667,1.667,0,0,0,42.333,20.667ZM24,31.5A7.5,7.5,0,1,1,31.5,24,7.5,7.5,0,0,1,24,31.5Z"/>
  </svg>