<svg id="S_ServerOffline_Sm_N_D_2x" data-name="S_ServerOffline_Sm_N_D@2x" xmlns="http://www.w3.org/2000/svg" width="32" height="32" viewBox="0 0 32 32">
  <defs>
    <style>
      .fill {
        fill: #fff;
        fill-rule: evenodd;
        opacity: 0.65;
      }

      
    </style>
  </defs>
  <title>S_ServerOffline_Sm_N_D@2x</title>
  <path class="fill" d="M27.414,10.444,21.556,4.586A2,2,0,0,0,20.142,4H11.858a2,2,0,0,0-1.414.586L4.586,10.444A2,2,0,0,0,4,11.858v8.284a2,2,0,0,0,.586,1.414l5.858,5.858A2,2,0,0,0,11.858,28h8.284a2,2,0,0,0,1.414-.586l5.858-5.858A2,2,0,0,0,28,20.142V11.858A2,2,0,0,0,27.414,10.444Zm-5.532,9.714a.651.651,0,0,1,0,.921L20.961,22a.652.652,0,0,1-.921,0l-4.079-4.157-4,3.966a.651.651,0,0,1-.921,0l-.921-.921a.651.651,0,0,1,0-.921l4-3.966-4-4a.651.651,0,0,1,0-.921l.921-.921a.652.652,0,0,1,.921,0l4,4L20.039,10a.652.652,0,0,1,.921,0l.921.921a.651.651,0,0,1,0,.921L17.8,16Z"/>
  </svg>