<svg id="S_Sequence_48x48_N_D_2x" data-name="S_Sequence_48x48_N_D@2x" xmlns="http://www.w3.org/2000/svg" width="96" height="96" viewBox="0 0 96 96">
  <defs>
    <style>
      .cls-1, .cls-2 {
        fill: #729acc;
      }

      .cls-2, .cls-3, .fill {
        fill-rule: evenodd;
      }

      .cls-3 {
        fill: #29d698;
      }

      .fill {
        fill: #fff;
        opacity: 0.65;
      }

      
    </style>
  </defs>
  <title>S_Sequence_48x48_N_D@2x</title>
  <path class="cls-1" d="M38,32H19.5A1.5,1.5,0,0,0,18,33.5v11A1.5,1.5,0,0,0,19.5,46H38V32Z"/>
  <path class="cls-2" d="M38,50H7.5A1.5,1.5,0,0,0,6,51.5v11A1.5,1.5,0,0,0,7.5,64H38V50Z"/>
  <path class="cls-3" d="M38,68H17.5A1.5,1.5,0,0,0,16,69.5v11A1.5,1.5,0,0,0,17.5,82H38V68Z"/>
  <path class="cls-3" d="M50,68V82H88.5A1.5,1.5,0,0,0,90,80.5v-11A1.5,1.5,0,0,0,88.5,68H50Z"/>
  <path class="cls-2" d="M50,50V64H70.5A1.5,1.5,0,0,0,72,62.5v-11A1.5,1.5,0,0,0,70.5,50H50Z"/>
  <path class="cls-1" d="M50,32V46H88.5A1.5,1.5,0,0,0,90,44.5v-11A1.5,1.5,0,0,0,88.5,32H50Z"/>
  <path class="fill" d="M50.5,6h-13A1.5,1.5,0,0,0,36,7.5V21s6,0,6,5V87.5c0,1.828.672,2.5,1.5,2.5h1c0.828,0,1.5-.672,1.5-2.5V26c0-5,6-5,6-5V7.5A1.5,1.5,0,0,0,50.5,6ZM46,27H42V15h4V27Z"/>
  </svg>