<svg id="S_Settings_Sm_N_D_2x" data-name="S_Settings_Sm_N_D@2x" xmlns="http://www.w3.org/2000/svg" width="32" height="32" viewBox="0 0 32 32">
  <defs>
    <style>
      .fill {
        fill: #fff;
        fill-rule: evenodd;
        opacity: 0.65;
      }

      
    </style>
  </defs>
  <title>S_Settings_Sm_N_D@2x</title>
  <path class="fill" d="M7.18,2.515a1.572,1.572,0,0,1,.86-0.36c0.58-.06,7.34-0.82,9.54,1.68,1.5,1.72,1.24,2.94,1.26,4.26a27.234,27.234,0,0,0,.86,5.76,19.3,19.3,0,0,0,1.5,2.82l7.114,7.681a1,1,0,0,1-.023,1.383l-2.586,2.611a1,1,0,0,1-1.45-.03L16.74,20.075a5.593,5.593,0,0,0-2.66-1.98c-1.58-.44-4.14.16-6.16-0.96-2.02-1.14-4.66-5.36-4.76-6.1S3,9.535,3,9.535a0.221,0.221,0,0,1,.32-0.06c0.2,0.12,5.62,3.12,5.62,3.12s1.38,0.38,3.92-2.16c1.06-3.62.2-4.18,0.2-4.18L7.5,2.835Z"/>
  </svg>