<svg id="S_ShadowBlur_Sm_N_2x" data-name="S_ShadowBlur_Sm_N@2x" xmlns="http://www.w3.org/2000/svg" width="32" height="32" viewBox="0 0 32 32">
  <defs>
    <style>
      .fill, .fillMedium, .fillPale {
        fill: #fff;
      }

      .fill {
        opacity: 0.65;
      }

      .fillMedium {
	fill:#000000;
        opacity: 0.3;
      }

      .fillPale {
	fill:#000000;
        opacity: 0.15;
      }

      
    </style>
  </defs>
  <title>S_ShadowBlur_Sm_N@2x</title>
  <path class="fill" d="M20,4V20H4V4Zm1-2H3A1,1,0,0,0,2,3V21a1,1,0,0,0,1,1H21a1,1,0,0,0,1-1V3A1,1,0,0,0,21,2Z"/>
  <path class="fillMedium" d="M26,6V25a1,1,0,0,1-1,1H6l.974,3.066L28.006,29a1,1,0,0,0,1-1l.02-21.179C29,6.821,26,6,26,6Z"/>
  <path class="fillPale" d="M29.026,6.821C29,6.821,29.006,28,29.006,28a1,1,0,0,1-1,1l-21.032.066C7,29.066,8,32,8,32H31a1,1,0,0,0,1-1V8Z"/>
  </svg>