<?xml version="1.0" encoding="UTF-8"?>
<svg id="Icons" xmlns="http://www.w3.org/2000/svg" width="28" height="28" viewBox="0 0 28 28">
  <defs>
    <style>
      .fill {
        fill: #fff;
        opacity: .65;
      }
    </style>
  </defs>
  <rect class="fill" x="2" y="2" width="14" height="12" rx=".5" ry=".5"/>
  <rect class="fill" x="14" y="16" width="12" height="10" rx=".5" ry=".5"/>
  <path class="fill" d="m25.8,10.1c-.087-.064-.192-.1-.3-.1h-1.5c0-3.309-2.691-6-6-6v2c2.205,0,4,1.795,4,4h-1.498c-.276,0-.501.222-.502.498,0,.108.035.215.1.302l2.961,3.2,2.839-3.2c.166-.221.121-.534-.1-.7Z"/>
  <path class="fill" d="m8,20h1.498c.276,0,.501-.222.502-.498,0-.109-.035-.215-.1-.302l-2.962-3.199-2.838,3.201c-.166.221-.121.534.1.7.087.065.192.1.3.1h1.5c0,3.308,2.693,5.999,6.002,5.999v-2c-2.207,0-4.002-1.795-4.002-4Z"/>
</svg>