<svg id="S_ShowBGMovie_Md_N_D_2x" data-name="S_ShowBGMovie_Md_N_D@2x" xmlns="http://www.w3.org/2000/svg" width="36" height="36" viewBox="0 0 36 36">
  <defs>
    <style>
      .fill {
        fill: #fff;
        fill-rule: evenodd;
        opacity: 0.65;
      }

      
    </style>
  </defs>
  <title>S_ShowBGMovie_Md_N_D@2x</title>
  <path class="fill" d="M13.98,23a1.05,1.05,0,0,1,1.04-1.06A1.067,1.067,0,0,1,16.08,23a1.054,1.054,0,0,1-1.06,1.06A1.037,1.037,0,0,1,13.98,23Z"/>
  <path class="fill" d="M0,24.54S5.06,32,13.06,32,26,24.54,26,24.54,21.06,16,13.06,16C5.12,16,0,24.54,0,24.54ZM7.28,24A5.788,5.788,0,0,1,13,18.14a5.862,5.862,0,0,1,0,11.72A5.788,5.788,0,0,1,7.28,24Z"/>
  <path class="fill" d="M32.933,4H11.067A1.035,1.035,0,0,0,10,5v8.34A14.169,14.169,0,0,1,13.06,13c9.62,0,15.3,9.628,15.537,10.038l0.931,1.609L28.631,26h4.3A1.035,1.035,0,0,0,34,25V5A1.035,1.035,0,0,0,32.933,4ZM14,11.5a0.5,0.5,0,0,1-.5.5h-1a0.5,0.5,0,0,1-.5-0.5v-1a0.5,0.5,0,0,1,.5-0.5h1a0.5,0.5,0,0,1,.5.5v1Zm0-4a0.5,0.5,0,0,1-.5.5h-1A0.5,0.5,0,0,1,12,7.5v-1A0.5,0.5,0,0,1,12.5,6h1a0.5,0.5,0,0,1,.5.5v1Zm18,16a0.5,0.5,0,0,1-.5.5h-1a0.5,0.5,0,0,1-.5-0.5v-1a0.5,0.5,0,0,1,.5-0.5h1a0.5,0.5,0,0,1,.5.5v1Zm0-4a0.5,0.5,0,0,1-.5.5h-1a0.5,0.5,0,0,1-.5-0.5v-1a0.5,0.5,0,0,1,.5-0.5h1a0.5,0.5,0,0,1,.5.5v1Zm0-4a0.5,0.5,0,0,1-.5.5h-1a0.5,0.5,0,0,1-.5-0.5v-1a0.5,0.5,0,0,1,.5-0.5h1a0.5,0.5,0,0,1,.5.5v1Zm0-4a0.5,0.5,0,0,1-.5.5h-1a0.5,0.5,0,0,1-.5-0.5v-1a0.5,0.5,0,0,1,.5-0.5h1a0.5,0.5,0,0,1,.5.5v1Zm0-4a0.5,0.5,0,0,1-.5.5h-1A0.5,0.5,0,0,1,30,7.5v-1A0.5,0.5,0,0,1,30.5,6h1a0.5,0.5,0,0,1,.5.5v1Z"/>
  </svg>