<?xml version="1.0" encoding="UTF-8"?>
<svg id="icons" xmlns="http://www.w3.org/2000/svg" width="34" height="30" viewBox="0 0 34 30">
  <defs>
    <style>
      .background {
        opacity: .65;
      }

      .background, .cls-1, .red {
        stroke-width: 0px;
      }

      .cls-1 {
        fill-rule: evenodd;
      }

      .cls-1, .red {
        fill: #ee4331;
      }
    </style>
  </defs>
  <rect class="background" width="34" height="30"/>
  <path class="cls-1" d="M8,18h1.5c.27614,0,.5-.22386.5-.5,0-.10818-.03509-.21345-.1-.3l-2.963-3.2-2.837,3.2c-.16568.22091-.12091.53432.1.7.08655.06491.19181.1.3.1h1.5c0,5.52285,4.47715,10,10,10v-2c-4.41828,0-8-3.58172-8-8Z"/>
  <path class="cls-1" d="M31.8,12.1c-.08655-.06491-.19181-.1-.3-.1h-1.5c0-5.52285-4.47715-10-10-10v2c4.41828,0,8,3.58172,8,8h-1.5c-.27614,0-.5.22386-.5.5,0,.10819.03509.21345.1.3l2.962,3.2,2.84-3.2c.16516-.22131.11963-.5346-.10168-.69976-.00011-.00008-.00022-.00016-.00032-.00024Z"/>
  <path id="Fill" class="cls-1" d="M2,3v13l5-5,4.562,5h5.438c.55228,0,1-.44771,1-1V3c0-.55228-.44772-1-1-1H3c-.55228,0-1,.44772-1,1Z"/>
  <path class="red" d="M31.8681,27.213l-6.334-11.732c-.13986-.25902-.46321-.35562-.72223-.21576-.09141.04936-.16641.12435-.21576.21576l-6.463,11.732c-.14028.25879-.04421.58231.21458.72259.07781.04218.16491.06432.25342.06441h12.8c.29437-.00088.53229-.24022.53141-.53458-.00026-.08817-.02239-.1749-.06441-.25242ZM26.0011,25.5c0,.27614-.22386.5-.5.5h-1c-.27614,0-.5-.22386-.5-.5v-1c0-.27614.22386-.5.5-.5h1c.27614,0,.5.22386.5.5v1ZM26.0011,22.5c0,.27614-.22386.5-.5.5h-1c-.27614,0-.5-.22386-.5-.5v-4c0-.27614.22386-.5.5-.5h1c.27614,0,.5.22386.5.5v4Z"/>
</svg>