<svg id="S_Shoppingcart_Sm_N_2x" data-name="S_Shoppingcart_Sm_N@2x" xmlns="http://www.w3.org/2000/svg" width="32" height="32" viewBox="0 0 32 32">
  <defs>
    <style>
      .fill {
        fill-rule: evenodd;
        opacity: 0.65;
      }

      
    </style>
  </defs>
  <title>S_Shoppingcart_Sm_N@2x</title>
  <ellipse class="fill" cx="10.496" cy="28.266" rx="2.666" ry="2.916"/>
  <ellipse class="fill" cx="21.872" cy="28.266" rx="2.666" ry="2.916"/>
  <path class="fill" d="M25.359,21.5h-14.9l1-3.458h12.75a1.334,1.334,0,0,0,1.308-1.072L30.068,6.742A1.365,1.365,0,0,0,28.634,5.12H6.548l-1.3-3.5A1.334,1.334,0,0,0,3.94.484H1.386a1.334,1.334,0,0,0-.1,2.666h1.5L8.714,17.266,7.426,22.342C7.2,23.254,7.351,23.86,8.292,24H25a1.53,1.53,0,0,0,1.762-1.334C26.772,21.885,26.133,21.6,25.359,21.5ZM7.58,7.92H26.694L23,16H11.226Z"/>
  </svg>