<svg xmlns="http://www.w3.org/2000/svg" data-name="S_Shape9to16_28_N_D@2x" height="56" id="S_Shape9to16_28_N_D_2x" viewBox="0 0 56 56" width="56">
  <defs>
    <style>
      .fill {
        fill: #fff;
        fill-rule: evenodd;
        opacity: 0.65;
      }

      
    </style>
  </defs>
  <title>S_Shape9to16_28_N_D@2x</title>
  <path class="fill" d="M38,5a2,2,0,0,1,2,2V49a2,2,0,0,1-2,2H18a2,2,0,0,1-2-2V7a2,2,0,0,1,2-2Zm0-2H18a4,4,0,0,0-4,4V49a4,4,0,0,0,4,4H38a4,4,0,0,0,4-4V7A4,4,0,0,0,38,3Z" />
  </svg>