<svg xmlns="http://www.w3.org/2000/svg" data-name="S_ShadowSize_Sm_N_D@2x" height="32" id="S_ShadowSize_Sm_N_D_2x" viewBox="0 0 32 32" width="32">
  <defs>
    <style>
	.fill, .fillMedium, .fillPale {
        fill: #fff;
      }
	.fillPale {
		fill: #000000;
		
        opacity: 0.15;
      }
	.fillMedium {
		fill: #000000;
		
        opacity: 0.3;
      }
	.fill {
		fill: #000000;
		
        fill-rule: evenodd;
        opacity: 0.65;
      }</style>
  </defs>
  <title>S_ShadowSize_Sm_N_D@2x</title>
  <path class="fillPale" d="M31,0H1A1,1,0,0,0,0,1V31a1,1,0,0,0,1,1H31a1,1,0,0,0,1-1V1A1,1,0,0,0,31,0ZM29,28a1,1,0,0,1-1,1H4a1,1,0,0,1-1-1V4A1,1,0,0,1,4,3H28a1,1,0,0,1,1,1Z" />
  <path class="fillMedium" d="M28,2.8H4A1.376,1.376,0,0,0,2.8,4V28A1.376,1.376,0,0,0,4,29.2H28A1.376,1.376,0,0,0,29.2,28V4A1.376,1.376,0,0,0,28,2.8ZM26,25a1,1,0,0,1-1,1H7a1,1,0,0,1-1-1V7A1,1,0,0,1,7,6H25a1,1,0,0,1,1,1Z" />
  <path class="fill" d="M22,10V22H10V10Zm1-2H9A1,1,0,0,0,8,9V23a1,1,0,0,0,1,1H23a1,1,0,0,0,1-1V9A1,1,0,0,0,23,8Z" />
  </svg>