<?xml version="1.0" encoding="UTF-8"?>
<svg id="icons" xmlns="http://www.w3.org/2000/svg" width="34" height="30" viewBox="0 0 34 30">
  <defs>
    <style>
      .background {
        opacity: .65;
      }

      .background, .fillMedium {
        stroke-width: 0px;
      }

      .fillMedium {
        fill: #fff;
        opacity: .3;
      }
    </style>
  </defs>
  <rect class="background" width="34" height="30"/>
  <path class="fillMedium" d="M8,18h1.5c.27614,0,.5-.22386.5-.5,0-.10818-.03509-.21345-.1-.3l-2.963-3.2-2.837,3.2c-.16568.22091-.12091.53432.1.7.08655.06491.19181.1.3.1h1.5c0,5.52285,4.47715,10,10,10v-2c-4.41828,0-8-3.58172-8-8Z"/>
  <path class="fillMedium" d="M31.8,12.1c-.08655-.06491-.19181-.1-.3-.1h-1.5c0-5.52285-4.47715-10-10-10v2c4.41828,0,8,3.58172,8,8h-1.5c-.27614,0-.5.22386-.5.5,0,.10819.03509.21345.1.3l2.962,3.2,2.84-3.2c.16516-.22131.11963-.5346-.10168-.69976-.00011-.00008-.00022-.00016-.00032-.00024Z"/>
  <polygon class="fillMedium" points="2 5.24243 2 16 7 11 11.56201 16 12.75745 16 2 5.24243"/>
  <path class="fillMedium" d="M18,12.75732V3c0-.55225-.44769-1-1-1H7.24261l10.75739,10.75732Z"/>
  <path class="fillMedium" d="M18,21.24268v5.75732c0,.55225.44769,1,1,1h5.75739l-6.75739-6.75732Z"/>
  <path class="fillMedium" d="M30,24.75757v-5.75757c0-.55225-.44769-1-1-1h-5.75745l6.75745,6.75757Z"/>
  <rect class="fillMedium" x="15.00011" y="-3.73829" width="1.99978" height="37.47659" rx=".25" ry=".25" transform="translate(-5.92031 15.70711) rotate(-45)"/>
</svg>