<?xml version="1.0" encoding="UTF-8"?>
<svg id="icons" xmlns="http://www.w3.org/2000/svg" width="34" height="30" viewBox="0 0 34 30">
  <defs>
    <style>
      .background {
        opacity: .65;
      }

      .background, .blue {
        stroke-width: 0px;
      }

      .blue {
        fill: #2d8ceb;
      }
    </style>
  </defs>
  <rect class="background" width="34" height="30"/>
  <path class="blue" d="M8,18h1.5c.27614,0,.5-.22386.5-.5,0-.10818-.03509-.21345-.1-.3l-2.963-3.2-2.837,3.2c-.16568.22091-.12091.53432.1.7.08655.06491.19181.1.3.1h1.5c0,5.52285,4.47715,10,10,10v-2c-4.41828,0-8-3.58172-8-8Z"/>
  <path class="blue" d="M31.8,12.1c-.08655-.06491-.19181-.1-.3-.1h-1.5c0-5.52285-4.47715-10-10-10v2c4.41828,0,8,3.58172,8,8h-1.5c-.27614,0-.5.22386-.5.5,0,.10819.03509.21345.1.3l2.962,3.2,2.84-3.2c.16516-.22131.11963-.5346-.10168-.69976-.00011-.00008-.00022-.00016-.00032-.00024Z"/>
  <path id="Fill2" class="blue" d="M19,18h10c.55228,0,1,.44772,1,1v8c0,.55228-.44772,1-1,1h-10c-.55228,0-1-.44772-1-1v-8c0-.55228.44772-1,1-1Z"/>
  <path id="Fill" class="blue" d="M2,3v13l5-5,4.562,5h5.438c.55228,0,1-.44771,1-1V3c0-.55228-.44772-1-1-1H3c-.55228,0-1,.44772-1,1Z"/>
</svg>