<svg xmlns="http://www.w3.org/2000/svg" data-name="S_Share_18_N@2x" height="36" id="S_Share_18_N_2x" viewBox="0 0 36 36" width="36">
  <defs>
    <style>
	.fill {
		fill: #000000;
		
        fill-rule: evenodd;
        opacity: 0.65;
      }</style>
  </defs>
  <title>S_Share_18_N@2x</title>
  <path class="fill" d="M24.476,7.165,18,0,11.54,7.165A.5.5,0,0,0,11.911,8H16V19.5a.5.5,0,0,0,.5.5h3a.5.5,0,0,0,.5-.5V8h4.1A.5.5,0,0,0,24.476,7.165Z" />
  <path class="fill" d="M33,8H26.5a.5.5,0,0,0-.5.5v3a.5.5,0,0,0,.5.5H30V28H6V12H9.5a.5.5,0,0,0,.5-.5v-3A.5.5,0,0,0,9.5,8H3A1,1,0,0,0,2,9V31a1,1,0,0,0,1,1H33a1,1,0,0,0,1-1V9A1,1,0,0,0,33,8Z" />
  </svg>