<svg xmlns="http://www.w3.org/2000/svg" data-name="S_Shape1to1_28_N_D@2x" height="56" id="S_Shape1to1_28_N_D_2x" viewBox="0 0 56 56" width="56">
  <defs>
    <style>
      .fill {
        fill: #fff;
        fill-rule: evenodd;
        opacity: 0.65;
      }

      
    </style>
  </defs>
  <title>S_Shape1to1_28_N_D@2x</title>
  <path class="fill" d="M41,13a2,2,0,0,1,2,2V41a2,2,0,0,1-2,2H15a2,2,0,0,1-2-2V15a2,2,0,0,1,2-2Zm0-2H15a4,4,0,0,0-4,4V41a4,4,0,0,0,4,4H41a4,4,0,0,0,4-4V15A4,4,0,0,0,41,11Z" />
  </svg>