<svg id="S_ShadowOffSet_Sm_N_2x" data-name="S_ShadowOffSet_Sm_N@2x" xmlns="http://www.w3.org/2000/svg" width="32" height="32" viewBox="0 0 32 32">
  <defs>
    <style>
      .fill, .fillMedium, .fillPale {
        fill: #fff;
      }

      .fill {
	fill:#000000;
        fill-rule: evenodd;
        opacity: 0.65;
      }

      .fillMedium {
	fill:#000000;
        opacity: 0.3;
      }

      .fillPale {
	fill:#000000;
        opacity: 0.15;
      }

      
    </style>
  </defs>
  <title>S_ShadowOffSet_Sm_N@2x</title>
  <path class="fill" d="M20,0V20H0v2H21a1,1,0,0,0,1-1V0Z"/>
  <path class="fillMedium" d="M22,0V21a1,1,0,0,1-1,1H0l2,4H25a1,1,0,0,0,1-1V2Z"/>
  <path class="fillPale" d="M26,2V25a1,1,0,0,1-1,1H2l2,3.929H29a1,1,0,0,0,1-1V4Z"/>
  </svg>