<?xml version="1.0" encoding="UTF-8"?>
<svg id="ICONS" xmlns="http://www.w3.org/2000/svg" width="28" height="28" viewBox="0 0 28 28">
  <defs>
    <style>
      .fillMedium {
        opacity: .3;
      }

      .fillMedium, .fill {
        fill: #fff;
      }

      .fill {
        opacity: .65;
      }
    </style>
  </defs>
  <path class="fillMedium" d="M14,6.08337c4.36523,0,7.91663,3.55139,7.91663,7.91663s-3.55139,7.91663-7.91663,7.91663-7.91663-3.55139-7.91663-7.91663,3.55139-7.91663,7.91663-7.91663h0Z"/>
  <path class="fill" d="M14,6.08337c4.36523,0,7.91663,3.55139,7.91663,7.91663s-3.55139,7.91663-7.91663,7.91663-7.91663-3.55139-7.91663-7.91663,3.55139-7.91663,7.91663-7.91663h0ZM14,4.08337c-5.47693,0-9.91663,4.4397-9.91663,9.91663s4.4397,9.91663,9.91663,9.91663,9.91663-4.4397,9.91663-9.91663-4.4397-9.91663-9.91663-9.91663h0Z"/>
</svg>