<?xml version="1.0" encoding="UTF-8"?>
<svg id="ICONS" xmlns="http://www.w3.org/2000/svg" width="28" height="28" viewBox="0 0 28 28">
  <defs>
    <style>
      .fillMedium {
        opacity: .3;
      }

      .fillMedium, .fill {
        fill: #fff;
      }

      .fill {
        opacity: .65;
      }
    </style>
  </defs>
  <path class="fillMedium" d="M14,8.61108c2.97144,0,5.38892,2.41748,5.38892,5.38892s-2.41748,5.38892-5.38892,5.38892-5.38892-2.41748-5.38892-5.38892,2.41748-5.38892,5.38892-5.38892h0Z"/>
  <path class="fill" d="M14,8.61108c2.97144,0,5.38892,2.41748,5.38892,5.38892s-2.41748,5.38892-5.38892,5.38892-5.38892-2.41748-5.38892-5.38892,2.41748-5.38892,5.38892-5.38892h0ZM14,6.61108c-4.08081,0-7.38892,3.30811-7.38892,7.38892s3.30811,7.38892,7.38892,7.38892,7.38892-3.30811,7.38892-7.38892-3.30811-7.38892-7.38892-7.38892h0Z"/>
</svg>