<?xml version="1.0" encoding="UTF-8"?>
<svg id="ICONS" xmlns="http://www.w3.org/2000/svg" width="28" height="28" viewBox="0 0 28 28">
  <defs>
    <style>
      .fillMedium {
        opacity: .3;
      }

      .fillMedium, .fill {
        fill: #fff;
      }

      .fill {
        opacity: .65;
      }
    </style>
  </defs>
  <path class="fillMedium" d="M14,11.13892c1.57764,0,2.86108,1.28345,2.86108,2.86108s-1.28345,2.86108-2.86108,2.86108-2.86108-1.28345-2.86108-2.86108,1.28345-2.86108,2.86108-2.86108h0Z"/>
  <path class="fill" d="M14,11.13892c1.57764,0,2.86108,1.28345,2.86108,2.86108s-1.28345,2.86108-2.86108,2.86108-2.86108-1.28345-2.86108-2.86108,1.28345-2.86108,2.86108-2.86108h0ZM14,9.13892c-2.68457,0-4.86108,2.17651-4.86108,4.86108s2.17651,4.86108,4.86108,4.86108,4.86108-2.17651,4.86108-4.86108-2.17651-4.86108-4.86108-4.86108h0Z"/>
</svg>