<?xml version="1.0" encoding="UTF-8"?>
<svg id="ICONS" xmlns="http://www.w3.org/2000/svg" width="28" height="28" viewBox="0 0 28 28">
  <defs>
    <style>
      .fillMedium {
        opacity: .3;
      }

      .fillMedium, .fill {
        fill: #fff;
      }

      .fill {
        opacity: .65;
      }
    </style>
  </defs>
  <path class="fillMedium" d="M14,3.55554c5.75903,0,10.44446,4.68542,10.44446,10.44446s-4.68542,10.44446-10.44446,10.44446S3.55554,19.75903,3.55554,14,8.24097,3.55554,14,3.55554h0Z"/>
  <path class="fill" d="M14,3.55554c5.75903,0,10.44446,4.68542,10.44446,10.44446s-4.68542,10.44446-10.44446,10.44446S3.55554,19.75903,3.55554,14,8.24097,3.55554,14,3.55554h0ZM14,1.55554C7.12708,1.55554,1.55554,7.12708,1.55554,14s5.57153,12.44446,12.44446,12.44446,12.44446-5.57153,12.44446-12.44446S20.87292,1.55554,14,1.55554h0Z"/>
</svg>