<svg id="S_SlowReverse_Md_N_D_2x" data-name="S_SlowReverse_Md_N_D@2x" xmlns="http://www.w3.org/2000/svg" width="36" height="36" viewBox="0 0 36 36">
  <defs>
    <style>
      .fill {
        fill: #fff;
        fill-rule: evenodd;
        opacity: 0.65;
      }

      
    </style>
  </defs>
  <title>S_SlowReverse_Md_N_D@2x</title>
  <path id="Fill" class="fill" d="M32,10.785v12.43a0.5,0.5,0,0,1-.711.453L17,17l14.289-6.668A0.5,0.5,0,0,1,32,10.785Zm0-5.962V5.7a0.5,0.5,0,0,1-.268.443L11,17,31.732,27.86A0.5,0.5,0,0,1,32,28.3v0.874a0.5,0.5,0,0,1-.731.444L7,17,31.269,4.38A0.5,0.5,0,0,1,32,4.824Z"/>
  </svg>