<svg id="S_Slide_Lg_N_D_2x" data-name="S_Slide_Lg_N_D@2x" xmlns="http://www.w3.org/2000/svg" width="44" height="36" viewBox="0 0 44 36">
  <defs>
    <style>
      .fill {
        fill: #fff;
        fill-rule: evenodd;
        opacity: 0.65;
      }

      
    </style>
  </defs>
  <title>S_Slide_Lg_N_D@2x</title>
  <path id="Fill" class="fill" d="M11.213,10.551L2,17l9.213,6.449A0.5,0.5,0,0,0,12,23.04V18H32v5.04a0.5,0.5,0,0,0,.787.41L42,17l-9.213-6.449a0.5,0.5,0,0,0-.787.41V16H12V10.96A0.5,0.5,0,0,0,11.213,10.551Z"/>
  <path id="Fill2" class="fill" d="M26,8v6h2V6.5A0.5,0.5,0,0,0,27.5,6h-11a0.5,0.5,0,0,0-.5.5V14h2V8h8Z"/>
  <path id="Fill3" class="fill" d="M18,26V20H16v7.5a0.5,0.5,0,0,0,.5.5h11a0.5,0.5,0,0,0,.5-0.5V20H26v6H18Z"/>
  </svg>