<svg id="S_SlowPlay_Md_N_D_2x" data-name="S_SlowPlay_Md_N_D@2x" xmlns="http://www.w3.org/2000/svg" width="36" height="36" viewBox="0 0 36 36">
  <defs>
    <style>
      .fill {
        fill: #fff;
        fill-rule: evenodd;
        opacity: 0.65;
      }

      
    </style>
  </defs>
  <title>S_SlowPlay_Md_N_D@2x</title>
  <path id="Fill" class="fill" d="M4,10.785v12.43a0.5,0.5,0,0,0,.711.453L19,17,4.711,10.332A0.5,0.5,0,0,0,4,10.785ZM4,4.824V5.7a0.5,0.5,0,0,0,.268.443L25,17,4.268,27.86A0.5,0.5,0,0,0,4,28.3v0.874a0.5,0.5,0,0,0,.731.444L29,17,4.731,4.38A0.5,0.5,0,0,0,4,4.824Z"/>
  </svg>