<svg id="S_SmartBin_Xl_N_D_2x" data-name="S_SmartBin_Xl_N_D@2x" xmlns="http://www.w3.org/2000/svg" width="64" height="64" viewBox="0 0 64 64">
  <defs>
    <style>
      .fill {
        fill: #fff;
        fill-rule: evenodd;
        opacity: 0.65;
      }

      
    </style>
  </defs>
  <title>S_SmartBin_Xl_N_D@2x</title>
  <path class="fill" d="M23.775,10.7a1.752,1.752,0,0,0-1.4-.7H5.75A1.75,1.75,0,0,0,4,11.75V14H26.033Z"/>
  <circle class="fill" cx="35.788" cy="31.212" r="7"/>
  <path class="fill" d="M58.25,17H4V50.25A1.75,1.75,0,0,0,5.75,52h52.5A1.75,1.75,0,0,0,60,50.25V18.75A1.75,1.75,0,0,0,58.25,17ZM35.788,41.237a9.967,9.967,0,0,1-5.987-2l-8.013,8.013a2.155,2.155,0,0,1-3.04-3.04l8.238-8.2A10.026,10.026,0,1,1,35.788,41.237Z"/>
  </svg>