<svg id="S_SmartBin_Sm_N_D_2x" data-name="S_SmartBin_Sm_N_D@2x" xmlns="http://www.w3.org/2000/svg" width="32" height="32" viewBox="0 0 32 32">
  <defs>
    <style>
      .fill {
        fill: #fff;
        opacity: 0.65;
      }

      
    </style>
  </defs>
  <title>S_SmartBin_Sm_N_D@2x</title>
  <path class="fill" d="M11.3,4.4A1,1,0,0,0,10.5,4H3A1,1,0,0,0,2,5V6H12.4Z"/>
  <path class="fill" d="M29,8H2V25a1,1,0,0,0,1,1H29a1,1,0,0,0,1-1V9A1,1,0,0,0,29,8ZM20.817,19a5.273,5.273,0,0,1-6.635.67l-4.175,4.176a0.527,0.527,0,0,1-.746,0L8.515,23.1a0.528,0.528,0,0,1,0-.746l4.175-4.175A5.272,5.272,0,1,1,20.817,19Z"/>
  <circle class="fill" cx="17.089" cy="15.272" r="3.163" transform="translate(-5.793 16.556) rotate(-44.997)"/>
  </svg>