<svg id="S_SmartBin_64x64_N_D_2x" data-name="S_SmartBin_64x64_N_D@2x" xmlns="http://www.w3.org/2000/svg" width="128" height="128" viewBox="0 0 128 128">
  <defs>
    <style>
      .fill {
        fill: #fff;
        opacity: 0.65;
      }

      
    </style>
  </defs>
  <title>S_SmartBin_64x64_N_D@2x</title>
  <path class="fill" d="M47.55,23.4a3.5,3.5,0,0,0-2.8-1.4H11.5A3.5,3.5,0,0,0,8,25.5V29H51.4Z"/>
  <path class="fill" d="M116.5,33H8v67.5a3.5,3.5,0,0,0,3.5,3.5h105a3.5,3.5,0,0,0,3.5-3.5v-64A3.5,3.5,0,0,0,116.5,33ZM67.7,80.592a15.208,15.208,0,0,1-9.135-3.048L46.343,89.77A3.288,3.288,0,0,1,41.7,85.131L54.273,72.619A15.3,15.3,0,1,1,67.7,80.592Z"/>
  <circle class="fill" cx="67.704" cy="65.296" r="12"/>
  </svg>