<svg id="S_Snapshot_Wi_N_D_2x" data-name="S_Snapshot_Wi_N_D@2x" xmlns="http://www.w3.org/2000/svg" width="40" height="26" viewBox="0 0 40 26">
  <defs>
    <style>
      .fill {
        fill: #fff;
        fill-rule: evenodd;
        opacity: 0.65;
      }

      
    </style>
  </defs>
  <title>S_Snapshot_Wi_N_D@2x</title>
  <circle class="fill" cx="20" cy="14" r="3.9"/>
  <path class="fill" d="M33,6H27.418a1,1,0,0,1-.768-0.36L23.916,2.36A1,1,0,0,0,23.148,2H16.723a1,1,0,0,0-.768.36L13.221,5.64a1,1,0,0,1-.768.36H7A1,1,0,0,0,6,7V23a1,1,0,0,0,1,1H33a1,1,0,0,0,1-1V7A1,1,0,0,0,33,6ZM20,20.1A6.1,6.1,0,1,1,26.1,14,6.1,6.1,0,0,1,20,20.1Z"/>
  </svg>