<svg xmlns="http://www.w3.org/2000/svg" data-name="S_Snapchat_18_N_D@2x" height="36" id="S_Snapchat_18_N_D_2x" viewBox="0 0 36 36" width="36">
  <defs>
    <style>
	.fill {
        fill: #fff;
        fill-rule: evenodd;
        opacity: 0.65;
      }</style>
  </defs>
  <title>S_Snapchat_18_N_D@2x</title>
  <path class="fill" d="M18.217,34c-.088,0-.174,0-.261-.007h0c-.055,0-.113.007-.17.007a7.458,7.458,0,0,1-4.57-1.8,6.665,6.665,0,0,0-2.645-1.349,8.539,8.539,0,0,0-1.389-.117,9.5,9.5,0,0,0-1.924.217,4.212,4.212,0,0,1-.717.1.451.451,0,0,1-.5-.356c-.08-.272-.138-.535-.193-.79-.143-.656-.245-1.059-.52-1.1-3.2-.495-4.12-1.17-4.325-1.648a.617.617,0,0,1-.049-.2.361.361,0,0,1,.3-.376c4.924-.811,7.133-5.844,7.224-6.058L8.49,20.5a1.876,1.876,0,0,0,.176-1.576c-.338-.8-1.44-1.146-2.17-1.378-.179-.056-.348-.11-.481-.163-1.456-.576-1.577-1.166-1.52-1.467a1.375,1.375,0,0,1,1.338-.871.937.937,0,0,1,.4.08,4.242,4.242,0,0,0,1.754.462,1.446,1.446,0,0,0,1.048-.334c-.018-.333-.04-.681-.063-1.041-.147-2.328-.328-5.221.408-6.872a8.908,8.908,0,0,1,8.271-5.334L18.257,2h.082a8.924,8.924,0,0,1,8.286,5.338c.737,1.652.554,4.547.408,6.874l-.006.1c-.02.324-.04.639-.056.94a1.4,1.4,0,0,0,.956.332h0a4.39,4.39,0,0,0,1.653-.46,1.247,1.247,0,0,1,.514-.1,1.569,1.569,0,0,1,.591.113l.011,0a1.086,1.086,0,0,1,.826.884c.006.341-.254.854-1.531,1.359-.132.052-.3.106-.481.163-.73.232-1.832.581-2.17,1.378a1.875,1.875,0,0,0,.176,1.575l.008.018c.092.214,2.3,5.245,7.224,6.057a.361.361,0,0,1,.3.376.6.6,0,0,1-.05.206c-.2.475-1.119,1.149-4.324,1.644-.262.04-.363.381-.519,1.1-.057.26-.114.516-.194.785a.428.428,0,0,1-.458.343h-.04a4.012,4.012,0,0,1-.717-.09,9.566,9.566,0,0,0-1.925-.2,8.549,8.549,0,0,0-1.389.117A6.656,6.656,0,0,0,22.79,32.2,7.461,7.461,0,0,1,18.217,34Z" />
  </svg>