<svg id="S_SoundWaveCol_48x48_N_D_2x" data-name="S_SoundWaveCol_48x48_N_D@2x" xmlns="http://www.w3.org/2000/svg" width="96" height="96" viewBox="0 0 96 96">
  <defs>
    <style>
      .cls-1 {
        fill: #29d698;
      }

      
    </style>
  </defs>
  <title>S_SoundWaveCol_48x48_N_D@2x</title>
  <path id="outline" class="cls-1" d="M4,16H92V80H4V16ZM2,15V81a1,1,0,0,0,1,1H93a1,1,0,0,0,1-1V15a1,1,0,0,0-1-1H3A1,1,0,0,0,2,15Z"/>
  <path class="cls-1" d="M88,44H86v4H80V46H78v2H76V46H74V40H72V34H70v8H68V30H66V24H64V38H62v9.92A7.514,7.514,0,0,0,60,48c-0.425,0-3.4-3.436-6-6V38H52v2.541l-2-2.027V34l-2-4V26H46V36H44V21l-2-5V26H40V16H38v6H36V38H34v8c-0.531.637-1.188,2-2,2H30V34H28V48a3.207,3.207,0,0,1-2-.82V38H24v6.81A45.61,45.61,0,0,1,20,36H18V28H16v4H14L12,44.171H10V48H4v1.829h6V53.6h2v7.543L16,64v6h2V64.914l1.2-4.054c1.708-3.516,3.256-7.506,4.8-9.59V60h2V49.829l2,0.031V64h2V49.9l4,0.07V60h2V70h2V80h2V64h2v4l2-1.54V56h2v8.914s1.792-2.557,4-5.564V56h2v2h2V54.062C55.89,51.666,57.5,50,58,50h4v8h2V72h2V64h2V56h2v6h2V58h2V52h2V50h2v2h2V50h6v4h2V50h4V48H88V44Z"/>
  </svg>