<svg id="S_SoundWaveCol_Sm_N_D_2x" data-name="S_SoundWaveCol_Sm_N_D@2x" xmlns="http://www.w3.org/2000/svg" width="32" height="32" viewBox="0 0 32 32">
  <defs>
    <style>
      .cls-1 {
        fill: #29d698;
        fill-rule: evenodd;
      }

      
    </style>
  </defs>
  <title>S_SoundWaveCol_Sm_N_D@2x</title>
  <path class="cls-1" d="M2,15l4.585-.084L7.231,9.027S9,14.916,10.469,14.916a9.729,9.729,0,0,1,1.285,0c1.969,0,2.746-8.249,2.746-8.249s1.777,8.249,5.008,8.249c-0.1-.057,1.974.038,1.974,0.038l0.444-6.805c0.858,2.6,2.134,6.805,4.2,6.805C26.18,15.01,30,15,30,15v2l-3.87.037c-2.625,0-3.891,3.306-4.648,6.25v-6.25L19.508,17c-1.01,0-4.73,5.333-5.74,8.334C13.793,25.305,13.106,17,13.106,17H10.934c-1.06,0-3.552,4.711-3.552,4.711L6.585,17H2V15Z"/>
  <path class="cls-1" d="M30.667,4H1.333A1.333,1.333,0,0,0,0,5.333V26.667A1.333,1.333,0,0,0,1.333,28H30.667A1.333,1.333,0,0,0,32,26.667V5.333A1.333,1.333,0,0,0,30.667,4ZM30,26H2V6H30V26Z"/>
  </svg>