<svg id="S_SoundWaveCol_Xl_N_D_2x" data-name="S_SoundWaveCol_Xl_N_D@2x" xmlns="http://www.w3.org/2000/svg" width="64" height="64" viewBox="0 0 64 64">
  <defs>
    <style>
      .cls-1 {
        fill: #29d698;
        fill-rule: evenodd;
      }

      
    </style>
  </defs>
  <title>S_SoundWaveCol_Xl_N_D@2x</title>
  <path class="cls-1" d="M32,7.667l1.055,8.1h1.78a10.066,10.066,0,0,1,.077,2.012,36.212,36.212,0,0,0,.1,3.792l1.961,0.1v2.064L37,19.667h2v6.22c1.646,1.719,4.031,3.843,4.031,3.843l1.969,0v-6.06h2v-10h2l2,12v-6h2v8h2V29.7l2-.01v-2.02h2v2.02l3-.02v2H59v2H57v-2H55v2H53v8H51v-6l-2,10H47v-8H45v-6H40.75c-0.279,0-.955,1-1.75,2.36v7.64H37v-2l-0.01-1.95-1,1.95H35l-2,4v10H31v-2H29l0.108-10.024H27.174L27.09,33.667H27v-1.98l-4-.01v7.99H21v-2H19v-5.49c-1.279,1.162-2.806,4.11-4,6.73v2.76l-0.041,1.886L13,43.667v-4H11v-6H9l-2-2H2v-2H7l2-2h2v-8h2v-2l1.856,0.194L15,19.667v2.57a25.643,25.643,0,0,0,4,6.33v-4.9h2v-2h2v8h2.344c0.589,0,1.142-.553,1.656-1.48v-8.52h2v-8h1.88c0.324-2.371.495-4,.495-4H32Z"/>
  <path class="cls-1" d="M0,5.667v50H64v-50H0Zm62,48H2v-46H62v46Z"/>
  </svg>