<svg id="S_SoundWaveCol_64x64_N_D_2x" data-name="S_SoundWaveCol_64x64_N_D@2x" xmlns="http://www.w3.org/2000/svg" width="128" height="128" viewBox="0 0 128 128">
  <defs>
    <style>
      .cls-1 {
        fill: #29d698;
      }

      
    </style>
  </defs>
  <title>S_SoundWaveCol_64x64_N_D@2x</title>
  <path id="outline2" class="cls-1" d="M2,20H126v88H2V20ZM0,19v90a1,1,0,0,0,1,1H127a1,1,0,0,0,1-1V19a1,1,0,0,0-1-1H1A1,1,0,0,0,0,19Z"/>
  <path class="cls-1" d="M126,62H112V58h-2v4h-4V58h-2V52h-2v8h-2V46H98v2H96V42H94v8H92V38H90V32H88V46H86V61.92c-1.189-.009-6.144.008-6,0.08a9.239,9.239,0,0,1-2-1.84V52H76v6.05c-0.659-.692-1.342-3.4-2-4.05V48H72v2.541l-4-4.027V42l-2-4V32H64V44H62V27l-2-5V32H58V22H56v6H54V26H52V40H50V34H48V50H46v8H44v4H38V44H36V62a15.114,15.114,0,0,1-2-.21V54H32V48H30V58.81C28.471,56.444,27.111,45.1,26,42H24V34H22v4H20L18,58.171H14V62H2v3.829H14V69.6h4V85.143L22,88v6h2V88.914l1.2-4.054c1.708-3.516,3.256-15.506,4.8-17.59V80h2V74h2V65.84l2,0.02V84h2V65.9l6,0.02V70h2v8h2V94h2V86h2v16h2V96h2v10h2V90h2v4l2-1.54V80h2V90.914a40.126,40.126,0,0,1,4-7.564V76h4v4h2V70.062c0.723-.916,1.405-1.722,2-2.372V74h2V66h8V80h2V94h2V86h2V78h2v6h2V80h2v2h2V68h2v8h2V70h2V66h4v4h2V66h14V62Z"/>
  </svg>