<svg id="S_Solo_Xs_N_D_2x" data-name="S_Solo_Xs_N_D@2x" xmlns="http://www.w3.org/2000/svg" width="26" height="26" viewBox="0 0 26 26">
  <defs>
    <style>
      .fill {
        fill: #fff;
        fill-rule: evenodd;
        opacity: 0.65;
      }

      
    </style>
  </defs>
  <title>S_Solo_Xs_N_D@2x</title>
  <path id="Fill" class="fill" d="M16,19.5V18H8.5a0.5,0.5,0,0,0-.5.5v1a0.5,0.5,0,0,0,.5.5h7A0.5,0.5,0,0,0,16,19.5ZM16,14v4h1.5a0.5,0.5,0,0,0,.5-0.5v-3a0.5,0.5,0,0,0-.5-0.5H16Zm-6-2V8H8.5a0.5,0.5,0,0,0-.5.5v3a0.5,0.5,0,0,0,.5.5H10Zm0-5.5V8h7.5A0.5,0.5,0,0,0,18,7.5v-1A0.5,0.5,0,0,0,17.5,6h-7A0.5,0.5,0,0,0,10,6.5ZM10.5,14H16V12.5a0.5,0.5,0,0,0-.5-0.5H10v1.5A0.5,0.5,0,0,0,10.5,14Z"/>
  </svg>