<svg id="S_Sort_Wi_N_D_2x" data-name="S_Sort_Wi_N_D@2x" xmlns="http://www.w3.org/2000/svg" width="40" height="26" viewBox="0 0 40 26">
  <defs>
    <style>
      .fill {
        fill: #fff;
        fill-rule: evenodd;
        opacity: 0.65;
      }

      
    </style>
  </defs>
  <title>S_Sort_Wi_N_D@2x</title>
  <path class="fill" d="M20,5s-5.467,5.051-7.241,6.687a0.5,0.5,0,0,1-.719-0.048l-1.3-1.544A0.5,0.5,0,0,1,10.785,9.4L20,1l9.215,8.4a0.5,0.5,0,0,1,.045.691l-1.3,1.544a0.5,0.5,0,0,1-.719.048C25.467,10.051,20,5,20,5Z"/>
  <path class="fill" d="M20,21s-5.467-5.051-7.241-6.687a0.5,0.5,0,0,0-.719.048l-1.3,1.544a0.5,0.5,0,0,0,.045.691L20,25l9.215-8.4a0.5,0.5,0,0,0,.045-0.691l-1.3-1.544a0.5,0.5,0,0,0-.719-0.048C25.467,15.949,20,21,20,21Z"/>
  </svg>