<?xml version="1.0" encoding="UTF-8"?>
<svg id="ICONS" xmlns="http://www.w3.org/2000/svg" width="128" height="128" viewBox="0 0 128 128">
  <defs>
    <style>
      .cls-1 {
        fill: #29d698;
      }

      .fill {
        fill: #fff;
        opacity: .65;
      }
    </style>
  </defs>
  <rect class="fill" x="112" y="112" width="16" height="16" rx="1" ry="1"/>
  <rect class="fill" x="92" y="112" width="16" height="16" rx="1" ry="1"/>
  <rect class="fill" x="112" y="91" width="16" height="16" rx="1" ry="1"/>
  <rect class="fill" x="92" y="91" width="16" height="16" rx="1" ry="1"/>
  <path class="cls-1" d="M88,108H2V20h124v67h2V19c0-.55225-.44775-1-1-1H1c-.55225,0-1,.44775-1,1v90c0,.55225.44775,1,1,1h87v-2Z"/>
  <path class="cls-1" d="M90,87v-1h2v-8h2v6h2v-4h2v2h2v-14h2v8h2v-6h2v-4h4v4h2v-4h14v-4h-14v-4h-2v4h-4v-4h-2v-6h-2v8h-2v-14h-2v2h-2v-6h-2v8h-2v-12h-2v-6h-2v14h-2v15.91992c-1.18896-.00879-6.14404.00781-6,.08008-.75366-.51123-1.42773-1.13135-2-1.83984v-8.16016h-2v6.0498c-.65894-.69189-1.34204-3.3999-2-4.0498v-6h-2v2.54102l-4-4.02686v-4.51416l-2-4v-6h-2v12h-2v-17l-2-5v10h-2v-10h-2v6h-2v-2h-2v14h-2v-6h-2v16h-2v8h-2v4h-6v-18h-2v18c-.67065-.02539-1.33875-.0957-2-.20996v-7.79004h-2v-6h-2v10.81006c-1.52905-2.36621-2.88892-13.70996-4-16.81006h-2v-8h-2v4h-2l-2,20.1709h-4v3.8291H2v3.8291h12v3.771h4v15.54297l4,2.85693v6h2v-5.08594l1.19995-4.0542c1.70801-3.51611,3.2561-15.50586,4.80005-17.58984v12.72998h2v-6h2v-8.16016l2,.02002v18.14014h2v-18.1001l6,.02002v4.08008h2v8h2v16h2v-8h2v16h2v-6h2v10h2v-16h2v4l2-1.54004v-12.45996h2v10.91406c1.05994-2.65674,2.40088-5.19238,4-7.56396v-7.3501h4v4h2v-9.93799c.72302-.91602,1.40503-1.72217,2-2.37207v6.31006h2v-8h8v14h2v7h2Z"/>
</svg>