<?xml version="1.0" encoding="UTF-8"?>
<svg id="ICONS" xmlns="http://www.w3.org/2000/svg" width="96" height="96" viewBox="0 0 96 96">
  <defs>
    <style>
      .cls-1 {
        fill: none;
      }

      .cls-2 {
        fill: #29d698;
      }

      .fill {
        fill: #fff;
        opacity: .65;
      }
    </style>
  </defs>
  <rect class="fill" x="84" y="84" width="12" height="12" rx=".5" ry=".5"/>
  <rect class="fill" x="68" y="84" width="12" height="12" rx=".5" ry=".5"/>
  <rect class="fill" x="84" y="68" width="12" height="12" rx=".5" ry=".5"/>
  <rect class="fill" x="68" y="68" width="12" height="12" rx=".5" ry=".5"/>
  <path class="cls-2" d="M64,80H4V16h88v48h2V15c0-.55225-.44775-1-1-1H3c-.55225,0-1,.44775-1,1v66c0,.55225.44775,1,1,1h61v-2Z"/>
  <path class="cls-2" d="M64,58v6h4v-8h2v6h2v-4h2v-6h2v-2h2v2h2v-2h6v4h2v-4h4v-2h-4v-4h-2v4h-6v-2h-2v2h-2v-2h-2v-6h-2v-6h-2v8h-2v-12h-2v-6h-2v14h-2v9.91992c-.66724-.0625-1.33984-.03564-2,.08008-.42505,0-3.40002-3.43604-6-6v-4h-2v2.54102l-2-2.02686v-4.51416l-2-4v-4h-2v10h-2v-15l-2-5v10h-2v-10h-2v6h-2v16h-2v8c-.53101.63672-1.18799,2-2,2h-2v-14h-2v14c-.74146-.03369-1.44824-.32324-2-.81982v-9.18018h-2v6.81006c-1.64185-2.78662-2.98279-5.73975-4-8.81006h-2v-8h-2v4h-2l-2,12.1709h-2v3.8291h-6v1.8291h6v3.771h2v7.54297l4,2.85693v6h2v-5.08594l1.19995-4.0542c1.70801-3.51611,3.2561-7.50586,4.80005-9.58984v8.72998h2v-10.1709l2,.03076v14.14014h2v-14.1001l4,.06982v10.03027h2v10h2v10h2v-16h2v4l2-1.54004v-10.45996h2v8.91406s1.79199-2.55713,4-5.56396v-3.3501h2v2h2v-3.93799c1.89001-2.396,3.5-4.06201,4-4.06201h4v8h2Z"/>
  <rect class="cls-1" x="64" y="64" width="38" height="37"/>
</svg>