<?xml version="1.0" encoding="UTF-8"?>
<svg id="ICONS" xmlns="http://www.w3.org/2000/svg" width="64" height="64" viewBox="0 0 64 64">
  <defs>
    <style>
      .fill {
        fill: #fff;
        opacity: .65;
      }

      .cls-1 {
        fill: #29d698;
        fill-rule: evenodd;
      }
    </style>
  </defs>
  <rect class="fill" x="56" y="56" width="8" height="8" rx=".5" ry=".5"/>
  <rect class="fill" x="45" y="56" width="8" height="8" rx=".5" ry=".5"/>
  <rect class="fill" x="56" y="45" width="8" height="8" rx=".5" ry=".5"/>
  <rect class="fill" x="45" y="45" width="8" height="8" rx=".5" ry=".5"/>
  <path class="cls-1" d="M0,5.66699v50h41v-2h-8v-9.99707l2-4h.98999l1-1.9502.01001,1.9502v2h2v-7.64014c.79498-1.35986,1.47101-2.35986,1.75-2.35986h4.25v6h2v3.33008h2.93402l1.06598-5.33008v5.33008h2v-7.33008h2v-2h2v2h2v-2h3v9.33008h2V5.66699H0ZM31.375,7.66699s-.17102,1.62891-.495,4h-1.88v8h-2v8.52002c-.51398.92725-1.06702,1.47998-1.65601,1.47998h-2.34399v-8h-2v2h-2v4.8999c-1.63586-1.90283-2.98358-4.03564-4-6.33008v-2.56982l-.14398-1.80615-1.85602-.19385v2h-2v8h-2l-2,2H2V7.66699h29.375ZM2,53.66699v-22h5l2,2h2v6h2v4l1.95898-.11426.04102-1.88574v-2.75977c1.19403-2.62012,2.72101-5.56836,4-6.73047v5.49023h2v2h2v-7.99023l4,.01025v1.97998h.09003l.08398,7.979h1.93396l-.10797,10.02393h2v1.99707H2ZM59,29.68994v-2.02002h-2v2.02002l-2,.01025v-2.03027h-2v-8h-2v6l-2-12h-2v10h-2v6.06006h-1.96899s-2.38501-2.12402-4.03101-3.84326v-6.21973h-2l-.02698,4.06787v-2.06396l-1.961-.1001c-.09961-1.26123-.13293-2.52686-.10004-3.79199.04163-.67139.01587-1.34521-.07697-2.01172h-1.78003l-1.05499-8.1001h30v22.00781l-3,.01514Z"/>
</svg>