<?xml version="1.0" encoding="UTF-8"?>
<svg id="ICONS" xmlns="http://www.w3.org/2000/svg" width="32" height="32" viewBox="0 0 32 32">
  <defs>
    <style>
      .fill {
        fill: #fff;
        opacity: .65;
      }

      .cls-1 {
        fill: #29d698;
        fill-rule: evenodd;
      }
    </style>
  </defs>
  <path class="cls-1" d="M30.66699,4H1.33301C.5968,4,0,4.59668,0,5.33301v21.33398C0,27.40332.5968,28,1.33301,28h17.86694v-2H2v-9h4.58496l.797,4.71094s2.49207-4.71094,3.552-4.71094h2.172s.68701,8.30469.66199,8.33398c1.01001-3.00098,4.7301-8.33398,5.74011-8.33398l1.974.03711v2.16309h1.54749c.74878-1.2666,1.73938-2.16309,3.10046-2.16309l3.87-.03711v2.2002h2V5.33301c0-.73633-.5968-1.33301-1.33301-1.33301ZM30,15s-3.81995.00977-3.87402-.0459c-2.06592,0-3.34192-4.20508-4.19995-6.80566l-.44397,6.80566s-2.0741-.09473-1.974-.03809c-3.23108,0-5.00806-8.24902-5.00806-8.24902,0,0-.77698,8.24902-2.74597,8.24902-.42786-.02832-.85718-.02832-1.28503,0-1.46899,0-3.23804-5.88867-3.23804-5.88867l-.646,5.88867-4.58496.08398V6h28v9Z"/>
  <rect class="fill" x="28" y="28" width="4" height="4" rx=".5" ry=".5"/>
  <rect class="fill" x="22" y="28" width="4" height="4" rx=".5" ry=".5"/>
  <rect class="fill" x="28" y="22" width="4" height="4" rx=".5" ry=".5"/>
  <rect class="fill" x="22" y="22" width="4" height="4" rx=".5" ry=".5"/>
</svg>