<?xml version="1.0" encoding="UTF-8"?>
<svg id="ICONS" xmlns="http://www.w3.org/2000/svg" width="36" height="36" viewBox="0 0 36 36">
  <defs>
    <style>
      .fill {
        fill: #fff;
        opacity: .65;
      }
    </style>
  </defs>
  <path id="Shape" class="fill" d="M36,26.9v8.7c0,.22091-.17909.4-.4.4h-8.7c-.22084-.00571-.39523-.18937-.38952-.41021.00256-.09876.04157-.19308.10952-.26479l8.703-8.709c.15936-.153.41257-.14784.56557.01152.07043.07336.11028.17079.11143.27248Z"/>
  <rect class="fill" x="2" y="22" width="12" height="4" rx="1" ry="1"/>
  <rect class="fill" x="2" y="14" width="16" height="4" rx="1" ry="1"/>
  <rect class="fill" x="2" y="6" width="20" height="4" rx="1" ry="1"/>
  <path class="fill" d="M32,22h-2.007V7c.00663-.54562-.43031-.9933-.97593-.99993-.00369-.00004-.00738-.00007-.01107-.00007h-.992c-.55228,0-1,.44771-1,1l-.007,15h-2.007c-.27614,0-.5.22386-.5.5-.00002.13168.05296.25782.147.35l3.537,4.033c.18396.15002.44804.15002.632,0l3.537-4.033c.09404-.09218.14702-.21832.147-.35,0-.27614-.22386-.5-.5-.5Z"/>
</svg>