<?xml version="1.0" encoding="UTF-8"?>
<svg id="ICONS" xmlns="http://www.w3.org/2000/svg" width="36" height="36" viewBox="0 0 36 36">
  <defs>
    <style>
      .fill {
        fill: #fff;
        opacity: .65;
      }
    </style>
  </defs>
  <path id="Shape" class="fill" d="M36,26.9v8.7c0,.22091-.17909.4-.4.4h-8.7c-.22084-.00571-.39523-.18937-.38952-.41021.00256-.09876.04157-.19308.10952-.26479l8.703-8.709c.15936-.153.41257-.14784.56557.01152.07043.07336.11028.17079.11143.27248Z"/>
  <path class="fill" d="M31.999,10h-2.00632v15c.00687.54537-.42967.99305-.97504.99992-.00376.00005-.00753.00007-.01129.00008h-.99268c-.55188-.00004-.99941-.44712-1-.999l-.00635-15.001h-2.00632c-.27597.00073-.50028-.22239-.50101-.49836,0-.00173,0-.00345.00001-.00518-.00004-.13178.05313-.25799.14746-.35l3.53613-4.03369c.18414-.15039.44868-.15039.63282,0l3.53613,4.03369c.09433.09202.1475.21822.14746.35.00213.27596-.21986.5014-.49582.50353-.00172.00001-.00345.00002-.00518.00001Z"/>
  <rect class="fill" x="2" y="22" width="20" height="4" rx="1" ry="1"/>
  <rect class="fill" x="2" y="14" width="16" height="4" rx="1" ry="1"/>
  <rect class="fill" x="2" y="6" width="12" height="4" rx="1" ry="1"/>
</svg>