<svg id="S_SplitClip_Sm_N_D_2x" data-name="S_SplitClip_Sm_N_D@2x" xmlns="http://www.w3.org/2000/svg" width="32" height="32" viewBox="0 0 32 32">
  <defs>
    <style>
      .fill {
        fill: #fff;
        fill-rule: evenodd;
        opacity: 0.65;
      }

      
    </style>
  </defs>
  <title>S_SplitClip_Sm_N_D@2x</title>
  <path class="fill" d="M28.227,16.914c0,0.031-13-13-13-13-1.906-1.906-2.063-1.906-4,0l-0.656.656c-0.969.969-1,.969-1,2.031V7.571a3.261,3.261,0,0,0-1.656.344A2.913,2.913,0,0,0,7.57,9.571H6.6c-0.969,0-1,.063-2.031,1L4,11.141V2.5A0.5,0.5,0,0,0,3.5,2h-1a0.5,0.5,0,0,0-.5.5V12.656H2.626c-0.5.789-.107,1.279,1.226,2.633L17,28.571c1.937,1.906,2.094,1.906,4,0l0.719-.719c0.969-1.031.969-1.062,1-1.906V24.852a3.39,3.39,0,0,0,1.656-.344,4.542,4.542,0,0,0,.344-1.656H25.75c0.938-.031.969-0.031,1.969-1-0.031,0,.656-0.656.656-0.656C30.281,19.29,30.133,18.852,28.227,16.914ZM23,21H21v2H19V20.094l-1.454-1.485s-2.081.8-2.875,0,0-2.906,0-2.906L12.937,14H10V12h2V10h2v3l1.7,1.609s2.149-.785,2.969,0,0,2.969,0,2.969L20.062,19H23v2Z"/>
  </svg>