<svg id="SP_SpeedKeyframeDual_Sm_N_D_2x" data-name="SP_SpeedKeyframeDual_Sm_N_D@2x" xmlns="http://www.w3.org/2000/svg" width="32" height="32" viewBox="0 0 32 32">
  <defs>
    <style>
      .fill {
        fill: #fff;
        fill-rule: evenodd;
        opacity: 0.65;
      }

      
    </style>
  </defs>
  <title>SP_SpeedKeyframeDual_Sm_N_D@2x</title>
  <path class="fill" d="M9,6h6a1,1,0,0,1,1,1V26H15L8.293,19.293A1,1,0,0,1,8,18.586V7A1,1,0,0,1,9,6Z"/>
  <path class="fill" d="M25,6H19a1,1,0,0,0-1,1V26h1l6.707-6.707A1,1,0,0,0,26,18.586V7A1,1,0,0,0,25,6Z"/>
  </svg>