<?xml version="1.0" encoding="UTF-8"?>

<svg width="32px" height="32px" viewBox="0 0 32 32" version="1.1" xmlns="http://www.w3.org/2000/svg" xmlns:xlink="http://www.w3.org/1999/xlink">

    <!-- Generator: Sketch 47.1 (45422) - http://www.bohemiancoding.com/sketch -->

    <title>Copy Settings button icon_Smock_Copy_18_N@1x@2x</title>

    <desc>Created with Sketch.</desc>

    <defs>
    	<style>
      	.fill {
        	fill: #fff;
        	fill-rule: nonzero;
        	opacity: 0.65;
     	 }
      
    	</style>
    </defs>

    <g id="Page-1" stroke="none" stroke-width="1" fill="none" fill-rule="evenodd">

        <g id="Color-workspace-LUT-Split-Screen-side-by-side" transform="scale(2, 2) translate(-997.000000, -429.000000)" fill-rule="nonzero" class="fill">

            <g id="Copy-Settings-button-icon_Smock_Copy_18_N@1x" transform="translate(997.000000, 429.000000)">

                <rect id="Rectangle-path" x="15" y="10" width="1" height="1"></rect>

                <rect id="Rectangle-path" x="15" y="8" width="1" height="1"></rect>

                <rect id="Rectangle-path" x="15" y="6" width="1" height="1"></rect>

                <rect id="Rectangle-path" x="15" y="4" width="1" height="1"></rect>

                <rect id="Rectangle-path" x="15" y="2" width="1" height="1"></rect>

                <rect id="Rectangle-path" x="15" y="0" width="1" height="1"></rect>

                <rect id="Rectangle-path" x="13" y="0" width="1" height="1"></rect>

                <rect id="Rectangle-path" x="11" y="0" width="1" height="1"></rect>

                <rect id="Rectangle-path" x="9" y="0" width="1" height="1"></rect>

                <rect id="Rectangle-path" x="7" y="0" width="1" height="1"></rect>

                <rect id="Rectangle-path" x="5" y="0" width="1" height="1"></rect>

                <rect id="Rectangle-path" x="5" y="2" width="1" height="1"></rect>

                <rect id="Rectangle-path" x="5" y="4" width="1" height="1"></rect>

                <rect id="Rectangle-path" x="5" y="6" width="1" height="1"></rect>

                <rect id="Rectangle-path" x="5" y="8" width="1" height="1"></rect>

                <rect id="Rectangle-path" x="5" y="10" width="1" height="1"></rect>

                <rect id="Rectangle-path" x="7" y="10" width="1" height="1"></rect>

                <rect id="Rectangle-path" x="9" y="10" width="1" height="1"></rect>

                <rect id="Rectangle-path" x="11" y="10" width="1" height="1"></rect>

                <rect id="Rectangle-path" x="13" y="10" width="1" height="1"></rect>

                <path d="M4,5 L0.5,5 C0.223857625,5 0,5.22385763 0,5.5 L0,15.5 C0,15.7761424 0.223857625,16 0.5,16 L10.5,16 C10.7761424,16 11,15.7761424 11,15.5 L11,12 L4,12 L4,5 Z" id="Shape"></path>

            </g>

        </g>

    </g>

</svg>