<?xml version="1.0" encoding="utf-8"?>
<!-- Generator: Adobe Illustrator 24.0.1, SVG Export Plug-In . SVG Version: 6.00 Build 0)  -->
<svg version="1.1" id="S_Pause_Xs_N_2x" xmlns="http://www.w3.org/2000/svg" xmlns:xlink="http://www.w3.org/1999/xlink" x="0px"
	 y="0px" viewBox="0 0 35.8 32.1" style="enable-background:new 0 0 35.8 32.1;" xml:space="preserve">
<style type="text/css">
	.st0{fill:#A2A2A2;}
</style>
<title>S_Pause_Xs_N@2x</title>
<path class="st0" d="M9.8,12.4h-4c-0.4,0-0.7,0.4-0.7,0.7v7c0,0.4,0.3,0.7,0.7,0.7h4c0.3,0,0.4,0.1,0.7,0.3l5,5
	c0.3,0.1,0.6,0.1,0.7,0c0-0.1,0-0.3,0-0.4V7.5C16.2,7.3,16,7,15.7,7c-0.1,0-0.3,0-0.3,0.1l-5,5.2C10.3,12.4,10,12.4,9.8,12.4z"/>
<path class="st0" d="M20.4,16.6c0,1.1-0.3,2.1-1,2.9c-0.1,0.3-0.1,0.7,0,0.8l0,0c0.3,0.3,0.7,0.3,1,0l0,0c1.7-2.2,1.7-5.3,0-7.5
	c-0.3-0.3-0.7-0.4-1-0.1l0,0l0,0c-0.3,0.3-0.3,0.7,0,0.8C20.1,14.5,20.4,15.5,20.4,16.6z"/>
<path class="st0" d="M24.6,16.6c0,2.1-0.8,4.2-2.2,5.8c-0.3,0.3-0.1,0.7,0,1l0,0c0.3,0.3,0.7,0.3,1,0l0,0l0,0
	c3.3-3.9,3.3-9.6,0-13.5c-0.3-0.3-0.7-0.3-1-0.1l0,0l0,0c-0.3,0.3-0.3,0.7,0,1C23.9,12.3,24.6,14.4,24.6,16.6z"/>
<path class="st0" d="M28.8,16.6c0,3.2-1.3,6.4-3.3,8.8c-0.3,0.3-0.3,0.7,0,1l0,0c0.3,0.3,0.7,0.3,1,0l0,0l0,0
	c2.4-2.6,3.8-6.1,3.8-9.7s-1.3-7.1-3.8-9.7c-0.3-0.3-0.7-0.3-1,0l0,0l0,0c-0.3,0.3-0.3,0.7,0,1C27.7,10.2,28.8,13.4,28.8,16.6z"/>
</svg>
