<svg id="S_StillSubClip_48x48_N_D_2x" data-name="S_StillSubClip_48x48_N_D@2x" xmlns="http://www.w3.org/2000/svg" width="96" height="96" viewBox="0 0 96 96">
  <defs>
    <style>
      .fill {
        fill: #fff;
        fill-rule: evenodd;
        opacity: 0.65;
      }

      
    </style>
  </defs>
  <title>S_StillSubClip_48x48_N_D@2x</title>
  <path id="Fill" class="fill" d="M15,6H13a1,1,0,0,0-1,1V38L0,49,12,60V89a1,1,0,0,0,1,1h2a1,1,0,0,0,1-1V58L6,49l10-9V7A1,1,0,0,0,15,6ZM80,7V40l9.8,8.8L80,58V89a1,1,0,0,0,1,1h2a1,1,0,0,0,1-1V60L96,49,84,38V7a1,1,0,0,0-1-1H81A1,1,0,0,0,80,7Z"/>
  <polygon class="fill" points="56 20 56 34 70 34 56 20"/>
  <path class="fill" d="M54,38a2,2,0,0,1-2-2V18H26a2,2,0,0,0-2,2V72a2,2,0,0,0,2,2H70a2,2,0,0,0,2-2V38H54Zm8,19a1,1,0,0,1-1,1H54.769a9,9,0,0,1-8.777,7,9.174,9.174,0,0,1-8.59-6.438A8.525,8.525,0,0,1,37.231,54H28L47,35v7H61a1,1,0,0,1,1,1V57Z"/>
  <circle class="fill" cx="46" cy="56" r="6"/>
  <path class="fill" d="M44,47.231V42l-9,9h3.518A9,9,0,0,1,44,47.231Z"/>
  </svg>