<svg id="S_Still_48x48_N_D_2x" data-name="S_Still_48x48_N_D@2x" xmlns="http://www.w3.org/2000/svg" width="96" height="96" viewBox="0 0 96 96">
  <defs>
    <style>
      .fill {
        fill: #fff;
        fill-rule: evenodd;
        opacity: 0.65;
      }

      
    </style>
  </defs>
  <title>S_Still_48x48_N_D@2x</title>
  <polygon class="fill" points="60 9 60 30 81 30 60 9"/>
  <path class="fill" d="M57,36a3,3,0,0,1-3-3V6H15a3,3,0,0,0-3,3V87a3,3,0,0,0,3,3H81a3,3,0,0,0,3-3V36H57ZM70,67a1,1,0,0,1-1,1H59.831a12.992,12.992,0,1,1-25.2-6H21L49,34V46H69a1,1,0,0,1,1,1V67Z"/>
  <circle class="fill" cx="47" cy="66" r="10"/>
  <path class="fill" d="M46,53.551V41.4L28.4,59h8.243A12.485,12.485,0,0,1,46,53.551Z"/>
  </svg>