<svg id="S_StillSubClip_64x64_N_D_2x" data-name="S_StillSubClip_64x64_N_D@2x" xmlns="http://www.w3.org/2000/svg" width="128" height="128" viewBox="0 0 128 128">
  <defs>
    <style>
      .fill {
        fill: #fff;
        fill-rule: evenodd;
        opacity: 0.65;
      }

      
    </style>
  </defs>
  <title>S_StillSubClip_64x64_N_D@2x</title>
  <path class="fill" d="M112,49.021V10a2,2,0,0,0-2-2h-2a2,2,0,0,0-2,2V51.921l12,12-12,11V118a2,2,0,0,0,2,2h2a2,2,0,0,0,2-2V78l15.119-13.859Z"/>
  <path class="fill" d="M18,120h2a2,2,0,0,0,2-2V74.921l-12-11,12-12V10a2,2,0,0,0-2-2H18a2,2,0,0,0-2,2V49.021L0.881,64.141,16,78v40A2,2,0,0,0,18,120Z"/>
  <polygon class="fill" points="74 23 74 44 95 44 74 23"/>
  <path class="fill" d="M71,50a3,3,0,0,1-3-3V20H33a3,3,0,0,0-3,3v78a3,3,0,0,0,3,3H95a3,3,0,0,0,3-3V50H71ZM86,83a1,1,0,0,1-1,1H75.831a12.992,12.992,0,1,1-25.2-6H37L65,50V62H85a1,1,0,0,1,1,1V83Z"/>
  <circle class="fill" cx="63" cy="82" r="10"/>
  <path class="fill" d="M62,69.551V57.4L44.4,75h8.243A12.485,12.485,0,0,1,62,69.551Z"/>
  </svg>