<svg id="I_C_O_N_S" data-name="I C O N S" xmlns="http://www.w3.org/2000/svg" width="36" height="36" viewBox="0 0 36 36">
  <defs>
    <style>
      .fill {
        opacity: 0.65;
        fill: #fff;
      }
    </style>
  </defs>

    <path class="fill" d="M28.443,2H7.557A5.557,5.557,0,0,0,2,7.557V26.443A5.557,5.557,0,0,0,7.557,32H28.443A5.557,5.557,0,0,0,34,26.443V7.557A5.557,5.557,0,0,0,28.443,2ZM18.609,22.28a4.308,4.308,0,0,1-1.878,1.47,7.145,7.145,0,0,1-2.834.516,10.682,10.682,0,0,1-2.178-.2,7.163,7.163,0,0,1-1.642-.526.367.367,0,0,1-.172-.365V20.616a.128.128,0,0,1,.053-.118.143.143,0,0,1,.14.011,7.512,7.512,0,0,0,3.885,1.116,3.1,3.1,0,0,0,1.75-.375,1.116,1.116,0,0,0,.526-.934,1.256,1.256,0,0,0-.172-.655,1.853,1.853,0,0,0-.6-.569,6.936,6.936,0,0,0-1.18-.579l-1.074-.451a7.991,7.991,0,0,1-2.05-1.191,3.432,3.432,0,0,1-1.019-1.364,4.346,4.346,0,0,1-.279-1.567,3.849,3.849,0,0,1,2.3-3.595A6.506,6.506,0,0,1,15.014,9.8a13.452,13.452,0,0,1,1.922.129,4.553,4.553,0,0,1,1.427.408.3.3,0,0,1,.15.279v2.426a.146.146,0,0,1-.054.1c-.035.036-.082.032-.139-.01a5.967,5.967,0,0,0-1.5-.537,8.083,8.083,0,0,0-1.782-.193,4.443,4.443,0,0,0-1.052.107,2.574,2.574,0,0,0-.7.269,1.032,1.032,0,0,0-.4.407,1.08,1.08,0,0,0-.129.5,1.015,1.015,0,0,0,.193.611,2.117,2.117,0,0,0,.644.537,13.571,13.571,0,0,0,1.245.633l.8.3A8.668,8.668,0,0,1,17.848,17a3.774,3.774,0,0,1,1.116,1.417,4.171,4.171,0,0,1,.322,1.642A3.737,3.737,0,0,1,18.609,22.28Zm6.119-.773a1.108,1.108,0,0,0,.912.312c.129,0,.25,0,.365-.011s.228-.018.344-.032a.133.133,0,0,1,.117.01c.036.022.054.068.054.14v1.76q0,.237-.171.279a7.539,7.539,0,0,1-.859.215,5.572,5.572,0,0,1-1.031.086,3.114,3.114,0,0,1-2.189-.73,3.04,3.04,0,0,1-.794-2.34V15.844h-1.3c-.115,0-.172-.064-.172-.193l.016-2.113c0-.115.065-.172.194-.172h1.3c.014-.243.016-.51.038-.832s.05-.644.086-.966.067-.583.1-.783a.387.387,0,0,1,.064-.118.235.235,0,0,1,.108-.076l2.554-.321a.132.132,0,0,1,.107,0c.029.014.043.057.043.128q-.042.5-.064,1.342c-.014.565-.012,1.1-.026,1.626H26.4c.086,0,.129.057.129.172l-.016,2.156a.132.132,0,0,1-.107.15H24.511v4.622A1.718,1.718,0,0,0,24.728,21.507Z"/>

</svg>
