<svg id="S_StepBack_54x54_N_D_2x" data-name="S_StepBack_54x54_N_D@2x" xmlns="http://www.w3.org/2000/svg" width="108" height="108" viewBox="0 0 108 108">
  <defs>
    <style>
      .cls-1 {
        opacity: 0.3;
      }

      .background, .fill {
        opacity: 0.65;
      }

      .fill {
        fill: #fff;
        fill-rule: evenodd;
      }

      
    </style>
  </defs>
  <title>S_StepBack_54x54_N_D@2x</title>
  <circle class="cls-1" cx="54" cy="54" r="45"/>
  <path id="Fill" class="background" d="M71,38a1,1,0,0,1,1,1V69a1,1,0,0,1-1,1H65a1,1,0,0,1-1-1V39a1,1,0,0,1,1-1h6Zm0-2H65a3,3,0,0,0-3,3V69a3,3,0,0,0,3,3h6a3,3,0,0,0,3-3V39A3,3,0,0,0,71,36Z"/>
  <path id="Fill2" class="background" d="M57,38.665a1,1,0,0,1,1,1V68.333a1,1,0,0,1-1.471.882L28,54,56.529,38.784A0.993,0.993,0,0,1,57,38.665Zm0-2a3.01,3.01,0,0,0-1.411.354L27.059,52.235,23.75,54l3.309,1.765L55.588,70.98A3,3,0,0,0,60,68.333V39.667A3,3,0,0,0,57,36.665Z"/>
  <path id="Fill-2" data-name="Fill" class="fill" d="M71,38H65a1,1,0,0,0-1,1V69a1,1,0,0,0,1,1h6a1,1,0,0,0,1-1V39A1,1,0,0,0,71,38Z"/>
  <path id="Fill2-2" data-name="Fill2" class="fill" d="M56.529,38.784L28,54,56.529,69.216A1,1,0,0,0,58,68.333V39.667A1,1,0,0,0,56.529,38.784Z"/>
  </svg>