<svg id="S_StillSubClip_Sm_N_D_2x" data-name="S_StillSubClip_Sm_N_D@2x" xmlns="http://www.w3.org/2000/svg" width="32" height="32" viewBox="0 0 32 32">
  <defs>
    <style>
      .fill {
        fill: #fff;
        opacity: 0.65;
      }

      
    </style>
  </defs>
  <title>S_StillSubClip_Sm_N_D@2x</title>
  <path id="Brackets" class="fill" d="M28,29.5V21l4-5-4-5V2.5A0.5,0.5,0,0,0,27.5,2h-1a0.5,0.5,0,0,0-.5.5V12l3.5,4L26,20v9.5a0.5,0.5,0,0,0,.5.5h1A0.5,0.5,0,0,0,28,29.5ZM4,2.5V11L0,16l4,5v8.5a0.5,0.5,0,0,0,.5.5h1A0.5,0.5,0,0,0,6,29.5V20L2.5,16,6,12V2.5A0.5,0.5,0,0,0,5.5,2h-1A0.5,0.5,0,0,0,4,2.5Z"/>
  <polygon class="fill" points="19 6 19 11 24 11 19 6"/>
  <path class="fill" d="M15,17.05V14l-4,4h2.056A3.481,3.481,0,0,1,15,17.05Z"/>
  <path class="fill" d="M18.667,12A0.667,0.667,0,0,1,18,11.333V6H8.667A0.667,0.667,0,0,0,8,6.667V19l8-8v3h5.5a0.5,0.5,0,0,1,.5.5v5a0.5,0.5,0,0,1-.5.5H18.95a3.462,3.462,0,0,1,.05.5,3.5,3.5,0,0,1-4,3.465,3.544,3.544,0,0,1-2.872-2.541A3.394,3.394,0,0,1,12.35,19H8v6.333A0.667,0.667,0,0,0,8.667,26H23.333A0.667,0.667,0,0,0,24,25.333V12H18.667Z"/>
  <circle class="fill" cx="15.5" cy="20.5" r="2"/>
  </svg>