<svg id="S_StillSubClip_Xl_N_D_2x" data-name="S_StillSubClip_Xl_N_D@2x" xmlns="http://www.w3.org/2000/svg" width="64" height="64" viewBox="0 0 64 64">
  <defs>
    <style>
      .fill {
        fill: #fff;
        fill-rule: evenodd;
        opacity: 0.65;
      }

      
    </style>
  </defs>
  <title>S_StillSubClip_Xl_N_D@2x</title>
  <path id="Brackets" class="fill" d="M52,5V26l7,7-7,7V61h4V41l8-8-8-8V5H52ZM12,5H8V25L0,33l8,8V61h4V40L5,33l7-7V5Z"/>
  <polygon class="fill" points="38 19 38 26 45 26 38 19"/>
  <circle class="fill" cx="31" cy="40.294" r="3"/>
  <path class="fill" d="M30,35.294V32.122l-5.172,5.172h2.194A4.984,4.984,0,0,1,30,35.395v-0.1Z"/>
  <path class="fill" d="M37,28a1,1,0,0,1-1-1V18H19a1,1,0,0,0-1,1V49a1,1,0,0,0,1,1H45a1,1,0,0,0,1-1V28H37Zm3,12.294a1,1,0,0,1-1,1H35.9a5,5,0,0,1-9.8-2H21.207a0.5,0.5,0,0,1-.354-0.854L31.146,28.147A0.489,0.489,0,0,1,31.5,28a0.5,0.5,0,0,1,.5.5v2.793h7a1,1,0,0,1,1,1v8Z"/>
  </svg>