<svg id="S_Stereo_Xs_N_D_2x" data-name="S_Stereo_Xs_N_D@2x" xmlns="http://www.w3.org/2000/svg" width="26" height="26" viewBox="0 0 26 26">
  <defs>
    <style>
      .fill {
        fill: #fff;
        fill-rule: evenodd;
        opacity: 0.65;
      }

      
    </style>
  </defs>
  <title>S_Stereo_Xs_N_D@2x</title>
  <path id="Fill" class="fill" d="M11.5,10H8.73L2.86,3.895A0.5,0.5,0,0,0,2,4.241V21.759a0.5,0.5,0,0,0,.86.347L8.73,16H11.5a0.5,0.5,0,0,0,.5-0.5v-5A0.5,0.5,0,0,0,11.5,10ZM14,10.5v5a0.5,0.5,0,0,0,.5.5h2.77l5.87,6.105A0.5,0.5,0,0,0,24,21.759V4.241a0.5,0.5,0,0,0-.86-0.347L17.27,10H14.5A0.5,0.5,0,0,0,14,10.5Z"/>
  </svg>