<svg id="SP_Stopwatch_Sm_N_D_2x" data-name="SP_Stopwatch_Sm_N_D@2x" xmlns="http://www.w3.org/2000/svg" width="32" height="32" viewBox="0 0 32 32">
  <defs>
    <style>
      .fill {
        fill: #fff;
        fill-rule: evenodd;
        opacity: 0.65;
      }

      
    </style>
  </defs>
  <title>SP_Stopwatch_Sm_N_D@2x</title>
  <path class="fill" d="M18,6.05V4h2.5A0.5,0.5,0,0,0,21,3.5v-1A0.5,0.5,0,0,0,20.5,2h-7a0.5,0.5,0,0,0-.5.5v1a0.5,0.5,0,0,0,.5.5H16V6.049a10.95,10.95,0,0,0-5.546,2.126L9.28,6.962l0.4-.4a0.5,0.5,0,0,0,0-.707L8.975,5.146a0.5,0.5,0,0,0-.707,0L6.146,7.268a0.5,0.5,0,0,0,0,.707L6.854,8.682a0.5,0.5,0,0,0,.707,0l0.305-.305L8.961,9.509A10.993,10.993,0,1,0,18,6.05ZM17,26A9,9,0,1,1,22.573,9.942l-6.351,6.351a1,1,0,1,0,1.414,1.414L24,11.346A9,9,0,0,1,17,26Z"/>
  </svg>