<svg id="S_StepForward_32x32_N_D_2x" data-name="S_StepForward_32x32_N_D@2x" xmlns="http://www.w3.org/2000/svg" width="64" height="64" viewBox="0 0 64 64">
  <defs>
    <style>
      .cls-1 {
        opacity: 0.3;
      }

      .background, .fill {
        opacity: 0.65;
      }

      .fill {
        fill: #fff;
        fill-rule: evenodd;
      }

      
    </style>
  </defs>
  <title>S_StepForward_32x32_N_D@2x</title>
  <circle class="cls-1" cx="32" cy="32" r="28"/>
  <path id="Fill" class="background" d="M25,22a1,1,0,0,1,1,1V41a1,1,0,0,1-1,1H23a1,1,0,0,1-1-1V23a1,1,0,0,1,1-1h2Zm0-2H23a3,3,0,0,0-3,3V41a3,3,0,0,0,3,3h2a3,3,0,0,0,3-3V23A3,3,0,0,0,25,20Z"/>
  <path id="Fill2" class="background" d="M49.04,31.92l-17.572,9.3A1,1,0,0,1,30,40.339V23.5a1,1,0,0,1,1-1ZM31,22.5a0.993,0.993,0,0,1,.467.118Zm0-2a3,3,0,0,0-3,3V40.339a3,3,0,0,0,4.4,2.651l17.572-9.3,3.339-1.768-3.339-1.768L32.4,20.85A3.01,3.01,0,0,0,31,20.5Z"/>
  <path id="Fill-2" data-name="Fill" class="fill" d="M23,22h2a1,1,0,0,1,1,1V41a1,1,0,0,1-1,1H23a1,1,0,0,1-1-1V23A1,1,0,0,1,23,22Z"/>
  <path id="Fill2-2" data-name="Fill2" class="fill" d="M31.468,22.617l17.572,9.3-17.572,9.3A1,1,0,0,1,30,40.339V23.5A1,1,0,0,1,31.468,22.617Z"/>
  </svg>