<svg xmlns="http://www.w3.org/2000/svg" width="36" height="36" viewBox="0 0 36 36">
  <defs>
    <style>
      .fill, .fillMedium, .fillPale {
        fill: #fff;
      }

      .fill, .fillMedium {
        fill-rule: evenodd;
      }

      .fillMedium {
        opacity: 0.3;
      }

      .fill {
        opacity: 0.65;
      }

      .fillPale {
        opacity: 0.15;
      }
    </style>
  </defs>
  <g id="icons">
    <path class="fillMedium" d="M4,31a1,1,0,0,0,1,1H32V30H6V4H4Z"/>
    <path class="fillMedium" d="M22,14H32v2H21a1,1,0,0,1-1-1V4h2Z"/>
    <path class="fill" d="M16,22V20.5a.5.5,0,0,0-.5-.5H14V4H12V20H10.5a.5.5,0,0,0-.5.5v5a.5.5,0,0,0,.5.5h5a.5.5,0,0,0,.5-.5V24H32V22Z"/>
    <path class="fillPale" d="M16,25.5a.5.5,0,0,1-.5.5h-5a.5.5,0,0,1-.5-.5v-5a.5.5,0,0,1,.5-.5H12V4H6V30H32V24H16Z"/>
    <path class="fillPale" d="M21,16a1,1,0,0,1-1-1V4H14V20h1.5a.5.5,0,0,1,.5.5V22H32V16Z"/>
  </g>
</svg>
