<svg xmlns="http://www.w3.org/2000/svg" width="36" height="36" viewBox="0 0 36 36">
  <defs>
    <style>
      .fill {
        fill: #fff;
        opacity: 0.65;
      }
    </style>
  </defs>
  <g id="i_c_o_n_s" data-name="i c o n s">
    <path class="fill" d="M35,18H17a1,1,0,0,0-1,1v4a1,1,0,0,0,1,1h2a1.00011,1.00011,0,0,0,1-1V22h4V32H23a1.00011,1.00011,0,0,0-1,1v2a1,1,0,0,0,1,1h6a1,1,0,0,0,1-1V33a1.00011,1.00011,0,0,0-1-1H28V22h4v1a1.00011,1.00011,0,0,0,1,1h2a1,1,0,0,0,1-1V19A1,1,0,0,0,35,18Z"/>
    <path class="fill" d="M13.6001,19a3.36765,3.36765,0,0,1,.70288-2.04712,1.99832,1.99832,0,0,1,.64947-.64966A3.36652,3.36652,0,0,1,17,15.59961H30V3.00006a1,1,0,0,0-1-1H3a1,1,0,0,0-1,1v26a1,1,0,0,0,1,1H13.6001ZM24,4.50006a.5.5,0,0,1,.5-.5h3a.5.5,0,0,1,.5.5v3a.5.5,0,0,1-.5.5h-3a.5.5,0,0,1-.5-.5Zm0,6.70581a.5.5,0,0,1,.5-.5h3a.5.5,0,0,1,.5.5v3a.5.5,0,0,1-.5.5h-3a.5.5,0,0,1-.5-.5ZM8,27.50006a.5.5,0,0,1-.5.5h-3a.5.5,0,0,1-.5-.5v-3a.5.5,0,0,1,.5-.5h3a.5.5,0,0,1,.5.5ZM8,20.794a.49988.49988,0,0,1-.5.5h-3a.49988.49988,0,0,1-.5-.5v-3a.50018.50018,0,0,1,.5-.5h3a.50018.50018,0,0,1,.5.5Zm0-6.58814a.5.5,0,0,1-.5.5h-3a.5.5,0,0,1-.5-.5v-3a.5.5,0,0,1,.5-.5h3a.5.5,0,0,1,.5.5ZM7.5,8.00006h-3a.5.5,0,0,1-.5-.5v-3a.5.5,0,0,1,.5-.5h3a.5.5,0,0,1,.5.5v3A.5.5,0,0,1,7.5,8.00006Z"/>
  </g>
</svg>
