<?xml version="1.0" encoding="UTF-8"?>
<svg id="ICONS" xmlns="http://www.w3.org/2000/svg" width="36" height="36" viewBox="0 0 36 36">
  <defs>
    <style>
      .fill {
        fill: #fff;
        opacity: .65;
        stroke-width: 0px;
      }
    </style>
  </defs>
  <path class="fill" d="M11.80174,5.46014l-.65406-1.8999c-1.94628.92432-3.70118,2.23194-5.14478,3.86816l1.65454,1.1587c1.16992-1.28466,2.57128-2.34766,4.14428-3.12696h.00002Z"/>
  <path class="fill" d="M5.60862,11.49286l-1.65674-1.16016c-.50806.9336-.93018,1.93188-1.25318,2.98828-.29468.96362-.48218,1.9336-.59106,2.8999h2.01684c.2146-1.68824.72388-3.28272,1.48414-4.72802Z"/>
  <path class="fill" d="M4.12424,19.77656h-2.02368c.2544,2.2644,1.00122,4.42652,2.14478,6.3606l1.60058-1.2063c-.88964-1.55616-1.48584-3.29736-1.72168-5.1543Z"/>
  <path class="fill" d="M7.9841,27.77166l-1.60596,1.2102c1.45704,1.54468,3.23168,2.81788,5.27368,3.698l.5896-1.92896c-1.60254-.72486-3.04492-1.73658-4.25732-2.97924Z"/>
  <path class="fill" d="M17.99924,31.9997c-.80468,0-1.58862-.083-2.35644-.21338l-.59082,1.9331c2.18506.4121,4.3684.34912,6.43994-.1167l-.65136-1.89258c-.91772.18946-1.86768.28956-2.84132.28956Z"/>
  <path class="fill" d="M24.19748,30.53876l.65332,1.8982c1.94628-.92408,3.70118-2.23194,5.14478-3.86792l-1.65356-1.15772c-1.16968,1.28466-2.57154,2.34814-4.14454,3.12744Z"/>
  <path class="fill" d="M31.87424,19.77656c-.21436,1.68848-.72338,3.2832-1.48388,4.72852l1.65624,1.15918c.50806-.93334.93018-1.93164,1.25318-2.9878.29468-.96362.48218-1.9336.59106-2.8999,0,0-2.0166,0-2.0166,0Z"/>
  <path class="fill" d="M31.874,16.22088h2.02392c-.2544-2.2644-1.00098-4.42676-2.14478-6.36084l-1.60132,1.20704c.8899,1.55616,1.48608,3.29688,1.72216,5.1538h.00002Z"/>
  <path class="fill" d="M28.0134,8.22626l1.60694-1.21094c-1.45704-1.54444-3.23168-2.81762-5.27368-3.69776l-.59008,1.93066c1.60206.7246,3.04444,1.73608,4.25684,2.97802l-.00002.00002Z"/>
  <path class="fill" d="M17.99924,3.9997c.80468,0,1.58838.083,2.35572.21338l.59156-1.93506c-2.18506-.4121-4.3684-.34912-6.43994.1167l.65234,1.89428c.91724-.1892,1.86718-.2893,2.84034-.2893h-.00002Z"/>
  <path class="fill" d="M11,20c-.55224,0-1-.44764-1-1v-2c0-.55224.44776-1,1-1h14c.55224,0,1,.44776,1,1v2c0,.55236-.44776,1-1,1h-14Z"/>
</svg>