<svg xmlns="http://www.w3.org/2000/svg" data-name="S_SwapBeforeAfter_18_N_D@2x" height="36" id="S_SwapBeforeAfter_18_N_D_2x" viewBox="0 0 36 36" width="36">
  <defs>
    <style>
      .fill {
        fill: #fff;
        fill-rule: evenodd;
        opacity: 0.65;
      }

      
    </style>
  </defs>
  <title>S_SwapBeforeAfter_18_N_D@2x</title>
  <path class="fill" d="M27,10H10V7.068a.5.5,0,0,0-.82-.385L4,11l5.18,4.317a.5.5,0,0,0,.82-.385V12H27a1,1,0,0,0,0-2Z" />
  <path class="fill" d="M9,24H26v2.932a.5.5,0,0,0,.82.385L32,23l-5.18-4.317a.5.5,0,0,0-.82.385V22H9a1,1,0,0,0,0,2Z" />
  </svg>