<svg id="S_SyncLockOff_Sm_N_D_2x" data-name="S_SyncLockOff_Sm_N_D@2x" xmlns="http://www.w3.org/2000/svg" width="32" height="32" viewBox="0 0 32 32">
  <defs>
    <style>
      .fill {
        fill: #fff;
        fill-rule: evenodd;
        opacity: 0.65;
      }

      
    </style>
  </defs>
  <title>S_SyncLockOff_Sm_N_D@2x</title>
  <path class="fill" d="M18,22H6V18h9.756l-2-2H5a1,1,0,0,0-1,1v6a1,1,0,0,0,1,1H19.5a0.5,0.5,0,0,0,.5-0.5V22.243l-2-2V22Z"/>
  <path class="fill" d="M6,12V8.245L4.052,6.3,4,6.319V13a1,1,0,0,0,1,1h6.756l-2-2H6Z"/>
  <rect class="fill" x="14.999" y="-2.264" width="2" height="32.529" rx="0.5" ry="0.5" transform="translate(-5.214 15.412) rotate(-44.998)"/>
  <path class="fill" d="M18,8v3.759l1.951,1.951A0.492,0.492,0,0,0,20,13.5V12h4v5.758l3.8,3.8A0.974,0.974,0,0,0,28,21V9a1,1,0,0,0-1-1H20V7a1,1,0,0,0-1-1H12.241l2,2H18Z"/>
  </svg>