<svg xmlns="http://www.w3.org/2000/svg" data-name="S_SyncStatusOK_18_N_D@2x" height="36" id="S_SyncStatusOK_18_N_D_2x" viewBox="0 0 36 36" width="36">
  <defs>
    <style>
	.fill {
        fill: #fff;
        fill-rule: evenodd;
        opacity: 0.65;
      }</style>
  </defs>
  <title>S_SyncStatusOK_18_N_D@2x</title>
  <path class="fill" d="M29.153,10.592a6.149,6.149,0,0,0,.12-1.155A7.71,7.71,0,0,0,21.2,1.7a8.529,8.529,0,0,0-8.013,6.318,8.445,8.445,0,0,0-2.214-.3,6.483,6.483,0,0,0-6.752,6.156,4.862,4.862,0,0,0,.28,1.61c-.094-.006-.184-.023-.28-.023C1.791,15.466.04,18.045.04,19.8S1.767,24,3.9,24H29.611l1.286-.192a5.872,5.872,0,0,0,5.02-6.232C35.916,13.78,32.145,11.044,29.153,10.592ZM27.126,10.3a1,1,0,0,1,.008,1.406c-2.284,2.316-9.431,9.564-9.649,9.781a2,2,0,0,1-2.829,0L9.7,16.532a1,1,0,0,1,0-1.41l1.414-1.414a1,1,0,0,1,1.41,0l3.54,3.54L24.293,8.89a1,1,0,0,1,1.42-.006Z" />
  </svg>