<svg id="icon" xmlns="http://www.w3.org/2000/svg" width="32" height="32" viewBox="0 0 32 32">
  <defs>
    <style>
      .fill {
        fill: #fff;
        opacity: 0.65;
      }   
    </style>
  </defs>
    <title>S_SyncedCloudOutline_16_N_D@2x</title>
    <path class="fill" d="M31.45,14.484l-1.1-.863a1,1,0,0,0-1.4.172L20,25.239,15.368,19.31a1,1,0,0,0-1.4-.173L12.859,20a1,1,0,0,0-.173,1.4l6.525,8.384a1,1,0,0,0,1.578,0l10.834-13.9A1,1,0,0,0,31.45,14.484Z"/>
    <path class="fill" d="M10.318,23.245A3.967,3.967,0,0,1,9.732,22.2H6.294a2.494,2.494,0,0,1-.781-4.863L6.7,16.945,6.745,15.7a4.538,4.538,0,0,1,4.538-4.369h1.246l.436-1.166a5.436,5.436,0,0,1,10.529,1.881v1.429l1.393.319c.069.016.137.034.2.053l1.168-1.5a5.812,5.812,0,0,0-.971-.312,7.236,7.236,0,0,0-14.01-2.506,6.364,6.364,0,0,0-6.333,6.1A4.3,4.3,0,0,0,6.294,24h4.612Z"/>
</svg>
