<svg id="S_TabStops_Md_N_D_2x" data-name="S_TabStops_Md_N_D@2x" xmlns="http://www.w3.org/2000/svg" width="36" height="36" viewBox="0 0 36 36">
  <defs>
    <style>
      .fill {
        fill: #fff;
        fill-rule: evenodd;
        opacity: 0.65;
      }

      
    </style>
  </defs>
  <title>S_TabStops_Md_N_D@2x</title>
  <path id="Fill" class="fill" d="M13.5,4h-5a0.5,0.5,0,0,0-.5.5V12H4.5a0.5,0.5,0,0,0-.384.82L9,18l4.883-5.18A0.5,0.5,0,0,0,13.5,12H10V6h3.5A0.5,0.5,0,0,0,14,5.5v-1A0.5,0.5,0,0,0,13.5,4Z"/>
  <path id="Fill2" class="fill" d="M22.5,4h5a0.5,0.5,0,0,1,.5.5V12h3.5a0.5,0.5,0,0,1,.384.82L27,18l-4.883-5.18A0.5,0.5,0,0,1,22.5,12H26V6H22.5A0.5,0.5,0,0,1,22,5.5v-1A0.5,0.5,0,0,1,22.5,4Z"/>
  <path class="fill" d="M2,21v8a1,1,0,0,0,1,1H6V24H8v6h2V26h2v4h2V24h2v6h2V26h2v4h2V24h2v6h2V26h2v4h2V24h2v6h1a1,1,0,0,0,1-1V21a1,1,0,0,0-1-1H3A1,1,0,0,0,2,21Z"/>
  </svg>