<svg id="S_Tag_Md_N_D_2x" data-name="S_Tag_Md_N_D@2x" xmlns="http://www.w3.org/2000/svg" width="18" height="18" viewBox="0 0 18 18">
  <defs>
    <style>
      .fill {
        fill: #fff;
        fill-rule: evenodd;
        opacity: 0.65;
      }

      
    </style>
  </defs>
  <title>S_Tag_Md_N_D@2x</title>
  <path class="fill" d="M16.646,9.646,9.293,2.293A1,1,0,0,0,8.586,2H2.5a.5.5,0,0,0-.5.5V8.586a1,1,0,0,0,.293.707l7.353,7.353a.5.5,0,0,0,.707,0l6.293-6.293A.5.5,0,0,0,16.646,9.646ZM5,6.3A1.3,1.3,0,1,1,6.3,5,1.3,1.3,0,0,1,5,6.3Z"/>
  </svg>