<svg id="S_TBAutomateToSequence_22_N_2x" data-name="S_TBAutomateToSequence_22_N@2x" xmlns="http://www.w3.org/2000/svg" width="44" height="44" viewBox="0 0 44 44">
  <defs>
    <style>
      
    </style>
  </defs>
  <title>S_TBAutomateToSequence_22_N@2x</title>
  <path d="M2,10V33a1,1,0,0,0,1,1H14a1,1,0,0,0,1-1V10a1,1,0,0,0-1-1H3A1,1,0,0,0,2,10Zm16,3V33a1,1,0,0,0,1,1h9a1,1,0,0,0,1-1V13a1,1,0,0,0-1-1H19A1,1,0,0,0,18,13Zm14,0V33a1,1,0,0,0,1,1h2a1,1,0,0,0,1-1V13a1,1,0,0,0-1-1H33A1,1,0,0,0,32,13Zm7,3V33a1,1,0,0,0,1,1h1a1,1,0,0,0,1-1V16a1,1,0,0,0-1-1H40A1,1,0,0,0,39,16Z"/>
  </svg>