<svg id="S_TBTransparentLayer_22_N_2x" data-name="S_TBTransparentLayer_22_N@2x" xmlns="http://www.w3.org/2000/svg" width="44" height="44" viewBox="0 0 44 44">
  <defs>
    <style>
      .cls-1 {
        fill-rule: evenodd;
      }

      .cls-2 {
        opacity: 0.7;
      }

      
    </style>
  </defs>
  <title>S_TBTransparentLayer_22_N@2x</title>
  <path class="cls-1" d="M2,8V36a1,1,0,0,0,1,1H41a1,1,0,0,0,1-1V8a1,1,0,0,0-1-1H3A1,1,0,0,0,2,8ZM39,34H5V10H39Z"/>
  <rect class="cls-2" x="5" y="10" width="6" height="6"/>
  <rect class="cls-2" x="5" y="22" width="6" height="6"/>
  <rect class="cls-2" x="11" y="16" width="6" height="6"/>
  <rect class="cls-2" x="11" y="28" width="6" height="6"/>
  <rect class="cls-2" x="17" y="10" width="6" height="6"/>
  <rect class="cls-2" x="17" y="22" width="6" height="6"/>
  <rect class="cls-2" x="23" y="16" width="6" height="6"/>
  <rect class="cls-2" x="23" y="28" width="6" height="6"/>
  <rect class="cls-2" x="29" y="10" width="6" height="6"/>
  <rect class="cls-2" x="29" y="22" width="6" height="6"/>
  <rect class="cls-2" x="35" y="16" width="4" height="6"/>
  <rect class="cls-2" x="35" y="28" width="4" height="6"/>
  </svg>