<svg id="S_TBMinimizeAllTracks_22_N_2x" data-name="S_TBMinimizeAllTracks_22_N@2x" xmlns="http://www.w3.org/2000/svg" width="44" height="44" viewBox="0 0 44 44">
  <defs>
    <style>
      .cls-1 {
        opacity: 0.3;
      }

      
    </style>
  </defs>
  <title>S_TBMinimizeAllTracks_22_N@2x</title>
  <rect x="21" y="15" width="20" height="3" rx="0.5" ry="0.5"/>
  <rect x="12" y="21" width="17" height="3" rx="0.5" ry="0.5"/>
  <rect x="3" y="27" width="12" height="3" rx="0.5" ry="0.5"/>
  <rect class="cls-1" x="3" y="15" width="38" height="3"/>
  <rect class="cls-1" x="3" y="21" width="38" height="3"/>
  <rect class="cls-1" x="3" y="27" width="38" height="3"/>
  <path d="M20.5,6,13.7.9A.5.5,0,0,1,14,0H27a.5.5,0,0,1,.3.9Z"/>
  <path d="M20.5,38l6.8,5.1a.5.5,0,0,1-.3.9H14a.5.5,0,0,1-.3-.9Z"/>
  </svg>