<svg id="S_TBUniversialCountingLeader_22_N_2x" data-name="S_TBUniversialCountingLeader_22_N@2x" xmlns="http://www.w3.org/2000/svg" width="44" height="44" viewBox="0 0 44 44">
  <defs>
    <style>
      .cls-1 {
        fill-rule: evenodd;
      }

      
    </style>
  </defs>
  <title>S_TBUniversialCountingLeader_22_N@2x</title>
  <g>
    <g>
      <path d="M22.695,28a.385.385,0,0,1-.389-.389V25.126H17.552a.349.349,0,0,1-.389-.355v-.952a.52.52,0,0,1,.07-.277l.032-.057,4.71-6.857A.481.481,0,0,1,22.4,16.4h1.472a.376.376,0,0,1,.389.389v6.572h1.118a.353.353,0,0,1,.288.131.364.364,0,0,1,.057.325l-.151,1a.4.4,0,0,1-.421.312h-.892v2.486a.376.376,0,0,1-.389.389Zm-.389-4.639V21.516c0-1,.017-1.813.038-2.426-.532.829-1.319,2-2,3.005-.33.491-.629.935-.849,1.266Z"/>
      <path d="M22.695,28a.385.385,0,0,1-.389-.389V25.126H17.552a.349.349,0,0,1-.389-.355v-.952a.52.52,0,0,1,.07-.277l.032-.057,4.71-6.857A.481.481,0,0,1,22.4,16.4h1.472a.376.376,0,0,1,.389.389v6.572h1.118a.353.353,0,0,1,.288.131.364.364,0,0,1,.057.325l-.151,1a.4.4,0,0,1-.421.312h-.892v2.486a.376.376,0,0,1-.389.389Zm-.389-4.639V21.516c0-1,.017-1.813.038-2.426-.532.829-1.319,2-2,3.005-.33.491-.629.935-.849,1.266Z"/>
    </g>
    <g>
      <path d="M22.695,28a.385.385,0,0,1-.389-.389V25.126H17.552a.349.349,0,0,1-.389-.355v-.952a.52.52,0,0,1,.07-.277l.032-.057,4.71-6.857A.481.481,0,0,1,22.4,16.4h1.472a.376.376,0,0,1,.389.389v6.572h1.118a.353.353,0,0,1,.288.131.364.364,0,0,1,.057.325l-.151,1a.4.4,0,0,1-.421.312h-.892v2.486a.376.376,0,0,1-.389.389Zm-.389-4.639V21.516c0-1,.017-1.813.038-2.426-.532.829-1.319,2-2,3.005-.33.491-.629.935-.849,1.266Z"/>
      <path d="M22.695,28a.385.385,0,0,1-.389-.389V25.126H17.552a.349.349,0,0,1-.389-.355v-.952a.52.52,0,0,1,.07-.277l.032-.057,4.71-6.857A.481.481,0,0,1,22.4,16.4h1.472a.376.376,0,0,1,.389.389v6.572h1.118a.353.353,0,0,1,.288.131.364.364,0,0,1,.057.325l-.151,1a.4.4,0,0,1-.421.312h-.892v2.486a.376.376,0,0,1-.389.389Zm-.389-4.639V21.516c0-1,.017-1.813.038-2.426-.532.829-1.319,2-2,3.005-.33.491-.629.935-.849,1.266Z"/>
    </g>
    <g>
      <path d="M22.695,28a.385.385,0,0,1-.389-.389V25.126H17.552a.349.349,0,0,1-.389-.355v-.952a.52.52,0,0,1,.07-.277l.032-.057,4.71-6.857A.481.481,0,0,1,22.4,16.4h1.472a.376.376,0,0,1,.389.389v6.572h1.118a.353.353,0,0,1,.288.131.364.364,0,0,1,.057.325l-.151,1a.4.4,0,0,1-.421.312h-.892v2.486a.376.376,0,0,1-.389.389Zm-.389-4.639V21.516c0-1,.017-1.813.038-2.426-.532.829-1.319,2-2,3.005-.33.491-.629.935-.849,1.266Z"/>
      <path d="M22.695,28a.385.385,0,0,1-.389-.389V25.126H17.552a.349.349,0,0,1-.389-.355v-.952a.52.52,0,0,1,.07-.277l.032-.057,4.71-6.857A.481.481,0,0,1,22.4,16.4h1.472a.376.376,0,0,1,.389.389v6.572h1.118a.353.353,0,0,1,.288.131.364.364,0,0,1,.057.325l-.151,1a.4.4,0,0,1-.421.312h-.892v2.486a.376.376,0,0,1-.389.389Zm-.389-4.639V21.516c0-1,.017-1.813.038-2.426-.532.829-1.319,2-2,3.005-.33.491-.629.935-.849,1.266Z"/>
    </g>
  </g>
  <path class="cls-1" d="M2,8V36a1,1,0,0,0,1,1H41a1,1,0,0,0,1-1V8a1,1,0,0,0-1-1H3A1,1,0,0,0,2,8ZM39,34H5V10H39Z"/>
  <path d="M22,13a9,9,0,1,1-9,9A9.01,9.01,0,0,1,22,13Zm0-1A10,10,0,1,0,32,22,10,10,0,0,0,22,12Z"/>
  </svg>