<svg id="S_TBImport_22_N_2x" data-name="S_TBImport_22_N@2x" xmlns="http://www.w3.org/2000/svg" width="44" height="44" viewBox="0 0 44 44">
  <defs>
    <style>
      .cls-1 {
        fill-rule: evenodd;
      }

      
    </style>
  </defs>
  <title>S_TBImport_22_N@2x</title>
  <path class="cls-1" d="M14.586,6.586A2,2,0,0,0,13.172,6H5A1,1,0,0,0,4,7v4H19ZM39,14H4V31.141A3.966,3.966,0,0,1,5,31h7V24.222a1.167,1.167,0,0,1,1.839-.954L31.326,35.582,29.175,37H39a1,1,0,0,0,1-1V15A1,1,0,0,0,39,14Z"/>
  <path id="Fill2" class="cls-1" d="M5,34H15V28.717a.5.5,0,0,1,.788-.409L26,35.5,15.775,42.243A.5.5,0,0,1,15,41.825V37H5a1,1,0,0,1-1-1V35A1,1,0,0,1,5,34Z"/>
  </svg>