<svg id="S_TBThumbnailView_22_N_2x" data-name="S_TBThumbnailView_22_N@2x" xmlns="http://www.w3.org/2000/svg" width="44" height="44" viewBox="0 0 44 44">
  <defs>
    <style>
      .cls-1 {
        fill-rule: evenodd;
      }

      
    </style>
  </defs>
  <title>S_TBThumbnailView_22_N@2x</title>
  <path id="Fill" class="cls-1" d="M8,33.5v2a.5.5,0,0,0,.5.5h27a.5.5,0,0,0,.5-.5v-2a.5.5,0,0,0-.5-.5H8.5A.5.5,0,0,0,8,33.5ZM8,9V27a1,1,0,0,0,1,1H35a1,1,0,0,0,1-1V9a1,1,0,0,0-1-1H9A1,1,0,0,0,8,9Z"/>
  </svg>