<svg id="S_TBMulticam_22_N_2x" data-name="S_TBMulticam_22_N@2x" xmlns="http://www.w3.org/2000/svg" width="44" height="44" viewBox="0 0 44 44">
  <defs>
    <style>
      
    </style>
  </defs>
  <title>S_TBMulticam_22_N@2x</title>
  <path d="M24,13H41V30H24Zm-3-2V32a1,1,0,0,0,1,1H43a1,1,0,0,0,1-1V11a1,1,0,0,0-1-1H22A1,1,0,0,0,21,11Z" transform="translate(0)"/>
  <path d="M2,12H8v6H2Zm8,0h6v6H10ZM0,11v9H18V11a1,1,0,0,0-1-1H1A1,1,0,0,0,0,11Z" transform="translate(0)"/>
  <path d="M16,31H10V25h6ZM8,31H2V25H8Zm10,1V23H0v9a1,1,0,0,0,1,1H17A1,1,0,0,0,18,32Z" transform="translate(0)"/>
  </svg>