<svg id="S_TBRazorblade_22_N_2x" data-name="S_TBRazorblade_22_N@2x" xmlns="http://www.w3.org/2000/svg" width="44" height="44" viewBox="0 0 44 44">
  <defs>
    <style>
      .cls-1 {
        fill-rule: evenodd;
      }

      
    </style>
  </defs>
  <title>S_TBRazorblade_22_N@2x</title>
  <path class="cls-1" d="M39.241,24.461c0,.039-19.687-19.687-19.687-19.687-2.345-2.346-2.538-2.346-4.922,0L13.4,6C12.209,7.2,12.171,7.2,12.171,8.5V9.7s-1.538-.038-2.038.423-.423,2.038-.423,2.038H8.518c-1.192,0-1.23.077-2.5,1.23l-1.23,1.23c-2.384,2.346-2.384,2.5,0,4.922L24.475,39.226c2.384,2.346,2.576,2.346,4.922,0L30.628,38c1.192-1.269,1.192-1.307,1.23-2.345V34.3s1.692,0,2.038-.423a5.588,5.588,0,0,0,.423-2.038h1.269c1.154-.038,1.192-.038,2.422-1.23-.038,0,1.23-1.23,1.23-1.23C41.586,27.037,41.586,26.845,39.241,24.461Zm-6.883,5.422H29.9v2.461H26.436V28.479l-1.022-.994a2.275,2.275,0,0,1-.528.07,1.032,1.032,0,0,1-.767-.282,1.369,1.369,0,0,1-.2-1.293l-.955-.945A7.181,7.181,0,0,1,20.9,25.4a2.308,2.308,0,0,1-1.707-.587c-.982-.993-.472-3.007-.217-3.8L18.1,20.1a2.437,2.437,0,0,1-.566.076,1.078,1.078,0,0,1-.794-.288,1.437,1.437,0,0,1-.214-1.368l-.947-.947H11.671V14.117h2.461V11.656h3.461v3.984l.872.872a2.611,2.611,0,0,1,.619-.085,1.118,1.118,0,0,1,.824.3,1.532,1.532,0,0,1,.214,1.438l.832.807a7.77,7.77,0,0,1,2.126-.36,2.434,2.434,0,0,1,1.741.569c1.023.98.487,3.074.227,3.886l.806.832a2.655,2.655,0,0,1,.612-.082,1.129,1.129,0,0,1,.818.288,1.461,1.461,0,0,1,.222,1.407l.94.913h3.912Z"/>
  </svg>