<svg id="S_TBMaximizeAllTracks_22_N_2x" data-name="S_TBMaximizeAllTracks_22_N@2x" xmlns="http://www.w3.org/2000/svg" width="44" height="44" viewBox="0 0 44 44">
  <defs>
    <style>
      .cls-1 {
        opacity: 0.3;
      }

      
    </style>
  </defs>
  <title>S_TBMaximizeAllTracks_22_N@2x</title>
  <rect x="21" y="9" width="20" height="7" rx="0.707" ry="0.707"/>
  <rect x="12" y="19" width="17" height="6" rx="0.707" ry="0.707"/>
  <rect x="3" y="28" width="12" height="7" rx="0.645" ry="0.645"/>
  <path d="M22,0l6.8,5.1a.5.5,0,0,1-.3.9h-13a.5.5,0,0,1-.3-.9Z"/>
  <path d="M21,44l-6.8-5.1a.5.5,0,0,1,.3-.9h13a.5.5,0,0,1,.3.9Z"/>
  <rect class="cls-1" x="3" y="9" width="38" height="7"/>
  <rect class="cls-1" x="3" y="19" width="38" height="6"/>
  <rect class="cls-1" x="3" y="28" width="38" height="7"/>
  </svg>