<svg id="S_TBGoToNextMarker_22_N_2x" data-name="S_TBGoToNextMarker_22_N@2x" xmlns="http://www.w3.org/2000/svg" width="44" height="44" viewBox="0 0 44 44">
  <defs>
    <style>
      .cls-1 {
        fill-rule: evenodd;
      }

      
    </style>
  </defs>
  <title>S_TBGoToNextMarker_22_N@2x</title>
  <path id="Fill" class="cls-1" d="M22,12V29l11,8,11-8V12a2,2,0,0,0-2-2H24A2,2,0,0,0,22,12Z"/>
  <path class="cls-1" d="M9.863,12.911A.5.5,0,0,0,9,13.255V20H.5a.5.5,0,0,0-.5.5v2a.5.5,0,0,0,.5.5H9v6.745a.5.5,0,0,0,.863.344L18,21.5Z"/>
  </svg>