<svg id="S_TBGlobalEffectsMute_22_N_2x" data-name="S_TBGlobalEffectsMute_22_N@2x" xmlns="http://www.w3.org/2000/svg" width="44" height="44" viewBox="0 0 44 44">
  <defs>
    <style>
      
    </style>
  </defs>
  <title>S_TBGlobalEffectsMute_22_N@2x</title>
  <path d="M22.583,24.183A11.079,11.079,0,0,1,24.765,22.1c-.434-.773-.831-1.5-1.107-2.057.841-.9,2-2.032,3.126-3.129,1.3-1.266,2.521-2.461,3.3-3.332a.315.315,0,0,0-.235-.555H27.267a.463.463,0,0,0-.425.243l-5,4.965-2.062-4.954a.347.347,0,0,0-.378-.254H12.473l.43-1.863C13.811,7.052,15.7,6.577,17,6.574a13.883,13.883,0,0,1,2.318.58l.084.02h.033c.082,0,.282-.033.361-.343l.479-2.082a.466.466,0,0,0-.291-.517,12.736,12.736,0,0,0-2.907-.405c-4,0-6.395,2.361-7.528,7.423L9.1,13.024H5.7a.38.38,0,0,0-.387.311l-.734,1.957-.031.19.044.064.1.12.059.022.06.088H8.153c-.542,2.376-3.6,13.847-4.309,15.859a.417.417,0,0,0,.014.407.379.379,0,0,0,.335.154H4.2c.078-.01.261-.012.5-.012.261,0,1.662.016,1.983.016l.395-.006c.2-.04.388-.1.444-.383.706-2.13,2.707-9.216,4.163-16.035h3.586c.136,0,1.478-.02,2.313-.088l2.088,4.163c-.925,1.02-1.972,2.241-2.986,3.423-1.1,1.278-2.23,2.6-3.208,3.678a.312.312,0,0,0-.132.2l0,.168.045.067a.321.321,0,0,0,.258.138h2.712c.328,0,4.094-4.6,4.952-5.655C21.816,22.789,22.229,23.541,22.583,24.183Z"/>
  <path d="M30.9,23A8.1,8.1,0,1,0,39,31.1,8.1,8.1,0,0,0,30.9,23Zm5.727,8.1a5.607,5.607,0,0,1-.932,3.06L27.84,26.3a5.607,5.607,0,0,1,3.06-.932A5.727,5.727,0,0,1,36.627,31.1Zm-11.455,0a5.607,5.607,0,0,1,.932-3.06L33.96,35.9a5.607,5.607,0,0,1-3.06.932A5.727,5.727,0,0,1,25.173,31.1Z"/>
  </svg>