<svg id="S_TBRollingTrimTool_22_N_2x" data-name="S_TBRollingTrimTool_22_N@2x" xmlns="http://www.w3.org/2000/svg" width="44" height="44" viewBox="0 0 44 44">
  <defs>
    <style>
      .cls-1 {
        fill-rule: evenodd;
      }

      
    </style>
  </defs>
  <title>S_TBRollingTrimTool_22_N@2x</title>
  <path class="cls-1" d="M31,23.838V27H25V17h6v3.162a.5.5,0,0,0,.721.448l10.367-5.118L31.721,10.375a.5.5,0,0,0-.721.448V14H25V5.048A1.048,1.048,0,0,0,23.952,4h-3.9A1.048,1.048,0,0,0,19,5.048V14H13V10.806a.5.5,0,0,0-.722-.448L1.912,15.5l10.366,5.142A.5.5,0,0,0,13,20.194V17h6V27H13V23.838a.5.5,0,0,0-.721-.448L1.912,28.507l10.367,5.118A.5.5,0,0,0,13,33.177V30h6v8.952A1.048,1.048,0,0,0,20.048,40h3.9A1.048,1.048,0,0,0,25,38.952V30h6v3.177a.5.5,0,0,0,.721.448l10.367-5.118L31.721,23.389A.5.5,0,0,0,31,23.838Z"/>
  </svg>