<svg id="S_Share_18_N" xmlns="http://www.w3.org/2000/svg" width="18" height="18" viewBox="0 0 18 18">
  <defs>
    <style>
      .fill {
        fill: #fff;
        opacity: 0.65;
        
      }

      
    </style>
  </defs>
  <title>S_Share_18_N</title>
  <path class="fill" d="M11.861,3.166L9,0,6.146,3.166A0.5,0.5,0,0,0,6.518,4H8V9.75a0.25,0.25,0,0,0,.25.25h1.5A0.25,0.25,0,0,0,10,9.75V4h1.489A0.5,0.5,0,0,0,11.861,3.166Z"/>
  <path class="fill" d="M16.5,4H13V6h2v8H3V6H5V4H1.5a0.5,0.5,0,0,0-.5.5v11a0.5,0.5,0,0,0,.5.5h15a0.5,0.5,0,0,0,.5-0.5V4.5A0.5,0.5,0,0,0,16.5,4Z"/>
  </svg>