<svg id="S_TBDuplicate_22_N_2x" data-name="S_TBDuplicate_22_N@2x" xmlns="http://www.w3.org/2000/svg" width="44" height="44" viewBox="0 0 44 44">
  <defs>
    <style>
      
    </style>
  </defs>
  <title>S_TBDuplicate_22_N@2x</title>
  <path d="M38,16H17a1,1,0,0,0-1,1V38a1,1,0,0,0,1,1H38a1,1,0,0,0,1-1V17A1,1,0,0,0,38,16ZM35,28a1,1,0,0,1-1,1H29v5a1,1,0,0,1-1,1H27a1,1,0,0,1-1-1V29H21a1,1,0,0,1-1-1V27a1,1,0,0,1,1-1h5V21a1,1,0,0,1,1-1h1a1,1,0,0,1,1,1v5h5a1,1,0,0,1,1,1Z"/>
  <path d="M28,6a1,1,0,0,0-1-1H6A1,1,0,0,0,5,6V27a1,1,0,0,0,1,1h7V14.5A1.5,1.5,0,0,1,14.5,13H28Z"/>
  </svg>