<svg id="S_TBAdjustmentLayer_22_N_2x" data-name="S_TBAdjustmentLayer_22_N@2x" xmlns="http://www.w3.org/2000/svg" width="44" height="44" viewBox="0 0 44 44">
  <defs>
    <style>
      .cls-1 {
        fill-rule: evenodd;
      }

      
    </style>
  </defs>
  <title>S_TBAdjustmentLayer_22_N@2x</title>
  <path class="cls-1" d="M2,8V36a1,1,0,0,0,1,1H41a1,1,0,0,0,1-1V8a1,1,0,0,0-1-1H3A1,1,0,0,0,2,8ZM39,34H5V10H39Z"/>
  <path d="M22,12A10,10,0,1,0,32,22,10,10,0,0,0,22,12ZM14,22a8,8,0,0,1,13.654-5.654L16.346,27.654A7.975,7.975,0,0,1,14,22Z"/>
  </svg>