<svg id="S_TBTrimMode_22_N_2x" data-name="S_TBTrimMode_22_N@2x" xmlns="http://www.w3.org/2000/svg" width="44" height="44" viewBox="0 0 44 44">
  <defs>
    <style>
      
    </style>
  </defs>
  <title>S_TBTrimMode_22_N@2x</title>
  <path d="M41,12H27.5a.5.5,0,0,0-.5.5v2a.5.5,0,0,0,.5.5H39V29H27.5a.5.5,0,0,0-.5.5v2a.5.5,0,0,0,.5.5H41a1,1,0,0,0,1-1V13A1,1,0,0,0,41,12ZM3,32H17.5a.5.5,0,0,0,.5-.5v-2a.5.5,0,0,0-.5-.5H5V15H17.5a.5.5,0,0,0,.5-.5v-2a.5.5,0,0,0-.5-.5H3a1,1,0,0,0-1,1V31A1,1,0,0,0,3,32Z"/>
  <path d="M17,5V6a1,1,0,0,0,1,1h3V37H18a1,1,0,0,0-1,1v1a1,1,0,0,0,1,1h5a1,1,0,0,0,1-1V5a1,1,0,0,0-1-1H18A1,1,0,0,0,17,5Z"/>
  </svg>