<svg id="S_TBTrackSelectBackward_22_N_2x" data-name="S_TBTrackSelectBackward_22_N@2x" xmlns="http://www.w3.org/2000/svg" width="44" height="44" viewBox="0 0 44 44">
  <defs>
    <style>
      .cls-1 {
        fill-rule: evenodd;
      }

      
    </style>
  </defs>
  <title>S_TBTrackSelectBackward_22_N@2x</title>
  <path class="cls-1" d="M41.5,6H37V9h2v2h3V6.5A.5.5,0,0,0,41.5,6Z"/>
  <path class="cls-1" d="M41.5,37H37V34h2V32h3v4.5A.5.5,0,0,1,41.5,37Z"/>
  <path class="cls-1" d="M11.5,37a.5.5,0,0,1-.5-.5V32h3v2h2v3Z"/>
  <path id="Fill2" class="cls-1" d="M19,23H9v6.745a.5.5,0,0,1-.863.344L0,21.5l8.137-8.589A.5.5,0,0,1,9,13.255V20H19a1,1,0,0,1,1,1v1A1,1,0,0,1,19,23Z"/>
  <rect x="31" y="34" width="3" height="3"/>
  <rect x="25" y="34" width="3" height="3"/>
  <rect x="19" y="34" width="3" height="3"/>
  <rect x="39" y="14" width="3" height="3"/>
  <rect x="39" y="20" width="3" height="3"/>
  <rect x="39" y="26" width="3" height="3"/>
  <rect x="19" y="6" width="3" height="3"/>
  <rect x="25" y="6" width="3" height="3"/>
  <rect x="31" y="6" width="3" height="3"/>
  <path class="cls-1" d="M16,6V9H14v2H11V6.5a.5.5,0,0,1,.5-.5Z"/>
  </svg>