<svg id="S_TBRippleTool_22_N_2x" data-name="S_TBRippleTool_22_N@2x" xmlns="http://www.w3.org/2000/svg" width="44" height="44" viewBox="0 0 44 44">
  <defs>
    <style>
      .cls-1 {
        fill-rule: evenodd;
      }

      
    </style>
  </defs>
  <title>S_TBRippleTool_22_N@2x</title>
  <path id="Fill" class="cls-1" d="M24,40.048H20A1.048,1.048,0,0,1,18.952,39V23H14v6.106a.5.5,0,0,1-.724.479L0,21.607l13.276-7.648a.5.5,0,0,1,.724.479V20h4.952V5A1.048,1.048,0,0,1,20,3.952h4A1.048,1.048,0,0,1,25.048,5V20H30V14.263a.5.5,0,0,1,.724-.477L44,21.4,30.724,29.343A.5.5,0,0,1,30,28.866V23H25.048V39A1.048,1.048,0,0,1,24,40.048Z"/>
  </svg>