<svg xmlns="http://www.w3.org/2000/svg" data-name="S_Home_18_N_D@2x" height="36" id="S_Home_18_N_D_2x" viewBox="0 0 36 36" width="36">
  <defs>
    <style>
	.fill {
        fill: #fff;
        fill-rule: evenodd;
        opacity: 0.65;
      }</style>
  </defs>
  <title>S_Home_18_N_D@2x</title>
  <path class="fill" d="M35.332,20.25,18.75,3.668a1.06,1.06,0,0,0-1.5,0L.668,20.25a1.06,1.06,0,0,0,0,1.5l1.958,1.958A1,1,0,0,0,3.333,24H4v9a1,1,0,0,0,1,1h8a1,1,0,0,0,1-1V23a1,1,0,0,1,1-1h6a1,1,0,0,1,1,1V33a1,1,0,0,0,1,1h8a1,1,0,0,0,1-1V24h.667a1,1,0,0,0,.707-.293l1.958-1.958A1.06,1.06,0,0,0,35.332,20.25Z" />
  </svg>