<svg id="S_TBTrackSelectForward_22_N_2x" data-name="S_TBTrackSelectForward_22_N@2x" xmlns="http://www.w3.org/2000/svg" width="44" height="44" viewBox="0 0 44 44">
  <defs>
    <style>
      .cls-1 {
        fill-rule: evenodd;
      }

      
    </style>
  </defs>
  <title>S_TBTrackSelectForward_22_N@2x</title>
  <path class="cls-1" d="M2.5,38H7V35H5V33H2v4.5A.5.5,0,0,0,2.5,38Z"/>
  <path class="cls-1" d="M2.5,7H7v3H5v2H2V7.5A.5.5,0,0,1,2.5,7Z"/>
  <path class="cls-1" d="M32.5,7a.5.5,0,0,1,.5.5V12H30V10H28V7Z"/>
  <path id="Fill2" class="cls-1" d="M25,21H35V14.255a.5.5,0,0,1,.863-.344L44,22.5l-8.137,8.589A.5.5,0,0,1,35,30.745V24H25a1,1,0,0,1-1-1V22A1,1,0,0,1,25,21Z"/>
  <rect x="10" y="7" width="3" height="3"/>
  <rect x="16" y="7" width="3" height="3"/>
  <rect x="22" y="7" width="3" height="3"/>
  <rect x="2" y="27" width="3" height="3"/>
  <rect x="2" y="21" width="3" height="3"/>
  <rect x="2" y="15" width="3" height="3"/>
  <rect x="22" y="35" width="3" height="3"/>
  <rect x="16" y="35" width="3" height="3"/>
  <rect x="10" y="35" width="3" height="3"/>
  <path class="cls-1" d="M28,38V35h2V33h3v4.5a.5.5,0,0,1-.5.5Z"/>
  </svg>