<svg id="S_TBNewSequence_22_N_2x" data-name="S_TBNewSequence_22_N@2x" xmlns="http://www.w3.org/2000/svg" width="44" height="44" viewBox="0 0 44 44">
  <defs>
    <style>
      .cls-1 {
        fill-rule: evenodd;
      }

      
    </style>
  </defs>
  <title>S_TBNewSequence_22_N@2x</title>
  <path class="cls-1" d="M19,14H11a1,1,0,0,0-1,1v3a1,1,0,0,0,1,1h8Z"/>
  <path class="cls-1" d="M19,30H13a1,1,0,0,0-1,1v3a1,1,0,0,0,1,1h6Z"/>
  <path class="cls-1" d="M28,35H39a1,1,0,0,0,1-1V31a1,1,0,0,0-1-1H28Z"/>
  <path class="cls-1" d="M28,19h8a1,1,0,0,0,1-1V15a1,1,0,0,0-1-1H28Z"/>
  <path class="cls-1" d="M19,22H5a1,1,0,0,0-1,1v3a1,1,0,0,0,1,1H19Z"/>
  <path class="cls-1" d="M28,27h3a1,1,0,0,0,1-1V23a1,1,0,0,0-1-1H28Z"/>
  <path class="cls-1" d="M28,9V5a1,1,0,0,0-1-1H20a1,1,0,0,0-1,1V9a3,3,0,0,1,3,3V38a1,1,0,0,0,1,1h1a1,1,0,0,0,1-1V12A3,3,0,0,1,28,9Z"/>
  </svg>