<svg id="S_TBAudioGain_22_N_2x" data-name="S_TBAudioGain_22_N@2x" xmlns="http://www.w3.org/2000/svg" width="44" height="44" viewBox="0 0 44 44">
  <defs>
    <style>
      .cls-1 {
        fill-rule: evenodd;
      }

      
    </style>
  </defs>
  <title>S_TBAudioGain_22_N@2x</title>
  <path class="cls-1" d="M39.911,20C34,20,32.671,9.3,31.071,5.732v13.71a.516.516,0,0,1-.528.5C21,19.947,19,1,19,1c-.312,4.459-.181,19-3.169,19h-3.8C9.305,20,5.429,6.732,5.429,6.732V19.5a.5.5,0,0,1-.5.5H3.607A.561.561,0,0,0,3,20.5v1.968a.561.561,0,0,0,.607.5H4.929a.5.5,0,0,1,.5.5V36.236s3.877-13.268,6.606-13.268h3.8C18.819,22.968,18.688,38.541,19,43c0,0,2-20.01,11.543-20.01a.516.516,0,0,1,.528.5V37.874c1.6-3.565,2.929-14.906,8.84-14.906h1.481a.561.561,0,0,0,.607-.5V20.5a.561.561,0,0,0-.607-.5Z"/>
  </svg>