<svg id="S_TBTypeTool_22_N_2x" data-name="S_TBTypeTool_22_N@2x" xmlns="http://www.w3.org/2000/svg" width="44" height="44" viewBox="0 0 44 44">
  <defs>
    <style>
      .cls-1 {
        fill-rule: evenodd;
      }

      
    </style>
  </defs>
  <title>S_TBTypeTool_22_N@2x</title>
  <path class="cls-1" d="M7,6A1,1,0,0,0,6,7v7a1,1,0,0,0,1,1h3a1,1,0,0,0,1-1V11h8V33H16a1,1,0,0,0-1,1v3a1,1,0,0,0,1,1H27a1,1,0,0,0,1-1V34a1,1,0,0,0-1-1H24V11h8v3a1,1,0,0,0,1,1h3a1,1,0,0,0,1-1V7a1,1,0,0,0-1-1Z"/>
  </svg>