<svg id="S_TBVerticalTypeTool_22_N_2x" data-name="S_TBVerticalTypeTool_22_N@2x" xmlns="http://www.w3.org/2000/svg" width="44" height="44" viewBox="0 0 44 44">
  <defs>
    <style>
      .cls-1 {
        fill-rule: evenodd;
      }

      
    </style>
  </defs>
  <title>S_TBVerticalTypeTool_22_N@2x</title>
  <path d="M11.943,31H8.222V9.5a.5.5,0,0,0-.5-.5h-2a.5.5,0,0,0-.5.5V31H1.5a.5.5,0,0,0-.339.867L6.722,37l5.56-5.133A.5.5,0,0,0,11.943,31Z"/>
  <path class="cls-1" d="M13,6a1,1,0,0,0-1,1v7a1,1,0,0,0,1,1h3a1,1,0,0,0,1-1V11h7V33H21a1,1,0,0,0-1,1v3a1,1,0,0,0,1,1H32a1,1,0,0,0,1-1V34a1,1,0,0,0-1-1H29V11h7v3a1,1,0,0,0,1,1h3a1,1,0,0,0,1-1V7a1,1,0,0,0-1-1Z"/>
  </svg>