<svg id="S_TBRPanoramaVR_22_N_2x" data-name="S_TBRPanoramaVR_22_N@2x" xmlns="http://www.w3.org/2000/svg" width="44" height="44" viewBox="0 0 44 44">
  <defs>
    <style>
      
    </style>
  </defs>
  <title>S_TBRPanoramaVR_22_N@2x</title>
  <path d="M35.23,9.016a15.982,15.982,0,0,0-26.458,0q1.71.27,3.432.468a12.949,12.949,0,0,1,19.6,0Q33.52,9.284,35.23,9.016ZM40,13.249V30.04a91.4,91.4,0,0,0-36,0V13.249A91.4,91.4,0,0,0,40,13.249Zm.563-3.2a86.792,86.792,0,0,1-37.127,0A2,2,0,0,0,1,12v19.29a2,2,0,0,0,2.437,1.951,86.792,86.792,0,0,1,37.127,0A2,2,0,0,0,43,31.29V12A2,2,0,0,0,40.563,10.048ZM8.77,34.273a15.982,15.982,0,0,0,26.458,0q-1.71-.27-3.432-.468a12.949,12.949,0,0,1-19.6,0Q10.48,34,8.77,34.273ZM22,24a2.5,2.5,0,1,1,2.5-2.5A2.5,2.5,0,0,1,22,24Z"/>
  </svg>