<svg id="S_TBHandTool_22_N_2x" data-name="S_TBHandTool_22_N@2x" xmlns="http://www.w3.org/2000/svg" width="44" height="44" viewBox="0 0 44 44">
  <defs>
    <style>
      .cls-1 {
        fill-rule: evenodd;
      }

      
    </style>
  </defs>
  <title>S_TBHandTool_22_N@2x</title>
  <path class="cls-1" d="M39.193,13.1c-1.145-.377-2.4.566-2.937,1.714l-3.3,5.451c-.24.519-.858,1-1.3.8s-.56-.752-.339-1.632l1.585-9.964a2.562,2.562,0,0,0-2.092-3.23,2.518,2.518,0,0,0-2.582,2.025l-1.509,9.29s-.11,1.207-1.008,1.165-.8-1.275-.8-1.275V6.571a2.408,2.408,0,1,0-4.806,0V17.394c0,.679-.966.662-1.144.1-.827-2.58-2.644-8.418-2.644-8.418a2.492,2.492,0,0,0-2.7-1.843,2.586,2.586,0,0,0-1.893,3.368L15,20.795a9.191,9.191,0,0,1,.3,1.383,2.226,2.226,0,0,1-.9,2.358c-.467.286-6.487-3.242-6.487-3.242-2.4-1.75-3.884-1.144-4.505-.357-.661.838-.2,2.214.754,3.274l8.5,7.867a4.614,4.614,0,0,1,.525.791A29.369,29.369,0,0,0,15.7,37c1.682,1.971,4.066,3,7.609,3,4.472,0,7.79-1.83,8.971-4.8.8-2.486,1.559-5.841,1.922-7.008.238-.763,6.06-11.692,6.06-11.692C40.914,15.1,40.65,13.578,39.193,13.1Z"/>
  </svg>