<svg id="S_TBExportFrame_22_N_2x" data-name="S_TBExportFrame_22_N@2x" xmlns="http://www.w3.org/2000/svg" width="44" height="44" viewBox="0 0 44 44">
  <defs>
    <style>
      .cls-1 {
        fill-rule: evenodd;
      }

      
    </style>
  </defs>
  <title>S_TBExportFrame_22_N@2x</title>
  <path class="cls-1" d="M39,12H31.2L28.9,9.126A3,3,0,0,0,26.558,8H17.442A3,3,0,0,0,15.1,9.126L12.8,12H5a1,1,0,0,0-1,1V35a1,1,0,0,0,1,1H39a1,1,0,0,0,1-1V13A1,1,0,0,0,39,12ZM22,32a9,9,0,1,1,9-9A9,9,0,0,1,22,32Z"/>
  <circle cx="22" cy="23" r="6"/>
  </svg>