<svg id="S_TBSlideTool_22_N_2x" data-name="S_TBSlideTool_22_N@2x" xmlns="http://www.w3.org/2000/svg" width="44" height="44" viewBox="0 0 44 44">
  <defs>
    <style>
      .cls-1 {
        fill-rule: evenodd;
      }

      
    </style>
  </defs>
  <title>S_TBSlideTool_22_N@2x</title>
  <path id="Fill2" class="cls-1" d="M27,10v8h3V7.5a.5.5,0,0,0-.5-.5h-15a.5.5,0,0,0-.5.5V18h3V10Z"/>
  <path id="Fill2-2" data-name="Fill2" class="cls-1" d="M17,33V25H14V35.5a.5.5,0,0,0,.5.5h15a.5.5,0,0,0,.5-.5V25H27v8Z"/>
  <path class="cls-1" d="M35.863,12.911a.5.5,0,0,0-.863.344V20H9V13.255a.5.5,0,0,0-.863-.344L0,21.5l8.137,8.589A.5.5,0,0,0,9,29.745V23H35v6.745a.5.5,0,0,0,.863.344L44,21.5Z"/>
  </svg>