<svg id="S_TBRippleTrimNext_22_N_2x" data-name="S_TBRippleTrimNext_22_N@2x" xmlns="http://www.w3.org/2000/svg" width="44" height="44" viewBox="0 0 44 44">
  <defs>
    <style>
      .cls-1 {
        fill-rule: evenodd;
      }

      
    </style>
  </defs>
  <title>S_TBRippleTrimNext_22_N@2x</title>
  <path d="M42,2V13.793a.5.5,0,0,1-.146.354L36,19V9H33V19l-5.854-4.854A.5.5,0,0,1,27,13.793V2a1,1,0,0,1,1-1H41A1,1,0,0,1,42,2Z"/>
  <rect x="33" y="21" width="3" height="23" rx="0.5" ry="0.5" transform="translate(69 65) rotate(180)"/>
  <path d="M12,17.5v2a.5.5,0,0,1-.5.5H7V41h4.5a.5.5,0,0,1,.5.5v2a.5.5,0,0,1-.5.5H5a1,1,0,0,1-1-1V18a1,1,0,0,1,1-1h6.5A.5.5,0,0,1,12,17.5Z"/>
  <path class="cls-1" d="M12.5,29H21V24.978a.5.5,0,0,1,.793-.405L30,30.5l-8.207,5.927A.5.5,0,0,1,21,36.022V32H12.5a.5.5,0,0,1-.5-.5v-2A.5.5,0,0,1,12.5,29Z"/>
  </svg>