<svg id="S_TBClipVolume_22_N_2x" data-name="S_TBClipVolume_22_N@2x" xmlns="http://www.w3.org/2000/svg" width="44" height="44" viewBox="0 0 44 44">
  <defs>
    <style>
      .cls-1 {
        fill-rule: evenodd;
      }

      
    </style>
  </defs>
  <title>S_TBClipVolume_22_N@2x</title>
  <path class="cls-1" d="M28,8H24V5.029A1.029,1.029,0,0,0,22.971,4h-.942A1.029,1.029,0,0,0,21,5.029V8H17a1,1,0,0,0-1,1v3a1,1,0,0,0,1,1H28a1,1,0,0,0,1-1V9A1,1,0,0,0,28,8Z"/>
  <path class="cls-1" d="M21,38.971A1.029,1.029,0,0,0,22.029,40h.942A1.029,1.029,0,0,0,24,38.971V16H21Z"/>
  <path class="cls-1" d="M43,26H39V5.029A1.029,1.029,0,0,0,37.971,4h-.942A1.029,1.029,0,0,0,36,5.029V26H32a1,1,0,0,0-1,1v3a1,1,0,0,0,1,1H43a1,1,0,0,0,1-1V27A1,1,0,0,0,43,26Z"/>
  <path class="cls-1" d="M36,38.971A1.029,1.029,0,0,0,37.029,40h.942A1.029,1.029,0,0,0,39,38.971V34H36Z"/>
  <path class="cls-1" d="M12,17H8V5.029A1.029,1.029,0,0,0,6.971,4H6.029A1.029,1.029,0,0,0,5,5.029V17H1a1,1,0,0,0-1,1v3a1,1,0,0,0,1,1H12a1,1,0,0,0,1-1V18A1,1,0,0,0,12,17Z"/>
  <path class="cls-1" d="M5,38.971A1.029,1.029,0,0,0,6.029,40h.942A1.029,1.029,0,0,0,8,38.971V25H5Z"/>
  </svg>