<svg id="S_TBVectorDraw_22_N_2x" data-name="S_TBVectorDraw_22_N@2x" xmlns="http://www.w3.org/2000/svg" width="44" height="44" viewBox="0 0 44 44">
  <defs>
    <style>
      .cls-1 {
        fill-rule: evenodd;
      }

      
    </style>
  </defs>
  <title>S_TBVectorDraw_22_N@2x</title>
  <path class="cls-1" d="M39.134,13.26,30.718,4.846a1.068,1.068,0,0,0-1.51,0L25.693,8.36a1.053,1.053,0,0,0-.147,1.289l8.614,8.586a1.068,1.068,0,0,0,1.51,0l3.465-3.465A1.068,1.068,0,0,0,39.134,13.26Z"/>
  <path class="cls-1" d="M23.462,11.383,12.585,17.011a2,2,0,0,0-1.011,1.051l-7.6,17.912a1,1,0,0,0,.217,1.09l.522.523L15.132,27.172A2.41,2.41,0,0,1,15,26.519a2.5,2.5,0,1,1,2.5,2.5,2.428,2.428,0,0,1-.685-.138l-10.4,10.4.593.593a1,1,0,0,0,1.09.217l17.912-7.6a2,2,0,0,0,1.051-1.011l5.628-10.876Z"/>
  </svg>