<svg id="S_TBRateStretchTool_22_N_2x" data-name="S_TBRateStretchTool_22_N@2x" xmlns="http://www.w3.org/2000/svg" width="44" height="44" viewBox="0 0 44 44">
  <defs>
    <style>
      .cls-1 {
        fill-rule: evenodd;
      }

      
    </style>
  </defs>
  <title>S_TBRateStretchTool_22_N@2x</title>
  <path class="cls-1" d="M32.725,25.349A.5.5,0,0,0,32,25.8V29.02H27.1c-4.881,0-6.368-.829-9.1-3.275v3.26c2.132,2.44,6.4,3.015,10.394,3.015H32v3.224a.5.5,0,0,0,.725.447L43,30.52Z"/>
  <path class="cls-1" d="M18,33.475s.01,5.375,0,5.967a.55.55,0,0,0,.556.558h5.889A.555.555,0,0,0,25,39.446V35.786S19.751,35.894,18,33.475Z"/>
  <path class="cls-1" d="M26,9.525s-.01-5.375,0-5.967A.55.55,0,0,0,25.444,3H19.556A.555.555,0,0,0,19,3.554V7.214S24.249,7.106,26,9.525Z"/>
  <path class="cls-1" d="M18.025,18.518,18,18.5v2.722c2.481,2.222,3.987,3.139,7.975,3.26L26,24.5V21.778C23.519,19.556,22.013,18.639,18.025,18.518Z"/>
  <path class="cls-1" d="M11.275,17.671A.5.5,0,0,0,12,17.224V14h4.9c4.881,0,6.368.829,9.1,3.275v-3.26C23.868,11.574,19.6,11,15.606,11H12V7.776a.5.5,0,0,0-.725-.447L1,12.5Z"/>
  </svg>