<svg id="S_TBRippleTrimPrevious_22_N_2x" data-name="S_TBRippleTrimPrevious_22_N@2x" xmlns="http://www.w3.org/2000/svg" width="44" height="44" viewBox="0 0 44 44">
  <defs>
    <style>
      .cls-1 {
        fill-rule: evenodd;
      }

      
    </style>
  </defs>
  <title>S_TBRippleTrimPrevious_22_N@2x</title>
  <path d="M2,2V13.793a.5.5,0,0,0,.146.354L8,19V9h3V19l5.854-4.854A.5.5,0,0,0,17,13.793V2a1,1,0,0,0-1-1H3A1,1,0,0,0,2,2Z"/>
  <rect x="8" y="21" width="3" height="23" rx="0.5" ry="0.5"/>
  <path d="M32,17.5v2a.5.5,0,0,0,.5.5H37V41H32.5a.5.5,0,0,0-.5.5v2a.5.5,0,0,0,.5.5H39a1,1,0,0,0,1-1V18a1,1,0,0,0-1-1H32.5A.5.5,0,0,0,32,17.5Z"/>
  <path class="cls-1" d="M31.5,29H23V24.978a.5.5,0,0,0-.793-.405L14,30.5l8.207,5.927A.5.5,0,0,0,23,36.022V32h8.5a.5.5,0,0,0,.5-.5v-2A.5.5,0,0,0,31.5,29Z"/>
  </svg>