<svg id="S_TBNewProject_22_N_2xS_" data-name="S_TBNewProject_22_N@2xS_" xmlns="http://www.w3.org/2000/svg" width="44" height="44" viewBox="0 0 44 44">
  <defs>
    <style>
      .cls-1 {
        fill-rule: evenodd;
      }

      
    </style>
  </defs>
  <title>S_TBNewProject_22_N@2xS_</title>
  <path class="cls-1" d="M23,17a1,1,0,0,0,1,1H36V38a1,1,0,0,1-1,1H10a1,1,0,0,1-1-1V6a1,1,0,0,1,1-1H23ZM26,5V15H36Zm-.375,18.781c-.094.094-.094.094-.094.187a9.614,9.614,0,0,1,.094,1.313v8.531c0,.187.094.187.187.187h1.875c.187,0,.187-.094.187-.187V25.281A4.808,4.808,0,0,1,30.031,25c.187,0,.187,0,.187-.094h-.094V23.031c0-.094-.094-.094-.187-.094A10.065,10.065,0,0,0,25.625,23.781ZM14.094,19.094c-.094,0-.094.094-.094.187V33.813c0,.187.094.187.187.187h1.781c.187,0,.187-.094.187-.187V28.656h1.313c3.094,0,5.531-1.5,5.438-4.969,0-2.625-1.594-4.687-5.344-4.687C16.25,19,14.938,19.094,14.094,19.094ZM16.437,26.5V21.25a7.614,7.614,0,0,1,1.594-.094,2.591,2.591,0,0,1,2.906,2.625c0,2.156-1.5,2.719-3.094,2.719Z"/>
  </svg>