<svg id="S_TBOfflineFile_22_N_2x" data-name="S_TBOfflineFile_22_N@2x" xmlns="http://www.w3.org/2000/svg" width="44" height="44" viewBox="0 0 44 44">
  <defs>
    <style>
      .cls-1 {
        fill-rule: evenodd;
      }

      
    </style>
  </defs>
  <title>S_TBOfflineFile_22_N@2x</title>
  <path class="cls-1" d="M23,17a1,1,0,0,0,1,1H36V38a1,1,0,0,1-1,1H10a1,1,0,0,1-1-1V6a1,1,0,0,1,1-1H23ZM26,5V15H36ZM22.228,36.924a1.9,1.9,0,1,1,1.909-1.908A1.771,1.771,0,0,1,22.228,36.924ZM21.3,31.555a.6.6,0,0,1-.443-.142,2.916,2.916,0,0,1-.661-1.84c0-1.256.813-2.068,1.939-3.192.841-.842,1.209-1.28,1.209-1.934,0-.854-.63-1.288-1.874-1.288a6,6,0,0,0-2.979.78l-.044.025-.128.019h-.08L18.1,23.9l-.062-.06L18,23.666V21.3a.416.416,0,0,1,.21-.423,7.916,7.916,0,0,1,3.8-.875c2.835,0,4.74,1.621,4.74,4.033a4.546,4.546,0,0,1-1.625,3.513l-.173.164c-.833.787-1.62,1.531-1.62,2.132a2.379,2.379,0,0,0,.364,1.242.309.309,0,0,1,.016.312.315.315,0,0,1-.287.159Z"/>
  </svg>