<svg id="S_TBGoToPrevMarker_22_N_2x" data-name="S_TBGoToPrevMarker_22_N@2x" xmlns="http://www.w3.org/2000/svg" width="44" height="44" viewBox="0 0 44 44">
  <defs>
    <style>
      .cls-1 {
        fill-rule: evenodd;
      }

      
    </style>
  </defs>
  <title>S_TBGoToPrevMarker_22_N@2x</title>
  <path id="Fill" class="cls-1" d="M22,12V29L11,37,0,29V12a2,2,0,0,1,2-2H20A2,2,0,0,1,22,12Z"/>
  <path class="cls-1" d="M34.137,12.911a.5.5,0,0,1,.863.344V20h8.5a.5.5,0,0,1,.5.5v2a.5.5,0,0,1-.5.5H35v6.745a.5.5,0,0,1-.863.344L26,21.5Z"/>
  </svg>