<svg id="S_TBSpeedDuration_22_N_2x" data-name="S_TBSpeedDuration_22_N@2x" xmlns="http://www.w3.org/2000/svg" width="44.012" height="44" viewBox="0 0 44.012 44">
  <defs>
    <style>
      
    </style>
  </defs>
  <title>S_TBSpeedDuration_22_N@2x</title>
  <path d="M29,8.031V6h1.5a.5.5,0,0,0,.5-.5v-2a.5.5,0,0,0-.5-.5h-5a.5.5,0,0,0-.5.5v2a.5.5,0,0,0,.5.5H27V8.031a15.93,15.93,0,0,0-9.312,3.735l-1.437-1.437,1.061-1.061a.5.5,0,0,0,0-.707L15.9,7.146a.5.5,0,0,0-.707,0l-3.536,3.536a.5.5,0,0,0,0,.707L13.069,12.8a.5.5,0,0,0,.707,0l1.061-1.061,1.406,1.406A16,16,0,1,0,29,8.031ZM28,37a13,13,0,1,1,8.728-22.634l-9.241,9.241A1,1,0,0,0,28.9,25.021l9.2-9.2A13,13,0,0,1,28,37ZM9.026,25H.489a.5.5,0,0,1-.452-.714l.475-1A.5.5,0,0,1,.964,23H9.026Q9,23.5,9,24T9.026,25ZM3.032,19.268l.525-1A.5.5,0,0,1,4,18H9.967a18.851,18.851,0,0,0-.545,2H3.475A.5.5,0,0,1,3.032,19.268ZM9.967,30H3.475a.5.5,0,0,1-.443-.732l.525-1A.5.5,0,0,1,4,28H9.422A18.851,18.851,0,0,0,9.967,30Z" transform="translate(0.012)"/>
  </svg>