<svg id="S_TextOutline_Md_N_D_2x" data-name="S_TextOutline_Md_N_D@2x" xmlns="http://www.w3.org/2000/svg" width="36" height="36" viewBox="0 0 36 36">
  <defs>
    <style>
      .fill {
        fill: #fff;
        fill-rule: evenodd;
        opacity: 0.65;
      }

      
    </style>
  </defs>
  <title>S_TextOutline_Md_N_D@2x</title>
  <path class="fill" d="M28,8v6H26V12a2,2,0,0,0-2-2H20a2,2,0,0,0-2,2V22a2,2,0,0,0,2,2h2v2H12V24h2a2,2,0,0,0,2-2V12a2,2,0,0,0-2-2H10a2,2,0,0,0-2,2v2H6V8Zm1-2H5A1,1,0,0,0,4,7v8a1,1,0,0,0,1,1H9a1,1,0,0,0,1-1V12h4V22H11a1,1,0,0,0-1,1v4a1,1,0,0,0,1,1H23a1,1,0,0,0,1-1V23a1,1,0,0,0-1-1H20V12h4v3a1,1,0,0,0,1,1h4a1,1,0,0,0,1-1V7A1,1,0,0,0,29,6Z"/>
  </svg>