<svg id="S_TextTracking_Md_N_D_2x" data-name="S_TextTracking_Md_N_D@2x" xmlns="http://www.w3.org/2000/svg" width="36" height="36" viewBox="0 0 36 36">
  <defs>
    <style>
      .fill {
        fill: #fff;
        fill-rule: evenodd;
        opacity: 0.65;
      }

      
    </style>
  </defs>
  <title>S_TextTracking_Md_N_D@2x</title>
  <path class="fill" d="M27.06,14L24.42,8,22,14h5.06ZM0,2.5v21a0.5,0.5,0,0,0,.5.5h35a0.5,0.5,0,0,0,.5-0.5V2.5A0.5,0.5,0,0,0,35.5,2H0.5A0.5,0.5,0,0,0,0,2.5ZM21.38,16s-0.57,2.44-.84,3.23a3.635,3.635,0,0,0,.4,2.77H16.22S22.89,4,22.94,4h4.17L34,22H28a2.921,2.921,0,0,0,.44-3.11C27.94,17.59,27.5,16,27.5,16H21.38Zm-9.71,1.21s3.58-8.55,4.04-9.5-0.13-3.66-.13-3.66L20,4,12.2,22H9.66L2,4,8.01,4.05a3.763,3.763,0,0,0-.87,2.11C7.21,7.16,11.67,17.21,11.67,17.21Z" transform="translate(0)"/>
  <path class="fill" d="M0,31l5.146,4.805A0.5,0.5,0,0,0,6,35.452V32H30v3.484a0.5,0.5,0,0,0,.82.384L36,31l-5.18-4.836a0.5,0.5,0,0,0-.82.384V30H6V26.516a0.5,0.5,0,0,0-.854-0.354Z" transform="translate(0)"/>
  </svg>