<svg id="S_TextOutline_Md_N_D_3x" data-name="S_TextOutline_Md_N_D@3x" xmlns="http://www.w3.org/2000/svg" width="27" height="27" viewBox="0 0 27 27">
  <defs>
    <style>
      .fill {
        fill: #fff;
        fill-rule: evenodd;
        opacity: 0.65;
      }

      
    </style>
  </defs>
  <title>S_TextOutline_Md_N_D@3x</title>
  <path class="fill" d="M21.5,6.5v4H20V9a1.5,1.5,0,0,0-1.5-1.5H16A1.5,1.5,0,0,0,14.5,9v8A1.5,1.5,0,0,0,16,18.5h1.5v1h-7v-1H12A1.5,1.5,0,0,0,13.5,17V9A1.5,1.5,0,0,0,12,7.5H8.5A1.5,1.5,0,0,0,7,9v1.5H5.5v-4ZM22.25,5H4.75A.75.75,0,0,0,4,5.75v5.5a.75.75,0,0,0,.75.75h3a.75.75,0,0,0,.75-.75V9H12v8H9.75a.75.75,0,0,0-.75.75v2.5a.75.75,0,0,0,.75.75h8.5a.75.75,0,0,0,.75-.75v-2.5a.75.75,0,0,0-.75-.75H16V9h2.5v2.25a.75.75,0,0,0,.75.75h3a.75.75,0,0,0,.75-.75V5.75A.75.75,0,0,0,22.25,5Z"/>
  </svg>