<svg xmlns="http://www.w3.org/2000/svg" width="32" height="32" viewBox="0 0 32 32">
  <defs>
    <style>
      .fill {
        fill: #fff;
        fill-rule: evenodd;
        opacity: 0.65;
      }
    </style>
  </defs>
  <g id="spectrum_icons" data-name="spectrum icons">
    <path class="fill" d="M29.5,2H2.5a.5.5,0,0,0-.5.5V15.99951a9.99253,9.99253,0,0,1,2-1.16662V4H28V22H17.79974A10.0464,10.0464,0,0,1,18,24H29.5a.5.5,0,0,0,.5-.5V2.5A.5.5,0,0,0,29.5,2Z"/>
    <path class="fill" d="M25.5,28H21a1,1,0,0,1-1-1V25H17.95038a9.94816,9.94816,0,0,1-1.94995,5H25.5a.5.5,0,0,0,.5-.5v-1A.5.5,0,0,0,25.5,28Z"/>
    <polygon class="fill" points="8 24 8 20 6 20 6 25.012 9.92 27.722 11 26.038 8 24"/>
    <path class="fill" d="M8,16a8,8,0,1,0,8,8A8,8,0,0,0,8,16ZM8,30.5A6.5,6.5,0,1,1,14.5,24,6.5,6.5,0,0,1,8,30.5Z"/>
    <path class="fill" d="M8,14a10.05925,10.05925,0,0,1,1.18207.076,3.11185,3.11185,0,0,1,.9129-2.186,3.07593,3.07593,0,0,1,1.80005-.88l.4-.02a2.73278,2.73278,0,0,1,.9.14,2.71781,2.71781,0,0,1,.56.22,3.035,3.035,0,0,1,.7.52l.34.34,1.64,1.62a.85933.85933,0,0,0,.2.18,1.20176,1.20176,0,0,0,.54.14,1.0011,1.0011,0,0,0,.74-.32,1.06254,1.06254,0,0,0,0-1.48l-.16-.16-.66-.66-.74-.74-.38-.38-.38-.34a4.939,4.939,0,0,0-1.96-1,4.74375,4.74375,0,0,0-1.3-.18h-.04a5.51065,5.51065,0,0,0-1.3.16A5.16243,5.16243,0,0,0,7.08514,14.0462C7.38684,14.0188,7.69116,14,8,14Z"/>
    <path class="fill" d="M23.075,8.53a6.29917,6.29917,0,0,0-4.46-1.84,6.19143,6.19143,0,0,0-3.12.84,7.04168,7.04168,0,0,1,1.96,1.4l.02.02a4.47763,4.47763,0,0,1,1.14-.16,4.21164,4.21164,0,0,1,2.98,1.24l.14.14.04.06.1.1.04.06005.08.1.04.08.08.08.04.08.06.1.04.08.06.08.04.08.06.1.04.08.04.1.02.08.04.1.04.1.02.1.04.08.02.08.06.22v.06l.02.12.02.08.02.12v.06l.02.12v.64l-.02.14v.04l-.02.16a4.04435,4.04435,0,0,1-.32,1.06l-.06.16-.02.02-.08.14-.02.04-.08.14v.02l-.1.14-.02.02-.1.14a3.99538,3.99538,0,0,1-.38.44l-.25995.24a4.31244,4.31244,0,0,1-.9.58,4.05282,4.05282,0,0,1-1.82.42,4.18946,4.18946,0,0,1-2.78-1.06l-.2-.18-2.76-2.78a1.10817,1.10817,0,0,0-.76-.3,1.09682,1.09682,0,0,0-.74.3,1.07511,1.07511,0,0,0-.07794,1.37793,10.01606,10.01606,0,0,1,5.347,4.42029A6.252,6.252,0,0,0,18.615,19.31l.56-.02a5.96092,5.96092,0,0,0,1.78-.44,5.10278,5.10278,0,0,0,1.13995-.58,6.38173,6.38173,0,0,0,.98-9.74Z"/>
  </g>
</svg>
