<svg xmlns="http://www.w3.org/2000/svg" width="92" height="68" viewBox="0 0 92 68">
  <defs>
    <style>
      .fill, .fillMedium {
        fill: #fff;
      }

      .fill {
        opacity: 0.65;
        fill-rule: evenodd;
      }

      .fillMedium {
        opacity: 0.3;
      }
    </style>
  </defs>
  <g id="spectrum_icons" data-name="spectrum icons">
    <rect class="fill" x="38" y="50" width="4" height="4" rx="1"/>
    <rect class="fill" x="24" y="50" width="4" height="4" rx="1"/>
    <rect class="fill" x="31" y="50" width="4" height="4" rx="1"/>
  </g>
  <g id="icons">
    <path class="fillMedium" d="M41.49683,50.92163c-.01062-.02148-.01935-.04358-.02985-.06512-.20459-.42054-.39484-.84668-.563-1.282-.02557-.06585-.0451-.13373-.06982-.19989-.14685-.39508-.2862-.79254-.40259-1.19787-.03882-.13428-.06519-.27185-.10065-.40711-.08954-.34436-.18042-.68817-.24768-1.03833-.04657-.24029-.07288-.485-.1087-.72772-.03723-.25433-.08478-.50635-.11017-.76294-.0506-.50635-.07916-1.01666-.08258-1.53015q0-.72592.07171-1.45636c.0268-.27716.07758-.55365.11927-.83057.03125-.20623.05084-.4129.09033-.61859.07361-.38525.17206-.76758.274-1.14935.025-.09332.04138-.18781.06811-.28089.12854-.45.28058-.89489.44769-1.33593.00837-.02185.01416-.04431.02259-.0661a16.98473,16.98473,0,0,1,3.1239-5.15033L44,32.82147V10a2.00226,2.00226,0,0,0-2-2H24a2.0023,2.0023,0,0,0-2,2V58a2.0023,2.0023,0,0,0,2,2H42a2.00226,2.00226,0,0,0,2-2V54.64313A16.86081,16.86081,0,0,1,41.49683,50.92163ZM24,19.5v-3a.5.5,0,0,1,.5-.5h17a.5.5,0,0,1,.5.5v3a.5.5,0,0,1-.5.5h-17A.5.5,0,0,1,24,19.5Z"/>
    <path id="_256" data-name=" 256" class="fill" d="M81.32656,30.11834a16.1335,16.1335,0,0,0-11.88107-5.11811,16.58388,16.58388,0,0,0-11.73618,4.90185c-.53126-.04806-1.06253-.09612-1.56965-.09612A13.9527,13.9527,0,0,0,42.18182,43.69453a14.30638,14.30638,0,0,0,3.91206,9.70758,13.78856,13.78856,0,0,0,10.04578,4.32516H69.44549A16.3519,16.3519,0,0,0,81.32656,30.11834ZM55.89817,55.39649a11.52177,11.52177,0,1,1,7.63093-20.136l.0483.04806,4.80555,4.90184a2.04528,2.04528,0,0,1-.04829,2.90747,2.06994,2.06994,0,0,1-2.922-.04806L60.65543,38.216a7.40562,7.40562,0,0,0-10.408.76891,7.25271,7.25271,0,0,0-1.787,4.78171,7.5949,7.5949,0,0,0,7.53434,7.44888h.94179v.024c1.35232,1.87424,5.14363,4.157,5.14363,4.157Zm23.68969-4.157A13.83137,13.83137,0,0,1,69.687,55.46858a14.43034,14.43034,0,0,1-9.94918-4.32516l-6.32691-6.31954a2.06679,2.06679,0,0,1,.02415-2.90747,2.07784,2.07784,0,0,1,2.922.04806L62.65976,48.236A10.17678,10.17678,0,0,0,69.687,51.35967a9.5439,9.5439,0,0,0,6.95478-3.00358,10.13467,10.13467,0,0,0,2.89782-7.08846,9.90543,9.90543,0,0,0-9.90089-9.85175A8.997,8.997,0,0,0,64.157,33.00177c-.02415-.024-.483-.31237-.99009-.62474-.31393-.19223-.652-.38446-.94179-.52863-.28979-.1682-1.15913-.57669-1.66625-.793-.12075-.048-.28978-.12014-.36223-.14417h.02415a13.46756,13.46756,0,0,1,9.41792-3.6043A14.00726,14.00726,0,0,1,83.669,41.26763,14.17457,14.17457,0,0,1,79.58786,51.23953Z"/>
    <path class="fill" d="M44.34863,55.0498c-.12311-.13085-.23016-.27258-.34863-.40667V58a2.00226,2.00226,0,0,1-2,2H24a2.0023,2.0023,0,0,1-2-2V10a2.0023,2.0023,0,0,1,2-2H42a2.00226,2.00226,0,0,1,2,2V32.82147a16.28443,16.28443,0,0,1,2-1.89862V10a4,4,0,0,0-4-4H24a4,4,0,0,0-4,4V58a4,4,0,0,0,4,4H42a4,4,0,0,0,4-4V56.5451A15.97669,15.97669,0,0,1,44.34863,55.0498Z"/>
  </g>
</svg>
