<svg id="S_Templates_Md_N_D_3to2x" data-name="S_Templates_Md_N_D@3to2x" xmlns="http://www.w3.org/2000/svg" width="27" height="27" viewBox="0 0 27 27">
  <defs>
    <style>
      .fill {
        fill: #fff;
        opacity: 0.65;
      }

      
    </style>
  </defs>
  <title>S_Templates_Md_N_D@3to2x</title>
  <path class="fill" d="M10,3H1.75A0.75,0.75,0,0,0,1,3.75v18.5a0.75,0.75,0,0,0,.75.75h13.5A0.75,0.75,0,0,0,16,22.25V9H10.75A0.75,0.75,0,0,1,10,8.25V3Zm3,15H11.5V16.5H13V18Zm-1.5-7.125v2.25a0.375,0.375,0,0,1-.375.375h-0.75A0.375,0.375,0,0,1,10,13.125V12H8.5v4.5H9.625a0.375,0.375,0,0,1,.375.375v0.75A0.375,0.375,0,0,1,9.625,18H5.875A0.375,0.375,0,0,1,5.5,17.625v-0.75A0.375,0.375,0,0,1,5.875,16.5H7V12H5.5v1.125a0.375,0.375,0,0,1-.375.375H4.375A0.375,0.375,0,0,1,4,13.125v-2.25A0.375,0.375,0,0,1,4.375,10.5h6.75A0.375,0.375,0,0,1,11.5,10.875Z"/>
  <path class="fill" d="M12.25,7.5H16L11.5,3V6.75A0.75,0.75,0,0,0,12.25,7.5Z"/>
  <polygon class="fill" points="23 5.5 23 8.5 26 8.5 23 5.5"/>
  <polygon class="fill" points="18 7.5 21 7.5 18 4.5 18 7.5"/>
  <path class="fill" d="M18,21h2.25A0.75,0.75,0,0,0,21,20.25V9H18V21Z"/>
  <path class="fill" d="M23,19h2.25A0.75,0.75,0,0,0,26,18.25V10H23v9Z"/>
  </svg>