<svg id="S_TextBoxVert_Lg_N_D_2x" data-name="S_TextBoxVert_Lg_N_D@2x" xmlns="http://www.w3.org/2000/svg" width="44" height="36" viewBox="0 0 44 36">
  <defs>
    <style>
      .fill {
        fill: #fff;
        opacity: 0.65;
      }

      
    </style>
  </defs>
  <title>S_TextBoxVert_Lg_N_D@2x</title>
  <path id="Fill" class="fill" d="M8,8.5v19a0.5,0.5,0,0,0,.5.5h1a0.5,0.5,0,0,0,.5-0.5V8.5A0.5,0.5,0,0,0,9.5,8h-1A0.5,0.5,0,0,0,8,8.5Zm12,12v7a0.5,0.5,0,0,0,.5.5h1a0.5,0.5,0,0,0,.5-0.5v-7a0.5,0.5,0,0,0-.5-0.5h-1A0.5,0.5,0,0,0,20,20.5Zm-8-12v19a0.5,0.5,0,0,0,.5.5h1a0.5,0.5,0,0,0,.5-0.5V8.5A0.5,0.5,0,0,0,13.5,8h-1A0.5,0.5,0,0,0,12,8.5Z"/>
  <path id="Fill5" class="fill" d="M22,8.5v3a0.5,0.5,0,0,0,.5.5h1a0.5,0.5,0,0,0,.5-0.5V10h2v6H24.5a0.5,0.5,0,0,0-.5.5v1a0.5,0.5,0,0,0,.5.5h5a0.5,0.5,0,0,0,.5-0.5v-1a0.5,0.5,0,0,0-.5-0.5H28V10h2v1.5a0.5,0.5,0,0,0,.5.5h1a0.5,0.5,0,0,0,.5-0.5v-3A0.5,0.5,0,0,0,31.5,8h-9A0.5,0.5,0,0,0,22,8.5Z"/>
  <path class="fill" d="M6,6H38V30H6V6ZM4,4.5v27a0.5,0.5,0,0,0,.5.5h35a0.5,0.5,0,0,0,.5-0.5V4.5A0.5,0.5,0,0,0,39.5,4H4.5A0.5,0.5,0,0,0,4,4.5Z"/>
  <rect class="fill" x="16" y="8" width="2" height="20" rx="0.5" ry="0.5"/>
  <rect class="fill" x="24" y="20" width="2" height="8" rx="0.5" ry="0.5"/>
  <rect class="fill" x="28" y="20" width="2" height="8" rx="0.5" ry="0.5"/>
  <rect class="fill" x="32" y="20" width="2" height="8" rx="0.5" ry="0.5"/>
  </svg>