<svg xmlns="http://www.w3.org/2000/svg" width="92" height="68" viewBox="0 0 92 68">
  <defs>
    <style>
       .fill {
        fill: #fff;
        fill-rule: evenodd;
        opacity: 0.65;
      }
    </style>
  </defs>
    <path class="fill" d="M78,8V48H14V8Zm2-4H12a2,2,0,0,0-2,2V50a2,2,0,0,0,2,2H80a2,2,0,0,0,2-2V6A2,2,0,0,0,80,4Z"/>
    <path class="fill" d="M66,61H56a3,3,0,0,1-3-3V54H37v4a3.00882,3.00882,0,0,1-3,3H24a1,1,0,0,0-1,1v3a1,1,0,0,0,1,1H66a1,1,0,0,0,1-1V62A1,1,0,0,0,66,61Z"/>
    <path id="_256" data-name=" 256" class="fill" d="M63.32656,16.39106A16.13353,16.13353,0,0,0,51.44549,11.273a16.58384,16.58384,0,0,0-11.73618,4.90185c-.53126-.04806-1.06253-.09612-1.56965-.09612A13.9527,13.9527,0,0,0,24.18182,29.96726a14.3064,14.3064,0,0,0,3.91206,9.70758A13.78856,13.78856,0,0,0,38.13966,44H51.44549A16.35191,16.35191,0,0,0,63.32656,16.39106ZM37.89817,41.66922a11.52177,11.52177,0,1,1,7.63093-20.136l.0483.048L50.383,26.4831a2.04528,2.04528,0,0,1-.04829,2.90747,2.07,2.07,0,0,1-2.922-.04806l-4.75726-4.85379a7.40563,7.40563,0,0,0-10.408.76892,7.2527,7.2527,0,0,0-1.787,4.7817,7.5949,7.5949,0,0,0,7.53434,7.44889h.94179v.024c1.35232,1.87424,5.14363,4.157,5.14363,4.157Zm23.68969-4.157a13.83136,13.83136,0,0,1-9.90089,4.229,14.43029,14.43029,0,0,1-9.94918-4.32516L35.41088,31.0966a2.06678,2.06678,0,0,1,.02415-2.90746,2.07785,2.07785,0,0,1,2.922.048l6.30276,6.27148A10.17679,10.17679,0,0,0,51.687,37.6324a9.5439,9.5439,0,0,0,6.95478-3.00358,10.13471,10.13471,0,0,0,2.89782-7.08846,9.90542,9.90542,0,0,0-9.90089-9.85175A8.997,8.997,0,0,0,46.157,19.2745c-.02415-.024-.483-.31237-.99009-.62474-.31393-.19223-.652-.38446-.94179-.52863-.28979-.1682-1.15913-.57669-1.66625-.793-.12075-.04806-.28978-.12014-.36223-.14417h.02415a13.46751,13.46751,0,0,1,9.41792-3.6043A14.00726,14.00726,0,0,1,65.669,27.54036,14.17459,14.17459,0,0,1,61.58786,37.51226Z"/>

</svg>
