<svg xmlns="http://www.w3.org/2000/svg" width="32" height="32" viewBox="0 0 32 32">
  <defs>
    <style>
      .fill {
        fill: #fff;
        fill-rule: evenodd;
        opacity: 0.65;
      }
    </style>
  </defs>
  <g id="spectrum_icons" data-name="spectrum icons">
    <path class="fill" d="M2,2.5v21a.5.5,0,0,0,.5.5h27a.5.5,0,0,0,.5-.5V2.5a.5.5,0,0,0-.5-.5H2.5A.5.5,0,0,0,2,2.5ZM28,22H4V4H28Z"/>
    <path class="fill" d="M25.5,28H21a1,1,0,0,1-1-1V25H12v2a1,1,0,0,1-1,1H6.5a.5.5,0,0,0-.5.5v1a.5.5,0,0,0,.5.5h19a.5.5,0,0,0,.5-.5v-1A.5.5,0,0,0,25.5,28Z"/>
    <path class="fill" d="M23.075,17.45a6.26963,6.26963,0,0,1-.98.82,5.10388,5.10388,0,0,1-1.14.58,5.96035,5.96035,0,0,1-1.78.44l-.56.02a6.26541,6.26541,0,0,1-4.46-1.86l-.26-.24-1.04-1.06-1.48-1.46a1.05,1.05,0,0,1,.74-1.8,1.10831,1.10831,0,0,1,.76.3l2.76,2.78.2.18a4.18956,4.18956,0,0,0,2.78,1.06,4.05322,4.05322,0,0,0,1.82-.42,4.31427,4.31427,0,0,0,.9-.58l.26-.24a3.99928,3.99928,0,0,0,.38-.44l.1-.14.02-.02.1-.14v-.02l.08-.14.02-.04.08-.14.02-.02.06-.16a4.04462,4.04462,0,0,0,.32-1.06l.02-.16v-.04l.02-.14v-.64l-.02-.12v-.06l-.02-.12-.02-.08-.02-.12v-.06l-.06-.22-.02-.08-.04-.08-.02-.1-.04-.1-.04-.1-.02-.08-.04-.1-.04-.08-.06-.1-.04-.08-.06-.08-.04-.08-.06-.1-.04-.08-.08-.08-.04-.08-.08-.1-.04-.06-.1-.1-.04-.06-.14-.14a4.21186,4.21186,0,0,0-2.98-1.24,4.47883,4.47883,0,0,0-1.14.16l-.02-.02a7.04125,7.04125,0,0,0-1.96-1.4,6.1915,6.1915,0,0,1,3.12-.84,6.3,6.3,0,0,1,4.46,10.76Zm-10.02,1.86h-.76a5.84518,5.84518,0,0,1-1.46-.2l-.14-.06h-.02l-.28-.1h-.02l-.14-.06-.04-.02-.22-.1-.08-.04-.1-.06-.16-.08-.08-.06-.12-.06-.06-.04-.16-.12-.06-.04-.14-.12-.04-.02-.16-.16-.04-.02-.18-.16a5.20879,5.20879,0,0,1,2.4-8.74,5.50964,5.50964,0,0,1,1.3-.16h.04a4.74392,4.74392,0,0,1,1.3.18,4.93984,4.93984,0,0,1,1.96,1l.38.34.38.38.74.74.66.66.16.16a1.0626,1.0626,0,0,1,0,1.48,1.00133,1.00133,0,0,1-.74.32,1.2015,1.2015,0,0,1-.54-.14.8597.8597,0,0,1-.2-.18l-1.64-1.62-.34-.34a3.03487,3.03487,0,0,0-.7-.52,2.71727,2.71727,0,0,0-.56-.22,2.73322,2.73322,0,0,0-.9-.14l-.4.02a3.10468,3.10468,0,0,0-1.8,5.28l.14.16.04.02.16.14.18.12.04.02.18.1.28.12,2.36,2.34Z"/>
  </g>
</svg>
