<?xml version="1.0" encoding="UTF-8"?>
<svg id="ICONS" xmlns="http://www.w3.org/2000/svg" width="36" height="36" viewBox="0 0 36 36">
  <defs>
    <style>
      .fill {
        fill: #fff;
        opacity: .65;
      }
    </style>
  </defs>
  <path class="fill" d="M2.5,4h5c.27614,0,.5.22386.5.5v3c0,.27614-.22386.5-.5.5H2.5c-.27614,0-.5-.22386-.5-.5v-3c0-.27614.22386-.5.5-.5ZM10,2.5v7c0,.27614.22386.5.5.5h1c.27614,0,.5-.22386.5-.5V2.5c0-.27614-.22386-.5-.5-.5h-1c-.27614,0-.5.22386-.5.5ZM14,4.5v3c0,.27614.22386.5.5.5h5c.27614,0,.5-.22386.5-.5v-3c0-.27614-.22386-.5-.5-.5h-5c-.27614,0-.5.22386-.5.5ZM26,4.5v3c0,.27614.22386.5.5.5h5c.27614,0,.5-.22386.5-.5v-3c0-.27614-.22386-.5-.5-.5h-5c-.27614,0-.5.22386-.5.5ZM22,2.5v7c0,.27614.22386.5.5.5h1c.27614,0,.5-.22386.5-.5V2.5c0-.27614-.22386-.5-.5-.5h-1c-.27614,0-.5.22386-.5.5ZM2,20.5v3c0,.27614.22386.5.5.5h5c.27614,0,.5-.22386.5-.5v-3c0-.27614-.22386-.5-.5-.5H2.5c-.27614,0-.5.22386-.5.5ZM10,18.5v7c0,.27614.22386.5.5.5h1c.27614,0,.5-.22386.5-.5v-7c0-.27614-.22386-.5-.5-.5h-1c-.27614,0-.5.22386-.5.5ZM14,20.5v3c0,.27614.22386.5.5.5h5c.27614,0,.5-.22386.5-.5v-3c0-.27614-.22386-.5-.5-.5h-5c-.27614,0-.5.22386-.5.5ZM26,20.5v3c0,.27614.22386.5.5.5h5c.27614,0,.5-.22386.5-.5v-3c0-.27614-.22386-.5-.5-.5h-5c-.27614,0-.5.22386-.5.5ZM22,18.5v7c0,.27614.22386.5.5.5h1c.27614,0,.5-.22386.5-.5v-7c0-.27614-.22386-.5-.5-.5h-1c-.27614,0-.5.22386-.5.5ZM4,10.5v7c0,.27614.22386.5.5.5h1c.27614,0,.5-.22386.5-.5v-7c0-.27614-.22386-.5-.5-.5h-1c-.27614,0-.5.22386-.5.5ZM8,12.5v3c0,.27614.22386.5.5.5h5c.27614,0,.5-.22386.5-.5v-3c0-.27614-.22386-.5-.5-.5h-5c-.27614,0-.5.22386-.5.5ZM20,12.5v3c0,.27614.22386.5.5.5h5c.27614,0,.5-.22386.5-.5v-3c0-.27614-.22386-.5-.5-.5h-5c-.27614,0-.5.22386-.5.5ZM16,10.5v7c0,.27614.22386.5.5.5h1c.27614,0,.5-.22386.5-.5v-7c0-.27614-.22386-.5-.5-.5h-1c-.27614,0-.5.22386-.5.5ZM28,10.5v7c0,.27614.22386.5.5.5h1c.27614,0,.5-.22386.5-.5v-7c0-.27614-.22386-.5-.5-.5h-1c-.27614,0-.5.22386-.5.5ZM4,26.5v7c0,.27614.22386.5.5.5h1c.27614,0,.5-.22386.5-.5v-7c0-.27614-.22386-.5-.5-.5h-1c-.27614,0-.5.22386-.5.5ZM8,28.5v3c0,.27614.22386.5.5.5h5c.27614,0,.5-.22386.5-.5v-3c0-.27614-.22386-.5-.5-.5h-5c-.27614,0-.5.22386-.5.5ZM20,28.5v3c0,.27614.22386.5.5.5h5c.27614,0,.5-.22386.5-.5v-3c0-.27614-.22386-.5-.5-.5h-5c-.27614,0-.5.22386-.5.5ZM16,26.5v7c0,.27614.22386.5.5.5h1c.27614,0,.5-.22386.5-.5v-7c0-.27614-.22386-.5-.5-.5h-1c-.27614,0-.5.22386-.5.5ZM28,26.5v7c0,.27614.22386.5.5.5h1c.27614,0,.5-.22386.5-.5v-7c0-.27614-.22386-.5-.5-.5h-1c-.27614,0-.5.22386-.5.5Z"/>
</svg>