<svg id="S_Templates_Md_N_D_2x" data-name="S_Templates_Md_N_D@2x" xmlns="http://www.w3.org/2000/svg" width="36" height="36" viewBox="0 0 36 36">
  <defs>
    <style>
      .fill {
        fill: #fff;
        fill-rule: evenodd;
        opacity: 0.65;
      }

      
    </style>
  </defs>
  <title>S_Templates_Md_N_D@2x</title>
  <path class="fill" d="M14,4H3A1,1,0,0,0,2,5V29a1,1,0,0,0,1,1H21a1,1,0,0,0,1-1V12H15a1,1,0,0,1-1-1V4Zm4,20H16V22h2v2Zm-2-9.5v3a0.5,0.5,0,0,1-.5.5h-1a0.5,0.5,0,0,1-.5-0.5V16H12v6h1.5a0.5,0.5,0,0,1,.5.5v1a0.5,0.5,0,0,1-.5.5h-5A0.5,0.5,0,0,1,8,23.5v-1A0.5,0.5,0,0,1,8.5,22H10V16H8v1.5a0.5,0.5,0,0,1-.5.5h-1A0.5,0.5,0,0,1,6,17.5v-3A0.5,0.5,0,0,1,6.5,14h9A0.5,0.5,0,0,1,16,14.5Z"/>
  <path class="fill" d="M17,10h5L16,4V9A1,1,0,0,0,17,10Z"/>
  <polygon class="fill" points="30 8 30 12 34 12 30 8"/>
  <polygon class="fill" points="24 10 28 10 24 6 24 10"/>
  <path class="fill" d="M24,28h3a1,1,0,0,0,1-1V12H24V28Z"/>
  <path class="fill" d="M30,26h3a1,1,0,0,0,1-1V14H30V26Z"/>
  </svg>