<svg id="S_TextBox_Lg_N_D_2x" data-name="S_TextBox_Lg_N_D@2x" xmlns="http://www.w3.org/2000/svg" width="44" height="36" viewBox="0 0 44 36">
  <defs>
    <style>
      .fill {
        fill: #fff;
        fill-rule: evenodd;
        opacity: 0.65;
      }

      
    </style>
  </defs>
  <title>S_TextBox_Lg_N_D@2x</title>
  <path class="fill" d="M6,6H38V30H6V6ZM4,4.5v27a0.5,0.5,0,0,0,.5.5h35a0.5,0.5,0,0,0,.5-0.5V4.5A0.5,0.5,0,0,0,39.5,4H4.5A0.5,0.5,0,0,0,4,4.5Z"/>
  <path id="PrefillD1" class="fill" d="M22,18.5v1a0.5,0.5,0,0,0,.5.5h13a0.5,0.5,0,0,0,.5-0.5v-1a0.5,0.5,0,0,0-.5-0.5h-13A0.5,0.5,0,0,0,22,18.5Zm0-4v1a0.5,0.5,0,0,0,.5.5h13a0.5,0.5,0,0,0,.5-0.5v-1a0.5,0.5,0,0,0-.5-0.5h-13A0.5,0.5,0,0,0,22,14.5Zm0-4v1a0.5,0.5,0,0,0,.5.5h13a0.5,0.5,0,0,0,.5-0.5v-1a0.5,0.5,0,0,0-.5-0.5h-13A0.5,0.5,0,0,0,22,10.5ZM8,22.5v1a0.5,0.5,0,0,0,.5.5h27a0.5,0.5,0,0,0,.5-0.5v-1a0.5,0.5,0,0,0-.5-0.5H8.5A0.5,0.5,0,0,0,8,22.5Zm0,4v1a0.5,0.5,0,0,0,.5.5h27a0.5,0.5,0,0,0,.5-0.5v-1a0.5,0.5,0,0,0-.5-0.5H8.5A0.5,0.5,0,0,0,8,26.5Z"/>
  <path id="Fill" class="fill" d="M8,10.5v3a0.5,0.5,0,0,0,.5.5h1a0.5,0.5,0,0,0,.5-0.5V12h2v6H10.5a0.5,0.5,0,0,0-.5.5v1a0.5,0.5,0,0,0,.5.5h5a0.5,0.5,0,0,0,.5-0.5v-1a0.5,0.5,0,0,0-.5-0.5H14V12h2v1.5a0.5,0.5,0,0,0,.5.5h1a0.5,0.5,0,0,0,.5-0.5v-3a0.5,0.5,0,0,0-.5-0.5h-9A0.5,0.5,0,0,0,8,10.5Z"/>
  </svg>