<svg id="S_TextKerning_Md_N_D2x" data-name="S_TextKerning_Md_N_D@2x" xmlns="http://www.w3.org/2000/svg" width="36" height="36" viewBox="0 0 36 36">
  <defs>
    <style>
      .fill {
        fill: #fff;
        fill-rule: evenodd;
        opacity: 0.65;
      }

      
    </style>
  </defs>
  <title>S_TextKerning_Md_N_D@2x</title>
  <path class="fill" d="M33.5,30H24V26.5a0.5,0.5,0,0,0-.854-0.354L18,30.985l5.146,4.805A0.5,0.5,0,0,0,24,35.436V31.985h9.5a0.5,0.5,0,0,0,.5-0.5V30.5A0.5,0.5,0,0,0,33.5,30Z"/>
  <path class="fill" d="M28.88,16L25.53,8.81,22.36,16h6.52Zm-7.1,1.69s-0.89,3.08-1.12,3.79A3.3,3.3,0,0,0,21,23.97L17.26,24S24.13,6,24.17,6H27.8l6.45,18-4.26-.06a2.7,2.7,0,0,0,.39-2.8c-0.44-1.17-1.14-3.45-1.14-3.45H21.78ZM7.76,20.02s3.99-9.83,4.39-10.68-0.1-3.29-.1-3.29l3.44,0.03S10.98,16.93,9.86,19.43C8.14,23.26,8.39,24,8.39,24l-1.81-.03L0.25,6,4.38,6.02a3.417,3.417,0,0,0-.76,1.89C3.67,8.81,7.76,20.02,7.76,20.02Z"/>
  <polygon class="fill" points="20.75 2 9.75 28 11.75 28 22.75 2 20.75 2"/>
  </svg>