<svg xmlns="http://www.w3.org/2000/svg" width="36" height="36" viewBox="0 0 36 36">
  <defs>
    <style>
      .fill {
        fill-rule: evenodd;
        fill: #fff;
        opacity: 0.65;
      }
    </style>
  </defs>
  <g id="ImportedIcons-4" data-name="ImportedIcons">
    <path class="fill" d="M4.5,16h27a.5.5,0,0,1,.5.5v1a.5.5,0,0,1-.5.5H4.5a.5.5,0,0,1-.5-.5v-1A.5.5,0,0,1,4.5,16ZM4,10.5v1a.5.5,0,0,0,.5.5h27a.5.5,0,0,0,.5-.5v-1a.5.5,0,0,0-.5-.5H4.5A.5.5,0,0,0,4,10.5Zm0-6v1a.5.5,0,0,0,.5.5h27a.5.5,0,0,0,.5-.5v-1a.5.5,0,0,0-.5-.5H4.5A.5.5,0,0,0,4,4.5Z"/>
  </g>
</svg>
