<svg xmlns="http://www.w3.org/2000/svg" width="36" height="36" viewBox="0 0 36 36">
  <defs>
    <style>
      .fill {
        fill-rule: evenodd;
        fill: #fff;
        opacity: 0.65;
      }
    </style>
  </defs>
  <g id="ImportedIcons-4" data-name="ImportedIcons">
    <path class="fill" d="M31.5,20H4.5a.5.5,0,0,1-.5-.5v-1a.5.5,0,0,1,.5-.5h27a.5.5,0,0,1,.5.5v1A.5.5,0,0,1,31.5,20Zm.5,5.5v-1a.5.5,0,0,0-.5-.5H4.5a.5.5,0,0,0-.5.5v1a.5.5,0,0,0,.5.5h27A.5.5,0,0,0,32,25.5Zm0,6v-1a.5.5,0,0,0-.5-.5H4.5a.5.5,0,0,0-.5.5v1a.5.5,0,0,0,.5.5h27A.5.5,0,0,0,32,31.5Z"/>
  </g>
</svg>
