<svg id="S_TextFauxBold_Md_N_D_2x" data-name="S_TextFauxBold_Md_N_D@2x" xmlns="http://www.w3.org/2000/svg" width="36" height="36" viewBox="0 0 36 36">
  <defs>
    <style>
      .fill {
        fill: #fff;
        fill-rule: evenodd;
        opacity: 0.65;
      }

      
    </style>
  </defs>
  <title>S_TextFauxBold_Md_N_D@2x</title>
  <path class="fill" d="M6,9v3.5a0.5,0.5,0,0,0,.5.5h1A0.5,0.5,0,0,0,8,12.5V10h6V26H12.5a0.5,0.5,0,0,0-.5.5v1a0.5,0.5,0,0,0,.5.5h11a0.5,0.5,0,0,0,.5-0.5v-1a0.5,0.5,0,0,0-.5-0.5H22V10h6v2.5a0.5,0.5,0,0,0,.5.5h1a0.5,0.5,0,0,0,.5-0.5V9a1,1,0,0,0-1-1H7A1,1,0,0,0,6,9Z"/>
  </svg>