<?xml version="1.0" encoding="UTF-8"?>
<svg id="S_AssetCardsVideofile_48_N_D_2x" xmlns="http://www.w3.org/2000/svg" version="1.1" viewBox="0 0 96 96">
  <!-- Generator: Adobe Illustrator 29.2.1, SVG Export Plug-In . SVG Version: 2.1.0 Build 116)  -->
  <defs>
    <style>
      .st0 {
        fill: #6a6a6a;
      }
    </style>
  </defs>
  <path class="st0" d="M48,39.9c-7.7,0-14,6.3-14,14,0,7.7,6.3,14,14,14s14-6.3,14-14c0,0,0,0,0,0,0-7.7-6.3-14-14-13.9,0,0,0,0,0,0ZM54.6,54.2c0,0-.1.2-.2.3l-8.5,4.9c-.1,0-.2,0-.4,0h-.7c-.4,0-.9-.4-.9-.8v-9.7c0-.4.6-.7.9-.7h.7c.1,0,.2,0,.4.1l8.5,4.8c.3.2.4.6.2,1,0,0,0,0,0,0ZM75.8,23.7l-10.6-10.5c-1.4-1.4-3.3-2.2-5.3-2.2H25.5c-4.1,0-7.5,3.3-7.5,7.4v59.2c0,4.1,3.4,7.4,7.5,7.4h0s45,0,45,0c4,0,7.4-3.1,7.5-7.2,0,0,0,0,0-.1V29c0-2-.8-3.9-2.2-5.3ZM63.4,15l10.6,10.5c.9.9,1.5,2.2,1.4,3.5v.8h-13.5c-1.5,0-2.7-1.2-2.8-2.8v-13.5h.7c1.3,0,2.6.5,3.5,1.5ZM70.5,82.5H25.5c-2.7,0-5-2.1-5-4.9V18.4c0-2.7,2.3-4.9,5-4.9h31.2v13.5c0,2.9,2.4,5.2,5.2,5.2h13.5v45.5c0,2.7-2.2,4.8-4.9,4.8,0,0,0,0-.1,0Z"/>
</svg>