<?xml version="1.0" encoding="UTF-8"?>
<svg id="ICONS" xmlns="http://www.w3.org/2000/svg" width="28" height="28" viewBox="0 0 28 28">
  <defs>
    <style>
      .fill {
        fill: #fff;
        opacity: .65;
      }
    </style>
  </defs>
  <path class="fill" d="M14,3.6333c5.71619,0,10.3667,4.65051,10.3667,10.3667s-4.65051,10.3667-10.3667,10.3667S3.6333,19.71619,3.6333,14,8.28381,3.6333,14,3.6333h0ZM14,1.6333C7.17004,1.6333,1.6333,7.17004,1.6333,14s5.53674,12.3667,12.3667,12.3667,12.3667-5.53687,12.3667-12.3667S20.82983,1.6333,14,1.6333h0Z"/>
  <path class="fill" d="M14,8.29993c3.14307,0,5.70007,2.55701,5.70007,5.70007s-2.55701,5.70007-5.70007,5.70007-5.70007-2.55701-5.70007-5.70007,2.55701-5.70007,5.70007-5.70007h0ZM14,6.29993c-4.25256,0-7.70007,3.44751-7.70007,7.70007s3.44751,7.70007,7.70007,7.70007,7.70007-3.44751,7.70007-7.70007-3.44751-7.70007-7.70007-7.70007h0Z"/>
  <circle class="fill" cx="14" cy="14" r="2.25556"/>
</svg>