<svg xmlns="http://www.w3.org/2000/svg" data-name="S_Title_24_N_D@2x" height="48" id="S_Title_24_N_D_2x" viewBox="0 0 48 48" width="48">
  <defs>
    <style>
      .fill {
        fill: #fff;
      }

      
    </style>
  </defs>
  <title>S_Title_24_N_D@2x</title>
  <path fill="#fff" d="M42,4H6A2,2,0,0,0,4,6V42a2,2,0,0,0,2,2H42a2,2,0,0,0,2-2V6A2,2,0,0,0,42,4ZM10,41a1,1,0,0,1-1,1H7a1,1,0,0,1-1-1V37a1,1,0,0,1,1-1H9a1,1,0,0,1,1,1Zm0-10a1,1,0,0,1-1,1H7a1,1,0,0,1-1-1V27a1,1,0,0,1,1-1H9a1,1,0,0,1,1,1Zm0-10a1,1,0,0,1-1,1H7a1,1,0,0,1-1-1V17a1,1,0,0,1,1-1H9a1,1,0,0,1,1,1Zm0-10a1,1,0,0,1-1,1H7a1,1,0,0,1-1-1V7A1,1,0,0,1,7,6H9a1,1,0,0,1,1,1Zm26,8a1,1,0,0,1-1,1H33a1,1,0,0,1-1-1V16H26V34h3a1,1,0,0,1,1,1v2a1,1,0,0,1-1,1H19a1,1,0,0,1-1-1V35a1,1,0,0,1,1-1h3V16H16v3a1,1,0,0,1-1,1H13a1,1,0,0,1-1-1V13a1,1,0,0,1,1-1H35a1,1,0,0,1,1,1Zm6,22a1,1,0,0,1-1,1H39a1,1,0,0,1-1-1V37a1,1,0,0,1,1-1h2a1,1,0,0,1,1,1Zm0-10a1,1,0,0,1-1,1H39a1,1,0,0,1-1-1V27a1,1,0,0,1,1-1h2a1,1,0,0,1,1,1Zm0-10a1,1,0,0,1-1,1H39a1,1,0,0,1-1-1V17a1,1,0,0,1,1-1h2a1,1,0,0,1,1,1Zm0-10a1,1,0,0,1-1,1H39a1,1,0,0,1-1-1V7a1,1,0,0,1,1-1h2a1,1,0,0,1,1,1Z" />
  </svg>