<svg id="S_TLTrackKey_Xs_N_D_2x" data-name="S_TLTrackKey_Xs_N_D@2x" xmlns="http://www.w3.org/2000/svg" width="26" height="26" viewBox="0 0 26 26">
  <defs>
    <style>
      .fill {
        fill: #fff;
        fill-rule: evenodd;
        opacity: 0.65;
      }

      
    </style>
  </defs>
  <title>S_TLTrackKey_Xs_N_D@2x</title>
  <path class="fill" d="M19.854,9.646l-6.5-6.5a0.5,0.5,0,0,0-.707,0l-6.5,6.5A0.5,0.5,0,0,0,6,10v6a0.5,0.5,0,0,0,.146.354l6.5,6.5a0.5,0.5,0,0,0,.707,0l6.5-6.5A0.5,0.5,0,0,0,20,16V10A0.5,0.5,0,0,0,19.854,9.646ZM18,13.5a0.5,0.5,0,0,1-.5.5H14v3.5a0.5,0.5,0,0,1-.5.5h-1a0.5,0.5,0,0,1-.5-0.5V14H8.5A0.5,0.5,0,0,1,8,13.5v-1A0.5,0.5,0,0,1,8.5,12H12V8.5A0.5,0.5,0,0,1,12.5,8h1a0.5,0.5,0,0,1,.5.5V12h3.5a0.5,0.5,0,0,1,.5.5v1Z"/>
  </svg>