<svg id="S_TouchCheckmark_72x72_N_D_2x" data-name="S_TouchCheckmark_72x72_N_D@2x" xmlns="http://www.w3.org/2000/svg" width="90" height="90" viewBox="0 0 90 90">
  <defs>
    <style>
      .cls-1 {
        opacity: 0.3;
      }

      .background, .fill {
        opacity: 0.65;
      }

      .fill {
        fill: #fff;
        fill-rule: evenodd;
      }

      
    </style>
  </defs>
  <title>S_TouchCheckmark_72x72_N_D@2x</title>
  <path class="cls-1" d="M84.194,0A5.813,5.813,0,0,1,90,5.806V84.194A5.813,5.813,0,0,1,84.194,90H5.806A5.813,5.813,0,0,1,0,84.194V5.806A5.813,5.813,0,0,1,5.806,0H84.194Z"/>
  <path class="background" d="M55.584,31.691a1.259,1.259,0,0,1,.8.283l1.767,1.436a1.265,1.265,0,0,1,.184,1.779L41.8,55.533a1.265,1.265,0,0,1-1.963,0L31.262,45a1.265,1.265,0,0,1,.182-1.779l1.765-1.438a1.265,1.265,0,0,1,1.78.182l5.83,7.157L54.6,32.158A1.263,1.263,0,0,1,55.584,31.691Zm0-2A3.253,3.253,0,0,0,53.049,30.9L40.816,45.953,36.539,40.7a3.265,3.265,0,0,0-4.594-.469L30.18,41.672a3.269,3.269,0,0,0-.469,4.593L38.29,56.8a3.265,3.265,0,0,0,5.066,0L59.885,36.45a3.265,3.265,0,0,0-.475-4.593l-1.767-1.436A3.273,3.273,0,0,0,55.584,29.691Z"/>
  <path class="fill" d="M39.841,55.534L31.262,45a1.265,1.265,0,0,1,.182-1.779l1.765-1.438a1.265,1.265,0,0,1,1.78.182l5.83,7.157L54.6,32.158a1.265,1.265,0,0,1,1.779-.184l1.767,1.436a1.265,1.265,0,0,1,.184,1.779L41.8,55.533A1.265,1.265,0,0,1,39.841,55.534Z"/>
  <path class="fill" d="M72,14a4,4,0,0,1,4,4V72a4,4,0,0,1-4,4H18a4,4,0,0,1-4-4V18a4,4,0,0,1,4-4H72Zm0-4H18a8,8,0,0,0-8,8V72a8,8,0,0,0,8,8H72a8,8,0,0,0,8-8V18A8,8,0,0,0,72,10Z"/>
  <path class="background" d="M72,10a8,8,0,0,1,8,8V72a8,8,0,0,1-8,8H18a8,8,0,0,1-8-8V18a8,8,0,0,1,8-8H72ZM18,76H72a4,4,0,0,0,4-4V18a4,4,0,0,0-4-4H18a4,4,0,0,0-4,4V72A4,4,0,0,0,18,76ZM72,8H18A10.011,10.011,0,0,0,8,18V72A10.011,10.011,0,0,0,18,82H72A10.011,10.011,0,0,0,82,72V18A10.011,10.011,0,0,0,72,8ZM18,74a2,2,0,0,1-2-2V18a2,2,0,0,1,2-2H72a2,2,0,0,1,2,2V72a2,2,0,0,1-2,2H18Z"/>
  </svg>