<svg id="S_TouchOverlayFastForward_54x54_N_D_2x" data-name="S_TouchOverlayFastForward_54x54_N_D@2x" xmlns="http://www.w3.org/2000/svg" width="108" height="108" viewBox="0 0 108 108">
  <defs>
    <style>
      .cls-1 {
        opacity: 0.3;
      }

      .background, .fill {
        opacity: 0.65;
      }

      .fill {
        fill: #fff;
        fill-rule: evenodd;
      }

      
    </style>
  </defs>
  <title>S_TouchOverlayFastForward_54x54_N_D@2x</title>
  <circle class="cls-1" cx="54" cy="54" r="45"/>
  <path id="Fill2" class="background" d="M57,40.617a1,1,0,0,1,.447.107L82,53,57.447,65.276A1,1,0,0,1,56,64.382V41.618A1,1,0,0,1,57,40.617Zm0-2a3,3,0,0,0-3,3V64.382a3,3,0,0,0,4.342,2.683L82.894,54.789,86.472,53l-3.578-1.789L58.342,38.935A3.015,3.015,0,0,0,57,38.617Z"/>
  <path id="Fill2-2" data-name="Fill2" class="fill" d="M57.447,40.724L82,53,57.447,65.276A1,1,0,0,1,56,64.382V41.618A1,1,0,0,1,57.447,40.724Z"/>
  <path id="Fill" class="fill" d="M29.447,40.724L54,53,29.447,65.276A1,1,0,0,1,28,64.382V41.618A1,1,0,0,1,29.447,40.724Z"/>
  <path class="background" d="M56,51.764l-1.106-.553L30.342,38.935A3,3,0,0,0,26,41.618V64.382a3,3,0,0,0,4.342,2.683L54.894,54.789,56,54.236V51.764ZM29.447,65.276A1,1,0,0,1,28,64.382V41.618a1,1,0,0,1,1.447-.894L54,53Z"/>
  </svg>