<svg id="S_TouchOverlayFastBackward_32x32_N_D_2x" data-name="S_TouchOverlayFastBackward_32x32_N_D@2x" xmlns="http://www.w3.org/2000/svg" width="64" height="64" viewBox="0 0 64 64">
  <defs>
    <style>
      .cls-1 {
        opacity: 0.3;
      }

      .background, .fill {
        opacity: 0.65;
      }

      .fill {
        fill: #fff;
        fill-rule: evenodd;
      }

      
    </style>
  </defs>
  <title>S_TouchOverlayFastBackward_32x32_N_D@2x</title>
  <circle class="cls-1" cx="32" cy="32" r="28"/>
  <path id="Fill" class="background" d="M45,24.554a1,1,0,0,1,1,1V36.426a1,1,0,0,1-1.425.905L30.871,30.9l13.714-6.254A1,1,0,0,1,45,24.554Zm0-2a2.982,2.982,0,0,0-1.245.272L30.041,29.08l-0.02,3.63,13.7,6.432A3,3,0,0,0,48,36.426V25.555A3,3,0,0,0,45,22.554Z"/>
  <path class="background" d="M29,22.554a2.982,2.982,0,0,0-1.245.272L10.108,30.873l17.618,8.269A3,3,0,0,0,32,36.426V25.555A3,3,0,0,0,29,22.554Zm1,13.872a0.983,0.983,0,0,1-.074.359c-0.009.024-.018,0.048-0.029,0.071a0.985,0.985,0,0,1-.192.276c-0.012.012-.026,0.021-0.039,0.032a1,1,0,0,1-.252.165c-0.02.009-.038,0.02-0.059,0.028a0.982,0.982,0,0,1-.327.065c-0.01,0-.018.006-0.028,0.006s-0.026-.008-0.039-0.009a0.982,0.982,0,0,1-.385-0.087L14.871,30.9l13.714-6.254a0.98,0.98,0,0,1,.375-0.083c0.013,0,.027-0.009.04-0.009s0.019,0.006.03,0.006a0.988,0.988,0,0,1,.328.065c0.019,0.008.036,0.018,0.055,0.027a1.008,1.008,0,0,1,.253.166c0.013,0.012.027,0.02,0.04,0.033a0.986,0.986,0,0,1,.192.276c0.011,0.023.019,0.046,0.029,0.07a0.983,0.983,0,0,1,.074.359V36.426Z"/>
  <path id="Fill-2" data-name="Fill" class="fill" d="M44.585,24.645L30.871,30.9l13.7,6.432A1,1,0,0,0,46,36.426V25.555A1,1,0,0,0,44.585,24.645Z"/>
  <path id="Fill2" class="fill" d="M28.585,24.645L14.871,30.9l13.7,6.432A1,1,0,0,0,30,36.426V25.555A1,1,0,0,0,28.585,24.645Z"/>
  </svg>