<svg id="S_TouchOverwrite_48x48_N_D_2x" data-name="S_TouchOverwrite_48x48_N_D@2x" xmlns="http://www.w3.org/2000/svg" width="96" height="96" viewBox="0 0 96 96">
  <defs>
    <style>
      .fill, .fillMedium {
        fill: #fff;
      }

      .fill {
        fill-rule: evenodd;
      }

      .background, .fill {
        opacity: 0.65;
      }

      .fillMedium {
        opacity: 0.3;
      }

      
    </style>
  </defs>
  <title>S_TouchOverwrite_48x48_N_D@2x</title>
  <path class="fill" d="M18,28h4V38H18V28Zm-8-7V31.082a1,1,0,0,0,.379.784L18,37.9V75a1,1,0,0,0,1,1h2a1,1,0,0,0,1-1V37.9l7.621-6.03A1,1,0,0,0,30,31.082V21a1,1,0,0,0-1-1H11A1,1,0,0,0,10,21Z"/>
  <path class="background" d="M29,20a1,1,0,0,1,1,1V31.083a1,1,0,0,1-.379.784L22,37.9V28H18V38h4V75a1,1,0,0,1-1,1H19a1,1,0,0,1-1-1V37.9l-7.621-6.03A1,1,0,0,1,10,31.083V21a1,1,0,0,1,1-1H29ZM22,37.9v0ZM29,18H11a3,3,0,0,0-3,3V31.083a2.984,2.984,0,0,0,1.138,2.353L16,38.864V75a3,3,0,0,0,3,3h2a3,3,0,0,0,3-3V38.864l6.862-5.429A2.984,2.984,0,0,0,32,31.083V21A3,3,0,0,0,29,18Z"/>
  <path class="background" d="M81,54H76V43a3,3,0,0,0-3-3H27a3,3,0,0,0-3,3V59a3,3,0,0,0,3,3h5V75a3,3,0,0,0,3,3H81a3,3,0,0,0,3-3V57A3,3,0,0,0,81,54ZM27,60a1,1,0,0,1-1-1V43a1,1,0,0,1,1-1H73a1,1,0,0,1,1,1V59a1,1,0,0,1-1,1H58v4h3.5a0.493,0.493,0,0,1,.3.095,0.5,0.5,0,0,1,.173.232,0.492,0.492,0,0,1-.144.553l-0.011.011-0.015.015L55,72l-6.778-7.074-0.033-.034-0.016-.015a0.464,0.464,0,0,1-.155-0.352,0.491,0.491,0,0,1,.016-0.2,0.466,0.466,0,0,1,.438-0.317c0.012,0,.019-0.009.031-0.009H52V60H27ZM82,75a1,1,0,0,1-1,1H35a1,1,0,0,1-1-1V62H48.5a2.5,2.5,0,0,0-1.725,4.31L55,74.89l8.224-8.581a2.5,2.5,0,0,0-.964-4.194A2.534,2.534,0,0,0,61.5,62H76V56h5a1,1,0,0,1,1,1V75Z"/>
  <path class="fill" d="M76,56v6H61.5a2.5,2.5,0,0,1,1.725,4.31l-6.78,7.074L55,74.89l-1.444-1.507L46.778,66.31A2.5,2.5,0,0,1,48.5,62H34V75a1,1,0,0,0,1,1H81a1,1,0,0,0,1-1V57a1,1,0,0,0-1-1H76Z"/>
  <path class="fill" d="M73,42H27a1,1,0,0,0-1,1V59a1,1,0,0,0,1,1H52v4H48.5a0.5,0.5,0,0,0-.325.88L55,72l6.824-7.12A0.5,0.5,0,0,0,61.5,64H58V60H73a1,1,0,0,0,1-1V43A1,1,0,0,0,73,42ZM72,58H28V44H72V58Z"/>
  <rect class="fillMedium" x="28" y="44" width="44" height="14"/>
  </svg>