<svg id="S_TouchOverlayFastForward_32x32_N_D_2x" data-name="S_TouchOverlayFastForward_32x32_N_D@2x" xmlns="http://www.w3.org/2000/svg" width="64" height="64" viewBox="0 0 64 64">
  <defs>
    <style>
      .cls-1 {
        opacity: 0.3;
      }

      .background, .fill {
        opacity: 0.65;
      }

      .fill {
        fill: #fff;
        fill-rule: evenodd;
      }

      
    </style>
  </defs>
  <title>S_TouchOverlayFastForward_32x32_N_D@2x</title>
  <circle class="cls-1" cx="32" cy="32" r="28"/>
  <path class="background" d="M19,24.553a1,1,0,0,1,.415.091L32,30.38,33.129,30.9,32,31.43l-12.575,5.9A1,1,0,0,1,18,36.426V25.555A1,1,0,0,1,19,24.553Zm16,0a1,1,0,0,1,.415.091L49.129,30.9l-13.7,6.432A1,1,0,0,1,34,36.426V25.555A1,1,0,0,1,35,24.554Zm-16-2a3,3,0,0,0-3,3V36.426a3,3,0,0,0,4.275,2.716L32,33.639v2.787a3,3,0,0,0,4.274,2.716l17.618-8.269L36.245,22.826A3,3,0,0,0,32,25.555v2.627L20.244,22.825A2.982,2.982,0,0,0,19,22.553Z"/>
  <path id="Fill" class="fill" d="M19.415,24.645L33.129,30.9l-13.7,6.432A1,1,0,0,1,18,36.426V25.555A1,1,0,0,1,19.415,24.645Z"/>
  <path id="Fill2" class="fill" d="M35.415,24.645L49.129,30.9l-13.7,6.432A1,1,0,0,1,34,36.426V25.555A1,1,0,0,1,35.415,24.645Z"/>
  </svg>