<svg id="S_TouchNextClip_32x32_N_D_2x" data-name="S_TouchNextClip_32x32_N_D@2x" xmlns="http://www.w3.org/2000/svg" width="64" height="64" viewBox="0 0 64 64">
  <defs>
    <style>
      .cls-1 {
        opacity: 0.3;
      }

      .background, .fill {
        opacity: 0.65;
      }

      .fill {
        fill: #fff;
        fill-rule: evenodd;
      }

      
    </style>
  </defs>
  <title>S_TouchNextClip_32x32_N_D@2x</title>
  <circle class="cls-1" cx="32" cy="32" r="28"/>
  <path class="background" d="M27.007,15.412a0.98,0.98,0,0,1,.7.295L44,32,27.707,48.293a0.98,0.98,0,0,1-.7.295,1,1,0,0,1-1.007-1V16.414A1,1,0,0,1,27.007,15.412Zm0-2a3.009,3.009,0,0,0-3.007,3V47.586a3.008,3.008,0,0,0,3.007,3,2.973,2.973,0,0,0,2.114-.881L45.414,33.414,46.828,32l-1.414-1.414L29.121,14.293A2.973,2.973,0,0,0,27.007,13.412Z"/>
  <path class="fill" d="M27.707,15.707L44,32,27.707,48.293A1,1,0,0,1,26,47.586V16.414A1,1,0,0,1,27.707,15.707Z"/>
  </svg>