<svg id="S_TouchOverlayPlayScrub_45x45_N_D_2x" data-name="S_TouchOverlayPlayScrub_45x45_N_D@2x" xmlns="http://www.w3.org/2000/svg" width="90" height="90" viewBox="0 0 90 90">
  <defs>
    <style>
      .cls-1 {
        opacity: 0.3;
      }

      .background, .fill {
        opacity: 0.65;
      }

      .fill {
        fill: #fff;
        fill-rule: evenodd;
      }

      
    </style>
  </defs>
  <title>S_TouchOverlayPlayScrub_45x45_N_D@2x</title>
  <circle class="cls-1" cx="45" cy="45" r="43"/>
  <path class="background" d="M18,45A27,27,0,1,1,45,72,27,27,0,0,1,18,45Zm55.31-9.486L83,45.2,73.31,54.89A30.585,30.585,0,0,0,73.31,35.514Zm-57,0a30.585,30.585,0,0,0,0,19.376L6.624,45.2ZM3.8,45.2L20.917,62.32,20.31,60.5C24.831,68.131,33.059,73.662,45,73.662c11.265,0,19.237-4.932,23.9-11.9l-0.193.56L85.829,45.2,69.02,28.39C64.376,21.339,56.368,16.338,45,16.338c-11.684,0-19.811,5.3-24.39,12.672l0.306-.926ZM20.083,45A24.917,24.917,0,1,0,45,20.083,24.917,24.917,0,0,0,20.083,45ZM45,22.395c30.455,0,30.4,45.211,0,45.211S14.568,22.395,45,22.395Z"/>
  <path id="Fill" class="background" d="M40.907,36c0.164,0,.326.041,0.138,0.229l16.621,8.882L41.379,53.882a1,1,0,0,1-.471.118H39a1,1,0,0,1-1-1V37a1,1,0,0,1,1-1h1.907Zm0-2H39a3,3,0,0,0-3,3V53a3,3,0,0,0,3,3h1.907a3.012,3.012,0,0,0,1.413-.354l16.622-8.883L62.243,45l-3.3-1.764L42.321,34.354A3.014,3.014,0,0,0,40.907,34Z"/>
  <path class="fill" d="M16.314,35.514L6.624,45.2l9.69,9.688A30.585,30.585,0,0,1,16.314,35.514Z"/>
  <path class="fill" d="M73.31,35.514L83,45.2,73.31,54.89A30.585,30.585,0,0,0,73.31,35.514Z"/>
  <path class="fill" d="M20.083,45A24.917,24.917,0,1,1,45,69.917,24.917,24.917,0,0,1,20.083,45ZM18,45A27,27,0,1,0,45,18,27,27,0,0,0,18,45Z"/>
  <path id="Fill-2" data-name="Fill" class="fill" d="M39,36h1.907a1,1,0,0,1,.471.118L58,45,41.379,53.882a1,1,0,0,1-.471.118H39a1,1,0,0,1-1-1V37A1,1,0,0,1,39,36Z"/>
  </svg>