<svg id="S_TouchInsertBefore_48x48_N_D_2x" data-name="S_TouchInsertBefore_48x48_N_D@2x" xmlns="http://www.w3.org/2000/svg" width="96" height="96" viewBox="0 0 96 96">
  <defs>
    <style>
      .cls-1 {
        fill: none;
      }

      .background, .fill {
        opacity: 0.65;
      }

      .fill, .fillMedium {
        fill: #fff;
      }

      .fill {
        fill-rule: evenodd;
      }

      .fillMedium {
        opacity: 0.3;
      }

      
    </style>
  </defs>
  <title>S_TouchInsertBefore_48x48_N_D@2x</title>
  <path id="Fill3" class="cls-1" d="M16,21V32H12a1,1,0,0,0-.736,1.677L21,44l9.738-10.325A1,1,0,0,0,30,32H26V21a1,1,0,0,0-1-1H17A1,1,0,0,0,16,21Z"/>
  <path id="Fill" class="background" d="M17,20h8a1,1,0,0,1,1,1V32h4a1,1,0,0,1,.738,1.675L21,44,11.264,33.677A1,1,0,0,1,12,32h4V21A1,1,0,0,1,17,20Zm0-2a3,3,0,0,0-3,3v9H12a3,3,0,0,0-2.191,5.049l9.736,10.323L21,46.915l1.455-1.543,9.759-10.348A3,3,0,0,0,30,30H28V21a3,3,0,0,0-3-3H17Z"/>
  <path class="background" d="M41,50H89a1,1,0,0,1,1,1V69a1,1,0,0,1-1,1H41a1,1,0,0,1-1-1V51A1,1,0,0,1,41,50Zm0-2a3,3,0,0,0-3,3V69a3,3,0,0,0,3,3H89a3,3,0,0,0,3-3V51a3,3,0,0,0-3-3H41Z"/>
  <path class="background" d="M9,50H33a1,1,0,0,1,1,1V69a1,1,0,0,1-1,1H9a1,1,0,0,1-1-1V51A1,1,0,0,1,9,50Zm0-2a3,3,0,0,0-3,3V69a3,3,0,0,0,3,3H33a3,3,0,0,0,3-3V51a3,3,0,0,0-3-3H9Z"/>
  <path id="Fill-2" data-name="Fill" class="fill" d="M16,21V32H12a1,1,0,0,0-.736,1.677L21,44l9.738-10.325A1,1,0,0,0,30,32H26V21a1,1,0,0,0-1-1H17A1,1,0,0,0,16,21Z"/>
  <path id="Fill2" class="fillMedium" d="M41,50H89a1,1,0,0,1,1,1V69a1,1,0,0,1-1,1H41a1,1,0,0,1-1-1V51A1,1,0,0,1,41,50Z"/>
  <path class="fill" d="M9,50H33a1,1,0,0,1,1,1V69a1,1,0,0,1-1,1H9a1,1,0,0,1-1-1V51A1,1,0,0,1,9,50Z"/>
  </svg>