<svg id="S_TouchOverlayStopScrub_72x72_N_D_2x" data-name="S_TouchOverlayStopScrub_72x72_N_D@2x" xmlns="http://www.w3.org/2000/svg" width="144" height="144" viewBox="0 0 144 144">
  <defs>
    <style>
      .cls-1 {
        opacity: 0.3;
      }

      .background, .fill {
        opacity: 0.65;
      }

      .fill {
        fill: #fff;
        fill-rule: evenodd;
      }

      
    </style>
  </defs>
  <title>S_TouchOverlayStopScrub_72x72_N_D@2x</title>
  <circle class="cls-1" cx="72" cy="72" r="69.5"/>
  <path class="background" d="M139.414,70.586L121.829,53H118.24a49.986,49.986,0,0,0-92.48,0H21.926l-1.34,1.34L4.463,70.463,3.049,71.877l1.414,1.414L20.586,89.414,22.172,91H25.76a49.986,49.986,0,0,0,92.48,0h3.589l1.463-1.463,16.123-16.123L140.828,72ZM5.877,71.877L22,55.754A55.172,55.172,0,0,0,22,88ZM72,120a48,48,0,1,1,48-48A48,48,0,0,1,72,120Zm49.877-31.877a55.172,55.172,0,0,0,0-32.246L138,72Z"/>
  <path class="fill" d="M22,88L5.877,71.877,22,55.754A55.171,55.171,0,0,0,22,88Z"/>
  <path class="fill" d="M121.877,88.123L138,72,121.877,55.877A55.171,55.171,0,0,1,121.877,88.123Z"/>
  <path class="fill" d="M28,72a44,44,0,1,1,44,44A44,44,0,0,1,28,72Zm-4,0A48,48,0,1,0,72,24,48,48,0,0,0,24,72Z"/>
  <path id="Fill" class="fill" d="M57,56H87a1,1,0,0,1,1,1V87a1,1,0,0,1-1,1H57a1,1,0,0,1-1-1V57A1,1,0,0,1,57,56Z"/>
  <path id="Fill-2" data-name="Fill" class="background" d="M87,56a1,1,0,0,1,1,1V87a1,1,0,0,1-1,1H57a1,1,0,0,1-1-1V57a1,1,0,0,1,1-1H87Zm0-2H57a3,3,0,0,0-3,3V87a3,3,0,0,0,3,3H87a3,3,0,0,0,3-3V57A3,3,0,0,0,87,54Z"/>
  <path class="background" d="M72,28a44,44,0,1,0,44,44A44,44,0,0,0,72,28Zm0,86a42,42,0,1,1,42-42A42.048,42.048,0,0,1,72,114Z"/>
  </svg>