<svg id="S_TouchNextClip_54x54_N_D_2x" data-name="S_TouchNextClip_54x54_N_D@2x" xmlns="http://www.w3.org/2000/svg" width="108" height="108" viewBox="0 0 108 108">
  <defs>
    <style>
      .cls-1 {
        opacity: 0.3;
      }

      .background, .fill {
        opacity: 0.65;
      }

      .fill {
        fill: #fff;
        fill-rule: evenodd;
      }

      
    </style>
  </defs>
  <title>S_TouchNextClip_54x54_N_D@2x</title>
  <circle class="cls-1" cx="54" cy="54" r="45.08"/>
  <path class="background" d="M47.087,26.584a0.978,0.978,0,0,1,.708.3L74.22,53.96,47.8,81.032a0.979,0.979,0,0,1-.708.3,1,1,0,0,1-1.008-1V27.586A1,1,0,0,1,47.087,26.584Zm0-2a3.008,3.008,0,0,0-3.008,3V80.334a3.008,3.008,0,0,0,3.008,3,2.97,2.97,0,0,0,2.14-.906L75.651,55.357l1.364-1.4-1.364-1.4L49.227,25.491A2.968,2.968,0,0,0,47.088,24.584Z"/>
  <path class="fill" d="M47.8,26.888L74.22,53.96,47.8,81.032a1,1,0,0,1-1.716-.7V27.586A1,1,0,0,1,47.8,26.888Z"/>
  </svg>