<svg id="S_TouchInsertAtPlayhead_48x48_N_D_2x" data-name="S_TouchInsertAtPlayhead_48x48_N_D@2x" xmlns="http://www.w3.org/2000/svg" width="96" height="96" viewBox="0 0 96 96">
  <defs>
    <style>
      .background, .fill {
        opacity: 0.65;
      }

      .fill {
        fill: #fff;
        fill-rule: evenodd;
      }

      
    </style>
  </defs>
  <title>S_TouchInsertAtPlayhead_48x48_N_D@2x</title>
  <path class="background" d="M69,50a1,1,0,0,1,1,1V69a1,1,0,0,1-1,1H45a1,1,0,0,1-1-1V51a1,1,0,0,1,1-1H69Zm0-2H45a3,3,0,0,0-3,3V69a3,3,0,0,0,3,3H69a3,3,0,0,0,3-3V51A3,3,0,0,0,69,48Z"/>
  <path class="fill" d="M32,30h4V40H32V30Zm-8-7V33.082a1,1,0,0,0,.379.784L32,39.9V77a1,1,0,0,0,1,1h2a1,1,0,0,0,1-1V39.9l7.621-6.03A1,1,0,0,0,44,33.082V23a1,1,0,0,0-1-1H25A1,1,0,0,0,24,23Z"/>
  <path class="background" d="M43,22a1,1,0,0,1,1,1V33.083a1,1,0,0,1-.379.784L36,39.9V30H32V40h4V77a1,1,0,0,1-1,1H33a1,1,0,0,1-1-1V39.9l-7.621-6.03A1,1,0,0,1,24,33.083V23a1,1,0,0,1,1-1H43ZM36,39.9v0ZM43,20H25a3,3,0,0,0-3,3V33.083a2.984,2.984,0,0,0,1.138,2.353L30,40.864V77a3,3,0,0,0,3,3h2a3,3,0,0,0,3-3V40.864l6.862-5.429A2.984,2.984,0,0,0,46,33.083V23A3,3,0,0,0,43,20Z"/>
  <path class="fill" d="M69,50H45a1,1,0,0,0-1,1V69a1,1,0,0,0,1,1H69a1,1,0,0,0,1-1V51A1,1,0,0,0,69,50Z"/>
  </svg>