<svg id="S_TouchReplace_48x48_N_D_2x" data-name="S_TouchReplace_48x48_N_D@2x" xmlns="http://www.w3.org/2000/svg" width="96" height="96" viewBox="0 0 96 96">
  <defs>
    <style>
      .background, .fill {
        opacity: 0.65;
      }

      .fill, .fillMedium {
        fill: #fff;
      }

      .fill {
        fill-rule: evenodd;
      }

      .fillMedium {
        opacity: 0.3;
      }

      
    </style>
  </defs>
  <title>S_TouchReplace_48x48_N_D@2x</title>
  <path class="background" d="M75,46H70V33a3,3,0,0,0-3-3H19a3,3,0,0,0-3,3V51a3,3,0,0,0,3,3h5V67a3,3,0,0,0,3,3H75a3,3,0,0,0,3-3V49A3,3,0,0,0,75,46ZM19,52a1,1,0,0,1-1-1V33a1,1,0,0,1,1-1H67a1,1,0,0,1,1,1V51a1,1,0,0,1-1,1H50v4h3.5a0.493,0.493,0,0,1,.3.095,0.5,0.5,0,0,1,.173.232,0.492,0.492,0,0,1-.144.553l-0.011.011-0.015.015L47,64l-6.778-7.074-0.033-.034-0.016-.015a0.464,0.464,0,0,1-.155-0.352,0.491,0.491,0,0,1,.016-0.2,0.466,0.466,0,0,1,.438-0.317c0.012,0,.019-0.009.031-0.009H44V52H19ZM76,67a1,1,0,0,1-1,1H27a1,1,0,0,1-1-1V54H40.5a2.5,2.5,0,0,0-1.725,4.31L47,66.89l8.224-8.581a2.5,2.5,0,0,0-.964-4.194A2.534,2.534,0,0,0,53.5,54H70V48h5a1,1,0,0,1,1,1V67Z"/>
  <path class="fill" d="M70,48v6H53.5a2.5,2.5,0,0,1,1.725,4.31l-6.78,7.074L47,66.89l-1.444-1.507L38.778,58.31A2.5,2.5,0,0,1,40.5,54H26V67a1,1,0,0,0,1,1H75a1,1,0,0,0,1-1V49a1,1,0,0,0-1-1H70Z"/>
  <path class="fill" d="M67,32H19a1,1,0,0,0-1,1V51a1,1,0,0,0,1,1H44v4H40.5a0.5,0.5,0,0,0-.325.88L47,64l6.824-7.12A0.5,0.5,0,0,0,53.5,56H50V52H67a1,1,0,0,0,1-1V33A1,1,0,0,0,67,32ZM66,50H20V34H66V50Z"/>
  <rect class="fillMedium" x="20" y="34" width="46" height="16"/>
  </svg>