<svg id="S_TouchCheckmark_45x45_N_D_2x" data-name="S_TouchCheckmark_45x45_N_D@2x" xmlns="http://www.w3.org/2000/svg" width="144" height="144" viewBox="0 0 144 144">
  <defs>
    <style>
      .cls-1, .fill {
        fill-rule: evenodd;
      }

      .cls-1 {
        opacity: 0.3;
      }

      .background, .fill {
        opacity: 0.65;
      }

      .fill {
        fill: #fff;
      }

      
    </style>
  </defs>
  <title>S_TouchCheckmark_45x45_N_D@2x</title>
  <path class="cls-1" d="M132.48,0A11.533,11.533,0,0,1,144,11.52V132.48A11.533,11.533,0,0,1,132.48,144H11.52A11.533,11.533,0,0,1,0,132.48V11.52A11.533,11.533,0,0,1,11.52,0H132.48Z"/>
  <path class="background" d="M90.057,50.027a2.143,2.143,0,0,1,1.356.482l3.007,2.443a2.152,2.152,0,0,1,.313,3.028L66.609,90.595a2.153,2.153,0,0,1-3.339,0l-14.6-17.921a2.152,2.152,0,0,1,.309-3.028l3-2.447a2.152,2.152,0,0,1,3.029.309l9.919,12.178L88.385,50.822A2.149,2.149,0,0,1,90.057,50.027Zm0-2a4.138,4.138,0,0,0-3.224,1.534L64.93,76.519,56.563,66.247a4.152,4.152,0,0,0-5.843-.6l-3,2.447a4.157,4.157,0,0,0-.6,5.841l14.6,17.921a4.153,4.153,0,0,0,6.442,0L96.285,57.241a4.157,4.157,0,0,0-.6-5.841l-3.007-2.444A4.163,4.163,0,0,0,90.057,48.027Z"/>
  <path class="background" d="M114,17a14,14,0,0,1,14,14v84a14,14,0,0,1-14,14H30a14,14,0,0,1-14-14V31A14,14,0,0,1,30,17h84ZM30,123h84a8.009,8.009,0,0,0,8-8V31a8.009,8.009,0,0,0-8-8H30a8.009,8.009,0,0,0-8,8v84A8.009,8.009,0,0,0,30,123ZM114,15H30A16.018,16.018,0,0,0,14,31v84a16.018,16.018,0,0,0,16,16h84a16.018,16.018,0,0,0,16-16V31A16.018,16.018,0,0,0,114,15ZM30,121a6.007,6.007,0,0,1-6-6V31a6.007,6.007,0,0,1,6-6h84a6.007,6.007,0,0,1,6,6v84a6.007,6.007,0,0,1-6,6H30Z"/>
  <path class="fill" d="M63.269,90.6l-14.6-17.921a2.152,2.152,0,0,1,.309-3.028l3-2.447a2.152,2.152,0,0,1,3.029.309l9.919,12.178L88.385,50.822a2.152,2.152,0,0,1,3.028-.313l3.007,2.443a2.152,2.152,0,0,1,.313,3.028L66.609,90.595A2.152,2.152,0,0,1,63.269,90.6Z"/>
  <path class="fill" d="M114,23a8.009,8.009,0,0,1,8,8v84a8.009,8.009,0,0,1-8,8H30a8.009,8.009,0,0,1-8-8V31a8.009,8.009,0,0,1,8-8h84Zm0-6H30A14,14,0,0,0,16,31v84a14,14,0,0,0,14,14h84a14,14,0,0,0,14-14V31A14,14,0,0,0,114,17Z"/>
  </svg>