<svg xmlns="http://www.w3.org/2000/svg" data-name="S_TransitionWhipTop_18_N_D@2x" height="36" id="S_TransitionWhipTop_18_N_D_2x" viewBox="0 0 36 36" width="36">
  <defs>
    <style>
      .cls-1, .cls-2, .cls-3, .cls-4, .cls-5, .cls-6 {
        fill: #fff;
      }

      .fill {
        opacity: 0.65;
        fill: #fff;
      }

      .cls-1 {
        opacity: 0.55;
      }

      .cls-2 {
        opacity: 0.45;
      }

      .cls-3 {
        opacity: 0.35;
      }

      .cls-4 {
        opacity: 0.25;
      }

      .cls-5 {
        opacity: 0.15;
      }

      .cls-6 {
        opacity: 0.05;
      }

      
    </style>
  </defs>
  <path class="fill" d="M2,3V33a1,1,0,0,0,1,1H33a1,1,0,0,0,1-1V3a1,1,0,0,0-1-1H3A1,1,0,0,0,2,3ZM32,4V32L18,20,4,32V4Z" />
  <polygon class="cls-1" points="32 30 18 18 4 30 4 32 18 20 32 32 32 30" />
  <polygon class="cls-2" points="32 28 18 16 4 28 4 30 18 18 32 30 32 28" />
  <polygon class="cls-3" points="32 26 18 14 4 26 4 28 18 16 32 28 32 26" />
  <polygon class="cls-4" points="32 24 18 12 4 24 4 26 18 14 32 26 32 24" />
  <polygon class="cls-5" points="32 22 18 10 4 22 4 24 18 12 32 24 32 22" />
  <polygon class="cls-6" points="32 20 18 8 4 20 4 22 18 10 32 22 32 20" />
  </svg>