<svg id="I_C_O_N_S" data-name="I C O N S" xmlns="http://www.w3.org/2000/svg" width="36" height="36" viewBox="0 0 36 36">
  <path class="fill" d="M27.54,12.614c-.03-.148-.09-.179-.21-.179H23.31a.187.187,0,0,0-.179.183,4.087,4.087,0,0,1-.241,1.588L20.2,22.431a58.036,58.036,0,0,1-5.466-4.287A14.148,14.148,0,0,0,18.231,9H20.5a.5.5,0,0,0,.5-.5V6.512a.5.5,0,0,0-.5-.5H13V4.5a.5.5,0,0,0-.5-.5H10.477a.483.483,0,0,0-.48.5V6.012H2.515a.5.5,0,0,0-.5.5V8.5a.5.5,0,0,0,.5.5H15.252a10.7,10.7,0,0,1-2.675,7.111c-1.936-1.946-3.265-3.674-3.556-4.722A.564.564,0,0,0,8.5,11H6.509a.506.506,0,0,0-.5.59c.32,1.92,2.111,4.3,4.406,6.611a24.751,24.751,0,0,1-5.43,3.26.5.5,0,0,0-.259.649l.8,1.832a.513.513,0,0,0,.678.26,27.192,27.192,0,0,0,6.39-3.946A63.773,63.773,0,0,0,19.236,25.4l-2.075,6.334c-.061.18,0,.27.179.27h2.88a.309.309,0,0,0,.3-.224l1.556-5h6.6L30.322,31.8a.292.292,0,0,0,.278.2h3.21c.18,0,.21-.09.18-.24ZM22.95,23.6c.84-2.76,1.92-6.239,2.4-8.248h.03c.51,2.128,1.86,6.238,2.43,8.248Z"/>
</svg>