<svg id="S_TransitionNo_18_N_D_2x" data-name="S_TransitionNo_18_N_D@2x" xmlns="http://www.w3.org/2000/svg" width="36" height="36" viewBox="0 0 36 36">
  <defs>
    <style>
      .cls-1 {
        fill: #fff;
        fill-rule: evenodd;
        opacity: 0.65;
      }

      
    </style>
  </defs>
  <title>S_TransitionNo_18_N_D@2x</title>
  <path class="cls-1" d="M31,4H10.395l1.994,2H30l-8.818,8.818L32,25.667V5A1,1,0,0,0,31,4ZM6,30l8.818-8.818L4,10.333V31a1,1,0,0,0,1,1H25.605l-1.994-2Z"/>
  <path class="cls-1" d="M35.352,32.428,3.617.6A.75.75,0,0,0,2.557.6L.648,2.511a.75.75,0,0,0,0,1.061L32.383,35.4a.75.75,0,0,0,1.061,0l1.909-1.909A.75.75,0,0,0,35.352,32.428Z"/>
  </svg>