<svg xmlns="http://www.w3.org/2000/svg" data-name="S_TransitionPushRightOverlay_16_N@2x" height="32" id="S_TransitionPushRightOverlay_16_N_2x" viewBox="0 0 32 32" width="32">
  <defs>
    <style>
      .cls-1 {
        opacity: 0.5;
      }

      .cls-2 {
        fill: #fff;
        opacity: 0.8;
      }

      
    </style>
  </defs>
  <rect class="cls-1" height="28" rx="0.5" width="28" x="2" y="2" />
  <path class="cls-2" d="M24.489,16.378a.5.5,0,0,0,0-.756L18,10v3.5a.5.5,0,0,1-.5.5h-7a.5.5,0,0,0-.5.5v3a.5.5,0,0,0,.5.5h7a.5.5,0,0,1,.5.5V22Z" />
  <path class="cls-2" d="M27,4H5A1,1,0,0,0,4,5V27a1,1,0,0,0,1,1H27a1,1,0,0,0,1-1V5A1,1,0,0,0,27,4ZM26,26H16V20H8.5a.5.5,0,0,1-.5-.5v-7a.5.5,0,0,1,.5-.5H16V6H26Z" />
  </svg>