<svg xmlns="http://www.w3.org/2000/svg" data-name="S_TransitionPushTopOverlay_16_N@2x" height="32" id="S_TransitionPushTopOverlay_16_N_2x" viewBox="0 0 32 32" width="32">
  <defs>
    <style>
      .cls-1 {
        opacity: 0.5;
      }

      .cls-2 {
        fill: #fff;
        opacity: 0.8;
      }

      
    </style>
  </defs>
  <rect class="cls-1" height="28" rx="0.5" transform="translate(0 32) rotate(-90)" width="28" x="2" y="2" />
  <path class="cls-2" d="M16.378,7.511a.5.5,0,0,0-.756,0L10,14h3.5a.5.5,0,0,1,.5.5v7a.5.5,0,0,0,.5.5h3a.5.5,0,0,0,.5-.5v-7a.5.5,0,0,1,.5-.5H22Z" />
  <path class="cls-2" d="M4,5V27a1,1,0,0,0,1,1H27a1,1,0,0,0,1-1V5a1,1,0,0,0-1-1H5A1,1,0,0,0,4,5ZM26,6V16H20v7.5a.5.5,0,0,1-.5.5h-7a.5.5,0,0,1-.5-.5V16H6V6Z" />
  </svg>