<svg id="S_Record_Xs_N_D_2x" data-name="S_Record_Xs_N_D@2x" xmlns="http://www.w3.org/2000/svg" width="26" height="26" viewBox="0 0 26 26">
  <defs>
    <style>
      .fill {
        fill: #fff;
        fill-rule: evenodd;
        opacity: 0.65;
      }

      
    </style>
  </defs>
  <title>S_Record_Xs_N_D@2x</title>
  <path id="Fill" class="fill" d="M16,8v4h2V8.5A0.5,0.5,0,0,0,17.5,8H16ZM10,8h6V6.5A0.5,0.5,0,0,0,15.5,6h-7a0.5,0.5,0,0,0-.5.5v13a0.5,0.5,0,0,0,.5.5h1a0.5,0.5,0,0,0,.5-0.5V14h6V12H10V8Zm8,6H16v5.5a0.5,0.5,0,0,0,.5.5h1a0.5,0.5,0,0,0,.5-0.5V14Z"/>
  </svg>