<svg xmlns="http://www.w3.org/2000/svg" data-name="S_TransitionPushRight_18_N_D@2x" height="36" id="S_TransitionPushRight_18_N_D_2x" viewBox="0 0 36 36" width="36">
  <defs>
    <style>
      .fill {
        fill: #fff;
        opacity: 0.65;
      }

      
    </style>
  </defs>
  <path class="fill" d="M18.835,11.532A.5.5,0,0,0,18,11.9V16H8.5a.5.5,0,0,0-.5.5v3a.5.5,0,0,0,.5.5H18v4.1a.5.5,0,0,0,.835.371L26,17.992Z" />
  <path class="fill" d="M33,2H3A1,1,0,0,0,2,3V33a1,1,0,0,0,1,1H33a1,1,0,0,0,1-1V3A1,1,0,0,0,33,2ZM32,32H16V22H7a1,1,0,0,1-1-1V15a1,1,0,0,1,1-1h9V4H32Z" />
  </svg>