<svg xmlns="http://www.w3.org/2000/svg" data-name="S_TransitionWhipLeftOverlay_16_N@2x" height="32" id="S_TransitionWhipLeftOverlay_16_N_2x" viewBox="0 0 32 32" width="32">
  <defs>
    <style>
      .cls-1, .cls-5 {
        opacity: 0.5;
      }

      .cls-2, .cls-3, .cls-4, .cls-5, .cls-6, .cls-7 {
        fill: #fff;
      }

      .cls-2 {
        opacity: 0.8;
      }

      .cls-3 {
        opacity: 0.7;
      }

      .cls-4 {
        opacity: 0.6;
      }

      .cls-6 {
        opacity: 0.4;
      }

      .cls-7 {
        opacity: 0.3;
      }

      
    </style>
  </defs>
  <g>
    <rect class="cls-1" height="28" rx="0.5" transform="translate(32 32) rotate(180)" width="28" x="2" y="2" />
    <path class="cls-2" d="M6,6H26L18,16l8,10H6ZM5,4A1,1,0,0,0,4,5V27a1,1,0,0,0,1,1H27a1,1,0,0,0,1-1V5a1,1,0,0,0-1-1Z" />
    <polygon class="cls-3" points="24 26 16 16 24 6 26 6 18 16 26 26 24 26" />
    <polygon class="cls-4" points="22 26 14 16 22 6 24 6 16 16 24 26 22 26" />
    <polygon class="cls-5" points="20 26 12 16 20 6 22 6 14 16 22 26 20 26" />
    <polygon class="cls-6" points="18 26 10 16 18 6 20 6 12 16 20 26 18 26" />
    <polygon class="cls-7" points="16 26 8 16 16 6 18 6 10 16 18 26 16 26" />
  </g>
  </svg>