<?xml version="1.0" encoding="utf-8"?>
<!-- Generator: Adobe Illustrator 21.0.2, SVG Export Plug-In . SVG Version: 6.00 Build 0)  -->
<svg version="1.1" id="Layer_1" xmlns="http://www.w3.org/2000/svg" xmlns:xlink="http://www.w3.org/1999/xlink" x="0px" y="0px"
	 viewBox="0 0 40 40" style="enable-background:new 0 0 40 40;" xml:space="preserve">
<style type="text/css">
	.st0{fill:#E61414;}
	.st1{enable-background:new    ;}
	.st2{fill:#232323;}
</style>
<title>tmc-audio-selected-1</title>
<desc>Created with Sketch.</desc>
<g id="Voice-Over">
	<g id="icons_x2F_icon-selected_x2F_track-name" transform="translate(-5.000000, -7.000000)">
		<path id="Rectangle-9" class="st0" d="M5,18.5c0-4.2,3.2-7.5,7.3-7.5h25.5c4,0,7.3,3.4,7.3,7.5v16.9c0,4.2-3.2,7.5-7.3,7.5H12.3
			c-4,0-7.3-3.4-7.3-7.5V18.5z"/>
		<g class="st1">
			<path class="st2" d="M18.3,30.3l-1,3.1c0,0.1-0.1,0.2-0.2,0.2h-1.8c-0.1,0-0.1-0.1-0.1-0.2l3.7-11c0.1-0.2,0.1-0.4,0.2-1
				c0-0.1,0-0.1,0.1-0.1h2.5c0.1,0,0.1,0,0.1,0.1L26,33.4c0,0.1,0,0.2-0.1,0.2h-2c-0.1,0-0.1,0-0.2-0.1l-1.1-3.1H18.3z M22,28.3
				c-0.4-1.2-1.2-3.9-1.6-5.2h0c-0.3,1.3-1,3.5-1.6,5.2H22z"/>
			<path class="st2" d="M30.3,33.6c-0.1,0-0.1,0-0.1-0.1V24c-0.5,0.3-1.4,0.6-1.9,0.7c-0.1,0-0.1,0-0.1-0.1v-1.6
				c0-0.1,0-0.1,0.1-0.2c0.9-0.2,1.8-0.7,2.5-1.1c0.1-0.1,0.2-0.1,0.3-0.1h1.3c0.1,0,0.1,0,0.1,0.1v11.7c0,0.1,0,0.1-0.1,0.1H30.3z"
				/>
		</g>
	</g>
</g>
</svg>
