<svg xmlns="http://www.w3.org/2000/svg" data-name="S_TransitionSlideRightOverlay_16_N@2x" height="32" id="S_TransitionSlideRightOverlay_16_N_2x" viewBox="0 0 32 32" width="32">
  <defs>
    <style>
      .cls-1 {
        opacity: 0.5;
      }

      .cls-2 {
        fill: #fff;
        opacity: 0.8;
      }

      
    </style>
  </defs>
  <path class="cls-1" d="M20,4V3a1,1,0,0,0-1-1H3A1,1,0,0,0,2,3V29a1,1,0,0,0,1,1H19a1,1,0,0,0,1-1V28h9a1,1,0,0,0,1-1V5a1,1,0,0,0-1-1Z" />
  <path class="cls-2" d="M27,6H18V5a1,1,0,0,0-1-1H5A1,1,0,0,0,4,5V27a1,1,0,0,0,1,1H17a1,1,0,0,0,1-1V26h9a1,1,0,0,0,1-1V7A1,1,0,0,0,27,6ZM26,24H18V8h8Z" />
  </svg>