<svg xmlns="http://www.w3.org/2000/svg" data-name="S_TransitionPushLeftOverlay_16_N@2x" height="32" id="S_TransitionPushLeftOverlay_16_N_2x" viewBox="0 0 32 32" width="32">
  <defs>
    <style>
      .cls-1 {
        opacity: 0.5;
      }

      .cls-2 {
        fill: #fff;
        opacity: 0.8;
      }

      
    </style>
  </defs>
  <rect class="cls-1" height="28" rx="0.5" transform="translate(32 32) rotate(-180)" width="28" x="2" y="2" />
  <path class="cls-2" d="M7.511,16.378a.5.5,0,0,1,0-.756L14,10v3.5a.5.5,0,0,0,.5.5h7a.5.5,0,0,1,.5.5v3a.5.5,0,0,1-.5.5h-7a.5.5,0,0,0-.5.5V22Z" />
  <path class="cls-2" d="M4,5V27a1,1,0,0,0,1,1H27a1,1,0,0,0,1-1V5a1,1,0,0,0-1-1H5A1,1,0,0,0,4,5ZM6,6H16v6h7.5a.5.5,0,0,1,.5.5v7a.5.5,0,0,1-.5.5H16v6H6Z" />
  </svg>