<svg xmlns="http://www.w3.org/2000/svg" data-name="S_TransitionSlideTopOverlay_16_N@2x" height="32" id="S_TransitionSlideTopOverlay_16_N_2x" viewBox="0 0 32 32" width="32">
  <defs>
    <style>
      .cls-1 {
        opacity: 0.5;
      }

      .cls-2 {
        fill: #fff;
        opacity: 0.8;
      }

      
    </style>
  </defs>
  <path class="cls-1" d="M4,12H3a1,1,0,0,0-1,1V29a1,1,0,0,0,1,1H29a1,1,0,0,0,1-1V13a1,1,0,0,0-1-1H28V3a1,1,0,0,0-1-1H5A1,1,0,0,0,4,3Z" />
  <path class="cls-2" d="M6,5v9H5a1,1,0,0,0-1,1V27a1,1,0,0,0,1,1H27a1,1,0,0,0,1-1V15a1,1,0,0,0-1-1H26V5a1,1,0,0,0-1-1H7A1,1,0,0,0,6,5ZM24,6v8H8V6Z" />
  </svg>