<svg id="S_TransitionWipeRightOverlay_16_N_2x" data-name="S_TransitionWipeRightOverlay_16_N@2x" xmlns="http://www.w3.org/2000/svg" width="32" height="32" viewBox="0 0 32 32">
  <defs>
    <style>
      .cls-1 {
        opacity: 0.5;
      }

      .cls-2 {
        fill: #fff;
        opacity: 0.8;
      }

      .cls-3 {
        fill: #ff13dc;
        opacity: 0;
      }
    </style>
  </defs>
  <rect class="cls-1" x="2" y="2" width="28" height="28" rx="0.5" transform="translate(32 0) rotate(90)"/>
  <path class="cls-2" d="M27,4H5A1,1,0,0,0,4,5V27a1,1,0,0,0,1,1H27a1,1,0,0,0,1-1V5A1,1,0,0,0,27,4ZM12,26V6h2V26Zm4,0V6h2V26Zm10,0H19.6V6H26Z"/>
  <rect id="ToDelete" class="cls-3" width="32" height="32"/>
</svg>
