<?xml version="1.0" encoding="utf-8"?>
<!-- Generator: Adobe Illustrator 21.0.2, SVG Export Plug-In . SVG Version: 6.00 Build 0)  -->
<svg version="1.1" id="Layer_1" xmlns="http://www.w3.org/2000/svg" xmlns:xlink="http://www.w3.org/1999/xlink" x="0px" y="0px"
	 viewBox="0 0 40 40" style="enable-background:new 0 0 40 40;" xml:space="preserve">
<style type="text/css">
	.st0{enable-background:new    ;}
	.st1{fill:#707070;}
</style>
<title>tmc-video-disabled-2</title>
<desc>Created with Sketch.</desc>
<g id="Voice-Over">
	<g id="icons_x2F_icon-disabled_x2F_track-name" transform="translate(-5.000000, -7.000000)">
		<g class="st0">
			<path class="st1" d="M19.5,31.3c0.4-1.5,1.3-4.7,3-10c0-0.1,0.1-0.2,0.2-0.2h2c0.1,0,0.1,0.1,0.1,0.2l-4.2,12.1
				c0,0.1-0.1,0.1-0.2,0.1h-2.1c-0.1,0-0.1,0-0.2-0.1l-4.3-12.1c0-0.1,0-0.2,0.1-0.2H16c0.1,0,0.1,0,0.1,0.1
				C17.9,26.3,19.1,29.9,19.5,31.3L19.5,31.3z"/>
			<path class="st1" d="M27.2,33.6c-0.1,0-0.1-0.1-0.1-0.2v-1.3c0-0.1,0-0.2,0.1-0.2c0.8-0.6,2-1.6,3-2.6c1.8-1.7,2.1-2.8,2.1-3.8
				c0-1.2-0.6-2.1-2.1-2.1c-1.1,0-1.9,0.3-2.7,0.8c-0.1,0.1-0.1,0-0.1-0.1v-1.7c0-0.1,0-0.2,0.1-0.2c0.9-0.5,2-0.8,3.2-0.8
				c2.7,0,3.9,1.8,3.9,3.8c0,1.4-0.5,2.8-2.1,4.3c-0.9,1-1.6,1.5-2.3,2c0.7-0.1,1.4-0.1,2.7-0.1H35c0.1,0,0.2,0,0.1,0.1l-0.4,1.7
				c0,0.1-0.1,0.1-0.2,0.1H27.2z"/>
		</g>
		<path id="Rectangle-9" class="st1" d="M8.6,18.5v16.9c0,2.1,1.6,3.8,3.6,3.8h25.5c2,0,3.6-1.7,3.6-3.8V18.5c0-2.1-1.6-3.8-3.6-3.8
			H12.3C10.3,14.8,8.6,16.5,8.6,18.5z M5,18.5c0-4.2,3.2-7.5,7.3-7.5h25.5c4,0,7.3,3.4,7.3,7.5v16.9c0,4.2-3.2,7.5-7.3,7.5H12.3
			c-4,0-7.3-3.4-7.3-7.5V18.5z"/>
	</g>
</g>
</svg>
