<svg id="S_TransAudioDefault_Sm_N_D_2x" data-name="S_TransAudioDefault_Sm_N_D@2x" xmlns="http://www.w3.org/2000/svg" width="32" height="32" viewBox="0 0 32 32">
  <defs>
    <style>
      .blue {
        fill: #2d8ceb;
      }

      .fill {
        fill: #fff;
        fill-rule: evenodd;
        opacity: 0.65;
      }

      
    </style>
  </defs>
  <title>S_TransAudioDefault_Sm_N_D@2x</title>
  <path class="blue" d="M2,2H30V30H2ZM0,1V31a1,1,0,0,0,1,1H31a1,1,0,0,0,1-1V1a1,1,0,0,0-1-1H1A1,1,0,0,0,0,1Z"/>
  <path class="fill" d="M27,4H5A1,1,0,0,0,4,5V27a1,1,0,0,0,1,1H27a1,1,0,0,0,1-1V5A1,1,0,0,0,27,4ZM26,26H6l6.046-6.046A2.5,2.5,0,0,1,10,17.5v-3A2.5,2.5,0,0,1,12.5,12h2.655l2.582-2.569A2.481,2.481,0,0,1,19.5,8.7h0a2.506,2.506,0,0,1,2.295,1.507L26,6Z"/>
  <path class="fill" d="M12.5,14h3.48l3.167-3.152A.5.5,0,0,1,20,11.2V20.8a.5.5,0,0,1-.853.354L15.98,18H12.5a.5.5,0,0,1-.5-.5v-3A.5.5,0,0,1,12.5,14Z"/>
  </svg>