<svg xmlns="http://www.w3.org/2000/svg" data-name="S_TransitionWhipRight_18_N_D@2x" height="36" id="S_TransitionWhipRight_18_N_D_2x" viewBox="0 0 36 36" width="36">
  <defs>
    <style>
      .cls-1, .cls-2, .cls-3, .cls-4, .cls-5, .cls-6 {
        fill: #fff;
      }

      .fill {
        opacity: 0.65;
        fill: #fff;
      }

      .cls-1 {
        opacity: 0.55;
      }

      .cls-2 {
        opacity: 0.45;
      }

      .cls-3 {
        opacity: 0.35;
      }

      .cls-4 {
        opacity: 0.25;
      }

      .cls-5 {
        opacity: 0.15;
      }

      .cls-6 {
        opacity: 0.05;
      }

      
    </style>
  </defs>
  <path class="fill" d="M33,2H3A1,1,0,0,0,2,3V33a1,1,0,0,0,1,1H33a1,1,0,0,0,1-1V3A1,1,0,0,0,33,2ZM32,32H4L16,18,4,4H32Z" />
  <polygon class="cls-1" points="6 32 18 18 6 4 4 4 16 18 4 32 6 32" />
  <polygon class="cls-2" points="8 32 20 18 8 4 6 4 18 18 6 32 8 32" />
  <polygon class="cls-3" points="10 32 22 18 10 4 8 4 20 18 8 32 10 32" />
  <polygon class="cls-4" points="12 32 24 18 12 4 10 4 22 18 10 32 12 32" />
  <polygon class="cls-5" points="14 32 26 18 14 4 12 4 24 18 12 32 14 32" />
  <polygon class="cls-6" points="16 32 28 18 16 4 14 4 26 18 14 32 16 32" />
  </svg>