<svg xmlns="http://www.w3.org/2000/svg" data-name="S_TransitionSlideBottomOverlay_16_N@2x" height="32" id="S_TransitionSlideBottomOverlay_16_N_2x" viewBox="0 0 32 32" width="32">
  <defs>
    <style>
      .cls-1 {
        opacity: 0.5;
      }

      .cls-2 {
        fill: #fff;
        opacity: 0.8;
      }

      
    </style>
  </defs>
  <path class="cls-1" d="M28,20h1a1,1,0,0,0,1-1V3a1,1,0,0,0-1-1H3A1,1,0,0,0,2,3V19a1,1,0,0,0,1,1H4v9a1,1,0,0,0,1,1H27a1,1,0,0,0,1-1Z" />
  <path class="cls-2" d="M26,27V18h1a1,1,0,0,0,1-1V5a1,1,0,0,0-1-1H5A1,1,0,0,0,4,5V17a1,1,0,0,0,1,1H6v9a1,1,0,0,0,1,1H25A1,1,0,0,0,26,27ZM8,26V18H24v8Z" />
  </svg>