<svg id="S_TrackSelect_Lg_N_D_2x" data-name="S_TrackSelect_Lg_N_D@2x" xmlns="http://www.w3.org/2000/svg" width="44" height="36" viewBox="0 0 44 36">
  <defs>
    <style>
      .fill {
        fill: #fff;
        fill-rule: evenodd;
        opacity: 0.65;
      }

      
    </style>
  </defs>
  <title>S_TrackSelect_Lg_N_D@2x</title>
  <path id="Fill" class="fill" d="M4,14v6H6V14H4ZM4.5,28H8V26H6V24H4v3.5A0.5,0.5,0,0,0,4.5,28ZM12,26v2h4V26H12ZM12,6V8h4V6H12ZM4,6.5V10H6V8H8V6H4.5A0.5,0.5,0,0,0,4,6.5ZM22,24v2H20v2h3.5a0.5,0.5,0,0,0,.5-0.5V24H22ZM20,6V8h2v2h2V6.5A0.5,0.5,0,0,0,23.5,6H20Z"/>
  <path id="Fill2" class="fill" d="M16,15v4a1,1,0,0,0,1,1H28v3.089a0.5,0.5,0,0,0,.768.422L39,17,28.768,10.489a0.5,0.5,0,0,0-.768.422V14H17A1,1,0,0,0,16,15Z"/>
  </svg>