<svg id="S_TransitionB_240x180_N_D_2x" data-name="S_TransitionB_240x180_N_D@2x" xmlns="http://www.w3.org/2000/svg" width="480" height="360" viewBox="0 0 480 360">
  <defs>
    <style>
      .cls-1 {
        fill: #27c186;
      }

      .fill {
        fill: #fff;
        fill-rule: evenodd;
        opacity: 0.65;
      }

      
    </style>
  </defs>
  <title>S_TransitionB_240x180_N_D@2x</title>
  <rect class="cls-1" width="480" height="360"/>
  <path class="fill" d="M185.873,90.654c0-1.36,0-1.9,1.36-2.177,10.064-.271,31.28-.815,47.057-.815,54.4,0,62.017,30.192,62.017,46.513,0,20.672-11.7,32.368-19.312,37.536,11.152,4.9,28.561,17.136,28.561,42.977,0,35.9-31.28,53.856-72.353,53.856-18.5,0-35.36-.271-45.7-.544-1.36-.272-1.632-.816-1.632-1.9Zm22.3,72.624h25.3c10.608,0,21.216.816,25.568,1.633,7.889-5.168,14.961-13.6,14.961-27.745,0-20.4-14.961-29.92-41.073-29.92-8.976,0-19.584.272-24.752.544Zm0,85.138c5.984.271,14.688.544,23.12.544,30.192.544,50.865-10.336,50.865-33.729,0-14.688-8.16-25.841-24.753-30.192-5.983-1.632-13.6-1.9-21.488-1.9H208.177Z"/>
  </svg>