<svg xmlns="http://www.w3.org/2000/svg" data-name="S_TransitionPushBottom_18_N_D@2x" height="36" id="S_TransitionPushBottom_18_N_D_2x" viewBox="0 0 36 36" width="36">
  <defs>
    <style>
      .fill {
        fill: #fff;
        opacity: 0.65;
      }

      
    </style>
  </defs>
  <path class="fill" d="M11.532,18.835A.5.5,0,0,1,11.9,18H16V8.5a.5.5,0,0,1,.5-.5h3a.5.5,0,0,1,.5.5V18h4.1a.5.5,0,0,1,.371.835L17.992,26Z" />
  <path class="fill" d="M3,34H33a1,1,0,0,0,1-1V3a1,1,0,0,0-1-1H3A1,1,0,0,0,2,3V33A1,1,0,0,0,3,34Zm1-2V16H14V7a1,1,0,0,1,1-1h6a1,1,0,0,1,1,1v9H32V32Z" />
  </svg>