<svg xmlns="http://www.w3.org/2000/svg" data-name="S_TransitionPushTop_18_N_D@2x" height="36" id="S_TransitionPushTop_18_N_D_2x" viewBox="0 0 36 36" width="36">
  <defs>
    <style>
      .fill {
        fill: #fff;
        opacity: 0.65;
      }

      
    </style>
  </defs>
  <path class="fill" d="M11.532,17.165A.5.5,0,0,0,11.9,18H16v9.5a.5.5,0,0,0,.5.5h3a.5.5,0,0,0,.5-.5V18h4.1a.5.5,0,0,0,.371-.835L17.992,10Z" />
  <path class="fill" d="M2,3V33a1,1,0,0,0,1,1H33a1,1,0,0,0,1-1V3a1,1,0,0,0-1-1H3A1,1,0,0,0,2,3ZM32,4V20H22v9a1,1,0,0,1-1,1H15a1,1,0,0,1-1-1V20H4V4Z" />
  </svg>