<svg id="S_TrackSelectBackward_Lg_N_D_2x" data-name="S_TrackSelectBackward_Lg_N_D@2x" xmlns="http://www.w3.org/2000/svg" width="44" height="36" viewBox="0 0 44 36">
  <defs>
    <style>
      .fill {
        fill: #fff;
        fill-rule: evenodd;
        opacity: 0.65;
      }

      
    </style>
  </defs>
  <title>S_TrackSelectBackward_Lg_N_D@2x</title>
  <path id="Fill" class="fill" d="M40,14v6H38V14h2ZM39.5,28H36V26h2V24h2v3.5A0.5,0.5,0,0,1,39.5,28ZM32,26v2H28V26h4ZM32,6V8H28V6h4Zm8,0.5V10H38V8H36V6h3.5A0.5,0.5,0,0,1,40,6.5ZM22,24v2h2v2H20.5a0.5,0.5,0,0,1-.5-0.5V24h2ZM24,6V8H22v2H20V6.5A0.5,0.5,0,0,1,20.5,6H24Z"/>
  <path id="Fill2" class="fill" d="M28,15v4a1,1,0,0,1-1,1H16v3.089a0.5,0.5,0,0,1-.768.422L5,17l10.232-6.511a0.5,0.5,0,0,1,.768.422V14H27A1,1,0,0,1,28,15Z"/>
  </svg>