<?xml version="1.0" encoding="UTF-8"?>
<svg id="ICONS" xmlns="http://www.w3.org/2000/svg" width="37" height="37" viewBox="0 0 37 37">
  <defs>
    <style>
      .fill {
        fill: #fff;
        opacity: .65;
        stroke-width: 0px;
      }
    </style>
  </defs>
  <path class="fill" d="M35.1,18.5c-.00392-1.59816-1.0638-3.00129-2.6-3.442v-4.116c1.90636-.54689,3.00843-2.53564,2.46154-4.442-.54689-1.90636-2.53564-3.00843-4.442-2.46154-1.18996.34137-2.12017,1.27159-2.46154,2.46154h-6.116c-.53964-1.90096-2.51814-3.00454-4.4191-2.4649-1.19338.33877-2.12613,1.27152-2.4649,2.4649h-6.116c-.54689-1.90636-2.53564-3.00843-4.442-2.46154-1.90636.54689-3.00843,2.53564-2.46154,4.442.34137,1.18996,1.27159,2.12017,2.46154,2.46154v4.116c-1.90096.53964-3.00454,2.51813-2.4649,4.4191.33877,1.19338,1.27152,2.12613,2.4649,2.4649v4.116c-1.90636.54689-3.00843,2.53564-2.46154,4.442s2.53564,3.00843,4.442,2.46155c1.18996-.34137,2.12018-1.27159,2.46155-2.46155h6.116c.53964,1.90096,2.51813,3.00454,4.4191,2.4649,1.19338-.33877,2.12613-1.27152,2.4649-2.4649h6.116c.54689,1.90636,2.53564,3.00843,4.442,2.46154,1.90636-.54688,3.00843-2.53563,2.46155-4.442-.34137-1.18996-1.27159-2.12018-2.46155-2.46155v-4.116c1.53619-.44071,2.59608-1.84384,2.6-3.442ZM30.5,21.942v4.116c-1.17837.34229-2.09971,1.26363-2.442,2.442h-6.116c-.53964-1.90096-2.51814-3.00454-4.4191-2.4649-1.19338.33877-2.12613,1.27152-2.4649,2.4649h-6.116c-.34229-1.17837-1.26363-2.09971-2.442-2.442v-4.116c1.90096-.53964,3.00454-2.51814,2.4649-4.4191-.33877-1.19338-1.27152-2.12613-2.4649-2.4649v-4.116c1.17837-.34229,2.09971-1.26363,2.442-2.442h6.116c.53964,1.90096,2.51813,3.00454,4.4191,2.4649,1.19338-.33877,2.12613-1.27152,2.4649-2.4649h6.116c.34229,1.17837,1.26363,2.09971,2.442,2.442v4.116c-1.90096.53964-3.00454,2.51813-2.4649,4.4191.33877,1.19338,1.27152,2.12613,2.4649,2.4649Z"/>
</svg>