<svg xmlns="http://www.w3.org/2000/svg" data-name="S_TransitionWhipTopOverlay_16_N@2x" height="32" id="S_TransitionWhipTopOverlay_16_N_2x" viewBox="0 0 32 32" width="32">
  <defs>
    <style>
      .cls-1, .cls-5 {
        opacity: 0.5;
      }

      .cls-2, .cls-3, .cls-4, .cls-5, .cls-6, .cls-7 {
        fill: #fff;
      }

      .cls-2 {
        opacity: 0.8;
      }

      .cls-3 {
        opacity: 0.7;
      }

      .cls-4 {
        opacity: 0.6;
      }

      .cls-6 {
        opacity: 0.4;
      }

      .cls-7 {
        opacity: 0.3;
      }

      
    </style>
  </defs>
  <g>
    <rect class="cls-1" height="28" rx="0.5" transform="translate(0 32) rotate(-90)" width="28" x="2" y="2" />
    <path class="cls-2" d="M26,6V26L16,18,6,26V6Zm2-1a1,1,0,0,0-1-1H5A1,1,0,0,0,4,5V27a1,1,0,0,0,1,1H27a1,1,0,0,0,1-1Z" />
    <polygon class="cls-3" points="6 24 16 16 26 24 26 26 16 18 6 26 6 24" />
    <polygon class="cls-4" points="6 22 16 14 26 22 26 24 16 16 6 24 6 22" />
    <polygon class="cls-5" points="6 20 16 12 26 20 26 22 16 14 6 22 6 20" />
    <polygon class="cls-6" points="6 18 16 10 26 18 26 20 16 12 6 20 6 18" />
    <polygon class="cls-7" points="6 16 16 8 26 16 26 18 16 10 6 18 6 16" />
  </g>
  </svg>