<svg xmlns="http://www.w3.org/2000/svg" data-name="S_TransitionWhipRightOverlay_16_N@2x" height="32" id="S_TransitionWhipRightOverlay_16_N_2x" viewBox="0 0 32 32" width="32">
  <defs>
    <style>
      .cls-1, .cls-5 {
        opacity: 0.5;
      }

      .cls-2, .cls-3, .cls-4, .cls-5, .cls-6, .cls-7 {
        fill: #fff;
      }

      .cls-2 {
        opacity: 0.8;
      }

      .cls-3 {
        opacity: 0.7;
      }

      .cls-4 {
        opacity: 0.6;
      }

      .cls-6 {
        opacity: 0.4;
      }

      .cls-7 {
        opacity: 0.3;
      }

      
    </style>
  </defs>
  <g>
    <rect class="cls-1" height="28" rx="0.5" width="28" x="2" y="2" />
    <path class="cls-2" d="M26,6V26H6l8-10L6,6Zm1-2H5A1,1,0,0,0,4,5V27a1,1,0,0,0,1,1H27a1,1,0,0,0,1-1V5A1,1,0,0,0,27,4Z" />
    <polygon class="cls-3" points="6 26 14 16 6 6 8 6 16 16 8 26 6 26" />
    <polygon class="cls-4" points="8 26 16 16 8 6 10 6 18 16 10 26 8 26" />
    <polygon class="cls-5" points="10 26 18 16 10 6 12 6 20 16 12 26 10 26" />
    <polygon class="cls-6" points="12 26 20 16 12 6 14 6 22 16 14 26 12 26" />
    <polygon class="cls-7" points="14 26 22 16 14 6 16 6 24 16 16 26 14 26" />
  </g>
  </svg>