<svg xmlns="http://www.w3.org/2000/svg" data-name="S_TransitionSlideLeftOverlay_16_N@2x" height="32" id="S_TransitionSlideLeftOverlay_16_N_2x" viewBox="0 0 32 32" width="32">
  <defs>
    <style>
      .cls-1 {
        opacity: 0.5;
      }

      .cls-2 {
        fill: #fff;
        opacity: 0.8;
      }

      
    </style>
  </defs>
  <path class="cls-1" d="M12,4V3a1,1,0,0,1,1-1H29a1,1,0,0,1,1,1V29a1,1,0,0,1-1,1H13a1,1,0,0,1-1-1V28H3a1,1,0,0,1-1-1V5A1,1,0,0,1,3,4Z" />
  <path class="cls-2" d="M4,7V25a1,1,0,0,0,1,1h9v1a1,1,0,0,0,1,1H27a1,1,0,0,0,1-1V5a1,1,0,0,0-1-1H15a1,1,0,0,0-1,1V6H5A1,1,0,0,0,4,7ZM6,8h8V24H6Z" />
  </svg>