<svg id="SP_TrackA_Sm_N_D_2x" data-name="SP_TrackA_Sm_N_D@2x" xmlns="http://www.w3.org/2000/svg" width="32" height="32" viewBox="0 0 32 32">
  <defs>
    <style>
      .fill {
        fill: #fff;
        fill-rule: evenodd;
        opacity: 0.65;
      }

      
    </style>
  </defs>
  <title>SP_TrackA_Sm_N_D@2x</title>
  <path class="fill" d="M12.239,17.633l-1.512,4.241a0.147,0.147,0,0,1-.168.126H9.131a0.12,0.12,0,0,1-.126-0.168L13.582,9.088a2.21,2.21,0,0,0,.147-0.861,0.1,0.1,0,0,1,.1-0.105h2.058a0.105,0.105,0,0,1,.126.105l4.934,13.627c0.042,0.084.021,0.146-.084,0.146h-1.6a0.187,0.187,0,0,1-.168-0.105l-1.533-4.262H12.239Zm4.85-1.617c-0.462-1.364-1.785-5.039-2.184-6.467H14.884c-0.357,1.344-1.365,4.158-2.163,6.467h4.367Z"/>
  </svg>