<svg xmlns="http://www.w3.org/2000/svg" data-name="S_TransitionPushLeft_18_N_D@2x" height="36" id="S_TransitionPushLeft_18_N_D_2x" viewBox="0 0 36 36" width="36">
  <defs>
    <style>
      .fill {
        fill: #fff;
        opacity: 0.65;
      }

      
    </style>
  </defs>
  <path class="fill" d="M17.165,11.532A.5.5,0,0,1,18,11.9V16h9.5a.5.5,0,0,1,.5.5v3a.5.5,0,0,1-.5.5H18v4.1a.5.5,0,0,1-.835.371L10,17.992Z" />
  <path class="fill" d="M2,3V33a1,1,0,0,0,1,1H33a1,1,0,0,0,1-1V3a1,1,0,0,0-1-1H3A1,1,0,0,0,2,3ZM4,4H20V14h9a1,1,0,0,1,1,1v6a1,1,0,0,1-1,1H20V32H4Z" />
  </svg>