<svg id="SP_TrackB_Sm_N_D_2x" data-name="SP_TrackB_Sm_N_D@2x" xmlns="http://www.w3.org/2000/svg" width="32" height="32" viewBox="0 0 32 32">
  <defs>
    <style>
      .fill {
        fill: #fff;
        fill-rule: evenodd;
        opacity: 0.65;
      }

      
    </style>
  </defs>
  <title>SP_TrackB_Sm_N_D@2x</title>
  <path class="fill" d="M11.762,8.269c0-.105,0-0.146.1-0.168,0.777-.021,2.415-0.062,3.632-0.062,4.2,0,4.787,2.33,4.787,3.59a3.41,3.41,0,0,1-1.491,2.9A3.511,3.511,0,0,1,21,17.843C21,20.614,18.586,22,15.415,22c-1.428,0-2.729-.021-3.527-0.042a0.126,0.126,0,0,1-.126-0.146V8.269Zm1.722,5.605h1.953A13.384,13.384,0,0,1,17.41,14a2.427,2.427,0,0,0,1.155-2.143c0-1.574-1.155-2.309-3.17-2.309-0.693,0-1.512.021-1.911,0.041v4.283Zm0,6.572c0.462,0.021,1.134.042,1.785,0.042,2.331,0.042,3.926-.8,3.926-2.6a2.3,2.3,0,0,0-1.911-2.331,6.725,6.725,0,0,0-1.659-.146H13.484v5.039Z"/>
  </svg>