<svg xmlns="http://www.w3.org/2000/svg" data-name="S_TransitionWhipLeft_18_N_D@2x" height="36" id="S_TransitionWhipLeft_18_N_D_2x" viewBox="0 0 36 36" width="36">
  <defs>
    <style>
      .cls-1, .cls-2, .cls-3, .cls-4, .cls-5, .cls-6 {
        fill: #fff;
      }

      .fill {
        opacity: 0.65;
        fill: #fff;
      }

      .cls-1 {
        opacity: 0.55;
      }

      .cls-2 {
        opacity: 0.45;
      }

      .cls-3 {
        opacity: 0.35;
      }

      .cls-4 {
        opacity: 0.25;
      }

      .cls-5 {
        opacity: 0.15;
      }

      .cls-6 {
        opacity: 0.05;
      }

      
    </style>
  </defs>
  <path class="fill" d="M2,3V33a1,1,0,0,0,1,1H33a1,1,0,0,0,1-1V3a1,1,0,0,0-1-1H3A1,1,0,0,0,2,3ZM4,4H32L20,18,32,32H4Z" />
  <polygon class="cls-1" points="32 32 20 18 32 4 30 4 18 18 30 32 32 32" />
  <polygon class="cls-2" points="30 32 18 18 30 4 28 4 16 18 28 32 30 32" />
  <polygon class="cls-3" points="28 32 16 18 28 4 26 4 14 18 26 32 28 32" />
  <polygon class="cls-4" points="26 32 14 18 26 4 24 4 12 18 24 32 26 32" />
  <polygon class="cls-5" points="24 32 12 18 24 4 22 4 10 18 22 32 24 32" />
  <polygon class="cls-6" points="22 32 10 18 22 4 20 4 8 18 20 32 22 32" />
  </svg>