<svg id="S_TypeHoriz_Lg_N_2x" data-name="S_TypeHoriz_Lg_N@2x" xmlns="http://www.w3.org/2000/svg" width="44" height="36" viewBox="0 0 44 36">
  <defs>
    <style>
      .fill {
        fill: #fff;
        fill-rule: evenodd;
        opacity: 0.65;
      }

      
    </style>
  </defs>
  <title>S_TypeHoriz_Lg_N@2x</title>
  <path class="fill" d="M9,4A1,1,0,0,0,8,5v6a1,1,0,0,0,1,1h2a1,1,0,0,0,1-1V8h8V28H17a1,1,0,0,0-1,1v2a1,1,0,0,0,1,1H27a1,1,0,0,0,1-1V29a1,1,0,0,0-1-1H24V8h8v3a1,1,0,0,0,1,1h2a1,1,0,0,0,1-1V5a1,1,0,0,0-1-1H9Z"/>
  </svg>