<svg xmlns="http://www.w3.org/2000/svg" width="20" height="20" viewBox="0 0 20 20">
  <defs>
    <style>
      .fill {
        fill: #6e6e6e;
        fill-rule: evenodd;
      }
    </style>
  </defs>
  <g id="CheckmarkSize100">
    <path class="fill" d="M19.12842,1.42188a1.99919,1.99919,0,0,0-2.80664.3496l-9.35913,12.021L3.64941,9.73535a1.99993,1.99993,0,0,0-3.09863,2.5293l4.8999,6,.01307.01275a1.998,1.998,0,0,0,.30773.30072l.002.0011a1.97133,1.97133,0,0,0,.52392.28211c.04608.01739.09076.03259.13764.04638a1.99956,1.99956,0,0,0,.55871.0915L6.99854,19l.00122-.00012L7.001,19a2.00373,2.00373,0,0,0,.3985-.04462c.0371-.00757.07281-.01849.10949-.02813a1.97282,1.97282,0,0,0,.28223-.09778c.03882-.01673.07727-.03259.11511-.05182a1.99148,1.99148,0,0,0,.28955-.18164c.02-.015.04181-.02594.06122-.04169l.00806-.00549a1.998,1.998,0,0,0,.30084-.308l.01214-.01232,10.89991-14A1.99981,1.99981,0,0,0,19.12842,1.42188Z"/>
  </g>
</svg>
