<svg xmlns="http://www.w3.org/2000/svg" width="36" height="36" viewBox="0 0 36 36">
  <defs>
    <style>
      .fill {
        fill: #6e6e6e;
        fill-rule: evenodd;
      }
    </style>
  </defs>
<path class="fill" d="M29.9,24.7l5.4-5.4c0.5-0.5,0.5-1.3,0-1.8c-0.5-0.5-1.3-0.5-1.8,0L29,22.1l-4.5-4.5c-0.5-0.5-1.3-0.5-1.8,0
	c-0.5,0.5-0.5,1.3,0,1.8c0,0,0,0,0,0l0,0l5.4,5.4C28.6,25.2,29.4,25.2,29.9,24.7L29.9,24.7z"/>
<path class="fill" d="M24.7,28l-7-7C20.8,17,20.1,11.1,16,8S6.1,5.5,3,9.6s-2.4,9.9,1.6,13.1c3.4,2.6,8.1,2.6,11.4,0l7,7
	c0.5,0.5,1.2,0.5,1.6,0S25.1,28.5,24.7,28L24.7,28z M10.3,22.3c-3.8,0-7-3.1-7-7c0-3.8,3.1-7,7-7c3.8,0,7,3.1,7,7
	C17.3,19.2,14.2,22.3,10.3,22.3C10.3,22.3,10.3,22.3,10.3,22.3L10.3,22.3z"/>
</svg>
