<svg xmlns="http://www.w3.org/2000/svg" data-name="S_UndoTriBright_22x18_N_D@2x" height="36" id="S_UndoTriBright_22x18_N_D_2x" viewBox="0 0 44 36" width="44">
	<title>S_UndoTriBright_22x18_N_D@2x</title>
	<path fill="#e8e8e8" d="M30.664,12.542A10.4,10.4,0,0,0,23.672,10L10,10V4.5a.5.5,0,0,0-.856-.351l-7.4,7.5a.5.5,0,0,0,0,.7l7.4,7.5A.5.5,0,0,0,10,19.5V14H23.878A6.139,6.139,0,0,1,30.1,19.8,5.889,5.889,0,0,1,24,26H19a1,1,0,0,0-1,1v2a1,1,0,0,0,1,1h4.527a10.336,10.336,0,0,0,10.426-9.013A9.949,9.949,0,0,0,30.664,12.542Z" />
	<path fill="#e8e8e8" d="M32.683,30.82,37,36l4.317-5.18a.5.5,0,0,0-.385-.82H33.068a.5.5,0,0,0-.385.82Z" id="Fill" />
</svg>
