<svg xmlns="http://www.w3.org/2000/svg" data-name="S_Unknown_Xl_N_D@2x" height="64" id="S_Unknown_Xl_N_D_2x" viewBox="0 0 64 64" width="64">
  <defs>
    <style>
	.fill {
        fill: #fff;
        fill-rule: evenodd;
        opacity: 0.65;
      }</style>
  </defs>
  <title>S_Unknown_Xl_N_D@2x</title>
  <path class="fill" d="M32.057,20.565a10.828,10.828,0,0,0-5.3,1.259c-.139.073-.139.217-.139.36v3.487a.175.175,0,0,0,.278.143,8.665,8.665,0,0,1,4.4-1.186c2.128,0,2.966.9,2.966,2.193,0,1.115-.663,1.871-1.814,3.057-1.675,1.728-2.688,2.8-2.688,4.494a4.016,4.016,0,0,0,.838,2.483.574.574,0,0,0,.453.144H34.08a.153.153,0,0,0,.139-.252,3.874,3.874,0,0,1-.558-1.979c0-1.077,1.291-2.263,2.652-3.6a6.424,6.424,0,0,0,2.233-4.96C38.545,23.048,36.243,20.565,32.057,20.565Z" />
  <path class="fill" d="M32.371,40a2.351,2.351,0,0,0-2.443,2.48A2.326,2.326,0,0,0,32.371,45a2.291,2.291,0,0,0,2.442-2.518A2.352,2.352,0,0,0,32.371,40Z" />
  <path class="fill" d="M4,12V52a2,2,0,0,0,2,2H58a2,2,0,0,0,2-2V12a2,2,0,0,0-2-2H6A2,2,0,0,0,4,12ZM56,50H8V14H56Z" />
  </svg>