<svg id="S_Unlink_18_N" xmlns="http://www.w3.org/2000/svg" width="18" height="18" viewBox="0 0 18 18">
  <defs>
    <style>
      .cls-1, .cls-2 {
        fill: #707070;
      }

      .cls-1 {
        fill-rule: evenodd;
      }

      
    </style>
  </defs>
  <title>S_Unlink_18_N</title>
  <polygon class="cls-1" points="5.568 4.762 4.82 5.481 2.156 2.861 2.904 2.142 5.568 4.762"/>
  <polygon class="cls-1" points="15.901 15.139 15.153 15.858 12.503 13.191 13.251 12.471 15.901 15.139"/>
  <rect class="cls-2" x="5.529" y="0.9" width="1.157" height="2.314"/>
  <rect class="cls-2" x="0.9" y="5.529" width="2.314" height="1.157"/>
  <rect class="cls-2" x="14.786" y="11.314" width="2.314" height="1.157"/>
  <rect class="cls-2" x="11.314" y="14.786" width="1.157" height="2.314"/>
  <path class="cls-1" d="M9.026,11.854l-2.92,2.939a2.05,2.05,0,1,1-2.9-2.9L6.136,8.964,5.049,7.877,2.12,10.806A3.588,3.588,0,0,0,7.194,15.88l2.921-2.937Z"/>
  <path class="cls-1" d="M8.956,6.128l2.9-2.889a2.05,2.05,0,1,1,2.9,2.9l-2.9,2.9,1.087,1.087,2.9-2.9a3.588,3.588,0,0,0-5.074-5.074l-2.9,2.89Z"/>
  </svg>