<svg id="S_UnresolvedConflict_Xs_N_D_2x" data-name="S_UnresolvedConflict_Xs_N_D@2x" xmlns="http://www.w3.org/2000/svg" width="26" height="26" viewBox="0 0 26 26">
  <defs>
    <style>
      .red {
        fill: #f53c3c;
      }

      
    </style>
  </defs>
  <title>S_UnresolvedConflict_Xs_N_D@2x</title>
  <path class="red" d="M18,4V1.1a.5.5,0,0,0-.829-.376L10,7l7.171,6.274A.5.5,0,0,0,18,12.9V10h7.5a.5.5,0,0,0,.5-.5v-5a.5.5,0,0,0-.5-.5Z"/>
  <path class="red" d="M16,17,8.829,10.726A.5.5,0,0,0,8,11.1V14H.5a.5.5,0,0,0-.5.5v5a.5.5,0,0,0,.5.5H8v2.9a.5.5,0,0,0,.829.376Z"/>
  </svg>