<svg xmlns="http://www.w3.org/2000/svg" data-name="S_UploadToCloud_18_N_D@2x" height="36" id="S_UploadToCloud_18_N_D_2x" viewBox="0 0 36 36" width="36">
  <defs>
    <style>
	.fill {
        fill: #fff;
        fill-rule: evenodd;
        opacity: 0.65;
      }</style>
  </defs>
  <title>S_UploadToCloud_18_N_D@2x</title>
  <path class="fill" d="M20,26H16v9.485a.5.5,0,0,0,.5.5h3a.5.5,0,0,0,.5-.5Z" />
  <path class="fill" d="M29.144,11.242a7.415,7.415,0,0,0,.12-1.271c0-4.5-3.106-8.515-8.075-8.515-4.2,0-7.024,3.422-8.011,6.953a7.723,7.723,0,0,0-2.213-.325,6.779,6.779,0,0,0-6.75,6.776,5.841,5.841,0,0,0,.28,1.772c-.094-.006-.184-.026-.28-.026C1.79,16.607.04,19.445.04,21.374S1.766,26,3.9,26H16V20H11.669a.5.5,0,0,1-.352-.855L18,12.51l6.683,6.635a.5.5,0,0,1-.352.855H20v6h9.6l1.285-.211C33.821,25.248,36,22.755,36,18.874,36,14.7,32.136,11.74,29.144,11.242Z" />
  </svg>