<svg id="S_UsedVideo_17x15_N_2x" data-name="S_UsedVideo_17x15_N@2x" xmlns="http://www.w3.org/2000/svg" width="34" height="30" viewBox="0 0 34 30">
  <defs>
    <style>
      .background {
        opacity: 0.65;
      }

      .blue {
        fill: #2d8ceb;
      }

      
    </style>
  </defs>
  <title>S_UsedVideo_17x15_N@2x</title>
  <path class="background" d="M0,0H34V30H0V0Z"/>
  <path class="blue" d="M4,4H30V26H4V4ZM2,3V27a1,1,0,0,0,1,1H31a1,1,0,0,0,1-1V3a1,1,0,0,0-1-1H3A1,1,0,0,0,2,3Zm20,7V20h6V10H22Zm-8,0V20h6V10H14ZM6,10V20h6V10H6ZM26,22v2h2V22H26Zm-4,0v2h2V22H22Zm-4,0v2h2V22H18Zm-4,0v2h2V22H14Zm-4,0v2h2V22H10ZM6,22v2H8V22H6ZM26,6V8h2V6H26ZM22,6V8h2V6H22ZM18,6V8h2V6H18ZM14,6V8h2V6H14ZM10,6V8h2V6H10ZM6,6V8H8V6H6Z"/>
  <path class="blue" d="M6,10h6V20H6V10Z"/>
  <path class="blue" d="M14,10h6V20H14V10Z"/>
  <path class="blue" d="M22,10h6V20H22V10Z"/>
  </svg>