<svg id="S_UsedAudio_17x15_N_2x" data-name="S_UsedAudio_17x15_N@2x" xmlns="http://www.w3.org/2000/svg" width="34" height="30" viewBox="0 0 34 30">
  <defs>
    <style>
      .background {
        opacity: 0.65;
      }

      .blue {
        fill: #2d8ceb;
      }

      
    </style>
  </defs>
  <title>S_UsedAudio_17x15_N@2x</title>
  <path class="background" d="M0,0H34V30H0V0Z"/>
  <path class="blue" d="M4,4H30V26H4V4ZM2,3V27a1,1,0,0,0,1,1H31a1,1,0,0,0,1-1V3a1,1,0,0,0-1-1H3A1,1,0,0,0,2,3Z"/>
  <path class="blue" d="M28,14c-2.563,0-4.938-4.25-6-7.125V14c-3.256,0-3.848-5.289-4.7-8H16.93c-0.207,2.711-.946,8-2.93,8,0-.062-2,0-2,0-1.813,0-4-6-4-6v6H4v2H8l0.187,6s2.5-6,3.813-6h4l0.09,8h0.84c1.545-3.453,2.039-8,3.07-8h2v7.313C22.937,20.063,24.75,16,28,16h2V14H28Z"/>
  </svg>