<svg id="S_VertPathType_Lg_N_2x" data-name="S_VertPathType_Lg_N@2x" xmlns="http://www.w3.org/2000/svg" width="44" height="36" viewBox="0 0 44 36">
  <defs>
    <style>
      .fill {
        fill: #fff;
        fill-rule: evenodd;
        opacity: 0.65;
      }

      
    </style>
  </defs>
  <title>S_VertPathType_Lg_N@2x</title>
  <path class="fill" d="M15.682,12.306a0.5,0.5,0,0,0,0,.707l2.741,2.741a0.5,0.5,0,0,0,.707,0l0.707-.707a0.5,0.5,0,0,0,0-.707L18.157,12.66l2.828-2.828,9.9,9.9-1.061,1.061a0.5,0.5,0,0,0,0,.707l0.707,0.707a0.5,0.5,0,0,0,.707,0l4.95-4.95a0.5,0.5,0,0,0,0-.707l-0.707-.707a0.5,0.5,0,0,0-.707,0L33.713,16.9,23.814,7l2.828-2.828L28.3,5.836a0.5,0.5,0,0,0,.707,0l0.707-.707a0.5,0.5,0,0,0,0-.707L27,1.7a0.5,0.5,0,0,0-.707,0Z"/>
  <path class="fill" d="M35.493,28.092l-2.09,0A2.985,2.985,0,0,1,28.471,31.2c-1.034-1.038-15.374-15.849-15.525-16a5,5,0,0,0-8.439,4.52l2.09,0a3.041,3.041,0,0,1,.016-2.081A2.92,2.92,0,0,1,7.287,16.6a3,3,0,0,1,4.243.008c1.034,1.038,15.374,15.849,15.525,16A5,5,0,0,0,35.493,28.092Z"/>
  </svg>