<?xml version="1.0" encoding="UTF-8"?>
<svg id="ICONS" xmlns="http://www.w3.org/2000/svg" width="44" height="36" viewBox="0 0 44 36">
  <defs>
    <style>
      .fill {
        fill: #fff;
        opacity: .65;
      }
    </style>
  </defs>
  <path class="fill" d="M35.20818,11.37526L26.79218,2.96126c-.41704-.41682-1.09296-.41682-1.51,0l-3.717,3.716c-.33964.34472-.4003.87666-.147,1.289l8.42,8.42.008-.017.186.183c.4159.4167,1.09086.41734,1.50756.00144l.00144-.00144,3.667-3.666c.41636-.41624.4148-1.09282-.00144-1.50918-.00006-.00006-.00012-.00012.00143-.00182Z"/>
  <path class="fill" d="M19.53618,9.49826l-7.877,3.628c-.45726.2106-.81828.5859-1.011,1.051l-6.595,15.911c-.15508.37358-.06982.80378.216,1.09l.523.523,8.156-8.157c-.01904-.08356-.0314-.16848-.037-.254,0-1.10458.89544-2,2-2s2,.89542,2,2-.89544,2-2,2c-.09294-.00568-.18526-.01906-.276-.04l-8.147,8.148.592.592c.28598.28616.71622.37182,1.09.217l15.913-6.6c.46472-.19292.83964-.55392,1.05-1.011l3.628-7.876-9.225-9.222Z"/>
  <path class="fill" d="M17.07418,34.28341v-2c1.88574,0,3.79492-.25195,5.67383-.75195l.51366,1.93359c-2.04687.54297-4.1289.81836-6.18749.81836ZM27.17868,32.07442l-.81641-1.82422c1.74609-.7832,3.4082-1.77539,4.93945-2.94922l1.2168,1.58594c-1.6543,1.26953-3.45117,2.3418-5.33984,3.1875ZM35.60446,26.10763l-1.45117-1.375c1.33398-1.4082,2.48438-2.95898,3.41797-4.61328l1.74219.98438c-1.01465,1.79492-2.2627,3.48047-3.70898,5.00391Z"/>
</svg>