<svg id="S_VectorDraw_Lg_N_2x" data-name="S_VectorDraw_Lg_N@2x" xmlns="http://www.w3.org/2000/svg" width="44" height="36" viewBox="0 0 44 36">
  <defs>
    <style>
      .fill {
        fill: #fff;
        fill-rule: evenodd;
        opacity: 0.65;
      }

      
    </style>
  </defs>
  <title>S_VectorDraw_Lg_N@2x</title>
  <path class="fill" d="M37.134,11.26L28.718,2.846a1.068,1.068,0,0,0-1.51,0L23.491,6.562a1.053,1.053,0,0,0-.147,1.289l8.42,8.42,0.008-.017,0.186,0.184a1.068,1.068,0,0,0,1.51,0l3.667-3.667A1.068,1.068,0,0,0,37.134,11.26Z"/>
  <path class="fill" d="M21.462,9.383l-7.876,3.628a2,2,0,0,0-1.011,1.051l-6.6,15.912a1,1,0,0,0,.216,1.09l0.523,0.523,8.156-8.156a1.649,1.649,0,0,1-.037-0.254,2,2,0,1,1,2,2,1.668,1.668,0,0,1-.276-0.04L8.414,33.283l0.593,0.593a1,1,0,0,0,1.09.217l15.912-6.6a2,2,0,0,0,1.051-1.011l3.628-7.876Z"/>
  </svg>