<svg id="S_VideoSubClip_48x48_N_D_2x" data-name="S_VideoSubClip_48x48_N_D@2x" xmlns="http://www.w3.org/2000/svg" width="96" height="96" viewBox="0 0 96 96">
  <defs>
    <style>
      .fill {
        fill: #fff;
        fill-rule: evenodd;
        opacity: 0.65;
      }

      .cls-1 {
        fill: #a690e0;
        isolation: isolate;
      }

      
    </style>
  </defs>
  <title>S_VideoSubClip_48x48_N_D@2x</title>
  <path id="Fill" class="fill" d="M15,6H13a1,1,0,0,0-1,1V38L0,49,12,60V89a1,1,0,0,0,1,1h2a1,1,0,0,0,1-1V58L6,49l10-9V7A1,1,0,0,0,15,6ZM80,7V40l9.8,8.8L80,58V89a1,1,0,0,0,1,1h2a1,1,0,0,0,1-1V60L96,49,84,38V7a1,1,0,0,0-1-1H81A1,1,0,0,0,80,7Z"/>
  <path class="cls-1" d="M73,21H23a1,1,0,0,0-1,1V76a1,1,0,0,0,1,1H73a1,1,0,0,0,1-1V22A1,1,0,0,0,73,21ZM30,74.5a0.5,0.5,0,0,1-.5.5h-3a0.5,0.5,0,0,1-.5-0.5v-3a0.5,0.5,0,0,1,.5-0.5h3a0.5,0.5,0,0,1,.5.5v3Zm0-8a0.5,0.5,0,0,1-.5.5h-3a0.5,0.5,0,0,1-.5-0.5v-3a0.5,0.5,0,0,1,.5-0.5h3a0.5,0.5,0,0,1,.5.5v3Zm0-8a0.5,0.5,0,0,1-.5.5h-3a0.5,0.5,0,0,1-.5-0.5v-3a0.5,0.5,0,0,1,.5-0.5h3a0.5,0.5,0,0,1,.5.5v3Zm0-8a0.5,0.5,0,0,1-.5.5h-3a0.5,0.5,0,0,1-.5-0.5v-3a0.5,0.5,0,0,1,.5-0.5h3a0.5,0.5,0,0,1,.5.5v3Zm0-8a0.5,0.5,0,0,1-.5.5h-3a0.5,0.5,0,0,1-.5-0.5v-3a0.5,0.5,0,0,1,.5-0.5h3a0.5,0.5,0,0,1,.5.5v3Zm0-8a0.5,0.5,0,0,1-.5.5h-3a0.5,0.5,0,0,1-.5-0.5v-3a0.5,0.5,0,0,1,.5-0.5h3a0.5,0.5,0,0,1,.5.5v3Zm0-8a0.5,0.5,0,0,1-.5.5h-3a0.5,0.5,0,0,1-.5-0.5v-3a0.5,0.5,0,0,1,.5-0.5h3a0.5,0.5,0,0,1,.5.5v3Zm32,24a0.5,0.5,0,0,1-.5.5h-27a0.5,0.5,0,0,1-.5-0.5v-3a0.5,0.5,0,0,1,.5-0.5h27a0.5,0.5,0,0,1,.5.5v3Zm8,24a0.5,0.5,0,0,1-.5.5h-3a0.5,0.5,0,0,1-.5-0.5v-3a0.5,0.5,0,0,1,.5-0.5h3a0.5,0.5,0,0,1,.5.5v3Zm0-8a0.5,0.5,0,0,1-.5.5h-3a0.5,0.5,0,0,1-.5-0.5v-3a0.5,0.5,0,0,1,.5-0.5h3a0.5,0.5,0,0,1,.5.5v3Zm0-8a0.5,0.5,0,0,1-.5.5h-3a0.5,0.5,0,0,1-.5-0.5v-3a0.5,0.5,0,0,1,.5-0.5h3a0.5,0.5,0,0,1,.5.5v3Zm0-8a0.5,0.5,0,0,1-.5.5h-3a0.5,0.5,0,0,1-.5-0.5v-3a0.5,0.5,0,0,1,.5-0.5h3a0.5,0.5,0,0,1,.5.5v3Zm0-8a0.5,0.5,0,0,1-.5.5h-3a0.5,0.5,0,0,1-.5-0.5v-3a0.5,0.5,0,0,1,.5-0.5h3a0.5,0.5,0,0,1,.5.5v3Zm0-8a0.5,0.5,0,0,1-.5.5h-3a0.5,0.5,0,0,1-.5-0.5v-3a0.5,0.5,0,0,1,.5-0.5h3a0.5,0.5,0,0,1,.5.5v3Zm0-8a0.5,0.5,0,0,1-.5.5h-3a0.5,0.5,0,0,1-.5-0.5v-3a0.5,0.5,0,0,1,.5-0.5h3a0.5,0.5,0,0,1,.5.5v3Z"/>
  </svg>