<svg id="S_VideoTransitionShort_Sm_N_D_2x" data-name="S_VideoTransitionShort_Sm_N_D@2x" xmlns="http://www.w3.org/2000/svg" width="32" height="32" viewBox="0 0 32 32">
  <defs>
    <style>
      .fill {
        fill: #fff;
        fill-rule: evenodd;
        opacity: 0.65;
      }

      
    </style>
  </defs>
  <title>S_VideoTransitionShort_Sm_N_D@2x</title>
  <path class="fill" d="M27,4H5A1,1,0,0,0,4,5V16h6v6L26,6V26H10v2H27a1,1,0,0,0,1-1V5A1,1,0,0,0,27,4Z"/>
  <path id="Fill" class="fill" d="M.5,18H8v7.5a.5.5,0,0,1-.5.5h-1a.5.5,0,0,1-.5-.5V24L5,23s-5.244,2.875-.744,8.625C-4.369,26.75,3,21,3,21L2,20H.5a.5.5,0,0,1-.5-.5v-1A.5.5,0,0,1,.5,18Z"/>
  </svg>