<svg id="S_Video_Sm_N_D_2x" data-name="S_Video_Sm_N_D@2x" xmlns="http://www.w3.org/2000/svg" width="32" height="32" viewBox="0 0 32 32">
  <defs>
    <style>
      .fill {
        fill: #fff;
        fill-rule: evenodd;
        opacity: 0.65;
      }

      
    </style>
  </defs>
  <title>S_Video_Sm_N_D@2x</title>
  <path class="fill" d="M26.933,2H5.067A1.035,1.035,0,0,0,4,3V27a1.035,1.035,0,0,0,1.067,1H26.933A1.035,1.035,0,0,0,28,27V3A1.035,1.035,0,0,0,26.933,2ZM21.6,15.5a0.517,0.517,0,0,1-.533.5H10.933a0.517,0.517,0,0,1-.533-0.5v-1a0.517,0.517,0,0,1,.533-0.5H21.067a0.517,0.517,0,0,1,.533.5v1Zm4.4,10a0.5,0.5,0,0,1-.5.5h-1a0.5,0.5,0,0,1-.5-0.5v-1a0.5,0.5,0,0,1,.5-0.5h1a0.5,0.5,0,0,1,.5.5v1Zm0-4a0.5,0.5,0,0,1-.5.5h-1a0.5,0.5,0,0,1-.5-0.5v-1a0.5,0.5,0,0,1,.5-0.5h1a0.5,0.5,0,0,1,.5.5v1Zm0-4a0.5,0.5,0,0,1-.5.5h-1a0.5,0.5,0,0,1-.5-0.5v-1a0.5,0.5,0,0,1,.5-0.5h1a0.5,0.5,0,0,1,.5.5v1Zm0-4a0.5,0.5,0,0,1-.5.5h-1a0.5,0.5,0,0,1-.5-0.5v-1a0.5,0.5,0,0,1,.5-0.5h1a0.5,0.5,0,0,1,.5.5v1Zm0-4a0.5,0.5,0,0,1-.5.5h-1A0.5,0.5,0,0,1,24,9.5v-1A0.5,0.5,0,0,1,24.5,8h1a0.5,0.5,0,0,1,.5.5v1Zm0-4a0.5,0.5,0,0,1-.5.5h-1A0.5,0.5,0,0,1,24,5.5v-1A0.5,0.5,0,0,1,24.5,4h1a0.5,0.5,0,0,1,.5.5v1ZM8,25.5a0.5,0.5,0,0,1-.5.5h-1A0.5,0.5,0,0,1,6,25.5v-1A0.5,0.5,0,0,1,6.5,24h1a0.5,0.5,0,0,1,.5.5v1Zm0-4a0.5,0.5,0,0,1-.5.5h-1A0.5,0.5,0,0,1,6,21.5v-1A0.5,0.5,0,0,1,6.5,20h1a0.5,0.5,0,0,1,.5.5v1Zm0-4a0.5,0.5,0,0,1-.5.5h-1A0.5,0.5,0,0,1,6,17.5v-1A0.5,0.5,0,0,1,6.5,16h1a0.5,0.5,0,0,1,.5.5v1Zm0-4a0.5,0.5,0,0,1-.5.5h-1A0.5,0.5,0,0,1,6,13.5v-1A0.5,0.5,0,0,1,6.5,12h1a0.5,0.5,0,0,1,.5.5v1Zm0-4a0.5,0.5,0,0,1-.5.5h-1A0.5,0.5,0,0,1,6,9.5v-1A0.5,0.5,0,0,1,6.5,8h1a0.5,0.5,0,0,1,.5.5v1Zm0-4a0.5,0.5,0,0,1-.5.5h-1A0.5,0.5,0,0,1,6,5.5v-1A0.5,0.5,0,0,1,6.5,4h1a0.5,0.5,0,0,1,.5.5v1Z"/>
  </svg>