<svg id="S_Visibility_Sm_N_D_2x" data-name="S_Visibility_Sm_N_D@2x" xmlns="http://www.w3.org/2000/svg" width="32" height="32" viewBox="0 0 32 32">
  <defs>
    <style>
      .fill {
        fill: #fff;
        fill-rule: evenodd;
        opacity: 0.65;
      }

      
    </style>
  </defs>
  <title>S_Visibility_Sm_N_D@2x</title>
  <path class="fill" d="M15.98,16a1.05,1.05,0,0,1,1.04-1.06A1.067,1.067,0,0,1,18.08,16a1.054,1.054,0,0,1-1.06,1.06A1.037,1.037,0,0,1,15.98,16Z"/>
  <path class="fill" d="M2,17.54S7.06,25,15.06,25,28,17.54,28,17.54,23.06,9,15.06,9C7.12,9,2,17.54,2,17.54ZM9.28,17A5.722,5.722,0,1,1,15,22.86,5.788,5.788,0,0,1,9.28,17Z"/>
  </svg>