<svg id="S_VideoColored_64x64_N_D_2x" data-name="S_VideoColored_64x64_N_D@2x" xmlns="http://www.w3.org/2000/svg" width="128" height="128" viewBox="0 0 128 128">
  <defs>
    <style>
      .cls-1 {
        fill: #a690e0;
        isolation: isolate;
      }

      
    </style>
  </defs>
  <title>S_VideoColored_64x64_N_D@2x</title>
  <path class="cls-1" d="M114,8H14a2,2,0,0,0-2,2V118a2,2,0,0,0,2,2H114a2,2,0,0,0,2-2V10A2,2,0,0,0,114,8ZM28,115a1,1,0,0,1-1,1H21a1,1,0,0,1-1-1v-6a1,1,0,0,1,1-1h6a1,1,0,0,1,1,1v6Zm0-16a1,1,0,0,1-1,1H21a1,1,0,0,1-1-1V93a1,1,0,0,1,1-1h6a1,1,0,0,1,1,1v6Zm0-16a1,1,0,0,1-1,1H21a1,1,0,0,1-1-1V77a1,1,0,0,1,1-1h6a1,1,0,0,1,1,1v6Zm0-16a1,1,0,0,1-1,1H21a1,1,0,0,1-1-1V61a1,1,0,0,1,1-1h6a1,1,0,0,1,1,1v6Zm0-16a1,1,0,0,1-1,1H21a1,1,0,0,1-1-1V45a1,1,0,0,1,1-1h6a1,1,0,0,1,1,1v6Zm0-16a1,1,0,0,1-1,1H21a1,1,0,0,1-1-1V29a1,1,0,0,1,1-1h6a1,1,0,0,1,1,1v6Zm0-16a1,1,0,0,1-1,1H21a1,1,0,0,1-1-1V13a1,1,0,0,1,1-1h6a1,1,0,0,1,1,1v6ZM92,67a1,1,0,0,1-1,1H37a1,1,0,0,1-1-1V61a1,1,0,0,1,1-1H91a1,1,0,0,1,1,1v6Zm16,48a1,1,0,0,1-1,1h-6a1,1,0,0,1-1-1v-6a1,1,0,0,1,1-1h6a1,1,0,0,1,1,1v6Zm0-16a1,1,0,0,1-1,1h-6a1,1,0,0,1-1-1V93a1,1,0,0,1,1-1h6a1,1,0,0,1,1,1v6Zm0-16a1,1,0,0,1-1,1h-6a1,1,0,0,1-1-1V77a1,1,0,0,1,1-1h6a1,1,0,0,1,1,1v6Zm0-16a1,1,0,0,1-1,1h-6a1,1,0,0,1-1-1V61a1,1,0,0,1,1-1h6a1,1,0,0,1,1,1v6Zm0-16a1,1,0,0,1-1,1h-6a1,1,0,0,1-1-1V45a1,1,0,0,1,1-1h6a1,1,0,0,1,1,1v6Zm0-16a1,1,0,0,1-1,1h-6a1,1,0,0,1-1-1V29a1,1,0,0,1,1-1h6a1,1,0,0,1,1,1v6Zm0-16a1,1,0,0,1-1,1h-6a1,1,0,0,1-1-1V13a1,1,0,0,1,1-1h6a1,1,0,0,1,1,1v6Z"/>
  </svg>