<svg id="S_VisibilityOff_Sm_N_2x" data-name="S_VisibilityOff_Sm_N@2x" xmlns="http://www.w3.org/2000/svg" width="32" height="32" viewBox="0 0 32 32">
  <defs>
    <style>
      .fill {
        fill-rule: evenodd;
        opacity: 0.65;
      }

      
    </style>
  </defs>
  <title>S_VisibilityOff_Sm_N@2x</title>
  <path class="fill" d="M16.839,22.232a5.57,5.57,0,0,1-1.979.368,5.732,5.732,0,0,1-5.323-7.669L6.744,12.138A22.085,22.085,0,0,0,2,17.3s5,7.4,12.92,7.4a12.791,12.791,0,0,0,3.8-.591Z"/>
  <path class="fill" d="M12.9,11.5a5.574,5.574,0,0,1,1.964-.362,5.693,5.693,0,0,1,5.66,5.72,5.8,5.8,0,0,1-.335,1.932l3.034,3.034a19.773,19.773,0,0,0,4.5-4.526s-4.88-8.26-12.8-8.26a11.572,11.572,0,0,0-3.816.67Z"/>
  <path class="fill" d="M27.151,27.725l-9.339-9.338A3.352,3.352,0,0,0,17.978,18a3.469,3.469,0,0,0,.162-0.979,2.485,2.485,0,0,0-.08-0.66,1.839,1.839,0,0,1-.82.2,1.8,1.8,0,0,1-1.012-.311l-0.486-.486a1.841,1.841,0,0,1-.322-1.043,1.772,1.772,0,0,1,.22-0.86,2.618,2.618,0,0,0-2.055.3L4.856,5.432a0.5,0.5,0,0,0-.707,0l-0.707.707a0.5,0.5,0,0,0,0,.707l8.738,8.737a2.69,2.69,0,0,0-.177.4,3.5,3.5,0,0,0-.182,1.038,3.2,3.2,0,0,0,3.16,3.24,3.072,3.072,0,0,0,1.091-.21,2.748,2.748,0,0,0,.39-0.186l9.276,9.275a0.5,0.5,0,0,0,.707,0l0.707-.707A0.5,0.5,0,0,0,27.151,27.725Z"/>
  </svg>