<?xml version="1.0" encoding="UTF-8"?>
<svg id="ICONS" xmlns="http://www.w3.org/2000/svg" width="32" height="32" viewBox="0 0 32 32">
  <defs>
    <style>
      .fill {
        fill: #fff;
        opacity: .65;
      }

      .cls-1 {
        fill: #a690e0;
        isolation: isolate;
      }
    </style>
  </defs>
  <path class="cls-1" d="M19.19995,20.2002c0-.55273.44775-1,1-1h7.80005V3c-.01904-.57031-.49646-1.01758-1.06702-1H5.06702c-.57056-.01758-1.04797.42969-1.06702,1v24c.01904.57031.49646,1.01758,1.06702,1h14.13293v-7.7998ZM24,4.5c0-.27637.22388-.5.5-.5h1c.27612,0,.5.22363.5.5v1c0,.27637-.22388.5-.5.5h-1c-.27612,0-.5-.22363-.5-.5v-1ZM24,8.5c0-.27637.22388-.5.5-.5h1c.27612,0,.5.22363.5.5v1c0,.27637-.22388.5-.5.5h-1c-.27612,0-.5-.22363-.5-.5v-1ZM24,12.5c0-.27637.22388-.5.5-.5h1c.27612,0,.5.22363.5.5v1c0,.27637-.22388.5-.5.5h-1c-.27612,0-.5-.22363-.5-.5v-1ZM24,16.5c0-.27637.22388-.5.5-.5h1c.27612,0,.5.22363.5.5v1c0,.27637-.22388.5-.5.5h-1c-.27612,0-.5-.22363-.5-.5v-1ZM8,25.5c0,.27637-.22388.5-.5.5h-1c-.27612,0-.5-.22363-.5-.5v-1c0-.27637.22388-.5.5-.5h1c.27612,0,.5.22363.5.5v1ZM8,21.5c0,.27637-.22388.5-.5.5h-1c-.27612,0-.5-.22363-.5-.5v-1c0-.27637.22388-.5.5-.5h1c.27612,0,.5.22363.5.5v1ZM8,17.5c0,.27637-.22388.5-.5.5h-1c-.27612,0-.5-.22363-.5-.5v-1c0-.27637.22388-.5.5-.5h1c.27612,0,.5.22363.5.5v1ZM8,13.5c0,.27637-.22388.5-.5.5h-1c-.27612,0-.5-.22363-.5-.5v-1c0-.27637.22388-.5.5-.5h1c.27612,0,.5.22363.5.5v1ZM8,9.5c0,.27637-.22388.5-.5.5h-1c-.27612,0-.5-.22363-.5-.5v-1c0-.27637.22388-.5.5-.5h1c.27612,0,.5.22363.5.5v1ZM8,5.5c0,.27637-.22388.5-.5.5h-1c-.27612,0-.5-.22363-.5-.5v-1c0-.27637.22388-.5.5-.5h1c.27612,0,.5.22363.5.5v1ZM10.40002,15.5v-1c.00928-.28516.2478-.50879.53296-.5h10.13403c.28516-.00879.52368.21484.53296.5v1c-.00916.28516-.2478.50879-.53296.5h-10.13403c-.28516.00879-.52368-.21484-.53296-.5Z"/>
  <rect class="fill" x="28" y="28" width="4" height="4" rx=".5" ry=".5"/>
  <rect class="fill" x="22" y="28" width="4" height="4" rx=".5" ry=".5"/>
  <rect class="fill" x="28" y="22" width="4" height="4" rx=".5" ry=".5"/>
  <rect class="fill" x="22" y="22" width="4" height="4" rx=".5" ry=".5"/>
</svg>