<svg id="S_VideoSubClip_64x64_N_D_2x" data-name="S_VideoSubClip_64x64_N_D@2x" xmlns="http://www.w3.org/2000/svg" width="128" height="128" viewBox="0 0 128 128">
  <defs>
    <style>
      .fill {
        fill: #fff;
        fill-rule: evenodd;
        opacity: 0.65;
      }

      .cls-1 {
        fill: #a690e0;
      }

      
    </style>
  </defs>
  <title>S_VideoSubClip_64x64_N_D@2x</title>
  <path class="fill" d="M112,49.021V10a2,2,0,0,0-2-2h-2a2,2,0,0,0-2,2V51.921l12,12-12,11V118a2,2,0,0,0,2,2h2a2,2,0,0,0,2-2V78l15.119-13.859Z"/>
  <path class="fill" d="M18,120h2a2,2,0,0,0,2-2V74.921l-12-11,12-12V10a2,2,0,0,0-2-2H18a2,2,0,0,0-2,2V49.021L0.881,64.141,16,78v40A2,2,0,0,0,18,120Z"/>
  <path class="cls-1" d="M98,18H30a2,2,0,0,0-2,2v86a2,2,0,0,0,2,2H98a2,2,0,0,0,2-2V20A2,2,0,0,0,98,18ZM40,101.25a0.721,0.721,0,0,1-.689.75H34.689A0.721,0.721,0,0,1,34,101.25v-4.5A0.721,0.721,0,0,1,34.689,96h4.623a0.721,0.721,0,0,1,.689.75v4.5Zm0-12a0.721,0.721,0,0,1-.689.75H34.689A0.721,0.721,0,0,1,34,89.25v-4.5A0.721,0.721,0,0,1,34.689,84h4.623a0.721,0.721,0,0,1,.689.75v4.5Zm0-12a0.721,0.721,0,0,1-.689.75H34.689A0.721,0.721,0,0,1,34,77.25v-4.5A0.721,0.721,0,0,1,34.689,72h4.623a0.721,0.721,0,0,1,.689.75v4.5Zm0-12a0.721,0.721,0,0,1-.689.75H34.689A0.721,0.721,0,0,1,34,65.25v-4.5A0.721,0.721,0,0,1,34.689,60h4.623a0.721,0.721,0,0,1,.689.75v4.5Zm0-12a0.721,0.721,0,0,1-.689.75H34.689A0.721,0.721,0,0,1,34,53.25v-4.5A0.721,0.721,0,0,1,34.689,48h4.623a0.721,0.721,0,0,1,.689.75v4.5Zm0-12a0.721,0.721,0,0,1-.689.75H34.689A0.721,0.721,0,0,1,34,41.25v-4.5A0.721,0.721,0,0,1,34.689,36h4.623a0.721,0.721,0,0,1,.689.75v4.5Zm0-12a0.721,0.721,0,0,1-.689.75H34.689A0.721,0.721,0,0,1,34,29.25v-4.5A0.721,0.721,0,0,1,34.689,24h4.623a0.721,0.721,0,0,1,.689.75v4.5ZM82,65.2a0.8,0.8,0,0,1-.8.8H46.8a0.8,0.8,0,0,1-.8-0.8V60.8a0.8,0.8,0,0,1,.8-0.8H81.2a0.8,0.8,0,0,1,.8.8V65.2ZM94,101.25a0.721,0.721,0,0,1-.689.75H88.689A0.721,0.721,0,0,1,88,101.25v-4.5A0.721,0.721,0,0,1,88.689,96h4.623a0.721,0.721,0,0,1,.689.75v4.5Zm0-12a0.721,0.721,0,0,1-.689.75H88.689A0.721,0.721,0,0,1,88,89.25v-4.5A0.721,0.721,0,0,1,88.689,84h4.623a0.721,0.721,0,0,1,.689.75v4.5Zm0-12a0.721,0.721,0,0,1-.689.75H88.689A0.721,0.721,0,0,1,88,77.25v-4.5A0.721,0.721,0,0,1,88.689,72h4.623a0.721,0.721,0,0,1,.689.75v4.5Zm0-12a0.721,0.721,0,0,1-.689.75H88.689A0.721,0.721,0,0,1,88,65.25v-4.5A0.721,0.721,0,0,1,88.689,60h4.623a0.721,0.721,0,0,1,.689.75v4.5Zm0-12a0.721,0.721,0,0,1-.689.75H88.689A0.721,0.721,0,0,1,88,53.25v-4.5A0.721,0.721,0,0,1,88.689,48h4.623a0.721,0.721,0,0,1,.689.75v4.5Zm0-12a0.721,0.721,0,0,1-.689.75H88.689A0.721,0.721,0,0,1,88,41.25v-4.5A0.721,0.721,0,0,1,88.689,36h4.623a0.721,0.721,0,0,1,.689.75v4.5Zm0-12a0.721,0.721,0,0,1-.689.75H88.689A0.721,0.721,0,0,1,88,29.25v-4.5A0.721,0.721,0,0,1,88.689,24h4.623a0.721,0.721,0,0,1,.689.75v4.5Z"/>
  </svg>