<?xml version="1.0" encoding="UTF-8"?>
<svg id="ICONS" xmlns="http://www.w3.org/2000/svg" width="96" height="96" viewBox="0 0 96 96">
  <defs>
    <style>
      .fill {
        fill: #fff;
        opacity: .65;
      }

      .cls-1 {
        fill: #a690e0;
        isolation: isolate;
      }
    </style>
  </defs>
  <rect class="fill" x="84" y="84" width="12" height="12" rx=".5" ry=".5"/>
  <rect class="fill" x="68" y="84" width="12" height="12" rx=".5" ry=".5"/>
  <rect class="fill" x="84" y="68" width="12" height="12" rx=".5" ry=".5"/>
  <rect class="fill" x="68" y="68" width="12" height="12" rx=".5" ry=".5"/>
  <path class="cls-1" d="M66,64h22V7.5c0-.82843-.67157-1.5-1.5-1.5H9.5c-.82843,0-1.5.67157-1.5,1.5v81c0,.82843.67157,1.5,1.5,1.5h54.5v-24c0-1.10457.89543-2,2-2ZM76,9.75c0-.41421.33579-.75.75-.75h4.5c.41421,0,.75.33579.75.75v4.5c0,.41421-.33579.75-.75.75h-4.5c-.41421,0-.75-.33579-.75-.75v-4.5ZM76,21.75c0-.41421.33579-.75.75-.75h4.5c.41421,0,.75.33579.75.75v4.5c0,.41421-.33579.75-.75.75h-4.5c-.41421,0-.75-.33579-.75-.75v-4.5ZM76,33.75c0-.41421.33579-.75.75-.75h4.5c.41421,0,.75.33579.75.75v4.5c0,.41421-.33579.75-.75.75h-4.5c-.41421,0-.75-.33579-.75-.75v-4.5ZM76,45.75c0-.41421.33579-.75.75-.75h4.5c.41421,0,.75.33579.75.75v4.5c0,.41421-.33579.75-.75.75h-4.5c-.41421,0-.75-.33579-.75-.75v-4.5ZM76,57.75c0-.41421.33579-.75.75-.75h4.5c.41421,0,.75.33579.75.75v4.5c0,.41421-.33579.75-.75.75h-4.5c-.41421,0-.75-.33579-.75-.75v-4.5ZM20,86.25c0,.41421-.33579.75-.75.75h-4.5c-.41421,0-.75-.33579-.75-.75v-4.5c0-.41421.33579-.75.75-.75h4.5c.41421,0,.75.33579.75.75v4.5ZM20,74.25c0,.41421-.33579.75-.75.75h-4.5c-.41421,0-.75-.33579-.75-.75v-4.5c0-.41421.33579-.75.75-.75h4.5c.41421,0,.75.33579.75.75v4.5ZM20,62.25c0,.41421-.33579.75-.75.75h-4.5c-.41421,0-.75-.33579-.75-.75v-4.5c0-.41421.33579-.75.75-.75h4.5c.41421,0,.75.33579.75.75v4.5ZM20,50.25c0,.41421-.33579.75-.75.75h-4.5c-.41421,0-.75-.33579-.75-.75v-4.5c0-.41421.33579-.75.75-.75h4.5c.41421,0,.75.33579.75.75v4.5ZM20,38.25c0,.41421-.33579.75-.75.75h-4.5c-.41421,0-.75-.33579-.75-.75v-4.5c0-.41421.33579-.75.75-.75h4.5c.41421,0,.75.33579.75.75v4.5ZM20,26.25c0,.41421-.33579.75-.75.75h-4.5c-.41421,0-.75-.33579-.75-.75v-4.5c0-.41421.33579-.75.75-.75h4.5c.41421,0,.75.33579.75.75v4.5ZM20,14.25c0,.41421-.33579.75-.75.75h-4.5c-.41421,0-.75-.33579-.75-.75v-4.5c0-.41421.33579-.75.75-.75h4.5c.41421,0,.75.33579.75.75v4.5ZM26,50.25v-4.5c0-.41421.33579-.75.75-.75h42.5c.41421,0,.75.33579.75.75v4.5c0,.41421-.33579.75-.75.75H26.75c-.41421,0-.75-.33579-.75-.75Z"/>
</svg>