<?xml version="1.0" encoding="UTF-8"?>
<svg id="ICONS" xmlns="http://www.w3.org/2000/svg" width="36" height="36" viewBox="0 0 36 36">
  <defs>
    <style>
      .fill {
        fill: #fff;
        opacity: .65;
      }
    </style>
  </defs>
  <path class="fill" d="M30,6v24H6V6h24M30,4H6c-1.10461,0-2,.89551-2,2v24c0,1.10449.89539,2,2,2h24c1.10461,0,2-.89551,2-2V6c0-1.10449-.89539-2-2-2h0Z"/>
  <path class="fill" d="M12.83594,25.8125c-.12891-.05078-.1543-.15625-.1543-.3125v-1.87109c0-.10352.07617-.15625.18164-.07812,1.35156.91016,3.01562,1.27344,4.44531,1.27344,2.49609,0,3.64062-1.11719,3.64062-2.67773,0-1.2207-.70312-2.13086-3.06836-3.19727l-1.14453-.46875c-3.22266-1.37695-3.95117-3.01562-3.95117-4.75781,0-2.70508,2.08008-4.62891,5.58984-4.62891,1.63867,0,3.04297.25977,3.84766.70312.10547.05078.13086.12891.13086.25977v1.74219c0,.10352-.07812.18164-.20898.10352-.91016-.57227-2.33984-.85742-3.82227-.85742-2.70312,0-3.43164,1.4043-3.43164,2.49609,0,1.16992.67578,2.05273,2.99023,3.04102l1.11914.46875c3.19727,1.35156,4.13281,2.96484,4.13281,4.91406,0,2.80859-2.10547,4.83594-5.90234,4.83594-1.79297,0-3.37891-.39062-4.39453-.98828Z"/>
</svg>