<svg id="S_VideoSubClip_Xl_N_D_2x" data-name="S_VideoSubClip_Xl_N_D@2x" xmlns="http://www.w3.org/2000/svg" width="64" height="64" viewBox="0 0 64 64">
  <defs>
    <style>
      .fill {
        fill: #fff;
        opacity: 0.65;
      }

      .cls-1, .fill {
        fill-rule: evenodd;
      }

      .cls-1 {
        fill: #a690e0;
      }

      
    </style>
  </defs>
  <title>S_VideoSubClip_Xl_N_D@2x</title>
  <path class="fill" d="M10,24.373l-8.492,8.71L10,41.647V59a1,1,0,0,0,1,1h2a1,1,0,0,0,1-1V40L7.118,33.059,14,26V5a1,1,0,0,0-1-1H11a1,1,0,0,0-1,1V24.373Z"/>
  <path class="fill" d="M54,24.343V5a1,1,0,0,0-1-1H51a1,1,0,0,0-1,1V26l7,7-7,7V59a1,1,0,0,0,1,1h2a1,1,0,0,0,1-1V41.657L62.657,33Z"/>
  <path class="cls-1" d="M47,13H17a1,1,0,0,0-1,1V49a1,1,0,0,0,1,1H47a1,1,0,0,0,1-1V14A1,1,0,0,0,47,13ZM21,47a1,1,0,0,1-1,1H19a1,1,0,0,1-1-1V46a1,1,0,0,1,1-1h1a1,1,0,0,1,1,1v1Zm0-6a1,1,0,0,1-1,1H19a1,1,0,0,1-1-1V40a1,1,0,0,1,1-1h1a1,1,0,0,1,1,1v1Zm0-6a1,1,0,0,1-1,1H19a1,1,0,0,1-1-1V34a1,1,0,0,1,1-1h1a1,1,0,0,1,1,1v1Zm0-6a1,1,0,0,1-1,1H19a1,1,0,0,1-1-1V28a1,1,0,0,1,1-1h1a1,1,0,0,1,1,1v1Zm0-6a1,1,0,0,1-1,1H19a1,1,0,0,1-1-1V22a1,1,0,0,1,1-1h1a1,1,0,0,1,1,1v1Zm0-6a1,1,0,0,1-1,1H19a1,1,0,0,1-1-1V16a1,1,0,0,1,1-1h1a1,1,0,0,1,1,1v1ZM41,32a1,1,0,0,1-1,1H24a1,1,0,0,1-1-1V31a1,1,0,0,1,1-1H40a1,1,0,0,1,1,1v1Zm5,15a1,1,0,0,1-1,1H44a1,1,0,0,1-1-1V46a1,1,0,0,1,1-1h1a1,1,0,0,1,1,1v1Zm0-6a1,1,0,0,1-1,1H44a1,1,0,0,1-1-1V40a1,1,0,0,1,1-1h1a1,1,0,0,1,1,1v1Zm0-6a1,1,0,0,1-1,1H44a1,1,0,0,1-1-1V34a1,1,0,0,1,1-1h1a1,1,0,0,1,1,1v1Zm0-6a1,1,0,0,1-1,1H44a1,1,0,0,1-1-1V28a1,1,0,0,1,1-1h1a1,1,0,0,1,1,1v1Zm0-6a1,1,0,0,1-1,1H44a1,1,0,0,1-1-1V22a1,1,0,0,1,1-1h1a1,1,0,0,1,1,1v1Zm0-6a1,1,0,0,1-1,1H44a1,1,0,0,1-1-1V16a1,1,0,0,1,1-1h1a1,1,0,0,1,1,1v1Z"/>
  </svg>