<?xml version="1.0" encoding="UTF-8"?>
<svg id="ICONS" xmlns="http://www.w3.org/2000/svg" width="128" height="128" viewBox="0 0 128 128">
  <defs>
    <style>
      .fill {
        fill: #fff;
        opacity: .65;
      }

      .cls-1 {
        fill: #a690e0;
        isolation: isolate;
      }
    </style>
  </defs>
  <rect class="fill" x="112" y="112" width="16" height="16" rx="1" ry="1"/>
  <rect class="fill" x="92" y="112" width="16" height="16" rx="1" ry="1"/>
  <rect class="fill" x="112" y="91" width="16" height="16" rx="1" ry="1"/>
  <rect class="fill" x="92" y="91" width="16" height="16" rx="1" ry="1"/>
  <path class="cls-1" d="M90,87h26V10c0-1.10457-.89543-2-2-2H14c-1.10457,0-2,.89543-2,2v108c0,1.10457.89543,2,2,2h74v-31c0-1.10457.89543-2,2-2ZM100,13c0-.55225.44775-1,1-1h6c.55225,0,1,.44775,1,1v6c0,.55225-.44775,1-1,1h-6c-.55225,0-1-.44775-1-1v-6ZM100,29c0-.55225.44775-1,1-1h6c.55225,0,1,.44775,1,1v6c0,.55225-.44775,1-1,1h-6c-.55225,0-1-.44775-1-1v-6ZM100,45c0-.55225.44775-1,1-1h6c.55225,0,1,.44775,1,1v6c0,.55225-.44775,1-1,1h-6c-.55225,0-1-.44775-1-1v-6ZM100,61c0-.55225.44775-1,1-1h6c.55225,0,1,.44775,1,1v6c0,.55225-.44775,1-1,1h-6c-.55225,0-1-.44775-1-1v-6ZM100,77c0-.55225.44775-1,1-1h6c.55225,0,1,.44775,1,1v6c0,.55225-.44775,1-1,1h-6c-.55225,0-1-.44775-1-1v-6ZM28,115c0,.55225-.44775,1-1,1h-6c-.55225,0-1-.44775-1-1v-6c0-.55225.44775-1,1-1h6c.55225,0,1,.44775,1,1v6ZM28,99c0,.55225-.44775,1-1,1h-6c-.55225,0-1-.44775-1-1v-6c0-.55225.44775-1,1-1h6c.55225,0,1,.44775,1,1v6ZM28,83c0,.55225-.44775,1-1,1h-6c-.55225,0-1-.44775-1-1v-6c0-.55225.44775-1,1-1h6c.55225,0,1,.44775,1,1v6ZM28,67c0,.55225-.44775,1-1,1h-6c-.55225,0-1-.44775-1-1v-6c0-.55225.44775-1,1-1h6c.55225,0,1,.44775,1,1v6ZM28,51c0,.55225-.44775,1-1,1h-6c-.55225,0-1-.44775-1-1v-6c0-.55225.44775-1,1-1h6c.55225,0,1,.44775,1,1v6ZM28,35c0,.55225-.44775,1-1,1h-6c-.55225,0-1-.44775-1-1v-6c0-.55225.44775-1,1-1h6c.55225,0,1,.44775,1,1v6ZM28,19c0,.55225-.44775,1-1,1h-6c-.55225,0-1-.44775-1-1v-6c0-.55225.44775-1,1-1h6c.55225,0,1,.44775,1,1v6ZM36,67v-6c0-.55225.44775-1,1-1h54c.55225,0,1,.44775,1,1v6c0,.55225-.44775,1-1,1h-54c-.55225,0-1-.44775-1-1Z"/>
</svg>