<svg xmlns="http://www.w3.org/2000/svg" width="36" height="36" viewBox="0 0 36 36">
  <defs>
    <style>
      .blue {
        fill: #1473e6;
      }

      .fill {
        fill: #fff;
        fill-rule: evenodd;
        opacity: 0.65;
      }
    </style>
  </defs>
  <g id="icons">
    <circle class="blue" cx="26" cy="9.971" r="6.4"/>
    <path class="fill" d="M27.076,19.461A9.207,9.207,0,1,1,16.506,8.927,9.443,9.443,0,0,1,16.918,7C8.756,7.673,2.25,15.68,2.25,18.36c0,3,7.458,10.7,15.686,10.7,8.3,0,15.814-7.706,15.814-10.7a4.614,4.614,0,0,0-.647-1.99A9.532,9.532,0,0,1,27.076,19.461Z"/>
    <path class="fill" d="M16.953,13.049a5.061,5.061,0,1,0,6,5.98A9.575,9.575,0,0,1,16.953,13.049Z"/>
  </g>
</svg>
