<?xml version="1.0" encoding="UTF-8"?>
<svg id="ICONS" xmlns="http://www.w3.org/2000/svg" width="24" height="24" viewBox="0 0 24 24">
  <defs>
    <style>
      .cls-1 {
        fill: #fff;
        opacity: .85;
      }
    </style>
  </defs>
  <path class="cls-1" d="M21.9458,20.61572l-7.17676-7.17688c.22852-.43384.38086-.91443.38086-1.43896,0-.25916-.04639-.50452-.10889-.74377-.29346.46765-.78955.79565-1.38208.79565-.12329,0-.23169-.04456-.34717-.07007-.62842-.13843-1.10352-.61365-1.24194-1.24194-.02539-.1156-.07007-.22412-.07007-.34729,0-.45898.19507-.86182.50073-1.15601.10156-.09802.21582-.18408.33887-.25598-.26855-.07629-.54639-.13049-.8396-.13049-.52466,0-1.00513.15234-1.43872.38086L3.38428,2.0542c-.19531-.19531-.51172-.19531-.70703,0l-.1001.09998c-.04443.01843-.4043.37842-.4043.37842-.01855.04443-.20288.22876-.20288.22876-.19507.19519-.19507.51184,0,.70703l3.91626,3.91638c-2.23584,1.6825-3.68652,3.8457-3.68652,4.83936,0,1.86475,4.64062,6.65955,9.76025,6.65955,1.53149,0,3.00879-.43738,4.34375-1.08154l4.22803,4.22791c.19507.19519.51172.19519.70703,0l.18408-.18433c.04443-.01843.40454-.37842.40454-.37842.01831-.04443.11841-.14441.11841-.14441.19531-.19531.19531-.51184,0-.70715ZM11.99976,17.73987c-3.17017,0-5.73999-2.57019-5.73999-5.73999,0-1.20117.38721-2.30212,1.01978-3.22192l1.89966,1.89978c-.19385.40491-.32959.84302-.32959,1.32214,0,1.73975,1.41064,3.15002,3.15015,3.15002.47925,0,.91724-.13562,1.32227-.32947l1.89966,1.89954c-.91992.63257-2.02051,1.0199-3.22192,1.0199Z"/>
  <path class="cls-1" d="M10.12671,6.59668c.58936-.20544,1.21362-.33679,1.87305-.33679,3.17017,0,5.73999,2.5697,5.73999,5.73999,0,.6593-.13135,1.28357-.33691,1.87292l1.92822,1.9281c1.50439-1.31812,2.46875-2.74036,2.46875-3.57678,0-1.47119-2.62231-4.56787-5.6853-6.08533-1.38159-.67883-2.76562-1.02271-4.11475-1.02271-.99097,0-1.93921.20361-2.84204.51147l.96899.96912Z"/>
</svg>