<?xml version="1.0" encoding="UTF-8"?>
<svg id="icons" xmlns="http://www.w3.org/2000/svg" width="32" height="32" viewBox="0 0 32 32">
  <defs>
    <style>
      .fill {
        fill: #fff;
        opacity: .65;
        stroke-width: 0px;
      }
    </style>
  </defs>
  <path class="fill" d="m31.146,16.854l-1.412,1.412c-1.368-1.824-3.534-3.015-5.985-3.015-3.684,0-6.755,2.669-7.382,6.175-.054.3.194.575.499.575h1.027c.24,0,.435-.174.485-.408.534-2.477,2.736-4.342,5.371-4.342,1.9,0,3.565.978,4.553,2.447l-1.449,1.449c-.315.315-.092.854.354.854h4.793v-4.793c0-.445-.539-.669-.854-.354Z"/>
  <path class="fill" d="m29.478,24c-.223,0-.41.151-.476.365-.692,2.246-2.782,3.885-5.253,3.885-1.644,0-3.11-.734-4.118-1.882l1.514-1.514c.315-.315.092-.853-.354-.853h-4.793v4.793c0,.445.539.669.854.354l1.36-1.36c1.371,1.51,3.341,2.464,5.536,2.464,3.494,0,6.431-2.404,7.259-5.644.079-.309-.172-.606-.491-.606h-1.04l.002-.002Z"/>
  <path class="fill" d="m26.93298,2.00049H5.06702c-.57062-.01807-1.04797.4292-1.06702,1v24c.01904.5708.4964,1.01807,1.06702,1h8.93298v-5.50049c0-2.4834.91071-4.75098,2.40942-6.49951h-5.47644c-.28522.00879-.52374-.21484-.53296-.5v-1c.00922-.28516.24774-.50879.53296-.5h7.8172c1.52728-.94531,3.32166-1.50049,5.24982-1.50049h.00012c.00024-.27539.22394-.49951.49988-.49951h1c.27612,0,.5.22412.5.5v.2002c.69641.1416,1.36432.35889,2,.63721V3.00049c-.01904-.5708-.4964-1.01807-1.06702-1ZM8,25.50049c0,.27637-.22388.5-.5.5h-1c-.27612,0-.5-.22363-.5-.5v-1c0-.27588.22388-.5.5-.5h1c.27612,0,.5.22412.5.5v1Zm0-4c0,.27637-.22388.5-.5.5h-1c-.27612,0-.5-.22363-.5-.5v-1c0-.27588.22388-.5.5-.5h1c.27612,0,.5.22412.5.5v1Zm0-4c0,.27637-.22388.5-.5.5h-1c-.27612,0-.5-.22363-.5-.5v-1c0-.27588.22388-.5.5-.5h1c.27612,0,.5.22412.5.5v1Zm0-4c0,.27637-.22388.5-.5.5h-1c-.27612,0-.5-.22363-.5-.5v-1c0-.27588.22388-.5.5-.5h1c.27612,0,.5.22412.5.5v1Zm0-4c0,.27637-.22388.5-.5.5h-1c-.27612,0-.5-.22363-.5-.5v-1c0-.27588.22388-.5.5-.5h1c.27612,0,.5.22412.5.5v1Zm0-4c0,.27637-.22388.5-.5.5h-1c-.27612,0-.5-.22363-.5-.5v-1c0-.27588.22388-.5.5-.5h1c.27612,0,.5.22412.5.5v1Zm18,4c0,.27637-.22388.5-.5.5h-1c-.27612,0-.5-.22363-.5-.5v-1c0-.27588.22388-.5.5-.5h1c.27612,0,.5.22412.5.5v1Zm0-4c0,.27637-.22388.5-.5.5h-1c-.27612,0-.5-.22363-.5-.5v-1c0-.27588.22388-.5.5-.5h1c.27612,0,.5.22412.5.5v1Z"/>
</svg>