<svg id="S_VideoSubClip_Sm_N_D_2x" data-name="S_VideoSubClip_Sm_N_D@2x" xmlns="http://www.w3.org/2000/svg" width="32" height="32" viewBox="0 0 32 32">
  <defs>
    <style>
      .cls-1 {
        fill: #a690e0;
        isolation: isolate;
      }

      .cls-1, .fill {
        fill-rule: evenodd;
      }

      .fill {
        fill: #fff;
        opacity: 0.65;
      }

      
    </style>
  </defs>
  <title>S_VideoSubClip_Sm_N_D@2x</title>
  <path class="cls-1" d="M8,7V23a1,1,0,0,0,1,1H23a1,1,0,0,0,1-1V7a1,1,0,0,0-1-1H9A1,1,0,0,0,8,7Zm4,14.5a0.5,0.5,0,0,1-.5.5h-1a0.5,0.5,0,0,1-.5-0.5v-1a0.5,0.5,0,0,1,.5-0.5h1a0.5,0.5,0,0,1,.5.5v1Zm0-4a0.5,0.5,0,0,1-.5.5h-1a0.5,0.5,0,0,1-.5-0.5v-1a0.5,0.5,0,0,1,.5-0.5h1a0.5,0.5,0,0,1,.5.5v1Zm10,4a0.5,0.5,0,0,1-.5.5h-1a0.5,0.5,0,0,1-.5-0.5v-1a0.5,0.5,0,0,1,.5-0.5h1a0.5,0.5,0,0,1,.5.5v1Zm0-4a0.5,0.5,0,0,1-.5.5h-1a0.5,0.5,0,0,1-.5-0.5v-1a0.5,0.5,0,0,1,.5-0.5h1a0.5,0.5,0,0,1,.5.5v1Zm-10-4a0.5,0.5,0,0,1-.5.5h-1a0.5,0.5,0,0,1-.5-0.5v-1a0.5,0.5,0,0,1,.5-0.5h1a0.5,0.5,0,0,1,.5.5v1Zm10,0a0.5,0.5,0,0,1-.5.5h-1a0.5,0.5,0,0,1-.5-0.5v-1a0.5,0.5,0,0,1,.5-0.5h1a0.5,0.5,0,0,1,.5.5v1Zm-10-4a0.5,0.5,0,0,1-.5.5h-1A0.5,0.5,0,0,1,10,9.5v-1A0.5,0.5,0,0,1,10.5,8h1a0.5,0.5,0,0,1,.5.5v1Zm10,0a0.5,0.5,0,0,1-.5.5h-1A0.5,0.5,0,0,1,20,9.5v-1A0.5,0.5,0,0,1,20.5,8h1a0.5,0.5,0,0,1,.5.5v1Z"/>
  <path id="Brackets" class="fill" d="M28,29.5V21l4-5-4-5V2.5A0.5,0.5,0,0,0,27.5,2h-1a0.5,0.5,0,0,0-.5.5V12l3.5,4L26,20v9.5a0.5,0.5,0,0,0,.5.5h1A0.5,0.5,0,0,0,28,29.5ZM4,2.5V11L0,16l4,5v8.5a0.5,0.5,0,0,0,.5.5h1A0.5,0.5,0,0,0,6,29.5V20L2.5,16,6,12V2.5A0.5,0.5,0,0,0,5.5,2h-1A0.5,0.5,0,0,0,4,2.5Z"/>
  </svg>