<svg xmlns="http://www.w3.org/2000/svg" data-name="S_Vimeo_18_N_D@2x" height="36" id="S_Vimeo_18_N_D_2x" viewBox="0 0 36 36" width="36">
  <defs>
    <style>
	.fill {
        fill: #fff;
        fill-rule: evenodd;
        opacity: 0.65;
      }</style>
  </defs>
  <title>S_Vimeo_18_N_D@2x</title>
  <path class="fill" d="M2,3V33a1,1,0,0,0,1,1H33a1,1,0,0,0,1-1V3a1,1,0,0,0-1-1H3A1,1,0,0,0,2,3Zm27.38,9.505c-.105,2.3-1.711,5.458-4.772,9.4-3.227,4.193-5.906,6.232-8.19,6.232-1.465,0-2.7-1.314-3.671-3.905l-1.874-6.867c-.856-3.077-1.6-3.536-1.971-3.536A8.478,8.478,0,0,0,7.24,14.865l-.208.145-1.4-1.8.189-.166C7.031,11.985,8.134,11,9.2,10.039c1.584-1.368,2.754-2.068,3.582-2.144,1.953-.186,3.171,1.129,3.61,3.914.447,2.826.76,4.6.93,5.275.682,3.093,1.286,3.333,1.455,3.333s.714-.211,1.955-2.17a8.875,8.875,0,0,0,1.516-3.372,1.714,1.714,0,0,0-.267-1.342,1.325,1.325,0,0,0-1.024-.349,4.1,4.1,0,0,0-1.607.357l-.528.226.168-.549C20.157,9.386,22.44,7.487,25.763,7.6a3.533,3.533,0,0,1,2.6,1.035A5.207,5.207,0,0,1,29.38,12.505Z" />
  </svg>