<svg id="S_VideoAudio_Sm_N_D_2x" data-name="S_VideoAudio_Sm_N_D@2x" xmlns="http://www.w3.org/2000/svg" width="32" height="32" viewBox="0 0 32 32">
  <defs>
    <style>
      .fill {
        fill: #fff;
        fill-rule: evenodd;
        opacity: 0.65;
      }

      
    </style>
  </defs>
  <title>S_VideoAudio_Sm_N_D@2x</title>
  <path class="fill" d="M6,9H18.5A0.5,0.5,0,0,1,18,8.5v-1A0.5,0.5,0,0,1,18.5,7h1a0.5,0.5,0,0,1,.5.5v1a0.5,0.5,0,0,1-.5.5H22V2a1.035,1.035,0,0,0-1.067-1H1.067A1.035,1.035,0,0,0,0,2V22a1.035,1.035,0,0,0,1.067,1H6V9ZM18,3.5A0.5,0.5,0,0,1,18.5,3h1a0.5,0.5,0,0,1,.5.5v1a0.5,0.5,0,0,1-.5.5h-1A0.5,0.5,0,0,1,18,4.5v-1ZM4,20.5a0.5,0.5,0,0,1-.5.5h-1A0.5,0.5,0,0,1,2,20.5v-1A0.5,0.5,0,0,1,2.5,19h1a0.5,0.5,0,0,1,.5.5v1Zm0-4a0.5,0.5,0,0,1-.5.5h-1A0.5,0.5,0,0,1,2,16.5v-1A0.5,0.5,0,0,1,2.5,15h1a0.5,0.5,0,0,1,.5.5v1Zm0-4a0.5,0.5,0,0,1-.5.5h-1A0.5,0.5,0,0,1,2,12.5v-1A0.5,0.5,0,0,1,2.5,11h1a0.5,0.5,0,0,1,.5.5v1Zm0-4a0.5,0.5,0,0,1-.5.5h-1A0.5,0.5,0,0,1,2,8.5v-1A0.5,0.5,0,0,1,2.5,7h1a0.5,0.5,0,0,1,.5.5v1ZM3.5,5h-1A0.5,0.5,0,0,1,2,4.5v-1A0.5,0.5,0,0,1,2.5,3h1a0.5,0.5,0,0,1,.5.5v1A0.5,0.5,0,0,1,3.5,5Z"/>
  <path class="fill" d="M8,12V28a1,1,0,0,0,1,1H29a1,1,0,0,0,1-1V12a1,1,0,0,0-1-1H9A1,1,0,0,0,8,12ZM28,27H10V21h2l0.065,2.991s2.654-3.335,3.966-3.335L18,21s0.187,4.75.156,4.781c1.25-3.312,2.594-5.187,3.844-5.187L24,21s0.031,3.813.031,3.75c0.938-3.25.688-4.062,3.938-4.062a8.755,8.755,0,0,0,0-1.281c-2.562,0-2.906-.875-3.969-3.75V19a1.451,1.451,0,0,0-.625.25C19.375,19.25,19,14,19,14s-0.531,5.406-2.969,5.406c0-.062-0.031.031-0.031,0.031-1.813,0-4-3.812-4-3.812V19H10V13H28V27Z"/>
  </svg>