<svg id="S_VideoColored_Xl_N_D_2x" data-name="S_VideoColored_Xl_N_D@2x" xmlns="http://www.w3.org/2000/svg" width="64" height="64" viewBox="0 0 64 64">
  <defs>
    <style>
      .cls-1 {
        fill: #a690e0;
        isolation: isolate;
      }

      
    </style>
  </defs>
  <title>S_VideoColored_Xl_N_D@2x</title>
  <path class="cls-1" d="M57,4H7A1,1,0,0,0,6,5V59a1,1,0,0,0,1,1H57a1,1,0,0,0,1-1V5A1,1,0,0,0,57,4ZM14,57.5a0.5,0.5,0,0,1-.5.5h-3a0.5,0.5,0,0,1-.5-0.5v-3a0.5,0.5,0,0,1,.5-0.5h3a0.5,0.5,0,0,1,.5.5v3Zm0-8a0.5,0.5,0,0,1-.5.5h-3a0.5,0.5,0,0,1-.5-0.5v-3a0.5,0.5,0,0,1,.5-0.5h3a0.5,0.5,0,0,1,.5.5v3Zm0-8a0.5,0.5,0,0,1-.5.5h-3a0.5,0.5,0,0,1-.5-0.5v-3a0.5,0.5,0,0,1,.5-0.5h3a0.5,0.5,0,0,1,.5.5v3Zm0-8a0.5,0.5,0,0,1-.5.5h-3a0.5,0.5,0,0,1-.5-0.5v-3a0.5,0.5,0,0,1,.5-0.5h3a0.5,0.5,0,0,1,.5.5v3Zm0-8a0.5,0.5,0,0,1-.5.5h-3a0.5,0.5,0,0,1-.5-0.5v-3a0.5,0.5,0,0,1,.5-0.5h3a0.5,0.5,0,0,1,.5.5v3Zm0-8a0.5,0.5,0,0,1-.5.5h-3a0.5,0.5,0,0,1-.5-0.5v-3a0.5,0.5,0,0,1,.5-0.5h3a0.5,0.5,0,0,1,.5.5v3Zm0-8a0.5,0.5,0,0,1-.5.5h-3A0.5,0.5,0,0,1,10,9.5v-3A0.5,0.5,0,0,1,10.5,6h3a0.5,0.5,0,0,1,.5.5v3Zm32,24a0.5,0.5,0,0,1-.5.5h-27a0.5,0.5,0,0,1-.5-0.5v-3a0.5,0.5,0,0,1,.5-0.5h27a0.5,0.5,0,0,1,.5.5v3Zm8,24a0.5,0.5,0,0,1-.5.5h-3a0.5,0.5,0,0,1-.5-0.5v-3a0.5,0.5,0,0,1,.5-0.5h3a0.5,0.5,0,0,1,.5.5v3Zm0-8a0.5,0.5,0,0,1-.5.5h-3a0.5,0.5,0,0,1-.5-0.5v-3a0.5,0.5,0,0,1,.5-0.5h3a0.5,0.5,0,0,1,.5.5v3Zm0-8a0.5,0.5,0,0,1-.5.5h-3a0.5,0.5,0,0,1-.5-0.5v-3a0.5,0.5,0,0,1,.5-0.5h3a0.5,0.5,0,0,1,.5.5v3Zm0-8a0.5,0.5,0,0,1-.5.5h-3a0.5,0.5,0,0,1-.5-0.5v-3a0.5,0.5,0,0,1,.5-0.5h3a0.5,0.5,0,0,1,.5.5v3Zm0-8a0.5,0.5,0,0,1-.5.5h-3a0.5,0.5,0,0,1-.5-0.5v-3a0.5,0.5,0,0,1,.5-0.5h3a0.5,0.5,0,0,1,.5.5v3Zm0-8a0.5,0.5,0,0,1-.5.5h-3a0.5,0.5,0,0,1-.5-0.5v-3a0.5,0.5,0,0,1,.5-0.5h3a0.5,0.5,0,0,1,.5.5v3Zm0-8a0.5,0.5,0,0,1-.5.5h-3A0.5,0.5,0,0,1,50,9.5v-3A0.5,0.5,0,0,1,50.5,6h3a0.5,0.5,0,0,1,.5.5v3Z"/>
  </svg>