<svg id="S_Visibility_Sm_N_2x" data-name="S_Visibility_Sm_N@2x" xmlns="http://www.w3.org/2000/svg" width="32" height="32" viewBox="0 0 32 32">
  <defs>
    <style>
      .fill {
        fill-rule: evenodd;
        opacity: 0.65;
      }

      
    </style>
  </defs>
  <title>S_Visibility_Sm_N@2x</title>
  <path class="fill" d="M2,17.3s5,7.4,12.92,7.4,12.8-7.4,12.8-7.4-4.88-8.26-12.8-8.26C7.06,9.04,2,17.3,2,17.3Zm7.2-.44a5.661,5.661,0,1,1,5.66,5.74A5.693,5.693,0,0,1,9.2,16.86Z"/>
  <path class="fill" d="M11.82,17.02a3.161,3.161,0,1,0,6.32,0,2.485,2.485,0,0,0-.08-0.66,1.813,1.813,0,0,1-2.64-1.64,1.773,1.773,0,0,1,.22-0.86,2.485,2.485,0,0,0-.66-0.08A3.21,3.21,0,0,0,11.82,17.02Z"/>
  </svg>