<svg xmlns="http://www.w3.org/2000/svg" width="36" height="36" viewBox="0 0 36 36">
  <defs>
    <style>
      .fill {
        fill: #fff;
        fill-rule: evenodd;
        opacity: 0.65;
      }
    </style>
  </defs>
  <g id="icons">
    <path class="fill" d="M24.612,8.58A14.975,14.975,0,0,0,18,6.936c-8.664,0-15.75,8.626-15.75,11.424,0,3,7.458,10.7,15.686,10.7,8.3,0,15.814-7.706,15.814-10.7C33.75,16,29.536,11.02,24.612,8.58ZM18,27.224A9.224,9.224,0,1,1,27.224,18,9.224,9.224,0,0,1,18,27.224Z"/>
    <path class="fill" d="M20.666,18.084A2.667,2.667,0,0,1,18,15.418v0a2.632,2.632,0,0,1,1.35-2.268,4.864,4.864,0,0,0-1.35-.21A5.062,5.062,0,1,0,23.062,18a4.728,4.728,0,0,0-.174-1.2A2.626,2.626,0,0,1,20.666,18.084Z"/>
  </g>
</svg>
