<?xml version="1.0" encoding="UTF-8"?>
<svg id="ICONS" xmlns="http://www.w3.org/2000/svg" width="64" height="64" viewBox="0 0 64 64">
  <defs>
    <style>
      .fill {
        fill: #fff;
        opacity: .65;
      }

      .cls-1 {
        fill: #a690e0;
        isolation: isolate;
      }
    </style>
  </defs>
  <rect class="fill" x="56" y="56" width="8" height="8" rx=".5" ry=".5"/>
  <rect class="fill" x="45" y="56" width="8" height="8" rx=".5" ry=".5"/>
  <rect class="fill" x="56" y="45" width="8" height="8" rx=".5" ry=".5"/>
  <rect class="fill" x="45" y="45" width="8" height="8" rx=".5" ry=".5"/>
  <path class="cls-1" d="M42.5,41h7.5v-2.5c0-.27614.22386-.5.5-.5h3c.27614,0,.5.22386.5.5v2.5h4V5c0-.55228-.44772-1-1-1H7c-.55228,0-1,.44772-1,1v54c0,.55228.44772,1,1,1h34v-17.5c0-.82843.67157-1.5,1.5-1.5ZM50,6.5c0-.27614.22386-.5.5-.5h3c.27614,0,.5.22386.5.5v3c0,.27614-.22386.5-.5.5h-3c-.27614,0-.5-.22386-.5-.5v-3ZM50,14.5c0-.27614.22386-.5.5-.5h3c.27614,0,.5.22386.5.5v3c0,.27614-.22386.5-.5.5h-3c-.27614,0-.5-.22386-.5-.5v-3ZM50,22.5c0-.27614.22386-.5.5-.5h3c.27614,0,.5.22386.5.5v3c0,.27614-.22386.5-.5.5h-3c-.27614,0-.5-.22386-.5-.5v-3ZM50,30.5c0-.27614.22386-.5.5-.5h3c.27614,0,.5.22386.5.5v3c0,.27614-.22386.5-.5.5h-3c-.27614,0-.5-.22386-.5-.5v-3ZM14,57.5c0,.27614-.22386.5-.5.5h-3c-.27614,0-.5-.22386-.5-.5v-3c0-.27614.22386-.5.5-.5h3c.27614,0,.5.22386.5.5v3ZM14,49.5c0,.27614-.22386.5-.5.5h-3c-.27614,0-.5-.22386-.5-.5v-3c0-.27614.22386-.5.5-.5h3c.27614,0,.5.22386.5.5v3ZM14,41.5c0,.27614-.22386.5-.5.5h-3c-.27614,0-.5-.22386-.5-.5v-3c0-.27614.22386-.5.5-.5h3c.27614,0,.5.22386.5.5v3ZM14,33.5c0,.27614-.22386.5-.5.5h-3c-.27614,0-.5-.22386-.5-.5v-3c0-.27614.22386-.5.5-.5h3c.27614,0,.5.22386.5.5v3ZM14,25.5c0,.27614-.22386.5-.5.5h-3c-.27614,0-.5-.22386-.5-.5v-3c0-.27614.22386-.5.5-.5h3c.27614,0,.5.22386.5.5v3ZM14,17.5c0,.27614-.22386.5-.5.5h-3c-.27614,0-.5-.22386-.5-.5v-3c0-.27614.22386-.5.5-.5h3c.27614,0,.5.22386.5.5v3ZM14,9.5c0,.27614-.22386.5-.5.5h-3c-.27614,0-.5-.22386-.5-.5v-3c0-.27614.22386-.5.5-.5h3c.27614,0,.5.22386.5.5v3ZM18,33.5v-3c0-.27614.22386-.5.5-.5h27c.27614,0,.5.22386.5.5v3c0,.27614-.22386.5-.5.5h-27c-.27614,0-.5-.22386-.5-.5Z"/>
</svg>