<svg id="S_VideoColored_48x48_N_D_2x" data-name="S_VideoColored_48x48_N_D@2x" xmlns="http://www.w3.org/2000/svg" width="96" height="96" viewBox="0 0 96 96">
  <defs>
    <style>
      .cls-1 {
        fill: #a690e0;
        isolation: isolate;
      }

      
    </style>
  </defs>
  <title>S_VideoColored_48x48_N_D@2x</title>
  <path class="cls-1" d="M86.5,6H9.5A1.5,1.5,0,0,0,8,7.5v81A1.5,1.5,0,0,0,9.5,90h77A1.5,1.5,0,0,0,88,88.5V7.5A1.5,1.5,0,0,0,86.5,6ZM20,86.25a0.75,0.75,0,0,1-.75.75h-4.5A0.75,0.75,0,0,1,14,86.25v-4.5A0.75,0.75,0,0,1,14.75,81h4.5a0.75,0.75,0,0,1,.75.75v4.5Zm0-12a0.75,0.75,0,0,1-.75.75h-4.5A0.75,0.75,0,0,1,14,74.25v-4.5A0.75,0.75,0,0,1,14.75,69h4.5a0.75,0.75,0,0,1,.75.75v4.5Zm0-12a0.75,0.75,0,0,1-.75.75h-4.5A0.75,0.75,0,0,1,14,62.25v-4.5A0.75,0.75,0,0,1,14.75,57h4.5a0.75,0.75,0,0,1,.75.75v4.5Zm0-12a0.75,0.75,0,0,1-.75.75h-4.5A0.75,0.75,0,0,1,14,50.25v-4.5A0.75,0.75,0,0,1,14.75,45h4.5a0.75,0.75,0,0,1,.75.75v4.5Zm0-12a0.75,0.75,0,0,1-.75.75h-4.5A0.75,0.75,0,0,1,14,38.25v-4.5A0.75,0.75,0,0,1,14.75,33h4.5a0.75,0.75,0,0,1,.75.75v4.5Zm0-12a0.75,0.75,0,0,1-.75.75h-4.5A0.75,0.75,0,0,1,14,26.25v-4.5A0.75,0.75,0,0,1,14.75,21h4.5a0.75,0.75,0,0,1,.75.75v4.5Zm0-12a0.75,0.75,0,0,1-.75.75h-4.5A0.75,0.75,0,0,1,14,14.25V9.75A0.75,0.75,0,0,1,14.75,9h4.5a0.75,0.75,0,0,1,.75.75v4.5Zm50,36a0.75,0.75,0,0,1-.75.75H26.75A0.75,0.75,0,0,1,26,50.25v-4.5A0.75,0.75,0,0,1,26.75,45h42.5a0.75,0.75,0,0,1,.75.75v4.5Zm12,36a0.75,0.75,0,0,1-.75.75h-4.5A0.75,0.75,0,0,1,76,86.25v-4.5A0.75,0.75,0,0,1,76.75,81h4.5a0.75,0.75,0,0,1,.75.75v4.5Zm0-12a0.75,0.75,0,0,1-.75.75h-4.5A0.75,0.75,0,0,1,76,74.25v-4.5A0.75,0.75,0,0,1,76.75,69h4.5a0.75,0.75,0,0,1,.75.75v4.5Zm0-12a0.75,0.75,0,0,1-.75.75h-4.5A0.75,0.75,0,0,1,76,62.25v-4.5A0.75,0.75,0,0,1,76.75,57h4.5a0.75,0.75,0,0,1,.75.75v4.5Zm0-12a0.75,0.75,0,0,1-.75.75h-4.5A0.75,0.75,0,0,1,76,50.25v-4.5A0.75,0.75,0,0,1,76.75,45h4.5a0.75,0.75,0,0,1,.75.75v4.5Zm0-12a0.75,0.75,0,0,1-.75.75h-4.5A0.75,0.75,0,0,1,76,38.25v-4.5A0.75,0.75,0,0,1,76.75,33h4.5a0.75,0.75,0,0,1,.75.75v4.5Zm0-12a0.75,0.75,0,0,1-.75.75h-4.5A0.75,0.75,0,0,1,76,26.25v-4.5A0.75,0.75,0,0,1,76.75,21h4.5a0.75,0.75,0,0,1,.75.75v4.5Zm0-12a0.75,0.75,0,0,1-.75.75h-4.5A0.75,0.75,0,0,1,76,14.25V9.75A0.75,0.75,0,0,1,76.75,9h4.5a0.75,0.75,0,0,1,.75.75v4.5Z"/>
  </svg>