<svg id="S_VisibilityOff_Sm_N_D_2x" data-name="S_VisibilityOff_Sm_N_D@2x" xmlns="http://www.w3.org/2000/svg" width="32" height="32" viewBox="0 0 32 32">
  <defs>
    <style>
      .fill {
        fill: #fff;
        opacity: 0.65;
      }

      
    </style>
  </defs>
  <title>S_VisibilityOff_Sm_N_D@2x</title>
  <path class="fill" d="M15,11.14A5.788,5.788,0,0,1,20.72,17a5.972,5.972,0,0,1-.343,1.984l3.1,3.1A19.973,19.973,0,0,0,28,17.54S23.06,9,15.06,9a11.491,11.491,0,0,0-3.945.721l1.819,1.819A5.584,5.584,0,0,1,15,11.14Z"/>
  <path class="fill" d="M15,22.86A5.788,5.788,0,0,1,9.28,17a5.971,5.971,0,0,1,.343-1.984L6.8,12.2A22.714,22.714,0,0,0,2,17.54S7.06,25,15.06,25a12.98,12.98,0,0,0,3.925-.621L17.066,22.46A5.583,5.583,0,0,1,15,22.86Z"/>
  <path class="fill" d="M18.08,16a1.067,1.067,0,0,0-1.06-1.06,0.994,0.994,0,0,0-.522.164l1.424,1.424A1.033,1.033,0,0,0,18.08,16Z"/>
  <rect class="fill" x="14" y="0.736" width="2" height="32.529" rx="0.5" ry="0.5" transform="translate(-7.627 15.585) rotate(-44.998)"/>
  </svg>