<svg xmlns="http://www.w3.org/2000/svg" data-name="S_VisibilityTri_22x18_N_D@2x" height="36" id="S_VisibilityTri_22x18_N_D_2x" viewBox="0 0 44 36" width="44">
  <defs>
    <style>
	.fill {
        fill: #fff;
        fill-rule: evenodd;
        opacity: 0.65;
      }</style>
  </defs>
  <title>S_VisibilityTri_22x18_N_D@2x</title>
  <path class="fill" d="M32.683,30.82,37,36l4.317-5.18a.5.5,0,0,0-.385-.82H33.068a.5.5,0,0,0-.385.82Z" id="Fill" />
  <path class="fill" d="M26.613,8.58A14.973,14.973,0,0,0,20,6.937c-8.664,0-15.75,8.625-15.75,11.424,0,3,7.458,10.7,15.686,10.7,8.295,0,15.814-7.706,15.814-10.7C35.75,16,31.536,11.019,26.613,8.58ZM20,27.225A9.225,9.225,0,1,1,29.225,18,9.225,9.225,0,0,1,20,27.225Z" />
  <path class="fill" d="M22.667,18.083A2.667,2.667,0,0,1,20,15.417a2.631,2.631,0,0,1,1.35-2.269,4.912,4.912,0,0,0-1.35-.21A5.063,5.063,0,1,0,25.063,18a4.7,4.7,0,0,0-.175-1.2A2.623,2.623,0,0,1,22.667,18.083Z" />
  </svg>