<svg id="S_VideoName_Sm_N_D_2x" data-name="S_VideoName_Sm_N_D@2x" xmlns="http://www.w3.org/2000/svg" width="32" height="32" viewBox="0 0 32 32">
  <defs>
    <style>
      .fill {
        fill: #fff;
        fill-rule: evenodd;
        opacity: 0.65;
      }

      
    </style>
  </defs>
  <title>S_VideoName_Sm_N_D@2x</title>
  <path class="fill" d="M12.689,20.2C13.151,18.633,14.273,15.135,17,7.588a0.154,0.154,0,0,1,.176-0.132h1.606c0.088,0,.132.044,0.11,0.153L13.657,21.868a0.171,0.171,0,0,1-.2.132H11.72a0.177,0.177,0,0,1-.2-0.109L6.176,7.609c-0.044-.088-0.022-0.153.11-0.153H7.98a0.12,0.12,0,0,1,.154.11c2.53,6.732,4.115,11.2,4.511,12.629h0.044Z"/>
  <path class="fill" d="M24.306,22c-0.132,0-.132-0.044-0.132-0.132V9.877a11.32,11.32,0,0,1-2.619,1.056c-0.11.022-.154-0.022-0.154-0.132V9.524c0-.089,0-0.132.11-0.154a12.493,12.493,0,0,0,3.037-1.386A0.419,0.419,0,0,1,24.856,7.9h1.056C25.978,7.9,26,7.939,26,8.027V21.868c0,0.088-.022.132-0.11,0.132H24.306Z"/>
  </svg>