<?xml version="1.0" encoding="UTF-8"?>
<svg id="ICONS" xmlns="http://www.w3.org/2000/svg" width="36" height="36" viewBox="0 0 36 36">
  <defs>
    <style>
      .fillMedium {
        opacity: .3;
      }

      .fillMedium, .fill {
        fill: #fff;
      }

      .fill {
        opacity: .65;
      }
    </style>
  </defs>
  <path class="fill" d="M33,12h-7v11c0,.55225-.44775,1-1,1h-15v7c0,.55225.44775,1,1,1h22c.55225,0,1-.44775,1-1V13c0-.55225-.44775-1-1-1Z"/>
  <path class="fillMedium" d="M10,13v9h14v-10h-13c-.55225,0-1,.44775-1,1Z"/>
  <path class="fill" d="M10,22h-6V6h20v6h2v-7c0-.55225-.44775-1-1-1H3c-.55225,0-1,.44775-1,1v18c0,.55225.44775,1,1,1h7v-2Z"/>
</svg>