<svg xmlns="http://www.w3.org/2000/svg" data-name="S_VoiceOverSettings_18_N@2x" height="36" id="S_VoiceOverSettings_18_N_2x" viewBox="0 0 36 36" width="36">
  <defs>
    <style>
	.fill {
        fill: #fff;
        fill-rule: evenodd;
        opacity: 0.65;
      }</style>
  </defs>
  <title>S_VoiceOverSettings_18_N@2x</title>
  <path class="fill" d="M34.925,24.678H32.609a6.69,6.69,0,0,0-.977-2.373l1.648-1.648a.661.661,0,0,0,0-.935l-1-1a.661.661,0,0,0-.935,0L29.7,20.368a6.693,6.693,0,0,0-2.373-.978V17.076a.661.661,0,0,0-.661-.661H25.339a.661.661,0,0,0-.661.661v2.315a6.692,6.692,0,0,0-2.373.978L20.657,18.72a.661.661,0,0,0-.935,0l-1,1a.661.661,0,0,0,0,.935l1.648,1.648a6.69,6.69,0,0,0-.977,2.373H17.076a.661.661,0,0,0-.661.661v1.322a.661.661,0,0,0,.661.661h2.315a6.69,6.69,0,0,0,.977,2.373L18.72,31.344a.661.661,0,0,0,0,.935l1,1a.661.661,0,0,0,.935,0l1.648-1.648a6.692,6.692,0,0,0,2.373.977v2.315a.661.661,0,0,0,.661.661h1.322a.661.661,0,0,0,.661-.661V32.61a6.693,6.693,0,0,0,2.373-.977l1.648,1.648a.661.661,0,0,0,.935,0l1-1a.661.661,0,0,0,0-.935L31.632,29.7a6.69,6.69,0,0,0,.977-2.373h2.315a.661.661,0,0,0,.661-.661V25.339A.661.661,0,0,0,34.925,24.678ZM26,29.6A3.6,3.6,0,1,1,29.6,26,3.6,3.6,0,0,1,26,29.6Z" />
  <path class="fill" d="M18,17.077c0-.026,0-.051,0-.077V6A6,6,0,0,0,6,6V17a5.99,5.99,0,0,0,8.54,5.43A11.994,11.994,0,0,1,18,17.077Z" />
  <path class="fill" d="M21.9,14.734V12.5a.5.5,0,0,0-.5-.5h-.8a.5.5,0,0,0-.5.5v3.058A11.932,11.932,0,0,1,21.9,14.734Z" />
  <path class="fill" d="M14.7,30H13V26.836a9.858,9.858,0,0,0,1.034-.165C14.021,26.448,14,26.227,14,26c0-.4.022-.786.059-1.172a7.744,7.744,0,0,1-1.5.253A8.109,8.109,0,0,1,3.9,17V12.5a.5.5,0,0,0-.5-.5H2.6a.5.5,0,0,0-.5.5v4.151A10.146,10.146,0,0,0,11,26.839V30H4.5a.5.5,0,0,0-.5.5v1a.5.5,0,0,0,.5.5H15.618A11.928,11.928,0,0,1,14.7,30Z" />
  </svg>