<svg id="S_VoiceOver_Md_N_D_2x" data-name="S_VoiceOver_Md_N_D@2x" xmlns="http://www.w3.org/2000/svg" width="36" height="36" viewBox="0 0 36 36">
  <defs>
    <style>
      .fill {
        fill: #fff;
        fill-rule: evenodd;
        opacity: 0.65;
      }

      
    </style>
  </defs>
  <title>S_VoiceOver_Md_N_D@2x</title>
  <path id="Fill" class="fill" d="M17,4.4c-5,0-5,6.6-5,6.6v6s0,6.6,5,6.6c4.969,0,5-6.6,5-6.6V11S22,4.4,17,4.4Z"/>
  <path class="fill" d="M24,19a7,7,0,0,1-7.215,7A7.194,7.194,0,0,1,10,18.706V14.5A0.5,0.5,0,0,0,9.5,14h-1a0.5,0.5,0,0,0-.5.5V18c0,5.643,2.875,9.519,8,9.96V30H11a1,1,0,0,0-1,1h0a1,1,0,0,0,1,1H23a1,1,0,0,0,1-1h0a1,1,0,0,0-1-1H18V27.96c5.074-.445,8-4.321,8-9.96V14.5a0.5,0.5,0,0,0-.5-0.5h-1a0.5,0.5,0,0,0-.5.5V19Z"/>
  </svg>