<svg xmlns="http://www.w3.org/2000/svg" data-name="S_VoiceOver_24_N_D@2x" height="48" id="S_VoiceOver_24_N_D_2x" viewBox="0 0 48 48" width="48">
  <defs>
    <style>
	.fill {
        fill: #fff;
      }</style>
  </defs>
  <title>S_VoiceOver_24_N_D@2x</title>
  <path fill="#fff" d="M32,9A9,9,0,0,0,14,9V25a9,9,0,0,0,18,0Z" />
  <path fill="#fff" d="M38,25V20.5a.5.5,0,0,0-.5-.5H36a.5.5,0,0,0-.5.5v4.085A12.772,12.772,0,0,1,23.234,37.5,12.5,12.5,0,0,1,10.5,25V20.5A.5.5,0,0,0,10,20H8.5a.5.5,0,0,0-.5.5v4.076A15.292,15.292,0,0,0,21.75,39.931V44H13a1,1,0,0,0-1,1v2a1,1,0,0,0,1,1H33a1,1,0,0,0,1-1V45a1,1,0,0,0-1-1H24.25V39.934A14.991,14.991,0,0,0,38,25Z" />
  </svg>