<svg xmlns="http://www.w3.org/2000/svg" data-name="S_VRNavigator_Md_N_D@2x" height="36" id="S_VRNavigator_Md_N_D_2x" viewBox="0 0 36 36" width="36">
  <defs>
    <style>
      .fill {
        fill: #8a8a8a;
      }

      
    </style>
  </defs>
  <title>S_VRNavigator_Md_N_D@2x</title>
  <path class="fill" d="M1.048,30.3A1.026,1.026,0,0,1,0,29.3V4.048A1.026,1.026,0,0,1,1,3h.046a.468.468,0,0,1,.3.149A52.57,52.57,0,0,0,17.7,5.4,56.125,56.125,0,0,0,34.652,3h.3A1.026,1.026,0,0,1,36,4V29.1a1.025,1.025,0,0,1-1,1.047.353.353,0,0,1-.046,0h-.3A53.089,53.089,0,0,0,18.45,27.9,57.432,57.432,0,0,0,1.343,30.3ZM3,26.553a60.106,60.106,0,0,1,15.453-1.8A61.349,61.349,0,0,1,33,26.405V6.6A59.65,59.65,0,0,1,17.7,8.4,62.985,62.985,0,0,1,3,6.75Zm2.254-10.8,3.1-3.1a1,1,0,0,1,1.414,0l5.789,5.787,2.093-2.093a1,1,0,0,1,1.436.022L25.038,22.7a65.221,65.221,0,0,0-19.785.818Zm17.981-1.543A2.968,2.968,0,1,1,26.2,17.175a2.967,2.967,0,0,1-2.967-2.967Z" />
  </svg>