<svg id="S_WaveForm_Sm_N_D_2x" data-name="S_WaveForm_Sm_N_D@2x" xmlns="http://www.w3.org/2000/svg" width="32" height="32" viewBox="0 0 32 32">
  <defs>
    <style>
      .fill {
        fill: #fff;
        fill-rule: evenodd;
        opacity: 0.65;
      }

      
    </style>
  </defs>
  <title>S_WaveForm_Sm_N_D@2x</title>
  <path id="Fill" class="fill" d="M2,16.5v1a0.5,0.5,0,0,0,.5.5H4l0.187,6S6.687,18,8,18h4l0.09,8h0.84c1.545-3.452,4.039-8,5.07-8h4v7.313C22.937,22.063,24.75,18,28,18l1.562-.2a0.5,0.5,0,0,0,.438-0.5V16.514a0.5,0.5,0,0,0-.51-0.5A11.367,11.367,0,0,1,28,16c-2.563,0-4.938-4.25-6-7.125V16s-2.125-.062-2,0c-3.256,0-5.848-7.289-6.7-10H12.93C12.723,8.711,11.984,16,10,16c0-.062-2,0-2,0-1.813,0-4-6-4-6v6H2.5A0.5,0.5,0,0,0,2,16.5Z"/>
  </svg>