<?xml version="1.0" encoding="UTF-8"?>
<svg id="icons" xmlns="http://www.w3.org/2000/svg" width="32" height="32" viewBox="0 0 32 32">
  <defs>
    <style>
      .fill {
        fill: #fff;
        opacity: .65;
        stroke-width: 0px;
      }
    </style>
  </defs>
  <path class="fill" d="m27,10h-1v-3c0-.55225-.44769-1-1-1h-6c-.55231,0-1,.44775-1,1v3h-4v-3c0-.55225-.44769-1-1-1h-6c-.55231,0-1,.44775-1,1v3h-1c-.55231,0-1,.44775-1,1v16c0,.55225.44769,1,1,1h22c.55231,0,1-.44775,1-1V11c0-.55225-.44769-1-1-1Zm-15.01019,4.0957l-2.60254,4.6416c-.07227.12012-.09668.21582-.09668.36035v2.67383c0,.08398-.02344.1084-.10742.1084h-1.22363c-.0957,0-.12012-.03613-.12012-.1084v-2.72168c0-.15625-.01172-.21582-.08398-.34863l-2.56641-4.59277c-.04785-.07227.01172-.1084.05957-.1084h1.45117c.07227,0,.08398.02441.1084.06055,1.27148,2.4707,1.67871,3.22559,1.84668,3.63379.19238-.41992.57617-1.21191,1.78711-3.62207.0127-.05957.03613-.07227.0957-.07227h1.40332c.06055,0,.07227.03613.04883.0957Zm6.79102,4.77344c0,2.24316-1.37891,3.13086-3.1543,3.13086-1.89453,0-3.10645-1.00781-3.10645-3.07031v-4.82129c0-.07227.0127-.1084.09668-.1084h1.25879c.07227,0,.0957.02441.0957.0957v4.72559c0,1.13965.55176,1.89551,1.70312,1.89551.94727,0,1.65527-.45605,1.65527-1.91895v-4.68945c0-.07227.02441-.1084.0957-.1084h1.25977c.07227,0,.0957.03613.0957.0957v4.77344Zm5.29395,2.92676c-.02441.07227-.06055.08398-.12012.08398h-1.3916c-.05957,0-.0957-.01172-.11914-.07227l-2.81836-7.69922c-.02441-.06055,0-.1084.07129-.1084h1.37988c.05957,0,.08398.02441.0957.07227,1.13965,3.1543,1.91895,5.48047,2.13477,6.36816h.02344c.26465-.93555.86426-2.97461,2.00293-6.34473.02441-.07129.04883-.0957.1084-.0957h1.30762c.05957,0,.0957.03613.07129.1084l-2.74609,7.6875Z"/>
</svg>