<?xml version="1.0" encoding="UTF-8"?>
<svg id="icons" xmlns="http://www.w3.org/2000/svg" width="36" height="36" viewBox="0 0 36 36">
  <defs>
    <style>
      .fill {
        fill: #fff;
        opacity: .65;
        stroke-width: 0px;
      }
    </style>
  </defs>
  <path class="fill" d="m33,10h-3v-3c0-.55225-.44769-1-1-1h-8c-.55231,0-1,.44775-1,1v3h-4v-3c0-.55225-.44769-1-1-1H7c-.55231,0-1,.44775-1,1v3h-3c-.55231,0-1,.44775-1,1v20c0,.55225.44769,1,1,1h30c.55231,0,1-.44775,1-1V11c0-.55225-.44769-1-1-1Zm-19.93262,5.1123l-3.04004,5.4209c-.08398.13965-.11133.25195-.11133.41992v3.12402c0,.09766-.02832.12598-.12598.12598h-1.42871c-.1123,0-.14062-.04199-.14062-.12598v-3.17969c0-.18262-.01367-.25195-.09766-.40625l-2.99805-5.36523c-.05566-.08398.01465-.12598.07031-.12598h1.69531c.08398,0,.09766.02832.12598.07031,1.48438,2.88574,1.96094,3.76758,2.15723,4.24414.22363-.49023.67188-1.41504,2.08691-4.23047.01367-.07031.04199-.08398.1123-.08398h1.63867c.06934,0,.08398.04199.05566.1123Zm8.21063,5.5752c0,2.61914-1.61133,3.65527-3.68457,3.65527-2.21289,0-3.62793-1.17578-3.62793-3.58594v-5.63086c0-.08398.01465-.12598.1123-.12598h1.4707c.08398,0,.1123.02832.1123.1123v5.51855c0,1.33105.64453,2.21387,1.98926,2.21387,1.10645,0,1.93262-.53223,1.93262-2.24121v-5.47754c0-.08398.02832-.12598.1123-.12598h1.4707c.08398,0,.1123.04199.1123.1123v5.5752Zm6.55292,3.41797c-.02734.08398-.07031.09766-.13965.09766h-1.625c-.07031,0-.1123-.01367-.14062-.08398l-3.29102-8.99316c-.02832-.06934,0-.12598.08398-.12598h1.61035c.07031,0,.09863.02832.1123.08398,1.33105,3.68457,2.24121,6.40137,2.49316,7.43848h.02832c.30762-1.09277,1.00879-3.47363,2.33887-7.41016.02832-.08398.05664-.1123.12598-.1123h1.52734c.07031,0,.1123.04199.08398.12598l-3.20801,8.97949Z"/>
</svg>