<?xml version="1.0" encoding="UTF-8"?>
<svg id="ICONS" xmlns="http://www.w3.org/2000/svg" width="36" height="36" viewBox="0 0 36 36">
  <defs>
    <style>
      .fill {
        opacity: .65;
      }
    </style>
  </defs>
  <path class="fill" d="M18.8764.20224h-1.7528c-.18616,0-.33708.20016-.33708.44708v4.47072c0,.24692.15092.44708.33708.44708h1.7528c.18616,0,.33708-.20016.33708-.44708V.64932c0-.24692-.15092-.44708-.33708-.44708ZM18.8764,30.43288h-1.7528c-.18616,0-.33708.20016-.33708.44708v4.47072c0,.24692.15092.44708.33708.44708h1.7528c.18616,0,.33708-.20016.33708-.44708v-4.47072c0-.24692-.15092-.44708-.33708-.44708ZM.20224,17.1236v1.7528c0,.18616.20016.33708.44708.33708h4.47072c.24692,0,.44708-.15092.44708-.33708v-1.7528c0-.18616-.20016-.33708-.44708-.33708H.64932c-.24692,0-.44708.15092-.44708.33708ZM30.43288,17.1236v1.7528c0,.18616.20016.33708.44708.33708h4.47072c.24692,0,.44708-.15092.44708-.33708v-1.7528c0-.18616-.20016-.33708-.44708-.33708h-4.47072c-.24692,0-.44708.15092-.44708.33708ZM4.79538,29.9652l1.23942,1.23942c.13164.13164.37988.09682.55448-.07778l3.16128-3.16128c.1746-.1746.20942-.42284.07778-.55448l-1.23942-1.23942c-.13164-.13164-.37988-.09682-.55448.07778l-3.16128,3.16128c-.1746.1746-.20942.42284-.07778.55448ZM26.17166,8.58892l1.23942,1.23942c.13164.13164.37988.09682.55448-.07778l3.16128-3.16128c.1746-.1746.20942-.42284.07778-.55448l-1.23942-1.23942c-.13164-.13164-.37988-.09682-.55448.07778l-3.16128,3.16128c-.1746.1746-.20942.42284-.07778.55448ZM29.96522,31.20462l1.23942-1.23942c.13164-.13164.09682-.37988-.07778-.55448l-3.16128-3.16128c-.1746-.1746-.42284-.20942-.55448-.07778l-1.23942,1.23942c-.13164.13164-.09682.37988.07778.55448l3.16128,3.16128c.1746.1746.42284.20942.55448.07778ZM8.5889,9.82834l1.23942-1.23942c.13164-.13164.09682-.37988-.07778-.55448l-3.16128-3.16128c-.1746-.1746-.42284-.20942-.55448-.07778l-1.23942,1.23942c-.13164.13164-.09682.37988.07778.55448l3.16128,3.16128c.1746.1746.42284.20942.55448.07778Z"/>
  <path class="fill" d="M18,8c-5.52295,0-10,4.47754-10,10s4.47705,10,10,10,10-4.47754,10-10-4.47705-10-10-10ZM22.52783,24.58398c-1.55444-1.76172-2.52783-4.0498-2.52783-6.58398s.97339-4.82227,2.52734-6.58398c2.09375,1.44434,3.47266,3.85352,3.47266,6.58398s-1.37891,5.13965-3.47217,6.58398Z"/>
</svg>