<svg xmlns="http://www.w3.org/2000/svg" data-name="S_3DFastRender_Sm_N_D@2x" height="32" id="S_3DFastRender_Sm_N_D_2x" viewBox="0 0 32 32" width="32">
  <defs>
    <style>
      .fill {
        fill: #fff;
        fill-rule: evenodd;
        opacity: 0.65;
      }

      
    </style>
  </defs>
  <path class="fill" d="M23.218,6.77,13.957,1.719a2,2,0,0,0-1.915,0L2.781,6.77A1.5,1.5,0,0,0,2,8.087V18.231A1.5,1.5,0,0,0,2.879,19.6l9.293,4.224a2,2,0,0,0,1.655,0L14,23.742v-10.9L24,8.789v-.7A1.5,1.5,0,0,0,23.218,6.77ZM12,21.542,4,17.906V9.442l8,3.4ZM13,11.1,5.147,7.76,13,3.475l8.014,4.371Z" />
  <path class="fill" d="M26.5,10.813l-9.127,10.6a.559.559,0,0,0,.51.916l6.036-.95-1.693,8.159a.28.28,0,0,0,.213.333.277.277,0,0,0,.286-.11l7.928-10.849a.559.559,0,0,0-.537-.881l-6.2.976,3.06-7.911a.279.279,0,0,0-.475-.283Z" />
  </svg>