<svg id="Layer_2" data-name="Layer 2" xmlns="http://www.w3.org/2000/svg" viewBox="0 0 26 26"><defs><style>.cls-1{fill:#b1b1b1;}</style></defs><rect class="cls-1" width="2" height="2"/><rect class="cls-1" y="4" width="2" height="2"/><rect class="cls-1" y="8" width="2" height="2"/><rect class="cls-1" y="12" width="2" height="2"/><rect class="cls-1" y="16" width="2" height="2"/><rect class="cls-1" y="20" width="2" height="2"/><rect class="cls-1" y="24" width="2" height="2"/><rect class="cls-1" x="2" y="2" width="2" height="2"/><rect class="cls-1" x="6" y="2" width="2" height="2"/><rect class="cls-1" x="10" y="2" width="2" height="2"/><rect class="cls-1" x="14" y="2" width="2" height="2"/><rect class="cls-1" x="18" y="2" width="2" height="2"/><rect class="cls-1" x="2" y="6" width="2" height="2"/><rect class="cls-1" x="2" y="10" width="2" height="2"/><rect class="cls-1" x="2" y="14" width="2" height="2"/><rect class="cls-1" x="2" y="18" width="2" height="2"/><rect class="cls-1" x="20" width="2" height="2"/><rect class="cls-1" x="16" width="2" height="2"/><rect class="cls-1" x="12" width="2" height="2"/><rect class="cls-1" x="8" width="2" height="2"/><rect class="cls-1" x="4" width="2" height="2"/><rect class="cls-1" x="18" y="22" width="2" height="2"/><rect class="cls-1" x="14" y="22" width="2" height="2"/><rect class="cls-1" x="10" y="22" width="2" height="2"/><rect class="cls-1" x="6" y="22" width="2" height="2"/><rect class="cls-1" x="4" y="24" width="2" height="2"/><rect class="cls-1" x="8" y="24" width="2" height="2"/><rect class="cls-1" x="12" y="24" width="2" height="2"/><rect class="cls-1" x="16" y="24" width="2" height="2"/><rect class="cls-1" x="20" y="24" width="2" height="2"/><rect class="cls-1" x="2" y="22" width="2" height="2"/><rect class="cls-1" x="22" y="2" width="2" height="2"/><rect class="cls-1" x="22" y="6" width="2" height="2"/><rect class="cls-1" x="22" y="10" width="2" height="2"/><rect class="cls-1" x="22" y="14" width="2" height="2"/><rect class="cls-1" x="22" y="18" width="2" height="2"/><rect class="cls-1" x="22" y="22" width="2" height="2"/><rect class="cls-1" x="24" width="2" height="2"/><rect class="cls-1" x="24" y="4" width="2" height="2"/><rect class="cls-1" x="24" y="8" width="2" height="2"/><rect class="cls-1" x="24" y="12" width="2" height="2"/><rect class="cls-1" x="24" y="16" width="2" height="2"/><rect class="cls-1" x="24" y="20" width="2" height="2"/><rect class="cls-1" x="24" y="24" width="2" height="2"/></svg>