<svg id="Layer_2" data-name="Layer 2" xmlns="http://www.w3.org/2000/svg" viewBox="0 0 26 26"><defs><style>.cls-1{fill:#b1b1b1;}</style></defs><rect class="cls-1" width="2" height="2"/><rect class="cls-1" y="4" width="2" height="2"/><rect class="cls-1" y="8" width="2" height="2"/><rect class="cls-1" y="12" width="2" height="2"/><rect class="cls-1" y="16" width="2" height="2"/><rect class="cls-1" y="20" width="2" height="2"/><rect class="cls-1" y="24" width="2" height="2"/><rect class="cls-1" x="2" y="2" width="2" height="2"/><rect class="cls-1" x="6" y="2" width="2" height="2"/><rect class="cls-1" x="10" y="2" width="2" height="2"/><rect class="cls-1" x="14" y="2" width="2" height="2"/><rect class="cls-1" x="18" y="2" width="2" height="2"/><rect class="cls-1" x="2" y="6" width="2" height="2"/><rect class="cls-1" x="2" y="10" width="2" height="2"/><rect class="cls-1" x="2" y="14" width="2" height="2"/><rect class="cls-1" x="2" y="18" width="2" height="2"/><rect class="cls-1" x="20" width="2" height="2"/><rect class="cls-1" x="16" width="2" height="2"/><rect class="cls-1" x="12" width="2" height="2"/><rect class="cls-1" x="8" width="2" height="2"/><rect class="cls-1" x="4" width="2" height="2"/><rect class="cls-1" x="18" y="22" width="2" height="2"/><rect class="cls-1" x="14" y="22" width="2" height="2"/><rect class="cls-1" x="10" y="22" width="2" height="2"/><rect class="cls-1" x="6" y="22" width="2" height="2"/><rect class="cls-1" x="4" y="24" width="2" height="2"/><rect class="cls-1" x="8" y="24" width="2" height="2"/><rect class="cls-1" x="12" y="24" width="2" height="2"/><rect class="cls-1" x="16" y="24" width="2" height="2"/><rect class="cls-1" x="20" y="24" width="2" height="2"/><rect class="cls-1" x="2" y="22" width="2" height="2"/><rect class="cls-1" x="22" y="2" width="2" height="2"/><rect class="cls-1" x="22" y="6" width="2" height="2"/><rect class="cls-1" x="22" y="10" width="2" height="2"/><rect class="cls-1" x="22" y="14" width="2" height="2"/><rect class="cls-1" x="22" y="18" width="2" height="2"/><rect class="cls-1" x="22" y="22" width="2" height="2"/><rect class="cls-1" x="24" width="2" height="2"/><rect class="cls-1" x="24" y="4" width="2" height="2"/><rect class="cls-1" x="24" y="8" width="2" height="2"/><rect class="cls-1" x="24" y="12" width="2" height="2"/><rect class="cls-1" x="24" y="16" width="2" height="2"/><rect class="cls-1" x="24" y="20" width="2" height="2"/><rect class="cls-1" x="24" y="24" width="2" height="2"/><path class="cls-1" d="M19.32,12.84a1,1,0,0,0-1,1v1.92L14,13.27v-5l1.63.94A1,1,0,0,0,17,8.86a1,1,0,0,0-.37-1.37h0L13.5,5.68l-.07,0-.09,0A1,1,0,0,0,13,5.55h0a1,1,0,0,0-.34.07l-.09,0-.07,0L9.29,7.54a1,1,0,0,0,1,1.73l1.71-1v5L7.68,15.76V13.84a1,1,0,0,0-2,0v3.65s0,.05,0,.08,0,.06,0,.09a.92.92,0,0,0,.11.33h0a1,1,0,0,0,.23.26l.07.06.06.05,3.11,1.79a1,1,0,1,0,1-1.73l-1.61-.93L13,15l4.32,2.49-1.69,1a1,1,0,0,0-.36,1.37,1,1,0,0,0,1.36.36l3.19-1.83.06-.05.07-.06a1,1,0,0,0,.34-.59s0-.06,0-.09,0-.05,0-.08V13.84A1,1,0,0,0,19.32,12.84Z"/></svg>