<svg xmlns="http://www.w3.org/2000/svg" width="26" height="26" viewBox="0 0 26 26">
  <defs>
    <style>
      .fill {
        fill: #b9b9b9;
      }
    </style>
  </defs>
  <g id="Icons">
    <path class="fill" d="M22,17.444v-8.7a1,1,0,0,0-.594-.914l-8-3.555a1,1,0,0,0-.812,0l-8,3.555A1,1,0,0,0,4,8.744v8.7a1,1,0,0,0,.594.914l8,3.556a1,1,0,0,0,.812,0l8-3.556A1,1,0,0,0,22,17.444ZM14,19.46V12.747l6-2.624V16.8ZM13,6.283l5.352,2.379L13.006,11,7.727,8.626Zm-7,3.76,6,2.7v6.721L6,16.8Z"/>
  </g>
</svg>
