<svg xmlns="http://www.w3.org/2000/svg" width="26" height="26" viewBox="0 0 26 26">
  <defs>
    <style>
      .fill {
        fill: #b9b9b9;
      }
    </style>
  </defs>
  <g id="Icons">
    <path class="fill" d="M20.269,15.151a.488.488,0,0,0-.259-.278.5.5,0,0,0-.664.25l-1.035,2.3L14,15.484V10h2.5a.5.5,0,0,0,.5-.5.49.49,0,0,0-.147-.35L13.316,5.113a.5.5,0,0,0-.632,0L9.147,9.146A.49.49,0,0,0,9,9.5a.5.5,0,0,0,.5.5H12v5.484l-4.311,1.94-1.035-2.3a.5.5,0,0,0-.664-.25.488.488,0,0,0-.259.278L3.5,20.03a.5.5,0,0,0,.026.335.508.508,0,0,0,.233.243l5.129,1.57a.488.488,0,0,0,.38-.009.5.5,0,0,0,.254-.663L8.509,19.248,13,17.228l4.491,2.02-1.016,2.258a.5.5,0,0,0,.254.663.488.488,0,0,0,.38.009l5.129-1.57a.508.508,0,0,0,.233-.243.5.5,0,0,0,.026-.335Z"/>
  </g>
</svg>
