<svg xmlns="http://www.w3.org/2000/svg" data-name="S_3DObjectParametricPrimitive_16_N@2x.svg" height="32" id="S_3DObjectParametricPrimitive_16_N_2x.svg" viewBox="0 0 32 32" width="32">
  <defs>
    <style>
      .fill {
        fill: #6e6e6e;
      }

      
    </style>
  </defs>
  <path class="fill" d="M24.967,5.35,16.534.69a2,2,0,0,0-1.987.03L6.98,5.205A2,2,0,0,0,6,6.925v9.53a2,2,0,0,0,.983,1.722l7.577,4.476a2,2,0,0,0,1.965.04l8.422-4.53A2,2,0,0,0,26,16.4V7.1A2,2,0,0,0,24.967,5.35ZM24,16.372l-8,4.139V11.946l8-4.477Z" />
  <circle class="fill" cx="21" cy="27" r="3.6" />
  <path class="fill" d="M16.6,27a4.4,4.4,0,0,1,.125-1H2.583A.546.546,0,0,0,2,26.5v1a.546.546,0,0,0,.583.5H16.725A4.4,4.4,0,0,1,16.6,27Z" />
  <path class="fill" d="M29.417,26H25.275a4.062,4.062,0,0,1,0,2h4.142A.546.546,0,0,0,30,27.5v-1A.546.546,0,0,0,29.417,26Z" />
  </svg>