<svg id="ICONS" xmlns="http://www.w3.org/2000/svg" width="32" height="32" viewBox="0 0 32 32">
  <defs>
    <style>
      .fill {
        fill: #6e6e6e;
      }
    </style>
  </defs>
  <path class="fill" d="M26.666,8.27111l-9.6-5.8243A3.14738,3.14738,0,0,0,14.4,2.18018L5.334,8.0145A3.19145,3.19145,0,0,0,4,10.42024V21.38038a2.80821,2.80821,0,0,0,1.334,2.40574l9.066,5.8131a2.41719,2.41719,0,0,0,2.666,0l9.6-5.82512A3.697,3.697,0,0,0,28,21.36836V10.42024A2.38222,2.38222,0,0,0,26.666,8.27111ZM26,22,16,28V16l10-6Z"/>
</svg>
