<?xml version="1.0" encoding="UTF-8"?>
<svg id="Icons" xmlns="http://www.w3.org/2000/svg" width="32" height="32" viewBox="0 0 32 32">
  <defs>
    <style>
      .fill {
        fill: #fff;
        opacity: .65;
      }
    </style>
  </defs>
  <circle class="fill" cx="21" cy="27" r="3.6"/>
  <path class="fill" d="M16.6,27c.00323-.33702.04517-.67255.125-1H2.583c-.29852-.02128-.55854.20172-.583.5v1c.02446.29828.28448.52128.583.5h14.142c-.07983-.32745-.12177-.66298-.125-1Z"/>
  <path class="fill" d="M29.417,26h-4.142c.16669.65625.16669,1.34375,0,2h4.142c.29852.02128.55854-.20172.583-.5v-1c-.02446-.29828-.28448-.52128-.583-.5Z"/>
  <path class="fill" d="M16,1.93956c-5.55621,0-10.0604,4.50419-10.0604,10.0604s4.50419,10.0604,10.0604,10.0604,10.0604-4.5042,10.0604-10.0604S21.55621,1.93956,16,1.93956h0ZM12.15214,12.94252l-3.46116-1.90803c-.12655-.06942-.1923-.21387-.16155-.35489.48665-2.52599,1.97759-4.74633,4.13152-6.15276.09467-.0502.20807-.0502.30274,0l3.05285,1.58366c.1093.05315.15481.18484.10165.29414-.01292.02656-.03105.05025-.05332.06966-1.81724,1.68425-3.07002,3.8886-3.58709,6.31176-.02155.12104-.13714.20168-.25818.18013-.02361-.0042-.04639-.0122-.06746-.02367Z"/>
</svg>