<svg xmlns="http://www.w3.org/2000/svg" height="16" id="S_3DFastRender_Sm_N_D" viewBox="0 0 16 16" width="16">
  <defs>
    <style>
      .fill {
        fill: #fff;
        fill-rule: evenodd;
        opacity: 0.65;
      }

      
    </style>
  </defs>
  <path class="fill" d="M11.609,3.385,6.979.859a1,1,0,0,0-.958,0L1.391,3.385A.749.749,0,0,0,1,4.043V9.115a.749.749,0,0,0,.44.683L6.086,11.91a1,1,0,0,0,.828,0L7,11.871V6.421l5-2.026V4.043A.749.749,0,0,0,11.609,3.385ZM6,10.771,2,8.953V4.721l4,1.7ZM6.5,5.55,2.573,3.88,6.5,1.737l4.007,2.186Z" />
  <path class="fill" d="M13.251,5.407l-4.564,5.3a.279.279,0,0,0,.255.457l3.018-.475-.846,4.08a.139.139,0,0,0,.249.112l3.964-5.425a.279.279,0,0,0-.061-.39.275.275,0,0,0-.208-.05l-3.1.488,1.53-3.956a.14.14,0,0,0-.076-.182A.138.138,0,0,0,13.251,5.407Z" />
  </svg>