<svg xmlns="http://www.w3.org/2000/svg" width="36" height="36" viewBox="0 0 36 36">
  <defs>
    <style>
      .fill {
        fill: #fff;
        opacity: 0.65;
      }
    </style>
  </defs>
  <g id="i_c_o_n_s" data-name="i c o n s">
    <path class="fill" d="M27.49316,16.02856a1.7325,1.7325,0,0,0-1.438-.66552,1.86461,1.86461,0,0,0-1.771,1.009,2.7087,2.7087,0,0,0-.29.87988h2.8125q.51489,0,.76172-.01074a1.50749,1.50749,0,0,0,.31152-.032v-.12891a1.71279,1.71279,0,0,0-.08593-.49365A1.78658,1.78658,0,0,0,27.49316,16.02856Z"/>
    <path class="fill" d="M28.44336,2H7.55664A5.55664,5.55664,0,0,0,2,7.55664V26.44336A5.55664,5.55664,0,0,0,7.55664,32H21.142A3.95382,3.95382,0,0,1,21,31V29a4.00458,4.00458,0,0,1,4-4,3.954,3.954,0,0,1,.14081-.996,6.12237,6.12237,0,0,1-1.27509-.37622,4.55472,4.55472,0,0,1-1.67431-1.26636,4.96061,4.96061,0,0,1-.92334-1.74951,6.89453,6.89453,0,0,1-.27881-1.94287,6.76154,6.76154,0,0,1,.33252-2.11451,5.52179,5.52179,0,0,1,.998-1.82446,4.79415,4.79415,0,0,1,1.61035-1.2666,5.033,5.033,0,0,1,2.23243-.46167,4.8419,4.8419,0,0,1,2.07129.408,3.74679,3.74679,0,0,1,1.40625,1.10547,4.889,4.889,0,0,1,.79443,1.51343,5.403,5.403,0,0,1,.25732,1.63159q.00009.47223-.03216.85827-.03224.38673-.05371.55811a.194.194,0,0,1-.19287.17188q-.12891,0-.44043.03222-.31128.03224-.77246.043-.46216.011-.97706.01074h-4.229a2.76632,2.76632,0,0,0,.4082,1.127,2.20989,2.20989,0,0,0,.97657.80493,4.11606,4.11606,0,0,0,1.61346.29413A3.95375,3.95375,0,0,1,29,21h2a3.97455,3.97455,0,0,1,3,1.3822V7.55664A5.55664,5.55664,0,0,0,28.44336,2ZM20.26758,23.96533a.17469.17469,0,0,1-.13281.05371H17.48389a.15859.15859,0,0,1-.102-.03222.14253.14253,0,0,1-.041-.11792q0-1.09461-.00976-2.29688-.011-1.20226-.03077-2.415-.0205-1.21253,0-2.3291.01978-1.11585.02-2.06079,0-.944.01075-1.64209.00951-.69726.00976-1.04126h-.02051q-.12158.53686-.32617,1.406-.20361.86938-.479,1.95361-.2754,1.084-.59131,2.24316-.31641,1.15942-.61231,2.29688-.29515,1.13819-.5708,2.12524-.27538.98767-.459,1.73877a.22514.22514,0,0,1-.22412.17163H11.75293a.21936.21936,0,0,1-.24463-.17163q-.18311-.7511-.418-1.73877-.23511-.98694-.47894-2.06079-.24473-1.073-.52051-2.20019-.27476-1.1272-.51953-2.179-.24463-1.05139-.43854-1.97485Q8.938,12.771,8.77588,12.06226h-.041v1.696q0,.9873-.03076,2.17871-.02994,1.19165-.061,2.49024-.03,1.29894-.07129,2.6831-.041,1.385-.10205,2.73706c0,.11475-.05469.17163-.16309.17163H5.94092a.24323.24323,0,0,1-.13233-.03222q-.05127-.03224-.03076-.16089L6.51221,10.0874a.14374.14374,0,0,1,.15667-.12964l.00641.00074h3.75244a.2036.2036,0,0,1,.22413.15039q.14282.55846.34668,1.34179.20361.78369.43847,1.728.23438.94482.479,1.93188.24536.98767.47949,1.92115.23438.93384.39746,1.71728.16333.78407.26562,1.29883h.02q.0813-.45081.28571-1.20215.20361-.7511.46875-1.68506t.54053-1.92138q.27539-.98694.54046-1.95337.26523-.96607.49951-1.79248.23446-.82617.37751-1.38452a.1783.1783,0,0,1,.18359-.15039H19.625a.1623.1623,0,0,1,.1825.13916l.00109.01123.48926,13.717A.14232.14232,0,0,1,20.26758,23.96533Z"/>
    <path class="fill" d="M32,28V25a1,1,0,0,0-1-1H29a1,1,0,0,0-1,1v3H25a1,1,0,0,0-1,1v2a1,1,0,0,0,1,1h3v3a1,1,0,0,0,1,1h2a1,1,0,0,0,1-1V32h3a1,1,0,0,0,1-1V29a1,1,0,0,0-1-1Z"/>
  </g>
</svg>
