<svg id="S_AEComp_172_N_2x" data-name="S_AEComp_172_N@2x" xmlns="http://www.w3.org/2000/svg" width="344" height="344" viewBox="0 0 344 344">
  <defs>
    <style>
      .cls-1 {
        fill: #888a8c;
      }

      
    </style>
  </defs>
  <title>S_AEComp_172_N@2x</title>
  <path class="cls-1" d="M213,157H187V122.3a2,2,0,0,0-3.41-1.414l-62,60.7A2,2,0,0,0,123,185h22a27.919,27.919,0,1,0,52.133,20H213a2,2,0,0,0,2-2V159A2,2,0,0,0,213,157Zm-86,24,56-54.75V157H169a2,2,0,0,0-2,2v8.318A27.975,27.975,0,0,0,146.776,181Zm44,38.351a24,24,0,1,1,24-24A24,24,0,0,1,171,219.351ZM211,201H198.342A27.958,27.958,0,0,0,171,167v-6h40Zm74,45H59a6.007,6.007,0,0,1-6-6V103a6.007,6.007,0,0,1,6-6H285a6.007,6.007,0,0,1,6,6V240A6.007,6.007,0,0,1,285,246ZM59,101a2,2,0,0,0-2,2V240a2,2,0,0,0,2,2H285a2,2,0,0,0,2-2V103a2,2,0,0,0-2-2Z"/>
  </svg>