<svg id="S_AEFootageToComp_172_N_2x" data-name="S_AEFootageToComp_172_N@2x" xmlns="http://www.w3.org/2000/svg" width="344" height="344" viewBox="0 0 344 344">
  <defs>
    <style>
      .cls-1 {
        fill: #888a8c;
      }

      
    </style>
  </defs>
  <title>S_AEFootageToComp_172_N@2x</title>
  <path class="cls-1" d="M234,159H208V124.3a2,2,0,0,0-3.41-1.414l-62,60.7A2,2,0,0,0,144,187h22a27.919,27.919,0,1,0,52.133,20H234a2,2,0,0,0,2-2V161A2,2,0,0,0,234,159Zm-86,24,56-54.75V159H190a2,2,0,0,0-2,2v8.318A27.975,27.975,0,0,0,167.776,183Zm44,38.351a24,24,0,1,1,24-24A24,24,0,0,1,192,221.351ZM232,203H219.342A27.958,27.958,0,0,0,192,169v-6h40Zm74,43H124v-4H306a2,2,0,0,0,2-2V103a2,2,0,0,0-2-2H80a2,2,0,0,0-2,2v32H74V103a6.007,6.007,0,0,1,6-6H306a6.007,6.007,0,0,1,6,6V240A6.007,6.007,0,0,1,306,246Zm-192,0H36a6.007,6.007,0,0,1-6-6V144a6.007,6.007,0,0,1,6-6h78a6.007,6.007,0,0,1,6,6v96A6.007,6.007,0,0,1,114,246ZM36,142a2,2,0,0,0-2,2v96a2,2,0,0,0,2,2h78a2,2,0,0,0,2-2V144a2,2,0,0,0-2-2Zm13.5,19h-5a2.5,2.5,0,0,1-2.5-2.5v-5a2.5,2.5,0,0,1,2.5-2.5h5a2.5,2.5,0,0,1,2.5,2.5v5A2.5,2.5,0,0,1,49.5,161ZM45,158h4v-4H45Zm4.5,21h-5a2.5,2.5,0,0,1-2.5-2.5v-5a2.5,2.5,0,0,1,2.5-2.5h5a2.5,2.5,0,0,1,2.5,2.5v5A2.5,2.5,0,0,1,49.5,179ZM45,176h4v-4H45Zm4.5,21h-5a2.5,2.5,0,0,1-2.5-2.5v-5a2.5,2.5,0,0,1,2.5-2.5h5a2.5,2.5,0,0,1,2.5,2.5v5A2.5,2.5,0,0,1,49.5,197ZM45,194h4v-4H45Zm4.5,20h-5a2.5,2.5,0,0,1-2.5-2.5v-5a2.5,2.5,0,0,1,2.5-2.5h5a2.5,2.5,0,0,1,2.5,2.5v5A2.5,2.5,0,0,1,49.5,214ZM45,211h4v-4H45Zm4.5,21h-5a2.5,2.5,0,0,1-2.5-2.5v-5a2.5,2.5,0,0,1,2.5-2.5h5a2.5,2.5,0,0,1,2.5,2.5v5A2.5,2.5,0,0,1,49.5,232ZM45,229h4v-4H45Zm60.5-68h-5a2.5,2.5,0,0,1-2.5-2.5v-5a2.5,2.5,0,0,1,2.5-2.5h5a2.5,2.5,0,0,1,2.5,2.5v5A2.5,2.5,0,0,1,105.5,161Zm-4.5-3h4v-4h-4Zm4.5,21h-5a2.5,2.5,0,0,1-2.5-2.5v-5a2.5,2.5,0,0,1,2.5-2.5h5a2.5,2.5,0,0,1,2.5,2.5v5A2.5,2.5,0,0,1,105.5,179Zm-4.5-3h4v-4h-4Zm4.5,21h-5a2.5,2.5,0,0,1-2.5-2.5v-5a2.5,2.5,0,0,1,2.5-2.5h5a2.5,2.5,0,0,1,2.5,2.5v5A2.5,2.5,0,0,1,105.5,197Zm-4.5-3h4v-4h-4Zm4.5,20h-5a2.5,2.5,0,0,1-2.5-2.5v-5a2.5,2.5,0,0,1,2.5-2.5h5a2.5,2.5,0,0,1,2.5,2.5v5A2.5,2.5,0,0,1,105.5,214Zm-4.5-3h4v-4h-4Zm4.5,21h-5a2.5,2.5,0,0,1-2.5-2.5v-5a2.5,2.5,0,0,1,2.5-2.5h5a2.5,2.5,0,0,1,2.5,2.5v5A2.5,2.5,0,0,1,105.5,232Zm-4.5-3h4v-4h-4Z"/>
  </svg>