<?xml version="1.0" encoding="utf-8"?>
<!-- Generator: Adobe Illustrator 21.1.0, SVG Export Plug-In . SVG Version: 6.00 Build 0)  -->
<svg version="1.1" id="S_AEComp_172_N_2x" xmlns="http://www.w3.org/2000/svg" xmlns:xlink="http://www.w3.org/1999/xlink" x="0px"
	 y="0px" viewBox="0 0 344 344" style="enable-background:new 0 0 344 344;" xml:space="preserve">
<style type="text/css">
	.st0{fill:#1056A7;}
</style>
<title>S_AEComp_172_N@2x</title>
<path class="st0" d="M213,157h-26v-34.7c0-1.1-0.9-2-2-2c-0.5,0-1,0.2-1.4,0.6l-62,60.7c-0.8,0.8-0.8,2,0,2.8
	c0.4,0.4,0.9,0.6,1.4,0.6h22c-5.6,14.4,1.6,30.5,15.9,36.1c14.4,5.6,30.5-1.6,36.1-15.9c0-0.1,0-0.1,0.1-0.2H213c1.1,0,2-0.9,2-2
	v-44C215,157.9,214.1,157,213,157z M127,181l56-54.8V157h-14c-1.1,0-2,0.9-2,2v8.3c-8.5,1.2-15.9,6.3-20.2,13.7H127z M171,219.4
	c-13.3,0-24-10.7-24-24s10.7-24,24-24s24,10.7,24,24S184.3,219.4,171,219.4z M211,201h-12.7c3.3-15.1-6.2-30-21.3-33.3
	c-2-0.4-4-0.7-6.1-0.7v-6h40V201z M285,246H59c-3.3,0-6-2.7-6-6V103c0-3.3,2.7-6,6-6h226c3.3,0,6,2.7,6,6v137
	C291,243.3,288.3,246,285,246z M59,101c-1.1,0-2,0.9-2,2v137c0,1.1,0.9,2,2,2h226c1.1,0,2-0.9,2-2V103c0-1.1-0.9-2-2-2H59z"/>
</svg>
