<?xml version="1.0" encoding="utf-8"?>
<!-- Generator: Adobe Illustrator 21.1.0, SVG Export Plug-In . SVG Version: 6.00 Build 0)  -->
<svg version="1.1" id="S_AEFootageToComp_172_N_2x" xmlns="http://www.w3.org/2000/svg" xmlns:xlink="http://www.w3.org/1999/xlink"
	 x="0px" y="0px" viewBox="0 0 344 344" style="enable-background:new 0 0 344 344;" xml:space="preserve">
<style type="text/css">
	.st0{fill:#1056A7;}
</style>
<title>S_AEFootageToComp_172_N@2x</title>
<path class="st0" d="M234,159h-26v-34.7c0-1.1-0.9-2-2-2c-0.5,0-1,0.2-1.4,0.6l-62,60.7c-0.8,0.8-0.8,2,0,2.8
	c0.4,0.4,0.9,0.6,1.4,0.6h22c-5.6,14.4,1.6,30.5,15.9,36.1c14.4,5.6,30.5-1.6,36.1-15.9c0-0.1,0-0.1,0.1-0.2H234c1.1,0,2-0.9,2-2
	v-44C236,159.9,235.1,159,234,159z M148,183l56-54.8V159h-14c-1.1,0-2,0.9-2,2v8.3c-8.5,1.2-15.9,6.3-20.2,13.7H148z M192,221.4
	c-13.3,0-24-10.7-24-24s10.7-24,24-24s24,10.7,24,24S205.3,221.4,192,221.4z M232,203h-12.7c3.3-15.1-6.2-30-21.3-33.3
	c-2-0.4-4-0.7-6.1-0.7v-6h40V203z M306,246H124v-4h182c1.1,0,2-0.9,2-2V103c0-1.1-0.9-2-2-2H80c-1.1,0-2,0.9-2,2v32h-4v-32
	c0-3.3,2.7-6,6-6h226c3.3,0,6,2.7,6,6v137C312,243.3,309.3,246,306,246z M114,246H36c-3.3,0-6-2.7-6-6v-96c0-3.3,2.7-6,6-6h78
	c3.3,0,6,2.7,6,6v96C120,243.3,117.3,246,114,246z M36,142c-1.1,0-2,0.9-2,2v96c0,1.1,0.9,2,2,2h78c1.1,0,2-0.9,2-2v-96
	c0-1.1-0.9-2-2-2H36z M49.5,161h-5c-1.4,0-2.5-1.1-2.5-2.5v-5c0-1.4,1.1-2.5,2.5-2.5h5c1.4,0,2.5,1.1,2.5,2.5v5
	C52,159.9,50.9,161,49.5,161z M45,158h4v-4h-4V158z M49.5,179h-5c-1.4,0-2.5-1.1-2.5-2.5v-5c0-1.4,1.1-2.5,2.5-2.5h5
	c1.4,0,2.5,1.1,2.5,2.5v5C52,177.9,50.9,179,49.5,179z M45,176h4v-4h-4V176z M49.5,197h-5c-1.4,0-2.5-1.1-2.5-2.5v-5
	c0-1.4,1.1-2.5,2.5-2.5h5c1.4,0,2.5,1.1,2.5,2.5v5C52,195.9,50.9,197,49.5,197z M45,194h4v-4h-4V194z M49.5,214h-5
	c-1.4,0-2.5-1.1-2.5-2.5v-5c0-1.4,1.1-2.5,2.5-2.5h5c1.4,0,2.5,1.1,2.5,2.5v5C52,212.9,50.9,214,49.5,214z M45,211h4v-4h-4V211z
	 M49.5,232h-5c-1.4,0-2.5-1.1-2.5-2.5v-5c0-1.4,1.1-2.5,2.5-2.5h5c1.4,0,2.5,1.1,2.5,2.5v5C52,230.9,50.9,232,49.5,232z M45,229h4
	v-4h-4V229z M105.5,161h-5c-1.4,0-2.5-1.1-2.5-2.5v-5c0-1.4,1.1-2.5,2.5-2.5h5c1.4,0,2.5,1.1,2.5,2.5v5
	C108,159.9,106.9,161,105.5,161z M101,158h4v-4h-4V158z M105.5,179h-5c-1.4,0-2.5-1.1-2.5-2.5v-5c0-1.4,1.1-2.5,2.5-2.5h5
	c1.4,0,2.5,1.1,2.5,2.5v5C108,177.9,106.9,179,105.5,179z M101,176h4v-4h-4V176z M105.5,197h-5c-1.4,0-2.5-1.1-2.5-2.5v-5
	c0-1.4,1.1-2.5,2.5-2.5h5c1.4,0,2.5,1.1,2.5,2.5v5C108,195.9,106.9,197,105.5,197z M101,194h4v-4h-4V194z M105.5,214h-5
	c-1.4,0-2.5-1.1-2.5-2.5v-5c0-1.4,1.1-2.5,2.5-2.5h5c1.4,0,2.5,1.1,2.5,2.5v5C108,212.9,106.9,214,105.5,214z M101,211h4v-4h-4V211z
	 M105.5,232h-5c-1.4,0-2.5-1.1-2.5-2.5v-5c0-1.4,1.1-2.5,2.5-2.5h5c1.4,0,2.5,1.1,2.5,2.5v5C108,230.9,106.9,232,105.5,232z
	 M101,229h4v-4h-4V229z"/>
</svg>
