<svg id="S_Alpha_Sm_N_D_2x" data-name="S_Alpha_Sm_N_D@2x" xmlns="http://www.w3.org/2000/svg" width="32" height="32" viewBox="0 0 32 32">
  <defs>
    <style>
      .fill {
        fill: #fff;
        fill-rule: evenodd;
        opacity: 0.65;
      }

      
    </style>
  </defs>
  <title>S_Alpha_Sm_N_D@2x</title>
  <path class="fill" d="M11.068,11.966a4.941,4.941,0,0,0,.153,1.22A4.932,4.932,0,1,0,16,20.854a4.932,4.932,0,1,0,4.78-7.668A4.933,4.933,0,1,0,11.068,11.966Z"/>
  <path class="fill" d="M17.5,28H4V4H28V19.5a0.5,0.5,0,0,0,.5.5h1a0.5,0.5,0,0,0,.5-0.5V3a1,1,0,0,0-1-1H3A1,1,0,0,0,2,3V29a1,1,0,0,0,1,1H17.5a0.5,0.5,0,0,0,.5-0.5v-1A0.5,0.5,0,0,0,17.5,28Z"/>
  <path class="fill" d="M19.4,25H28.6a0.5,0.5,0,0,1,.354.854L24,31l-4.97-5.16A0.5,0.5,0,0,1,19.4,25Z"/>
  </svg>