<svg id="S_AsianTextTsume_Md_N_D2x" data-name="S_AsianTextTsume_Md_N_D@2x" xmlns="http://www.w3.org/2000/svg" width="36" height="36" viewBox="0 0 36 36">
  <defs>
    <style>
      .fill {
        fill-rule: evenodd;
        fill: #fff;
        opacity: 0.65;
      }

      
    </style>
  </defs>
  <title>S_AsianTextTsume_Md_N_D@2x</title>
  <path id="fill" class="fill" d="M28,30h5.5a0.5,0.5,0,0,0,.5-0.5v-1a0.5,0.5,0,0,0-.5-0.5H28V25.5a0.5,0.5,0,0,0-.812-0.39L23,29l4.188,3.889A0.5,0.5,0,0,0,28,32.5V30Z" transform="translate(0 0)"/>
  <path class="fill" d="M24.452,11.44C22.568,9.849,19.8,9.739,18,9.88V8h6V6H18V4H16V6H12V8h4v2.209c-1.857.49-6.073,1.951-6.249,5.153-0.108,1.963.448,3.353,1.652,4.132,2.587,1.672,6.875-.512,7.056-0.606,2.079-1.075,4.1-4.171,4.984-5.651a3.908,3.908,0,0,1,.939,2.716c0.066,3.913-3.958,4.179-4.414,4.2l0.063,2c2.232-.069,6.432-1.461,6.352-6.229A5.7,5.7,0,0,0,24.452,11.44ZM12.49,17.815c-0.558-.361-0.808-1.149-0.742-2.344,0.085-1.56,2.556-2.654,4.277-3.184a19.2,19.2,0,0,0,.773,5.152C15.51,17.95,13.495,18.464,12.49,17.815Zm6.07-1.462a19.494,19.494,0,0,1-.549-4.467,9.752,9.752,0,0,1,3.72.315A20.5,20.5,0,0,1,18.561,16.352Z" transform="translate(0 0)"/>
  <rect class="fill" x="28" y="4" width="2" height="2" rx="0.5" ry="0.5"/>
  <rect class="fill" x="28" y="8" width="2" height="2" rx="0.5" ry="0.5"/>
  <rect class="fill" x="28" y="12" width="2" height="2" rx="0.5" ry="0.5"/>
  <rect class="fill" x="28" y="16" width="2" height="2" rx="0.5" ry="0.5"/>
  <rect class="fill" x="28" y="20" width="2" height="2" rx="0.5" ry="0.5"/>
  <rect class="fill" x="6" y="4" width="2" height="2" rx="0.5" ry="0.5"/>
  <rect class="fill" x="6" y="8" width="2" height="2" rx="0.5" ry="0.5"/>
  <rect class="fill" x="6" y="12" width="2" height="2" rx="0.5" ry="0.5"/>
  <rect class="fill" x="6" y="16" width="2" height="2" rx="0.5" ry="0.5"/>
  <rect class="fill" x="6" y="20" width="2" height="2" rx="0.5" ry="0.5"/>
  <path id="fill-2" data-name="fill" class="fill" d="M8,30H2.5A0.5,0.5,0,0,1,2,29.5v-1A0.5,0.5,0,0,1,2.5,28H8V25.5a0.5,0.5,0,0,1,.812-0.39L13,29,8.812,32.889A0.5,0.5,0,0,1,8,32.5V30Z" transform="translate(0 0)"/>
  </svg>
