<svg id="S_Audio_Xs_N_D_2x" data-name="S_Audio_Xs_N_D@2x" xmlns="http://www.w3.org/2000/svg" width="26" height="26" viewBox="0 0 26 26">
  <defs>
    <style>
      .fill {
        fill-rule: evenodd;
        opacity: 0.65;
        fill:#fff;
      }

      
    </style>
  </defs>
  <title>S_Audio_Xs_N_D@2x</title>
  <path class="fill" d="M12,3V23a1,1,0,0,1-1.664.747L5.812,18.5H3a1,1,0,0,1-1-1v-9a1,1,0,0,1,1-1H5.812l4.523-5.247A1,1,0,0,1,12,3Zm3,.523v1a.5.5,0,0,0,.479.492,8,8,0,0,1,0,15.972.5.5,0,0,0-.479.492v1a.506.506,0,0,0,.522.507,10,10,0,0,0,0-19.973A.506.506,0,0,0,15,3.521ZM20,13a5,5,0,0,0-4.424-4.967.508.508,0,0,0-.576.5v1a.494.494,0,0,0,.407.5,3,3,0,0,1,0,5.945.494.494,0,0,0-.407.5v1a.508.508,0,0,0,.576.5A5,5,0,0,0,20,13Z"/>
  </svg>