<svg id="S_AutoZoom_Lg_N_D_2x" data-name="S_AutoZoom_Lg_N_D@2x" xmlns="http://www.w3.org/2000/svg" width="44" height="36" viewBox="0 0 44 36">
  <defs>
    <style>
      .fill {
        fill: #fff;
        fill-rule: evenodd;
        opacity: 0.65;
      }

      
    </style>
  </defs>
  <title>S_AutoZoom_Lg_N_D@2x</title>
  <path class="fill" d="M40.385,29.415l-7.264-7.264a11,11,0,1,0-2.969,2.97l7.264,7.264A2.1,2.1,0,1,0,40.385,29.415ZM15,16a9,9,0,1,1,9,9A9,9,0,0,1,15,16Z"/>
  <path class="fill" d="M2.683,7.18A0.5,0.5,0,0,0,3.067,8H6V24H3.067a0.5,0.5,0,0,0-.384.82L7,30l4.317-5.18A0.5,0.5,0,0,0,10.932,24H8V8h2.932a0.5,0.5,0,0,0,.384-0.82L7,2Z"/>
  </svg>