<svg xmlns="http://www.w3.org/2000/svg" width="36" height="36" viewBox="0 0 36 36">
  <defs>
    <style>
      .fill {
        fill: #fff;
        fill-rule: evenodd;
        opacity: 0.65;
      }
    </style>
  </defs>
  <g id="icons">
    <path class="fill" d="M16.32422,30.002H10a4.40579,4.40579,0,0,0,4,4,4.3908,4.3908,0,0,0,3.39551-2.16356A11.73366,11.73366,0,0,1,16.32422,30.002Z"/>
    <path class="fill" d="M35.19317,23.78627H33.06783a6.14437,6.14437,0,0,0-.89739-2.17866l1.51317-1.5131a.60683.60683,0,0,0,0-.85819l0,0-.91989-.91988a.60689.60689,0,0,0-.85827-.00012l-.00012.00012-1.51311,1.51321a6.14731,6.14731,0,0,0-2.1785-.89761v-2.1251a.60683.60683,0,0,0-.60683-.60683H26.39317a.60684.60684,0,0,0-.60684.60683h0V18.932a6.14739,6.14739,0,0,0-2.1785.89761l-1.51339-1.51311a.6069.6069,0,0,0-.85827-.00012l-.00011.00012-.91989.91989a.60683.60683,0,0,0,0,.85819l0,0,1.51316,1.513a6.14462,6.14462,0,0,0-.89739,2.17865H18.80683A.60683.60683,0,0,0,18.2,24.3931v1.21378a.60694.60694,0,0,0,.60683.60694h2.12528a6.14425,6.14425,0,0,0,.89739,2.17865l-1.51311,1.51311a.60678.60678,0,0,0,0,.85811l.91983.91966a.60689.60689,0,0,0,.85827.00012l.00012-.00012,1.51317-1.513a6.1466,6.1466,0,0,0,2.1785.89728v2.12526A.60693.60693,0,0,0,26.393,33.8h1.21389a.60694.60694,0,0,0,.60683-.60694V31.0678a6.1466,6.1466,0,0,0,2.1785-.89728l1.51333,1.51283a.60689.60689,0,0,0,.85827.00012l.00012-.00012.91989-.91988a.60678.60678,0,0,0,0-.85811l-1.51317-1.51305a6.14437,6.14437,0,0,0,.89739-2.17866h2.12528A.60693.60693,0,0,0,35.8,25.60688V24.3931a.60683.60683,0,0,0-.60683-.60683ZM27,28.5A3.5,3.5,0,1,1,30.5,25h0A3.5,3.5,0,0,1,27,28.5Z"/>
    <path class="fill" d="M15.19881,24.99817a11.798,11.798,0,0,1,8.10877-11.20224c-.10083-1.30849-.16625-2.74783-.16625-4.40932,0-3.43674-3.20581-4.89072-7.14253-5.26765V1.002a1.079,1.079,0,0,0-1.143-.99992H13.14208a1.079,1.079,0,0,0-1.143.99992V4.119c-3.93672.37693-7.14253,1.83091-7.14253,5.26765C4.85657,24.80043,0,24.11128,0,26.15433v1.84555H15.59893A11.77272,11.77272,0,0,1,15.19881,24.99817Z"/>
  </g>
</svg>
