<svg id="S_BlueChannelCMOn_Sm_N_D_2x" data-name="S_BlueChannelCMOn_Sm_N_D@2x" xmlns="http://www.w3.org/2000/svg" width="32" height="32" viewBox="0 0 32 32">
  <defs>
    <style>
      .fill {
        fill: #fff;
        fill-rule: evenodd;
        opacity: 0.65;
      }

      .cls-1 {
        fill: #3f69ff;
      }

      
    </style>
  </defs>
  <title>S_BlueChannelCMOn_Sm_N_D@2x</title>
  <path class="fill" d="M19.586,26h9.207a0.5,0.5,0,0,1,.354.854L24,32l-4.781-5.16A0.5,0.5,0,0,1,19.586,26Z"/>
  <path class="fill" d="M18.6,9.123A2.489,2.489,0,0,1,18,7.5v-1a2.5,2.5,0,0,1,.984-1.986,6,6,0,0,0-9.63,6.521A6,6,0,1,0,13.6,21.8,8,8,0,0,1,18.6,9.123Z"/>
  <path class="cls-1" d="M24.5,14A2.5,2.5,0,0,1,22,11.5V11.342A6,6,0,1,0,25.2,14H24.5Z"/>
  <path class="fill" d="M29.5,6H26V2.5A0.5,0.5,0,0,0,25.5,2h-1a0.5,0.5,0,0,0-.5.5V6H20.5a0.5,0.5,0,0,0-.5.5v1a0.5,0.5,0,0,0,.5.5H24v3.5a0.5,0.5,0,0,0,.5.5h1a0.5,0.5,0,0,0,.5-0.5V8h3.5A0.5,0.5,0,0,0,30,7.5v-1A0.5,0.5,0,0,0,29.5,6Z"/>
  </svg>