<svg id="S_Boundary_16x13_N_D_2x" data-name="S_Boundary_16x13_N_D@2x" xmlns="http://www.w3.org/2000/svg" width="32.155" height="26" viewBox="0 0 32.155 26">
  <defs>
    <style>
      .fill, .fillMedium, .fillPale {
        fill: #fff;
      }

      .fillPale {
        opacity: 0.15;
      }

      .fillMedium {
        opacity: 0.3;
      }

      .cls-1 {
        fill: #fc28fc;
      }

      .cls-1, .fill {
        fill-rule: evenodd;
      }

      .fill {
        opacity: 0.65;
      }

      
    </style>
  </defs>
  <title>S_Boundary_16x13_N_D@2x</title>
  <polygon class="fillPale" points="12.7 17 12.7 17 13.155 14.664 12.7 17"/>
  <path class="fillMedium" d="M30,0H2A2,2,0,0,0,0,2V17H7.863c-.041-.015-.082-.031-.123-.049a2.077,2.077,0,0,1-1.192-2.34l.9-4.119a2.076,2.076,0,0,1,.777-1.211l3.628-2.721c.059-.044.121-.086.184-.125a3.859,3.859,0,1,1,6.08.725l1.517,1.517L21.37,7.521a2.07,2.07,0,0,1,2.613.259l.251.251a2.071,2.071,0,0,1-.221,3.121l-4.631,3.474-1.162-1-.139,1.112L19.641,17H32V2A2,2,0,0,0,30,0Z"/>
  <path class="fillPale" d="M11.655,14.52V12.467l-.35.19-.725,2.9A2.065,2.065,0,0,1,9.282,17h1.89Z"/>
  <path class="fillPale" d="M19.641,17l1.325,1.921.325,4.066a2.327,2.327,0,0,1-4.63.468l-.306-2.5-.848-1.027L14.934,21.5l-2.145,2.931a2.272,2.272,0,0,1-1.812.915,2.252,2.252,0,0,1-1.873-3.5l1.588-2.382L11.172,17H9.282a2.07,2.07,0,0,1-1.42,0H0v7a2,2,0,0,0,2,2H30a2,2,0,0,0,2-2V17Z"/>
  <polygon class="fillMedium" points="12.7 17 12.107 20.043 12.7 17 12.7 17"/>
  <path class="cls-1" d="M24.235,8.032l-.251-.251a2.07,2.07,0,0,0-2.613-.259L19.637,8.676,18.12,7.16a3.858,3.858,0,1,0-6.08-.725c-.063.039-.125.081-.184.125L8.228,9.282a2.076,2.076,0,0,0-.777,1.211l-.9,4.119a2.071,2.071,0,0,0,4.033.945l.725-2.9.35-.19V14.52l-.963,4.941L9.1,21.843a2.252,2.252,0,0,0,3.685,2.586L14.934,21.5l.573-1.573.848,1.027.306,2.5a2.327,2.327,0,0,0,4.63-.468l-.325-4.066-2.884-4.18.139-1.112,1.162,1,4.631-3.474a2.071,2.071,0,0,0,.221-3.121ZM15.358,2.108A2.359,2.359,0,1,1,13,4.467,2.359,2.359,0,0,1,15.358,2.108Zm7.755,7.845L19.446,12.7,17.079,10.67l-.556,4.452,2.98,4.319.293,3.665a.827.827,0,0,1-1.646.166l-.359-2.937L15.1,17.079h-.156l-1.35,3.7-2.019,2.759a.752.752,0,0,1-1.227-.868l1.755-2.633,1.048-5.378V9.943L10.01,11.655l-.884,3.537a.571.571,0,0,1-1.112-.261l.9-4.118a.571.571,0,0,1,.215-.335l3.625-2.719a1.048,1.048,0,0,1,.883-.178l3.71.927,2.1,2.1L22.2,8.769a.571.571,0,0,1,.721.071l.252.252A.571.571,0,0,1,23.113,9.953Z"/>
  <circle class="fill" cx="15.358" cy="4.467" r="2.359"/>
  <path class="fill" d="M17.079,10.67,19.446,12.7l3.667-2.75a.571.571,0,0,0,.061-.861l-.251-.251a.571.571,0,0,0-.721-.071l-2.756,1.837-2.1-2.1-3.71-.927a1.048,1.048,0,0,0-.883.178L9.131,10.479a.571.571,0,0,0-.215.335l-.9,4.118a.571.571,0,0,0,.329.646h0a.571.571,0,0,0,.784-.385l.884-3.537,3.145-1.712v4.721l-1.048,5.378-1.755,2.633a.752.752,0,0,0,.094.948h0a.752.752,0,0,0,1.133-.081L13.6,20.784l1.35-3.7H15.1l2.687,3.257.359,2.937a.827.827,0,0,0,.821.727h0a.827.827,0,0,0,.825-.893L19.5,19.441l-2.98-4.319Z"/>
  </svg>