<?xml version="1.0" encoding="utf-8"?>
<!-- Generator: Adobe Illustrator 24.1.0, SVG Export Plug-In . SVG Version: 6.00 Build 0)  -->
<svg version="1.1" id="S_CameraDialogDark_602x428_N_D_2x"
	 xmlns="http://www.w3.org/2000/svg" xmlns:xlink="http://www.w3.org/1999/xlink" x="0px" y="0px" viewBox="0 0 377.1 622.1"
	 style="enable-background:new 0 0 377.1 622.1;" xml:space="preserve">
<style type="text/css">
	.st0{opacity:0.3;fill:#FFFFFF;}
</style>
<path class="st0" d="M270.7,622.3c-5.9,0-11.9-0.3-17.3-0.6c-4.6-0.3-9-0.5-12.6-0.5c-2.7,0-4.7,0.1-6.2,0.4l-0.2,0l-0.6,0
	c-8.3,0-15.5-4-19.7-10.9c-4.2-6.9-4.5-15.6-1-22.9c3-54.3-2.9-154.3-15.1-202.8c-1.4-3.4-4.7-4.6-7.4-4.6c-2.6,0-5.9,1.2-7.3,4.5
	c-2.2,18.4-4.5,29.6-6.6,40.4c-2.2,10.8-4.4,22-6.6,40.4l0,0.3l-0.1,0.3c-4.1,12.5-2,123.6,1,133.2l0.1,0.4l0,0.4
	c0.1,5.5-1.6,10-5,13.5c-7.4,7.5-21.8,8.4-31.9,8.4c-5.9,0-11.9-0.3-17.3-0.6c-4.6-0.3-9-0.5-12.6-0.5c-2.7,0-4.7,0.1-6.2,0.4
	l-0.4,0.1l-0.4,0c-16.6-1.3-23.8-13-23.4-23.5c0.4-11.4,9.8-23,26.9-23c1,0,2.1,0,3.2,0.1c-3.4-62.8,7.1-170,15.9-228.1
	c-2.7-5.8-5-25.1-9.6-78l-5.2,76c-1.3,11.7-11.1,20.5-23,20.5c-0.6,0-1.2,0.1-1.8,0.1c-8.6,0-16.8-3.4-21.9-9.1
	c-4.2-4.7-6-10.6-5.2-17l0-0.1c0.2-1.3,0.5-6.1,0.9-12.3c1.3-19.3,3.6-55.3,8.4-83.3c2.3-13.6,8.6-37.5,15.6-59.6
	c10-31.6,14.3-38.1,16.9-39.4c4.4-5.3,14.1-7.7,31.3-7.7c6,0,12.2,0.3,17.7,0.5c4.6,0.2,8.9,0.4,12.4,0.4c1.3,0,2.4,0,3.4-0.1v-19
	c-34.9-13.5-42.9-44.2-39-66.8c4.5-25.9,26.9-53.9,65.4-53.9c0.8,0,1.5,0,2.3,0c0.8,0,1.5,0,2.3,0c38.6,0,61,27.9,65.5,53.9
	c3.9,22.6-4.1,53.3-39,66.8v19.1c1.3,0.1,2.7,0.2,4.5,0.2c3.8,0,8.2-0.3,13-0.5c5.7-0.3,11.5-0.7,17.4-0.7c9.6,0,34.9,0,36.1,20.2
	l25.3,86.3c5.5,19.7,7.7,64.2,8.8,85.6c0.3,5.3,0.5,9.5,0.6,10.5c0.8,6.4-1,12.3-5.2,17c-5.1,5.7-13.2,9.1-21.8,9.1
	c-0.6,0-1.2,0-1.8,0c-0.3,0-0.6,0-0.9,0c-22.3,0-25-47.6-26.2-85.4c-3.8,46.8-5,59.1-6,62.9l13.8,115c1.9,3.1,2.9,15.7,2.4,99.3
	c0,7.4-0.1,14.1-0.1,17.8c0.9-0.1,1.7-0.1,2.6-0.1c9.9,0,18.5,3.2,23.4,8.8c3.8,4.3,5.4,10,4.7,16.4c0,5.4-1.6,9.9-5,13.3
	C295.2,621.5,280.9,622.3,270.7,622.3z M293.9,362.7c13.5,0.8,27.6-7.9,25.8-22.7c-0.7-5.2-2.4-70.9-9.3-95.6L285,157.8
	c-1.1-27.6-54.6-13.7-70.9-17V117C280.7,93.3,258.4-0.5,188.4,1.5C118.3-0.6,96,93.3,162.6,117v23.8c-12.2,2.1-57.7-5.8-66,6.8
	c-5.2-0.6-26.3,68-31.2,96.9C59,282,57,334.6,56.1,340c-1.8,14.8,12.4,23.5,25.8,22.7c10.3,0,19-7.7,20.1-17.8l7.6-111.3
	c2,7.6,8.2,107.9,13.3,113.1c-9.3,60.5-19.8,170.9-15.8,232.1c-35.9-5.8-41,37.6-9.7,40c16.3-2.9,71.1,10.6,70.6-18.2
	c-3.4-10.7-5.1-122.6-1-135.1c4.4-37,8.9-44.2,13.3-81.2c3.5-9,17-8.9,20.5,0c12.8,50.6,18.2,152,15.2,204.5
	c-6.9,13.2,1.5,30.2,18,30c16.3-2.9,71.1,10.5,70.6-18.2c2.2-17.5-15.4-23.8-30.6-21.7c-0.4-2.9,1.6-121.2-2.3-118.9l-14-116.7
	c1.6-1.5,8.4-96.9,9.4-100.7C272.6,259.1,263.8,364.8,293.9,362.7z"/>
</svg>
