<svg id="S_BoundaryOverlay_16x13_N_D_2x" data-name="S_BoundaryOverlay_16x13_N_D@2x" xmlns="http://www.w3.org/2000/svg" width="32.155" height="26" viewBox="0 0 32.155 26">
  <defs>
    <style>
      .cls-1, .red {
        fill: #f53c3c;
      }

      .cls-1 {
        opacity: 0.7;
      }

      .fill {
        fill: #fff;
        fill-rule: evenodd;
        opacity: 0.65;
      }

      
    </style>
  </defs>
  <title>S_BoundaryOverlay_16x13_N_D@2x</title>
  <path class="red" d="M12.7,17l.455-2.336V9.943L10.01,11.655l-.884,3.537a.571.571,0,0,1-1.112-.261l.9-4.118a.571.571,0,0,1,.215-.335l3.625-2.719a1.048,1.048,0,0,1,.883-.178l3.71.927,2.1,2.1L22.2,8.769a.571.571,0,0,1,.721.071l.252.252a.571.571,0,0,1-.061.861L19.446,12.7,17.079,10.67l-.556,4.452L17.818,17H32V2a2,2,0,0,0-2-2H2A2,2,0,0,0,0,2V17ZM15.358,2.108A2.359,2.359,0,1,1,13,4.467,2.359,2.359,0,0,1,15.358,2.108Z"/>
  <path class="cls-1" d="M19.5,19.441l.293,3.665a.827.827,0,0,1-1.646.166l-.359-2.937L15.1,17.079h-.156l-1.35,3.7-2.019,2.759a.752.752,0,0,1-1.227-.868l1.755-2.633L12.7,17H0v7a2,2,0,0,0,2,2H30a2,2,0,0,0,2-2V17H17.818Z"/>
  <circle class="fill" cx="15.358" cy="4.467" r="2.359"/>
  <path class="fill" d="M17.079,10.67,19.446,12.7l3.667-2.75a.571.571,0,0,0,.061-.861l-.251-.251a.571.571,0,0,0-.721-.071l-2.756,1.837-2.1-2.1-3.71-.927a1.048,1.048,0,0,0-.883.178L9.131,10.479a.571.571,0,0,0-.215.335l-.9,4.118a.571.571,0,0,0,.329.646h0a.571.571,0,0,0,.784-.385l.884-3.537,3.145-1.712v4.721l-1.048,5.378-1.755,2.633a.752.752,0,0,0,.094.948h0a.752.752,0,0,0,1.133-.081L13.6,20.784l1.35-3.7H15.1l2.687,3.257.359,2.937a.827.827,0,0,0,.821.727h0a.827.827,0,0,0,.825-.893L19.5,19.441l-2.98-4.319Z"/>
  </svg>