<?xml version="1.0" encoding="UTF-8"?>
<svg id="ImportedIcons-3" data-name="ImportedIcons" xmlns="http://www.w3.org/2000/svg" width="32" height="32" viewBox="0 0 32 32">
  <defs>
    <style>
      .fill {
        fill: #fff;
        opacity: .65;
      }
    </style>
  </defs>
  <path class="fill" d="M26,14V7c0-.55228-.44772-1-1-1H15c-.55228,0-1,.44772-1,1v3h-3c-1.65685,0-3,1.34315-3,3v5.99999c0,1.65685,1.34314,3,3,3h3v3c0,.55228,.44772,1,1,1h10c.55228,0,1-.44772,1-1v-7h-8v1c0,.55228-.44772,1-1,1h-6c-.55228,0-1-.44772-1-1v-6c0-.55228,.44772-1,1-1h6c.55228,0,1,.44772,1,1v1h8Z"/>
</svg>