<svg id="S_CameraDialogDark_602x428_N_D_2x" data-name="S_CameraDialogDark_602x428_N_D@2x" xmlns="http://www.w3.org/2000/svg" width="1204" height="856" viewBox="0 0 1204 856">
  <defs>
    <style>
      .fill, .fillMedium {
        fill: #fff;
      }

      .fill {
        opacity: 0.65;
      }

      .fillMedium {
        opacity: 0.3;
      }

      
    </style>
  </defs>
  <title>S_CameraDialogDark_602x428_N_D@2x</title>
  <rect class="fill" x="88" y="546" width="2" height="34"/>
  <rect class="fill" x="1032" y="546" width="2" height="34"/>
  <rect class="fill" x="1096" y="212" width="2" height="34"/>
  <rect class="fill" x="1032" y="436" width="2" height="20"/>
  <rect class="fill" x="1032" y="410" width="2" height="20"/>
  <rect class="fill" x="1032" y="384" width="2" height="20"/>
  <rect class="fill" x="1032" y="358" width="2" height="20"/>
  <rect class="fill" x="1032" y="332" width="2" height="20"/>
  <rect class="fill" x="1032" y="306" width="2" height="20"/>
  <rect class="fill" x="54" y="264" width="2" height="50" transform="translate(-234 344) rotate(-90)"/>
  <rect class="fill" x="54" y="446" width="2" height="50" transform="translate(-416 526) rotate(-90)"/>
  <rect class="fill" x="1156" y="240" width="2" height="50" transform="translate(892 1422) rotate(-90)"/>
  <rect class="fill" x="1156" y="472" width="2" height="50" transform="translate(660 1654) rotate(-90)"/>
  <rect class="fill" x="504" y="402" width="2" height="178"/>
  <rect class="fill" x="504" y="212" width="2" height="146"/>
  <path class="fill" d="M1098,348V264h-2L514.324,376.582a9,9,0,0,0-16.6-.125L90,290H88v58h2V292.044L497.153,378.38a8.586,8.586,0,0,0-.008,3.189L90,467.473V412H88v58h2l407.708-86.5a8.994,8.994,0,0,0,15.612,1.719L1096,498h2V420h-2v75.963l-62-12V462h-2v21.576L514.337,383.383a8.778,8.778,0,0,0,.53-4.868L1032,278.424V300h2V278.037l62-12V348ZM506,387a7,7,0,1,1,7-7A7,7,0,0,1,506,387Z" transform="translate(0 0)"/>
  <circle class="fill" cx="506" cy="380" r="2"/>
  <path class="fillMedium" d="M870.106,445.269l-9.888-12.541a1,1,0,0,1,.9-1.612l4.145.49,2.7-22.841a2,2,0,0,1,2.221-1.751l8.938,1.057a2,2,0,0,1,1.751,2.221l-2.7,22.841,3.97.47a1,1,0,0,1,.5,1.778Zm-.332,2.809,14.109-11.125a3,3,0,0,0-1.5-5.337l-1.985-.234,2.468-20.854a4,4,0,0,0-3.5-4.443l-8.937-1.057a4.088,4.088,0,0,0-.473-.028,4,4,0,0,0-3.971,3.53l-2.467,20.854-2.159-.256a3.017,3.017,0,0,0-.359-.021,3,3,0,0,0-2.348,4.858Z" transform="translate(0 0)"/>
  <path class="fillMedium" d="M1061,252.554V248H540v4.554a3.5,3.5,0,0,1-5.885,2.561L506.065,229l28.05-26.116A3.5,3.5,0,0,1,540,205.446V210h521v-4.554a3.5,3.5,0,0,1,5.885-2.562L1094.935,229l-28.049,26.116A3.5,3.5,0,0,1,1061,252.554ZM1092,229l-26.478-24.652a1.5,1.5,0,0,0-2.522,1.1V212H538v-6.554a1.5,1.5,0,0,0-2.522-1.1L509,229l26.478,24.652a1.5,1.5,0,0,0,2.522-1.1V246h525v6.554a1.5,1.5,0,0,0,2.522,1.1Z" transform="translate(0 0)"/>
  <path class="fillMedium" d="M998,586.611v-4.555H540v4.555a3.5,3.5,0,0,1-5.885,2.562l-28.05-26.116,28.05-26.115A3.5,3.5,0,0,1,540,539.5v4.554H998V539.5a3.5,3.5,0,0,1,5.885-2.562l28.05,26.115-28.049,26.116A3.5,3.5,0,0,1,998,586.611Zm31-23.554-26.478-24.652a1.5,1.5,0,0,0-2.522,1.1v6.554H538V539.5a1.5,1.5,0,0,0-2.522-1.1L509,563.057l26.478,24.652a1.5,1.5,0,0,0,2.522-1.1v-6.554h462v6.554a1.5,1.5,0,0,0,2.522,1.1Z" transform="translate(0 0)"/>
  <path class="fillMedium" d="M470,586.611v-4.555H124v4.555a3.5,3.5,0,0,1-5.885,2.562l-28.05-26.116,28.05-26.115A3.5,3.5,0,0,1,124,539.5v4.554H470V539.5a3.5,3.5,0,0,1,5.885-2.561l28.05,26.114-28.05,26.116A3.5,3.5,0,0,1,470,586.611Zm31-23.554-26.478-24.652A1.5,1.5,0,0,0,472,539.5v6.554H122V539.5a1.5,1.5,0,0,0-2.522-1.1L93,563.057l26.478,24.652a1.5,1.5,0,0,0,2.522-1.1v-6.554H472v6.554a1.5,1.5,0,0,0,2.522,1.1Z" transform="translate(0 0)"/>
  <path class="fillMedium" d="M43.293,457.121A3,3,0,0,1,45.415,452H46V413a4,4,0,0,1,4-4H62a4,4,0,0,1,4,4v39h.586a3,3,0,0,1,2.121,5.121L56,469.828ZM56,467l11.293-11.293A1,1,0,0,0,66.586,454H64V413a2,2,0,0,0-2-2H50a2,2,0,0,0-2,2v41H45.414a1,1,0,0,0-.707,1.707Z" transform="translate(0 0)"/>
  <path class="fillMedium" d="M50,351a4,4,0,0,1-4-4V308h-.585a3,3,0,0,1-2.122-5.121L56,290.171l12.707,12.708A3,3,0,0,1,66.586,308H66v39a4,4,0,0,1-4,4Zm6-58L44.707,304.293A1,1,0,0,0,45.414,306H48v41a2,2,0,0,0,2,2H62a2,2,0,0,0,2-2V306h2.586a1,1,0,0,0,.707-1.707Z" transform="translate(0 0)"/>
  <path class="fillMedium" d="M869.06,356.269a4,4,0,0,1-3.97-3.532l-2.467-20.853-2.159.256a3.15,3.15,0,0,1-.36.021,3,3,0,0,1-2.348-4.858l11.126-14.112,14.112,11.126a3,3,0,0,1-1.5,5.335l-1.985.235,2.468,20.854a4.005,4.005,0,0,1-3.5,4.442l-8.937,1.058a4.071,4.071,0,0,1-.472.028Zm.155-40.27-9.888,12.541a1,1,0,0,0,.9,1.612l4.145-.49,2.7,22.841a2,2,0,0,0,2.221,1.751l8.938-1.057a2,2,0,0,0,1.751-2.221l-2.7-22.841,3.97-.47a1,1,0,0,0,.5-1.778Z" transform="translate(0 0)"/>
  <path class="fillMedium" d="M1152,350a4,4,0,0,1-4-4V284h-.586a3,3,0,0,1-2.121-5.121L1158,266.171l12.707,12.708a3,3,0,0,1-2.121,5.121H1168v62a4,4,0,0,1-4,4Zm6-81-11.293,11.293a1,1,0,0,0,.707,1.707H1150v64a2,2,0,0,0,2,2h12a2,2,0,0,0,2-2V282h2.586a1,1,0,0,0,.707-1.707Z" transform="translate(0 0)"/>
  <path class="fillMedium" d="M1168.586,478H1168V430a4,4,0,0,0-4-4h-12a4,4,0,0,0-4,4v48h-.586a3,3,0,0,0-2.121,5.121L1158,495.828l12.707-12.707A3,3,0,0,0,1168.586,478Zm.707,3.707L1158,493l-11.293-11.293a1,1,0,0,1,.707-1.707H1150V430a2,2,0,0,1,2-2h12a2,2,0,0,1,2,2v50h2.586A1,1,0,0,1,1169.293,481.707Z" transform="translate(0 0)"/>
  <path class="fillMedium" d="M295.5,111a89.5,89.5,0,0,1,58.52,157.218A5,5,0,0,0,357.291,277H405v57a5,5,0,0,0,5,5h13a5,5,0,0,0,5-5v-7h92v7a5,5,0,0,0,5,5h13a5,5,0,0,0,5-5v-9.466L554.637,316H571V450H554.637L543,441.466V432a5,5,0,0,0-5-5H525a5,5,0,0,0-5,5v7H428v-7a5,5,0,0,0-5-5H410a5,5,0,0,0-5,5v57H19V277H64.209a5,5,0,0,0,3.271-8.782A89.506,89.506,0,1,1,206.268,160.879a5,5,0,0,0,8.964,0A89.5,89.5,0,0,1,295.5,111ZM187.791,277h45.918a5,5,0,0,0,3.271-8.782,89.32,89.32,0,0,1-21.748-28.1,5,5,0,0,0-8.964,0,89.32,89.32,0,0,1-21.748,28.1A5,5,0,0,0,187.791,277ZM295.5,106a94.5,94.5,0,0,0-84.75,52.663A94.507,94.507,0,1,0,64.209,272H19a5,5,0,0,0-5,5V489a5,5,0,0,0,5,5H405a5,5,0,0,0,5-5V432h13v7a5,5,0,0,0,5,5h92a5,5,0,0,0,5-5v-7h13v12l15,11h19a4,4,0,0,0,4-4V315a4,4,0,0,0-4-4H553l-15,11v12H525v-7a5,5,0,0,0-5-5H428a5,5,0,0,0-5,5v7H410V277a5,5,0,0,0-5-5H357.291A94.5,94.5,0,0,0,295.5,106ZM187.791,272a94.843,94.843,0,0,0,22.959-29.663A94.843,94.843,0,0,0,233.709,272Z" transform="translate(0 0)"/>
  </svg>