<svg id="S_ColorBars_Sm_N_D_2x" data-name="S_ColorBars_Sm_N_D@2x" xmlns="http://www.w3.org/2000/svg" width="32" height="32" viewBox="0 0 32 32">
  <defs>
    <style>
      .cls-1, .fill {
        fill: #fff;
      }

      .fill {
        fill-rule: evenodd;
        opacity: 0.65;
      }

      .cls-2 {
        fill: #e5e5e5;
      }

      .cls-3 {
        fill: #ccc;
      }

      .cls-4 {
        fill: #b2b2b2;
      }

      .cls-5 {
        fill: #999;
      }

      .cls-6 {
        fill: #7f7f7f;
      }

      .cls-7 {
        fill: #7d7d7d;
      }

      .cls-8 {
        fill: #737373;
      }

      .cls-9 {
        fill: #8c8c8c;
      }

      .cls-10 {
        fill: #595959;
      }

      .cls-11 {
        fill: #666;
      }

      .cls-12 {
        fill: #4c4c4c;
      }

      .cls-13 {
        fill: #333;
      }

      .cls-14 {
        fill: #191919;
      }

      .cls-15 {
        fill: #888;
      }

      .cls-16 {
        fill: #ff0;
      }

      .cls-17 {
        fill: #00d900;
      }

      .cls-18 {
        fill: #ff00ab;
      }

      .cls-19 {
        fill: #4234fd;
      }

      
    </style>
  </defs>
  <title>S_ColorBars_Sm_N_D@2x</title>
  <path class="fill" d="M0,3V28a1,1,0,0,0,1,1H31a1,1,0,0,0,1-1V3a1,1,0,0,0-1-1H1A1,1,0,0,0,0,3ZM30,27H2V4H30V27Z"/>
  <rect x="2" y="23" width="14" height="4"/>
  <rect class="cls-1" x="2" y="20" width="2" height="3"/>
  <rect class="cls-2" x="4" y="20" width="2" height="3"/>
  <rect class="cls-3" x="6" y="20" width="2" height="3"/>
  <rect class="cls-4" x="8" y="20" width="2" height="3"/>
  <rect class="cls-5" x="10" y="20" width="2" height="3"/>
  <rect class="cls-6" x="12" y="20" width="2" height="3"/>
  <rect class="cls-7" x="14" y="20" width="2" height="3"/>
  <rect class="cls-8" x="16" y="20" width="2" height="3"/>
  <rect class="cls-2" x="16" y="23" width="2" height="4"/>
  <rect class="cls-3" x="18" y="23" width="2" height="4"/>
  <rect class="cls-4" x="20" y="23" width="2" height="4"/>
  <rect class="cls-5" x="22" y="23" width="2" height="4"/>
  <rect class="cls-9" x="24" y="23" width="2" height="4"/>
  <rect class="cls-7" x="26" y="23" width="2" height="4"/>
  <rect class="cls-8" x="28" y="23" width="2" height="4"/>
  <rect class="cls-10" x="20" y="20" width="2" height="3"/>
  <rect class="cls-11" x="18" y="20" width="2" height="3"/>
  <rect class="cls-12" x="22" y="20" width="2" height="3"/>
  <rect class="cls-13" x="24" y="20" width="2" height="3"/>
  <rect class="cls-14" x="26" y="20" width="2" height="3"/>
  <rect x="28" y="20" width="2" height="3"/>
  <rect class="cls-15" x="2" y="4" width="4" height="16"/>
  <rect class="cls-16" x="6" y="4" width="6" height="16"/>
  <rect class="cls-17" x="12" y="4" width="6" height="16"/>
  <rect class="cls-18" x="18" y="4" width="6" height="16"/>
  <rect class="cls-19" x="24" y="4" width="6" height="16"/>
  </svg>