<svg id="S_CompShowTimeline_Sm_N_D_2x" data-name="S_CompShowTimeline_Sm_N_D@2x" xmlns="http://www.w3.org/2000/svg" width="32" height="32" viewBox="0 0 32 32">
  <defs>
    <style>
      .fill {
        fill: #fff;
        fill-rule: evenodd;
        opacity: 0.65;
      }

      
    </style>
  </defs>
  <title>S_CompShowTimeline_Sm_N_D@2x</title>
  <path class="fill" d="M26,8.5v1a0.5,0.5,0,0,0,.5.5H28V22H24V16.5a0.5,0.5,0,0,0-.5-0.5h-1a0.5,0.5,0,0,0-.5.5V22H18V12l3.724-1.862A0.5,0.5,0,0,0,22,9.691V5a1,1,0,0,0-1-1H13a1,1,0,0,0-1,1V9.691a0.5,0.5,0,0,0,.276.447L16,12V22H12V16.5a0.5,0.5,0,0,0-.5-0.5h-1a0.5,0.5,0,0,0-.5.5V22H6V10H7.5A0.5,0.5,0,0,0,8,9.5v-1A0.5,0.5,0,0,0,7.5,8H4V24H30V8H26.5A0.5,0.5,0,0,0,26,8.5Z"/>
  </svg>