<svg id="S_ColorBars_Xs_N_D_2x" data-name="S_ColorBars_Xs_N_D@2x" xmlns="http://www.w3.org/2000/svg" width="26" height="26" viewBox="0 0 26 26">
  <defs>
    <style>
      .cls-1, .fill {
        fill: #fff;
      }

      .fill {
        fill-rule: evenodd;
        opacity: 0.65;
      }

      .cls-2 {
        fill: #e5e5e5;
      }

      .cls-3 {
        fill: #ccc;
      }

      .cls-4 {
        fill: #b2b2b2;
      }

      .cls-5 {
        fill: #8c8c8c;
      }

      .cls-6 {
        fill: gray;
      }

      .cls-7 {
        fill: #737373;
      }

      .cls-8 {
        fill: #595959;
      }

      .cls-9 {
        fill: #666;
      }

      .cls-10 {
        fill: #4c4c4c;
      }

      .cls-11 {
        fill: #333;
      }

      .cls-12 {
        fill: #191919;
      }

      .cls-13 {
        fill: #ff0;
      }

      .cls-14 {
        fill: #00d900;
      }

      .cls-15 {
        fill: #ff00ab;
      }

      .cls-16 {
        fill: #4234fd;
      }

      
    </style>
  </defs>
  <title>S_ColorBars_Xs_N_D@2x</title>
  <path class="fill" d="M0,3V23a1,1,0,0,0,1,1H25a1,1,0,0,0,1-1V3a1,1,0,0,0-1-1H1A1,1,0,0,0,0,3ZM24,22H2V4H24V22Z"/>
  <rect x="2" y="20" width="11" height="2"/>
  <rect class="cls-1" x="2" y="18" width="2" height="2"/>
  <rect class="cls-2" x="4" y="18" width="2" height="2"/>
  <rect class="cls-3" x="6" y="18" width="2" height="2"/>
  <rect class="cls-4" x="8" y="18" width="2" height="2"/>
  <rect class="cls-5" x="10" y="18" width="2" height="2"/>
  <rect class="cls-6" x="12" y="18" width="2" height="2"/>
  <rect class="cls-2" x="13" y="20" width="2" height="2"/>
  <rect class="cls-3" x="15" y="20" width="2" height="2"/>
  <rect class="cls-4" x="17" y="20" width="2" height="2"/>
  <rect class="cls-5" x="19" y="20" width="2" height="2"/>
  <rect class="cls-7" x="21" y="20" width="3" height="2"/>
  <rect class="cls-8" x="16" y="18" width="2" height="2"/>
  <rect class="cls-9" x="14" y="18" width="2" height="2"/>
  <rect class="cls-10" x="18" y="18" width="2" height="2"/>
  <rect class="cls-11" x="20" y="18" width="2" height="2"/>
  <rect class="cls-12" x="22" y="18" width="2" height="2"/>
  <rect class="cls-13" x="2" y="4" width="5" height="14"/>
  <rect class="cls-14" x="7" y="4" width="6" height="14"/>
  <rect class="cls-15" x="13" y="4" width="6" height="14"/>
  <rect class="cls-16" x="19" y="4" width="5" height="14"/>
  </svg>