<svg id="S_ConstrainedProportionsOff_13_N_2x" data-name="S_ConstrainedProportionsOff_13_N@2x" xmlns="http://www.w3.org/2000/svg" width="26" height="26" viewBox="0 0 26 26">
  <defs>
    <style>
      .fill {
        fill: #fff;
        fill-rule: evenodd;
        opacity: 0.65;
      }

      .cls-1 {
        fill: #ff13dc;
        opacity: 0;
      }
    </style>
  </defs>
  <path class="fill" d="M14.95,10l-3-3H20a5.984,5.984,0,0,1,3.076,11.126l-2.254-2.254A2.992,2.992,0,0,0,20,10ZM25.142,23.021,2.979.858a.5.5,0,0,0-.707,0L.858,2.272a.5.5,0,0,0,0,.707L23.021,25.142a.5.5,0,0,0,.707,0l1.414-1.414A.5.5,0,0,0,25.142,23.021ZM6,16a2.992,2.992,0,0,1-.822-5.872L2.924,7.874A5.984,5.984,0,0,0,6,19h8.05l-3-3Z"/>
  <rect id="ToDelete" class="cls-1" width="26" height="26"/>
</svg>
