<svg id="S_CompFastPreview_Sm_N_D_2x" data-name="S_CompFastPreview_Sm_N_D@2x" xmlns="http://www.w3.org/2000/svg" width="32" height="32" viewBox="0 0 32 32">
  <defs>
    <style>
      .fill {
        fill: #fff;
        fill-rule: evenodd;
        opacity: 0.65;
      }

      
    </style>
  </defs>
  <title>S_CompFastPreview_Sm_N_D@2x</title>
  <path class="fill" d="M18.175,7.506L10,17a0.5,0.5,0,0,0,.457.82l5.406-.851-1.516,7.308a0.25,0.25,0,0,0,.447.2l7.1-9.717a0.5,0.5,0,0,0-.481-0.789l-5.554.874L18.6,7.759A0.25,0.25,0,0,0,18.175,7.506Z"/>
  <path class="fill" d="M17.5,26H4V6H28V17.5a0.5,0.5,0,0,0,.5.5h1a0.5,0.5,0,0,0,.5-0.5V5a1,1,0,0,0-1-1H3A1,1,0,0,0,2,5V27a1,1,0,0,0,1,1H17.5a0.5,0.5,0,0,0,.5-0.5v-1A0.5,0.5,0,0,0,17.5,26Z"/>
  <path class="fill" d="M19.4,22H28.6a0.5,0.5,0,0,1,.354.854L24,28l-4.97-5.16A0.5,0.5,0,0,1,19.4,22Z"/>
  </svg>