<svg id="S_DynamicLinkOffline_N_D_2x" data-name="S_DynamicLinkOffline_N_D@2x" xmlns="http://www.w3.org/2000/svg" width="32" height="32" viewBox="0 0 32 32">
  <defs>
    <style>
      .cls-1, .fill, .fillPale {
        fill: #fff;
      }

      .fill {
        fill-rule: evenodd;
        opacity: 0.65;
      }

      .red {
        fill: #f53c3c;
      }

      .fillPale {
        opacity: 0.15;
      }

      
    </style>
  </defs>
  <title>S_DynamicLinkOffline_N_D@2x</title>
  <path class="fill" d="M10,1V6l4,4,4-4V1a1,1,0,0,0-1-1H11A1,1,0,0,0,10,1Z"/>
  <path class="fill" d="M8,10.756v2.488A.756.756,0,0,0,8.756,14H12V10H8.756A.756.756,0,0,0,8,10.756Zm-8,6.17v2.148A.926.926,0,0,0,.926,20H12V16H.926A.926.926,0,0,0,0,16.926Zm24-3.682V10.756A.756.756,0,0,0,23.244,10H16v4h7.244A.756.756,0,0,0,24,13.244ZM27.074,16H16v4H27.074A.926.926,0,0,0,28,19.074V16.926A.926.926,0,0,0,27.074,16ZM8,22.655v2.691A.655.655,0,0,0,8.655,26H12V22H8.655A.655.655,0,0,0,8,22.655ZM17.345,22H16v4h1.345A.655.655,0,0,0,18,25.345V22.655A.655.655,0,0,0,17.345,22Z"/>
  <circle class="cls-1" cx="14" cy="28"/>
  <path class="red" d="M29.927,23.3l-1.05-1.05a.5.5,0,0,0-.707,0L25.134,25.28l-3.01-3.01a.5.5,0,0,0-.707,0l-1,1a.5.5,0,0,0,0,.707l3.01,3.01-3.036,3.035a.5.5,0,0,0,0,.707l1.05,1.05a.5.5,0,0,0,.707,0l3.036-3.035,3.01,3.01a.5.5,0,0,0,.707,0l1-1a.5.5,0,0,0,0-.707l-3.01-3.01L29.927,24A.5.5,0,0,0,29.927,23.3Z"/>
  <rect class="fillPale" x="12" y="10" width="4" height="16"/>
  </svg>