<svg id="S_DynamicLinkOnline_N_D_2x" data-name="S_DynamicLinkOnline_N_D@2x" xmlns="http://www.w3.org/2000/svg" width="32" height="32" viewBox="0 0 32 32">
  <defs>
    <style>
      .cls-1, .fill, .fillPale {
        fill: #fff;
      }

      .fill {
        fill-rule: evenodd;
        opacity: 0.65;
      }

      .fillPale {
        opacity: 0.15;
      }

      .green {
        fill: #149b14;
      }

      
    </style>
  </defs>
  <title>S_DynamicLinkOnline_N_D@2x</title>
  <path class="fill" d="M10,1V6l4,4,4-4V1a1,1,0,0,0-1-1H11A1,1,0,0,0,10,1Z"/>
  <path class="fill" d="M8,10.756v2.488A.756.756,0,0,0,8.756,14H12V10H8.756A.756.756,0,0,0,8,10.756Zm16,2.488V10.756A.756.756,0,0,0,23.244,10H16v4h7.244A.756.756,0,0,0,24,13.244ZM0,16.926v2.148A.926.926,0,0,0,.926,20H12V16H.926A.926.926,0,0,0,0,16.926ZM27.074,16H16v4H27.074A.926.926,0,0,0,28,19.074V16.926A.926.926,0,0,0,27.074,16ZM8,22.655v2.691A.655.655,0,0,0,8.655,26H12V22H8.655A.655.655,0,0,0,8,22.655ZM17.345,22H16v4h1.345A.655.655,0,0,0,18,25.345V22.655A.655.655,0,0,0,17.345,22Z"/>
  <circle class="cls-1" cx="14" cy="28"/>
  <rect class="fillPale" x="12" y="10" width="4" height="16"/>
  <path class="green" d="M30.772,20.888l-1.246-.807a.5.5,0,0,0-.691.148l-5.093,7.861L21.572,25.92a.5.5,0,0,0-.707,0l-1,1a.5.5,0,0,0,0,.71l3.342,3.3a1.147,1.147,0,0,0,1.768-.192l5.939-9.151A.5.5,0,0,0,30.772,20.888Z"/>
  </svg>