<svg id="S_Effect32_Sm_N_D_2x" data-name="S_Effect32_Sm_N_D@2x" xmlns="http://www.w3.org/2000/svg" width="32" height="32" viewBox="0 0 32 32">
  <defs>
    <style>
      .fill {
        fill: #fff;
        fill-rule: evenodd;
        opacity: 0.65;
      }

      
    </style>
  </defs>
  <title>S_Effect32_Sm_N_D@2x</title>
  <path class="fill" d="M27,10H26V7a1,1,0,0,0-1-1H19a1,1,0,0,0-1,1v3H14V7a1,1,0,0,0-1-1H7A1,1,0,0,0,6,7v3H5a1,1,0,0,0-1,1V27a1,1,0,0,0,1,1H27a1,1,0,0,0,1-1V11A1,1,0,0,0,27,10ZM10.015,26a7.383,7.383,0,0,1-3.485-.693c-.1-.042-.126-.168-.126-.273V22.956c0-.084.1-.126.189-.084a6.8,6.8,0,0,0,3.338.882c1.953,0,2.729-.84,2.729-1.911,0-1.239-.924-1.869-2.729-1.869H8.713c-.1,0-.147-.042-.147-.147v-1.91c0-.126.021-.189.126-.189h1.05c1.533,0,2.415-.5,2.415-1.554,0-.987-.777-1.638-2.373-1.638a5.979,5.979,0,0,0-3.023.8c-.126.042-.147,0-.147-.084V13.318c0-.1-.021-.147.1-.21a7.508,7.508,0,0,1,3.548-.819c2.708,0,4.367,1.428,4.367,3.548a3.048,3.048,0,0,1-1.911,2.792A3.309,3.309,0,0,1,15.259,21.9C15.264,24.551,12.891,26,10.015,26Zm15.539-.357a.188.188,0,0,1-.21.147H16.82c-.147,0-.147-.063-.147-.168V24.215c0-.126,0-.189.084-.252a44.319,44.319,0,0,0,3.485-2.855c2.121-1.932,2.478-3.149,2.478-4.22,0-1.365-.714-2.31-2.478-2.31a6.067,6.067,0,0,0-3.086.861c-.1.063-.168.021-.168-.084V13.423a.246.246,0,0,1,.1-.231,7.759,7.759,0,0,1,3.7-.9c3.086,0,4.514,2.016,4.514,4.262A6.438,6.438,0,0,1,22.93,21.4a24.207,24.207,0,0,1-2.6,2.268c.8-.063,1.6-.063,3.086-.063h2.415c.143,0,.185.043.164.148Z"/>
  </svg>