<svg id="S_EffectPreset_Sm_N_D_2x" data-name="S_EffectPreset_Sm_N_D@2x" xmlns="http://www.w3.org/2000/svg" width="32" height="32" viewBox="0 0 32 32">
  <defs>
    <style>
      .fill {
        fill: #fff;
        fill-rule: evenodd;
        opacity: 0.65;
      }

      
    </style>
  </defs>
  <title>S_EffectPreset_Sm_N_D@2x</title>
  <path class="fill" d="M27,10H26V7a1,1,0,0,0-1-1H19a1,1,0,0,0-1,1v3H14V7a1,1,0,0,0-1-1H7A1,1,0,0,0,6,7v3H5a1,1,0,0,0-1,1V27a1,1,0,0,0,1,1H27a1,1,0,0,0,1-1V11A1,1,0,0,0,27,10Zm-.882,6.9c-.358.43-.927,1.027-1.531,1.66-.5.525-1,1.056-1.386,1.488.216.464.569,1.127.911,1.77.35.658.681,1.28.838,1.64l.042.1-.054.167a.267.267,0,0,1-.23.123H23.53c-.156,0-.18,0-1.549-2.7a18.72,18.72,0,0,1-2.266,2.7H18.333l-.1-.155a.267.267,0,0,1,.058-.291c.458-.54.976-1.188,1.489-1.831.461-.579.919-1.152,1.333-1.645l-1-2.145c-.05.154-.252.246-1.554.246H17c-.665,3.328-1.575,6.767-1.92,7.889a.314.314,0,0,1-.286.261,3.278,3.278,0,0,1-.453.025c-.191,0-.394-.009-.561-.015-.114,0-.287-.009-.292-.009a.286.286,0,0,1-.309-.411c.321-.98,1.663-6.35,1.971-7.74H13.675l-.059-.095a.192.192,0,0,1-.065-.061l-.046-.064.011-.079.352-1.043a.283.283,0,0,1,.291-.224h1.472l.188-.8c.541-2.595,1.71-3.859,3.575-3.859a5.426,5.426,0,0,1,1.4.216.338.338,0,0,1,.173.385l-.214,1.01a.287.287,0,0,1-.272.25l-.292-.079a4.318,4.318,0,0,0-.816-.216c-.881,0-1.486.771-1.8,2.291l-.172.8h2.451a.288.288,0,0,1,.05,0h1.208a.266.266,0,0,1,.278.2l.884,2.286,2.186-2.332a.306.306,0,0,1,.277-.155h1.326l.116.156A.268.268,0,0,1,26.118,16.9Z"/>
  </svg>