<svg id="S_EffectControls3dError_Sm_N_D_2x" data-name="S_EffectControls3dError_Sm_N_D@2x" xmlns="http://www.w3.org/2000/svg" width="32" height="32" viewBox="0 0 32 32">
  <defs>
    <style>
      .yellow {
        fill: #f4c500;
      }

      .fill {
        fill: #fff;
        fill-rule: evenodd;
        opacity: 0.65;
      }

      
    </style>
  </defs>
  <title>S_EffectControls3dError_Sm_N_D@2x</title>
  <path id="Fill-2" class="yellow" d="M24.56.3a.4.4,0,0,1,.17.38V3.13c0,2.85-.55,10.71-.68,11.73,0,.1-.04.2-.24.2H21.09c-.14,0-.2-.07-.24-.2-.07-.96-.61-8.78-.61-11.63V.78a.354.354,0,0,1,.17-.37A5.706,5.706,0,0,1,22.45,0a7.165,7.165,0,0,1,2.11.3ZM20,20.53a2.3,2.3,0,0,1,2.42-2.34,2.3,2.3,0,0,1,2.48,2.34,2.236,2.236,0,0,1-2.48,2.28A2.233,2.233,0,0,1,20,20.53Z"/>
  <path class="fill" d="M28.992,7.728,27.017,6.6c-.105,2.134-.265,4.577-.4,6.33v5.154c.01.016.013.035.022.051a4.565,4.565,0,0,1,.425.977c.018.057.042.109.058.167a4.89,4.89,0,0,1,.174,1.252,4.627,4.627,0,0,1-4.881,4.682,5.316,5.316,0,0,1-.733-.068L18,27.251l-.006-4.818h0a4.615,4.615,0,0,1-.286-.9l0-.015a4.849,4.849,0,0,1,.013-2.039c.031-.143.086-.274.128-.411.048-.154.082-.316.144-.462v-.978L18,17.623V13.46l-2.023,1.16L6.809,9.348,16,4.124l1.885,1.064c-.028-.756-.046-1.435-.046-1.957V1.35L16.992.87a2,2,0,0,0-1.984,0l-12,6.857A2,2,0,0,0,2,9.464V23.143a2,2,0,0,0,1.008,1.736l12,6.857a2,2,0,0,0,1.984,0l12-6.857A2,2,0,0,0,30,23.143V9.464A2,2,0,0,0,28.992,7.728ZM14,27.251,5.378,22.324V12.64l8.635,4.991Z"/>
  </svg>