<svg id="S_Effect16_Sm_N_D_2x" data-name="S_Effect16_Sm_N_D@2x" xmlns="http://www.w3.org/2000/svg" width="32" height="32" viewBox="0 0 32 32">
  <defs>
    <style>
      .fill {
        fill: #fff;
        fill-rule: evenodd;
        opacity: 0.65;
      }

      
    </style>
  </defs>
  <title>S_Effect16_Sm_N_D@2x</title>
  <path class="fill" d="M19.741,19.283a4.041,4.041,0,0,0-2.354.7,6.516,6.516,0,0,0-.044.748c0,2.091,1.034,3.323,2.641,3.323a2.183,2.183,0,0,0,2.31-2.354A2.3,2.3,0,0,0,19.741,19.283Z"/>
  <path class="fill" d="M27,10H26V7a1,1,0,0,0-1-1H19a1,1,0,0,0-1,1v3H14V7a1,1,0,0,0-1-1H7A1,1,0,0,0,6,7v3H5a1,1,0,0,0-1,1V27a1,1,0,0,0,1,1H27a1,1,0,0,0,1-1V11A1,1,0,0,0,27,10ZM11.867,25.994c0,.11-.044.154-.132.154H9.38c-.132,0-.176-.044-.176-.154V14.927a8.955,8.955,0,0,1-2.311.792c-.132.022-.176,0-.176-.132v-1.87c0-.11.022-.154.132-.176a10.93,10.93,0,0,0,3.059-1.32.57.57,0,0,1,.33-.088h1.518c.088,0,.11.044.11.153Zm8.028.374c-3.366,0-5.192-2.53-5.192-5.7,0-4.753,3.982-8.054,8.911-8.67.088,0,.088.066.088.133v2.023c0,.066,0,.11-.11.133-2.552.33-4.8,1.54-5.7,3.564a5.182,5.182,0,0,1,2.662-.7A4.236,4.236,0,0,1,25,21.594,4.758,4.758,0,0,1,19.9,26.368Z"/>
  </svg>