<svg id="S_Effect8_Sm_N_D_2x" data-name="S_Effect8_Sm_N_D@2x" xmlns="http://www.w3.org/2000/svg" width="32" height="32" viewBox="0 0 32 32">
  <defs>
    <style>
      .fill {
        fill: #fff;
        fill-rule: evenodd;
        opacity: 0.65;
      }

      
    </style>
  </defs>
  <title>S_Effect8_Sm_N_D@2x</title>
  <path class="fill" d="M15.134,17.843h1.8a.542.542,0,0,0,.489-.222,1.955,1.955,0,0,0,.556-1.445A1.826,1.826,0,0,0,16,14.222a1.826,1.826,0,0,0-2,1.888,2.145,2.145,0,0,0,.622,1.555A.627.627,0,0,0,15.134,17.843Z"/>
  <path class="fill" d="M17.489,20.288a.819.819,0,0,0-.511-.156H15.045a.56.56,0,0,0-.444.133,2.074,2.074,0,0,0-.933,1.822,2.146,2.146,0,0,0,2.355,2.154,2.053,2.053,0,0,0,2.31-2.11A2.191,2.191,0,0,0,17.489,20.288Z"/>
  <path class="fill" d="M27,10H26V7a1,1,0,0,0-1-1H19a1,1,0,0,0-1,1v3H14V7a1,1,0,0,0-1-1H7A1,1,0,0,0,6,7v3H5a1,1,0,0,0-1,1V27a1,1,0,0,0,1,1H27a1,1,0,0,0,1-1V11A1,1,0,0,0,27,10ZM15.889,26.507c-3.155,0-4.91-1.91-4.91-4.177a3.8,3.8,0,0,1,1.977-3.31,3.873,3.873,0,0,1-1.511-3.11c0-2.044,1.6-3.911,4.6-3.911,3.043,0,4.465,2.022,4.465,3.911A3.825,3.825,0,0,1,19,18.887a3.923,3.923,0,0,1,2.022,3.422C21.021,24.819,18.888,26.507,15.889,26.507Z"/>
  </svg>