<svg id="S_Effects_Xs_N_D2x" data-name="S_Effects_Xs_N_D@2x" xmlns="http://www.w3.org/2000/svg" width="26" height="26" viewBox="0 0 26 26">
  <defs>
    <style>
      .fill {
        fill: #fff;
        fill-rule: evenodd;
        opacity: 0.65;
      }

      
    </style>
  </defs>
  <title>S_Effects_Xs_N_D@2x</title>
  <path class="fill" d="M23.874,8h-2.2a0.258,0.258,0,0,0-.242.157l-4.445,4.411v-0.03L15.141,8.1A0.132,0.132,0,0,0,14.98,8H8.875L9.288,6.208C10.068,2.678,11.69,2,12.969,2a11.921,11.921,0,0,1,2,.5c0.093,0.031.156-.031,0.187-0.152l0.405-1.765A0.221,0.221,0,0,0,15.437.339,10.631,10.631,0,0,0,13.007,0C9.98,0,7.8,1.765,6.767,6.361L6.353,8H3.344a0.17,0.17,0,0,0-.188.153L2.532,9.818l-0.009.06A0.243,0.243,0,0,1,2.656,10H5.625C5.344,11.369,2.53,21.9,1.876,23.757,1.813,23.908,1.876,24,2,24c0.25-.031,1.689.092,2.437,0a0.239,0.239,0,0,0,.25-0.213C5.342,21.809,7.065,15.721,8.281,10h3.188c0.068,0,1.359-.016,2.069-0.084l1.88,3.749c-1.639,1.8-3.685,4.3-5.378,6.153a0.1,0.1,0,0,0,.054.183H12.4c0.135,0,3.259-3.7,4.226-4.927h0.026S19.334,20,19.441,20h2.177a0.114,0.114,0,0,0,.107-0.183c-0.591-1.252-2.572-4.483-3.325-6.049,1.5-1.617,4.264-4.151,5.554-5.586C24.035,8.1,24.008,8,23.874,8Z"/>
  </svg>