<svg id="S_EffectAudio_Sm_N_D_2x" data-name="S_EffectAudio_Sm_N_D@2x" xmlns="http://www.w3.org/2000/svg" width="32" height="32" viewBox="0 0 32 32">
  <defs>
    <style>
      .fill {
        fill: #fff;
        fill-rule: evenodd;
        opacity: 0.65;
      }

      
    </style>
  </defs>
  <title>S_EffectAudio_Sm_N_D@2x</title>
  <path class="fill" d="M27,10H26V7a1,1,0,0,0-1-1H19a1,1,0,0,0-1,1v3H14V7a1,1,0,0,0-1-1H7A1,1,0,0,0,6,7v3H5a1,1,0,0,0-1,1V27a1,1,0,0,0,1,1H27a1,1,0,0,0,1-1V11A1,1,0,0,0,27,10ZM20.755,24.7a.594.594,0,0,1-1.014.421l-3.765-3.746H11.839a.594.594,0,0,1-.594-.594V17.217a.594.594,0,0,1,.594-.594h4.137l3.765-3.746a.594.594,0,0,1,1.014.421Z"/>
  </svg>