<?xml version="1.0" encoding="UTF-8"?>
<svg id="Icons" xmlns="http://www.w3.org/2000/svg" width="24" height="24" viewBox="0 0 24 24">
  <defs>
    <style>
      .cls-1 {
        fill: #42cac3;
        isolation: isolate;
        stroke-width: 0px;
      }
    </style>
  </defs>
  <path class="cls-1" d="M12,1.80005C6.3667,1.80005,1.79999,6.3667,1.79999,12s4.56671,10.19995,10.20001,10.19995,10.20001-4.56665,10.20001-10.19995S17.6333,1.80005,12,1.80005ZM17.30835,14h2.6347c-.25928,1.02856-.71094,1.979-1.31824,2.8125-.60846-.83228-1.05579-1.7854-1.31647-2.8125ZM17.04999,12c0-1.79883.58984-3.45776,1.57635-4.81055.98511,1.35327,1.57367,3.01245,1.57367,4.81055h-3.15002ZM17.24969,5.70825c-1.36926,1.73364-2.19971,3.91089-2.19971,6.29175h-6.09998c0-2.38086-.83044-4.55811-2.19971-6.29175,1.42352-1.1897,3.25372-1.9082,5.24969-1.9082s3.82617.71851,5.24969,1.9082ZM5.37366,7.18945c.98651,1.35278,1.57635,3.01172,1.57635,4.81055h-3.15002c0-1.7981.58856-3.45728,1.57367-4.81055ZM5.37518,16.8125c-.6073-.8335-1.05896-1.78394-1.31824-2.8125h2.6347c-.26068,1.0271-.70801,1.98022-1.31647,2.8125ZM6.75403,18.29517c.97443-1.23511,1.6748-2.69434,1.99457-4.29517h6.50281c.31976,1.60083,1.02014,3.06006,1.99457,4.29517-1.42297,1.18774-3.25183,1.90479-5.24597,1.90479s-3.823-.71704-5.24597-1.90479Z"/>
</svg>