<svg id="S_EnvironLayer_Xs_N_D_2x" data-name="S_EnvironLayer_Xs_N_D@2x" xmlns="http://www.w3.org/2000/svg" width="26" height="26" viewBox="0 0 26 26">
  <defs>
    <style>
      .cls-1 {
        fill: #4affff;
      }

      
    </style>
  </defs>
  <title>S_EnvironLayer_Xs_N_D@2x</title>
  <path class="cls-1" d="M13,2A11,11,0,1,0,24,13,11,11,0,0,0,13,2Zm9,11a9.05,9.05,0,0,1-.056,1H19.05C19.017,13.672,19,13.338,19,13a9.744,9.744,0,0,1,1.412-5.1A8.948,8.948,0,0,1,22,13ZM13,4a8.965,8.965,0,0,1,6.044,2.337A11.678,11.678,0,0,0,17,13c0,0.337.015,0.67,0.042,1H9.958C9.985,13.67,10,13.337,10,13A11.619,11.619,0,0,0,7.577,5.822,8.954,8.954,0,0,1,13,4ZM6.118,7.208A9.653,9.653,0,0,1,8,13c0,0.338-.017.672-0.05,1H4.056A8.981,8.981,0,0,1,6.118,7.208ZM4.515,16H7.542a9.339,9.339,0,0,1-1.425,2.792A9,9,0,0,1,4.515,16ZM13,22a8.954,8.954,0,0,1-5.423-1.822A11.358,11.358,0,0,0,9.623,16h7.753a11.422,11.422,0,0,0,1.667,3.663A8.965,8.965,0,0,1,13,22Zm6.458-6h2.028a8.977,8.977,0,0,1-1.073,2.1A9.435,9.435,0,0,1,19.458,16Z"/>
  </svg>