<svg id="S_ExposureLabelHot_Sm_N_D_2x" data-name="S_ExposureLabelHot_Sm_N_D@2x" xmlns="http://www.w3.org/2000/svg" width="32" height="32" viewBox="0 0 32 32">
  <defs>
    <style>
      .yellow {
        fill: #f4c500;
      }

      
    </style>
  </defs>
  <title>S_ExposureLabelHot_Sm_N_D@2x</title>
  <path class="yellow" d="M10.934,5.115a11.661,11.661,0,0,0-6.965,9.77A12.161,12.161,0,0,0,6.127,16.9a11.976,11.976,0,0,0,5.888,2.239,0.5,0.5,0,0,0,.4-0.838c-2.2-2.321-3.6-7.052-2.128-11.6A12.122,12.122,0,0,1,10.934,5.115Z"/>
  <path class="yellow" d="M16.089,3.977a11.616,11.616,0,0,0-2.716.321,12.191,12.191,0,0,0-1.252,2.679,12,12,0,0,0-.314,6.3,0.5,0.5,0,0,0,.914.118c1.528-2.811,5.6-5.614,10.382-5.614a12.158,12.158,0,0,1,1.714.124A11.637,11.637,0,0,0,16.089,3.977Z"/>
  <path class="yellow" d="M27.969,15.987a11.609,11.609,0,0,0-1.714-6.093,12.194,12.194,0,0,0-2.936-.358,11.971,11.971,0,0,0-6.086,1.654,0.5,0.5,0,0,0,.171.906c3.145,0.582,7.065,3.585,8.543,8.134a12.2,12.2,0,0,1,.418,1.67A11.605,11.605,0,0,0,27.969,15.987Z"/>
  <path class="yellow" d="M16.147,27.953a11.647,11.647,0,0,0,8.869-4.078,12.2,12.2,0,0,0-.566-2.908A11.979,11.979,0,0,0,21,15.687a0.5,0.5,0,0,0-.808.442c0.417,3.172-1.229,7.832-5.1,10.642a12.18,12.18,0,0,1-1.46.912A11.692,11.692,0,0,0,16.147,27.953Z"/>
  <path class="yellow" d="M4.115,17.446a11.674,11.674,0,0,0,7.145,9.64,12.127,12.127,0,0,0,2.586-1.43A11.982,11.982,0,0,0,17.8,20.739a0.5,0.5,0,0,0-.671-0.632c-2.887,1.378-7.827,1.253-11.7-1.557A12.168,12.168,0,0,1,4.115,17.446Z"/>
  </svg>