<svg xmlns="http://www.w3.org/2000/svg" data-name="S_ExposureLabel_Sm_N_D@2x" height="32" id="S_ExposureLabel_Sm_N_D_2x" viewBox="0 0 32 32" width="32">
  <defs>
    <style>
      .fill {
        fill: #fff;
        fill-rule: evenodd;
        opacity: 0.65;
      }

      
    </style>
  </defs>
  <path class="fill" d="M19.4,25H28.6a.5.5,0,0,1,.354.854L24,31l-4.97-5.16A.5.5,0,0,1,19.4,25Z" />
  <path class="fill" d="M6.531,6.224a9.973,9.973,0,0,0-2.146,9.821h5.4ZM18.112,3.791a10,10,0,0,0-9.929.964L9.852,9.784Zm5.951,9.938c.019-.242.037-.476.037-.729a10.07,10.07,0,0,0-4.077-8.088l-4.1,2.977Zm-4.477-.713L16.43,22.79a10.1,10.1,0,0,0,7.227-6.857ZM14.2,23.091l1.621-5.015H5.278A10.083,10.083,0,0,0,14,23.1,1.307,1.307,0,0,0,14.2,23.091Z" />
  </svg>