<svg id="S_FlowChartStraight_Wi_N_D_2x" data-name="S_FlowChartStraight_Wi_N_D@2x" xmlns="http://www.w3.org/2000/svg" width="40" height="26" viewBox="0 0 40 26">
  <defs>
    <style>
      .fill {
        fill: #fff;
        fill-rule: evenodd;
        opacity: 0.65;
      }

      
    </style>
  </defs>
  <title>S_FlowChartStraight_Wi_N_D@2x</title>
  <path class="fill" d="M25,10h8a1,1,0,0,0,1-1V3a1,1,0,0,0-1-1H25a1,1,0,0,0-1,1V6H16.5a0.5,0.5,0,0,0-.5.5V12H12V11a1,1,0,0,0-1-1H3a1,1,0,0,0-1,1v6a1,1,0,0,0,1,1h8a1,1,0,0,0,1-1V14h4v5.5a0.5,0.5,0,0,0,.5.5H24v3a1,1,0,0,0,1,1h8a1,1,0,0,0,1-1V17a1,1,0,0,0-1-1H25a1,1,0,0,0-1,1v1H18V8h6V9A1,1,0,0,0,25,10Z"/>
  </svg>