<svg id="S_FlowDirectionBT_Wi_N_D_2x" data-name="S_FlowDirectionBT_Wi_N_D@2x" xmlns="http://www.w3.org/2000/svg" width="40" height="26" viewBox="0 0 40 26">
  <defs>
    <style>
      .fill {
        fill: #fff;
        fill-rule: evenodd;
        opacity: 0.65;
      }

      .cls-1 {
        fill: #ff13dc;
        opacity: 0;
      }
    </style>
  </defs>
  <title>S_FlowDirectionBT_Wi_N_D@2x</title>
  <path class="fill" d="M21,18V12h4.887a0.5,0.5,0,0,0,.374-0.832L19,3l-7.26,8.168a0.5,0.5,0,0,0,.374.832H17v6H9a1,1,0,0,0-1,1v2a1,1,0,0,0,1,1H29a1,1,0,0,0,1-1V19a1,1,0,0,0-1-1H21Z"/>
  <rect id="ToDelete" class="cls-1" width="40" height="26"/>
</svg>
