<svg id="S_FlowChartCurve_Wi_N_D_2x" data-name="S_FlowChartCurve_Wi_N_D@2x" xmlns="http://www.w3.org/2000/svg" width="40" height="26" viewBox="0 0 40 26">
  <defs>
    <style>
      .fill {
        fill: #fff;
        fill-rule: evenodd;
        opacity: 0.65;
      }

      
    </style>
  </defs>
  <title>S_FlowChartCurve_Wi_N_D@2x</title>
  <path class="fill" d="M25,10h8a1,1,0,0,0,1-1V3a1,1,0,0,0-1-1H25a1,1,0,0,0-1,1V6c-3.933,0-8.3,1.932-8.923,6H12V11a1,1,0,0,0-1-1H3a1,1,0,0,0-1,1v6a1,1,0,0,0,1,1h8a1,1,0,0,0,1-1V14h3.077c0.627,4.068,4.99,6,8.923,6v3a1,1,0,0,0,1,1h8a1,1,0,0,0,1-1V17a1,1,0,0,0-1-1H25a1,1,0,0,0-1,1v1c-3.237,0-7-1.621-7-5s3.763-5,7-5V9A1,1,0,0,0,25,10Z"/>
  </svg>