<svg id="S_FlowChart_Sm_N_D_2x" data-name="S_FlowChart_Sm_N_D@2x" xmlns="http://www.w3.org/2000/svg" width="32" height="32" viewBox="0 0 32 32">
  <defs>
    <style>
      .fill {
        fill: #fff;
        fill-rule: evenodd;
        opacity: 0.65;
      }

      
    </style>
  </defs>
  <title>S_FlowChart_Sm_N_D@2x</title>
  <path class="fill" d="M24,20V16.5a0.5,0.5,0,0,0-.5-0.5H16V12h3a1,1,0,0,0,1-1V5a1,1,0,0,0-1-1H11a1,1,0,0,0-1,1v6a1,1,0,0,0,1,1h3v4H6.5a0.5,0.5,0,0,0-.5.5V20H3a1,1,0,0,0-1,1v6a1,1,0,0,0,1,1h8a1,1,0,0,0,1-1V21a1,1,0,0,0-1-1H8V18H22v2H19a1,1,0,0,0-1,1v6a1,1,0,0,0,1,1h8a1,1,0,0,0,1-1V21a1,1,0,0,0-1-1H24Z"/>
  </svg>