<svg id="S_FlowDirectionTB_Wi_N_D_2x" data-name="S_FlowDirectionTB_Wi_N_D@2x" xmlns="http://www.w3.org/2000/svg" width="40" height="26" viewBox="0 0 40 26">
  <defs>
    <style>
      .fill {
        fill: #fff;
        fill-rule: evenodd;
        opacity: 0.65;
      }

      .cls-1 {
        fill: #ff13dc;
        opacity: 0;
      }
    </style>
  </defs>
  <title>S_FlowDirectionTB_Wi_N_D@2x</title>
  <path class="fill" d="M17,8v6H12.113a0.5,0.5,0,0,0-.374.832L19,23l7.26-8.168A0.5,0.5,0,0,0,25.887,14H21V8h8a1,1,0,0,0,1-1V5a1,1,0,0,0-1-1H9A1,1,0,0,0,8,5V7A1,1,0,0,0,9,8h8Z"/>
  <rect id="ToDelete" class="cls-1" width="40" height="26"/>
</svg>
