<svg id="S_FlowDirectionLR_Wi_N_D_2x" data-name="S_FlowDirectionLR_Wi_N_D@2x" xmlns="http://www.w3.org/2000/svg" width="40" height="26" viewBox="0 0 40 26">
  <defs>
    <style>
      .fill {
        fill: #fff;
        fill-rule: evenodd;
        opacity: 0.65;
      }

      .cls-1 {
        fill: #ff13dc;
        opacity: 0;
      }
    </style>
  </defs>
  <title>S_FlowDirectionLR_Wi_N_D@2x</title>
  <path class="fill" d="M16,15h6v4.887a0.5,0.5,0,0,0,.832.374L31,13,22.832,5.74A0.5,0.5,0,0,0,22,6.113V11H16V3a1,1,0,0,0-1-1H13a1,1,0,0,0-1,1V23a1,1,0,0,0,1,1h2a1,1,0,0,0,1-1V15Z"/>
  <rect id="ToDelete" class="cls-1" width="40" height="26"/>
</svg>
