<svg xmlns="http://www.w3.org/2000/svg" data-name="S_FolderOpen_Sm_N_D@2x" height="32" id="S_FolderOpen_Sm_N_D_2x" viewBox="0 0 32 32" width="32">
  <defs>
    <style>
      .fill {
        fill: #fff;
        fill-rule: evenodd;
        opacity: 0.65;
        isolation: isolate;
      }

      
    </style>
  </defs>
  <path class="fill" d="M30.674,12H28V9a1,1,0,0,0-1-1l-10.332.008-3.3-3.4A2.008,2.008,0,0,0,11.929,4H4A2,2,0,0,0,2,6V25a1,1,0,0,0,1,1H27.246a1,1,0,0,0,.961-.725l3.429-12A1,1,0,0,0,30.674,12ZM6.754,12a1,1,0,0,0-.961.725L4,19V6h7.929l3.895,4.007L26,10v2Z" />
  </svg>