<svg id="S_Frameblend_Xs_N_D_2x" data-name="S_Frameblend_Xs_N_D@2x" xmlns="http://www.w3.org/2000/svg" width="26" height="26" viewBox="0 0 26 26">
  <defs>
    <style>
      .fill {
        fill: #fff;
        fill-rule: evenodd;
        opacity: 0.65;
      }

      
    </style>
  </defs>
  <title>S_Frameblend_Xs_N_D@2x</title>
  <path class="fill" d="M4,3V19a1,1,0,0,0,1,1H23a1,1,0,0,0,1-1V3a1,1,0,0,0-1-1H5A1,1,0,0,0,4,3ZM8,5.5a0.5,0.5,0,0,1-.5.5h-1A0.5,0.5,0,0,1,6,5.5v-1A0.5,0.5,0,0,1,6.5,4h1a0.5,0.5,0,0,1,.5.5v1ZM17.5,12h-7a0.5,0.5,0,0,1-.5-0.5v-1a0.5,0.5,0,0,1,.5-0.5h7a0.5,0.5,0,0,1,.5.5v1A0.5,0.5,0,0,1,17.5,12ZM22,5.5a0.5,0.5,0,0,1-.5.5h-1A0.5,0.5,0,0,1,20,5.5v-1A0.5,0.5,0,0,1,20.5,4h1a0.5,0.5,0,0,1,.5.5v1ZM8,9.5a0.5,0.5,0,0,1-.5.5h-1A0.5,0.5,0,0,1,6,9.5v-1A0.5,0.5,0,0,1,6.5,8h1a0.5,0.5,0,0,1,.5.5v1Zm14,0a0.5,0.5,0,0,1-.5.5h-1A0.5,0.5,0,0,1,20,9.5v-1A0.5,0.5,0,0,1,20.5,8h1a0.5,0.5,0,0,1,.5.5v1Zm-14,4a0.5,0.5,0,0,1-.5.5h-1A0.5,0.5,0,0,1,6,13.5v-1A0.5,0.5,0,0,1,6.5,12h1a0.5,0.5,0,0,1,.5.5v1Zm14,0a0.5,0.5,0,0,1-.5.5h-1a0.5,0.5,0,0,1-.5-0.5v-1a0.5,0.5,0,0,1,.5-0.5h1a0.5,0.5,0,0,1,.5.5v1Zm-14,4a0.5,0.5,0,0,1-.5.5h-1A0.5,0.5,0,0,1,6,17.5v-1A0.5,0.5,0,0,1,6.5,16h1a0.5,0.5,0,0,1,.5.5v1Zm14,0a0.5,0.5,0,0,1-.5.5h-1a0.5,0.5,0,0,1-.5-0.5v-1a0.5,0.5,0,0,1,.5-0.5h1a0.5,0.5,0,0,1,.5.5v1Z"/>
  <path class="fill" d="M2,22V4H1A1,1,0,0,0,0,5V23a1,1,0,0,0,1,1H21a1,1,0,0,0,1-1V22H2Z"/>
  </svg>