<svg id="S_FreeTranf_Lg_N_D_2x" data-name="S_FreeTranf_Lg_N_D@2x" xmlns="http://www.w3.org/2000/svg" width="44" height="36" viewBox="0 0 44 36">
  <defs>
    <style>
      .fill {
        fill: #fff;
        fill-rule: evenodd;
        opacity: 0.65;
      }

      
    </style>
  </defs>
  <title>S_FreeTranf_Lg_N_D@2x</title>
  <path class="fill" d="M12,8v6H8.5a0.5,0.5,0,0,0-.5.5v5a0.5,0.5,0,0,0,.5.5H12v6H8v5.5a0.5,0.5,0,0,0,.5.5h5a0.5,0.5,0,0,0,.5-0.5V28h6v3.5a0.5,0.5,0,0,0,.5.5h5a0.5,0.5,0,0,0,.5-0.5V28h6v3.5a0.5,0.5,0,0,0,.5.5h5a0.5,0.5,0,0,0,.5-0.5v-5a0.5,0.5,0,0,0-.5-0.5H34V20h3.5a0.5,0.5,0,0,0,.5-0.5v-5a0.5,0.5,0,0,0-.5-0.5H34V8h3.5A0.5,0.5,0,0,0,38,7.5v-5A0.5,0.5,0,0,0,37.5,2h-5a0.5,0.5,0,0,0-.5.5V6H26V2.5A0.5,0.5,0,0,0,25.5,2h-5a0.5,0.5,0,0,0-.5.5V6H14V2.5A0.5,0.5,0,0,0,13.5,2h-5a0.5,0.5,0,0,0-.5.5v5a0.5,0.5,0,0,0,.5.5H12ZM32,8V26H14V8H32Zm-7,9a2,2,0,1,0-2,2A2,2,0,0,0,25,17Z"/>
  </svg>