<svg xmlns="http://www.w3.org/2000/svg" data-name="S_GPUAccelerated_Wi_N_D@2x" height="26" id="S_GPUAccelerated_Wi_N_D_2x" viewBox="0 0 40 26" width="40">
  <defs>
    <style>
      .fill {
        fill: #fff;
        fill-rule: evenodd;
        opacity: 0.65;
      }

      
    </style>
  </defs>
  <title>S_GPUAccelerated_Wi_N_D@2x</title>
  <path class="fill" d="M11.3,15.3l3.4,3.4C22.248,15.961,28.03,10.339,29.867.744a.533.533,0,0,0-.611-.611C19.661,1.97,14.039,7.752,11.3,15.3Z" />
  <path class="fill" d="M15.264,5.149q-6.979.957-10.869,8.094A.517.517,0,0,0,4.842,14H9.654A25.632,25.632,0,0,1,15.264,5.149Z" />
  <path class="fill" d="M16,20.346v4.748a.513.513,0,0,0,.782.426c5.215-3.3,7.661-7.012,8.269-10.985A25.552,25.552,0,0,1,16,20.346Z" />
  </svg>