<svg id="S_GraphEdFitSelected_Lg_N_D_2x" data-name="S_GraphEdFitSelected_Lg_N_D@2x" xmlns="http://www.w3.org/2000/svg" width="44" height="36" viewBox="0 0 44 36">
  <defs>
    <style>
      .fill, .fillPale {
        fill: #fff;
      }

      .fill {
        fill-rule: evenodd;
        opacity: 0.65;
      }

      .fillPale {
        opacity: 0.15;
      }

      .cls-1 {
        fill: none;
      }

      
    </style>
  </defs>
  <title>S_GraphEdFitSelected_Lg_N_D@2x</title>
  <path class="fill" d="M39,6H38V2.612A0.612,0.612,0,0,0,37.388,2H36.612A0.612,0.612,0,0,0,36,2.612V6H30V4.5A0.5,0.5,0,0,0,29.5,4h-1a0.5,0.5,0,0,0-.5.5V6H22V2.612A0.612,0.612,0,0,0,21.388,2H20.612A0.612,0.612,0,0,0,20,2.612V6H14V4.5A0.5,0.5,0,0,0,13.5,4h-1a0.5,0.5,0,0,0-.5.5V6H7A1,1,0,0,0,6,7v3H4.5a0.5,0.5,0,0,0-.5.5v1a0.5,0.5,0,0,0,.5.5H6v6H4.5a0.5,0.5,0,0,0-.5.5v1a0.5,0.5,0,0,0,.5.5H6v6H4.5a0.5,0.5,0,0,0-.5.5v1a0.5,0.5,0,0,0,.5.5H6v3a1,1,0,0,0,1,1H39a1,1,0,0,0,1-1V7A1,1,0,0,0,39,6ZM38,30H8V8H38V30Z"/>
  <path class="fillPale" d="M20.77,18H8v2H22.109C21.667,19.315,21.229,18.638,20.77,18Z"/>
  <path class="fillPale" d="M8,24v2H30a6.757,6.757,0,0,1-4.854-2H8Z"/>
  <path class="fillPale" d="M10,13.5v-1a0.5,0.5,0,0,1,.5-0.5H8v2h2.5A0.5,0.5,0,0,1,10,13.5Z"/>
  <path class="fillPale" d="M14,12a8.875,8.875,0,0,1,5.815,2H38V12H14Z"/>
  <path class="fillPale" d="M36,24.5v1a0.5,0.5,0,0,1-.5.5H38V24H35.5A0.5,0.5,0,0,1,36,24.5Z"/>
  <path class="fillPale" d="M23.8,18.937C24.037,19.3,24.267,19.655,24.5,20H38V18H23.194C23.4,18.314,23.6,18.627,23.8,18.937Z"/>
  <path class="cls-1" d="M36,25.5a0.5,0.5,0,0,1-.5.5H30c-4.017,0-5.979-3.039-7.877-5.979C20.124,16.925,18.235,14,14,14H10.5a0.5,0.5,0,0,1-.5-0.5v-1a0.5,0.5,0,0,1,.5-0.5H14c5.325,0,7.7,3.685,9.8,6.937C25.558,21.653,27.073,24,30,24h5.5a0.5,0.5,0,0,1,.5.5v1Z"/>
  <path class="fill" d="M36,25.5a0.5,0.5,0,0,1-.5.5H30c-4.017,0-5.979-3.039-7.877-5.979C20.124,16.925,18.235,14,14,14H10.5a0.5,0.5,0,0,1-.5-0.5v-1a0.5,0.5,0,0,1,.5-0.5H14c5.325,0,7.7,3.685,9.8,6.937C25.558,21.653,27.073,24,30,24h5.5a0.5,0.5,0,0,1,.5.5v1Z"/>
  </svg>