<svg id="S_GraphEdFitAll_Lg_N_D_2x" data-name="S_GraphEdFitAll_Lg_N_D@2x" xmlns="http://www.w3.org/2000/svg" width="44" height="36" viewBox="0 0 44 36">
  <defs>
    <style>
      .fill, .fillPale {
        fill: #fff;
      }

      .fill {
        fill-rule: evenodd;
        opacity: 0.65;
      }

      .fillPale {
        opacity: 0.15;
      }

      
    </style>
  </defs>
  <title>S_GraphEdFitAll_Lg_N_D@2x</title>
  <path class="fill" d="M39,6H38V2.612A0.612,0.612,0,0,0,37.388,2H36.612A0.612,0.612,0,0,0,36,2.612V6H30V4.5A0.5,0.5,0,0,0,29.5,4h-1a0.5,0.5,0,0,0-.5.5V6H22V2.612A0.612,0.612,0,0,0,21.388,2H20.612A0.612,0.612,0,0,0,20,2.612V6H14V4.5A0.5,0.5,0,0,0,13.5,4h-1a0.5,0.5,0,0,0-.5.5V6H7A1,1,0,0,0,6,7v3H4.5a0.5,0.5,0,0,0-.5.5v1a0.5,0.5,0,0,0,.5.5H6v6H4.5a0.5,0.5,0,0,0-.5.5v1a0.5,0.5,0,0,0,.5.5H6v6H4.5a0.5,0.5,0,0,0-.5.5v1a0.5,0.5,0,0,0,.5.5H6v3a1,1,0,0,0,1,1H39a1,1,0,0,0,1-1V7A1,1,0,0,0,39,6ZM38,30H8V8H38V30Z"/>
  <path class="fillPale" d="M35.5,24.992a0.5,0.5,0,0,1,.5.5V26h2V24H29.5A20.018,20.018,0,0,0,35.5,24.992Z"/>
  <path class="fillPale" d="M24.733,24.251L24.159,24H8v2H29.191A42.09,42.09,0,0,1,24.733,24.251Z"/>
  <path class="fillPale" d="M8,12v2h2.458A0.5,0.5,0,0,1,10,13.506v-1a0.51,0.51,0,0,1,.514-0.5,33.045,33.045,0,0,1,11.575,2H38V12H8Z"/>
  <path class="fillPale" d="M36,18.491v1a0.51,0.51,0,0,1-.517.5,23.077,23.077,0,0,1-9.014-2H8v2h2V19.5a0.51,0.51,0,0,1,.514-0.5,35.421,35.421,0,0,1,8.359,1H38V18H35.562A0.5,0.5,0,0,1,36,18.491Z"/>
  <path class="fill" d="M36,19.49a0.51,0.51,0,0,1-.517.5,25.423,25.423,0,0,1-10.75-2.742A31.854,31.854,0,0,0,10.5,14a0.5,0.5,0,0,1-.5-0.5v-1a0.51,0.51,0,0,1,.514-0.5,33.984,33.984,0,0,1,15.021,3.418C28.582,16.754,31.228,17.912,35.5,18a0.5,0.5,0,0,1,.5.5v1Z"/>
  <path class="fill" d="M36,25.488a0.5,0.5,0,0,0-.5-0.5c-4.274-.083-6.921-1.241-9.968-2.574A33.984,33.984,0,0,0,10.514,19a0.51,0.51,0,0,0-.514.5v1a0.5,0.5,0,0,0,.5.5,31.854,31.854,0,0,1,14.232,3.251,25.423,25.423,0,0,0,10.75,2.742,0.51,0.51,0,0,0,.517-0.5v-1Z"/>
  </svg>