<svg id="S_GreenChannelCMOn_Sm_N_D_2x" data-name="S_GreenChannelCMOn_Sm_N_D@2x" xmlns="http://www.w3.org/2000/svg" width="32" height="32" viewBox="0 0 32 32">
  <defs>
    <style>
      .cls-1 {
        fill: #1ac605;
      }

      .fill {
        fill: #fff;
        fill-rule: evenodd;
        opacity: 0.65;
      }

      
    </style>
  </defs>
  <title>S_GreenChannelCMOn_Sm_N_D@2x</title>
  <circle class="cls-1" cx="10" cy="17" r="6"/>
  <path class="fill" d="M24.5,14A2.5,2.5,0,0,1,22,11.5V11.342a5.968,5.968,0,0,0-1.354-.307A5.964,5.964,0,0,0,20.917,10H20.5A2.5,2.5,0,0,1,18,7.5v-1a2.5,2.5,0,0,1,.984-1.986A6,6,0,0,0,9,9V9.062A8,8,0,0,1,16.4,21.8,6,6,0,0,0,25.2,14H24.5Z"/>
  <path class="fill" d="M19.4,26H28.6a0.5,0.5,0,0,1,.354.854L24,32l-4.97-5.16A0.5,0.5,0,0,1,19.4,26Z"/>
  <path class="fill" d="M29.5,6H26V2.5A0.5,0.5,0,0,0,25.5,2h-1a0.5,0.5,0,0,0-.5.5V6H20.5a0.5,0.5,0,0,0-.5.5v1a0.5,0.5,0,0,0,.5.5H24v3.5a0.5,0.5,0,0,0,.5.5h1a0.5,0.5,0,0,0,.5-0.5V8h3.5A0.5,0.5,0,0,0,30,7.5v-1A0.5,0.5,0,0,0,29.5,6Z"/>
  </svg>