<svg id="S_GradientCheckerSwatch_400x30_N_D_2x" data-name="S_GradientCheckerSwatch_400x30_N_D@2x" xmlns="http://www.w3.org/2000/svg" width="800" height="52" viewBox="0 0 800 52">
  <defs>
    <style>
      .cls-1 {
        fill: #fff;
      }

      .cls-2 {
        fill: #ccc;
      }

      
    </style>
  </defs>
  <title>S_GradientCheckerSwatch_400x30_N_D@2x</title>
  <rect class="cls-1" width="8" height="8"/>
  <rect class="cls-2" y="8" width="8" height="8"/>
  <rect class="cls-1" y="16" width="8" height="8"/>
  <rect class="cls-2" y="24" width="8" height="8"/>
  <rect class="cls-1" y="32" width="8" height="8"/>
  <rect class="cls-2" y="40" width="8" height="8"/>
  <rect class="cls-1" y="48" width="8" height="4"/>
  <rect class="cls-2" x="8" width="8" height="8"/>
  <rect class="cls-1" x="8" y="8" width="8" height="8"/>
  <rect class="cls-2" x="8" y="16" width="8" height="8"/>
  <rect class="cls-1" x="8" y="24" width="8" height="8"/>
  <rect class="cls-2" x="8" y="32" width="8" height="8"/>
  <rect class="cls-1" x="8" y="40" width="8" height="8"/>
  <rect class="cls-2" x="8" y="48" width="8" height="4"/>
  <rect class="cls-1" x="16" width="8" height="8"/>
  <rect class="cls-2" x="16" y="8" width="8" height="8"/>
  <rect class="cls-1" x="16" y="16" width="8" height="8"/>
  <rect class="cls-2" x="16" y="24" width="8" height="8"/>
  <rect class="cls-1" x="16" y="32" width="8" height="8"/>
  <rect class="cls-2" x="16" y="40" width="8" height="8"/>
  <rect class="cls-1" x="16" y="48" width="8" height="4"/>
  <rect class="cls-2" x="24" width="8" height="8"/>
  <rect class="cls-1" x="24" y="8" width="8" height="8"/>
  <rect class="cls-2" x="24" y="16" width="8" height="8"/>
  <rect class="cls-1" x="24" y="24" width="8" height="8"/>
  <rect class="cls-2" x="24" y="32" width="8" height="8"/>
  <rect class="cls-1" x="24" y="40" width="8" height="8"/>
  <rect class="cls-2" x="24" y="48" width="8" height="4"/>
  <rect class="cls-1" x="32" width="8" height="8"/>
  <rect class="cls-2" x="32" y="8" width="8" height="8"/>
  <rect class="cls-1" x="32" y="16" width="8" height="8"/>
  <rect class="cls-2" x="32" y="24" width="8" height="8"/>
  <rect class="cls-1" x="32" y="32" width="8" height="8"/>
  <rect class="cls-2" x="32" y="40" width="8" height="8"/>
  <rect class="cls-1" x="32" y="48" width="8" height="4"/>
  <rect class="cls-2" x="40" width="8" height="8"/>
  <rect class="cls-1" x="40" y="8" width="8" height="8"/>
  <rect class="cls-2" x="40" y="16" width="8" height="8"/>
  <rect class="cls-1" x="40" y="24" width="8" height="8"/>
  <rect class="cls-2" x="40" y="32" width="8" height="8"/>
  <rect class="cls-1" x="40" y="40" width="8" height="8"/>
  <rect class="cls-2" x="40" y="48" width="8" height="4"/>
  <rect class="cls-1" x="48" width="8" height="8"/>
  <rect class="cls-2" x="48" y="8" width="8" height="8"/>
  <rect class="cls-1" x="48" y="16" width="8" height="8"/>
  <rect class="cls-2" x="48" y="24" width="8" height="8"/>
  <rect class="cls-1" x="48" y="32" width="8" height="8"/>
  <rect class="cls-2" x="48" y="40" width="8" height="8"/>
  <rect class="cls-1" x="48" y="48" width="8" height="4"/>
  <rect class="cls-2" x="56" width="8" height="8"/>
  <rect class="cls-1" x="56" y="8" width="8" height="8"/>
  <rect class="cls-2" x="56" y="16" width="8" height="8"/>
  <rect class="cls-1" x="56" y="24" width="8" height="8"/>
  <rect class="cls-2" x="56" y="32" width="8" height="8"/>
  <rect class="cls-1" x="56" y="40" width="8" height="8"/>
  <rect class="cls-2" x="56" y="48" width="8" height="4"/>
  <rect class="cls-1" x="64" width="8" height="8"/>
  <rect class="cls-2" x="64" y="8" width="8" height="8"/>
  <rect class="cls-1" x="64" y="16" width="8" height="8"/>
  <rect class="cls-2" x="64" y="24" width="8" height="8"/>
  <rect class="cls-1" x="64" y="32" width="8" height="8"/>
  <rect class="cls-2" x="64" y="40" width="8" height="8"/>
  <rect class="cls-1" x="64" y="48" width="8" height="4"/>
  <rect class="cls-2" x="72" width="8" height="8"/>
  <rect class="cls-1" x="72" y="8" width="8" height="8"/>
  <rect class="cls-2" x="72" y="16" width="8" height="8"/>
  <rect class="cls-1" x="72" y="24" width="8" height="8"/>
  <rect class="cls-2" x="72" y="32" width="8" height="8"/>
  <rect class="cls-1" x="72" y="40" width="8" height="8"/>
  <rect class="cls-2" x="72" y="48" width="8" height="4"/>
  <rect class="cls-1" x="80" width="8" height="8"/>
  <rect class="cls-2" x="80" y="8" width="8" height="8"/>
  <rect class="cls-1" x="80" y="16" width="8" height="8"/>
  <rect class="cls-2" x="80" y="24" width="8" height="8"/>
  <rect class="cls-1" x="80" y="32" width="8" height="8"/>
  <rect class="cls-2" x="80" y="40" width="8" height="8"/>
  <rect class="cls-1" x="80" y="48" width="8" height="4"/>
  <rect class="cls-2" x="88" width="8" height="8"/>
  <rect class="cls-1" x="88" y="8" width="8" height="8"/>
  <rect class="cls-2" x="88" y="16" width="8" height="8"/>
  <rect class="cls-1" x="88" y="24" width="8" height="8"/>
  <rect class="cls-2" x="88" y="32" width="8" height="8"/>
  <rect class="cls-1" x="88" y="40" width="8" height="8"/>
  <rect class="cls-2" x="88" y="48" width="8" height="4"/>
  <rect class="cls-1" x="96" width="8" height="8"/>
  <rect class="cls-2" x="96" y="8" width="8" height="8"/>
  <rect class="cls-1" x="96" y="16" width="8" height="8"/>
  <rect class="cls-2" x="96" y="24" width="8" height="8"/>
  <rect class="cls-1" x="96" y="32" width="8" height="8"/>
  <rect class="cls-2" x="96" y="40" width="8" height="8"/>
  <rect class="cls-1" x="96" y="48" width="8" height="4"/>
  <rect class="cls-2" x="104" width="8" height="8"/>
  <rect class="cls-1" x="104" y="8" width="8" height="8"/>
  <rect class="cls-2" x="104" y="16" width="8" height="8"/>
  <rect class="cls-1" x="104" y="24" width="8" height="8"/>
  <rect class="cls-2" x="104" y="32" width="8" height="8"/>
  <rect class="cls-1" x="104" y="40" width="8" height="8"/>
  <rect class="cls-2" x="104" y="48" width="8" height="4"/>
  <rect class="cls-1" x="112" width="8" height="8"/>
  <rect class="cls-2" x="112" y="8" width="8" height="8"/>
  <rect class="cls-1" x="112" y="16" width="8" height="8"/>
  <rect class="cls-2" x="112" y="24" width="8" height="8"/>
  <rect class="cls-1" x="112" y="32" width="8" height="8"/>
  <rect class="cls-2" x="112" y="40" width="8" height="8"/>
  <rect class="cls-1" x="112" y="48" width="8" height="4"/>
  <rect class="cls-2" x="120" width="8" height="8"/>
  <rect class="cls-1" x="120" y="8" width="8" height="8"/>
  <rect class="cls-2" x="120" y="16" width="8" height="8"/>
  <rect class="cls-1" x="120" y="24" width="8" height="8"/>
  <rect class="cls-2" x="120" y="32" width="8" height="8"/>
  <rect class="cls-1" x="120" y="40" width="8" height="8"/>
  <rect class="cls-2" x="120" y="48" width="8" height="4"/>
  <rect class="cls-1" x="128" width="8" height="8"/>
  <rect class="cls-2" x="128" y="8" width="8" height="8"/>
  <rect class="cls-1" x="128" y="16" width="8" height="8"/>
  <rect class="cls-2" x="128" y="24" width="8" height="8"/>
  <rect class="cls-1" x="128" y="32" width="8" height="8"/>
  <rect class="cls-2" x="128" y="40" width="8" height="8"/>
  <rect class="cls-1" x="128" y="48" width="8" height="4"/>
  <rect class="cls-2" x="136" width="8" height="8"/>
  <rect class="cls-1" x="136" y="8" width="8" height="8"/>
  <rect class="cls-2" x="136" y="16" width="8" height="8"/>
  <rect class="cls-1" x="136" y="24" width="8" height="8"/>
  <rect class="cls-2" x="136" y="32" width="8" height="8"/>
  <rect class="cls-1" x="136" y="40" width="8" height="8"/>
  <rect class="cls-2" x="136" y="48" width="8" height="4"/>
  <rect class="cls-1" x="144" width="8" height="8"/>
  <rect class="cls-2" x="144" y="8" width="8" height="8"/>
  <rect class="cls-1" x="144" y="16" width="8" height="8"/>
  <rect class="cls-2" x="144" y="24" width="8" height="8"/>
  <rect class="cls-1" x="144" y="32" width="8" height="8"/>
  <rect class="cls-2" x="144" y="40" width="8" height="8"/>
  <rect class="cls-1" x="144" y="48" width="8" height="4"/>
  <rect class="cls-2" x="152" width="8" height="8"/>
  <rect class="cls-1" x="152" y="8" width="8" height="8"/>
  <rect class="cls-2" x="152" y="16" width="8" height="8"/>
  <rect class="cls-1" x="152" y="24" width="8" height="8"/>
  <rect class="cls-2" x="152" y="32" width="8" height="8"/>
  <rect class="cls-1" x="152" y="40" width="8" height="8"/>
  <rect class="cls-2" x="152" y="48" width="8" height="4"/>
  <rect class="cls-1" x="160" width="8" height="8"/>
  <rect class="cls-2" x="160" y="8" width="8" height="8"/>
  <rect class="cls-1" x="160" y="16" width="8" height="8"/>
  <rect class="cls-2" x="160" y="24" width="8" height="8"/>
  <rect class="cls-1" x="160" y="32" width="8" height="8"/>
  <rect class="cls-2" x="160" y="40" width="8" height="8"/>
  <rect class="cls-1" x="160" y="48" width="8" height="4"/>
  <rect class="cls-2" x="168" width="8" height="8"/>
  <rect class="cls-1" x="168" y="8" width="8" height="8"/>
  <rect class="cls-2" x="168" y="16" width="8" height="8"/>
  <rect class="cls-1" x="168" y="24" width="8" height="8"/>
  <rect class="cls-2" x="168" y="32" width="8" height="8"/>
  <rect class="cls-1" x="168" y="40" width="8" height="8"/>
  <rect class="cls-2" x="168" y="48" width="8" height="4"/>
  <rect class="cls-1" x="176" width="8" height="8"/>
  <rect class="cls-2" x="176" y="8" width="8" height="8"/>
  <rect class="cls-1" x="176" y="16" width="8" height="8"/>
  <rect class="cls-2" x="176" y="24" width="8" height="8"/>
  <rect class="cls-1" x="176" y="32" width="8" height="8"/>
  <rect class="cls-2" x="176" y="40" width="8" height="8"/>
  <rect class="cls-1" x="176" y="48" width="8" height="4"/>
  <rect class="cls-2" x="184" width="8" height="8"/>
  <rect class="cls-1" x="184" y="8" width="8" height="8"/>
  <rect class="cls-2" x="184" y="16" width="8" height="8"/>
  <rect class="cls-1" x="184" y="24" width="8" height="8"/>
  <rect class="cls-2" x="184" y="32" width="8" height="8"/>
  <rect class="cls-1" x="184" y="40" width="8" height="8"/>
  <rect class="cls-2" x="184" y="48" width="8" height="4"/>
  <rect class="cls-1" x="192" width="8" height="8"/>
  <rect class="cls-2" x="192" y="8" width="8" height="8"/>
  <rect class="cls-1" x="192" y="16" width="8" height="8"/>
  <rect class="cls-2" x="192" y="24" width="8" height="8"/>
  <rect class="cls-1" x="192" y="32" width="8" height="8"/>
  <rect class="cls-2" x="192" y="40" width="8" height="8"/>
  <rect class="cls-1" x="192" y="48" width="8" height="4"/>
  <rect class="cls-2" x="200" width="8" height="8"/>
  <rect class="cls-1" x="200" y="8" width="8" height="8"/>
  <rect class="cls-2" x="200" y="16" width="8" height="8"/>
  <rect class="cls-1" x="200" y="24" width="8" height="8"/>
  <rect class="cls-2" x="200" y="32" width="8" height="8"/>
  <rect class="cls-1" x="200" y="40" width="8" height="8"/>
  <rect class="cls-2" x="200" y="48" width="8" height="4"/>
  <rect class="cls-1" x="208" width="8" height="8"/>
  <rect class="cls-2" x="208" y="8" width="8" height="8"/>
  <rect class="cls-1" x="208" y="16" width="8" height="8"/>
  <rect class="cls-2" x="208" y="24" width="8" height="8"/>
  <rect class="cls-1" x="208" y="32" width="8" height="8"/>
  <rect class="cls-2" x="208" y="40" width="8" height="8"/>
  <rect class="cls-1" x="208" y="48" width="8" height="4"/>
  <rect class="cls-2" x="216" width="8" height="8"/>
  <rect class="cls-1" x="216" y="8" width="8" height="8"/>
  <rect class="cls-2" x="216" y="16" width="8" height="8"/>
  <rect class="cls-1" x="216" y="24" width="8" height="8"/>
  <rect class="cls-2" x="216" y="32" width="8" height="8"/>
  <rect class="cls-1" x="216" y="40" width="8" height="8"/>
  <rect class="cls-2" x="216" y="48" width="8" height="4"/>
  <rect class="cls-1" x="224" width="8" height="8"/>
  <rect class="cls-2" x="224" y="8" width="8" height="8"/>
  <rect class="cls-1" x="224" y="16" width="8" height="8"/>
  <rect class="cls-2" x="224" y="24" width="8" height="8"/>
  <rect class="cls-1" x="224" y="32" width="8" height="8"/>
  <rect class="cls-2" x="224" y="40" width="8" height="8"/>
  <rect class="cls-1" x="224" y="48" width="8" height="4"/>
  <rect class="cls-2" x="232" width="8" height="8"/>
  <rect class="cls-1" x="232" y="8" width="8" height="8"/>
  <rect class="cls-2" x="232" y="16" width="8" height="8"/>
  <rect class="cls-1" x="232" y="24" width="8" height="8"/>
  <rect class="cls-2" x="232" y="32" width="8" height="8"/>
  <rect class="cls-1" x="232" y="40" width="8" height="8"/>
  <rect class="cls-2" x="232" y="48" width="8" height="4"/>
  <rect class="cls-1" x="240" width="8" height="8"/>
  <rect class="cls-2" x="240" y="8" width="8" height="8"/>
  <rect class="cls-1" x="240" y="16" width="8" height="8"/>
  <rect class="cls-2" x="240" y="24" width="8" height="8"/>
  <rect class="cls-1" x="240" y="32" width="8" height="8"/>
  <rect class="cls-2" x="240" y="40" width="8" height="8"/>
  <rect class="cls-1" x="240" y="48" width="8" height="4"/>
  <rect class="cls-2" x="248" width="8" height="8"/>
  <rect class="cls-1" x="248" y="8" width="8" height="8"/>
  <rect class="cls-2" x="248" y="16" width="8" height="8"/>
  <rect class="cls-1" x="248" y="24" width="8" height="8"/>
  <rect class="cls-2" x="248" y="32" width="8" height="8"/>
  <rect class="cls-1" x="248" y="40" width="8" height="8"/>
  <rect class="cls-2" x="248" y="48" width="8" height="4"/>
  <rect class="cls-1" x="256" width="8" height="8"/>
  <rect class="cls-2" x="256" y="8" width="8" height="8"/>
  <rect class="cls-1" x="256" y="16" width="8" height="8"/>
  <rect class="cls-2" x="256" y="24" width="8" height="8"/>
  <rect class="cls-1" x="256" y="32" width="8" height="8"/>
  <rect class="cls-2" x="256" y="40" width="8" height="8"/>
  <rect class="cls-1" x="256" y="48" width="8" height="4"/>
  <rect class="cls-2" x="264" width="8" height="8"/>
  <rect class="cls-1" x="264" y="8" width="8" height="8"/>
  <rect class="cls-2" x="264" y="16" width="8" height="8"/>
  <rect class="cls-1" x="264" y="24" width="8" height="8"/>
  <rect class="cls-2" x="264" y="32" width="8" height="8"/>
  <rect class="cls-1" x="264" y="40" width="8" height="8"/>
  <rect class="cls-2" x="264" y="48" width="8" height="4"/>
  <rect class="cls-1" x="272" width="8" height="8"/>
  <rect class="cls-2" x="272" y="8" width="8" height="8"/>
  <rect class="cls-1" x="272" y="16" width="8" height="8"/>
  <rect class="cls-2" x="272" y="24" width="8" height="8"/>
  <rect class="cls-1" x="272" y="32" width="8" height="8"/>
  <rect class="cls-2" x="272" y="40" width="8" height="8"/>
  <rect class="cls-1" x="272" y="48" width="8" height="4"/>
  <rect class="cls-2" x="280" width="8" height="8"/>
  <rect class="cls-1" x="280" y="8" width="8" height="8"/>
  <rect class="cls-2" x="280" y="16" width="8" height="8"/>
  <rect class="cls-1" x="280" y="24" width="8" height="8"/>
  <rect class="cls-2" x="280" y="32" width="8" height="8"/>
  <rect class="cls-1" x="280" y="40" width="8" height="8"/>
  <rect class="cls-2" x="280" y="48" width="8" height="4"/>
  <rect class="cls-1" x="288" width="8" height="8"/>
  <rect class="cls-2" x="288" y="8" width="8" height="8"/>
  <rect class="cls-1" x="288" y="16" width="8" height="8"/>
  <rect class="cls-2" x="288" y="24" width="8" height="8"/>
  <rect class="cls-1" x="288" y="32" width="8" height="8"/>
  <rect class="cls-2" x="288" y="40" width="8" height="8"/>
  <rect class="cls-1" x="288" y="48" width="8" height="4"/>
  <rect class="cls-2" x="296" width="8" height="8"/>
  <rect class="cls-1" x="296" y="8" width="8" height="8"/>
  <rect class="cls-2" x="296" y="16" width="8" height="8"/>
  <rect class="cls-1" x="296" y="24" width="8" height="8"/>
  <rect class="cls-2" x="296" y="32" width="8" height="8"/>
  <rect class="cls-1" x="296" y="40" width="8" height="8"/>
  <rect class="cls-2" x="296" y="48" width="8" height="4"/>
  <rect class="cls-1" x="304" width="8" height="8"/>
  <rect class="cls-2" x="304" y="8" width="8" height="8"/>
  <rect class="cls-1" x="304" y="16" width="8" height="8"/>
  <rect class="cls-2" x="304" y="24" width="8" height="8"/>
  <rect class="cls-1" x="304" y="32" width="8" height="8"/>
  <rect class="cls-2" x="304" y="40" width="8" height="8"/>
  <rect class="cls-1" x="304" y="48" width="8" height="4"/>
  <rect class="cls-2" x="312" width="8" height="8"/>
  <rect class="cls-1" x="312" y="8" width="8" height="8"/>
  <rect class="cls-2" x="312" y="16" width="8" height="8"/>
  <rect class="cls-1" x="312" y="24" width="8" height="8"/>
  <rect class="cls-2" x="312" y="32" width="8" height="8"/>
  <rect class="cls-1" x="312" y="40" width="8" height="8"/>
  <rect class="cls-2" x="312" y="48" width="8" height="4"/>
  <rect class="cls-1" x="320" width="8" height="8"/>
  <rect class="cls-2" x="320" y="8" width="8" height="8"/>
  <rect class="cls-1" x="320" y="16" width="8" height="8"/>
  <rect class="cls-2" x="320" y="24" width="8" height="8"/>
  <rect class="cls-1" x="320" y="32" width="8" height="8"/>
  <rect class="cls-2" x="320" y="40" width="8" height="8"/>
  <rect class="cls-1" x="320" y="48" width="8" height="4"/>
  <rect class="cls-2" x="328" width="8" height="8"/>
  <rect class="cls-1" x="328" y="8" width="8" height="8"/>
  <rect class="cls-2" x="328" y="16" width="8" height="8"/>
  <rect class="cls-1" x="328" y="24" width="8" height="8"/>
  <rect class="cls-2" x="328" y="32" width="8" height="8"/>
  <rect class="cls-1" x="328" y="40" width="8" height="8"/>
  <rect class="cls-2" x="328" y="48" width="8" height="4"/>
  <rect class="cls-1" x="336" width="8" height="8"/>
  <rect class="cls-2" x="336" y="8" width="8" height="8"/>
  <rect class="cls-1" x="336" y="16" width="8" height="8"/>
  <rect class="cls-2" x="336" y="24" width="8" height="8"/>
  <rect class="cls-1" x="336" y="32" width="8" height="8"/>
  <rect class="cls-2" x="336" y="40" width="8" height="8"/>
  <rect class="cls-1" x="336" y="48" width="8" height="4"/>
  <rect class="cls-2" x="344" width="8" height="8"/>
  <rect class="cls-1" x="344" y="8" width="8" height="8"/>
  <rect class="cls-2" x="344" y="16" width="8" height="8"/>
  <rect class="cls-1" x="344" y="24" width="8" height="8"/>
  <rect class="cls-2" x="344" y="32" width="8" height="8"/>
  <rect class="cls-1" x="344" y="40" width="8" height="8"/>
  <rect class="cls-2" x="344" y="48" width="8" height="4"/>
  <rect class="cls-1" x="352" width="8" height="8"/>
  <rect class="cls-2" x="352" y="8" width="8" height="8"/>
  <rect class="cls-1" x="352" y="16" width="8" height="8"/>
  <rect class="cls-2" x="352" y="24" width="8" height="8"/>
  <rect class="cls-1" x="352" y="32" width="8" height="8"/>
  <rect class="cls-2" x="352" y="40" width="8" height="8"/>
  <rect class="cls-1" x="352" y="48" width="8" height="4"/>
  <rect class="cls-2" x="360" width="8" height="8"/>
  <rect class="cls-1" x="360" y="8" width="8" height="8"/>
  <rect class="cls-2" x="360" y="16" width="8" height="8"/>
  <rect class="cls-1" x="360" y="24" width="8" height="8"/>
  <rect class="cls-2" x="360" y="32" width="8" height="8"/>
  <rect class="cls-1" x="360" y="40" width="8" height="8"/>
  <rect class="cls-2" x="360" y="48" width="8" height="4"/>
  <rect class="cls-1" x="368" width="8" height="8"/>
  <rect class="cls-2" x="368" y="8" width="8" height="8"/>
  <rect class="cls-1" x="368" y="16" width="8" height="8"/>
  <rect class="cls-2" x="368" y="24" width="8" height="8"/>
  <rect class="cls-1" x="368" y="32" width="8" height="8"/>
  <rect class="cls-2" x="368" y="40" width="8" height="8"/>
  <rect class="cls-1" x="368" y="48" width="8" height="4"/>
  <rect class="cls-2" x="376" width="8" height="8"/>
  <rect class="cls-1" x="376" y="8" width="8" height="8"/>
  <rect class="cls-2" x="376" y="16" width="8" height="8"/>
  <rect class="cls-1" x="376" y="24" width="8" height="8"/>
  <rect class="cls-2" x="376" y="32" width="8" height="8"/>
  <rect class="cls-1" x="376" y="40" width="8" height="8"/>
  <rect class="cls-2" x="376" y="48" width="8" height="4"/>
  <rect class="cls-1" x="384" width="8" height="8"/>
  <rect class="cls-2" x="384" y="8" width="8" height="8"/>
  <rect class="cls-1" x="384" y="16" width="8" height="8"/>
  <rect class="cls-2" x="384" y="24" width="8" height="8"/>
  <rect class="cls-1" x="384" y="32" width="8" height="8"/>
  <rect class="cls-2" x="384" y="40" width="8" height="8"/>
  <rect class="cls-1" x="384" y="48" width="8" height="4"/>
  <rect class="cls-2" x="392" width="8" height="8"/>
  <rect class="cls-1" x="392" y="8" width="8" height="8"/>
  <rect class="cls-2" x="392" y="16" width="8" height="8"/>
  <rect class="cls-1" x="392" y="24" width="8" height="8"/>
  <rect class="cls-2" x="392" y="32" width="8" height="8"/>
  <rect class="cls-1" x="392" y="40" width="8" height="8"/>
  <rect class="cls-2" x="392" y="48" width="8" height="4"/>
  <rect class="cls-1" x="400" width="8" height="8"/>
  <rect class="cls-2" x="400" y="8" width="8" height="8"/>
  <rect class="cls-1" x="400" y="16" width="8" height="8"/>
  <rect class="cls-2" x="400" y="24" width="8" height="8"/>
  <rect class="cls-1" x="400" y="32" width="8" height="8"/>
  <rect class="cls-2" x="400" y="40" width="8" height="8"/>
  <rect class="cls-1" x="400" y="48" width="8" height="4"/>
  <rect class="cls-2" x="408" width="8" height="8"/>
  <rect class="cls-1" x="408" y="8" width="8" height="8"/>
  <rect class="cls-2" x="408" y="16" width="8" height="8"/>
  <rect class="cls-1" x="408" y="24" width="8" height="8"/>
  <rect class="cls-2" x="408" y="32" width="8" height="8"/>
  <rect class="cls-1" x="408" y="40" width="8" height="8"/>
  <rect class="cls-2" x="408" y="48" width="8" height="4"/>
  <rect class="cls-1" x="416" width="8" height="8"/>
  <rect class="cls-2" x="416" y="8" width="8" height="8"/>
  <rect class="cls-1" x="416" y="16" width="8" height="8"/>
  <rect class="cls-2" x="416" y="24" width="8" height="8"/>
  <rect class="cls-1" x="416" y="32" width="8" height="8"/>
  <rect class="cls-2" x="416" y="40" width="8" height="8"/>
  <rect class="cls-1" x="416" y="48" width="8" height="4"/>
  <rect class="cls-2" x="424" width="8" height="8"/>
  <rect class="cls-1" x="424" y="8" width="8" height="8"/>
  <rect class="cls-2" x="424" y="16" width="8" height="8"/>
  <rect class="cls-1" x="424" y="24" width="8" height="8"/>
  <rect class="cls-2" x="424" y="32" width="8" height="8"/>
  <rect class="cls-1" x="424" y="40" width="8" height="8"/>
  <rect class="cls-2" x="424" y="48" width="8" height="4"/>
  <rect class="cls-1" x="432" width="8" height="8"/>
  <rect class="cls-2" x="432" y="8" width="8" height="8"/>
  <rect class="cls-1" x="432" y="16" width="8" height="8"/>
  <rect class="cls-2" x="432" y="24" width="8" height="8"/>
  <rect class="cls-1" x="432" y="32" width="8" height="8"/>
  <rect class="cls-2" x="432" y="40" width="8" height="8"/>
  <rect class="cls-1" x="432" y="48" width="8" height="4"/>
  <rect class="cls-2" x="440" width="8" height="8"/>
  <rect class="cls-1" x="440" y="8" width="8" height="8"/>
  <rect class="cls-2" x="440" y="16" width="8" height="8"/>
  <rect class="cls-1" x="440" y="24" width="8" height="8"/>
  <rect class="cls-2" x="440" y="32" width="8" height="8"/>
  <rect class="cls-1" x="440" y="40" width="8" height="8"/>
  <rect class="cls-2" x="440" y="48" width="8" height="4"/>
  <rect class="cls-1" x="448" width="8" height="8"/>
  <rect class="cls-2" x="448" y="8" width="8" height="8"/>
  <rect class="cls-1" x="448" y="16" width="8" height="8"/>
  <rect class="cls-2" x="448" y="24" width="8" height="8"/>
  <rect class="cls-1" x="448" y="32" width="8" height="8"/>
  <rect class="cls-2" x="448" y="40" width="8" height="8"/>
  <rect class="cls-1" x="448" y="48" width="8" height="4"/>
  <rect class="cls-2" x="456" width="8" height="8"/>
  <rect class="cls-1" x="456" y="8" width="8" height="8"/>
  <rect class="cls-2" x="456" y="16" width="8" height="8"/>
  <rect class="cls-1" x="456" y="24" width="8" height="8"/>
  <rect class="cls-2" x="456" y="32" width="8" height="8"/>
  <rect class="cls-1" x="456" y="40" width="8" height="8"/>
  <rect class="cls-2" x="456" y="48" width="8" height="4"/>
  <rect class="cls-1" x="464" width="8" height="8"/>
  <rect class="cls-2" x="464" y="8" width="8" height="8"/>
  <rect class="cls-1" x="464" y="16" width="8" height="8"/>
  <rect class="cls-2" x="464" y="24" width="8" height="8"/>
  <rect class="cls-1" x="464" y="32" width="8" height="8"/>
  <rect class="cls-2" x="464" y="40" width="8" height="8"/>
  <rect class="cls-1" x="464" y="48" width="8" height="4"/>
  <rect class="cls-2" x="472" width="8" height="8"/>
  <rect class="cls-1" x="472" y="8" width="8" height="8"/>
  <rect class="cls-2" x="472" y="16" width="8" height="8"/>
  <rect class="cls-1" x="472" y="24" width="8" height="8"/>
  <rect class="cls-2" x="472" y="32" width="8" height="8"/>
  <rect class="cls-1" x="472" y="40" width="8" height="8"/>
  <rect class="cls-2" x="472" y="48" width="8" height="4"/>
  <rect class="cls-1" x="480" width="8" height="8"/>
  <rect class="cls-2" x="480" y="8" width="8" height="8"/>
  <rect class="cls-1" x="480" y="16" width="8" height="8"/>
  <rect class="cls-2" x="480" y="24" width="8" height="8"/>
  <rect class="cls-1" x="480" y="32" width="8" height="8"/>
  <rect class="cls-2" x="480" y="40" width="8" height="8"/>
  <rect class="cls-1" x="480" y="48" width="8" height="4"/>
  <rect class="cls-2" x="488" width="8" height="8"/>
  <rect class="cls-1" x="488" y="8" width="8" height="8"/>
  <rect class="cls-2" x="488" y="16" width="8" height="8"/>
  <rect class="cls-1" x="488" y="24" width="8" height="8"/>
  <rect class="cls-2" x="488" y="32" width="8" height="8"/>
  <rect class="cls-1" x="488" y="40" width="8" height="8"/>
  <rect class="cls-2" x="488" y="48" width="8" height="4"/>
  <rect class="cls-1" x="496" width="8" height="8"/>
  <rect class="cls-2" x="496" y="8" width="8" height="8"/>
  <rect class="cls-1" x="496" y="16" width="8" height="8"/>
  <rect class="cls-2" x="496" y="24" width="8" height="8"/>
  <rect class="cls-1" x="496" y="32" width="8" height="8"/>
  <rect class="cls-2" x="496" y="40" width="8" height="8"/>
  <rect class="cls-1" x="496" y="48" width="8" height="4"/>
  <rect class="cls-2" x="504" width="8" height="8"/>
  <rect class="cls-1" x="504" y="8" width="8" height="8"/>
  <rect class="cls-2" x="504" y="16" width="8" height="8"/>
  <rect class="cls-1" x="504" y="24" width="8" height="8"/>
  <rect class="cls-2" x="504" y="32" width="8" height="8"/>
  <rect class="cls-1" x="504" y="40" width="8" height="8"/>
  <rect class="cls-2" x="504" y="48" width="8" height="4"/>
  <rect class="cls-1" x="512" width="8" height="8"/>
  <rect class="cls-2" x="512" y="8" width="8" height="8"/>
  <rect class="cls-1" x="512" y="16" width="8" height="8"/>
  <rect class="cls-2" x="512" y="24" width="8" height="8"/>
  <rect class="cls-1" x="512" y="32" width="8" height="8"/>
  <rect class="cls-2" x="512" y="40" width="8" height="8"/>
  <rect class="cls-1" x="512" y="48" width="8" height="4"/>
  <rect class="cls-2" x="520" width="8" height="8"/>
  <rect class="cls-1" x="520" y="8" width="8" height="8"/>
  <rect class="cls-2" x="520" y="16" width="8" height="8"/>
  <rect class="cls-1" x="520" y="24" width="8" height="8"/>
  <rect class="cls-2" x="520" y="32" width="8" height="8"/>
  <rect class="cls-1" x="520" y="40" width="8" height="8"/>
  <rect class="cls-2" x="520" y="48" width="8" height="4"/>
  <rect class="cls-1" x="528" width="8" height="8"/>
  <rect class="cls-2" x="528" y="8" width="8" height="8"/>
  <rect class="cls-1" x="528" y="16" width="8" height="8"/>
  <rect class="cls-2" x="528" y="24" width="8" height="8"/>
  <rect class="cls-1" x="528" y="32" width="8" height="8"/>
  <rect class="cls-2" x="528" y="40" width="8" height="8"/>
  <rect class="cls-1" x="528" y="48" width="8" height="4"/>
  <rect class="cls-2" x="536" width="8" height="8"/>
  <rect class="cls-1" x="536" y="8" width="8" height="8"/>
  <rect class="cls-2" x="536" y="16" width="8" height="8"/>
  <rect class="cls-1" x="536" y="24" width="8" height="8"/>
  <rect class="cls-2" x="536" y="32" width="8" height="8"/>
  <rect class="cls-1" x="536" y="40" width="8" height="8"/>
  <rect class="cls-2" x="536" y="48" width="8" height="4"/>
  <rect class="cls-1" x="544" width="8" height="8"/>
  <rect class="cls-2" x="544" y="8" width="8" height="8"/>
  <rect class="cls-1" x="544" y="16" width="8" height="8"/>
  <rect class="cls-2" x="544" y="24" width="8" height="8"/>
  <rect class="cls-1" x="544" y="32" width="8" height="8"/>
  <rect class="cls-2" x="544" y="40" width="8" height="8"/>
  <rect class="cls-1" x="544" y="48" width="8" height="4"/>
  <rect class="cls-2" x="552" width="8" height="8"/>
  <rect class="cls-1" x="552" y="8" width="8" height="8"/>
  <rect class="cls-2" x="552" y="16" width="8" height="8"/>
  <rect class="cls-1" x="552" y="24" width="8" height="8"/>
  <rect class="cls-2" x="552" y="32" width="8" height="8"/>
  <rect class="cls-1" x="552" y="40" width="8" height="8"/>
  <rect class="cls-2" x="552" y="48" width="8" height="4"/>
  <rect class="cls-1" x="560" width="8" height="8"/>
  <rect class="cls-2" x="560" y="8" width="8" height="8"/>
  <rect class="cls-1" x="560" y="16" width="8" height="8"/>
  <rect class="cls-2" x="560" y="24" width="8" height="8"/>
  <rect class="cls-1" x="560" y="32" width="8" height="8"/>
  <rect class="cls-2" x="560" y="40" width="8" height="8"/>
  <rect class="cls-1" x="560" y="48" width="8" height="4"/>
  <rect class="cls-2" x="568" width="8" height="8"/>
  <rect class="cls-1" x="568" y="8" width="8" height="8"/>
  <rect class="cls-2" x="568" y="16" width="8" height="8"/>
  <rect class="cls-1" x="568" y="24" width="8" height="8"/>
  <rect class="cls-2" x="568" y="32" width="8" height="8"/>
  <rect class="cls-1" x="568" y="40" width="8" height="8"/>
  <rect class="cls-2" x="568" y="48" width="8" height="4"/>
  <rect class="cls-1" x="576" width="8" height="8"/>
  <rect class="cls-2" x="576" y="8" width="8" height="8"/>
  <rect class="cls-1" x="576" y="16" width="8" height="8"/>
  <rect class="cls-2" x="576" y="24" width="8" height="8"/>
  <rect class="cls-1" x="576" y="32" width="8" height="8"/>
  <rect class="cls-2" x="576" y="40" width="8" height="8"/>
  <rect class="cls-1" x="576" y="48" width="8" height="4"/>
  <rect class="cls-2" x="584" width="8" height="8"/>
  <rect class="cls-1" x="584" y="8" width="8" height="8"/>
  <rect class="cls-2" x="584" y="16" width="8" height="8"/>
  <rect class="cls-1" x="584" y="24" width="8" height="8"/>
  <rect class="cls-2" x="584" y="32" width="8" height="8"/>
  <rect class="cls-1" x="584" y="40" width="8" height="8"/>
  <rect class="cls-2" x="584" y="48" width="8" height="4"/>
  <rect class="cls-1" x="592" width="8" height="8"/>
  <rect class="cls-2" x="592" y="8" width="8" height="8"/>
  <rect class="cls-1" x="592" y="16" width="8" height="8"/>
  <rect class="cls-2" x="592" y="24" width="8" height="8"/>
  <rect class="cls-1" x="592" y="32" width="8" height="8"/>
  <rect class="cls-2" x="592" y="40" width="8" height="8"/>
  <rect class="cls-1" x="592" y="48" width="8" height="4"/>
  <rect class="cls-2" x="600" width="8" height="8"/>
  <rect class="cls-1" x="600" y="8" width="8" height="8"/>
  <rect class="cls-2" x="600" y="16" width="8" height="8"/>
  <rect class="cls-1" x="600" y="24" width="8" height="8"/>
  <rect class="cls-2" x="600" y="32" width="8" height="8"/>
  <rect class="cls-1" x="600" y="40" width="8" height="8"/>
  <rect class="cls-2" x="600" y="48" width="8" height="4"/>
  <rect class="cls-1" x="608" width="8" height="8"/>
  <rect class="cls-2" x="608" y="8" width="8" height="8"/>
  <rect class="cls-1" x="608" y="16" width="8" height="8"/>
  <rect class="cls-2" x="608" y="24" width="8" height="8"/>
  <rect class="cls-1" x="608" y="32" width="8" height="8"/>
  <rect class="cls-2" x="608" y="40" width="8" height="8"/>
  <rect class="cls-1" x="608" y="48" width="8" height="4"/>
  <rect class="cls-2" x="616" width="8" height="8"/>
  <rect class="cls-1" x="616" y="8" width="8" height="8"/>
  <rect class="cls-2" x="616" y="16" width="8" height="8"/>
  <rect class="cls-1" x="616" y="24" width="8" height="8"/>
  <rect class="cls-2" x="616" y="32" width="8" height="8"/>
  <rect class="cls-1" x="616" y="40" width="8" height="8"/>
  <rect class="cls-2" x="616" y="48" width="8" height="4"/>
  <rect class="cls-1" x="624" width="8" height="8"/>
  <rect class="cls-2" x="624" y="8" width="8" height="8"/>
  <rect class="cls-1" x="624" y="16" width="8" height="8"/>
  <rect class="cls-2" x="624" y="24" width="8" height="8"/>
  <rect class="cls-1" x="624" y="32" width="8" height="8"/>
  <rect class="cls-2" x="624" y="40" width="8" height="8"/>
  <rect class="cls-1" x="624" y="48" width="8" height="4"/>
  <rect class="cls-2" x="632" width="8" height="8"/>
  <rect class="cls-1" x="632" y="8" width="8" height="8"/>
  <rect class="cls-2" x="632" y="16" width="8" height="8"/>
  <rect class="cls-1" x="632" y="24" width="8" height="8"/>
  <rect class="cls-2" x="632" y="32" width="8" height="8"/>
  <rect class="cls-1" x="632" y="40" width="8" height="8"/>
  <rect class="cls-2" x="632" y="48" width="8" height="4"/>
  <rect class="cls-1" x="640" width="8" height="8"/>
  <rect class="cls-2" x="640" y="8" width="8" height="8"/>
  <rect class="cls-1" x="640" y="16" width="8" height="8"/>
  <rect class="cls-2" x="640" y="24" width="8" height="8"/>
  <rect class="cls-1" x="640" y="32" width="8" height="8"/>
  <rect class="cls-2" x="640" y="40" width="8" height="8"/>
  <rect class="cls-1" x="640" y="48" width="8" height="4"/>
  <rect class="cls-2" x="648" width="8" height="8"/>
  <rect class="cls-1" x="648" y="8" width="8" height="8"/>
  <rect class="cls-2" x="648" y="16" width="8" height="8"/>
  <rect class="cls-1" x="648" y="24" width="8" height="8"/>
  <rect class="cls-2" x="648" y="32" width="8" height="8"/>
  <rect class="cls-1" x="648" y="40" width="8" height="8"/>
  <rect class="cls-2" x="648" y="48" width="8" height="4"/>
  <rect class="cls-1" x="656" width="8" height="8"/>
  <rect class="cls-2" x="656" y="8" width="8" height="8"/>
  <rect class="cls-1" x="656" y="16" width="8" height="8"/>
  <rect class="cls-2" x="656" y="24" width="8" height="8"/>
  <rect class="cls-1" x="656" y="32" width="8" height="8"/>
  <rect class="cls-2" x="656" y="40" width="8" height="8"/>
  <rect class="cls-1" x="656" y="48" width="8" height="4"/>
  <rect class="cls-2" x="664" width="8" height="8"/>
  <rect class="cls-1" x="664" y="8" width="8" height="8"/>
  <rect class="cls-2" x="664" y="16" width="8" height="8"/>
  <rect class="cls-1" x="664" y="24" width="8" height="8"/>
  <rect class="cls-2" x="664" y="32" width="8" height="8"/>
  <rect class="cls-1" x="664" y="40" width="8" height="8"/>
  <rect class="cls-2" x="664" y="48" width="8" height="4"/>
  <rect class="cls-1" x="672" width="8" height="8"/>
  <rect class="cls-2" x="672" y="8" width="8" height="8"/>
  <rect class="cls-1" x="672" y="16" width="8" height="8"/>
  <rect class="cls-2" x="672" y="24" width="8" height="8"/>
  <rect class="cls-1" x="672" y="32" width="8" height="8"/>
  <rect class="cls-2" x="672" y="40" width="8" height="8"/>
  <rect class="cls-1" x="672" y="48" width="8" height="4"/>
  <rect class="cls-2" x="680" width="8" height="8"/>
  <rect class="cls-1" x="680" y="8" width="8" height="8"/>
  <rect class="cls-2" x="680" y="16" width="8" height="8"/>
  <rect class="cls-1" x="680" y="24" width="8" height="8"/>
  <rect class="cls-2" x="680" y="32" width="8" height="8"/>
  <rect class="cls-1" x="680" y="40" width="8" height="8"/>
  <rect class="cls-2" x="680" y="48" width="8" height="4"/>
  <rect class="cls-1" x="688" width="8" height="8"/>
  <rect class="cls-2" x="688" y="8" width="8" height="8"/>
  <rect class="cls-1" x="688" y="16" width="8" height="8"/>
  <rect class="cls-2" x="688" y="24" width="8" height="8"/>
  <rect class="cls-1" x="688" y="32" width="8" height="8"/>
  <rect class="cls-2" x="688" y="40" width="8" height="8"/>
  <rect class="cls-1" x="688" y="48" width="8" height="4"/>
  <rect class="cls-2" x="696" width="8" height="8"/>
  <rect class="cls-1" x="696" y="8" width="8" height="8"/>
  <rect class="cls-2" x="696" y="16" width="8" height="8"/>
  <rect class="cls-1" x="696" y="24" width="8" height="8"/>
  <rect class="cls-2" x="696" y="32" width="8" height="8"/>
  <rect class="cls-1" x="696" y="40" width="8" height="8"/>
  <rect class="cls-2" x="696" y="48" width="8" height="4"/>
  <rect class="cls-1" x="704" width="8" height="8"/>
  <rect class="cls-2" x="704" y="8" width="8" height="8"/>
  <rect class="cls-1" x="704" y="16" width="8" height="8"/>
  <rect class="cls-2" x="704" y="24" width="8" height="8"/>
  <rect class="cls-1" x="704" y="32" width="8" height="8"/>
  <rect class="cls-2" x="704" y="40" width="8" height="8"/>
  <rect class="cls-1" x="704" y="48" width="8" height="4"/>
  <rect class="cls-2" x="712" width="8" height="8"/>
  <rect class="cls-1" x="712" y="8" width="8" height="8"/>
  <rect class="cls-2" x="712" y="16" width="8" height="8"/>
  <rect class="cls-1" x="712" y="24" width="8" height="8"/>
  <rect class="cls-2" x="712" y="32" width="8" height="8"/>
  <rect class="cls-1" x="712" y="40" width="8" height="8"/>
  <rect class="cls-2" x="712" y="48" width="8" height="4"/>
  <rect class="cls-1" x="720" width="8" height="8"/>
  <rect class="cls-2" x="720" y="8" width="8" height="8"/>
  <rect class="cls-1" x="720" y="16" width="8" height="8"/>
  <rect class="cls-2" x="720" y="24" width="8" height="8"/>
  <rect class="cls-1" x="720" y="32" width="8" height="8"/>
  <rect class="cls-2" x="720" y="40" width="8" height="8"/>
  <rect class="cls-1" x="720" y="48" width="8" height="4"/>
  <rect class="cls-2" x="728" width="8" height="8"/>
  <rect class="cls-1" x="728" y="8" width="8" height="8"/>
  <rect class="cls-2" x="728" y="16" width="8" height="8"/>
  <rect class="cls-1" x="728" y="24" width="8" height="8"/>
  <rect class="cls-2" x="728" y="32" width="8" height="8"/>
  <rect class="cls-1" x="728" y="40" width="8" height="8"/>
  <rect class="cls-2" x="728" y="48" width="8" height="4"/>
  <rect class="cls-1" x="736" width="8" height="8"/>
  <rect class="cls-2" x="736" y="8" width="8" height="8"/>
  <rect class="cls-1" x="736" y="16" width="8" height="8"/>
  <rect class="cls-2" x="736" y="24" width="8" height="8"/>
  <rect class="cls-1" x="736" y="32" width="8" height="8"/>
  <rect class="cls-2" x="736" y="40" width="8" height="8"/>
  <rect class="cls-1" x="736" y="48" width="8" height="4"/>
  <rect class="cls-2" x="744" width="8" height="8"/>
  <rect class="cls-1" x="744" y="8" width="8" height="8"/>
  <rect class="cls-2" x="744" y="16" width="8" height="8"/>
  <rect class="cls-1" x="744" y="24" width="8" height="8"/>
  <rect class="cls-2" x="744" y="32" width="8" height="8"/>
  <rect class="cls-1" x="744" y="40" width="8" height="8"/>
  <rect class="cls-2" x="744" y="48" width="8" height="4"/>
  <rect class="cls-1" x="752" width="8" height="8"/>
  <rect class="cls-2" x="752" y="8" width="8" height="8"/>
  <rect class="cls-1" x="752" y="16" width="8" height="8"/>
  <rect class="cls-2" x="752" y="24" width="8" height="8"/>
  <rect class="cls-1" x="752" y="32" width="8" height="8"/>
  <rect class="cls-2" x="752" y="40" width="8" height="8"/>
  <rect class="cls-1" x="752" y="48" width="8" height="4"/>
  <rect class="cls-2" x="760" width="8" height="8"/>
  <rect class="cls-1" x="760" y="8" width="8" height="8"/>
  <rect class="cls-2" x="760" y="16" width="8" height="8"/>
  <rect class="cls-1" x="760" y="24" width="8" height="8"/>
  <rect class="cls-2" x="760" y="32" width="8" height="8"/>
  <rect class="cls-1" x="760" y="40" width="8" height="8"/>
  <rect class="cls-2" x="760" y="48" width="8" height="4"/>
  <rect class="cls-1" x="768" width="8" height="8"/>
  <rect class="cls-2" x="768" y="8" width="8" height="8"/>
  <rect class="cls-1" x="768" y="16" width="8" height="8"/>
  <rect class="cls-2" x="768" y="24" width="8" height="8"/>
  <rect class="cls-1" x="768" y="32" width="8" height="8"/>
  <rect class="cls-2" x="768" y="40" width="8" height="8"/>
  <rect class="cls-1" x="768" y="48" width="8" height="4"/>
  <rect class="cls-2" x="776" width="8" height="8"/>
  <rect class="cls-1" x="776" y="8" width="8" height="8"/>
  <rect class="cls-2" x="776" y="16" width="8" height="8"/>
  <rect class="cls-1" x="776" y="24" width="8" height="8"/>
  <rect class="cls-2" x="776" y="32" width="8" height="8"/>
  <rect class="cls-1" x="776" y="40" width="8" height="8"/>
  <rect class="cls-2" x="776" y="48" width="8" height="4"/>
  <rect class="cls-1" x="784" width="8" height="8"/>
  <rect class="cls-2" x="784" y="8" width="8" height="8"/>
  <rect class="cls-1" x="784" y="16" width="8" height="8"/>
  <rect class="cls-2" x="784" y="24" width="8" height="8"/>
  <rect class="cls-1" x="784" y="32" width="8" height="8"/>
  <rect class="cls-2" x="784" y="40" width="8" height="8"/>
  <rect class="cls-1" x="784" y="48" width="8" height="4"/>
  <rect class="cls-2" x="792" width="8" height="8"/>
  <rect class="cls-1" x="792" y="8" width="8" height="8"/>
  <rect class="cls-2" x="792" y="16" width="8" height="8"/>
  <rect class="cls-1" x="792" y="24" width="8" height="8"/>
  <rect class="cls-2" x="792" y="32" width="8" height="8"/>
  <rect class="cls-1" x="792" y="40" width="8" height="8"/>
  <rect class="cls-2" x="792" y="48" width="8" height="4"/>
  </svg>