<svg id="S_GraphEdEasyEaseIn_Lg_N_D_2x" data-name="S_GraphEdEasyEaseIn_Lg_N_D@2x" xmlns="http://www.w3.org/2000/svg" width="44" height="36" viewBox="0 0 44 36">
  <defs>
    <style>
      .fill {
        fill: #fff;
        fill-rule: evenodd;
        opacity: 0.65;
      }

      
    </style>
  </defs>
  <title>S_GraphEdEasyEaseIn_Lg_N_D@2x</title>
  <path class="fill" d="M39,4H31a1,1,0,0,0-1,1V8H16V7a1,1,0,0,0-1-1H11a1,1,0,0,0-1,1v4a1,1,0,0,0,1,1h4a1,1,0,0,0,1-1V10h7.162c-3.236,2.495-5.122,6.814-6.853,9.948C13.923,24.269,11.863,28,7,28H4.5a0.5,0.5,0,0,0-.5.5v1a0.5,0.5,0,0,0,.5.5H7c6.043,0,8.593-4.619,11.06-9.085C20.592,16.331,22.983,10,29,10h1v3a1,1,0,0,0,1,1h8a1,1,0,0,0,1-1V5A1,1,0,0,0,39,4Z"/>
  </svg>