<svg id="S_GraphEdLinear_Lg_N_D_2x" data-name="S_GraphEdLinear_Lg_N_D@2x" xmlns="http://www.w3.org/2000/svg" width="44" height="36" viewBox="0 0 44 36">
  <defs>
    <style>
      .fill {
        fill: #fff;
        fill-rule: evenodd;
        opacity: 0.65;
      }

      
    </style>
  </defs>
  <title>S_GraphEdLinear_Lg_N_D@2x</title>
  <path class="fill" d="M39.5,8H34V5a1,1,0,0,0-1-1H25a1,1,0,0,0-1,1v7.586L16.586,20H9a1,1,0,0,0-1,1v3H2.5a0.5,0.5,0,0,0-.5.5v1a0.5,0.5,0,0,0,.5.5H8v3a1,1,0,0,0,1,1h8a1,1,0,0,0,1-1V21.414L25.414,14H33a1,1,0,0,0,1-1V10h5.5A0.5,0.5,0,0,0,40,9.5v-1A0.5,0.5,0,0,0,39.5,8Z"/>
  </svg>