<svg id="S_GridGuideOptions_Sm_N_D_2x" data-name="S_GridGuideOptions_Sm_N_D@2x" xmlns="http://www.w3.org/2000/svg" width="32" height="32" viewBox="0 0 32 32">
  <defs>
    <style>
      .fill {
        fill: #fff;
        fill-rule: evenodd;
        opacity: 0.65;
      }

      
    </style>
  </defs>
  <title>S_GridGuideOptions_Sm_N_D@2x</title>
  <path class="fill" d="M28.6,26H19.4a0.5,0.5,0,0,0-.367.84L24,32l4.957-5.146A0.5,0.5,0,0,0,28.6,26Z"/>
  <path class="fill" d="M29.5,13H28V5a1,1,0,0,0-1-1H16V2.5A0.5,0.5,0,0,0,15.5,2h-1a0.5,0.5,0,0,0-.5.5V4H3A1,1,0,0,0,2,5v7H0.5a0.5,0.5,0,0,0-.5.5v1a0.5,0.5,0,0,0,.5.5H2v7a1,1,0,0,0,1,1H14v1.5a0.5,0.5,0,0,0,.5.5h1a0.5,0.5,0,0,0,.5-0.5V22H27a1,1,0,0,0,1-1V15h1.5a0.5,0.5,0,0,0,.5-0.5v-1A0.5,0.5,0,0,0,29.5,13ZM26,20H16V18.5a0.5,0.5,0,0,0-.5-0.5h-1a0.5,0.5,0,0,0-.5.5V20H4V14H5.5A0.5,0.5,0,0,0,6,13.5v-1A0.5,0.5,0,0,0,5.5,12H4V6H14V7.5a0.5,0.5,0,0,0,.5.5h1A0.5,0.5,0,0,0,16,7.5V6H26v7H24.5a0.5,0.5,0,0,0-.5.5v1a0.5,0.5,0,0,0,.5.5H26v5Z"/>
  <path class="fill" d="M17.5,12H16V10.5a0.5,0.5,0,0,0-.5-0.5h-1a0.5,0.5,0,0,0-.5.5V12H12.5a0.5,0.5,0,0,0-.5.5v1a0.5,0.5,0,0,0,.5.5H14v1.5a0.5,0.5,0,0,0,.5.5h1a0.5,0.5,0,0,0,.5-0.5V14h1.5a0.5,0.5,0,0,0,.5-0.5v-1A0.5,0.5,0,0,0,17.5,12Z"/>
  </svg>