<svg id="S_GraphEdEasyEase_Lg_N_D_2x" data-name="S_GraphEdEasyEase_Lg_N_D@2x" xmlns="http://www.w3.org/2000/svg" width="44" height="36" viewBox="0 0 44 36">
  <defs>
    <style>
      .fill {
        fill: #fff;
        fill-rule: evenodd;
        opacity: 0.65;
      }

      
    </style>
  </defs>
  <title>S_GraphEdEasyEase_Lg_N_D@2x</title>
  <path class="fill" d="M35,12h4a1,1,0,0,0,1-1V7a1,1,0,0,0-1-1H35a1,1,0,0,0-1,1V8H26V5a1,1,0,0,0-1-1H17a1,1,0,0,0-1,1V8H8V7A1,1,0,0,0,7,6H3A1,1,0,0,0,2,7v4a1,1,0,0,0,1,1H7a1,1,0,0,0,1-1V10h8v0.058c-4.959.593-6.045,5.661-7.009,10.165C7.955,25.062,7.1,28,4,28H2.5a0.5,0.5,0,0,0-.5.5v1a0.5,0.5,0,0,0,.5.5H4c4.943,0,6.007-4.972,6.946-9.358,1.047-4.887,1.953-8.03,5.054-8.561V13a1,1,0,0,0,1,1h8a1,1,0,0,0,1-1V12.081c3.1,0.532,4.007,3.674,5.054,8.561C31.993,25.028,33.057,30,38,30h1.5a0.5,0.5,0,0,0,.5-0.5v-1a0.5,0.5,0,0,0-.5-0.5H38c-3.1,0-3.955-2.938-4.991-7.777-0.965-4.5-2.05-9.572-7.009-10.165V10h8v1A1,1,0,0,0,35,12Z"/>
  </svg>