<svg id="S_GraphEdHold_Lg_N_D_2x" data-name="S_GraphEdHold_Lg_N_D@2x" xmlns="http://www.w3.org/2000/svg" width="44" height="36" viewBox="0 0 44 36">
  <defs>
    <style>
      .fill {
        fill: #fff;
        fill-rule: evenodd;
        opacity: 0.65;
      }

      
    </style>
  </defs>
  <title>S_GraphEdHold_Lg_N_D@2x</title>
  <path class="fill" d="M39.5,8H32V5a1,1,0,0,0-1-1H23a1,1,0,0,0-1,1v8a1,1,0,0,0,1,1h3V24H16V21a1,1,0,0,0-1-1H12V8.5A0.5,0.5,0,0,0,11.5,8h-7a0.5,0.5,0,0,0-.5.5v1a0.5,0.5,0,0,0,.5.5H10V20H7a1,1,0,0,0-1,1v8a1,1,0,0,0,1,1h8a1,1,0,0,0,1-1V26H27.5a0.5,0.5,0,0,0,.5-0.5V14h3a1,1,0,0,0,1-1V10h7.5A0.5,0.5,0,0,0,40,9.5v-1A0.5,0.5,0,0,0,39.5,8Z"/>
  </svg>