<svg id="S_GraphEdAutoBezier_Lg_N_D_2x" data-name="S_GraphEdAutoBezier_Lg_N_D@2x" xmlns="http://www.w3.org/2000/svg" width="44" height="36" viewBox="0 0 44 36">
  <defs>
    <style>
      .fill {
        fill: #fff;
        fill-rule: evenodd;
        opacity: 0.65;
      }

      
    </style>
  </defs>
  <title>S_GraphEdAutoBezier_Lg_N_D@2x</title>
  <path class="fill" d="M37.5,4H32A31.642,31.642,0,0,0,18,6.811V5a1,1,0,0,0-1-1H9A1,1,0,0,0,8,5v8a1,1,0,0,0,1,1H9.927C7.4,18,6.071,23.183,6,29.486A0.51,0.51,0,0,0,6.508,30h1A0.5,0.5,0,0,0,8,29.5q0.1-9.772,4.332-15.5H17a1,1,0,0,0,1-1V9.053Q23.5,6,32,6h5.5A0.5,0.5,0,0,0,38,5.5v-1A0.5,0.5,0,0,0,37.5,4Z"/>
  </svg>