<svg xmlns="http://www.w3.org/2000/svg" data-name="S_GroundPlaneArrow_Sm_N_D@2x" height="32" id="S_GroundPlaneArrow_Sm_N_D_2x" viewBox="0 0 32 32" width="32">
  <defs>
    <style>
      .fill {
        fill: #fff;
        fill-rule: evenodd;
        opacity: 0.65;
      }

      
    </style>
  </defs>
  <path class="fill" d="M28.6,26H19.4a.5.5,0,0,0-.367.84L24,32l4.957-5.146A.5.5,0,0,0,28.6,26Z" />
  <path class="fill" d="M23.279,4H8.721a1,1,0,0,0-.949.684l-5.333,16A1,1,0,0,0,3.387,22H28.613a1,1,0,0,0,.948-1.316l-5.333-16A1,1,0,0,0,23.279,4Zm3.946,16h-9.85l-.15-6h8Zm-2.667-8H17.175l-.15-6h5.533ZM9.442,6h5.533l-.15,6H7.442ZM6.775,14h8l-.15,6H4.775Z" />
  </svg>