<svg id="S_GraphEdSeparate_Lg_N_D_2x" data-name="S_GraphEdSeparate_Lg_N_D@2x" xmlns="http://www.w3.org/2000/svg" width="44" height="36" viewBox="0 0 44 36">
  <defs>
    <style>
      .fill {
        fill: #fff;
        fill-rule: evenodd;
        opacity: 0.65;
      }

      
    </style>
  </defs>
  <title>S_GraphEdSeparate_Lg_N_D@2x</title>
  <path class="fill" d="M16.138,8.542l2.875,4.669a0.082,0.082,0,0,1-.057.143H17.206a0.2,0.2,0,0,1-.213-0.114c-0.683-1.167-1.381-2.349-2.079-3.573H14.9c-0.641,1.2-1.31,2.406-1.979,3.573a0.165,0.165,0,0,1-.17.114H11.084c-0.1,0-.1-0.085-0.057-0.143l2.79-4.556L11.084,4.128A0.078,0.078,0,0,1,11.155,4h1.737a0.155,0.155,0,0,1,.171.1c0.626,1.182,1.338,2.35,1.979,3.531h0.014c0.626-1.182,1.3-2.35,1.95-3.517A0.161,0.161,0,0,1,17.177,4h1.595c0.085,0,.1.057,0.057,0.143Z"/>
  <path class="fill" d="M26.914,12.774a0.077,0.077,0,0,1,.071-0.128h1.723a0.12,0.12,0,0,1,.128.071c1.509,2.933,1.993,3.83,2.192,4.313,0.228-.5.683-1.437,2.121-4.3a0.092,0.092,0,0,1,.114-0.086h1.666c0.071,0,.085.043,0.057,0.114L31.9,18.271a0.742,0.742,0,0,0-.114.427v3.175a0.1,0.1,0,0,1-.128.128H30.2c-0.114,0-.143-0.043-0.143-0.128V18.641a0.686,0.686,0,0,0-.1-0.413Z"/>
  <path class="fill" d="M20.7,30a0.1,0.1,0,0,1-.114-0.114V28.933a0.3,0.3,0,0,1,.043-0.171l4.94-6.577H20.8c-0.071,0-.114-0.015-0.1-0.1l0.213-1.324a0.115,0.115,0,0,1,.128-0.114h6.62a0.071,0.071,0,0,1,.085.086v1.024a0.286,0.286,0,0,1-.071.2l-4.854,6.492h5.1c0.071,0,.1.043,0.071,0.128l-0.228,1.31a0.109,0.109,0,0,1-.128.114H20.7Z"/>
  <rect class="fill" x="4" y="8" width="6" height="2" rx="0.5" ry="0.5"/>
  <rect class="fill" x="20" y="8" width="22" height="2" rx="0.5" ry="0.5"/>
  <rect class="fill" x="35" y="16" width="7" height="2" rx="0.5" ry="0.5"/>
  <rect class="fill" x="28" y="24" width="14" height="2" rx="0.5" ry="0.5"/>
  <path class="fill" d="M26,16.507a0.511,0.511,0,0,0-.515-0.5c-8.533.087-13.678,2.341-16.779,5.016A8.278,8.278,0,0,1,8.02,20.4a6.88,6.88,0,0,1-1.991-3.962A0.493,0.493,0,0,0,5.534,16H4.525a0.5,0.5,0,0,0-.5.54,8.814,8.814,0,0,0,2.519,5.209q0.347,0.358.732,0.685A13.147,13.147,0,0,0,4.042,29.45a0.5,0.5,0,0,0,.5.55h1a0.5,0.5,0,0,0,.5-0.443A10.929,10.929,0,0,1,8.908,23.59c2.618,1.542,6.159,2.349,10.576,2.407A0.511,0.511,0,0,0,20,25.491v-1A0.5,0.5,0,0,0,19.5,24a20.674,20.674,0,0,1-9.038-1.844C13.3,19.929,17.93,18.081,25.5,18a0.5,0.5,0,0,0,.5-0.5v-1Z"/>
  </svg>