<?xml version="1.0" encoding="UTF-8"?>
<svg id="Icons" xmlns="http://www.w3.org/2000/svg" width="24" height="24" viewBox="0 0 24 24">
  <defs>
    <style>
      .cls-1 {
        fill: #008f88;
        stroke-width: 0px;
      }
    </style>
  </defs>
  <path class="cls-1" d="M22,7.5v-1c0-.27614-.22386-.5-.5-.5h-3.5v-3.5c0-.27614-.22386-.5-.5-.5h-1c-.27614,0-.5.22386-.5.5v3.5h-8v-3.5c0-.27614-.22386-.5-.5-.5h-1c-.27614,0-.5.22386-.5.5v3.5h-3.5c-.27614,0-.5.22386-.5.5v1c0,.27614.22386.5.5.5h3.5v8h-3.5c-.27614,0-.5.22386-.5.5v1c0,.27614.22386.5.5.5h3.5v3.5c0,.27614.22386.5.5.5h1c.27614,0,.5-.22386.5-.5v-3.5h8v3.5c0,.27614.22386.5.5.5h1c.27614,0,.5-.22386.5-.5v-3.5h3.5c.27614,0,.5-.22386.5-.5v-1c0-.27614-.22386-.5-.5-.5h-3.5v-8h3.5c.27614,0,.5-.22386.5-.5ZM16,16h-8v-8h8v8Z"/>
</svg>