<svg id="S_GuideLayer_Xs_N_D_2x" data-name="S_GuideLayer_Xs_N_D@2x" xmlns="http://www.w3.org/2000/svg" width="26" height="26" viewBox="0 0 26 26">
  <defs>
    <style>
      .cls-1 {
        fill: #4affff;
        opacity: 0.851;
      }

      
    </style>
  </defs>
  <title>S_GuideLayer_Xs_N_D@2x</title>
  <path class="cls-1" d="M22,7.5v-1A0.5,0.5,0,0,0,21.5,6H18V2.5A0.5,0.5,0,0,0,17.5,2h-1a0.5,0.5,0,0,0-.5.5V6H8V2.5A0.5,0.5,0,0,0,7.5,2h-1a0.5,0.5,0,0,0-.5.5V6H2.5a0.5,0.5,0,0,0-.5.5v1a0.5,0.5,0,0,0,.5.5H6v8H2.5a0.5,0.5,0,0,0-.5.5v1a0.5,0.5,0,0,0,.5.5H6v3.5a0.5,0.5,0,0,0,.5.5h1A0.5,0.5,0,0,0,8,21.5V18h8v3.5a0.5,0.5,0,0,0,.5.5h1a0.5,0.5,0,0,0,.5-0.5V18h3.5a0.5,0.5,0,0,0,.5-0.5v-1a0.5,0.5,0,0,0-.5-0.5H18V8h3.5A0.5,0.5,0,0,0,22,7.5ZM16,16H8V8h8v8Z"/>
  </svg>