<?xml version="1.0" encoding="UTF-8"?>
<svg id="Icons" xmlns="http://www.w3.org/2000/svg" width="26" height="26" viewBox="0 0 26 26">
  <defs>
    <style>
      .background, .fill {
        opacity: .65;
      }

      .fill {
        fill: #fff;
      }
    </style>
  </defs>
  <path class="fill" d="M17.919,8.081c1.25,1.264,2.025,3,2.025,4.919,0,3.866-3.134,7-7,7-1.919,0-3.655-.775-4.919-2.025l9.894-9.894Z"/>
  <path class="fill" d="M2,24l6.025-6.025c-1.283-1.269-2.081-3.028-2.081-4.975,0-3.866,3.134-7,7-7,1.947,0,3.706,.798,4.975,2.081l6.081-6.081H3c-.552,0-1,.448-1,1V24Z"/>
  <path class="background" d="M8.025,17.975c-1.283-1.269-2.081-3.028-2.081-4.975,0-3.866,3.134-7,7-7,1.947,0,3.706,.798,4.975,2.081l-9.894,9.894Z"/>
</svg>