<svg xmlns="http://www.w3.org/2000/svg" width="26" height="26" viewBox="0 0 26 26">
  <defs>
    <style>
      .fill {
        fill: #b9b9b9;
      }
    </style>
  </defs>
  <g id="Layer_1" data-name="Layer 1">
    <path class="fill" d="M14,7a2,2,0,1,1-2-2A2,2,0,0,1,14,7Zm1,11.143c0,.829-1,.857-1,.857H9.714s-1-.028-1-.857,1-.857,1-.857H10V11.714H9.714s-1-.028-1-.857,1-.857,1-.857h3.658a.343.343,0,0,1,.342.343v6.943H14S15,17.313,15,18.143Z"/>
    <path class="fill" d="M12,24A12,12,0,1,1,24,12,12,12,0,0,1,12,24ZM22,12A10,10,0,1,0,12,22,10,10,0,0,0,22,12Z"/>
  </g>
</svg>
