<?xml version="1.0" encoding="UTF-8"?>
<svg id="Icons" xmlns="http://www.w3.org/2000/svg" width="30" height="30" viewBox="0 0 30 30">
  <defs>
    <style>
      .fill {
        fill: #fff;
      }

      .fill, .background {
        opacity: .65;
      }
    </style>
  </defs>
  <path class="fill" d="M28,7.5v-1c0-3.58411-2.91589-6.5-6.5-6.5h-5c-.51697,0-1.01758.06708-1.5.18164-.48242-.11456-.98303-.18164-1.5-.18164h-5C4.91589,0,2,2.91589,2,6.5v1c0,2.69879,1.65302,5.01862,4,6v2.99994c-2.34698.98145-4,3.30127-4,6.00006v1c0,3.58411,2.91589,6.5,6.5,6.5h5c.51697,0,1.01758-.06708,1.5-.18164.48242.11456.98303.18164,1.5.18164h5c3.58411,0,6.5-2.91589,6.5-6.5v-1c0-2.69879-1.65302-5.01862-4-6.00006v-2.99994c2.34698-.98138,4-3.30121,4-6ZM21.5,18.79999c2.04016,0,3.70001,1.65979,3.70001,3.70001v1c0,2.04016-1.65985,3.70001-3.70001,3.70001h-5c-.53485,0-1.04047-.11938-1.5-.32452-.45953.20514-.96515.32452-1.5.32452h-5c-2.04016,0-3.70001-1.65985-3.70001-3.70001v-1c0-2.04022,1.65985-3.70001,3.70001-3.70001h.29999v-7.59998h-.29999c-2.04016,0-3.70001-1.65985-3.70001-3.70001v-1c0-2.04022,1.65985-3.70001,3.70001-3.70001h5c.53485,0,1.04047.11938,1.5.32446.45953-.20508.96515-.32446,1.5-.32446h5c2.04016,0,3.70001,1.65979,3.70001,3.70001v1c0,2.04016-1.65985,3.70001-3.70001,3.70001h-.29999v7.59998h.29999Z"/>
  <path class="background" d="M21.5,11.20001c2.04016,0,3.70001-1.65985,3.70001-3.70001v-1c0-2.04022-1.65985-3.70001-3.70001-3.70001h-5c-.53485,0-1.04047.11938-1.5.32446-.45953-.20508-.96515-.32446-1.5-.32446h-5c-2.04016,0-3.70001,1.65979-3.70001,3.70001v1c0,2.04016,1.65985,3.70001,3.70001,3.70001h.29999v7.59998h-.29999c-2.04016,0-3.70001,1.65979-3.70001,3.70001v1c0,2.04016,1.65985,3.70001,3.70001,3.70001h5c.53485,0,1.04047-.11938,1.5-.32452.45953.20514.96515.32452,1.5.32452h5c2.04016,0,3.70001-1.65985,3.70001-3.70001v-1c0-2.04022-1.65985-3.70001-3.70001-3.70001h-.29999v-7.59998h.29999Z"/>
</svg>