<svg xmlns="http://www.w3.org/2000/svg" width="30" height="30" viewBox="0 0 30 30">
  <defs>
    <style>
      .fillPale, .fill {
        opacity: 0.65;
      }

      .fill {
        fill: #fff;
      }
    </style>
  </defs>
  <g id="Icons">
    <path class="fillPale" d="M25.709,17.616l-8.092,8.093a3.7,3.7,0,0,1-5.233,0L4.291,17.617a3.7,3.7,0,0,1,0-5.233l8.092-8.092a3.7,3.7,0,0,1,5.233,0l8.093,8.092a3.7,3.7,0,0,1,0,5.233Z"/>
    <path class="fill" d="M27.688,10.4,19.6,2.311a6.5,6.5,0,0,0-9.193,0L2.311,10.4a6.5,6.5,0,0,0,0,9.193L10.4,27.689a6.5,6.5,0,0,0,9.193,0L27.689,19.6a6.5,6.5,0,0,0,0-9.193Zm-1.979,7.213-8.092,8.093a3.7,3.7,0,0,1-5.233,0L4.291,17.617a3.7,3.7,0,0,1,0-5.233l8.092-8.092a3.7,3.7,0,0,1,5.233,0l8.093,8.092a3.7,3.7,0,0,1,0,5.233Z"/>
  </g>
</svg>
