<svg id="S_KeyframeLinear_Xs_D_D_2x" data-name="S_KeyframeLinear_Xs_D_D@2x" xmlns="http://www.w3.org/2000/svg" width="26" height="26" viewBox="0 0 26 26">
  <defs>
    <style>
      .fill, .fillPale {
        fill: #fff;
      }

      .fill {
        fill-rule: evenodd;
        opacity: 0.65;
      }

      .fillPale {
        opacity: 0.15;
      }

      
    </style>
  </defs>
  <title>S_KeyframeLinear_Xs_D_D@2x</title>
  <path class="fill" d="M13,5.83L19.17,12,13,18.17,6.83,12Zm0-2.414a1,1,0,0,0-.707.293L4.708,11.293a1,1,0,0,0,0,1.414l7.584,7.584a1,1,0,0,0,1.414,0l7.584-7.584a1,1,0,0,0,0-1.414L13.707,3.708A1,1,0,0,0,13,3.416Z"/>
  <rect class="fillPale" x="8.807" y="7.807" width="8.726" height="8.726" transform="translate(-4.748 12.877) rotate(-45)"/>
  </svg>