<svg xmlns="http://www.w3.org/2000/svg" width="30" height="30" viewBox="0 0 30 30">
  <defs>
    <style>
      .fillPale, .fill {
        opacity: 0.65;
      }

      .fill {
        fill: #fff;
      }
    </style>
  </defs>
  <g id="Icons">
    <path class="fillPale" d="M26.283,25.913A3.721,3.721,0,0,1,23.468,27.2H6.532a3.721,3.721,0,0,1-2.815-1.287,3.64,3.64,0,0,1-.855-2.9c.385-2.651,2.348-4.127,3.781-5.205,1.588-1.195,2.145-1.713,2.158-2.765-.013-1.13-.57-1.648-2.158-2.843-1.433-1.078-3.4-2.554-3.781-5.2a3.641,3.641,0,0,1,.855-2.9A3.721,3.721,0,0,1,6.532,2.8H23.468a3.721,3.721,0,0,1,2.815,1.287,3.641,3.641,0,0,1,.855,2.9c-.384,2.65-2.347,4.127-3.78,5.205-1.588,1.194-2.144,1.712-2.157,2.766.013,1.129.57,1.648,2.157,2.842,1.433,1.078,3.4,2.555,3.78,5.205A3.641,3.641,0,0,1,26.283,25.913Z"/>
    <path class="fill" d="M29.909,22.608c-.55-3.793-3.253-5.827-4.867-7.042-.22-.165-.5-.375-.736-.566.236-.191.515-.4.735-.566,1.615-1.215,4.318-3.249,4.868-7.041A6.438,6.438,0,0,0,28.4,2.254,6.521,6.521,0,0,0,23.468,0H6.532A6.519,6.519,0,0,0,1.6,2.255,6.44,6.44,0,0,0,.091,7.4c.55,3.791,3.254,5.824,4.869,7.039.219.165.5.375.735.566-.236.191-.516.4-.735.566C3.345,16.781.641,18.814.091,22.607A6.438,6.438,0,0,0,1.6,27.745,6.519,6.519,0,0,0,6.532,30H23.468A6.521,6.521,0,0,0,28.4,27.746,6.436,6.436,0,0,0,29.909,22.608Zm-3.626,3.305A3.721,3.721,0,0,1,23.468,27.2H6.532a3.721,3.721,0,0,1-2.815-1.287,3.64,3.64,0,0,1-.855-2.9c.385-2.651,2.348-4.127,3.781-5.205,1.588-1.195,2.145-1.713,2.158-2.765-.013-1.13-.57-1.648-2.158-2.843-1.433-1.078-3.4-2.554-3.781-5.2a3.641,3.641,0,0,1,.855-2.9A3.721,3.721,0,0,1,6.532,2.8H23.468a3.721,3.721,0,0,1,2.815,1.287,3.641,3.641,0,0,1,.855,2.9c-.384,2.65-2.347,4.127-3.78,5.205-1.588,1.194-2.144,1.712-2.157,2.766.013,1.129.57,1.648,2.157,2.842,1.433,1.078,3.4,2.555,3.78,5.205A3.641,3.641,0,0,1,26.283,25.913Z"/>
  </g>
</svg>
