<?xml version="1.0" encoding="UTF-8"?>
<svg id="Icons" xmlns="http://www.w3.org/2000/svg" width="24" height="24" viewBox="0 0 24 24">
  <defs>
    <style>
      .fill {
        opacity: .65;
      }

      .fill, .fillPale_2 {
        fill: #fff;
        stroke-width: 0px;
      }

      .fillPale_2 {
        opacity: .15;
      }
    </style>
  </defs>
  <path class="fill" d="M12,5.82959l6.17047,6.17053-6.17047,6.17041-6.17047-6.17053,6.17047-6.17041ZM12,3.41528c-.25592,0-.51184.09766-.70709.29297l-7.58472,7.58472c-.39053.3905-.39053,1.02368,0,1.41418l7.58472,7.58472c.19525.19519.45117.29285.70709.29285s.51184-.09766.70709-.29285l7.58472-7.58472c.39053-.3905.39053-1.02368,0-1.41418l-7.58472-7.58472c-.19525-.19531-.45117-.29297-.70709-.29297Z"/>
  <rect class="fillPale_2" x="7.63684" y="7.6368" width="8.72632" height="8.72641" transform="translate(-4.97056 11.99992) rotate(-44.99972)"/>
</svg>