<svg id="S_KeyNavKey_Xs_N_D_2x" data-name="S_KeyNavKey_Xs_N_D @2x" xmlns="http://www.w3.org/2000/svg" width="26" height="26" viewBox="0 0 26 26">
  <defs>
    <style>
      .fill, .fillPale {
        fill: #fff;
      }

      .fill {
        fill-rule: evenodd;
        opacity: 0.65;
      }

      .fillPale {
        opacity: 0.15;
      }

      
    </style>
  </defs>
  <title>S_KeyNavKey_Xs_N_D @2x</title>
  <path class="fill" d="M13,6.828L19.17,13,13,19.169,6.83,13Zm0-2.414a1,1,0,0,0-.707.293L4.708,12.292a1,1,0,0,0,0,1.414l7.585,7.585a1,1,0,0,0,1.414,0l7.585-7.585a1,1,0,0,0,0-1.414L13.707,4.707A1,1,0,0,0,13,4.414Z"/>
  <rect class="fillPale" x="8.637" y="8.636" width="8.726" height="8.726" transform="translate(-5.384 13) rotate(-45)"/>
  </svg>