<svg id="S_KeyframeBezier_Xs_D_D_2x" data-name="S_KeyframeBezier_Xs_D_D@2x" xmlns="http://www.w3.org/2000/svg" width="26" height="26" viewBox="0 0 26 26">
  <defs>
    <style>
      .fill, .fillPale {
        fill: #fff;
      }

      .fill {
        fill-rule: evenodd;
        opacity: 0.65;
      }

      .fillPale {
        opacity: 0.15;
      }

      
    </style>
  </defs>
  <title>S_KeyframeBezier_Xs_D_D@2x</title>
  <path class="fill" d="M19.673,6a2.739,2.739,0,0,1-1.659,1.175c-1.5.632-4.021,1.69-4.025,5.823,0,4.2,2.534,5.243,4.05,5.865A2.664,2.664,0,0,1,19.68,20H6.31a2.771,2.771,0,0,1,1.642-1.13c1.516-.633,4.054-1.692,4.037-5.879C11.971,8.734,9.422,7.684,7.9,7.056A2.743,2.743,0,0,1,6.321,6H19.673Zm1.8-2H4.5a0.5,0.5,0,0,0-.5.518C4.293,10.767,9.964,7.094,9.989,13,10.013,18.785,4.294,15.2,4,21.482A0.5,0.5,0,0,0,4.5,22H21.475a0.5,0.5,0,0,0,.5-0.518c-0.291-6.345-5.995-2.665-5.988-8.482,0.006-5.725,5.7-2.162,5.988-8.482A0.5,0.5,0,0,0,21.475,4Z"/>
  <path class="fillPale" d="M19.673,6a2.739,2.739,0,0,1-1.659,1.175c-1.5.632-4.021,1.69-4.025,5.823,0,4.2,2.534,5.243,4.05,5.865A2.664,2.664,0,0,1,19.68,20H6.31a2.771,2.771,0,0,1,1.642-1.13c1.516-.633,4.054-1.692,4.037-5.879C11.971,8.734,9.422,7.684,7.9,7.056A2.743,2.743,0,0,1,6.321,6H19.673Z"/>
  </svg>