<svg xmlns="http://www.w3.org/2000/svg" width="30" height="30" viewBox="0 0 30 30">
  <defs>
    <style>
      .fillPale, .fill {
        opacity: 0.65;
      }

      .fill {
        fill: #fff;
      }
    </style>
  </defs>
  <g id="Icons">
    <path class="fillPale" d="M27.2,23.5a3.7,3.7,0,0,1-3.7,3.7H6.5a3.7,3.7,0,0,1-3.7-3.7V6.5A3.7,3.7,0,0,1,6.5,2.8h17a3.7,3.7,0,0,1,3.7,3.7Z"/>
    <path class="fill" d="M23.5,0H6.5A6.508,6.508,0,0,0,0,6.5v17A6.508,6.508,0,0,0,6.5,30h17A6.508,6.508,0,0,0,30,23.5V6.5A6.508,6.508,0,0,0,23.5,0Zm3.7,23.5a3.7,3.7,0,0,1-3.7,3.7H6.5a3.7,3.7,0,0,1-3.7-3.7V6.5A3.7,3.7,0,0,1,6.5,2.8h17a3.7,3.7,0,0,1,3.7,3.7Z"/>
  </g>
</svg>
