<?xml version="1.0" encoding="UTF-8"?>
<svg id="Icons" xmlns="http://www.w3.org/2000/svg" width="30" height="30" viewBox="0 0 30 30">
  <defs>
    <style>
      .fill {
        fill: #fff;
        opacity: .65;
      }
    </style>
  </defs>
  <path class="fill" d="M21.5,24c.27614,0,.5-.22386.5-.5v-1c0-.27614-.22386-.5-.5-.5h-3.5v-14h3.5c.27614,0,.5-.22386.5-.5v-1c0-.27614-.22386-.5-.5-.5h-13c-.27614,0-.5.22386-.5.5v1c0,.27614.22386.5.5.5h3.5v14h-3.5c-.27614,0-.5.22386-.5.5v1c0,.27614.22386.5.5.5h13Z"/>
</svg>