<?xml version="1.0" encoding="UTF-8"?>
<svg id="Icons" xmlns="http://www.w3.org/2000/svg" width="26" height="26" viewBox="0 0 26 26">
  <defs>
    <style>
      .fillPale {
        opacity: .15;
      }

      .fillPale, .fill {
        fill: #fff;
      }

      .fill {
        opacity: .65;
      }
    </style>
  </defs>
  <path class="fill" d="M19.5,6c.27612,0,.5-.22388.5-.5v-1c0-.27618-.22388-.5-.5-.5H6.5c-.27612,0-.5.22382-.5.5v1c0,.27612.22388.5.5.5h3.5v14h-3.5c-.27612,0-.5.22382-.5.5v1c0,.27612.22388.5.5.5h13c.27612,0,.5-.22388.5-.5v-1c0-.27618-.22388-.5-.5-.5h-3.5V6h3.5ZM14,20h-2V6h2v14Z"/>
  <rect class="fillPale" x="12" y="6" width="2" height="14"/>
</svg>