<svg xmlns="http://www.w3.org/2000/svg" width="36" height="36" viewBox="0 0 36 36">
  <defs>
    <style>
      .cls-1, .cls-10, .cls-11, .cls-12, .cls-13, .cls-14, .cls-2, .cls-3, .cls-4, .cls-5, .cls-6, .cls-7, .cls-8, .cls-9 {
        fill: #fff;
        isolation: isolate;
      }

      .cls-1 {
        opacity: 0.1;
      }

      .cls-2 {
        opacity: 0.133;
      }

      .cls-3 {
        opacity: 0.167;
      }

      .cls-4 {
        opacity: 0.2;
      }

      .cls-5 {
        opacity: 0.233;
      }

      .cls-6 {
        opacity: 0.267;
      }

      .cls-7 {
        opacity: 0.367;
      }

      .cls-8 {
        opacity: 0.333;
      }

      .cls-9 {
        opacity: 0.3;
      }

      .cls-10 {
        opacity: 0.4;
      }

      .cls-11 {
        opacity: 0.433;
      }

      .cls-12 {
        opacity: 0.467;
      }

      .cls-13 {
        opacity: 0.5;
      }

      .cls-14 {
        opacity: 0.53;
      }

      .fill {
        fill: #b9b9b9;
      }
    </style>
  </defs>
  <g id="Icons">
    <rect class="cls-1" x="4" y="4" width="2" height="28"/>
    <rect class="cls-2" x="6" y="4" width="2" height="28"/>
    <rect class="cls-3" x="8" y="4" width="2" height="28"/>
    <rect class="cls-4" x="10" y="4" width="2" height="28"/>
    <rect class="cls-5" x="12" y="4" width="2" height="28"/>
    <rect class="cls-6" x="14" y="4" width="2" height="28"/>
    <rect class="cls-7" x="20" y="4" width="2" height="28"/>
    <rect class="cls-8" x="18" y="4" width="2" height="28"/>
    <rect class="cls-9" x="16" y="4" width="2" height="28"/>
    <rect class="cls-10" x="22" y="4" width="2" height="28"/>
    <rect class="cls-11" x="24" y="4" width="2" height="28"/>
    <rect class="cls-12" x="26" y="4" width="2" height="28"/>
    <rect class="cls-13" x="28" y="4" width="2" height="28"/>
    <rect class="cls-14" x="30" y="4" width="2" height="28"/>
    <path class="fill" d="M33,2H3A1,1,0,0,0,2,3V33a1,1,0,0,0,1,1H33a1,1,0,0,0,1-1V3A1,1,0,0,0,33,2ZM32,32H4V4H32Z"/>
  </g>
</svg>
