<svg id="_-_-_-_i_c_o_n_s" data-name="- - - i c o n s" xmlns="http://www.w3.org/2000/svg" width="48" height="48" viewBox="0 0 48 48">
  <defs>
    <style>
      .fill {
        fill: #6e6e6e;
      }
    </style>
  </defs>
  <title>S_Lightbulb_24_N@2x</title>
  <path class="fill" d="M24,11.6c-5.6-.2-10.3,4.2-10.5,9.8,0,.2,0,.4,0,.7,0,3.5,1.7,5.6,3.2,7.5,1.2,1.1,1.9,2.6,2.1,4.2,0,.5,0,1,0,1.4v5.1c0,.7.3,1.4.8,1.8l1.9,1.8c.2.2.5.3.9.3h3.1c.3,0,.6-.1.9-.3l1.9-1.8c.5-.5.8-1.1.8-1.8v-5.8c0-1,.2-2,.7-2.9.9-1.6,2.2-2.9,3.2-4.4,1-1.5,1.5-3.3,1.5-5.1.2-5.6-4.2-10.3-9.8-10.5-.2,0-.4,0-.7,0ZM28.9,27.7c-1,1.1-1.8,2.4-2.4,3.7-.3.9-.5,1.8-.4,2.8h-4.1c0-.6,0-1.2-.1-1.7-.2-.8-.5-1.5-.9-2.2-.6-.9-1.2-1.8-1.9-2.6-1.4-1.7-2.5-3.2-2.5-5.6-.2-3.9,2.8-7.3,6.7-7.5.3,0,.5,0,.8,0,3.9-.2,7.3,2.8,7.5,6.7,0,.3,0,.5,0,.8,0,2.4-1.2,3.9-2.6,5.6Z"/>
  <path class="fill" d="M23.5,1.8h1c.6,0,1,.5,1,1v5.1c0,.6-.5,1-1,1h-1c-.6,0-1-.5-1-1V2.8c0-.6.5-1,1-1Z"/>
  <path class="fill" d="M38.3,21.2h5.1c.6,0,1,.5,1,1v1c0,.6-.5,1-1,1h-5.1c-.6,0-1-.5-1-1v-1c0-.6.5-1,1-1Z"/>
  <path class="fill" d="M4.6,21.2h5.1c.6,0,1,.5,1,1v1c0,.6-.5,1-1,1h-5.1c-.6,0-1-.5-1-1v-1c0-.6.5-1,1-1Z"/>
  <rect class="fill" x="8.7" y="7.6" width="3.1" height="7.2" rx="1" ry="1" transform="translate(-4.9 10.5) rotate(-45)"/>
  <path class="fill" d="M35.2,9.7h5.1c.6,0,1,.5,1,1v1c0,.6-.5,1-1,1h-5.1c-.6,0-1-.5-1-1v-1c0-.6.5-1,1-1Z" transform="translate(3.1 30) rotate(-45)"/>
</svg>