<svg id="S_Locked_Xs_N_2x" data-name="S_Locked_Xs_N@2x" xmlns="http://www.w3.org/2000/svg" width="26" height="26" viewBox="0 0 26 26">
  <defs>
    <style>
      .fill {
        fill-rule: evenodd;
        opacity: 0.65;
        fill: #fff;
      }

      
    </style>
  </defs>
  <title>S_Locked_Xs_N@2x</title>
  <path class="fill" d="M21,10H20V8.25a6.925,6.925,0,0,0-6.958-6.917A7,7,0,0,0,6,8.25V10H5a1,1,0,0,0-1,1V21a1,1,0,0,0,1,1H21a1,1,0,0,0,1-1V11A1,1,0,0,0,21,10Zm-6.424,6.727v1.909a1,1,0,0,1-1,1H12.394a1,1,0,0,1-1-1V16.727A2.764,2.764,0,0,1,10.4,14.7a2.6,2.6,0,0,1,5.2,0A2.573,2.573,0,0,1,14.576,16.727ZM8.506,10V8.254a4.37,4.37,0,0,1,4.543-4.417,4.37,4.37,0,0,1,4.543,4.417V10Z"/>
  </svg>