<?xml version="1.0" encoding="UTF-8"?>
<svg id="Icons" xmlns="http://www.w3.org/2000/svg" width="26" height="26" viewBox="0 0 26 26">
  <defs>
    <style>
      .fill {
        fill: #fff;
        opacity: .65;
      }
    </style>
  </defs>
  <path class="fill" d="M23,2H3c-.552,0-1,.448-1,1V23c0,.552,.448,1,1,1H23c.552,0,1-.448,1-1V3c0-.552-.448-1-1-1Zm-1,20H4V11.219c1.847,0,3.695-.705,5.104-2.115,1.41-1.409,2.114-3.257,2.114-5.104h10.781V22Z"/>
  <path class="fill" d="M17.499,6.887l-4.461-1.264c-.105,.603-.268,1.183-.482,1.739l4.452,1.261c.266,.075,.542-.079,.617-.345l.219-.774c.075-.266-.079-.542-.345-.617Z"/>
  <path class="fill" d="M15.838,14.424l-4.667-4.667c-.416,.527-.883,1.002-1.401,1.428l4.653,4.653c.195,.195,.512,.195,.707,0l.707-.707c.195-.195,.195-.512,0-.707Z"/>
  <path class="fill" d="M5.527,13.14l1.235,4.401c.075,.266,.351,.421,.616,.346l.963-.27c.266-.075,.421-.351,.346-.616l-1.234-4.395c-.611,.25-1.259,.421-1.927,.535Z"/>
</svg>