<svg id="S_MasterFrameblend_Md_N_D_2x" data-name="S_MasterFrameblend_Md_N_D@2x" xmlns="http://www.w3.org/2000/svg" width="36" height="36" viewBox="0 0 36 36">
  <defs>
    <style>
      .fill {
        fill: #fff;
        fill-rule: evenodd;
        opacity: 0.65;
      }

      
    </style>
  </defs>
  <title>S_MasterFrameblend_Md_N_D@2x</title>
  <path class="fill" d="M12,5V25a1,1,0,0,0,1,1H31a1,1,0,0,0,1-1V5a1,1,0,0,0-1-1H13A1,1,0,0,0,12,5Zm4,2.5a0.5,0.5,0,0,1-.5.5h-1A0.5,0.5,0,0,1,14,7.5v-1A0.5,0.5,0,0,1,14.5,6h1a0.5,0.5,0,0,1,.5.5v1ZM25.5,16h-7a0.5,0.5,0,0,1-.5-0.5v-1a0.5,0.5,0,0,1,.5-0.5h7a0.5,0.5,0,0,1,.5.5v1A0.5,0.5,0,0,1,25.5,16ZM30,7.5a0.5,0.5,0,0,1-.5.5h-1A0.5,0.5,0,0,1,28,7.5v-1A0.5,0.5,0,0,1,28.5,6h1a0.5,0.5,0,0,1,.5.5v1Zm-14,4a0.5,0.5,0,0,1-.5.5h-1a0.5,0.5,0,0,1-.5-0.5v-1a0.5,0.5,0,0,1,.5-0.5h1a0.5,0.5,0,0,1,.5.5v1Zm14,0a0.5,0.5,0,0,1-.5.5h-1a0.5,0.5,0,0,1-.5-0.5v-1a0.5,0.5,0,0,1,.5-0.5h1a0.5,0.5,0,0,1,.5.5v1Zm-14,4a0.5,0.5,0,0,1-.5.5h-1a0.5,0.5,0,0,1-.5-0.5v-1a0.5,0.5,0,0,1,.5-0.5h1a0.5,0.5,0,0,1,.5.5v1Zm14,0a0.5,0.5,0,0,1-.5.5h-1a0.5,0.5,0,0,1-.5-0.5v-1a0.5,0.5,0,0,1,.5-0.5h1a0.5,0.5,0,0,1,.5.5v1Zm-14,4a0.5,0.5,0,0,1-.5.5h-1a0.5,0.5,0,0,1-.5-0.5v-1a0.5,0.5,0,0,1,.5-0.5h1a0.5,0.5,0,0,1,.5.5v1Zm14,0a0.5,0.5,0,0,1-.5.5h-1a0.5,0.5,0,0,1-.5-0.5v-1a0.5,0.5,0,0,1,.5-0.5h1a0.5,0.5,0,0,1,.5.5v1Zm-14,4a0.5,0.5,0,0,1-.5.5h-1a0.5,0.5,0,0,1-.5-0.5v-1a0.5,0.5,0,0,1,.5-0.5h1a0.5,0.5,0,0,1,.5.5v1Zm14,0a0.5,0.5,0,0,1-.5.5h-1a0.5,0.5,0,0,1-.5-0.5v-1a0.5,0.5,0,0,1,.5-0.5h1a0.5,0.5,0,0,1,.5.5v1Z"/>
  <path class="fill" d="M22,28v1.5a0.5,0.5,0,0,1-.5.5h-1a0.5,0.5,0,0,1-.5-0.5V28H10V10H5a1,1,0,0,0-1,1V31a1,1,0,0,0,1,1H23a1,1,0,0,0,1-1V28H22ZM8,29.5a0.5,0.5,0,0,1-.5.5h-1A0.5,0.5,0,0,1,6,29.5v-1A0.5,0.5,0,0,1,6.5,28h1a0.5,0.5,0,0,1,.5.5v1Zm0-4a0.5,0.5,0,0,1-.5.5h-1A0.5,0.5,0,0,1,6,25.5v-1A0.5,0.5,0,0,1,6.5,24h1a0.5,0.5,0,0,1,.5.5v1Zm0-4a0.5,0.5,0,0,1-.5.5h-1A0.5,0.5,0,0,1,6,21.5v-1A0.5,0.5,0,0,1,6.5,20h1a0.5,0.5,0,0,1,.5.5v1Zm0-4a0.5,0.5,0,0,1-.5.5h-1A0.5,0.5,0,0,1,6,17.5v-1A0.5,0.5,0,0,1,6.5,16h1a0.5,0.5,0,0,1,.5.5v1Zm0-4a0.5,0.5,0,0,1-.5.5h-1A0.5,0.5,0,0,1,6,13.5v-1A0.5,0.5,0,0,1,6.5,12h1a0.5,0.5,0,0,1,.5.5v1Z"/>
  </svg>