<svg id="S_MasterDraft3dOff_Md_N_D_2x" data-name="S_MasterDraft3dOff_Md_N_D@2x" xmlns="http://www.w3.org/2000/svg" width="36" height="36" viewBox="0 0 36 36">
  <defs>
    <style>
      .fill {
        fill: #fff;
        fill-rule: evenodd;
        opacity: 0.65;
      }

      
    </style>
  </defs>
  <title>S_MasterDraft3dOff_Md_N_D@2x</title>
  <path class="fill" d="M22.042,11.719l-9.261,5.051A1.5,1.5,0,0,0,12,18.087V28.231a1.5,1.5,0,0,0,.879,1.366l9.293,4.224a2,2,0,0,0,1.655,0L33.121,29.6A1.5,1.5,0,0,0,34,28.231V18.087a1.5,1.5,0,0,0-.782-1.317l-9.261-5.051A2,2,0,0,0,22.042,11.719Zm8.972,6.127L23,21.1l-7.853-3.34L23,13.475ZM14,19.442l8,3.4v8.7l-8-3.636V19.442Zm10,12.1v-8.7L32,19.6v8.307Z"/>
  <path class="fill" d="M18,9H13.9a4.969,4.969,0,0,0-.729-1.757L15,5.414A1,1,0,0,0,13.586,4L11.757,5.829A4.97,4.97,0,0,0,10,5.1V1A1,1,0,0,0,8,1V5.1a4.97,4.97,0,0,0-1.757.729L4.414,4A1,1,0,0,0,3,5.414L4.829,7.243A4.969,4.969,0,0,0,4.1,9H1a1,1,0,0,0,0,2H4.1a4.971,4.971,0,0,0,.729,1.757L3,14.586A1,1,0,0,0,4.414,16l1.829-1.829A4.973,4.973,0,0,0,8,14.9V19a1,1,0,0,0,2,0V14.9A5.006,5.006,0,0,0,13.9,11H18A1,1,0,0,0,18,9Z"/>
  </svg>