<svg id="S_MasterAutoStopwatch_Md_N_D_2x" data-name="S_MasterAutoStopwatch_Md_N_D@2x" xmlns="http://www.w3.org/2000/svg" width="36" height="36" viewBox="0 0 36 36">
  <defs>
    <style>
      .fill, .fillPale {
        fill: #fff;
      }

      .fill {
        fill-rule: evenodd;
        opacity: 0.65;
      }

      .fillPale {
        opacity: 0.15;
      }

      
    </style>
  </defs>
  <title>S_MasterAutoStopwatch_Md_N_D@2x</title>
  <path class="fill" d="M25.5,10.951A10.992,10.992,0,0,0,19,8.05V6h2.5A0.5,0.5,0,0,0,22,5.5v-1A0.5,0.5,0,0,0,21.5,4h-7a0.5,0.5,0,0,0-.5.5v1a0.5,0.5,0,0,0,.5.5H17V8.049a10.951,10.951,0,0,0-5.546,2.125L10.28,8.962l0.4-.4a0.5,0.5,0,0,0,0-.707L9.975,7.146a0.5,0.5,0,0,0-.707,0L7.146,9.268a0.5,0.5,0,0,0,0,.707l0.708,0.707a0.5,0.5,0,0,0,.707,0l0.3-.305,1.095,1.132A10.993,10.993,0,1,0,25.5,10.951ZM18,27.991a9,9,0,1,1,9-9A9,9,0,0,1,18,27.991Z"/>
  <circle class="fillPale" cx="18" cy="18.991" r="9"/>
  </svg>