<svg xmlns="http://www.w3.org/2000/svg" data-name="S_MasterShy_Md_N_D@2x" height="36" id="S_MasterShy_Md_N_D_2x" viewBox="0 0 36 36" width="36">
  <defs>
    <style>
      .fill{
		fill: #FFF;
		opacity: 0.65;
		fill-rule: evenodd;
		}

      .fillPale{
		fill: #FFF;
		opacity: 0.15;
		fill-rule: evenodd;
		}        
         
    </style>
  </defs>
  <path class="fill" d="M30,13c-.565,0-1.636,2.435-2,3C26.808,9.769,23,6,18,6S9.192,9.769,8,16c-.364-.565-1.435-3-2-3-1.1,0-2,1.343-2,3a3.939,3.939,0,0,0,.51,2H15v7a2.917,2.917,0,0,0,3,2.7A2.917,2.917,0,0,0,21,25V18H31.49A3.939,3.939,0,0,0,32,16C32,14.343,31.1,13,30,13ZM14.389,15.3a2.687,2.687,0,1,1,2.687-2.687A2.687,2.687,0,0,1,14.389,15.3Zm7.223,0A2.687,2.687,0,1,1,24.3,12.611,2.687,2.687,0,0,1,21.611,15.3Z" />
  <path class="fillPale" d="M21,20v5a2.917,2.917,0,0,1-3,2.7A2.917,2.917,0,0,1,15,25V20H2V30H34V20Z" />
  </svg>