<svg id="S_MasterCompNavigator_Md_N_D_2x" data-name="S_MasterCompNavigator_Md_N_D@2x" xmlns="http://www.w3.org/2000/svg" width="36" height="36" viewBox="0 0 36 36">
  <defs>
    <style>
      .fill {
        fill: #fff;
        fill-rule: evenodd;
        opacity: 0.65;
      }

      
    </style>
  </defs>
  <title>S_MasterCompNavigator_Md_N_D@2x</title>
  <path class="fill" d="M32,23V19a1,1,0,0,0-1-1H25a1,1,0,0,0-1,1v1H20V12h4v1a1,1,0,0,0,1,1h6a1,1,0,0,0,1-1V9a1,1,0,0,0-1-1H25a1,1,0,0,0-1,1v1H14V9a1,1,0,0,0-1-1H7A1,1,0,0,0,6,9v1H2.5a0.5,0.5,0,0,0-.5.5v1a0.5,0.5,0,0,0,.5.5H6v1a1,1,0,0,0,1,1h6a1,1,0,0,0,1-1V12h4v9.5a0.5,0.5,0,0,0,.5.5H24v1a1,1,0,0,0,1,1h6A1,1,0,0,0,32,23Z"/>
  <path class="fill" d="M27.56,27.854L31.706,32l4.146-4.146A0.5,0.5,0,0,0,35.5,27H27.913A0.5,0.5,0,0,0,27.56,27.854Z"/>
  </svg>