<svg id="S_MasterGraphEditor_Md_N_D_2x" data-name="S_MasterGraphEditor_Md_N_D@2x" xmlns="http://www.w3.org/2000/svg" width="36" height="36" viewBox="0 0 36 36">
  <defs>
    <style>
      .fill {
        fill: #fff;
        fill-rule: evenodd;
        opacity: 0.65;
      }

      
    </style>
  </defs>
  <title>S_MasterGraphEditor_Md_N_D@2x</title>
  <path class="fill" d="M33,6H28V2.612A0.612,0.612,0,0,0,27.388,2H26.612A0.612,0.612,0,0,0,26,2.612V6H22V4.5A0.5,0.5,0,0,0,21.5,4h-1a0.5,0.5,0,0,0-.5.5V6H16V2.612A0.612,0.612,0,0,0,15.388,2H14.612A0.612,0.612,0,0,0,14,2.612V6H10V4.5A0.5,0.5,0,0,0,9.5,4h-1a0.5,0.5,0,0,0-.5.5V6H5A1,1,0,0,0,4,7v3H2.5a0.5,0.5,0,0,0-.5.5v1a0.5,0.5,0,0,0,.5.5H4v6H2.5a0.5,0.5,0,0,0-.5.5v1a0.5,0.5,0,0,0,.5.5H4v6H2.5a0.5,0.5,0,0,0-.5.5v1a0.5,0.5,0,0,0,.5.5H4v3a1,1,0,0,0,1,1H33a1,1,0,0,0,1-1V7A1,1,0,0,0,33,6ZM32,30H6V8H32V30Z"/>
  <path class="fill" d="M29,25.5a0.5,0.5,0,0,1-.5.5H26c-4.017,0-5.979-3.039-7.877-5.979C16.124,16.925,14.235,14,10,14H8.5A0.5,0.5,0,0,1,8,13.5v-1A0.5,0.5,0,0,1,8.5,12H10c5.325,0,7.7,3.685,9.8,6.937C21.558,21.653,23.073,24,26,24h2.5a0.5,0.5,0,0,1,.5.5v1Z"/>
  </svg>