<svg id="S_Motionblur_Xs_N_D_2x" data-name="S_Motionblur_Xs_N_D@2x" xmlns="http://www.w3.org/2000/svg" width="26" height="26" viewBox="0 0 26 26">
  <defs>
    <style>
      .fill, .fillMedium {
        fill: #fff;
      }

      .fillMedium {
        opacity: 0.3;
      }

      .fill {
        fill-rule: evenodd;
        opacity: 0.65;
      }

      
    </style>
  </defs>
  <title>S_Motionblur_Xs_N_D@2x</title>
  <circle class="fillMedium" cx="16.643" cy="9.357" r="7.857"/>
  <path class="fill" d="M25.5,9.857A9.357,9.357,0,0,0,6.975,7.983,8.045,8.045,0,0,0,4.3,10.961,7.962,7.962,0,1,0,15.012,21.708a8.056,8.056,0,0,0,2.98-2.681A9.37,9.37,0,0,0,25.5,9.857ZM8,24.5A6.508,6.508,0,0,1,1.5,18a6.405,6.405,0,0,1,1.984-4.586,8,8,0,0,0,9.1,9.1A6.406,6.406,0,0,1,8,24.5Zm3.4-3.4a6.508,6.508,0,0,1-6.5-6.5,6.4,6.4,0,0,1,1.913-4.519,9.343,9.343,0,0,0,9.107,9.105A6.4,6.4,0,0,1,11.4,21.1Zm4.748-3.39A7.857,7.857,0,1,1,24,9.857,7.857,7.857,0,0,1,16.143,17.714Z" transform="translate(0.5 -0.5)"/>
  </svg>