<?xml version="1.0" encoding="UTF-8"?>
<svg id="Icons" xmlns="http://www.w3.org/2000/svg" width="32" height="32" viewBox="0 0 32 32">
  <defs>
    <style>
      .red {
        fill: #f53c3c;
      }

      .red, .green, .fill, .blue {
        stroke-width: 0px;
      }

      .green {
        fill: #149b14;
      }

      .fill {
        fill: #fff;
        opacity: .65;
      }

      .blue {
        fill: #2d8ceb;
      }
    </style>
  </defs>
  <path class="fill" d="M31,2H1c-.55225,0-1,.44775-1,1v24c0,.55225.44775,1,1,1h30c.55225,0,1-.44775,1-1V3c0-.55225-.44775-1-1-1ZM4,25.5c0,.27612-.22363.5-.5.5h-1c-.27637,0-.5-.22388-.5-.5v-2.5c0-.27612.22363-.5.5-.5h1c.27637,0,.5.22388.5.5v2.5ZM4,19.33325c0,.27612-.22363.5-.5.5h-1c-.27637,0-.5-.22388-.5-.5v-2.5c0-.27612.22363-.5.5-.5h1c.27637,0,.5.22388.5.5v2.5ZM4,13.16663c0,.27612-.22363.5-.5.5h-1c-.27637,0-.5-.22388-.5-.5v-2.5c0-.27612.22363-.5.5-.5h1c.27637,0,.5.22388.5.5v2.5ZM4,7c0,.27612-.22363.5-.5.5h-1c-.27637,0-.5-.22388-.5-.5v-2.5c0-.27612.22363-.5.5-.5h1c.27637,0,.5.22388.5.5v2.5ZM24,17v2c0,.55225-.44775,1-1,1h-1.60205l.78125,1.19971c.04297.06641.06396.13892.07275.2124.03418.19214-.04639.39453-.2207.50732-.08057.05249-.1748.08057-.27148.08057h-12.5166c-.27637-.00024-.5-.22437-.49951-.50049,0-.00415.00342-.00732.00342-.01147,0-.00586-.00342-.01099-.00342-.01685,0-.09644.02832-.19067.08057-.27148l2.97461-4.22485c-2.7002-.13086-4.85449-2.34277-4.85449-5.0752,0-2.81665,2.28369-5.09985,5.1001-5.09985,2.14404,0,3.97168,1.32617,4.72607,3.2002h6.22949c.55225,0,1,.44775,1,1v6ZM30,25.5c0,.27612-.22363.5-.5.5h-1c-.27637,0-.5-.22388-.5-.5v-2.5c0-.27612.22363-.5.5-.5h1c.27637,0,.5.22388.5.5v2.5ZM30,19.33325c0,.27612-.22363.5-.5.5h-1c-.27637,0-.5-.22388-.5-.5v-2.5c0-.27612.22363-.5.5-.5h1c.27637,0,.5.22388.5.5v2.5ZM30,13.16663c0,.27612-.22363.5-.5.5h-1c-.27637,0-.5-.22388-.5-.5v-2.5c0-.27612.22363-.5.5-.5h1c.27637,0,.5.22388.5.5v2.5ZM30,7c0,.27612-.22363.5-.5.5h-1c-.27637,0-.5-.22388-.5-.5v-2.5c0-.27612.22363-.5.5-.5h1c.27637,0,.5.22388.5.5v2.5Z"/>
  <path class="blue" d="M15.14453,11.89966c0-1.71216-1.3877-3.09985-3.1001-3.09985-1.71191,0-3.1001,1.3877-3.1001,3.09985s1.38818,3.09985,3.1001,3.09985c.57812,0,1.11279-.16846,1.57568-.44385l1.44385-1.97412c.04932-.21997.08057-.44678.08057-.68188Z"/>
  <path class="red" d="M21.5,12h-4.5c-.00157.35586-.04113.71054-.118,1.058l3.213,4.942h1.405c.27614,0,.5-.22386.5-.5v-5c0-.27614-.22386-.5-.5-.5Z"/>
  <path class="green" d="M13.0292,19.99359h5.24936c.20729-.00022.37515-.16845.37492-.37574-.00008-.07232-.02105-.14309-.0604-.20377l-2.6228-4.0378c-.11311-.17371-.34562-.22283-.51933-.10972-.04382.02853-.08119.0659-.10972.10972l-2.62731,4.0378c-.11276.17393-.06318.40635.11075.51911.0609.03948.13194.06046.20452.0604Z"/>
</svg>