<?xml version="1.0" encoding="UTF-8"?>
<svg id="Icons" xmlns="http://www.w3.org/2000/svg" width="40" height="26" viewBox="0 0 40 26">
  <defs>
    <style>
      .fill {
        fill: #fff;
        opacity: .65;
      }

      .fill, .blue, .green, .red {
        stroke-width: 0px;
      }

      .blue {
        fill: #2d8ceb;
      }

      .green {
        fill: #149b14;
      }

      .red {
        fill: #f53c3c;
      }
    </style>
  </defs>
  <path class="fill" d="m33,2H5c-.55228,0-1,.44772-1,1v18c0,.55228.44772,1,1,1h28c.55228,0,1-.44772,1-1V3c0-.55228-.44772-1-1-1ZM8,19.53735c0,.25562-.22363.46265-.5.46265h-1c-.27637,0-.5-.20703-.5-.46265v-2.77563c0-.25537.22363-.4624.5-.4624h1c.27637,0,.5.20703.5.4624v2.77563Zm0-6.09497c0,.25537-.22363.4624-.5.4624h-1c-.27637,0-.5-.20703-.5-.4624v-2.77563c0-.25562.22363-.46265.5-.46265h1c.27637,0,.5.20703.5.46265v2.77563Zm0-6.20435c0,.25562-.22363.46265-.5.46265h-1c-.27637,0-.5-.20703-.5-.46265v-2.77563c0-.25537.22363-.4624.5-.4624h1c.27637,0,.5.20703.5.4624v2.77563Zm20,9.76196c0,.55225-.44775,1-1,1h-4.11328l.72168,1.25c.19238.33325-.04785.75-.43311.75h-10.96973c-.38477,0-.625-.41675-.43262-.75l2.57861-4.46655c-2.3501-.58496-4.09814-2.69312-4.09814-5.22388,0-2.98242,2.41748-5.40015,5.3999-5.40015,2.43604,0,4.47119,1.62378,5.14404,3.84058h6.20264c.55225,0,1,.44775,1,1v8Zm4,2.53735c0,.25562-.22363.46265-.5.46265h-1c-.27637,0-.5-.20703-.5-.46265v-2.77563c0-.25537.22363-.4624.5-.4624h1c.27637,0,.5.20703.5.4624v2.77563Zm0-6.09497c0,.25537-.22363.4624-.5.4624h-1c-.27637,0-.5-.20703-.5-.4624v-2.77563c0-.25562.22363-.46265.5-.46265h1c.27637,0,.5.20703.5.46265v2.77563Zm0-6.20435c0,.25562-.22363.46265-.5.46265h-1c-.27637,0-.5-.20703-.5-.46265v-2.77563c0-.25537.22363-.4624.5-.4624h1c.27637,0,.5.20703.5.4624v2.77563Z"/>
  <path class="green" d="m17.69092,13.00024l2.88623,4.99976h-5.77295l2.88672-4.99976"/>
  <path class="red" d="m21.01465,10c-.08594,1.00977-.44873,1.93335-1.01465,2.70947v.29102l.47266.81885,1.25928,2.18066h4.26807v-6h-4.98535Z"/>
  <path class="blue" d="m15.41846,12.93555l1.83936-3.18555c.19238-.3335.67334-.3335.86572,0l.65771,1.13965c.1748-.40894.27197-.8584.27197-1.33008,0-1.87476-1.52539-3.40015-3.3999-3.40015-1.875,0-3.40039,1.52539-3.40039,3.40015,0,1.79443,1.40186,3.25293,3.16553,3.37598Z"/>
</svg>