<svg id="S_NewComp_Xs_N_D_2x" data-name="S_NewComp_Xs_N_D@2x" xmlns="http://www.w3.org/2000/svg" width="26" height="26" viewBox="0 0 26 26">
  <defs>
    <style>
      .fill {
        fill: #fff;
        fill-rule: evenodd;
        opacity: 0.65;
      }

      .blue {
        fill: #2d8ceb;
      }

      .red {
        fill: #f53c3c;
      }

      .green {
        fill: #149b14;
      }

      
    </style>
  </defs>
  <title>S_NewComp_Xs_N_D@2x</title>
  <path class="fill" d="M25,2H1A1,1,0,0,0,0,3V23a1,1,0,0,0,1,1H25a1,1,0,0,0,1-1V3A1,1,0,0,0,25,2ZM4,21.5a0.5,0.5,0,0,1-.5.5h-1A0.5,0.5,0,0,1,2,21.5v-1A0.5,0.5,0,0,1,2.5,20h1a0.5,0.5,0,0,1,.5.5v1Zm0-4a0.5,0.5,0,0,1-.5.5h-1A0.5,0.5,0,0,1,2,17.5v-1A0.5,0.5,0,0,1,2.5,16h1a0.5,0.5,0,0,1,.5.5v1Zm0-4a0.5,0.5,0,0,1-.5.5h-1A0.5,0.5,0,0,1,2,13.5v-1A0.5,0.5,0,0,1,2.5,12h1a0.5,0.5,0,0,1,.5.5v1Zm0-4a0.5,0.5,0,0,1-.5.5h-1A0.5,0.5,0,0,1,2,9.5v-1A0.5,0.5,0,0,1,2.5,8h1a0.5,0.5,0,0,1,.5.5v1Zm0-4a0.5,0.5,0,0,1-.5.5h-1A0.5,0.5,0,0,1,2,5.5v-1A0.5,0.5,0,0,1,2.5,4h1a0.5,0.5,0,0,1,.5.5v1ZM20,16.167a0.833,0.833,0,0,1-.832.833H16.662l0.988,1.357A0.416,0.416,0,0,1,17.3,19H6.884a0.416,0.416,0,0,1-.349-0.643l2.36-3.631A4.069,4.069,0,0,1,9.179,6.6a3.777,3.777,0,0,1,3.707,2.414h6.282A0.832,0.832,0,0,1,20,9.844v6.324ZM24,21.5a0.5,0.5,0,0,1-.5.5h-1a0.5,0.5,0,0,1-.5-0.5v-1a0.5,0.5,0,0,1,.5-0.5h1a0.5,0.5,0,0,1,.5.5v1Zm0-4a0.5,0.5,0,0,1-.5.5h-1a0.5,0.5,0,0,1-.5-0.5v-1a0.5,0.5,0,0,1,.5-0.5h1a0.5,0.5,0,0,1,.5.5v1Zm0-4a0.5,0.5,0,0,1-.5.5h-1a0.5,0.5,0,0,1-.5-0.5v-1a0.5,0.5,0,0,1,.5-0.5h1a0.5,0.5,0,0,1,.5.5v1Zm0-4a0.5,0.5,0,0,1-.5.5h-1A0.5,0.5,0,0,1,22,9.5v-1A0.5,0.5,0,0,1,22.5,8h1a0.5,0.5,0,0,1,.5.5v1Zm0-4a0.5,0.5,0,0,1-.5.5h-1A0.5,0.5,0,0,1,22,5.5v-1A0.5,0.5,0,0,1,22.5,4h1a0.5,0.5,0,0,1,.5.5v1Z"/>
  <path class="blue" d="M9.179,13.339a2.727,2.727,0,0,0,.611-0.074l1.954-3.005a0.4,0.4,0,0,1,.136-0.125A2.743,2.743,0,1,0,9.179,13.339Z"/>
  <path class="red" d="M18.347,10.245l-5.184-.02a1.6,1.6,0,0,1,.032.824l3.171,4.622h1.981a0.416,0.416,0,0,0,.416-0.416V10.661A0.416,0.416,0,0,0,18.347,10.245Z"/>
  <path class="green" d="M9.164,17.635h5.821a0.416,0.416,0,0,0,.349-0.643l-2.91-4.477a0.416,0.416,0,0,0-.7,0l-2.91,4.477A0.416,0.416,0,0,0,9.164,17.635Z"/>
  </svg>