<svg id="S_NonZeroWindingFill_Md_N_D_2x" data-name="S_NonZeroWindingFill_Md_N_D@2x" xmlns="http://www.w3.org/2000/svg" width="36" height="36" viewBox="0 0 36 36">
  <defs>
    <style>
      .fill {
        fill: #fff;
        fill-rule: evenodd;
        opacity: 0.65;
      }

      
    </style>
  </defs>
  <title>S_NonZeroWindingFill_Md_N_D@2x</title>
  <g>
    <path class="fill" d="M13,12H24V5a1,1,0,0,0-1-1H5A1,1,0,0,0,4,5V23a1,1,0,0,0,1,1h7V13A1,1,0,0,1,13,12Z"/>
    <path class="fill" d="M31,12H24V23a1,1,0,0,1-1,1H12v7a1,1,0,0,0,1,1H31a1,1,0,0,0,1-1V13A1,1,0,0,0,31,12Z"/>
  </g>
  </svg>