<svg id="S_OptionsMenu_Lg_N_D_2x" data-name="S_OptionsMenu_Lg_N_D@2x" xmlns="http://www.w3.org/2000/svg" width="44" height="36" viewBox="0 0 44 36">
  <defs>
    <style>
      .fill {
        fill: #fff;
        fill-rule: evenodd;
        opacity: 0.65;
      }

      
    </style>
  </defs>
  <title>S_OptionsMenu_Lg_N_D@2x</title>
  <path class="fill" d="M31.4,30H40.6a0.5,0.5,0,0,1,.354.854L36,36l-4.97-5.16A0.5,0.5,0,0,1,31.4,30Z"/>
  <rect class="fill" x="14" y="20" width="2" height="2" rx="0.5" ry="0.5"/>
  <rect class="fill" x="14" y="16" width="2" height="2" rx="0.5" ry="0.5"/>
  <rect class="fill" x="18" y="20" width="12" height="2" rx="0.5" ry="0.5"/>
  <rect class="fill" x="18" y="16" width="12" height="2" rx="0.5" ry="0.5"/>
  <path class="fill" d="M18.5,12.5v1a0.5,0.5,0,0,0,.5.5H29.5a0.5,0.5,0,0,0,.5-0.5v-1a0.5,0.5,0,0,0-.5-0.5H19A0.5,0.5,0,0,0,18.5,12.5Z"/>
  <path class="fill" d="M14,12.5v1a0.5,0.5,0,0,0,.5.5h1a0.5,0.5,0,0,0,.5-0.5v-1a0.5,0.5,0,0,0-.5-0.5h-1A0.5,0.5,0,0,0,14,12.5Z"/>
  <path class="fill" d="M10,8H34V26H10V8ZM8,5V27a1,1,0,0,0,1,1H35a1,1,0,0,0,1-1V5a1,1,0,0,0-1-1H9A1,1,0,0,0,8,5Z"/>
  </svg>