<svg id="S_Overwrite_Lg_N_D_2x" data-name="S_Overwrite_Lg_N_D@2x" xmlns="http://www.w3.org/2000/svg" width="44" height="36" viewBox="0 0 44 36">
  <defs>
    <style>
      .fill {
        fill: #fff;
        fill-rule: evenodd;
        opacity: 0.65;
      }

      
    </style>
  </defs>
  <title>S_Overwrite_Lg_N_D@2x</title>
  <path id="Fill" class="fill" d="M14,18V6H28V18H14Zm-2,2H30v2H12V20ZM12,5V16H3a1,1,0,0,0-1,1V27a1,1,0,0,0,1,1H39a1,1,0,0,0,1-1V17a1,1,0,0,0-1-1H30V5a1,1,0,0,0-1-1H13A1,1,0,0,0,12,5Zm4.675,5.818L21,16.063l4.325-5.244A0.5,0.5,0,0,0,24.94,10H17.06A0.5,0.5,0,0,0,16.675,10.818Z"/>
  </svg>