<?xml version="1.0" encoding="UTF-8"?>
<svg id="Icons" xmlns="http://www.w3.org/2000/svg" width="26" height="26" viewBox="0 0 26 26">
  <defs>
    <style>
      .fill {
        fill: #fff;
        opacity: .65;
      }
    </style>
  </defs>
  <path class="fill" d="m24.001,14.484v3c0,.276-.224.5-.5.5h-3.5v-3.5c0-.276.224-.5.5-.5h3c.276,0,.5.224.5.5Z"/>
  <path class="fill" d="m20.001,17.984v3.5c0,.276-.224.5-.5.5h-3c-.276,0-.5-.224-.5-.5v-3c0-.276.224-.5.5-.5h3.5Z"/>
  <path class="fill" d="m22.414,11.984h1.087c.252,0,.49.049.72.118.154-.939.217-1.907.155-2.897-.106-1.709-.552-3.379-1.311-4.913-.127-.245-.429-.341-.674-.214-.017.009-.033.018-.049.029l-.674.449c-.208.141-.279.414-.167.638,1.059,2.195,1.319,4.563.914,6.791Z"/>
  <path class="fill" d="m14.001,21.484v-.667c-.309.071-.62.132-.935.177-4.534.75-8.818-2.317-9.569-6.852-.036-.219-.064-.438-.082-.659-.249-4.288,2.889-8.026,7.155-8.525,2.84-.456,5.513,1.477,5.969,4.317.032.201.053.403.061.606.068,2.787-2.115,5.111-4.9,5.22-1.17.056-2.18-.812-2.3-1.978-.06-1.046.66-1.977,1.688-2.181.235-.044.406-.248.408-.487v-.814c.003-.276-.219-.502-.495-.505-.024,0-.048.001-.072.005-2.012.298-3.458,2.09-3.325,4.12.228,2.176,2.14,3.78,4.323,3.626,3.808-.243,6.698-3.527,6.455-7.335,0-.006,0-.013-.001-.019-.379-3.914-3.859-6.779-7.773-6.4-.151.015-.301.034-.451.058C4.721,3.785.796,8.673,1.391,14.109s5.483,9.36,10.919,8.766c.671-.042,1.321-.15,1.958-.289-.166-.334-.268-.705-.268-1.103Z"/>
</svg>