<svg id="S_PrimaryViewer_Sm_N_D_2x" data-name="S_PrimaryViewer_Sm_N_D@2x" xmlns="http://www.w3.org/2000/svg" width="28" height="28" viewBox="0 0 28 28">
  <defs>
    <style>
      .fill {
        fill: #fff;
        fill-rule: evenodd;
        opacity: 0.65;
      }

      
    </style>
  </defs>
  <title>S_PrimaryViewer_Sm_N_D@2x</title>
  <path class="fill" d="M18,21V20H10v1a1,1,0,0,1-1,1H7a.979.979,0,0,0-1,1v1H22V23a1,1,0,0,0-1-1H19A1,1,0,0,1,18,21Z"/>
  <path class="fill" d="M2,3V17a1,1,0,0,0,1,1H25a1,1,0,0,0,1-1V3a1,1,0,0,0-1-1H3A1,1,0,0,0,2,3ZM24,16H4V4H24Z"/>
  </svg>