<svg xmlns="http://www.w3.org/2000/svg" data-name="S_ProtectMarkerRight_6x12_N_D@2x" height="24" id="S_ProtectMarkerRight_6x12_N_D_2x" viewBox="0 0 12 24" width="12">
  <defs>
    <style>
      .fill {
        fill: #fff;
        fill-rule: evenodd;
        opacity: 0.65;
      }

      
    </style>
  </defs>
  <title>S_ProtectMarkerRight_6x12_N_D@2x</title>
  <path d="M9.81,2l-3.5,20H2V2ZM0,1V23a1,1,0,0,0,1,1H7.153a1,1,0,0,0,.986-.836l3.747-22A.934.934,0,0,0,11,0H1A1,1,0,0,0,0,1Z" />
  <path class="fill" d="M2,2V22H6.312L9.81,2ZM3.9,5.5A1.6,1.6,0,1,1,5.5,7.1,1.6,1.6,0,0,1,3.9,5.5Z" />
  <circle cx="5.5" cy="5.5" r="1.6" />
  </svg>