<svg xmlns="http://www.w3.org/2000/svg" data-name="S_ProtectMarkerLeft_6x12_N_D@2x" height="24" id="S_ProtectMarkerLeft_6x12_N_D_2x" viewBox="0 0 12 24" width="12">
  <defs>
    <style>
      .fill {
        fill: #fff;
        fill-rule: evenodd;
        opacity: 0.65;
      }

      
    </style>
  </defs>
  <title>S_ProtectMarkerLeft_6x12_N_D@2x</title>
  <path d="M10,2V22H5.687L2.19,2Zm1-2H1A.934.934,0,0,0,.114,1.164l3.747,22A1,1,0,0,0,4.847,24H11a1,1,0,0,0,1-1V1A1,1,0,0,0,11,0Z" />
  <path class="fill" d="M2.19,2l3.5,20H10V2ZM6.5,7.1A1.6,1.6,0,1,1,8.1,5.5,1.6,1.6,0,0,1,6.5,7.1Z" />
  <circle cx="6.5" cy="5.5" r="1.6" />
  </svg>