<svg id="S_Preview_Sm_N_D_2x" data-name="S_Preview_Sm_N_D@2x" xmlns="http://www.w3.org/2000/svg" width="28" height="28" viewBox="0 0 28 28">
  <defs>
    <style>
      .fill {
        fill: #fff;
        fill-rule: evenodd;
        opacity: 0.65;
      }

      
    </style>
  </defs>
  <title>S_Preview_Sm_N_D@2x</title>
  <path class="fill" d="M22,8V18H6v1a1,1,0,0,0,1,1H23a1,1,0,0,0,1-1V9a1,1,0,0,0-1-1Z"/>
  <path class="fill" d="M26,12V22H10v1a1,1,0,0,0,1,1H27a1,1,0,0,0,1-1V13a1,1,0,0,0-1-1Z"/>
  <path class="fill" d="M19,4H3A1,1,0,0,0,2,5V15a1,1,0,0,0,1,1H19a1,1,0,0,0,1-1V5A1,1,0,0,0,19,4ZM8.748,13.573A.5.5,0,0,1,8,13.138V6.862a.5.5,0,0,1,.748-.434L15,10Z"/>
  </svg>