<svg xmlns="http://www.w3.org/2000/svg" data-name="S_PushToCompositionDraftC_12_N_D@2x" height="24" id="S_PushToCompositionDraftC_12_N_D_2x" viewBox="0 0 24 24" width="24">
  <defs>
    <style>
      .fill {
        fill: #fff;
        fill-rule: evenodd;
        opacity: 0.65;
      }

      
    </style>
  </defs>
  <title>S_PushToCompositionDraftC_12_N_D@2x</title>
  <path class="fill" d="M16,18v6h2V18h4.347a.75.75,0,0,0,.565-1.244L17,10l-5.912,6.756A.75.75,0,0,0,11.653,18Z" />
  <path class="fill" d="M19,0H1A1,1,0,0,0,0,1V13a1,1,0,0,0,1,1h9l5-6h1V6h2V8h2V1A1,1,0,0,0,19,0ZM4,12H2V10H4ZM4,8H2V6H4ZM4,4H2V2H4ZM18,4H16V2h2Z" />
  </svg>