<svg id="QuickEase_Plus_2x" data-name="QuickEase_Plus@2x" xmlns="http://www.w3.org/2000/svg" width="36" height="36" viewBox="0 0 36 36">
  <defs>
    <style>
      .fill {
        fill: #fff;
        opacity: 0.65;
      }

      
    </style>
  </defs>
  <title>QuickEase_Plus@2x</title>
  <path class="fill" d="M28,17v2c0,0.5-0.5,1-1,1h-7v7c0,0.5-0.5,1-1,1h-2c-0.5,0-1-0.5-1-1v-7H9c-0.5,0-1-0.5-1-1v-2c0-0.5,0.5-1,1-1
	h7V9c0-0.5,0.5-1,1-1h2c0.5,0,1,0.5,1,1v7h7C27.5,16,28,16.5,28,17z"/>
  </svg>
