<svg xmlns="http://www.w3.org/2000/svg" width="36" height="36" viewBox="0 0 36 36">
  <defs>
    <style>
      .fill {
        fill: #fff;
        opacity: 0.65;
      }
    </style>
  </defs>
  <g id="ImportedIcons">
    <path class="fill" d="M22.209,4.859V7.607a.859.859,0,0,1-.859.859H18.6a.859.859,0,0,1-.859-.859V4.859A.859.859,0,0,1,18.6,4h2.75A.859.859,0,0,1,22.209,4.859Zm-7.73,6.012H11.73a.859.859,0,0,0-.859.859h0v2.748a.859.859,0,0,0,.859.859h2.748a.859.859,0,0,0,.859-.859h0V11.73A.859.859,0,0,0,14.479,10.871ZM6.233,4.859A1.374,1.374,0,1,0,7.607,6.233,1.374,1.374,0,0,0,6.233,4.859Zm7.73-.344H12.245a.859.859,0,0,0-.859.859h0V7.092a.859.859,0,0,0,.859.859h1.718a.859.859,0,0,0,.859-.859h0V5.374a.859.859,0,0,0-.859-.859ZM7.092,11.387H5.374a.859.859,0,0,0-.859.859h0v1.718a.859.859,0,0,0,.859.859H7.092a.859.859,0,0,0,.859-.859h0V12.245A.859.859,0,0,0,7.092,11.387Zm.515,6.356H4.859A.859.859,0,0,0,4,18.6v2.75a.859.859,0,0,0,.859.859H7.607a.859.859,0,0,0,.859-.859V18.6a.859.859,0,0,0-.859-.858ZM26,4V8.9a2.489,2.489,0,0,1-2.489,2.489H19.117a.859.859,0,0,0-.859.859v3.523a2.489,2.489,0,0,1-2.489,2.489H12.245a.859.859,0,0,0-.859.859v4.394A2.489,2.489,0,0,1,8.9,26H4v4.282A1.718,1.718,0,0,0,5.718,32H30.282A1.718,1.718,0,0,0,32,30.282h0V5.718A1.718,1.718,0,0,0,30.282,4H26Z"/>
  </g>
</svg>
