<svg id="S_RefineEdgeXRay_16x13_N_D_2x" data-name="S_RefineEdgeXRay_16x13_N_D@2x" xmlns="http://www.w3.org/2000/svg" width="32" height="26" viewBox="0 0 32 26">
  <defs>
    <style>
      .fill, .fillMedium {
        fill: #fff;
      }

      .fill {
        fill-rule: evenodd;
        opacity: 0.65;
      }

      .fillMedium {
        opacity: 0.3;
      }

      
    </style>
  </defs>
  <title>S_RefineEdgeXRay_16x13_N_D@2x</title>
  <path class="fill" d="M30,0H16V10.3l6.306-5.676A2.432,2.432,0,0,1,23.933,4H26.95a.787.787,0,0,1,.526,1.371L19,13l8.476,7.629A.787.787,0,0,1,26.95,22H23.933a2.432,2.432,0,0,1-1.627-.624L16,15.7V26H30a2,2,0,0,0,2-2V2A2,2,0,0,0,30,0Z" transform="translate(0 0)"/>
  <path class="fill" d="M9.694,4.624A2.432,2.432,0,0,0,8.067,4H5.05a.787.787,0,0,0-.526,1.371L13,13,4.524,20.628A.787.787,0,0,0,5.05,22H8.067a2.432,2.432,0,0,0,1.627-.624L16,15.7V10.3Z" transform="translate(0 0)"/>
  <path class="fillMedium" d="M2,26H16V15.7L9.694,21.376A2.432,2.432,0,0,1,8.067,22H5.05a.787.787,0,0,1-.526-1.371L13,13,4.524,5.372A.787.787,0,0,1,5.05,4H8.067a2.432,2.432,0,0,1,1.627.624L16,10.3V0H2A2,2,0,0,0,0,2V24A2,2,0,0,0,2,26Z" transform="translate(0 0)"/>
  </svg>