<svg id="S_ReversePathOn_Md_N_D_2x" data-name="S_ReversePathOn_Md_N_D@2x" xmlns="http://www.w3.org/2000/svg" width="36" height="36" viewBox="0 0 36 36">
  <defs>
    <style>
      .fill {
        fill: #fff;
        fill-rule: evenodd;
        opacity: 0.65;
      }

      
    </style>
  </defs>
  <title>S_ReversePathOn_Md_N_D@2x</title>
  <path class="fill" d="M8,12H6V10H8Zm22,0H28V10h2Zm1-4H27a1,1,0,0,0-1,1v1H10V9A1,1,0,0,0,9,8H5A1,1,0,0,0,4,9v4a1,1,0,0,0,1,1H9a1,1,0,0,0,1-1V12H26v1a1,1,0,0,0,1,1h4a1,1,0,0,0,1-1V9A1,1,0,0,0,31,8Z"/>
  <path id="Fill" class="fill" d="M6,22.5v1a.5.5,0,0,0,.5.5H24v3.5a.5.5,0,0,0,.82.384L30,23l-5.18-4.883A.5.5,0,0,0,24,18.5V22H6.5A.5.5,0,0,0,6,22.5Z"/>
  </svg>