<svg id="S_RGB_Sm_N_D_2x" data-name="S_RGB_Sm_N_D@2x" xmlns="http://www.w3.org/2000/svg" width="32" height="32" viewBox="0 0 32 32">
  <defs>
    <style>
      .cls-1 {
        fill: #1ac605;
      }

      .cls-2 {
        fill: #ff0000;
      }

      .cls-3 {
        fill: #3f69ff;
      }

      .fill {
        fill: #fff;
        fill-rule: evenodd;
        opacity: 0.65;
      }

      
    </style>
  </defs>
  <title>S_RGB_Sm_N_D@2x</title>
  <g>
    <path class="cls-1" d="M14.354,14.965a6.006,6.006,0,0,1-5-3.931A6,6,0,1,0,15,20.317,6.009,6.009,0,0,1,14.354,14.965Z"/>
    <path class="cls-2" d="M14.354,14.965A6,6,0,0,1,20,11a6.068,6.068,0,0,1,.646.035A6,6,0,1,0,14.354,14.965Z"/>
    <path class="cls-3" d="M20.646,11.035A6.068,6.068,0,0,0,20,11,6,6,0,1,0,20.646,11.035Z"/>
  </g>
  <path class="fill" d="M19.4,26H28.6a0.5,0.5,0,0,1,.354.854L24,32l-4.97-5.16A0.5,0.5,0,0,1,19.4,26Z"/>
  </svg>