<svg id="S_RGBCMOn_Sm_N_D_2x" data-name="S_RGBCMOn_Sm_N_D@2x" xmlns="http://www.w3.org/2000/svg" width="32" height="32" viewBox="0 0 32 32">
  <defs>
    <style>
      .fill {
        fill: #fff;
        fill-rule: evenodd;
        opacity: 0.65;
      }

      .cls-1 {
        fill: #1ac605;
      }

      .cls-2 {
        fill: #ff0000;
      }

      .cls-3 {
        fill: #3f69ff;
      }

      
    </style>
  </defs>
  <title>S_RGBCMOn_Sm_N_D@2x</title>
  <path class="fill" d="M19.4,26H28.6a0.5,0.5,0,0,1,.354.854L24,32l-4.97-5.16A0.5,0.5,0,0,1,19.4,26Z"/>
  <g>
    <path class="cls-1" d="M14.354,14.965a6.006,6.006,0,0,1-5-3.931A6,6,0,1,0,15,20.317,6.009,6.009,0,0,1,14.354,14.965Z"/>
    <path class="cls-2" d="M14.354,14.965A6,6,0,0,1,20,11a6.066,6.066,0,0,1,.646.034A5.963,5.963,0,0,0,20.917,10H20.5A2.5,2.5,0,0,1,18,7.5v-1a2.5,2.5,0,0,1,.984-1.986A6,6,0,1,0,14.354,14.965Z"/>
    <path class="cls-3" d="M25.2,14H24.5A2.5,2.5,0,0,1,22,11.5V11.342a5.973,5.973,0,0,0-1.354-.307A6.066,6.066,0,0,0,20,11,6,6,0,1,0,25.2,14Z"/>
  </g>
  <path class="fill" d="M29.5,6H26V2.5A0.5,0.5,0,0,0,25.5,2h-1a0.5,0.5,0,0,0-.5.5V6H20.5a0.5,0.5,0,0,0-.5.5v1a0.5,0.5,0,0,0,.5.5H24v3.5a0.5,0.5,0,0,0,.5.5h1a0.5,0.5,0,0,0,.5-0.5V8h3.5A0.5,0.5,0,0,0,30,7.5v-1A0.5,0.5,0,0,0,29.5,6Z"/>
  </svg>