<svg id="S_RotoBrushFreeze_Wi_N_D_2x" data-name="S_RotoBrushFreeze_Wi_N_D@2x" xmlns="http://www.w3.org/2000/svg" width="40" height="26" viewBox="0 0 40 26">
  <defs>
    <style>
      .fill {
        fill: #fff;
        fill-rule: evenodd;
        opacity: 0.65;
      }

      
    </style>
  </defs>
  <title>S_RotoBrushFreeze_Wi_N_D@2x</title>
  <circle class="fill" cx="10" cy="4" r="2"/>
  <path class="fill" d="M11.642,9.916l2.258,1.94,3.5-2.623a0.545,0.545,0,0,0,.058-0.821l-0.24-.24A0.545,0.545,0,0,0,16.527,8.1L13.9,9.856l-2-2L8.361,6.971a1,1,0,0,0-.843.17L4.061,9.734a0.545,0.545,0,0,0-.205.319L2.995,13.981a0.545,0.545,0,0,0,.313.616h0a0.545,0.545,0,0,0,.748-0.367L4.9,10.856l3-1.633v4.5l-1,5.13L5.225,21.367a0.717,0.717,0,0,0,.09.9h0a0.717,0.717,0,0,0,1.08-.077l1.754-2.839,1.354-3.5H9.652l2.533,3.362,1.768-.936-2.842-4.12Z"/>
  <path class="fill" d="M21.4,14.261A3.929,3.929,0,0,0,18.4,15.355a7.035,7.035,0,0,0-1.484,2.939c-0.438,1.391-.851,2.705-2.631,3.554a0.5,0.5,0,0,0,.132.945c0.4,0.068.86,0.126,1.36,0.163,1.8,0.134,5.19.077,7.657-1.8A3.8,3.8,0,0,0,25,18.374,3.87,3.87,0,0,0,21.4,14.261Z"/>
  <path class="fill" d="M26.346,15.867C31.336,10.3,37.016,3.673,35.628,2.285s-7.88,5.106-12.807,10.43A5.7,5.7,0,0,1,26.346,15.867Z"/>
  </svg>