<svg id="S_Sampler_19x10_N_D_2x" data-name="S_Sampler_19x10_N_D@2x" xmlns="http://www.w3.org/2000/svg" width="38" height="20" viewBox="0 0 38 20">
  <defs>
    <style>
      .fill {
        fill: #fff;
        opacity: 0.65;
        
      }

      
    </style>
  </defs>
  <title>S_Sampler_19x10_N_D@2x</title>
  <path class="fill" d="M34.869,6H28l0-1a1,1,0,0,0-1-1L23,4a1,1,0,0,0-1,1c0,0.193,0,1,0,1H10.289a7.561,7.561,0,0,0-2.895.563l-0.007,0A5.27,5.27,0,0,1,5.8,6.821a6.156,6.156,0,0,1-.771-0.052A6.713,6.713,0,0,0,4.04,6.69a3.967,3.967,0,0,0-2.1.534A3.166,3.166,0,0,0,.449,10.008a3.287,3.287,0,0,0,3.635,3.3,6.979,6.979,0,0,0,1.055-.087,4.974,4.974,0,0,1,.792-0.071,3.968,3.968,0,0,1,1.446.285A7.581,7.581,0,0,0,10.288,14H22s0,0.794,0,1a1,1,0,0,0,1,1h4a1,1,0,0,0,1-1V14h6.869A2.131,2.131,0,0,0,37,11.868V8.131A2.131,2.131,0,0,0,34.869,6Zm-24.58,6h0A5.562,5.562,0,0,1,8.167,11.6l-0.088-.036a5.956,5.956,0,0,0-2.148-.412,6.679,6.679,0,0,0-1.047.087,5.228,5.228,0,0,1-.8.071,1.359,1.359,0,0,1-1.635-1.3A1.336,1.336,0,0,1,4.04,8.69a4.979,4.979,0,0,1,.736.064A8.133,8.133,0,0,0,5.8,8.821a7.311,7.311,0,0,0,2.273-.374l0.095-.04A5.551,5.551,0,0,1,10.289,8H22c0,1.272,0,2.725,0,4Z"/>
  </svg>