<svg id="S_Settings_Lg_N_D_2x" data-name="S_Settings_Lg_N_D@2x" xmlns="http://www.w3.org/2000/svg" width="44" height="36" viewBox="0 0 44 36">
  <defs>
    <style>
      .fill {
        fill: #fff;
        fill-rule: evenodd;
        opacity: 0.65;
      }

      
    </style>
  </defs>
  <title>S_Settings_Lg_N_D@2x</title>
  <path class="fill" d="M12,4.589a1.3,1.3,0,0,1,.788-0.322c0.517-.052,5.94-1.014,8.118,1.065A5.916,5.916,0,0,1,22.968,9.64a19.825,19.825,0,0,0,.773,4.773,16.747,16.747,0,0,0,1.345,2.558L35.725,27.641s1.067,1.552-1,3.634-3.519.946-3.519,0.946L20.152,20.972a5.024,5.024,0,0,0-2.4-1.8c-1.408-.388-3.552-0.253-5.36-1.275S8.457,13,8.38,12.327s-0.143-1.37-.143-1.37a0.2,0.2,0,0,1,.285-0.065c0.179,0.117,5.051,2.855,5.051,2.855s1.252,0.335,3.538-1.977c0.968-3.28.2-3.784,0.2-3.784L12.281,4.874Z"/>
  </svg>