<svg id="S_ShapeNone_17x14_N_D_2x" data-name="S_ShapeNone_17x14_N_D@2x" xmlns="http://www.w3.org/2000/svg" width="34" height="28" viewBox="0 0 34 28">
  <defs>
    <style>
      .cls-1, .fill {
        fill: #fff;
      }

      .fill {
        fill-rule: evenodd;
        opacity: 0.65;
      }

      .red {
        fill: #f53c3c;
      }

      
    </style>
  </defs>
  <title>S_ShapeNone_17x14_N_D@2x</title>
  <path class="fill" d="M2,3V23a1,1,0,0,0,1,1H31a1,1,0,0,0,1-1V3a1,1,0,0,0-1-1H3A1,1,0,0,0,2,3ZM30,22H4V4H30Z"/>
  <polygon class="cls-1" points="30 22 30 5.774 6.33 22 30 22"/>
  <polygon class="cls-1" points="4 4 4 20.226 27.67 4 4 4"/>
  <polygon class="red" points="27.67 4 4 20.226 4 22 6.33 22 30 5.774 30 4 27.67 4"/>
  </svg>