<svg id="S_ShowLayers_Wi_N_D_2x" data-name="S_ShowLayers_Wi_N_D@2x" xmlns="http://www.w3.org/2000/svg" width="40" height="26" viewBox="0 0 40 26">
  <defs>
    <style>
      .fill {
        fill: #fff;
        fill-rule: evenodd;
        opacity: 0.65;
      }

      
    </style>
  </defs>
  <title>S_ShowLayers_Wi_N_D@2x</title>
  <path id="Fill" class="fill" d="M11.67,14L8.805,15.561a0.5,0.5,0,0,0,0,.878l9.716,5.3a1,1,0,0,0,.958,0l9.716-5.3a0.5,0.5,0,0,0,0-.878L26.33,14,19,18ZM18.521,2.261L8.8,7.561a0.5,0.5,0,0,0,0,.878l9.716,5.3a1,1,0,0,0,.958,0l9.716-5.3a0.5,0.5,0,0,0,0-.878l-9.716-5.3A1,1,0,0,0,18.521,2.261Z"/>
  </svg>