<svg id="S_ShapeRadialGradient_17x14_N_D_2x" data-name="S_ShapeRadialGradient_17x14_N_D@2x" xmlns="http://www.w3.org/2000/svg" width="34" height="28" viewBox="0 0 34 28">
  <defs>
    <style>
      .cls-1, .cls-2, .cls-3, .cls-4, .cls-5, .cls-6, .cls-7, .cls-8, .fill {
        fill: #fff;
      }

      .fill {
        fill-rule: evenodd;
        opacity: 0.65;
      }

      .cls-1 {
        opacity: 0.1;
      }

      .cls-2 {
        opacity: 0.157;
      }

      .cls-3 {
        opacity: 0.214;
      }

      .cls-4 {
        opacity: 0.3;
      }

      .cls-5 {
        opacity: 0.4;
      }

      .cls-6 {
        opacity: 0.5;
      }

      .cls-7 {
        opacity: 0.6;
      }

      .cls-8 {
        opacity: 0.7;
      }

      
    </style>
  </defs>
  <title>S_ShapeRadialGradient_17x14_N_D@2x</title>
  <path class="fill" d="M2,3V23a1,1,0,0,0,1,1H31a1,1,0,0,0,1-1V3a1,1,0,0,0-1-1H3A1,1,0,0,0,2,3ZM30,22H4V4H30Z"/>
  <path class="cls-1" d="M4,4V7.824A13.98,13.98,0,0,1,6.283,4Z"/>
  <path class="cls-1" d="M30,4H27.717A13.98,13.98,0,0,1,30,7.824Z"/>
  <path class="cls-1" d="M4,22H6.283A13.98,13.98,0,0,1,4,18.176Z"/>
  <path class="cls-1" d="M30,18.176A13.98,13.98,0,0,1,27.717,22H30Z"/>
  <path class="cls-2" d="M30,7.824A13.98,13.98,0,0,0,27.717,4h-2.8a11.964,11.964,0,0,1,0,18h2.8A13.98,13.98,0,0,0,30,18.176Z"/>
  <path class="cls-2" d="M5,13A11.959,11.959,0,0,1,9.081,4h-2.8A13.98,13.98,0,0,0,4,7.824V18.176A13.98,13.98,0,0,0,6.283,22h2.8A11.959,11.959,0,0,1,5,13Z"/>
  <path class="cls-3" d="M29,13a11.959,11.959,0,0,0-4.081-9H21.337a9.983,9.983,0,0,1,0,18h3.582A11.959,11.959,0,0,0,29,13Z"/>
  <path class="cls-3" d="M7,13a9.991,9.991,0,0,1,5.663-9H9.081a11.964,11.964,0,0,0,0,18h3.582A9.991,9.991,0,0,1,7,13Z"/>
  <path class="cls-4" d="M27,13a9.991,9.991,0,0,0-5.663-9H12.663a9.983,9.983,0,0,0,0,18h8.674A9.991,9.991,0,0,0,27,13ZM17,21a8,8,0,1,1,8-8A8,8,0,0,1,17,21Z"/>
  <path class="cls-5" d="M17,5a8,8,0,1,0,8,8A8,8,0,0,0,17,5Zm0,14a6,6,0,1,1,6-6A6,6,0,0,1,17,19Z"/>
  <path class="cls-6" d="M17,7a6,6,0,1,0,6,6A6,6,0,0,0,17,7Zm0,10a4,4,0,1,1,4-4A4,4,0,0,1,17,17Z"/>
  <path class="cls-7" d="M17,9a4,4,0,1,0,4,4A4,4,0,0,0,17,9Zm0,6a2,2,0,1,1,2-2A2,2,0,0,1,17,15Z"/>
  <circle class="cls-8" cx="17" cy="13" r="2"/>
  </svg>