<svg id="S_Snapshot_Sm_N_D_2x" data-name="S_Snapshot_Sm_N_D@2x" xmlns="http://www.w3.org/2000/svg" width="32" height="32" viewBox="0 0 32 32">
  <defs>
    <style>
      .fill {
        fill: #fff;
        fill-rule: evenodd;
        opacity: 0.65;
      }

      
    </style>
  </defs>
  <title>S_Snapshot_Sm_N_D@2x</title>
  <circle class="fill" cx="16" cy="18" r="3.9"/>
  <path class="fill" d="M29,10H23.418a1,1,0,0,1-.768-.36L19.916,6.36A1,1,0,0,0,19.148,6H12.723a1,1,0,0,0-.768.36L9.221,9.64a1,1,0,0,1-.768.36H3a1,1,0,0,0-1,1V27a1,1,0,0,0,1,1H29a1,1,0,0,0,1-1V11A1,1,0,0,0,29,10ZM16,24.1A6.1,6.1,0,1,1,22.1,18,6.1,6.1,0,0,1,16,24.1Z"/>
  </svg>