<svg id="S_SpaceBefore_Md_N_D2x" data-name="S_SpaceBefore_Md_N_D@2x" xmlns="http://www.w3.org/2000/svg" width="36" height="36" viewBox="0 0 36 36">
  <defs>
    <style>
      .fill {
        fill: #fff;
        fill-rule: evenodd;
        opacity: 0.65;
      }

      
    </style>
  </defs>
  <title>S_SpaceBefore_Md_N_D@2x</title>
  <rect class="fill" x="16" y="18" width="14" height="2" rx="0.5" ry="0.5"/>
  <rect class="fill" x="16" y="24" width="18" height="2" rx="0.5" ry="0.5"/>
  <rect class="fill" x="16" y="30" width="14" height="2" rx="0.5" ry="0.5"/>
  <path class="fill" d="M8.82,4.164A0.5,0.5,0,0,0,8,4.548V8H2.5a0.5,0.5,0,0,0-.5.5v1a0.5,0.5,0,0,0,.5.5H8v3.484a0.5,0.5,0,0,0,.82.384L14,9Z"/>
  <path class="fill" d="M16,4.5v9a0.5,0.5,0,0,0,.5.5h17a0.5,0.5,0,0,0,.5-0.5v-9A0.5,0.5,0,0,0,33.5,4h-17A0.5,0.5,0,0,0,16,4.5ZM32,12H18V6H32v6Z"/>
  </svg>