<svg id="S_StopwatchOff_Xs_N_D_2x" data-name="S_StopwatchOff_Xs_N_D@2x" xmlns="http://www.w3.org/2000/svg" width="26" height="26" viewBox="0 0 26 26">
  <defs>
    <style>
      .fill {
        fill: #fff;
        fill-rule: evenodd;
        opacity: 0.65;
      }

      
    </style>
  </defs>
  <title>S_StopwatchOff_Xs_N_D@2x</title>
  <path class="fill" d="M14,4.05V2h2.5A0.5,0.5,0,0,0,17,1.5v-1A0.5,0.5,0,0,0,16.5,0h-7A0.5,0.5,0,0,0,9,.5v1a0.5,0.5,0,0,0,.5.5H12V4.049A10.95,10.95,0,0,0,6.454,6.174L5.28,4.962l0.4-.4a0.5,0.5,0,0,0,0-.707L4.975,3.146a0.5,0.5,0,0,0-.707,0L2.146,5.268a0.5,0.5,0,0,0,0,.707L2.854,6.682a0.5,0.5,0,0,0,.707,0l0.305-.305L4.961,7.509A10.993,10.993,0,1,0,14,4.05Zm6,5.3a9.049,9.049,0,1,1-1.424-1.4Z"/>
  </svg>