<svg id="S_SwitchContinurast_Xs_N_D_2x" data-name="S_SwitchContinurast_Xs_N_D@2x" xmlns="http://www.w3.org/2000/svg" width="26" height="26" viewBox="0 0 26 26">
  <defs>
    <style>
      .fill {
        fill: #fff;
        fill-rule: evenodd;
        opacity: 0.65;
      }

      
    </style>
  </defs>
  <title>S_SwitchContinurast_Xs_N_D@2x</title>
  <path class="fill" d="M22,12H17.9a4.969,4.969,0,0,0-.729-1.757L19,8.414A1,1,0,0,0,17.586,7L15.757,8.829A4.97,4.97,0,0,0,14,8.1V4a1,1,0,0,0-2,0V8.1a4.97,4.97,0,0,0-1.757.729L8.414,7A1,1,0,0,0,7,8.414l1.829,1.829A4.969,4.969,0,0,0,8.1,12H4a1,1,0,0,0,0,2H8.1a4.97,4.97,0,0,0,.729,1.757L7,17.586A1,1,0,0,0,8.414,19l1.829-1.829A4.97,4.97,0,0,0,12,17.9V22a1,1,0,0,0,2,0V17.9a4.971,4.971,0,0,0,1.759-.73l0,0L17.586,19A1,1,0,0,0,19,17.586l-1.829-1.829h0A4.969,4.969,0,0,0,17.9,14H22A1,1,0,0,0,22,12Zm-9,4a3,3,0,1,1,3-3A3,3,0,0,1,13,16Z"/>
  </svg>