<svg id="S_SwitchShyOff_Xs_N_D_2x" data-name="S_SwitchShyOff_Xs_N_D@2x" xmlns="http://www.w3.org/2000/svg" width="26" height="26" viewBox="0 0 26 26">
  <defs>
    <style>
      .fill {
        fill: #fff;
        opacity: 0.65;
      }

      
    </style>
  </defs>
  <title>S_SwitchShyOff_Xs_N_D@2x</title>
  <path class="fill" d="M21.979,12C21.38,5.685,18,2,13,2S4.62,5.685,4.021,12c-0.047.5,0,2,0,2H11v5a2,2,0,0,0,4,0V14h6.979S22.026,12.5,21.979,12Zm-12.59-.7a2.687,2.687,0,1,1,2.687-2.687A2.687,2.687,0,0,1,9.389,11.3Zm7.223,0A2.687,2.687,0,1,1,19.3,8.611,2.687,2.687,0,0,1,16.611,11.3Z"/>
  <rect class="fill" x="1" y="16" width="8" height="2"/>
  <rect class="fill" x="17" y="16" width="8" height="2"/>
  </svg>