<svg id="S_SwitchBlueMask_Sm_N_D_2x" data-name="S_SwitchBlueMask_Sm_N_D@2x" xmlns="http://www.w3.org/2000/svg" width="32" height="32" viewBox="0 0 32 32">
  <defs>
    <style>
      .fill, .fillMedium {
        fill: #fff;
      }

      .fill {
        fill-rule: evenodd;
        opacity: 0.65;
      }

      .fillMedium {
        opacity: 0.3;
      }

      .cls-1 {
        fill: #00d9ff;
      }

      
    </style>
  </defs>
  <title>S_SwitchBlueMask_Sm_N_D@2x</title>
  <path class="fill" d="M4,6V26a2,2,0,0,0,2,2H26a2,2,0,0,0,2-2V6a2,2,0,0,0-2-2H6A2,2,0,0,0,4,6ZM26,26H6V6H26Z"/>
  <path class="fillMedium" d="M14,10H10V6h4Zm-4,0H6v4h4ZM22,6H18v4h4Zm4,4H22v4h4Zm0,8H22v4h4Zm-4,4H18v4h4Zm-8,0H10v4h4Zm-4-4H6v4h4Zm6-8H14v.343A5.988,5.988,0,0,1,16,10Zm-6,4v2a5.988,5.988,0,0,1,.343-2Zm8-4H16a5.988,5.988,0,0,1,2,.343Zm-8,6v2h.343A5.988,5.988,0,0,1,10,16Zm11.657-2A5.988,5.988,0,0,1,22,16V14ZM14,22h2a5.988,5.988,0,0,1-2-.343Zm8-4V16a5.988,5.988,0,0,1-.343,2Zm-6,4h2v-.343A5.988,5.988,0,0,1,16,22Z"/>
  <circle class="cls-1" cx="16" cy="16" r="6"/>
  </svg>