<svg id="S_Switch3dPerSublayer_Xs_N_D_2x" data-name="S_Switch3dPerSublayer_Xs_N_D@2x" xmlns="http://www.w3.org/2000/svg" width="26" height="26" viewBox="0 0 26 26">
  <defs>
    <style>
      .fill {
        fill: #fff;
        fill-rule: evenodd;
        opacity: 0.65;
      }

      
    </style>
  </defs>
  <title>S_Switch3dPerSublayer_Xs_N_D@2x</title>
  <path class="fill" d="M14,7.689V6.732a1,1,0,0,0-.5-0.868l-6-3.429a1,1,0,0,0-.992,0l-6,3.429a1,1,0,0,0-.5.868v6.839a1,1,0,0,0,.5.868l6,3.429a1,1,0,0,0,.992,0L8.311,17.4,8.3,10.982ZM6,15.626L1.689,13.162V8.32l4.318,2.5ZM6.988,9.31L2.4,6.674,7,4.062l4.59,2.609ZM23.5,11.864l-6-3.429a1,1,0,0,0-.992,0l-6,3.429a1,1,0,0,0-.5.868v6.839a1,1,0,0,0,.5.868l6,3.429a1,1,0,0,0,.992,0l6-3.429a1,1,0,0,0,.5-0.868V12.732A1,1,0,0,0,23.5,11.864ZM16,21.626l-4.312-2.464V14.32l4.318,2.5Zm0.987-6.315L12.4,12.674,17,10.062l4.59,2.609Zm5.322,3.852L18,21.626l-0.006-4.81,4.318-2.5v4.842Z"/>
  </svg>