<?xml version="1.0" standalone="no"?><!DOCTYPE svg PUBLIC "-//W3C//DTD SVG 1.1//EN" "http://www.w3.org/Graphics/SVG/1.1/DTD/svg11.dtd"><svg id="SP_x2_Switchwell_Sm_N_D" viewBox="0 0 32 32" version="1.1"	xmlns="http://www.w3.org/2000/svg" xmlns:xlink="http://www.w3.org/1999/xlink" xml:space="preserve"	x="0px" y="0px" width="32px" height="32px">	<defs>		<linearGradient id="gradient1" x1="50%" y1="0%" x2="50%" y2="92.3077%">			<stop stop-color="#ebebeb" stop-opacity="1" offset="0%"/>			<stop stop-color="#272727" stop-opacity="1" offset="100%"/>		</linearGradient>	</defs>	<g id="@FrameExport">		<path id="SP_x2_Switchwell_Sm_N_D" d="M 0 0 L 32 0 L 32 32 L 0 32 L 0 0 Z" fill="#222222"/>	</g>	<g id="Layer%201">		<path opacity="0.1294" d="M 0 2 L 2 2 L 2 30 L 0 30 L 0 2 Z" fill="#000000"/>		<path opacity="0.149" d="M 2 30 L 30 30 L 30 32 L 2 32 L 2 30 Z" fill="#ffffff"/>		<path opacity="0.1294" d="M 30 2 L 32 2 L 32 30 L 30 30 L 30 2 Z" fill="#000000"/>		<path opacity="0.4196" d="M 2 0 L 30 0 L 30 2 L 2 2 L 2 0 Z" fill="#181818"/>		<path opacity="0.1294" d="M 2 2 L 30 2 L 30 4 L 2 4 L 2 2 Z" fill="#717171"/>		<path opacity="0.0392" d="M 30 4 L 2 4 L 2 30 L 30 30 L 30 4 Z" fill="url(#gradient1)"/>		<path opacity="0.2196" d="M 0 0 L 2 0 L 2 2 L 0 2 L 0 0 Z" fill="#101010"/>		<path opacity="0.2196" d="M 30 0 L 32 0 L 32 2 L 30 2 L 30 0 Z" fill="#101010"/>		<path opacity="0.1686" d="M 0 30 L 2 30 L 2 32 L 0 32 L 0 30 Z" fill="#4b4b4b"/>		<path opacity="0.1686" d="M 30 30 L 32 30 L 32 32 L 30 32 L 30 30 Z" fill="#4b4b4b"/>	</g></svg>