<svg id="S_SwitchPixelmotion_Xs_N_D_2x" data-name="S_SwitchPixelmotion_Xs_N_D@2x" xmlns="http://www.w3.org/2000/svg" width="26" height="26" viewBox="0 0 26 26">
  <defs>
    <style>
      .fill {
        fill: #fff;
        fill-rule: evenodd;
        opacity: 0.65;
      }

      
    </style>
  </defs>
  <title>S_SwitchPixelmotion_Xs_N_D@2x</title>
  <rect class="fill" y="6" width="4" height="4" rx="1" ry="1"/>
  <rect class="fill" y="12" width="4" height="4" rx="1" ry="1"/>
  <rect class="fill" y="18" width="4" height="4" rx="1" ry="1"/>
  <rect class="fill" x="22" y="2" width="4" height="4" rx="1" ry="1"/>
  <rect class="fill" x="22" y="12" width="4" height="4" rx="1" ry="1"/>
  <rect class="fill" x="22" y="22" width="4" height="4" rx="1" ry="1"/>
  <path class="fill" d="M12,9v3H6v4h6v3a1,1,0,0,0,1.8.6L19,14,13.8,8.4A1,1,0,0,0,12,9Z"/>
  </svg>