<svg id="S_TargetPoint_19x10_N_D_2x" data-name="S_TargetPoint_19x10_N_D@2x" xmlns="http://www.w3.org/2000/svg" width="38" height="20" viewBox="0 0 38 20">
  <defs>
    <style>
      .fill {
        fill: #fff;
        fill-rule: evenodd;
        opacity: 0.65;
      }

      
    </style>
  </defs>
  <title>S_TargetPoint_19x10_N_D@2x</title>
  <path class="fill" d="M19.5,8h-1a0.5,0.5,0,0,0-.5.5V10H16.5a0.5,0.5,0,0,0-.5.5v1a0.5,0.5,0,0,0,.5.5H18v1.5a0.5,0.5,0,0,0,.5.5h1a0.5,0.5,0,0,0,.5-0.5V12h1.5a0.5,0.5,0,0,0,.5-0.5v-1a0.5,0.5,0,0,0-.5-0.5H20V8.5A0.5,0.5,0,0,0,19.5,8Z"/>
  <path class="fill" d="M25.92,10A6.993,6.993,0,0,0,20,4.08V2.5A0.5,0.5,0,0,0,19.5,2h-1a0.5,0.5,0,0,0-.5.5V4.08A6.993,6.993,0,0,0,12.08,10H8.5a0.5,0.5,0,0,0-.5.5v1a0.5,0.5,0,0,0,.5.5h3.58A6.993,6.993,0,0,0,18,17.92V19.5a0.5,0.5,0,0,0,.5.5h1a0.5,0.5,0,0,0,.5-0.5V17.92A6.993,6.993,0,0,0,25.92,12H29.5a0.5,0.5,0,0,0,.5-0.5v-1a0.5,0.5,0,0,0-.5-0.5H25.92ZM19,16.5A5.5,5.5,0,1,1,24.5,11,5.517,5.517,0,0,1,19,16.5Z"/>
  </svg>