<svg id="S_TextBaselineShift_Md_N_D2x" data-name="S_TextBaselineShift_Md_N_D@2x" xmlns="http://www.w3.org/2000/svg" width="36" height="36" viewBox="0 0 36 36">
  <defs>
    <style>
      .fill {
        fill: #fff;
        fill-rule: evenodd;
        opacity: 0.65;
      }

      
    </style>
  </defs>
  <title>S_TextBaselineShift_Md_N_D@2x</title>
  <rect class="fill" x="2" y="26" width="18" height="2" rx="0.5" ry="0.5"/>
  <rect class="fill" x="20" y="18" width="12" height="2" rx="0.5" ry="0.5"/>
  <path class="fill" d="M22.548,28H26v5.5a0.5,0.5,0,0,0,.5.5h1a0.5,0.5,0,0,0,.5-0.5V28h3.484a0.5,0.5,0,0,0,.384-0.82L27,22l-4.836,5.18A0.5,0.5,0,0,0,22.548,28Z"/>
  <path class="fill" d="M17.762,24h1.482a0.5,0.5,0,0,0,.46-0.7L12.5,6.391A0.643,0.643,0,0,0,11.912,6H10.226a0.643,0.643,0,0,0-.59.387L2.3,23.3a0.5,0.5,0,0,0,.459.7H4.236A0.5,0.5,0,0,0,4.7,23.69L7,18h8l2.3,5.693A0.5,0.5,0,0,0,17.762,24ZM11,8.006L14.327,16H7.71Z"/>
  <path class="fill" d="M25.892,15.99a10.162,10.162,0,0,0,3.935-.768,0.259,0.259,0,0,0,.167-0.266,7.551,7.551,0,0,1-.058-0.986V9.931c0-2.371-1.406-3.731-3.859-3.731a7.686,7.686,0,0,0-2.868.512,0.254,0.254,0,0,0-.153.238V8.333c0,0.2.191,0.272,0.389,0.136a3.814,3.814,0,0,1,2.242-.6c2.173,0,2.284,1.418,2.284,1.7v0.472l-0.239-.025C27.556,10,27.09,9.981,26.486,9.981c-2.75,0-4.392,1.1-4.392,2.954C22.094,14.848,23.514,15.99,25.892,15.99Zm0.737-4.464a8.884,8.884,0,0,1,1.154.061l0.241,0.043v2.556l-0.188.079a4.022,4.022,0,0,1-1.535.254c-2.006,0-2.351-.777-2.351-1.493S24.522,11.525,26.63,11.525Z"/>
  </svg>
