<svg id="S_TextFirstLineIndent_Md_N_D2x" data-name="S_TextFirstLineIndent_Md_N_D@2x" xmlns="http://www.w3.org/2000/svg" width="36" height="36" viewBox="0 0 36 36">
  <defs>
    <style>
      .fill {
        fill: #fff;
        opacity: 0.65;
      }

      
    </style>
  </defs>
  <title>S_TextFirstLineIndent_Md_N_D@2x</title>
  <path class="fill" d="M8.82,0.164A0.5,0.5,0,0,0,8,.548V4H2.5a0.5,0.5,0,0,0-.5.5v1a0.5,0.5,0,0,0,.5.5H8V9.484a0.5,0.5,0,0,0,.82.384L14,5Z"/>
  <rect class="fill" x="22" y="4" width="10" height="2" rx="0.5" ry="0.5"/>
  <rect class="fill" x="14" y="10" width="20" height="2" rx="0.5" ry="0.5"/>
  <rect class="fill" x="14" y="22" width="20" height="2" rx="0.5" ry="0.5"/>
  <rect class="fill" x="14" y="16" width="18" height="2" rx="0.5" ry="0.5"/>
  <rect class="fill" x="14" y="28" width="18" height="2" rx="0.5" ry="0.5"/>
  </svg>