<svg id="S_TextRightIndent_Md_N_D2x" data-name="S_TextRightIndent_Md_N_D@2x" xmlns="http://www.w3.org/2000/svg" width="36" height="36" viewBox="0 0 36 36">
  <defs>
    <style>
      .fill {
        fill: #fff;
        fill-rule: evenodd;
        opacity: 0.65;
      }

      
    </style>
  </defs>
  <title>S_TextRightIndent_Md_N_D@2x</title>
  <rect class="fill" x="2" y="4" width="10" height="2" rx="0.5" ry="0.5"/>
  <rect class="fill" x="2" y="10" width="14" height="2" rx="0.5" ry="0.5"/>
  <rect class="fill" x="2" y="22" width="14" height="2" rx="0.5" ry="0.5"/>
  <rect class="fill" x="2" y="16" width="10" height="2" rx="0.5" ry="0.5"/>
  <rect class="fill" x="2" y="28" width="10" height="2" rx="0.5" ry="0.5"/>
  <rect class="fill" x="18" y="2" width="2" height="30" rx="0.5" ry="0.5"/>
  <path class="fill" d="M27.18,12.164a0.5,0.5,0,0,1,.82.384V16h5.5a0.5,0.5,0,0,1,.5.5v1a0.5,0.5,0,0,1-.5.5H28v3.484a0.5,0.5,0,0,1-.82.384L22,17Z"/>
  </svg>