<svg id="S_Text_Xs_N_D2x" data-name="S_Text_Xs_N_D@2x" xmlns="http://www.w3.org/2000/svg" width="26" height="26" viewBox="0 0 26 26">
  <defs>
    <style>
      .fill {
         fill: #fff;
        fill-rule: evenodd;
        opacity: 0.65;
      }

      
    </style>
  </defs>
  <title>S_Text_Xs_N_D@2x</title>
  <path class="fill" d="M19.5,4a0.5,0.5,0,0,1,.5.5v3a0.5,0.5,0,0,1-.5.5h-1A0.5,0.5,0,0,1,18,7.5V6H14V20h1.5a0.5,0.5,0,0,1,.5.5v1a0.5,0.5,0,0,1-.5.5h-7A0.5,0.5,0,0,1,8,21.5v-1A0.5,0.5,0,0,1,8.5,20H10V6H6V7.473a0.5,0.5,0,0,1-.5.5h-1a0.5,0.5,0,0,1-.5-0.5V4.5A0.5,0.5,0,0,1,4.5,4h15Z"/>
  </svg>