<svg id="S_TextHorizScale_Md_N_D2x" data-name="S_TextHorizScale_Md_N_D@2x" xmlns="http://www.w3.org/2000/svg" width="36" height="36" viewBox="0 0 36 36">
  <defs>
    <style>
      .fill {
        fill: #fff;
        fill-rule: evenodd;
        opacity: 0.65;
      }

      
    </style>
  </defs>
  <title>S_TextHorizScale_Md_N_D@2x</title>
  <path class="fill" d="M0,31l5.146,4.805A0.5,0.5,0,0,0,6,35.452V32H28v3.484a0.5,0.5,0,0,0,.82.384L34,31l-5.18-4.836a0.5,0.5,0,0,0-.82.384V30H6V26.516a0.5,0.5,0,0,0-.854-0.354Z" transform="translate(0)"/>
  <path class="fill" d="M5,2A1,1,0,0,0,4,3V9a1,1,0,0,0,1,1H7A1,1,0,0,0,8,9V6h6V22H11a1,1,0,0,0-1,1v2a1,1,0,0,0,1,1H23a1,1,0,0,0,1-1V23a1,1,0,0,0-1-1H20V6h6V9a1,1,0,0,0,1,1h2a1,1,0,0,0,1-1V3a1,1,0,0,0-1-1H5Z" transform="translate(0)"/>
  </svg>
