<svg id="S_TextSubscript_Md_N_D2x" data-name="S_TextSubscript_Md_N_D@2x" xmlns="http://www.w3.org/2000/svg" width="36" height="36" viewBox="0 0 36 36">
  <defs>
    <style>
      .fill {
        fill: #fff;
        fill-rule: evenodd;
        opacity: 0.65;
      }

      
    </style>
  </defs>
  <title>S_TextSubscript_Md_N_D@2x</title>
  <path class="fill" d="M23.5,8a0.5,0.5,0,0,1,.5.5v3a0.5,0.5,0,0,1-.5.5h-1a0.5,0.5,0,0,1-.5-0.5V10H16V26h1.5a0.5,0.5,0,0,1,.5.5v1a0.5,0.5,0,0,1-.5.5h-7a0.5,0.5,0,0,1-.5-0.5v-1a0.5,0.5,0,0,1,.5-0.5H12V10H6v1.473a0.5,0.5,0,0,1-.5.5h-1a0.5,0.5,0,0,1-.5-0.5V8.5A0.5,0.5,0,0,1,4.5,8h19Z"/>
  <path class="fill" d="M24,22.5v0.81a0.5,0.5,0,0,0,.5.5H26V28H24.5a0.5,0.5,0,0,0-.5.5v1a0.5,0.5,0,0,0,.5.5h5a0.5,0.5,0,0,0,.5-0.5v-1a0.5,0.5,0,0,0-.5-0.5H28V22.5a0.5,0.5,0,0,0-.5-0.5h-3A0.5,0.5,0,0,0,24,22.5Z"/>
  </svg>
