<svg id="S_TextVertTopIndent_Md_N_D_2x" data-name="S_TextVertTopIndent_Md_N_D@2x" xmlns="http://www.w3.org/2000/svg" width="36" height="36" viewBox="0 0 36 36">
  <defs>
    <style>
      .fill {
        fill: #fff;
        fill-rule: evenodd;
        opacity: 0.65;
      }

      
    </style>
  </defs>
  <title>S_TextVertTopIndent_Md_N_D@2x</title>
  <rect class="fill" x="30" y="20" width="2" height="10" rx="0.5" ry="0.5"/>
  <rect class="fill" x="24" y="20" width="2" height="14" rx="0.5" ry="0.5"/>
  <rect class="fill" x="12" y="20" width="2" height="14" rx="0.5" ry="0.5"/>
  <rect class="fill" x="18" y="20" width="2" height="10" rx="0.5" ry="0.5"/>
  <rect class="fill" x="6" y="20" width="2" height="10" rx="0.5" ry="0.5"/>
  <rect class="fill" x="4" y="16" width="30" height="2" rx="0.5" ry="0.5"/>
  <path class="fill" d="M23.836,8.82A0.5,0.5,0,0,0,23.452,8H20V2.5A0.5,0.5,0,0,0,19.5,2h-1a0.5,0.5,0,0,0-.5.5V8H14.516a0.5,0.5,0,0,0-.384.82L19,14Z"/>
  </svg>
