<svg id="S_TextLeading_Md_N_D_2x" data-name="S_TextLeading_Md_N_D@2x" xmlns="http://www.w3.org/2000/svg" width="36" height="36" viewBox="0 0 36 36">
  <defs>
    <style>
      .fill {
        fill: #fff;
        fill-rule: evenodd;
        opacity: 0.65;
      }

      
    </style>
  </defs>
  <title>S_TextLeading_Md_N_D@2x</title>
  <path class="fill" d="M25.68,8H20.35L23,1.56Zm-6.04,2h6.69L28,14h2L24.169,0.3a0.5,0.5,0,0,0-.46-0.3H22.4a0.5,0.5,0,0,0-.459.3L16,14h2Z"/>
  <path class="fill" d="M25.68,26H20.35L23,19.56Zm-6.04,2h6.69L28,32h2L24.169,18.3a0.5,0.5,0,0,0-.46-0.3H22.4a0.5,0.5,0,0,0-.459.3L16,32h2Z"/>
  <rect class="fill" x="12" y="14" width="22" height="2" rx="0.5" ry="0.5"/>
  <rect class="fill" x="12" y="32" width="22" height="2" rx="0.5" ry="0.5"/>
  <path class="fill" d="M7,14L1.854,19.146A0.5,0.5,0,0,0,2.207,20H6v8H3.068a0.5,0.5,0,0,0-.384.82L7,34l4.317-5.18A0.5,0.5,0,0,0,10.932,28H8V20h3.793a0.5,0.5,0,0,0,.354-0.854Z"/>
  </svg>
