<svg id="S_TextLeftIndent_Md_N_D2x" data-name="S_TextLeftIndent_Md_N_D@2x" xmlns="http://www.w3.org/2000/svg" width="36" height="36" viewBox="0 0 36 36">
  <defs>
    <style>
      .fill {
        fill: #fff;
        fill-rule: evenodd;
        opacity: 0.65;
      }

      
    </style>
  </defs>
  <title>S_TextLeftIndent_Md_N_D@2x</title>
  <rect class="fill" x="20" y="4" width="10" height="2" rx="0.5" ry="0.5"/>
  <rect class="fill" x="20" y="10" width="14" height="2" rx="0.5" ry="0.5"/>
  <rect class="fill" x="20" y="22" width="14" height="2" rx="0.5" ry="0.5"/>
  <rect class="fill" x="20" y="16" width="10" height="2" rx="0.5" ry="0.5"/>
  <rect class="fill" x="20" y="28" width="10" height="2" rx="0.5" ry="0.5"/>
  <rect class="fill" x="16" y="2" width="2" height="30" rx="0.5" ry="0.5"/>
  <path class="fill" d="M8.82,12.164a0.5,0.5,0,0,0-.82.384V16H2.5a0.5,0.5,0,0,0-.5.5v1a0.5,0.5,0,0,0,.5.5H8v3.484a0.5,0.5,0,0,0,.82.384L14,17Z"/>
  </svg>