<svg id="S_TextVertBottomIndent_Md_N_D_2x" data-name="S_TextVertBottomIndent_Md_N_D@2x" xmlns="http://www.w3.org/2000/svg" width="36" height="36" viewBox="0 0 36 36">
  <defs>
    <style>
      .fill {
        fill: #fff;
        fill-rule: evenodd;
        opacity: 0.65;
      }

      
    </style>
  </defs>
  <title>S_TextVertBottomIndent_Md_N_D@2x</title>
  <rect class="fill" x="30" y="2" width="2" height="10" rx="0.5" ry="0.5"/>
  <rect class="fill" x="24" y="2" width="2" height="14" rx="0.5" ry="0.5"/>
  <rect class="fill" x="12" y="2" width="2" height="14" rx="0.5" ry="0.5"/>
  <rect class="fill" x="18" y="2" width="2" height="10" rx="0.5" ry="0.5"/>
  <rect class="fill" x="6" y="2" width="2" height="10" rx="0.5" ry="0.5"/>
  <rect class="fill" x="4" y="18" width="30" height="2" rx="0.5" ry="0.5"/>
  <path class="fill" d="M23.836,27.18a0.5,0.5,0,0,1-.384.82H20v5.5a0.5,0.5,0,0,1-.5.5h-1a0.5,0.5,0,0,1-.5-0.5V28H14.516a0.5,0.5,0,0,1-.384-0.82L19,22Z"/>
  </svg>
