<svg id="S_TextParaDirR2L_Md_N_D_2x" data-name="S_TextParaDirR2L_Md_N_D@2x" xmlns="http://www.w3.org/2000/svg" width="36" height="36" viewBox="0 0 36 36">
  <defs>
    <style>
      .fill {
        fill: #fff;
        fill-rule: evenodd;
        opacity: 0.65;
      }

      
    </style>
  </defs>
  <title>S_TextParaDirR2L_Md_N_D@2x</title>
  <path class="fill" d="M9,6a7,7,0,0,0-7,7.215A7.194,7.194,0,0,0,9.294,20H12v9a1,1,0,0,0,2,0V8h4V29a1,1,0,0,0,2,0V7a1,1,0,0,0-1-1H9Z"/>
  <path class="fill" d="M34,25V9a1,1,0,0,0-1.669-.743L24,17l8.331,8.741A1,1,0,0,0,34,25Z"/>
  </svg>
