<svg id="S_thumbnailWaveform_114x12_N_D_2x" data-name="S_thumbnailWaveform_114x12_N_D@2x" xmlns="http://www.w3.org/2000/svg" width="228" height="24" viewBox="0 0 228 24">
  <defs>
    <style>
      .fill {
        fill: #fff;
        fill-rule: evenodd;
        opacity: 0.65;
      }

      
    </style>
  </defs>
  <title>S_thumbnailWaveform_114x12_N_D@2x</title>
  <path class="fill" d="M225.236,8.933c-.882,0-.882-5.658-1.764-5.658s-.881,6.886-1.762,6.886-.879-7.975-1.758-7.975-.88,1.446-1.76,1.446-.879,4.839-1.758,4.839-.878-3.186-1.756-3.186-.879,1.376-1.759,1.376-.876,2.162-1.753,2.162-.879-3.357-1.757-3.357-.879,4.773-1.758,4.773-.878.618-1.756.618-.879-.732-1.757-.732S203.26,2,202.382,2s-.879,2.935-1.757,2.935-.878,4.523-1.755,4.523-.877-3.119-1.754-3.119-.878.3-1.756.3-.878,1.883-1.756,1.883-.877-.806-1.753-.806-.876,3.311-1.752,3.311-.877.445-1.753.445-.878-1.646-1.756-1.646-.877-1.745-1.754-1.745-.876,1.224-1.751,1.224-.875-7.277-1.75-7.277-.875,2.32-1.75,2.32-.875,2.169-1.751,2.169-.876,2.83-1.753,2.83-.878-5.676-1.756-5.676-.877,7.979-1.754,7.979-.877-6.459-1.754-6.459-.877,4.077-1.754,4.077-.877-2.711-1.755-2.711-.878-4-1.755-4-.877.03-1.754.03-.877,6.15-1.753,6.15-.877,2.448-1.753,2.448-.877-6.414-1.754-6.414-.877,3.448-1.755,3.448-.877-.758-1.755-.758-.877-1.136-1.753-1.136S152.4,2.5,151.523,2.5s-.876-.013-1.752-.013-.876,6.034-1.752,6.034-.876,1.4-1.753,1.4-.877.119-1.754.119-.877.265-1.755.265S141.88,9.183,141,9.183s-.876-4.168-1.753-4.168-.876.893-1.752.893-.876.821-1.751.821-.876.715-1.751.715-.876-4.736-1.752-4.736-.876,3.381-1.752,3.381-.876-.817-1.753-.817-.877,1.421-1.754,1.421-.877-3.546-1.754-3.546-.876.278-1.753.278-.876,3.168-1.752,3.168-.875-.248-1.751-.248-.875-.634-1.75-.634-.875,5.723-1.75,5.723-.875-4.82-1.75-4.82-.875,4.971-1.75,4.971-.875.053-1.75.053-.875-1.307-1.751-1.307-.876-5.509-1.751-5.509-.876,4.57-1.752,4.57-.877-1.349-1.753-1.349-.877-4.924-1.754-4.924-.876,6.2-1.752,6.2-.876-4.51-1.751-4.51S98.086,8.3,97.211,8.3s-.875,1.671-1.75,1.671-.875-.149-1.749-.149S92.838,3.9,91.964,3.9s-.874,2.258-1.748,2.258-.874.154-1.748.154-.874-.066-1.748-.066-.874.7-1.748.7-.874,2.61-1.748,2.61-.874-2.278-1.749-2.278S80.6,3.3,79.725,3.3s-.875,6.411-1.75,6.411-.875,1.926-1.75,1.926-.876-1.123-1.751-1.123S73.6,8.229,72.722,8.229,71.845,5.48,70.969,5.48s-.876-1.316-1.752-1.316S68.341,10.1,67.466,10.1s-.875-7.353-1.75-7.353-.875,3.119-1.749,3.119S63.092,2.05,62.218,2.05s-.874,3.932-1.748,3.932-.874,1.3-1.747,1.3-.873-4.972-1.746-4.972-.873-.124-1.746-.124-.873,7.17-1.746,7.17-.873-3.073-1.746-3.073-.873,1.5-1.745,1.5-.873-.613-1.745-.613S47.376,8.743,46.5,8.743s-.873-4.431-1.745-4.431-.873,5.032-1.746,5.032-.875-2.663-1.75-2.663-.875,1.81-1.75,1.81-.875-6.423-1.75-6.423-.875,9.618-1.75,9.618-.875-4.978-1.75-4.978S33.385,3.4,32.51,3.4s-.875,6.859-1.751,6.859-.876-7.9-1.751-7.9-.876,7.125-1.751,7.125-.876,1.669-1.752,1.669-.876.634-1.752.634S22.878,8.5,22,8.5s-.876-4.626-1.751-4.626S19.375,6.086,18.5,6.086s-.875,4.454-1.75,4.454S15.875,5.158,15,5.158s-.875,5.83-1.75,5.83-.875-3.365-1.75-3.365S10.625,6.39,9.75,6.39s-.875.329-1.75.329-.875,4.963-1.75,4.963S5.375,4.768,4.5,4.768s-.875-.575-1.75-.575S1.875,12,1,12c.875,0,.875,7.807,1.75,7.807s.875-.575,1.75-.575.875-6.913,1.75-6.913S7.125,17.281,8,17.281s.875.329,1.75.329.875-1.233,1.75-1.233.875-3.365,1.75-3.365.875,5.83,1.75,5.83.875-5.381,1.75-5.381.875,4.454,1.75,4.454.875,2.209,1.751,2.209S21.126,15.5,22,15.5s.876-3.277,1.751-3.277.876.634,1.752.634.876,1.669,1.752,1.669.876,7.125,1.751,7.125.875-7.9,1.751-7.9S31.635,20.6,32.51,20.6s.875-3.313,1.751-3.313.875-4.978,1.75-4.978.875,9.618,1.75,9.618.875-6.423,1.75-6.423.875,1.81,1.75,1.81.875-2.663,1.75-2.663.873,5.032,1.746,5.032.873-4.431,1.745-4.431.873,1.572,1.745,1.572.873-.614,1.745-.614.873,1.5,1.745,1.5.873-3.073,1.746-3.073.873,7.17,1.746,7.17.873-.124,1.746-.124.873-4.972,1.746-4.972.874,1.3,1.747,1.3.874,3.932,1.748,3.932.874-3.813,1.748-3.813.875,3.119,1.749,3.119.875-7.353,1.75-7.353.875,5.932,1.751,5.932.876-1.316,1.752-1.316.877-2.748,1.753-2.748.876-2.286,1.752-2.286.876-1.123,1.751-1.123.875,1.926,1.75,1.926.875,6.411,1.75,6.411.875-3.974,1.749-3.974.874-2.278,1.749-2.278.874,2.61,1.748,2.61.874.7,1.748.7.874-.066,1.748-.066.874.154,1.748.154.874,2.258,1.748,2.258.874-5.927,1.749-5.927.875-.149,1.749-.149.875,1.671,1.75,1.671.875,3.494,1.75,3.494.876-4.51,1.751-4.51.876,6.2,1.752,6.2.877-4.924,1.754-4.924.877-1.349,1.753-1.349.876,4.57,1.752,4.57.876-5.509,1.751-5.509.875-1.307,1.751-1.307.875.053,1.75.053.875,4.971,1.75,4.971.875-4.82,1.75-4.82.875,5.723,1.75,5.723.875-.634,1.75-.634.875-.248,1.751-.248.876,3.168,1.752,3.168.876.278,1.753.278.877-3.546,1.754-3.546.877,1.421,1.754,1.421.876-.817,1.753-.817.876,3.381,1.752,3.381.876-4.736,1.752-4.736.876.715,1.751.715.876.821,1.751.821.876.893,1.752.893.876-4.168,1.753-4.168.877-1.117,1.753-1.117.877.265,1.755.265.877.119,1.754.119.877,1.4,1.753,1.4.876,6.034,1.752,6.034.876-.013,1.752-.013.876-3.836,1.753-3.836.877-1.136,1.753-1.136.877-.758,1.755-.758.877,3.448,1.755,3.448.877-6.414,1.754-6.414.877,2.448,1.753,2.448.877,6.15,1.753,6.15.877.03,1.754.03.878-4,1.755-4,.877-2.711,1.755-2.711.877,4.077,1.754,4.077.877-6.459,1.754-6.459.877,7.979,1.754,7.979.878-5.676,1.756-5.676.876,2.83,1.753,2.83.875,2.169,1.751,2.169.875,2.32,1.75,2.32.875-7.277,1.75-7.277.876,1.225,1.751,1.225.877-1.745,1.754-1.745.878-1.646,1.756-1.646.877.444,1.753.444.876,3.311,1.752,3.311.877-.806,1.753-.806.878,1.883,1.756,1.883.878.3,1.756.3.877-3.119,1.754-3.119.878,4.523,1.755,4.523S201.5,22,202.382,22s.878-8.125,1.755-8.125.879-.732,1.757-.732.878.618,1.756.618.879,4.773,1.758,4.773.879-3.357,1.757-3.357.876,2.162,1.753,2.162.879,1.376,1.759,1.376.878-3.186,1.756-3.186.879,4.839,1.758,4.839.88,1.446,1.76,1.446.879-7.975,1.758-7.975.881,6.886,1.762,6.886.882-5.658,1.764-5.658S226.118,12,227,12C226.118,12,226.118,8.933,225.236,8.933Z"/>
  </svg>