<svg id="S_TLWToggleSwitches_Xs_N_D_2x" data-name="S_TLWToggleSwitches_Xs_N_D@2x" xmlns="http://www.w3.org/2000/svg" width="26" height="26" viewBox="0 0 26 26">
  <defs>
    <style>
      .fill {
        fill: #fff;
        opacity: 0.65;
      }

      
    </style>
  </defs>
  <title>S_TLWToggleSwitches_Xs_N_D@2x</title>
  <path class="fill" d="M23,10H20V7a1,1,0,0,0-1-1H16V3a1,1,0,0,0-1-1H3A1,1,0,0,0,2,3V15a1,1,0,0,0,1,1H6v3a1,1,0,0,0,1,1h3v3a1,1,0,0,0,1,1H23a1,1,0,0,0,1-1V11A1,1,0,0,0,23,10ZM6,7v7H4V4H14V6H7A1,1,0,0,0,6,7Zm4,4v7H8V8H18v2H11A1,1,0,0,0,10,11ZM22,22H12V12H22V22Z"/>
  <circle class="fill" cx="17" cy="17" r="2.3"/>
  </svg>