<svg xmlns="http://www.w3.org/2000/svg" width="26" height="26" viewBox="0 0 26 26">
  <defs>
    <style>
      .fill {
        fill: #fff;
        opacity: 0.65;
      }
    </style>
  </defs>
  <g id="i_c_o_n_s" data-name="i c o n s">
    <path class="fill" d="M23.918,7.70857a2.08194,2.08194,0,0,0-2.082,2.08159,2.77531,2.77531,0,0,0,.74763,1.522l-4.16692,6.86371c-.00853-.00174.84254-7.74381.84254-7.74381a1.78819,1.78819,0,0,0,2.01385-1.97283,2.082,2.082,0,0,0-4.164,0,1.695,1.695,0,0,0,.98035,1.65187l-.756,7.22222H12.96057A7.2124,7.2124,0,1,0,1.44444,11.55556c0,3.06207,1.58456,5.95414,5.84278,6.51935C4.866,19.929,2.68176,19.44843,1.11713,19.78687c-1.02281.22129-.60291,1.8798.44446,1.8798H22.88823c1.19268-.04579.21046-.96056-.76252-1.28007-.597-.196-.798-1.32976-.798-1.32976-.1742-.52216-.69854-.85568-1.0998-1.194l3.26978-6.126c.055.00564.34133.1352.42034.1352a2.08173,2.08173,0,1,0,0-4.16346Z"/>
  </g>
</svg>
