<?xml version="1.0" encoding="utf-8"?>
<!-- Generator: Adobe Illustrator 27.4.0, SVG Export Plug-In . SVG Version: 6.00 Build 0)  -->
<svg version="1.1" id="S_TLWLayerTypeVector_Xs_N_D_2x"
	 xmlns="http://www.w3.org/2000/svg" xmlns:xlink="http://www.w3.org/1999/xlink" x="0px" y="0px" viewBox="0 0 26 26"
	 style="enable-background:new 0 0 26 26;" xml:space="preserve">
<style type="text/css">
	.fillPale{opacity:0.15;fill:#FFFFFF;}
</style>
<path class="fillPale" d="M13.5,2.4l2.8,7.3L24,10c0.3,0,0.5,0.3,0.5,0.5c0,0.1-0.1,0.3-0.2,0.4l-6.1,4.9l2.1,7.5
	c0.1,0.3-0.1,0.6-0.4,0.6c-0.1,0-0.3,0-0.4-0.1L13,19.6l-6.5,4.3C6.3,24,5.9,24,5.8,23.7c-0.1-0.1-0.1-0.3-0.1-0.4l2.1-7.5l-6.1-4.9
	c-0.2-0.2-0.3-0.5-0.1-0.7C1.7,10.1,1.8,10,2,10l7.8-0.4l2.8-7.3c0.1-0.3,0.4-0.4,0.7-0.3C13.3,2.1,13.4,2.2,13.5,2.4z"/>
</svg>
