<svg xmlns="http://www.w3.org/2000/svg" data-name="S_TLWToggleInOut_Xs_N@2x" height="26" id="S_TLWToggleInOut_Xs_N_2x" viewBox="0 0 26 26" width="26">
  <defs>
    <style>
      .fill{
		fill: #000;
		opacity: 0.65;
		fill-rule: evenodd;
		}

      .fillPale{
		fill: #000;
		opacity: 0.15;
		fill-rule: evenodd;
		}
  
    </style>
  </defs>
  <path class="fillPale" d="M17,23V16l4-3-4-3V3a1,1,0,0,1,1-1H8A1,1,0,0,1,9,3v7L5,13l4,3v7a1,1,0,0,1-1,1H18A1,1,0,0,1,17,23Z" />
  <path class="fill" d="M17,3v7l4,3-4,3v7a1,1,0,0,0,1,1h1a1,1,0,0,0,1-1V17l5-4L20,9V3a1,1,0,0,0-1-1H18A1,1,0,0,0,17,3Z" id="Fill" />
  <path class="fill" d="M9,23V16L5,13l4-3V3A1,1,0,0,0,8,2H7A1,1,0,0,0,6,3V9L1,13l5,4v6a1,1,0,0,0,1,1H8A1,1,0,0,0,9,23Z" data-name="Fill" id="Fill-2" />
  </svg>