<svg id="S_TlLayerMarker_12x11_N_D_2x" data-name="S_TlLayerMarker_12x11_N_D@2x" xmlns="http://www.w3.org/2000/svg" width="24" height="22" viewBox="0 0 24 22">
  <defs>
    <style>
      .background, .fill {
        opacity: 0.65;
      }

      .fill {
        fill: #fff;
        fill-rule: evenodd;
      }

      
    </style>
  </defs>
  <title>S_TlLayerMarker_12x11_N_D@2x</title>
  <path class="background" d="M21.673,11.7l-10-9.091a1,1,0,0,0-1.345,0L.327,11.7a1,1,0,0,0-.327.74V21a1,1,0,0,0,1,1H21a1,1,0,0,0,1-1V12.442A1,1,0,0,0,21.673,11.7ZM20,20H2V12.885L11,4.7l9,8.183Z"/>
  <polygon class="fill" points="20 20 2 20 2 12.885 11 4.702 20 12.885 20 20"/>
  </svg>