<svg id="S_TLWToggleModes_Xs_N_D_2x" data-name="S_TLWToggleModes_Xs_N_D@2x" xmlns="http://www.w3.org/2000/svg" width="26" height="26" viewBox="0 0 26 26">
  <defs>
    <style>
      .fill {
        fill: #fff;
        fill-rule: evenodd;
        opacity: 0.65;
      }

      
    </style>
  </defs>
  <title>S_TLWToggleModes_Xs_N_D@2x</title>
  <path class="fill" d="M18,10a8,8,0,1,0-8,8v5a1,1,0,0,0,1,1H23a1,1,0,0,0,1-1V11a1,1,0,0,0-1-1H18ZM4.135,8.709A6,6,0,0,1,16,10H11a1,1,0,0,0-1,1v5A6.007,6.007,0,0,1,4.135,8.709ZM22,22H12V17.748A8.014,8.014,0,0,0,17.748,12H22V22Z"/>
  </svg>