<svg id="S_ToggleAlpha_16x13_N_D_2x" data-name="S_ToggleAlpha_16x13_N_D@2x" xmlns="http://www.w3.org/2000/svg" width="32" height="26" viewBox="0 0 32 26">
  <defs>
    <style>
      .fill {
        fill: #fff;
        fill-rule: evenodd;
        opacity: 0.65;
      }

      
    </style>
  </defs>
  <title>S_ToggleAlpha_16x13_N_D@2x</title>
  <circle class="fill" cx="15.358" cy="4.467" r="2.359"/>
  <path class="fill" d="M17.079,10.67,19.446,12.7l3.667-2.75a.571.571,0,0,0,.061-.861l-.251-.251a.571.571,0,0,0-.721-.071l-2.756,1.837-2.1-2.1-3.71-.927a1.048,1.048,0,0,0-.883.178L9.131,10.479a.571.571,0,0,0-.215.335l-.9,4.118a.571.571,0,0,0,.329.646h0a.571.571,0,0,0,.784-.385l.884-3.537,3.145-1.712v4.721l-1.048,5.378-1.755,2.633a.752.752,0,0,0,.094.948h0a.752.752,0,0,0,1.133-.081L13.6,20.784l1.35-3.7H15.1l2.687,3.257.359,2.937a.827.827,0,0,0,.821.727h0a.827.827,0,0,0,.825-.893L19.5,19.441l-2.98-4.319Z"/>
  </svg>