<svg id="S_TransparencyGrid_Sm_N_D_2x" data-name="S_TransparencyGrid_Sm_N_D@2x" xmlns="http://www.w3.org/2000/svg" width="32" height="32" viewBox="0 0 32 32">
  <defs>
    <style>
      .fill, .fillMedium {
        fill: #fff;
      }

      .fill {
        fill-rule: evenodd;
        opacity: 0.65;
      }

      .fillMedium {
        opacity: 0.3;
      }

      
    </style>
  </defs>
  <title>S_TransparencyGrid_Sm_N_D@2x</title>
  <path class="fill" d="M2,7V27a1,1,0,0,0,1,1H29a1,1,0,0,0,1-1V7a1,1,0,0,0-1-1H3A1,1,0,0,0,2,7ZM28,26H4V8H28V26Z"/>
  <rect class="fillMedium" x="10" y="8" width="6" height="6"/>
  <rect class="fillMedium" x="22" y="8" width="6" height="6"/>
  <rect class="fillMedium" x="4" y="14" width="6" height="6"/>
  <rect class="fillMedium" x="16" y="14" width="6" height="6"/>
  <rect class="fillMedium" x="10" y="20" width="6" height="6"/>
  <rect class="fillMedium" x="22" y="20" width="6" height="6"/>
  </svg>