<svg xmlns="http://www.w3.org/2000/svg" data-name="S_Transparency_18_N@2x" height="36" id="S_Transparency_18_N_2x" viewBox="0 0 36 36" width="36">
  <defs>
    <style>
      .fill {
        fill: #707070;
      }

      
    </style>
  </defs>
  <rect class="fill" height="6" width="6" x="12" y="12" />
  <rect class="fill" height="6" width="6" x="18" y="18" />
  <path class="fill" d="M31,4H5A1,1,0,0,0,4,5V31a1,1,0,0,0,1,1H31a1,1,0,0,0,1-1V5A1,1,0,0,0,31,4Zm-1,8H24v6h6v6H24v6H18V24H12v6H6V24h6V18H6V12h6V6h6v5.98h6V6h6Z" />
  </svg>