<svg id="S_UnLocked_Xs_N_2x" data-name="S_UnLocked_Xs_N@2x" xmlns="http://www.w3.org/2000/svg" width="26" height="26" viewBox="0 0 26 26">
  <defs>
    <style>
      .fill {
        fill-rule: evenodd;
        opacity: 0.65;
        fill: #fff;
      }

      
    </style>
  </defs>
  <title>S_UnLocked_Xs_N@2x</title>
  <path class="fill" d="M21,10H8.505V6.254c0-2.068,1.5-3.75,4.543-3.75a4.807,4.807,0,0,1,3.6,1.28l2.079-1.276A7.03,7.03,0,0,0,13.042,0C8.817,0,6,2.8,6,6.25V10H5a1,1,0,0,0-1,1V21a1,1,0,0,0,1,1H21a1,1,0,0,0,1-1V11A1,1,0,0,0,21,10Zm-6.424,6.727v1.909a1,1,0,0,1-1,1H12.394a1,1,0,0,1-1-1V16.727A2.764,2.764,0,0,1,10.4,14.7a2.6,2.6,0,0,1,5.2,0A2.573,2.573,0,0,1,14.576,16.727Z"/>
  </svg>