<svg id="I_C_O_N_S" data-name="I C O N S" xmlns="http://www.w3.org/2000/svg" width="36" height="36" viewBox="0 0 36 36">
  <defs>
    <style>
      .fill {
        fill: #fff;
        opacity: 0.65;
      }
    </style>
  </defs>
      <title>S_VariableFontSettings_18_N_D@2x</title>
  <path class="fill" d="M33.5,28H15.9a5,5,0,0,0-9.8,0H2.5a.5.5,0,0,0-.5.5v1a.5.5,0,0,0,.5.5H6.1a5,5,0,0,0,9.8,0H33.5a.5.5,0,0,0,.5-.5v-1A.5.5,0,0,0,33.5,28ZM11,32a3,3,0,1,1,3-3A3,3,0,0,1,11,32Z"/>
  <path class="fill" d="M11.5,4h-9a.5.5,0,0,0-.5.5v3a.5.5,0,0,0,.5.5h1A.5.5,0,0,0,4,7.5V6H6V18H4.5a.5.5,0,0,0-.5.5v1a.5.5,0,0,0,.5.5h5a.5.5,0,0,0,.5-.5v-1a.5.5,0,0,0-.5-.5H8V6h2V7.5a.5.5,0,0,0,.5.5h1a.5.5,0,0,0,.5-.5v-3A.5.5,0,0,0,11.5,4Z"/>
  <path class="fill" d="M33.5,4h-17a.5.5,0,0,0-.5.5v7a.5.5,0,0,0,.5.5h3a.5.5,0,0,0,.5-.5V8h2v8H20.5a.5.5,0,0,0-.5.5v3a.5.5,0,0,0,.5.5h9a.5.5,0,0,0,.5-.5v-3a.5.5,0,0,0-.5-.5H28V8h2v3.5a.5.5,0,0,0,.5.5h3a.5.5,0,0,0,.5-.5v-7A.5.5,0,0,0,33.5,4Z"/>
</svg>
