<svg id="S_VertSpaceAfter_Md_N_D_2x" data-name="S_VertSpaceAfter_Md_N_D@2x" xmlns="http://www.w3.org/2000/svg" width="36" height="36" viewBox="0 0 36 36">
  <defs>
    <style>
      .fill {
        fill: #fff;
        fill-rule: evenodd;
        opacity: 0.65;
      }

      
    </style>
  </defs>
  <title>S_VertSpaceAfter_Md_N_D@2x</title>
  <rect class="fill" x="30" y="16" width="2" height="14" rx="0.5" ry="0.5"/>
  <rect class="fill" x="24" y="16" width="2" height="18" rx="0.5" ry="0.5"/>
  <rect class="fill" x="18" y="16" width="2" height="14" rx="0.5" ry="0.5"/>
  <path class="fill" d="M13.836,8.82A0.5,0.5,0,0,0,13.452,8H10V2.5A0.5,0.5,0,0,0,9.5,2h-1a0.5,0.5,0,0,0-.5.5V8H4.516a0.5,0.5,0,0,0-.384.82L9,14Z"/>
  <path class="fill" d="M13.5,16h-9a0.5,0.5,0,0,0-.5.5v17a0.5,0.5,0,0,0,.5.5h9a0.5,0.5,0,0,0,.5-0.5v-17A0.5,0.5,0,0,0,13.5,16ZM6,32V18h6V32H6Z"/>
  </svg>
