<svg id="S_VertSpaceBefore_Md_N_D_2x" data-name="S_VertSpaceBefore_Md_N_D@2x" xmlns="http://www.w3.org/2000/svg" width="36" height="36" viewBox="0 0 36 36">
  <defs>
    <style>
      .fill {
        fill: #fff;
        fill-rule: evenodd;
        opacity: 0.65;
      }

      
    </style>
  </defs>
  <title>S_VertSpaceBefore_Md_N_D@2x</title>
  <rect class="fill" x="16" y="16" width="2" height="14" rx="0.5" ry="0.5"/>
  <rect class="fill" x="10" y="16" width="2" height="18" rx="0.5" ry="0.5"/>
  <rect class="fill" x="4" y="16" width="2" height="14" rx="0.5" ry="0.5"/>
  <path class="fill" d="M31.836,8.82A0.5,0.5,0,0,0,31.452,8H28V2.5A0.5,0.5,0,0,0,27.5,2h-1a0.5,0.5,0,0,0-.5.5V8H22.516a0.5,0.5,0,0,0-.384.82L27,14Z"/>
  <path class="fill" d="M31.5,16h-9a0.5,0.5,0,0,0-.5.5v17a0.5,0.5,0,0,0,.5.5h9a0.5,0.5,0,0,0,.5-0.5v-17A0.5,0.5,0,0,0,31.5,16ZM24,32V18h6V32H24Z"/>
  </svg>
