<svg id="S_ViewSnapshot_Sm_N_D_2x" data-name="S_ViewSnapshot_Sm_N_D@2x" xmlns="http://www.w3.org/2000/svg" width="32" height="32" viewBox="0 0 32 32">
  <defs>
    <style>
      .fill {
        fill: #fff;
        fill-rule: evenodd;
        opacity: 0.65;
      }

      
    </style>
  </defs>
  <title>S_ViewSnapshot_Sm_N_D@2x</title>
  <path class="fill" d="M13.98,18a1.05,1.05,0,0,1,1.04-1.06h0A1.067,1.067,0,0,1,16.08,18a1.054,1.054,0,0,1-1.048,1.06H15.02a1.037,1.037,0,0,1-1.04-1.034Q13.98,18.013,13.98,18Z"/>
  <path class="fill" d="M0,19.54S5.06,27,13.06,27,26,19.54,26,19.54,21.06,11,13.06,11C5.12,11,0,19.54,0,19.54ZM7.28,19A5.722,5.722,0,1,1,13,24.86,5.788,5.788,0,0,1,7.28,19v0Z"/>
  <circle class="fill" cx="21.5" cy="8.214" r="2.5"/>
  <path class="fill" d="M29,4H25.76L23.8,1.646a1,1,0,0,0-.768-0.36H18.971a1,1,0,0,0-.768.36L16.24,4H13a1,1,0,0,0-1,1V9.043Q12.522,9,13.06,9a13.529,13.529,0,0,1,4.624.822,4.14,4.14,0,1,1,4.46,2.482A21.424,21.424,0,0,1,24.1,14H29a1,1,0,0,0,1-1V5A1,1,0,0,0,29,4Z"/>
  </svg>