<svg id="S_Visibility_Xs_N_D_2x" data-name="S_Visibility_Xs_N_D@2x" xmlns="http://www.w3.org/2000/svg" width="26" height="26" viewBox="0 0 26 26">
  <defs>
    <style>
      .fill {
        fill: #fff;
        opacity: 0.65;
        isolation: isolate;
      }

      
    </style>
  </defs>
  <title>S_Visibility_Xs_N_D@2x</title>
  <path class="fill" d="M14.292,11.731a0.848,0.848,0,0,1,.84-0.856h0a0.862,0.862,0,0,1,.856.856,0.851,0.851,0,0,1-.846.856h-0.01a0.838,0.838,0,0,1-.84-0.835Q14.291,11.741,14.292,11.731Z"/>
  <path class="fill" d="M3,12.975S7.087,19,13.548,19,24,12.975,24,12.975s-3.99-6.9-10.452-6.9C7.135,6.077,3,12.975,3,12.975Zm5.88-.436a4.622,4.622,0,1,1,4.62,4.733,4.675,4.675,0,0,1-4.62-4.729v0Z"/>
  </svg>