<svg id="S_ViewPath_Sm_N_D_2x" data-name="S_ViewPath_Sm_N_D@2x" xmlns="http://www.w3.org/2000/svg" width="32" height="32" viewBox="0 0 32 32">
  <defs>
    <style>
      .fill {
        fill: #fff;
        fill-rule: evenodd;
        opacity: 0.65;
      }

      
    </style>
  </defs>
  <title>S_ViewPath_Sm_N_D@2x</title>
  <path class="fill" d="M29,8a1,1,0,0,0,1-1V5a1,1,0,0,0-1-1H27a1,1,0,0,0-1,1V6H16V5a1,1,0,0,0-1-1H13a1,1,0,0,0-1,1V6.586L4.586,14H3a1,1,0,0,0-1,1v2a1,1,0,0,0,1,1H4v6H3a1,1,0,0,0-1,1v2a1,1,0,0,0,1,1H5a1,1,0,0,0,1-1V26H26v1a1,1,0,0,0,1,1h2a1,1,0,0,0,1-1V25a1,1,0,0,0-1-1H28V18h1a1,1,0,0,0,1-1V15a1,1,0,0,0-1-1H28V8h1ZM6,15.414L13.414,8H26V24H6V15.414Z"/>
  </svg>