<svg id="S_VisibilityTri_Lg_N_D_2x" data-name="S_VisibilityTri_Lg_N_D@2x" xmlns="http://www.w3.org/2000/svg" width="44" height="36" viewBox="0 0 44 36">
  <defs>
    <style>
      .fill {
        fill: #fff;
        fill-rule: evenodd;
        opacity: 0.65;
      }

      
    </style>
  </defs>
  <title>S_VisibilityTri_Lg_N_D@2x</title>
  <path class="fill" d="M31.4,30H40.6a0.5,0.5,0,0,1,.354.854L36,36l-4.97-5.16A0.5,0.5,0,0,1,31.4,30Z"/>
  <path class="fill" d="M23.744,15.885a1.333,1.333,0,0,1,1.32-1.345h0a1.354,1.354,0,0,1,1.345,1.345,1.338,1.338,0,0,1-1.33,1.345H25.064a1.316,1.316,0,0,1-1.32-1.312Q23.743,15.9,23.744,15.885Z"/>
  <path class="fill" d="M6,17.839s6.422,9.468,16.576,9.468S39,17.839,39,17.839,32.73,7,22.576,7C12.5,7,6,17.839,6,17.839Zm9.24-.685a7.263,7.263,0,1,1,7.26,7.438,7.346,7.346,0,0,1-7.26-7.432V17.154Z"/>
  </svg>