<svg xmlns="http://www.w3.org/2000/svg" data-name="S_VRHeadset_16_N_D@2x" height="32" id="S_VRHeadset_16_N_D_2x" viewBox="0 0 32 32" width="32">
  <defs>
    <style>
      .fill {
        fill: #b1b1b1;
      }

      
    </style>
  </defs>
  <title>S_VRHeadset_16_N_D@2x</title>
  <path class="fill" d="M2,10v5H1a1,1,0,0,1-1-1V11a1,1,0,0,1,1-1Zm27,5h1v1.476c0,6.367-6.066,6.944-7.524,6.944-1.547,0-2.992-.193-3.85-1.48L17.25,19.874a1.5,1.5,0,0,0-2.5,0L13.374,21.94c-.858,1.287-2.3,1.48-3.85,1.48C8.161,23.42,2,22.877,2,16.476V15H3a1,1,0,0,0,1-1V11a1,1,0,0,0-1-1H2.037A4.571,4.571,0,0,1,6.572,6H25.428a4.571,4.571,0,0,1,4.535,4H29a1,1,0,0,0-1,1v3A1,1,0,0,0,29,15ZM13.6,13.75A3.75,3.75,0,1,0,9.85,17.5,3.75,3.75,0,0,0,13.6,13.75Zm12.4,0a3.75,3.75,0,1,0-3.75,3.75A3.75,3.75,0,0,0,26,13.75ZM31,10H30v5h1a1,1,0,0,0,1-1V11A1,1,0,0,0,31,10Z" />
  </svg>