<svg xmlns="http://www.w3.org/2000/svg" data-name="S_VRHeadsetDropdown_16_N_D@2x" height="32" id="S_VRHeadsetDropdown_16_N_D_2x" viewBox="0 0 32 32" width="32">
  <defs>
    <style>
      .fill {
        fill: #fff;
        opacity: 0.65;
      }

      
    </style>
  </defs>
  <title>S_VRHeadsetDropdown_16_N_D@2x</title>
  <path class="fill" d="M2,8v5H1a1,1,0,0,1-1-1V9A1,1,0,0,1,1,8Zm27,5h1v1.476c0,6.367-6.066,6.944-7.524,6.944-1.547,0-2.992-.193-3.85-1.48L17.25,17.874a1.5,1.5,0,0,0-2.5,0L13.374,19.94c-.858,1.287-2.3,1.48-3.85,1.48C8.161,21.42,2,20.877,2,14.476V13H3a1,1,0,0,0,1-1V9A1,1,0,0,0,3,8H2.037A4.571,4.571,0,0,1,6.572,4H25.428a4.571,4.571,0,0,1,4.535,4H29a1,1,0,0,0-1,1v3A1,1,0,0,0,29,13ZM13.6,11.75A3.75,3.75,0,1,0,9.85,15.5,3.75,3.75,0,0,0,13.6,11.75Zm12.4,0a3.75,3.75,0,1,0-3.75,3.75A3.75,3.75,0,0,0,26,11.75ZM31,8H30v5h1a1,1,0,0,0,1-1V9A1,1,0,0,0,31,8Z" />
  <path class="fill" d="M24,32l-5.146-5.146A.5.5,0,0,1,19.207,26h9.586a.5.5,0,0,1,.353.854Z" />
  </svg>